<svg xmlns="http://www.w3.org/2000/svg" width="320.032" height="31.104" viewBox="0 0 320.032 31.104"><path d="M3.3-25.92c-1.024,0-1.632.64-1.632,1.984,0,1.28.416,3.456.608,5.056l.576,3.68h.9l.608-3.68c.16-1.6.608-3.776.608-5.056C4.96-25.28,4.352-25.92,3.3-25.92Zm6.08,0c-1.056,0-1.664.64-1.664,1.984,0,1.28.448,3.456.64,5.056l.576,3.68h.9l.608-3.68c.16-1.6.608-3.776.608-5.056C11.04-25.28,10.4-25.92,9.376-25.92ZM29.44-20.608c-1.44.1-10.08.256-11.456.224a20.776,20.776,0,0,1-2.976-.256l-.224.416a.237.237,0,0,0,.1.288A9.65,9.65,0,0,0,17.472-18.3a11.785,11.785,0,0,1,2.4-.448c1.184-.1,8.992-.256,10.272-.256a27.885,27.885,0,0,1,2.912.128,1.65,1.65,0,0,0,.7-1.312.52.52,0,0,0-.352-.48,16.389,16.389,0,0,0-2.944-.448Zm1.824,8.224c0-3.168-2.976-5.248-6.624-5.248-3.68,0-6.688,2.08-6.688,5.248S20.96-7.1,24.64-7.1C28.288-7.1,31.264-9.184,31.264-12.384Zm-2.56,0c0,2.208-1.824,3.456-4.064,3.456s-4.032-1.248-4.032-3.456S22.4-15.9,24.64-15.9,28.7-14.592,28.7-12.384ZM19.552-25.056a.342.342,0,0,0,0,.352,7.581,7.581,0,0,0,2.016,1.92.837.837,0,0,0,.64.128c1.408-.128,3.84-.16,5.408-.192a.576.576,0,0,0,.512-.192,1.763,1.763,0,0,0,.1-1.408.486.486,0,0,0-.512-.288,45.87,45.87,0,0,1-7.936-.608ZM43.712-13.44a1.4,1.4,0,0,0,.736-.192,2.055,2.055,0,0,0,.384-1.312.676.676,0,0,0-.544-.576,14.851,14.851,0,0,0-2.848-.16l-1.024.608-2.08.1v-9.056L38.4-25.76a.624.624,0,0,0-.384-.7,16.149,16.149,0,0,0-4.352-.864c-.256,0-.352.032-.384.16l-.288.9a6.021,6.021,0,0,1,2.656,1.664V-9.856c0,1.5.064,4.608.224,5.856h1.536a23.345,23.345,0,0,0,.928-6.72v-2.592ZM26.272-1.248V-2.656l.064-1.5a.56.56,0,0,0-.512-.64,24.8,24.8,0,0,0-4-.352.376.376,0,0,0-.384.224l-.16.8a5.8,5.8,0,0,1,2.24.992V-.064c0,1.824.8,2.592,2.976,2.592l13.472-.064a.786.786,0,0,0,.48-.16A2.145,2.145,0,0,0,40.832.96a.486.486,0,0,0-.448-.48A15.141,15.141,0,0,0,37.248.224L36.16.832C34.3.9,29.024.96,27.072.928c-.576,0-.8-.256-.8-.832ZM71.232-14.88l-2.464.064a32.166,32.166,0,0,0,2.176-8.16l.48-1.152a.338.338,0,0,0-.064-.448,12.392,12.392,0,0,0-1.6-.832.55.55,0,0,0-.544,0L68-24.864c-2.112.1-11.328.256-12.928.256a20.547,20.547,0,0,1-3.36-.32l-.224.448c-.064.128-.032.256.128.384a11.236,11.236,0,0,0,2.912,1.7,12.982,12.982,0,0,1,2.912-.544c1.44-.1,7.84-.192,10.4-.16a51.932,51.932,0,0,1-.9,8.352c-5.568.1-14.4.224-15.872.192a29.76,29.76,0,0,1-3.68-.352l-.256.48a.29.29,0,0,0,.1.32A9.562,9.562,0,0,0,50.5-12.256a19.639,19.639,0,0,1,3.328-.608c.736-.064,3.552-.1,6.816-.16v2.464c0,.9.032,2.368.128,3.456l-5.92.064a19.677,19.677,0,0,1-3.3-.288l-.224.48a.265.265,0,0,0,.1.352,11.1,11.1,0,0,0,2.912,1.632,11.155,11.155,0,0,1,2.912-.544c1.376-.1,7.744-.16,10.368-.128V-.384a34.991,34.991,0,0,0,.256,4.16h1.664a17.929,17.929,0,0,0,.736-4.8l.1-4.352.384-1.088c.064-.192.064-.32-.064-.416a13.669,13.669,0,0,0-1.408-.832.705.705,0,0,0-.512,0l-.992.448-4.96.128A20.631,20.631,0,0,0,63.3-11.2v-1.856l8.768-.064c.96,0,2.944.064,3.776.16a1.645,1.645,0,0,0,.768-1.344.59.59,0,0,0-.448-.608,16.472,16.472,0,0,0-3.712-.512ZM113.28,3.456a31.764,31.764,0,0,0,.9-7.1V-24l.1-1.76a.683.683,0,0,0-.416-.7,16.913,16.913,0,0,0-4.384-.864c-.288,0-.352.032-.416.16l-.256.864a6.215,6.215,0,0,1,2.688,1.728V-2.752c0,1.44.1,4.928.224,6.208Zm-9.088-14.72-3.968-4.1a18.888,18.888,0,0,0,1.952-5.088,4.85,4.85,0,0,0,.064-.736.724.724,0,0,0-.416-.672,14.3,14.3,0,0,0-3.9-1.312c-.192-.032-.32,0-.384.128l-.416.768a5.1,5.1,0,0,1,1.952,1.792c-.992,4.64-4.256,10.08-8.8,14.5-.128.128-.128.224-.032.32l.448.384a.292.292,0,0,0,.384,0A31.185,31.185,0,0,0,99.3-13.76l6.08,6.88a2.4,2.4,0,0,0,.8.672,1.219,1.219,0,0,0,1.344-.512,1.429,1.429,0,0,0-.16-1.088,17.685,17.685,0,0,0-1.5-2.656Zm40.384,8.7c0-3.36-3.008-5.664-6.976-5.664-3.936,0-6.944,2.3-6.944,5.664,0,3.52,3.008,5.952,6.944,5.952C141.568,3.392,144.576.96,144.576-2.56Zm-2.816,0c0,2.336-1.792,3.776-4.16,3.776s-4.128-1.44-4.128-3.776c0-2.368,1.76-3.808,4.128-3.808S141.76-4.928,141.76-2.56Zm8.352-12.8a1.4,1.4,0,0,0,.736-.192,1.986,1.986,0,0,0,.384-1.312.676.676,0,0,0-.544-.576,14.851,14.851,0,0,0-2.848-.16l-1.024.608-2.08.1v-7.136l.064-1.728a.624.624,0,0,0-.384-.7,16.149,16.149,0,0,0-4.352-.864c-.256,0-.352.032-.384.16l-.288.9a6.021,6.021,0,0,1,2.656,1.664v11.456c0,1.344.064,4.1.224,5.312h1.6a23.458,23.458,0,0,0,.864-6.112v-1.28Zm-13.664,1.216-3.264-2.5a23.827,23.827,0,0,0,3.424-5.12l.672-.992a.309.309,0,0,0-.064-.448c-.32-.192-1.184-.576-1.632-.768a.987.987,0,0,0-.608,0l-1.12.544c-1.5.1-7.168.16-8.352.16a17.631,17.631,0,0,1-2.848-.224l-.192.384c-.064.128-.064.192.064.352a12.228,12.228,0,0,0,2.5,1.568,8.975,8.975,0,0,1,2.368-.512c.768-.064,4.16-.128,5.92-.128A34.847,34.847,0,0,1,121.6-8.928a.194.194,0,0,0,0,.32l.416.384c.1.064.192.064.352-.032A35.99,35.99,0,0,0,132-15.36l5.568,4.64a1.924,1.924,0,0,0,.768.448,1.163,1.163,0,0,0,1.184-.64,1.323,1.323,0,0,0-.192-.9,17.169,17.169,0,0,0-1.44-2.016Zm39.1-5.632c0-3.392-3.2-5.76-7.488-5.76s-7.52,2.368-7.52,5.76c0,3.36,3.232,5.7,7.52,5.7S175.552-16.416,175.552-19.776Zm-2.72,0c0,2.432-2.08,3.936-4.768,3.936s-4.768-1.5-4.768-3.936c0-2.464,2.08-3.968,4.768-3.968S172.832-22.24,172.832-19.776Zm4.8,8.512c-2.24.16-18.144.352-20.16.32a24.516,24.516,0,0,1-3.68-.32l-.256.48a.307.307,0,0,0,.1.32A10.744,10.744,0,0,0,156.9-8.608a19.711,19.711,0,0,1,3.328-.64c1.76-.1,16-.256,18.24-.256.96,0,2.944.064,3.776.16a1.553,1.553,0,0,0,.768-1.344.579.579,0,0,0-.448-.576,16.473,16.473,0,0,0-3.712-.512ZM163.36-2.272v-1.6l.064-1.5a.611.611,0,0,0-.48-.672,25.331,25.331,0,0,0-4-.32c-.224,0-.352.064-.384.224l-.16.768a6.9,6.9,0,0,1,2.24,1.024V-.384c0,1.792.768,2.624,2.848,2.624l13.824-.1a.628.628,0,0,0,.48-.16,2,2,0,0,0,.416-1.312.544.544,0,0,0-.48-.512,17.521,17.521,0,0,0-3.136-.224L173.5.512c-1.856.1-7.264.128-9.344.1-.576,0-.8-.256-.8-.8Zm45.7-15.744a4.133,4.133,0,0,1-4.384,4.256,4.107,4.107,0,0,1-4.352-4.256,4.158,4.158,0,0,1,4.352-4.32A4.184,4.184,0,0,1,209.056-18.016Zm11.2,15.232a1.482,1.482,0,0,0,.32-.96.385.385,0,0,0-.224-.32l-.576-.288a16.718,16.718,0,0,0,.64-3.3l.416-.832a.382.382,0,0,0-.064-.48c-.32-.16-1.024-.512-1.408-.672a.793.793,0,0,0-.544,0l-1.024.48c-1.952.1-9.76.16-11.424.16a16.746,16.746,0,0,1-3.008-.288l-.192.384a.315.315,0,0,0,.1.352,10.537,10.537,0,0,0,2.656,1.536,15.118,15.118,0,0,1,2.656-.48c1.216-.064,6.944-.128,8.96-.1.032.608,0,2.432-.064,3.168l-.544.16c-1.248.064-7.072.128-9.088.128-.9-.1-3.2-.16-4.16-.16-.224,0-.32.064-.352.192l-.128.64a4.406,4.406,0,0,1,1.824.864V.416c0,1.5.608,2.112,2.464,2.144l14.336-.1a.6.6,0,0,0,.448-.16,1.851,1.851,0,0,0,.384-1.216.544.544,0,0,0-.48-.512,12.688,12.688,0,0,0-2.848-.224l-.992.48c-1.92.1-7.616.128-9.984.1-.416,0-.576-.192-.576-.608V-2.624Zm-7.04-13.056a17.878,17.878,0,0,1-1.824-.1,6.3,6.3,0,0,0,.352-2.08c0-3.616-2.976-6.272-7.072-6.272s-7.072,2.656-7.072,6.272,2.976,6.3,7.072,6.3a7.086,7.086,0,0,0,6.3-3.3,8.656,8.656,0,0,0,1.856,1.12,11.067,11.067,0,0,1,1.984-.448c.672-.064,2.144-.1,3.264-.1.032,1.216.128,3.008.256,3.872h1.6a16.036,16.036,0,0,0,.832-5.216v-8.256l.1-1.728a.624.624,0,0,0-.384-.7,16.667,16.667,0,0,0-4.352-.864c-.256,0-.352.032-.384.16l-.288.9a5.723,5.723,0,0,1,2.624,1.664v2.368c-1.376.064-3.072.1-3.9.1a21.879,21.879,0,0,1-2.528-.16l-.192.352a.265.265,0,0,0,.1.352,8.181,8.181,0,0,0,2.24,1.44,8.864,8.864,0,0,1,1.984-.448,21.435,21.435,0,0,1,2.3-.1V-16C216.544-15.9,214.24-15.84,213.216-15.84Zm20.7,7.3v-4.48l9.184-.224a1.766,1.766,0,0,0,.32-1.024.373.373,0,0,0-.224-.352l-.672-.32c.16-.7.32-1.76.48-2.848a9.091,9.091,0,0,0,1.824,1.056,11.066,11.066,0,0,1,1.984-.448c.7-.064,2.336-.1,3.584-.1v5.568c-1.632.1-4.16.16-5.216.16a22.546,22.546,0,0,1-2.592-.16l-.192.352a.315.315,0,0,0,.1.352A9.4,9.4,0,0,0,244.8-9.6a11.067,11.067,0,0,1,1.984-.448,30.5,30.5,0,0,1,3.616-.1V-2.72c0,1.44.1,4.928.256,6.24h1.536a32.278,32.278,0,0,0,.9-7.136V-24l.1-1.76a.645.645,0,0,0-.416-.7,16.391,16.391,0,0,0-4.384-.864c-.256,0-.352.032-.384.16l-.288.864a6.028,6.028,0,0,1,2.688,1.728v5.728c-1.632.1-4.128.16-5.184.16-.672,0-1.44-.032-2.112-.1l.128-1.92.384-.992c.064-.192.064-.352-.1-.448-.288-.192-1.056-.608-1.44-.8a.888.888,0,0,0-.576,0l-1.024.512c-1.408.1-6.56.192-7.776.16a18.3,18.3,0,0,1-2.88-.224l-.224.416a.315.315,0,0,0,.1.352,12.33,12.33,0,0,0,2.56,1.536,12.81,12.81,0,0,1,2.464-.48c.768-.064,4.192-.128,5.568-.128.032,1.12,0,4.608-.064,5.824l-.576.16c-.832.1-4.352.16-5.728.192-.96-.128-3.232-.16-4.16-.16-.224,0-.32.064-.352.192l-.16.7a4.87,4.87,0,0,1,1.92.9v5.856a5.617,5.617,0,0,0,.16,1.7c.512,1.184,1.088,1.536,2.592,1.536.384,0,.832,0,1.248-.032a39.1,39.1,0,0,0,10.208-2.24c.16-.064.256-.192.224-.32l-.16-.64c-.032-.128-.16-.192-.352-.128a61.768,61.768,0,0,1-10.56,1.088c-.448,0-.608-.192-.608-.576Zm50.336-.7a17.539,17.539,0,0,0,.864-5.568v-9.216l.064-1.728a.624.624,0,0,0-.384-.7,16.162,16.162,0,0,0-4.32-.864c-.288,0-.384.032-.416.16l-.288.9a6.021,6.021,0,0,1,2.656,1.664v10.592a44.984,44.984,0,0,0,.224,4.768ZM276.48-18.08c0-3.648-3.008-6.208-7.136-6.208-4.16,0-7.2,2.56-7.2,6.208,0,3.712,3.04,6.272,7.2,6.272C273.472-11.808,276.48-14.368,276.48-18.08Zm-2.688,0a4.109,4.109,0,0,1-4.448,4.224A4.109,4.109,0,0,1,264.9-18.08a4.133,4.133,0,0,1,4.448-4.256A4.133,4.133,0,0,1,273.792-18.08ZM284.8-1.5,282.144-4.16a15.187,15.187,0,0,0,1.216-2.528,1.976,1.976,0,0,0,.128-.7.748.748,0,0,0-.416-.64,14.16,14.16,0,0,0-3.52-1.376c-.224-.032-.352,0-.416.16l-.416.768a4.4,4.4,0,0,1,1.7,1.632,22.833,22.833,0,0,1-7.168,9.824c-.16.128-.192.224-.064.352l.448.352c.128.1.192.1.384-.032a24.384,24.384,0,0,0,7.2-6.4l4.288,4.9a1.673,1.673,0,0,0,.7.544,1.034,1.034,0,0,0,1.152-.48,1.126,1.126,0,0,0-.064-.9,14.168,14.168,0,0,0-1.12-2.176ZM273.984-2.752,272.192-4.48a12.554,12.554,0,0,0,.928-1.856,2.339,2.339,0,0,0,.128-.736.692.692,0,0,0-.384-.608,12.078,12.078,0,0,0-3.488-1.12c-.224-.032-.32.032-.384.16l-.448.768a4.2,4.2,0,0,1,1.7,1.376c-1.056,2.976-3.648,6.24-7.072,8.9-.16.128-.16.224-.064.32l.448.416c.128.064.224.064.416-.064a22.982,22.982,0,0,0,7.3-6.144L274.08.1a1.252,1.252,0,0,0,.672.448.948.948,0,0,0,.96-.512.953.953,0,0,0,0-.672c-.16-.416-.48-1.152-.736-1.664ZM307.04-11.9l.16-1.472a.477.477,0,0,0-.352-.576,20.939,20.939,0,0,0-3.936-.512c-.256,0-.352.1-.384.192l-.192.8a5.456,5.456,0,0,1,2.016,1.12l.064,8.48-8.256.064a29.76,29.76,0,0,1-3.68-.352l-.256.48a.307.307,0,0,0,.1.32A9.562,9.562,0,0,0,295.584-1.5a19.711,19.711,0,0,1,3.328-.64c1.76-.1,16-.256,18.24-.256.96,0,2.944.064,3.776.16a1.539,1.539,0,0,0,.768-1.312.59.59,0,0,0-.448-.608,16.473,16.473,0,0,0-3.712-.512l-1.216.544c-1.056.064-5.12.128-9.376.192Zm6.624,4.32a.452.452,0,0,0,.48-.256A49.846,49.846,0,0,0,316.8-21.216l.48-1.184c.064-.192.064-.32-.1-.448a12.44,12.44,0,0,0-1.6-.96.611.611,0,0,0-.576,0l-1.248.608c-2.464.128-12.608.288-14.336.256a19.6,19.6,0,0,1-3.264-.288l-.224.448c-.064.128-.032.224.1.352a10.364,10.364,0,0,0,2.88,1.76,14.972,14.972,0,0,1,3.136-.544c1.632-.1,8.8-.224,11.648-.224a89.512,89.512,0,0,1-.96,13.28c-.032.288,0,.416.192.448Z" transform="translate(-1.664 27.328)" fill="#525150"/></svg>