<svg xmlns="http://www.w3.org/2000/svg" width="192.296" height="46.384" viewBox="0 0 192.296 46.384"><path d="M45.968-13.416v-25.22H35.412v2.912H27.56a16.905,16.905,0,0,0-10.244-3.12c-8.892,0-14.664,5.252-14.664,12.272,0,7.124,5.772,12.272,14.664,12.272a16.6,16.6,0,0,0,10.608-3.38h7.488v4.264ZM45.6,1.3a7.537,7.537,0,0,0,1.2-4.056c0-5.824-6.032-10.4-20.436-10.4C12.012-13.156,5.98-8.632,5.98-2.808,5.98,3.068,12.012,7.54,26.364,7.54,37.18,7.54,43.316,5.044,45.6,1.3ZM35.412-25.064H31.98a11.961,11.961,0,0,0,.1-1.456,10.155,10.155,0,0,0-.156-1.768h3.484ZM21.736-26.52c0,2.236-1.56,4.056-4.42,4.056A4.044,4.044,0,0,1,13-26.572a4.044,4.044,0,0,1,4.316-4.108A4.085,4.085,0,0,1,21.736-26.52Zm14.2,23.764c0,.468-.364,1.04-1.82,1.456a29.281,29.281,0,0,1-7.748.728C18.408-.572,16.8-1.82,16.8-2.808s1.612-2.236,9.568-2.236S35.932-3.8,35.932-2.756ZM95.368-15.028V-38.636H84.812V-31.3H80.548c-1.924-4.628-6.916-7.54-13.832-7.54-8.892,0-14.664,4.836-14.664,11.908,0,7.124,5.772,11.908,14.664,11.908,6.916,0,11.8-2.808,13.832-7.384h4.264v7.384Zm0,21.944V-13.676H84.812v3.328H66.664v-3.328H56.108V6.916ZM69.94-24.076a4.483,4.483,0,0,1-3.224,1.092c-2.7,0-4.368-1.612-4.368-3.952,0-2.288,1.664-3.952,4.368-3.952,2.756,0,4.42,1.664,4.42,4A3.69,3.69,0,0,1,69.94-24.076ZM84.812-.52H66.664V-3.432H84.812Zm58.916,7.436V-13.26H148.3v-9.36h-4.576V-38.636H133.172V-5.3C126.2-9.62,121.628-15.7,121.628-26.156V-37.6H110.864v11.44c0,10.66-4.42,17.732-12.584,22.308l6.708,6.968C109.824.364,114.3-4.264,116.22-8.84A30.115,30.115,0,0,0,126.932,2.34l6.24-7.176V6.916Zm50.96-9.724V-38.636h-10.3v26.78h-11.18V-4.94h11.18v2.132Zm-12.9-27.456c0-5.408-5.044-8.58-14.664-8.58-9.568,0-14.612,3.172-14.612,8.528,0,5.408,5.044,8.632,14.612,8.632C176.748-21.684,181.792-24.856,181.792-30.264ZM194.948,6.708V-.936H165.62V-6.448H155.064V6.708ZM170.664-7.436a39.115,39.115,0,0,0,.676-5.46c4.212-.156,8.112-.364,11.44-.572V-20.8c-9.36.416-23.088.728-32.864.884v7.644l11.076-.312a27.449,27.449,0,0,1-.728,4.68Zm.156-21.58a15.21,15.21,0,0,1-3.692.312c-3.38,0-4.784-.416-4.784-1.612,0-1.092,1.4-1.508,4.784-1.508,3.484,0,4.784.364,4.784,1.56Q171.912-29.406,170.82-29.016Z" transform="translate(-2.652 38.844)" fill="#001856"/></svg>