<svg xmlns="http://www.w3.org/2000/svg" width="282.308" height="46.748" viewBox="0 0 282.308 46.748"><g transform="translate(-1063.976 -3889.48)"><path d="M47.216,6.916V-38.636H37.44v15.6h-2.6v-15.5H25.584V6.4H34.84v-20.02h2.6V6.916ZM23.4-9.412A60.1,60.1,0,0,1,11.8-8.32V-27.976H22.776v-9.152H1.976V1.144c7.072,0,16.432-.312,22.568-1.716ZM94.172-5.3V-16.276h4.472v-9.412H94.172V-38.636H83.512V-5.3ZM81.536-27.768v-7.54H71.968v-4.16H60.84v4.16H51.272v7.54ZM79.56-14.456a6.487,6.487,0,0,0,.988-3.536c0-5.2-5.512-8.736-14.092-8.736-8.736,0-14.2,3.484-14.2,8.684s5.46,8.684,14.2,8.684C72.9-9.36,77.584-11.336,79.56-14.456ZM94.38,6.708V-1.2H66.04v-6.76H55.484V6.708Zm-24.8-23.5a10.046,10.046,0,0,1-3.12.416c-2.652,0-4.42-.572-4.42-1.664,0-.988,1.768-1.664,4.42-1.664,2.548,0,4.316.676,4.316,1.716C70.772-17.472,70.356-17.056,69.576-16.8ZM144.768-6.76V-38.636H134.212V-6.76Zm-15.132-6.448v-24.44h-27.82v24.44ZM145.08,6.708V-2.184H116.22V-10.4H105.664V6.708ZM119.288-21.58h-7.176v-7.7h7.176Zm73.58,28.808V-10.036h-14.56v-4.472h17.576v-7.7h-4.368a69.1,69.1,0,0,0,1.612-15.912H152.62v7.7h29.848a39.54,39.54,0,0,1-1.092,8.216h-31.46v7.7H167.44v4.472H152.62v7.7h29.64V7.228Zm88.92-34.008v-8.06H266.864v-4.68H255.736v4.68H240.812v8.06Zm2.5,31.564V-3.328H266.708V-6.656c9.152-.884,12.948-4.368,12.948-9.308,0-5.824-5.252-9.568-18.408-9.568s-18.46,3.744-18.46,9.568c0,4.94,3.744,8.32,13.052,9.308v3.328H238.316V4.784ZM269.1-15.964c0,.78-.468,1.248-1.716,1.612a24.345,24.345,0,0,1-6.136.468c-5.98,0-7.852-.572-7.852-2.08,0-1.56,1.872-2.132,7.852-2.132C267.124-18.1,269.1-17.472,269.1-15.964Z" transform="translate(1062 3929)" fill="#001856"/><path d="M7.98,0h8.64V-43.74H2.16V-36H7.98Z" transform="translate(1278 3936)" fill="#001856"/></g></svg>