<svg xmlns="http://www.w3.org/2000/svg" width="393.345" height="31.077" viewBox="0 0 393.345 31.077"><path d="M26.4,3.456a29.085,29.085,0,0,0,.9-6.816V-24.192l.1-1.6a.613.613,0,0,0-.416-.7,14.3,14.3,0,0,0-4.064-.832c-.256,0-.352.032-.416.192l-.288.832a5.691,5.691,0,0,1,2.464,1.6V-2.5c0,1.408.1,4.736.256,5.952ZM16.16-14.208c-.768,0-1.7-.032-2.4-.1l-.224.384c-.064.1-.032.192.064.32a9.569,9.569,0,0,0,2.144,1.408,8.875,8.875,0,0,1,1.92-.48l1.28-.1v8.384c0,1.344.1,4.416.256,5.7h1.408a26.493,26.493,0,0,0,.864-6.528v-16.96l.064-1.472a.62.62,0,0,0-.352-.64,13.61,13.61,0,0,0-3.776-.832.432.432,0,0,0-.416.192l-.288.864a4.863,4.863,0,0,1,2.24,1.44v8.352C17.984-14.24,16.864-14.208,16.16-14.208ZM14.048-9.952l-2.752-3.3a23.738,23.738,0,0,0,3.392-6.272l.608-.992a.387.387,0,0,0-.064-.448c-.288-.16-1.056-.512-1.472-.7a.888.888,0,0,0-.576,0L12.1-21.12c-1.44.064-6.048.1-7.1.1A16.092,16.092,0,0,1,2.3-21.216l-.192.384c-.064.1-.032.192.1.32a9.962,9.962,0,0,0,2.4,1.536,8.977,8.977,0,0,1,2.24-.448c.64-.1,3.264-.128,4.736-.128A35.89,35.89,0,0,1,1.5-5.216a.248.248,0,0,0,.064.32l.384.352c.1.064.224.032.384-.064a35.131,35.131,0,0,0,7.936-7.264l4.16,5.664a1.773,1.773,0,0,0,.672.64,1.083,1.083,0,0,0,1.248-.32,1.284,1.284,0,0,0,0-.928,14.8,14.8,0,0,0-1.088-2.5Zm52.928-.672a17.691,17.691,0,0,0,.864-5.568v-7.84l.1-1.728a.683.683,0,0,0-.416-.7,16.162,16.162,0,0,0-4.32-.864c-.288,0-.352.032-.416.16l-.288.9a5.841,5.841,0,0,1,2.656,1.664v9.216a44.684,44.684,0,0,0,.256,4.768Zm.672,3.232.1-1.312a.487.487,0,0,0-.352-.544,14.9,14.9,0,0,0-3.808-.736c-.256,0-.352.064-.384.16l-.288.864A5.667,5.667,0,0,1,64.96-7.776v3.008l-9.632.1v-1.5l.064-1.344c0-.288-.1-.48-.352-.544A19.424,19.424,0,0,0,51.3-8.48c-.256,0-.384.064-.416.16l-.224.8a4.775,4.775,0,0,1,1.92,1.056L52.768,1.6a5.575,5.575,0,0,0,.32,1.888h1.44A1.938,1.938,0,0,0,55.1,2.5l12.8-.064a1.8,1.8,0,0,0,.32-1.056.367.367,0,0,0-.288-.352L67.328.8a15.135,15.135,0,0,0,.32-2.816ZM64.96-3.1V.768l-9.7.064.032-3.84ZM59.04-14.56l-3.264-2.5a22.51,22.51,0,0,0,3.584-4.96l.672-.992c.1-.16.1-.352-.064-.416a8.948,8.948,0,0,0-1.664-.768.887.887,0,0,0-.576,0l-1.12.512c-1.568.1-7.3.16-8.48.16a17.355,17.355,0,0,1-2.848-.224l-.192.416c-.064.1-.032.192.1.32a9.742,9.742,0,0,0,2.5,1.568,9.783,9.783,0,0,1,2.336-.48c.8-.064,4.256-.128,6.048-.16A35.026,35.026,0,0,1,44.1-9.792a.18.18,0,0,0,0,.288l.384.416c.1.064.192.032.352-.064a37.057,37.057,0,0,0,9.76-6.656l5.568,4.672a1.61,1.61,0,0,0,.768.448,1.011,1.011,0,0,0,1.12-.608,1.09,1.09,0,0,0-.192-.864,10.369,10.369,0,0,0-1.44-2.016Zm31.1,17.888a31.2,31.2,0,0,0,.9-6.88V-8.7l8.8-.1c.96,0,2.944.064,3.776.16a1.553,1.553,0,0,0,.768-1.344.579.579,0,0,0-.448-.576,16.472,16.472,0,0,0-3.712-.512l-1.216.512c-2.24.16-18.144.352-20.16.32a24.516,24.516,0,0,1-3.68-.32l-.256.48a.307.307,0,0,0,.1.32A10.117,10.117,0,0,0,78.272-7.9a19.711,19.711,0,0,1,3.328-.64l6.752-.128v5.984c0,1.5.128,4.64.256,6.016ZM97.664-14.5a1.749,1.749,0,0,0,.416-1.152A.374.374,0,0,0,97.824-16l-.672-.288a53.822,53.822,0,0,0,.928-6.72l-2.88-.064,2.88.064.448-1.152c.1-.192.1-.32-.064-.416-.352-.192-1.184-.64-1.664-.832a.8.8,0,0,0-.544,0L95.1-24.8c-2.5.128-8.256.16-10.848.16a31.335,31.335,0,0,0-4.224-.352c-.224,0-.288.032-.32.16l-.224.8a4.593,4.593,0,0,1,1.92,1.088l.608,7.872a6.807,6.807,0,0,0,.384,1.92h1.44a2.978,2.978,0,0,0,.512-1.216ZM84.32-22.976c3.328-.064,7.488-.128,10.88-.1l-.256,6.752-.544.16c-2.272.1-7.1.16-9.984.128Zm47.2,12.288a15.5,15.5,0,0,0,.864-5.248v-8.1l.064-1.728a.624.624,0,0,0-.384-.7,16.162,16.162,0,0,0-4.32-.864c-.288,0-.384.032-.416.16l-.288.9a6.021,6.021,0,0,1,2.656,1.664v9.44a40.37,40.37,0,0,0,.224,4.48Zm.384,7.936a1.658,1.658,0,0,0,.32-.992.39.39,0,0,0-.192-.32l-.576-.288a16.718,16.718,0,0,0,.64-3.3l.416-.832a.429.429,0,0,0-.064-.48c-.32-.16-1.056-.512-1.408-.672a.793.793,0,0,0-.544,0l-1.024.48c-1.824.1-9.76.16-11.456.16a16.746,16.746,0,0,1-3.008-.288l-.192.384c-.064.128-.064.224.1.352a10.537,10.537,0,0,0,2.656,1.536,15.118,15.118,0,0,1,2.656-.48c1.248-.064,7.04-.128,8.992-.1.032.7,0,2.5-.064,3.2l-.544.16c-1.28.064-7.3.128-9.248.128-.864-.1-3.168-.16-4.128-.16-.192,0-.32.064-.352.16l-.128.672a4.044,4.044,0,0,1,1.824.864V.384c0,1.5.64,2.144,2.432,2.144l14.4-.064a.765.765,0,0,0,.448-.16,2.037,2.037,0,0,0,.384-1.248.544.544,0,0,0-.48-.512A18.373,18.373,0,0,0,130.912.32L129.92.8C128.032.9,122.3.928,119.9.9c-.416,0-.576-.16-.576-.576V-2.624Zm-9.152-12.832-3.872-3.232a18.211,18.211,0,0,0,1.664-3.616,2.565,2.565,0,0,0,.1-.736.757.757,0,0,0-.448-.672,14.463,14.463,0,0,0-3.776-1.28c-.224-.032-.32,0-.384.128l-.416.768a4.716,4.716,0,0,1,1.824,1.7c-1.216,4-4.512,8.512-8.928,12.064-.16.128-.192.224-.064.352l.384.384a.343.343,0,0,0,.384-.032,28.086,28.086,0,0,0,8.672-7.584L124-11.84a2.372,2.372,0,0,0,.8.544,1.118,1.118,0,0,0,1.184-.64c.1-.192.032-.512-.224-.96a13.75,13.75,0,0,0-1.568-2.24ZM163.584-3.936c-.928.064-4.288.128-8,.192v-7.3l7.712-.128a.628.628,0,0,0,.48-.16,1.808,1.808,0,0,0,.352-1.216.516.516,0,0,0-.48-.512,17.616,17.616,0,0,0-3.1-.224l-.96.512c-2.08.128-8.16.224-10.4.192-.544,0-.768-.224-.768-.8v-7.712l14.592-.256a.7.7,0,0,0,.512-.16,2.1,2.1,0,0,0,.32-1.248.513.513,0,0,0-.448-.512,23.569,23.569,0,0,0-3.136-.192l-1.024.512c-1.792.1-7.808.224-10.784.256a35.294,35.294,0,0,0-4.544-.352.391.391,0,0,0-.352.192l-.16.832a5.725,5.725,0,0,1,2.272,1.024v7.328c0,1.856.832,2.72,2.88,2.72l4.384-.064v7.3c-4.352.064-8.544.1-9.5.1a24.516,24.516,0,0,1-3.68-.32l-.256.48a.325.325,0,0,0,.1.32,10.744,10.744,0,0,0,3.264,1.856,19.711,19.711,0,0,1,3.328-.64c1.76-.1,16-.256,18.24-.256.96,0,2.944.064,3.776.16a1.553,1.553,0,0,0,.768-1.344.579.579,0,0,0-.448-.576,16.473,16.473,0,0,0-3.712-.512Zm31.424-14.08a4.133,4.133,0,0,1-4.384,4.256,4.107,4.107,0,0,1-4.352-4.256,4.158,4.158,0,0,1,4.352-4.32A4.184,4.184,0,0,1,195.008-18.016Zm11.2,15.232a1.482,1.482,0,0,0,.32-.96.385.385,0,0,0-.224-.32l-.576-.288a16.718,16.718,0,0,0,.64-3.3l.416-.832a.382.382,0,0,0-.064-.48c-.32-.16-1.024-.512-1.408-.672a.793.793,0,0,0-.544,0l-1.024.48c-1.952.1-9.76.16-11.424.16a16.746,16.746,0,0,1-3.008-.288l-.192.384a.315.315,0,0,0,.1.352,10.537,10.537,0,0,0,2.656,1.536,15.118,15.118,0,0,1,2.656-.48c1.216-.064,6.944-.128,8.96-.1.032.608,0,2.432-.064,3.168l-.544.16c-1.248.064-7.072.128-9.088.128-.9-.1-3.2-.16-4.16-.16-.224,0-.32.064-.352.192l-.128.64a4.406,4.406,0,0,1,1.824.864V.416c0,1.5.608,2.112,2.464,2.144l14.336-.1a.6.6,0,0,0,.448-.16,1.851,1.851,0,0,0,.384-1.216.544.544,0,0,0-.48-.512A12.688,12.688,0,0,0,205.28.352l-.992.48c-1.92.1-7.616.128-9.984.1-.416,0-.576-.192-.576-.608V-2.624Zm-7.04-13.056a17.878,17.878,0,0,1-1.824-.1,6.3,6.3,0,0,0,.352-2.08c0-3.616-2.976-6.272-7.072-6.272s-7.072,2.656-7.072,6.272,2.976,6.3,7.072,6.3a7.086,7.086,0,0,0,6.3-3.3,8.656,8.656,0,0,0,1.856,1.12,11.067,11.067,0,0,1,1.984-.448c.672-.064,2.144-.1,3.264-.1.032,1.216.128,3.008.256,3.872h1.6a16.036,16.036,0,0,0,.832-5.216v-8.256l.1-1.728a.624.624,0,0,0-.384-.7,16.667,16.667,0,0,0-4.352-.864c-.256,0-.352.032-.384.16l-.288.9a5.723,5.723,0,0,1,2.624,1.664v2.368c-1.376.064-3.072.1-3.9.1a21.879,21.879,0,0,1-2.528-.16l-.192.352a.265.265,0,0,0,.1.352,8.181,8.181,0,0,0,2.24,1.44,8.864,8.864,0,0,1,1.984-.448,21.435,21.435,0,0,1,2.3-.1V-16C202.5-15.9,200.192-15.84,199.168-15.84Zm20.7,7.3v-4.48l9.184-.224a1.766,1.766,0,0,0,.32-1.024.373.373,0,0,0-.224-.352l-.672-.32c.16-.7.32-1.76.48-2.848a9.091,9.091,0,0,0,1.824,1.056,11.066,11.066,0,0,1,1.984-.448c.7-.064,2.336-.1,3.584-.1v5.568c-1.632.1-4.16.16-5.216.16a22.546,22.546,0,0,1-2.592-.16l-.192.352a.315.315,0,0,0,.1.352,9.4,9.4,0,0,0,2.3,1.408,11.067,11.067,0,0,1,1.984-.448,30.5,30.5,0,0,1,3.616-.1V-2.72c0,1.44.1,4.928.256,6.24h1.536a32.278,32.278,0,0,0,.9-7.136V-24l.1-1.76a.645.645,0,0,0-.416-.7,16.391,16.391,0,0,0-4.384-.864c-.256,0-.352.032-.384.16l-.288.864a6.028,6.028,0,0,1,2.688,1.728v5.728c-1.632.1-4.128.16-5.184.16-.672,0-1.44-.032-2.112-.1l.128-1.92.384-.992c.064-.192.064-.352-.1-.448-.288-.192-1.056-.608-1.44-.8a.888.888,0,0,0-.576,0l-1.024.512c-1.408.1-6.56.192-7.776.16a18.3,18.3,0,0,1-2.88-.224l-.224.416a.315.315,0,0,0,.1.352,12.33,12.33,0,0,0,2.56,1.536,12.81,12.81,0,0,1,2.464-.48c.768-.064,4.192-.128,5.568-.128.032,1.12,0,4.608-.064,5.824l-.576.16c-.832.1-4.352.16-5.728.192-.96-.128-3.232-.16-4.16-.16-.224,0-.32.064-.352.192l-.16.7a4.87,4.87,0,0,1,1.92.9v5.856a5.617,5.617,0,0,0,.16,1.7c.512,1.184,1.088,1.536,2.592,1.536.384,0,.832,0,1.248-.032a39.1,39.1,0,0,0,10.208-2.24c.16-.064.256-.192.224-.32l-.16-.64c-.032-.128-.16-.192-.352-.128a61.768,61.768,0,0,1-10.56,1.088c-.448,0-.608-.192-.608-.576Zm59.872-.7a17.539,17.539,0,0,0,.864-5.568v-9.216l.064-1.728a.624.624,0,0,0-.384-.7,16.162,16.162,0,0,0-4.32-.864c-.288,0-.384.032-.416.16l-.288.9a6.021,6.021,0,0,1,2.656,1.664v10.592a44.976,44.976,0,0,0,.224,4.768Zm-7.776-8.832c0-3.648-3.008-6.208-7.136-6.208-4.16,0-7.2,2.56-7.2,6.208,0,3.712,3.04,6.272,7.2,6.272C268.96-11.808,271.968-14.368,271.968-18.08Zm-2.688,0a4.109,4.109,0,0,1-4.448,4.224,4.109,4.109,0,0,1-4.448-4.224,4.133,4.133,0,0,1,4.448-4.256A4.133,4.133,0,0,1,269.28-18.08ZM280.288-1.5,277.632-4.16a15.187,15.187,0,0,0,1.216-2.528,1.976,1.976,0,0,0,.128-.7.748.748,0,0,0-.416-.64,14.16,14.16,0,0,0-3.52-1.376c-.224-.032-.352,0-.416.16l-.416.768a4.4,4.4,0,0,1,1.7,1.632,22.834,22.834,0,0,1-7.168,9.824c-.16.128-.192.224-.064.352l.448.352c.128.1.192.1.384-.032a24.384,24.384,0,0,0,7.2-6.4l4.288,4.9a1.673,1.673,0,0,0,.7.544,1.034,1.034,0,0,0,1.152-.48,1.126,1.126,0,0,0-.064-.9,14.162,14.162,0,0,0-1.12-2.176ZM269.472-2.752,267.68-4.48a12.554,12.554,0,0,0,.928-1.856,2.339,2.339,0,0,0,.128-.736.692.692,0,0,0-.384-.608,12.078,12.078,0,0,0-3.488-1.12c-.224-.032-.32.032-.384.16l-.448.768a4.2,4.2,0,0,1,1.7,1.376c-1.056,2.976-3.648,6.24-7.072,8.9-.16.128-.16.224-.064.32l.448.416c.128.064.224.064.416-.064a22.982,22.982,0,0,0,7.3-6.144L269.568.1a1.252,1.252,0,0,0,.672.448.948.948,0,0,0,.96-.512.953.953,0,0,0,0-.672c-.16-.416-.48-1.152-.736-1.664Zm42.336-9.984c-2.24.128-18.144.352-20.16.32a29.76,29.76,0,0,1-3.68-.352l-.256.48a.29.29,0,0,0,.1.32,9.562,9.562,0,0,0,3.264,1.856,19.639,19.639,0,0,1,3.328-.608c1.76-.128,16-.288,18.24-.256.96,0,2.944.064,3.776.16a1.645,1.645,0,0,0,.768-1.344.59.59,0,0,0-.448-.608,16.473,16.473,0,0,0-3.712-.512ZM309.12-19.3l-5.7-2.56a16.385,16.385,0,0,0,1.44-1.984,2.182,2.182,0,0,0,.224-.8.723.723,0,0,0-.448-.672,13.631,13.631,0,0,0-3.744-1.12c-.256-.032-.384.032-.448.128l-.48.768a4.306,4.306,0,0,1,1.664,1.344c-1.888,3.264-5.824,6.56-10.816,8.928a.191.191,0,0,0-.1.32l.352.48c.1.064.16.1.384,0a27.565,27.565,0,0,0,10.816-6.144l10.208,4.736a2.2,2.2,0,0,0,.96.224,1.089,1.089,0,0,0,.9-.96,1.352,1.352,0,0,0-.544-.832,17.3,17.3,0,0,0-2.4-1.632Zm1.472,12.7.1-1.312a.487.487,0,0,0-.352-.544,14.915,14.915,0,0,0-3.776-.736c-.256,0-.352.064-.384.16l-.288.864a5.667,5.667,0,0,1,2.048,1.184v2.432l-9.92.064.032-1.344.064-1.344a.522.522,0,0,0-.384-.544,18.418,18.418,0,0,0-3.648-.416c-.288,0-.352.064-.416.16l-.224.8a5.08,5.08,0,0,1,1.952,1.024l.128,7.68a5.3,5.3,0,0,0,.352,1.856h1.344a1.968,1.968,0,0,0,.576-.96c3.04-.032,10.3-.1,13.088-.064a1.8,1.8,0,0,0,.32-1.056c0-.192-.1-.288-.288-.352L310.24.672a12.547,12.547,0,0,0,.32-2.784Zm-2.656,3.68V.672l-9.984.064.064-3.584Zm19.136-11.744V-18.88l.032-1.568a.591.591,0,0,0-.48-.672,25.969,25.969,0,0,0-4.1-.32c-.224,0-.32.064-.384.224l-.16.832a7.057,7.057,0,0,1,2.368,1.056V-8.9a5.609,5.609,0,0,0,.16,1.5A2.4,2.4,0,0,0,326.88-5.6,7.16,7.16,0,0,0,328-5.664a71.108,71.108,0,0,0,14.5-2.944v5.856c0,1.44.128,4.928.256,6.208h1.536a30.011,30.011,0,0,0,.9-7.1V-24l.1-1.76a.624.624,0,0,0-.384-.7,16.9,16.9,0,0,0-4.416-.864c-.256,0-.352.032-.384.16l-.288.864a5.851,5.851,0,0,1,2.688,1.728v14.432a69.215,69.215,0,0,1-14.848,2.208c-.416,0-.576-.192-.576-.608ZM374.848,3.456a30.062,30.062,0,0,0,.928-7.1v-8.576l5.376-.1a1.181,1.181,0,0,0,.736-.224,1.884,1.884,0,0,0,.384-1.28.711.711,0,0,0-.544-.608,14.851,14.851,0,0,0-2.848-.16l-1.024.64-2.08.1V-24l.1-1.76a.683.683,0,0,0-.416-.7,16.913,16.913,0,0,0-4.384-.864c-.288,0-.352.032-.416.16l-.288.864a6.148,6.148,0,0,1,2.72,1.728V-9.664a68.887,68.887,0,0,1-14.4,2.08c-.448.032-.576-.16-.576-.576V-19.584l9.728-.32a.6.6,0,0,0,.48-.192,2.1,2.1,0,0,0,.32-1.248.481.481,0,0,0-.416-.48,19.023,19.023,0,0,0-2.784-.192l-.928.544c-.992.1-4.864.256-6.336.256a32.961,32.961,0,0,0-4.416-.32c-.192,0-.288.064-.32.192l-.192.8a4.835,4.835,0,0,1,2.112,1.024V-8.544a4.756,4.756,0,0,0,.16,1.536,2.375,2.375,0,0,0,2.368,1.76c.32,0,.7,0,1.12-.032a66.236,66.236,0,0,0,14.08-2.848v5.376c0,1.44.1,4.928.224,6.208ZM387.072-25.92c-1.024,0-1.632.64-1.632,1.984,0,1.28.416,3.456.608,5.056l.576,3.68h.9l.608-3.68c.16-1.6.608-3.776.608-5.056C388.736-25.28,388.128-25.92,387.072-25.92Zm6.08,0c-1.056,0-1.664.64-1.664,1.984,0,1.28.448,3.456.64,5.056l.576,3.68h.9l.608-3.68c.16-1.6.608-3.776.608-5.056C394.816-25.28,394.176-25.92,393.152-25.92Z" transform="translate(-1.471 27.328)" fill="#525150"/></svg>