<svg xmlns="http://www.w3.org/2000/svg" width="62" height="41" viewBox="0 0 62 41"><g transform="translate(-1309 -5208)"><line x1="17.498" transform="translate(1331.663 5241.479)" fill="none" stroke="#fff" stroke-miterlimit="10" stroke-width="2"/><g transform="translate(1309 5208)"><path d="M8.67,33.292H1V16.913H43.891L61,22.262V33.292H54.056" fill="none" stroke="#fff" stroke-miterlimit="10" stroke-width="2"/><path d="M15.659,28.641a5.18,5.18,0,1,1-5.159,5.18,5.175,5.175,0,0,1,5.159-5.18m0-2a7.18,7.18,0,1,0,7.159,7.18,7.169,7.169,0,0,0-7.159-7.18" fill="#fff"/><path d="M47.023,28.641a5.18,5.18,0,1,1-5.159,5.18,5.175,5.175,0,0,1,5.159-5.18m0-2a7.18,7.18,0,1,0,7.159,7.18,7.169,7.169,0,0,0-7.159-7.18" fill="#fff"/><path d="M5.091,17.41,8.693,1h28.22l7.8,15.238.6,1.172" fill="none" stroke="#fff" stroke-miterlimit="10" stroke-width="2"/></g></g></svg>