<svg xmlns="http://www.w3.org/2000/svg" xmlns:xlink="http://www.w3.org/1999/xlink" width="60" height="60" viewBox="0 0 60 60"><defs><clipPath id="a"><rect width="60" height="60" fill="none"/></clipPath></defs><path d="M50.5,50.5H9.5V9.5h41Zm2-43H7.5v45h45Z" fill="#fff"/><path d="M43,43H17V17H43Zm2-28H15V45H45Z" fill="#fff"/><g clip-path="url(#a)"><path d="M1,9H-1V0H1Z" transform="translate(18.75)" fill="#fff"/><path d="M1,9H-1V0H1Z" transform="translate(41.249)" fill="#fff"/><path d="M1,9H-1V0H1Z" transform="translate(29.999)" fill="#fff"/><path d="M9,1H0V-1H9Z" transform="translate(0 41.25)" fill="#fff"/><path d="M9,1H0V-1H9Z" transform="translate(0 18.75)" fill="#fff"/><path d="M9,1H0V-1H9Z" transform="translate(0 30)" fill="#fff"/><path d="M1,8.438H-1V0H1Z" transform="translate(41.249 51.562)" fill="#fff"/><path d="M1,8.438H-1V0H1Z" transform="translate(18.75 51.562)" fill="#fff"/><path d="M1,8.438H-1V0H1Z" transform="translate(29.999 51.562)" fill="#fff"/><path d="M8.439,1H0V-1H8.439Z" transform="translate(51.561 18.75)" fill="#fff"/><path d="M8.439,1H0V-1H8.439Z" transform="translate(51.561 41.25)" fill="#fff"/><path d="M8.439,1H0V-1H8.439Z" transform="translate(51.561 30)" fill="#fff"/></g></svg>