<svg xmlns="http://www.w3.org/2000/svg" width="1049.58" height="88.308" viewBox="0 0 1049.58 88.308"><path d="M53.73-54.9a.474.474,0,0,0-.54-.45c-2.52-.81-3.96,2.07-4.5,3.33h.54v.54l-.36.18-.72.54,1.08.63h-.54l.54.54v.63c0,.54,0,.54.63.54l-.63.63c-1.71.63-3.24.63-3.96,1.17-.54,1.26-1.71,1.26-2.88,1.26-7.11,3.42-14.94,4.86-19.26,12.42-1.26.54-1.62-.36-2.88-1.44a6.355,6.355,0,0,0,1.17-3.6c1.71-.63.54-1.17,1.71-1.8,0-1.17,1.08-1.17,1.08-2.25,0,0-1.17-.72-.54-.72h1.08v-1.08c.72-.54.72-2.34,1.8-2.97a.561.561,0,0,0-.54-.63c1.08-1.17,1.26-4.32,1.98-4.95-7.11,2.97-16.29,6.3-23.4,9.36-2.34,0-4.05,4.14-4.32,5.94,4.14,1.08,5.76-2.16,9.9-2.7a4.746,4.746,0,0,1,2.88-1.26c.63-1.08,1.8-.54,2.34-1.08-.54,0-.54,0-1.17-.54,2.34,1.08,3.96-2.16,5.76-.36-1.26.54-1.35.81-1.89,2.07,1.08,1.08-.63,1.08-.63,1.71-1.17,3.51-4.14,7.11-4.68,11.16-1.26,1.17-1.62,2.88-2.88,4.14C8.19-18.09,5.85-12.33,4.05-7.02c0,.54-.54,1.08,0,1.71l-.54.63c.54,0,3.69,1.17,4.23,1.17,0-.54.63-1.8,1.17-1.17,0-.63,1.17-.99.63-1.53l-.63-.54h.63v-.63s.54-1.17,1.17-.63a4.943,4.943,0,0,0-.63-1.62c1.8-.72.63-2.52,1.8-3.69-1.17-.54,1.26-.54,0-1.71l.54-.63c0-1.17,1.26-2.34,1.26-3.51-.54,0-.54,0-1.26-.54,1.8.54,1.8-1.26,2.34-1.8,0-1.26,0-2.97,1.8-3.6-.54-.54,1.17-1.98,0-1.98v-.45c1.17-.54.72-.9,1.26-.27,0,0-.09.54-.45.63h.45a3.631,3.631,0,0,0,1.26,2.61H17.82l2.34,1.71L19.08-21.6l.54.54c0,.36,0,.54-.18.54.36.09.72.18.72.72,0,0,0,.99-.45,1.08h1.08c.63.63,0,1.26-.63,1.8h.63c1.17,0,1.17,1.62,1.17,2.25h-.54v1.17H22.5v.54c0,.63,0,.63-.54.63l2.34.54c0,.63-.54,0-1.08,0,0,1.17,2.34,2.43.54,3.51h5.13l-.54-.54c.54-.54,1.17,0,1.17-1.26a5.562,5.562,0,0,1-.63-2.88l-1.08-.54,1.08-.63c-.54-1.17-.54-2.79-1.8-3.96,1.26,0-.54-1.71-.54-2.43-.54-.54,0-1.08-.54-1.62.54-1.26-.54-1.8-.54-2.43-.72,0-1.26,0-1.26-.63l1.26-.54c-1.26-1.17-.36-1.44-1.53-2.07.63-1.8,1.53.09,2.61-.99v-.72h-.54l.9-.81.18-.27,2.43-1.26-.63-.54h.63a.869.869,0,0,1,1.17,0c-.54-1.17,2.34-.54,2.97-1.8-.63,0-.63.63-1.26,0l3.06-1.71h-.72c3.06-1.17,4.14-1.71,7.11-2.88,0-2.43,3.24-1.17,4.5-2.97l-.54-.54.54-.54.54.54v-.54c.63-1.26,1.26,0,2.34,0,0,.54.63,1.08,0,1.62,0,.72.63,1.8,0,2.43,1.26.54-1.08,1.71.63,1.71l-.63.63v1.17l.63,1.17h-.63c-.54,1.17.63,1.8,0,2.88h.63c.63.72-.63.72-.63,1.8,0,.54.63.54,0,1.26-.54,1.08.63,1.53,0,2.7,0,.54-.54,1.8,0,1.8l.09,1.17-.09,1.71c-1.08,0,0,1.26,0,1.8,0,1.17,1.44,1.17,2.07,1.8v.63c-.63,0-.99.09-.99-.54-.54,1.17.36,1.08.99,1.62.54-.54,1.08,0,1.08-1.08h-.63l.63-.63h-.63c0-1.17.72-.63,1.35-.63.99,0,.72.99.18,1.26.54-.18.99-.45.99,0,0,.54-.63.54-.63,1.08-.54,1.26.18,1.98-.99,2.61-.72,3.24-2.43,6.66-5.4,7.47-1.26-.54-1.44-1.17-1.44-1.71,0-1.8-1.17-2.79-1.17-4.5h.54v-.54l.54-.63s-.63,0-.63-.54c.63,0,.63-.63,1.17-.63l-.54-.54h.9a7.6,7.6,0,0,0,.99-.99c.54-.54.54,0,1.08,0l-1.08.63.54.63a4.086,4.086,0,0,0,.54-1.26h0c.18-.36.45-.63,1.08-.36l-.09-1.89c-1.8-1.17-4.05-.36-5.76-.9-1.8.54-2.34,4.05-4.14,4.68l.63.54a14.835,14.835,0,0,0-1.8,3.6,1.178,1.178,0,0,0,1.17,1.08c-.63.63-.63,0-1.17.63.54.63-.54,2.34.54,2.34.63.63-.54.63-.54,1.26h.54a1.845,1.845,0,0,1,.63,1.17s.63-.63.63,0l-1.26.54c2.43,0,5.04,2.34,6.75,1.71v.63a3.111,3.111,0,0,0,2.34-.63c2.34,0,2.7-2.61,5.67-2.61l-.63-.63h.9q-.27,0-.27-.54a6.792,6.792,0,0,0,2.88-2.61h-.54c0-.63,0-1.26.54-1.26,0-.54-.54,0-1.17-.54l2.43-.54-.63-.72c1.17,0,.63-2.25,1.71-2.25-.54-1.8.63-2.34.63-4.14h-.63c0-.54.27-.45.27-.45.72,0,.36-.09.99-.09.54-2.34-2.34-4.14-3.6-6.48-1.17,0-2.34-1.26-2.88-1.26v-.54c0-.54.54,0,.54,0,0-.54-.54-.54,0-1.17-.54,0-.54,0-1.17-.54.63-.63,1.17,0,1.8-.63-.63-.63-.63-1.71-1.17-1.71l.54-.72c.63.63.09-2.16,1.17-3.42H54.45l.63-.63h.54c.63-1.17-.54-.63-1.17-.63,1.8-1.08,1.17-3.51,1.17-4.05-.54-1.17-.54-1.17-1.17-1.17,0-.63.63-.63,1.17-.63l-.54-1.08h.54c0-1.26,0-1.26-1.17-1.8a5.888,5.888,0,0,0,1.17-2.97c-.54,0-.54,0-1.17-.54.63,0,.63-.63,1.17,0v-1.26c-1.71-2.34.63-3.51-1.71-5.31Zm28.71,1.89c-1.08-.54-5.31.9-6.39,2.97-3.24,2.7-3.24,7.47-5.4,10.17l.54.54c-2.7-.54-.54,2.16-2.16,2.7,0,.54.54,1.08.54,1.62-2.7.54-.54,3.78-2.7,5.4a2.805,2.805,0,0,0,1.08,2.16,1.161,1.161,0,0,1-1.08,1.08c-.54.54-.54.54,0,1.08-1.62,1.08.54,3.24-1.62,3.78,1.62,1.62,0,2.7,0,3.78h1.08l-.72,1.35c1.62.54,5.4.63,6.48.09-1.08-1.08,1.71-3.06-.45-3.06l1.62-.54-.54-.54,1.08-.54c-1.62-.54,0-2.52-.54-3.06,0-.54.54.36.54-.18-1.08-1.08.54-1.08.54-2.16a.529.529,0,0,1-.54-.54h.54v-1.08c1.08-3.24,1.26.54,2.88-.54a1,1,0,0,1-.81.54c0,1.08.81,1.26,1.35,1.8.54,0,1.08.54.54,1.08l1.8.54c1.62.54,1.08,1.62,1.62,2.16.54,1.08,3.24,0,2.7,1.08.54,0,1.62.54,2.16,0,0-.54.54-.54,1.08-.54,1.08,1.08,1.08.54,2.7.54,0-.54,1.35-2.16,1.35-2.7l-1.35-.54c-4.86-1.08-5.13-6.57-8.91-9.81-1.08-1.08-.81-3.24-2.43-3.24l-.54.54c-2.7,0,1.08-1.62-.54-3.24,2.16-1.08-.18-2.16,1.98-3.78,0-1.08,1.08-2.16,1.08-3.24l.54-.54H81c.54-1.62,1.44-3.33,1.98-4.95Zm24.39-2.07c-.54-.54-4.05-.54-5.04.18-1.53.81-.54,1.08-1.08,2.61,0,1.08,0,1.71.54,2.25,0,.54-.54.54-.54,1.08-.54,0,0,1.08.54,1.08l-.54.54c.54.54-1.62,1.08,0,1.62,0,.54-.54,0-1.08.54a.529.529,0,0,0,.54.54c0,1.08,0,1.89-.54,2.43h.54v.9l-.54.54a.529.529,0,0,1-.54.54l1.08,1.98H99.09c0,.54.54.54,0,1.08h.54c.45.54,3.33,1.17,4.23,1.08a6.205,6.205,0,0,0,2.79-.54c2.16,2.7-1.62,0-2.16,1.62.54,0,1.62-.54,2.16,0,2.7.54,5.4-1.62,8.1-2.7.54-.54,1.62.54,2.16-.54l.99-.45.27-.72h.54c.54.54,1.08,0,1.62-.54,1.08,0,1.89-.54,2.97,0h.54v-.54c.54-.54,1.62,0,2.16-.54.27-.72,1.53-1.53,1.53-2.61-1.35-.9-1.35-1.08-2.07-1.53-6.48,0-7.38.18-12.87,2.16-1.62,1.08-2.88.72-3.96,1.8-.54-.54-1.62-.54-1.08-1.08a1.008,1.008,0,0,1-1.08-.9l1.08-1.08h-1.08c0-.54.54,0,1.08-.54-.54-.54-.63.54-.63-.54a.648.648,0,0,1,.63-.54v-.54c-1.08,0-1.62,1.08-2.16.54a2.806,2.806,0,0,1,2.16-1.08c.45-1.17-.54.36-1.08-1.26l1.08-.54-1.08-.54a16.652,16.652,0,0,1,2.16-2.25c-.54,0-1.08-1.08-1.62-.54v.9c-1.08-.54-1.62.81-2.16.27,0-.54.54-.63,1.08-1.17s.54-.54,0-1.08c-.54,0,0-.54,0-.54,0,.54,1.08,0,1.08.54C107.46-53.82,107.19-54.27,106.83-55.08Zm2.61,35.64a17.973,17.973,0,0,0-5.4-3.24c-1.08,1.08-4.23.09-5.85,1.71a.529.529,0,0,0,.54.54,10.879,10.879,0,0,0-3.87,4.77,1.984,1.984,0,0,0,1.62-.54c.54,0,0,.54.54,1.08l.54-.54.54.54c-.54,1.08-1.62-.54-1.62.54-.54-.54-1.62.54-1.62-.54-1.62,1.08-1.08,2.16-2.16,3.24l1.08,1.08c0,.54-.54-.54-1.08,0-1.08,2.16-2.25,4.32-2.25,7.02h.54C89.91-2.16,94.32.27,95.4.81c2.7-.54,7.65,0,9.27-1.62l-1.08-.54a1.672,1.672,0,0,1,1.08-.54c0-.54,0-.54.54-1.08.54,0,.54,0,.54.54.54-.54.54-.54,0-1.08,1.08-.54,2.61-.63,3.69-1.17l-1.08-1.26c-.54-1.62,1.62-1.08,2.7-2.16h-1.62c0-1.08.54-.54.54-1.08l.27-.63c1.53-1.62.18-1.98,1.35-2.61l-1.08-1.08,1.08-.54c-1.08-.54-1.08-1.62,0-1.62C110.52-17.82,109.98-17.82,109.44-19.44Zm-5.67,3.51c1.08,1.62,0,2.97.54,4.05a1.984,1.984,0,0,0-.54,1.62l.54.54a16.255,16.255,0,0,1-2.07,4.41c-1.62,1.08-2.61,1.71-4.41,1.26-.54,0,0-.54-.54-1.08.54,0,0-.27,0-.81-1.08.54-.54-.54-1.08-.54.54-1.08,1.62-1.08,2.7-1.62-.54-.54-1.08-1.08-.54-1.62l.54-.54L99-10.8c-1.08-1.08-.63,0-1.71,0H96.21c1.08-.54,2.7-1.08,2.7-2.16a2.805,2.805,0,0,0,2.16-1.08c-.54-1.08-.54.54-1.08,0,0-1.08,1.08-1.89,1.62-2.43C103.23-17.01,102.69-14.85,103.77-15.93ZM97.74,1.17c-.81-.27-1.35.18-1.8.18C96.48,1.44,97.38,2.25,97.74,1.17Zm3.33-18.99c0,.54-.54,0-1.08,0l-.54.54h-.54S100.53-18.9,101.07-17.82Zm-2.16-.54c-.54.54-1.08,1.08-1.62.54C98.37-17.82,97.83-18.9,98.91-18.36ZM97.29-9.18l.54.54H96.21ZM209.43-42.21c0-2.79-4.68,0-5.31.72.63,2.16-.09,3.78-.45,5.94l-.54.09a1.4,1.4,0,0,0,.54.99c.63,1.62-.36,4.14.81,5.13l-.54.54.63,1.08-1.08.09c-.54,1.08-.99,2.16.63,2.07a6.914,6.914,0,0,0-.54.63c1.17.45.09,1.62-.36,2.16h.54c-.54.54.54.99-.45,1.62-.54,1.08,0,2.07.99,2.07-1.44.18-.27,1.71-.81,2.25,0,.54.54.45,1.17.99-.54,0-1.08.09-1.08.63l-.54.54c.09,1.08,1.71.99,1.8,2.61a1.537,1.537,0,0,0-1.62,1.71c.54,0,1.08-.63,1.08-.09l.09.54c-.54.09-1.08.09-1.08,1.17h.54c.72.54-.18.81-.18,1.89,0,0,.09.9.45.9l-.09.45.9.9.27,1.08.45.72-.63.99c.36,0,3.15,0,3.69-.63l.54.54.54-1.08-.63-.54c.54,0,1.62-.09,1.08-1.17-.81.72-.9-.18-.09-.54l-1.08-.99a7.53,7.53,0,0,0,1.08-.09l-.63-.45c.54-.63-.09-1.62.45-1.71,0-.54.54-1.08,0-1.08l.54-.54h-.54a.438.438,0,0,1,.45-.54c-.63-2.7.81-5.4.18-8.1l.54-.54-.63-.54c0-.54,0-.54.54-.54l-.54-.54c-.09-.54-.09-.54.45-.54,0-.54,0-.54-.54-1.08l1.08-.63c-1.17-.99-.09-1.62-.72-2.61.45-1.71.36-2.79.9-4.41-1.71-.99.45-1.89-.72-3.42.99-1.17-.18-2.7.36-3.87-.09-.54-.63-.45-.63-.99l.45-1.17c0-.54-.54.09-.54-.99.45-1.71-2.07-.54-3.15-1.53C207.81-42.39,209.43-42.21,209.43-42.21Zm-11.34,2.88c-.54-1.08-4.5-3.24-5.58-1.08,1.08,1.08-1.08,1.08,0,1.62,0,1.08-.72,3.06-1.8,3.6-2.07-.36-3.96.72-5.58,1.08-2.7.63-2.07.9-4.68,1.62-1.08,2.7-5.94,1.44-7.56,3.6,1.62.54,4.86,5.31,6.48,3.69a9.451,9.451,0,0,1,2.7-.54l1.08-1.08,1.8-.54-.09-.18a15.456,15.456,0,0,1,2.88-1.53l.72-.45a3.884,3.884,0,0,1,3.15-1.17c0,1.08-.63,1.62-.09,3.24-1.08,1.08,1.08,2.16-.54,3.24l.54.54-.54.54c0,.54.54,0,.54.54h-.54c1.08.54-1.08,1.62.54,2.7-2.16,1.08,1.08,1.62,0,2.7a.648.648,0,0,1-.54.63c-.54.54,0,1.08.54,1.08-.27.09-.18.09-.54,0,.54,1.08-.54,2.16.54,2.7-.54,1.08.54,1.08,0,2.7,1.08,0,2.88-.45,3.6.36l-.72.27c.54,1.08,3.15-.09,3.69.45,0,1.08-.81.27-.99.63l.99.45c0-.54,1.08-.54.54-1.08-1.08-1.08-.45-3.24-1.53-4.32v-.54c-.54-.54,1.62-.54,0-1.08,0-.54,1.08-2.25,0-2.79,1.08-1.08-1.08-1.62.54-2.16a6.849,6.849,0,0,0-.54-3.24c1.62-1.08-.54-3.24,1.08-4.32-1.08-.54,0-2.16-.54-2.16,0-.54,0-.54.54-.54,0-.54-.54-1.98,0-2.52s0-1.44,0-1.44c0-2.16.99-3.06-.09-4.68ZM156.33-8.91c.54,0,2.43.45,2.97.45.63-1.08,3.24-1.08,3.24-2.16v-3.51c.54-.54.09-1.8,1.17-1.8,0-.54-.54-1.08,0-1.08l.54-2.7c.54-.54,1.44-1.08,1.98,0-1.08.54.54,1.08,1.08,2.16-.54,1.08,1.08.54,1.62,1.62h-.54a4.346,4.346,0,0,0,3.33,2.88c0,1.08,1.08,1.08.54,1.62,1.08,1.62,4.59,1.17,6.21,1.17l-.81-2.7c-3.24-5.4-6.12-10.98-10.44-15.3.54-.54,1.08-1.08.54-1.62s1.08-1.08.54-1.62c1.35-1.44.36-2.25,1.44-3.87.54-1.62,2.25-1.08,2.79-1.62.54,0,.54-.99,1.08-1.53l-1.08-1.08s.81-1.08.27-1.08c-1.62-.54-3.51-2.34-5.49-2.16-1.53.72-1.44,2.34-1.98,3.42-2.16,2.16-2.43,4.86-4.05,7.02,0,2.16-1.62,3.24-1.62,5.4-.54,2.7-2.7,5.94-2.7,8.64,1.08,1.08-2.79,3.42-.09,4.5-.54,0-.54.54-1.08,0-.54,1.62,1.08,1.71,1.62,2.25a4.007,4.007,0,0,1-1.26.81Zm87.3-45.99c-3.78-4.32-10.62-4.5-16.02-3.96-2.16,1.08-4.59,4.5-5.04,7.56h.54c.54,0,.63-.18.63.36l-.63.72h1.08v-.54c1.08,0,0,1.08,1.08,1.08v-.54c.54,0,1.08.54,1.62,1.08l-1.62.54,3.69.81c.54-1.62,2.16,0,3.24-.54,1.08,1.08,1.62-1.08,2.7,0,1.62-2.16,6.39-.63,8.01-4.59l.27-.36C243.18-54.36,243.63-54.36,243.63-54.9Zm-7.92,1.89c-1.08,1.62-2.97,1.35-4.59.81-.54-.54-.81-.27-1.89-.81-.45-1.35-.18-1.89,2.97-1.35C233.91-54.18,235.71-54.63,235.71-53.01Zm24.84-16.11c-2.16.09-7.11-.9-8.19.72,0,0-1.17,1.98,0,2.52l-.54.09c-.09,1.08-.09,1.08-.54,1.53l1.08.54c0,.54-1.62,1.08-.54,1.71l-.54.45c2.7.63-.54,2.79,1.08,3.87-.54.45,0,1.62,0,2.16v.54c.54-.09.09.54.09.54-.09.54-.63.45-.09,1.08.09.54.54.99,0,1.62a6.667,6.667,0,0,1,1.08.99l-1.08.09c0,.54,0,.54.63.99-.09,1.08,0,1.62-.63,2.25.54-.09.54.45,1.08.45l-.54.54a9.78,9.78,0,0,1,1.17.09c0,.54-.63.99-.63.99l.63,1.08a1.361,1.361,0,0,1-.99,1.08h.36s.63.54.54,0l.63.54c-.09,1.08.54,1.26-.63,1.8-7.56,1.08-12.69,4.14-19.62,6.84-1.71,2.16-6.39,2.16-8.01,4.86,2.7,1.08,5.31,2.07,7.47.36h-.54c0-.54.54-1.08,1.08-.54.9,1.35,2.07-.72,4.32-1.17,1.62-1.08,2.88-.72,4.41-1.8,1.62,0,2.34-1.71,3.96-.63-.54.45-1.08,1.08-1.62,1.62-4.86,5.4-5.94,9.27-10.71,15.21v1.08c-1.08,1.08.18,2.97.18,4.05l.54.99c.54.63,1.53-.09,2.07-.09-.54-1.71,1.71.63,2.16-.45h-.54l1.08-.54c1.08-1.08,3.24-.18,4.86-.18l.63.09c1.08-.54,2.25-.54,3.78-1.08v-.54c.54,0,1.17-.54,1.08,0l-.54.54c1.17.54,1.62-.54,1.71-1.08.45-.54.36-.54,1.44-.45-.45.45.99.45.99.99l-.54.54c-1.53,1.08-1.62,3.6-3.78,4.77.54,1.53-1.8,1.62-1.8,3.24-.54,0-.81.54-.27.54-4.23,4.41-6.93,8.55-11.88,12.87-.54.09.54.63-.54.63,0,1.08-1.53,2.79-.45,3.33v.54c.54,0,1.08-.09,1.62,1.08l1.08-.63c.45.09.09.45,0,.54,1.08.09.54.09,1.08-.45,1.08-1.62,3.6.99,5.22-.09l-.54-.54c.54-.54.54,0,1.08,0l2.07-.18,1.53-.18a1.351,1.351,0,0,0,1.62-1.08c1.62,1.08,2.16-.99,4.32.09.54-1.71,2.16-1.17,3.24-1.62,1.08.99,2.16-.63,3.24-.54.45-1.17,1.62-.09,2.07-1.17,2.25.54,5.67-1.44,7.83-1.35a9.3,9.3,0,0,0-.81-2.88c.54.09.81-.45.72-1.53l-2.7.54c-12.33.54-11.16,3.6-22.95,4.14.99-.99.45-1.08,1.62-1.62a.618.618,0,0,1,.54.99l.45-.45c-.54,0,.54-1.08-.54-1.08,0-2.16,2.25-.54,2.7-1.62-1.08-.54.9-.09-.72-.63a6.3,6.3,0,0,1,1.98-1.08,2.016,2.016,0,0,1-.9-.63h2.7c.54-1.08-.54-1.53.54-1.62.54-.45,1.08-.54,1.08-1.62,0-.54.54,0,1.08.09,1.62-.54.54-1.71.54-2.25.45-.54.99-.45,1.62-1.08v-.54s-.09-.54.54,0l.54-1.53c-.63-1.17.99-.63.99-1.17a.44.44,0,0,0-.45-.54c-.09-1.08.99-.45,1.53-1.08-.45-.45-1.08-1.08-.54-.99,1.62-.09,1.62-1.71,2.79-1.17.99-.54-1.17-.54-1.17-.54.09-.99,1.08-1.08,2.16-1.62a.745.745,0,0,1-.54-1.26h.54c-.54-1.62.99-1.08,1.44-2.16-3.78-3.15-9.36-2.7-13.77-1.53-1.53.54-3.24.9-4.95,1.44l-.36-.36c-.09,1.08-.54-.09-1.08,0-.63-1.08.45-.63.99-1.08h-1.08l1.08-1.62c-.54.45-.54-.09-1.08,0a23.39,23.39,0,0,0,4.95-2.52c-1.17-.63-1.62,1.62-2.7-.09-.09-.54.99-.45,1.53-1.08.45-.81,1.89-1.17,2.79-1.62l-.9-.54.54.09c-.63-2.16,2.07-2.16,2.7-2.79l-.54-.54c.45-.54,1.53-.54,2.7-.99-1.08-.09-2.16-.09-2.25-1.17l3.33-1.08-1.08.09c0-.54-.09-1.08.45-1.17h.54a3.622,3.622,0,0,1,2.25-2.61l-1.17-.63,2.61-.99-.63-.54c.54,0,.54-.54,1.08-.54l-1.08-1.62c.54,0,.63-.54,1.08-1.17l-1.08.09c.63-1.08,1.08-1.71,1.62-1.62-.54-.63-.54-.09-1.08-.54a.792.792,0,0,1,.63-.63,2.546,2.546,0,0,1,.54.27c-.81-.81.36-1.35-.09-2.34a.851.851,0,0,1-1.08,0c0-1.08,1.08-.54,1.62-.54,0-1.08,0-1.08-.54-1.62-.54-.09-1.62.54-1.62,0,.54-1.62,1.62.54,2.16-1.08h-.54c0-1.08,0-2.7.45-3.24-.45-1.08-.99-.09-.99-1.17-.09-.54.54.09.54.09l-.09-.54a.648.648,0,0,1,.63-.54l-.54-.54c.45-.54-.54-1.71-.63-2.25,1.17-.45-.45-.99.09-1.53-.63,0-.63,0-.54-.54h1.08c-1.08-.54-1.17-1.62-2.16-1.08v-.54l2.16-.54-.54-.54a2.973,2.973,0,0,0-1.08-2.7c0-.54.99-1.17,0-1.71l.45-.63Zm-2.7,1.71h1.62l.45.54Zm4.32,23.31-.45-.36Zm32.58-6.66c-6.57-1.62-13.23,2.79-20.34,2.34l-1.89,1.62c-.09,1.53,1.71,3.06,1.71,3.06,3.69,1.8,5.04-.36,8.82-.81,1.62.27,5.04-1.44,6.12-.09l-1.26,1.35c1.17,1.26-1.98,1.17-1.62,2.97-.63.54-1.98,1.44-1.44,3.24a1.547,1.547,0,0,0-1.89,1.71c-1.89.99.36,2.97-2.07,3.96-1.35.54-.72,2.97-1.53,4.14v.63s0,.54-.54,0c-.63,1.17.54,1.17.54,1.17a.733.733,0,0,1-.72.63v.54l-.09.63c0,.63.63,1.17,0,1.17.54,1.17,2.97,4.59,4.59,3.51a2.151,2.151,0,0,0,.54-1.62l.45-.45c.09-2.43,1.98-4.05,1.98-6.39.81-1.44,1.44-3.33,2.25-5.22a12.122,12.122,0,0,0,3.15,3.51c1.17,0,1.98-.54,2.52.72.63-.54.54,0,1.26-.54,1.17,0,4.23-1.26,4.59.54l1.62-.36c.72-1.8,3.15,0,4.32-.45,2.43.09,3.96-1.53,6.39-.72.54,0,1.17-1.62.36-3.51-1.26-2.88-5.13-1.44-7.47-2.16a150.774,150.774,0,0,0-16.02,1.62,13.8,13.8,0,0,1,1.26-1.89c.72-1.17.72-2.16,1.98-3.24,0,0-.63,0,.09-.63,1.8-1.08,1.98-2.88,3.15-5.13.27-1.26,1.44-1.89,1.98-3.06Zm27.9,32.58c-3.33.09-6.66.54-9.9.45-5.13.9-10.17,1.71-15.3,2.52-7.29,1.53-13.86,3.24-20.7,4.86-1.89.81-4.5.45-5.13,2.52l1.35,1.17c.36.63,1.08,1.08.81,2.16a4.676,4.676,0,0,1,3.78.63l-.45-.63c1.62-.36,3.87-.45,5.58-.81,3.33,0,5.13-1.89,8.46-2.34.54-.54,1.08.09,1.53.72l.09-1.08c1.08.18,1.71-.27,2.25-.18,2.61.99,4.77-2.52,6.66-.54l-.45-.63c2.16.36,4.5-.9,7.2-1.08,1.89-.81,1.44-.54,3.6-.18l.36-.45c1.71-.81,2.79.09,4.5-.72l-.54-.09c2.34-.72,4.59-.99,6.03-.18l-.36-.63c.63-.45,1.71-.9,2.25-1.26Zm51.21-33.3c-2.97-4.95-10.8-3.87-12.06-2.79l-3.96,6.03c-.63.72.81,1.44-.63,1.44a11.09,11.09,0,0,0-1.35,3.51.765.765,0,0,1,.63,1.35l-.63-.63c-.81.72.63.63.09,1.44h-.72c-1.44.54,0,1.98.72,2.61h-.72l.72.63-.27,1.17c1.17,0,.99,3.6,3.15,3.6l2.7.18c4.23-.81,9.36-2.88,12.51-5.76-.72-.54,0-.63-.72-.54-1.35-.63.72-1.44,1.53-1.44v-.63c.54.63,1.17-.81,1.17-.81-.72-.72-1.26-2.25-.72-2.97h1.26c-.45-.09.09-.63-.54-.63-.72-.63,0-.63,0-1.35,0,0-1.26,0-1.35-.72h1.26l-1.26-.72.54-.81c0-.45-.54-1.62-1.35-1.53Zm-4.05,5.22c-.54.63-1.98.72-2.7,2.79l.72.63c-2.07.72-2.97,3.69-5.04,4.32l.27-.72s-.27-.72.45-.72c-.72-.09-1.08-.54-1.62,0,0-1.26,2.7-2.88.63-3.51,1.44-2.07,5.22-8.82,6.75-2.79Zm33.66,4.14a.788.788,0,0,0,.09-1.08c-1.62-.54-5.76-3.33-6.84-1.71l.54,1.17h-.54c0,2.16-.27,2.79-.27,4.95l.81,3.24c-2.16.54,0,2.7-1.62,3.24l1.08.54c0,.54-.72.72-.72,1.26l-.36,1.71a.529.529,0,0,1,.54.54.474.474,0,0,0-.54.45v.54a.529.529,0,0,0,.54.54s-.54.54-.54,0c-.54,1.08,0,1.08.54,1.62l-.54.54c0,1.08-1.35,1.53-2.97,2.61-.54,1.08-2.61.36-3.15,1.44-.54,0-1.98,0-2.52,1.08-2.16.54-4.86,1.62-6.48,2.16-1.62,1.62-2.43,0-4.05,1.08-2.7,1.08-4.77,1.71-6.93,2.79-1.62,1.08-1.08-1.08-2.16-1.62l1.08-1.08c0-1.08-1.08-1.08-.54-1.62.27-.27.36-.27.45-.18-.36-1.53,1.08-1.98.63-3.51.54-.54.54-.54,1.08-.54-1.62-.54-.54-1.53,0-2.07h-.54l.54-1.08v-.54a9.9,9.9,0,0,0,.36-3.96c-1.08-1.08-3.96-1.08-5.04-2.16-.54,0-2.43.9-2.43,1.44.54.54,1.62.54,2.16,1.62-1.08,0-1.08,1.62-2.16,1.62l1.08,1.08c-.54.54-1.62,0-1.08.54-1.62,1.08-.09,2.52-1.71,3.6a23.389,23.389,0,0,0-.54,2.7c0,1.08,1.08,0,1.62,1.08,0,.54-.54,0-1.62.54,0,0-1.08.54-.54,1.08l.54-.54c1.08,1.62-1.08.54-1.08,1.62l1.08,1.08h-.54c.54,1.62-1.62,1.62-1.62,2.7,1.08,0,1.62,0,2.16-.54l-.45,1.08-1.71.54a3.894,3.894,0,0,1,2.16,1.98c0,1.08-1.62,0-1.62,1.62,2.7,2.16,6.84.54,10.08,1.08a28.337,28.337,0,0,1,6.21-2.16c2.16-2.7,6.21-1.08,8.91-3.78,1.08,1.08,2.7-.54,3.24-1.08,1.62,0,5.4-2.43,5.94-2.43l.54-.54c.54-.9,1.71.72,1.62.54v.54l-.54.54h.54l-.54.54c-.54.54.54,1.08.54,1.08,0,.54-.54.54-1.08,1.08,0,.54,1.08.54,1.08.54,0,1.08-.54.45-.54,1.53h.54c.54,1.62-.54,2.16,0,3.78.99,0,0,1.53,1.44,1.62-.09.09-.36.18-.36.54,1.08.54,1.08,1.08,1.08,1.62,1.62-1.62,4.59,2.16,5.67,1.62l-.18-2.16c0-1.08-.9-1.62-.9-2.7,0-.54,1.08,0,1.08-.54-.54,0-.54-1.08-1.08-.54-1.08-1.62,1.62-1.08,1.08-2.7-.54,0-1.08.09-1.08-.45-.54-1.08.54-.99,1.08-1.53l-.54-1.08h.54v-1.08c-.54,0-.54-1.08-1.08-1.08.54-1.08,1.08.54,1.08-.54.54-.54,1.08-2.61,0-3.15,1.44-6.12-1.08-1.98.36-8.73-2.16,2.16,1.26-2.97-.9-4.05l1.17-.81c-1.08-1.53.36-2.25-.63-3.42l.54-.54,1.08-1.35-.54-.63a.529.529,0,0,1,.54-.54c-1.08-.54-.54-1.62-1.62-1.62l1.08-.54C405.09-41.13,404.01-41.58,403.47-42.12Zm38.16,14.58c1.53,1.17,3.15,2.34,4.23,1.53.45-.45,3.06-2.25,3.42-3.33l-.18-4.23,1.17-.45c-.45-.09-1.17-.18-1.17-.72.81-1.17.81-1.17.27-1.8a.665.665,0,0,0,.63-.63c.18-.63-1.08-1.26.18-1.8l-.54-.54.81-2.88c.09-1.26-.99-2.52.81-2.97-.45-.63-.36-1.17-.99-1.89l.72-.45-.45-.72,1.17-.54c-1.08-.72.27-2.97-.99-3.06a.623.623,0,0,1,.72-.54l-.54-1.26c.54.09,1.17.18,1.17-.36.09-.63-.99-.72-.99-1.35-9.18,2.07-25.29,1.8-27.36,7.65-.09,1.17,1.53,1.89,2.07,2.79,1.26-.45,3.06-.18,3.78-1.17,2.52-1.08,5.67-.72,7.11-1.17,1.8-.36,1.62-.18,3.42-.63h-.99c-.54-.72.54-1.26.54-1.26,1.17.72,2.43,1.62,3.15.45.54,0,0,0,.09-.54a1.734,1.734,0,0,1,1.62.72v.54c.45,1.26-1.35,1.71-.27,2.52-.63.54-.72.45-.9.99.45,2.61-.09,2.16.09,4.77-1.8.99.9,3.06-1.44,3.96.99,1.35.27,3.15.63,4.86C442.44-29.79,442.98-28.53,441.63-27.54Zm-14.22-4.05a2.629,2.629,0,0,1-2.16-.72c-.54,0-2.97.09-3.51.18.09,1.53-.99,3.6-.99,5.22-.45,1.08-.45,1.44-.9,2.52-.54,1.08.45,1.89-.45,3.51.63,1.08.09,2.7.63,3.78-.45.63,1.17.45.09,1.08l.81.09c.09,1.08,1.71.63,1.26,1.8l3.6-.18c-.54-.54-.99-1.26-.45-1.35h.54a.529.529,0,0,0-.54-.54c.99-.99-.72-2.61-.18-3.78h.54l-.45-.54h.54c-.09-.54-.63-1.08-.72-1.62,1.62,0-.54-1.8.54-1.89v-1.08c.99-.54-.63-1.44.36-1.98.63,0,.63-1.08.09-1.08l.45-.54C425.43-29.88,428.67-30.06,427.41-31.59Zm10.53,5.49c1.35-1.98-3.42-3.87-4.32-4.95-1.62.27-1.71,2.34-1.89,3.42.45,1.17.18,3.33-.36,3.24,1.62.18.36,1.98,1.44,2.07l-.63.45a1.8,1.8,0,0,1,.45,1.17,1.535,1.535,0,0,0-.54.99c.54-.45.45.09.45.09l-.18,1.08s.45,1.62-.09,2.16l.45.54h-.54l-.09.54c.36,2.16-2.16,1.35-3.96,2.16-1.62-.18-4.23-.54-5.49.99a18.872,18.872,0,0,0-9.72,2.7c-.63.99-.54,1.71.45,2.34,1.62.18,3.15,2.16,4.77,2.34,2.34-.81,4.41-.09,6.75-1.44,2.52,1.44,4.14-2.79,7.11-.72l.09-.54a16.647,16.647,0,0,1,5.4-.54c.54.54.54.54,1.08.18l-.54-.18c.18-.54.18-.54.72-.9,1.53.72,3.24.36,5.4.63v-.54c.72-.54,1.8-1.44,2.88-.81l-.72.99,1.8-.81c.09-1.08,3.15-.27,4.32-.63l-.54-.72c.63-.36,2.34.9,2.52-.72.54,0,.99.54,1.44.72,0,0,.9-.54,1.35-.45,0,0,1.62-.9.54-1.08,0-.54-.45-1.17.18-1.62-1.44-1.26-4.5-1.71-6.66-1.44-.18,1.08-2.34-.27-1.98.9-.54-.09-1.35-.18-1.17-.72l.81-.45c-1.08-.09-2.43.27-3.51.09-1.26,1.08-3.24-.36-5.04.54-1.08,0-.9.27-1.89-.36l.63-.99c-.54-.09-.54-.36-.54-.9.09-.54-.27-1.89.27-1.89a4.382,4.382,0,0,0,.09-1.08c1.71-.27-1.44-2.07.36-3.51l-.9-.54.54-.54A1.443,1.443,0,0,0,437.94-26.1Zm45.9-25.74c-4.32-2.16-10.98-.54-15.3-.54-1.62.54-5.04.81-6.12,1.89,1.44,5.67,7.92,3.78,11.79,3.51,1.08-.09,1.17.81,2.25,1.35s-.54,1.08-1.08,2.16a1.885,1.885,0,0,0,.54,1.08c0,.54-1.62,0-1.62,1.08a1.984,1.984,0,0,1,1.62.54l-2.16.54c-1.08,2.16-1.71,2.43-3.87,4.05-.54,3.24-5.04,6.21-5.58,8.91a.775.775,0,0,1,.45.72l1.8,1.53-.54.54c1.08.54,2.16-1.08,2.7.54,2.16-.54,4.23-1.08,6.39-.54.54,0,1.08,1.08,1.62,0,1.08.54,2.7-.54,2.7,1.08a1.672,1.672,0,0,0-1.08.54h.54c-1.62,1.08-1.53,2.79-2.61,3.87h.54c-4.32,2.7-4.86,7.11-8.64,10.35-1.62,2.16-4.5,4.77-5.04,6.93C464.76-.63,468-.18,470.16-.18c.54,1.08,1.62,0,2.7.54h1.08c2.16-.54,4.32,1.08,5.94,0,2.7.54,4.86-1.62,7.02-1.08,2.16,0,3.6-.99,6.84-.99l.72-.63c.54,0,1.62-1.08,2.16,0h1.62l-1.62-.54c2.16,0,3.78-1.08,5.4-.54.54-2.16,3.96-.81,5.04-2.43.54-.54-.45-2.52-.99-2.52-12.42-1.62-20.43,5.4-32.85,2.7a13.456,13.456,0,0,0,2.34-1.35c-.36.09-.9-.09-1.26.27l-1.08-.54v-.54c.54,0,.54.54,1.08.54,0-1.62,1.62-1.08,2.7-1.62h-.54c-.54-1.62,1.62-1.08,2.16-1.62-1.08-.54-1.62.54-2.16-.54.54-.54.54-.54,1.08-.54,0-1.08,1.62-.54,2.16-1.62-.54.54-.54,0-.54,0,1.08-.54.9-.18,1.98-.72-.54-.54-.72-.09-.72-.63.54-.54,1.08-1.08,1.62-.54-.54-1.62,1.62-1.08,2.16-2.16-.54,0-1.08,1.08-1.62.54,1.08-1.08,1.62-2.16,2.7-3.24.54-.54,0-1.62,1.62-1.08,0-.99,0-3.42,1.35-3.6h-.27c-.54,0-1.08-.54-.54-1.08.54,0,1.08-1.08,1.62-1.62h-.54c-.54,0,0-.54,0-1.08-2.16-2.16-5.04-1.62-7.2-1.62-1.62.54-3.06-.54-4.14.54-.54-.54-2.16,0-1.62-1.08l-.54-.54c.54-1.08,2.16-1.08,2.7-2.16-1.08-.54.54-1.08-.54-1.62,1.08-1.17,4.32-1.26,1.08-1.8a1.984,1.984,0,0,1,1.62-.54c0-.54,1.62-1.08.54-1.62.54-.54,1.08-.54.54-1.08.54-.54,2.7-.54,1.62-1.62l1.62-1.08h-.54c-.54,0-.54,0-.54-.54,1.08-1.08,2.16-2.7,1.62-3.78l.54-.54s-.54-1.62,0-2.16ZM475.92-7.29l-.36.27C475.74-7.02,475.92-7.11,475.92-7.29Zm85.86-46.17c-2.16-1.08-3.33-4.05-5.49-5.13-1.62-1.08-4.86.72-6.48,1.8-2.16,0-2.7,2.7-4.86,2.7-2.16.54-1.62,2.7-3.24,3.78,0,1.08-3.06,3.69-.9,4.23-.54.54-.54,0-1.08.54,0,1.08,1.89,3.06,1.35,4.14a1.672,1.672,0,0,0,1.08.54,7.152,7.152,0,0,0,5.58,2.88c1.62.54,4.14-.81,5.76-1.89.54-1.08,3.24,0,2.16-1.62,3.24,1.08,2.16-3.24,4.86-3.24l-.54-.54,1.62-1.62c0-.54-2.16,0-1.08-1.08,0,0,.54-.54.54,0a5.579,5.579,0,0,1,1.98-.9c-.54-.54-1.26-1.26-.72-1.8,1.08,0,.54-.54.54-1.08-.54.54-.54,0-.54,0l.54-.63h-1.08C561.24-52.92,562.32-52.92,561.78-53.46Zm-6.57,3.96c-.54,0-.54,1.08-1.08,1.62h.54l.54-.54c0,1.08-.54,1.08-1.08,1.08-1.08.54-3.06,2.7-4.68,2.7l.54.54c-.54.54-1.71,1.8-2.7.72l-.81-.18c-.18-2.25.18-2.07,1.89-4.59.54,0,.63,0,1.17-.54-.54-1.08-.63,0-1.17-.54a8.763,8.763,0,0,1,5.85-2.52h1.35Zm18.54,14.76c-1.08,0-2.52-.9-3.6-.9-1.62.54-2.97,0-4.59.54-4.32,0-7.02,2.7-10.8,3.24l.36.45-.36.09c-1.62-1.08-2.7.54-4.86.54-3.24.54-5.94,2.16-9.18,2.7s-7.38,2.43-9.54,1.89v1.71c1.08.54,3.06,1.71,3.6,2.79h-.54c.9,1.17,2.88,1.08,4.32.54l.45-.45.54.18.81-.54c2.16-2.16,3.06-.27,5.22-.81.54-1.08,1.08,0,1.62-.54,1.62,0,2.16-1.08,2.7-1.62h.54c0-.54,1.08-1.08,2.16-.54-.54,1.08-2.16.54-2.7,1.62a3.247,3.247,0,0,1,2.16-.54c-.54,1.62,0,2.7-.54,4.32-.54.54,1.08,1.62-.54,2.16l.54.45c0,.54,0,.09-.54.63,1.62.54-.54,1.8.54,2.34v1.17h-.54c.54,1.62,0,2.7.54,3.78,1.08,1.62-1.62,3.06.54,4.68-.54,0-.54.54-1.08.54,0,.54,1.08.54.54,1.08h-.54c.54.54,0,1.62,1.08,1.62h.54c.54,0,1.08-.54,1.62,0L552.06-.54c-.72-.27.09.45-.54.54.54.54-.54,2.16.54,2.16l-.54,1.62h1.08s2.43.9,3.06.45l.45.27c.54.54,1.26-.18,1.8-.72-1.62-.54-2.16-.54-3.78-1.08a19.263,19.263,0,0,1,3.24,0,1.767,1.767,0,0,0-.27-1.53c1.08,0,.81-.18,1.35-.09.54-1.62-1.62-.54-2.16-1.08a.529.529,0,0,1,.54-.54l2.7-1.08c-.54-1.08-.54-.54-1.08-1.08,0,.54,0,1.08-.54,1.08-1.08-.54,0-1.08-1.62-1.62,1.08-1.08,3.06.36,3.6-.81-.36-.81-1.44-1.35-.9-1.89l-.54-.54,1.62-.54c-1.08-.54-1.08-2.52-2.16-2.52.54-.54,1.08,0,1.08-.54l-.54-1.08c0-1.08,1.08,0,1.08-1.08l-.54-.54.18-1.53-.18-.36v-.9a9.359,9.359,0,0,1,.54-2.34c-2.16-.54.54-1.62-1.08-2.16l1.08-.54-.54-.54v-2.16c0-1.08,0-1.62-1.08-1.62.54-.54.54-.54.54-1.08.54,0,1.62-1.08,2.7-1.08.54-1.08,1.62,1.08,2.16-.54h-1.08v-.54c1.08-.54,1.62,0,2.16.54.72,0,.54,0,1.08-.54h-.54l-.54-.54c.54-1.08,1.62.54,2.16-.54l1.44-.18c.54-.54,1.53-1.44,2.07-.36l-1.08.54c1.62,0,3.24-1.89,4.86-2.43A9.707,9.707,0,0,0,573.75-34.74Zm24.21-13.95c-.54-.54-1.35-1.71-1.98-2.25-4.95-4.14-11.88-1.89-16.2-.9-.54,0-2.16,1.17-2.7.63v.81l-1.62,1.44a8.175,8.175,0,0,1,.81,1.62c-.09.72,3.24.9,3.78.9,0,.54-1.08,0-1.62.54,2.61,2.25,8.01-2.52,10.71.18.99.09.9.18,1.35.72,0,.54-.36,0-.81.18-1.17-.9-1.53.81-2.61.27,0,1.62-2.79,1.8-1.26,2.88l-1.62,1.08a17.981,17.981,0,0,0-2.61,4.68,1.726,1.726,0,0,0,1.53.54l-1.62.54v.54l-.54.54,1.44,1.35c.45,1.08-1.17.9-1.17,1.98a2.977,2.977,0,0,1,2.34,1.17c.54.54.45-.63,1.53-.63,0,.54-.27.54.27,1.35.72,0,1.53-.72,2.61-.72-.09,1.08-1.71.99-1.17,1.08.54.54.63-.27,1.17-.27.54.54,1.08-.27,1.08-.81.54.54,1.08.63.99,1.17-.45,0-.54.27-.54.18l.18.18c-.54,1.08-.09,2.43-1.17,3.51.54,1.08-2.07,1.71.09,2.88h-1.62c0,.54,0,.54.54.54-.63,1.62-2.16,2.07-1.08,3.15a5.5,5.5,0,0,0-1.98,2.16c-.36.63-.45,1.62-.81,2.25.45,1.8.54,2.16,2.16,3.24,1.08,1.08,3.51.09,5.13.09.54.09.9,1.17,1.98.63.54,0,1.62-.99,2.16.09,0-1.08,1.08-1.08,1.62-1.08,2.16-.99,5.49-1.44,8.73-1.89.54,0,2.16-.54,1.62-1.62l2.7-.45a9.5,9.5,0,0,1,4.05-.63c-.54-1.08-1.26-2.88-2.34-3.51,0-.54.36-1.17.9-1.17-.99-.63-2.61-.09-3.69.45-5.94-.18-9.81,1.89-15.75,3.42-1.08-.63.09-1.35-.99-1.44a1.329,1.329,0,0,1,1.08-.45l.54-.54h.81c-.81-.09-.27-1.08-.27-1.62-1.53-.63-.99-.54-.99-.54,2.16,0,1.08-1.53,2.7-1.53-.54-.54.09-1.08-.99-1.08,0-1.08,1.62-.99,1.62-1.53a3.11,3.11,0,0,1,.9-2.34l-.54-.72c1.08-.54,0-1.62,1.08-1.62l.09-1.08a16.046,16.046,0,0,0-8.37-4.05c-.54-.09-.27-.45-.27.09l.54-.72c0-.54.54-1.08.09-1.62h.54c-.54-1.08-1.71.45-2.16-.09,0-.54,1.08-1.08,1.62-.99.54,0,.54,0,1.62.54v-.54h-.54c0-1.08.72-1.62,1.89-2.16-.54-1.62,1.62-.45,1.62-1.53l-1.08-.54c1.8-1.17,1.17-1.71,2.79-2.7L595.17-45c.54-.54,1.62-.45,2.16-.45l-.45-.54a.529.529,0,0,1,.54-.54c0-.54-.54-.54-.54-1.08S597.42-48.15,597.96-48.69Zm25.92,1.44c0-1.08-2.52-1.08-3.6-1.71-1.08-.54-2.7-2.7-4.32-1.17.54.09,1.53,1.17.45,1.71,1.62,1.08-1.17,2.61.45,3.78-1.62,1.53.45,3.24-.18,5.4,1.17-.09,0,1.98,0,1.98,0,1.62-.63,4.77.36,6.39l-.54,1.08c0,.54,1.08-.54,1.08.54-.54,0-.63.54-1.17.54a13.742,13.742,0,0,0,1.44,6.48c-.45,0-.99,0-1.08.54a1.672,1.672,0,0,1,1.08.54l-1.08.54c.99.54-.09,2.61.9,2.25-.99.54.54,2.07-.45,1.53,0,.54,1.62,0,1.08,1.08h-.54c0-.54-.54,0-1.17.54h1.08c0,.54-.54.54-.54,1.08s0,1.08-.54,1.08c.54.54,1.08.54,1.08,0l.54.54c-.54,0-1.17,1.98-1.17,2.52h1.08l-1.08,1.08.54.54c-.63,1.08,1.62,1.62,2.16,2.16,1.08.09,2.52-.99,3.6-.45V-7.2h-.54c.54-1.26-.63-1.08-1.53-1.08,1.62-.54,2.16-2.52,3.24-2.97l-.54-.09c-.45-1.08-.99-1.08.09-1.62,0-.54,0-1.08-.54-1.08l.45-.63.63.18c-1.08-.63.63-2.16-.45-2.79l1.08-.45c-1.08-.63-.45-1.62-.99-2.25,1.08-.99.09-2.61-.45-3.78l1.08-.99c-2.07-1.17.09-3.24-.36-4.86-.9-.54.36-.99-.54-2.25.09-1.08.63-3.06-.36-4.23,1.08-.99-1.08-3.06.63-4.14-1.08,0,0-1.08-1.08-1.08,0-.54,1.17-2.16.63-2.7l-.54-1.08a3.046,3.046,0,0,0,.63-1.62Zm-28.62,1.17c0-1.08.54-.54.54-1.08a.529.529,0,0,1,.54.54Zm82.62,5.49c-.54.09-2.7-.9-3.78-.27.09.99-1.62.09-1.98,1.89v-.54c-1.62.18-3.24.36-3.78,1.44a4.065,4.065,0,0,1,3.78-.36l-1.44,1.26c1.17.9,1.44-1.26,2.16-.36.63,1.08-.45,1.26-1.53,1.26-.63-.9-2.07.81-3.33-.18l1.08-.54,1.08-.18v-.54c-1.62.18-2.7.81-3.96-.18-.36.63-.9.18-1.44.18l.54.54c-.45,1.08-1.08-.45-2.16.18-.9,1.71-4.41,1.98-5.31,3.69-.18,1.71,1.71,3.42,2.79,3.78h-.54l1.17.54c1.17.36,1.08-.18,1.53-.72-.54,0-1.62.18-1.62-.36l-.09-.54a.536.536,0,0,0,.63.45c1.35-2.34,4.68-.45,6.21-1.17l-.09-.54c-.63-.99-.99.63-1.62-.36,1.44-1.26,4.14.63,4.32-.54l-.63.09.45-.54c1.08-.18,2.25-.36,2.43,1.26a6.486,6.486,0,0,0,.09,5.49.529.529,0,0,1-.54.54c.09.54-.9,1.8.27,2.16l-.45.63.54.45c-.36.63-.9.63-1.44,1.8l.54-.09c.63.45.18,1.62-.27,2.25l.54-.09-.45.63c.09,1.08-1.44,1.8.18,2.16l-.9,1.62a2.61,2.61,0,0,0,.72,1.62c1.17.36,1.71.9,2.25.9a.9.9,0,0,0-.45.54l3.78.36-.09-.54c1.17.45.99-.63.99-.63-.54-.45-1.62.09-1.62-.36a11.244,11.244,0,0,0,1.8-2.97,9.917,9.917,0,0,1-1.62.18l1.53-1.26c-.54.09-1.08-.36-.72-.99,0-1.08,1.62-.72,1.44-1.8a.438.438,0,0,1-.54-.45l.72-1.35-1.44-.18v-.54s.36-.63,1.62-.18l-.72-.54c0-.54,1.08-.54.54-1.08a3.2,3.2,0,0,0-1.26-1.44c.9-.72,2.16-.36,1.98-1.89a.726.726,0,0,1-1.08.09l.36-1.08.45-1.08c-.09-.54.36-1.8-.72-1.62l.45-.54.9-4.14-.18-1.08c1.08-.63-.63-1.53-1.26-1.98C679.59-40.23,677.52-39.42,677.88-40.59Zm23.94-7.2c-.81-2.16-5.22-.81-5.58.36-2.07,1.35,1.35,2.61-.18,3.33.18,1.62.36,4.32-.54,5.4,0,.54.72,1.08,1.26,1.08-1.62,1.17-.18,3.33-1.17,4.95l.27,2.52.54.54h-.54c-.45.63.72,1.62-.36,1.71.63.45,1.8,1.44.72,1.53a.559.559,0,0,0,.45.54,3.376,3.376,0,0,0-.9.09c.54.45.09,1.08.72,1.53l-.36.36-.09.81c.54-.09.54-.09.63.45,0,.54-1.44,1.89.18,1.71a.648.648,0,0,1-.54.63l.09,1.89c.09,1.08.72,1.08-.27,2.25l1.26.99a1.171,1.171,0,0,1-.99,1.17l.18,1.62.54-.09-.45.63.54.45c.09.54-.45.63-.9,1.17.63,1.08.18,1.62.72,2.16a3.877,3.877,0,0,0,1.89-1.26l-.54.09s-1.53-.45-.99-.54c.54-.63,4.05.27,4.41-.81-.63-1.08-2.43.18-2.61-.9l2.52-.18-1.98-.45a4.773,4.773,0,0,1,2.88-1.26l-1.26-.99a3.957,3.957,0,0,1,1.53-1.26c-.45,0-.72-.45-1.17-.36.54-.63.99-1.35.9-1.71-1.62-.99,1.26-4.41-.45-5.85-.09-.54-.63-1.08-.09-1.08a4.221,4.221,0,0,1,.9-1.8c.45-.54-1.26-.9-1.26-.9.54-.54,1.08-.72,1.53-1.26-.63-.54-1.17-.36-1.26-1.44,0-.54.45-.72.99-.72,0-.54-.63-1.89.36-2.52-.63-.54.45-.63.45-1.17-.63-.45-1.62.72-2.7.27,1.8-1.26,1.17-3.24,2.34-3.51-.63-.54-1.17-.54-1.26-1.08l-.54-.36c1.08-.72,1.44-1.8,2.52-1.44,0-.54-1.08-.9-.72-1.53.18-.63.27-.63-.72-1.53l1.08-.72a1.6,1.6,0,0,1-1.62-.36c.54,0,1.62-.18,1.44-.63,0-1.08-1.62-.99-2.25-1.44-.09-.9.45-.18.54,0Zm-3.24,3.51c.45-1.26,2.34-.72,2.52-.18Zm1.26-3.42c0,.54-1.98.63-2.52.72A3.884,3.884,0,0,1,699.84-47.7Zm46.44,9.81c.9,0-.54-.9.63-1.08a2.851,2.851,0,0,1-1.53-1.08,13.116,13.116,0,0,0-6.21,4.41c0,1.08-.54,1.62-.54,2.7a.529.529,0,0,1,.54.54s0,.54-.54,0v1.08c.54-.54.54,0,.54.54l-1.08.54c.54.54,1.08,0,1.08.54a.529.529,0,0,1-.54.54c-1.08,1.08.54,1.89-.54,2.43l1.08,1.08-.54.54c.54.54,0,1.08-.54,1.08.54,1.08,0,1.62,0,2.7.54,0,.54,0,.54-.54l.54.54-1.08,2.16c0,.54,1.08,1.08,0,1.62a7.455,7.455,0,0,1,1.62,2.16l-1.08.54c2.16,0,.54,1.62,1.08,2.7s.54-1.08,1.08,0l1.08,1.08a8.579,8.579,0,0,0-4.32,5.4c-2.7.54-1.08,3.51-2.7,4.59-1.08,1.62,1.08,1.62,1.62,2.7,0,.54-.18.27-.72.27l-.36.27-1.08,1.62c2.7-2.16,2.88,2.52,5.04,2.52l-.54.54.54,1.62c1.08-.54,2.52.54,3.6,0l-1.62-.54.54-.54c1.08,1.08,1.53-.36,3.15.72-.54,0-.45.36-.45.36,1.62-.54,2.16,2.16,3.78,1.08-.54,0-1.62,0-1.62-.54,0-1.08,1.08,0,1.62-1.08.54,0,.54-.54,1.08,0l-1.08.54h1.08l.54-.54c.54,0,2.16,0,1.62.54.54,0,1.08-.54,1.62-.54l-1.62-.54c1.08-1.08,3.06,0,3.6,0-.54-2.16,1.62-4.14,2.7-5.22l-.63-.45a9.749,9.749,0,0,0,1.62-1.8l.09-.45-1.08-.09a1.564,1.564,0,0,1,.54-.99c1.08-.54,1.08-2.97,1.08-4.59,1.08-1.08-1.08-1.35.54-1.89l.54-1.08-.54-.54.54-.54a3.246,3.246,0,0,1,.54-2.16l-1.08-.54c.54-.54.54-.54,1.08-.54l-.54-.54h.54c0-.54,0-1.08-.54-1.08,0-2.7,3.69-3.42,4.77-5.04,1.62.54,2.16-1.08,3.24-1.08l.54-.54c-.54,0-.27.18-.81-.36a3.356,3.356,0,0,1,.81-2.07c-1.08.54-1.62-1.26-2.16-1.8,0-2.7-3.15.72-4.77-.36.54-1.08,0-1.44.54-1.98-.54-.54-1.08-2.43,0-2.43-.54-.54-.54-.54-1.08-.54l1.08-1.08c0-1.08-1.35-2.07-1.89-2.61-2.52-.18-5.31,2.43-5.85,4.05v2.43c1.08,1.08-1.08.45,0,.99V-27l.54.54c-1.08,1.08.54,2.7-.54,3.24.54,1.62-2.16,1.62-2.7,2.7-3.24,1.08-3.87,3.87-6.57,4.41,0-.54-1.08-1.08,0-1.62,0-1.08-1.08-1.08-1.62-1.08l.54-.54c-.54-1.08,1.08-1.08.54-1.62-.54,0-.54-.54-1.08-.54v-.54c.54,0,.54,0,1.08.54,0-.54,0-1.08-.54-1.08,1.62-.54.54-1.62,1.08-2.7-.54,0-1.08.54-1.08,0,.45-.45.99-.09,1.08-.36v-.09s-.54-1.08,0-1.08c0-1.08.54-2.43-.54-2.43l.54-.54c.54-1.08-1.08-.54-1.08-1.08l1.08-1.08c-.54,0-1.08.54-1.08,0l1.08-1.08c0-.54-1.08-.54-1.08-1.08s1.08,0,1.08-.54a1.672,1.672,0,0,0-1.08-.54l1.08-1.08C745.2-36.81,745.74-37.35,746.28-37.89Zm13.68-24.75c-1.08-2.7-5.85-.18-6.93,1.44,0,3.78-3.06,1.98-5.22,3.6-3.78,1.08-9.18,3.42-11.34,6.66l2.34,1.71a35.038,35.038,0,0,1,6.84-2.52c2.7-.54,4.68-3.78,7.92-2.16-.54,0-.54.54-1.08.54,1.08,1.62-2.16,2.7,0,3.78a.529.529,0,0,1-.54.54c0,.54-.54,1.08,0,1.08,1.08,1.08-.54,1.8-.54,2.34,1.08.54-.54,1.08.54,1.62-1.08,1.08.54,2.16-.54,3.78.54,0,.54-.54.54,0v.54c1.08.54-.54,1.62,0,2.16l3.69-.54a1.161,1.161,0,0,0-1.08-1.08c.54-1.08,1.62,0,1.62-1.08h-.54c-.54-1.08,1.08-.54,1.62-1.62h-.54c.54-.54,0-1.62,1.08-1.62a1.984,1.984,0,0,0-.54-1.62c-.54-.54.54-.54,1.08-1.08-.54-.54-1.08-.54-1.08-1.08l.54-.54h.54s0-1.08-.54-1.08c1.08-1.08-.54-1.8,1.08-2.34-.54-1.08.54-3.24.54-4.32,0,0-.54.54-.54,0,0,0,0-1.44.54-1.44C761.04-58.59,757.8-61.02,759.96-62.64Zm-25.11,7.92a3.457,3.457,0,0,1-.99-2.61c-1.08-1.08-4.41.99-6.03,1.53-4.86,4.32-10.71,9.09-11.79,16.11,1.08,0,.54,1.26,1.08,1.26,0,1.08-1.08,0-1.08,1.08,1.08-.54,1.08,0,1.62,0,.63,2.16,5.13,1.44,8.37,1.44,2.52-1.26,6.93-3.78,8.01-6.48,1.08-.54,0-2.7,1.62-2.7-2.16-1.62,1.08-2.16,0-4.32-1.08-1.08-2.88-4.14-5.58-4.14-.54.54-.9,2.25-1.98,2.79a5.675,5.675,0,0,1,1.89,1.35c-1.08.54.54,1.08,0,1.62a1.672,1.672,0,0,0,.54,1.08c.27,1.35-.27,1.98,0,3.24-1.62,2.16-3.15,4.32-6.39,4.32-1.62-.54-1.71-1.08-2.25-2.16,1.08-.54-.54-1.62.54-1.62-.54-2.7,1.53-4.77,3.69-6.93,0-1.08.45-2.07,1.53-2.07C728.73-55.17,732.69-53.1,734.85-54.72ZM754.2-13.14c0,.54,0,.54.54,1.08,0,.54-1.62-.54-1.08,1.08.54.54.54-.54.54.54-.54,0-.54.54-1.08,1.08a.529.529,0,0,0,.54.54h.54c-1.08,1.08-1.08,1.26-1.08,2.34.54.54-1.62,1.8,0,1.8a.748.748,0,0,0,0,1.08l-1.08,1.08a.748.748,0,0,1,0,1.08l-.54.54c.54.54,0,1.08.54,1.08h.54c-2.16,1.08-.18,2.25-2.88,2.79-2.16,1.62-3.42.81-5.58.27-1.62-.54-2.16-1.35-2.7-2.97,1.08,0-.54-2.7,1.08-3.24.54-1.08,1.08-.45,1.62-1.53l1.08-.54h-.54c2.16-1.08,2.25-3.42,4.41-3.96C751.23-10.62,750.96-12.6,754.2-13.14Zm-8.46-12.69v.18C745.74-25.29,746.28-26.37,745.74-25.83Zm50.04-23.58c.09,1.98,7.2,1.17,11.16-.45a15.59,15.59,0,0,0,5.31-2.07c.81-1.08,1.71.27,1.89-.9,1.26.27,2.34-2.07,3.15,0-4.5,4.68-6.66,7.02-11.34,11.7-1.08,2.34-3.06,3.6-4.05,5.85-2.07.81-1.62,3.33-3.06,4.41-.09,1.26,1.08,2.43,2.43,2.97,2.25.45,4.14-1.62,5.67-3.15l-.54-.72c1.35-.45,2.52-2.07,3.42-3.15.72-.54-.27-1.98.72-.54l.63-.81c-.18-1.89,1.98-1.53,3.6-3.06,0,0-.99-1.44.18-1.17l.63.09a.623.623,0,0,0,.72-.54c1.17.36,1.26-.27,1.26-.27,1.98-.36,3.87.09,5.76-.27,2.34,1.17,3.15.9,5.76.18,1.8.36,2.97,1.26,3.78.09-.09.63,1.71.36,1.08.27,1.53-.99,3.06.54,4.5-.36.63.09,2.07-.99,1.8.18.18-.54,1.44-.9,2.07-.81.72-.45-.45-2.43-.36-2.97a10.657,10.657,0,0,0-6.21-1.53l-12.69-.54c-.72.54-1.98,0-2.61.54-.54-.09-1.35.99-1.8-.27,1.8.27,1.26-2.88,3.6-2.34l-.54-.72c1.98-.9,1.71-3.06,4.5-3.78l-1.17-.81c2.43-.09,1.89-1.71,2.61-2.07-.45-1.35,1.35-1.08,2.25-2.16l-2.61-2.7c-4.14-.81-7.74,2.88-12.24,3.78-4.05,1.17-7.11,3.96-10.98,3.42.45-1.44,1.08-.9,1.26-3.24,1.98-.27-.09-2.43,1.89-2.7l.45-1.62a6.829,6.829,0,0,1,1.35-1.89l-.36-.63,1.35-.9c-.18-2.52,3.69-1.35,5.49-4.14-1.08-.72-1.17-1.44-2.16-1.8-4.59-.09-8.19,3.69-10.44,6.93-1.08,1.53-.18.36-1.26,1.8.36,1.35-2.07,1.44-.45,3.06C798.12-56.79,796.95-52.11,795.78-49.41Zm26.19,12.33c-1.62,1.53-1.8,2.7-2.79,4.5a.881.881,0,0,1,1.26.18c-.27,1.08-1.44.99-2.16,1.44.45.72.45.72.27,1.26.45,1.35-1.17.99-1.53,2.25.54.81,1.26.27,1.8.99-3.06-.63-1.89,2.34-3.51,3.96-.18,1.17,1.26.18,1.8.9-.72.45-1.44.99-2.07.9-.72.54-.99,1.62-.36,1.8-1.44.9-1.35,1.8-2.16,2.88-.27,1.26-1.26,2.34-1.62,3.51l2.52,1.44c4.41,1.71,9.36-.27,12.78-1.53l-.63-.09,1.98-.27-.54-.72c1.08.27,2.25,1.08,3.06,0-.09.63.63.09.63.09a18.05,18.05,0,0,0,4.14-1.62s-1.35.27-1.26-.36c1.8-.18,1.62.36,3.6-.54,1.71.99,2.79-.09,3.69-1.08,1.62.81,3.06-1.44,4.32-1.17l-.27-2.52c-3.33-1.89-5.94-.99-9.9.09L822.6-17.55l-1.71-.27,1.44-1.62c-2.07-1.62,2.43-2.43,1.62-4.41l-.54-.72c1.44-.9.99-1.8,1.17-2.97,1.53-.99.54-2.61,1.44-3.69.18-1.08,0-3.06,1.35-3.42,0-.63.18-1.8-.99-2.07l-2.25-1.8ZM830.16-5.4c-1.8,0-3.87-.36-5.94.09-1.71,1.89-4.14,5.13-4.68,7.29-.54,1.08-1.08.99-1.71,1.71l.54.99c-2.16,1.08-.54,3.33-2.7,4.41.54,1.62-1.71,3.6.54,4.68,1.08,0,1.8,1.53,2.43,2.61.54,0,3.06-.09,3.06.45,2.7,1.08,5.49.09,7.74-.99-.54-1.08,1.8-1.08,2.34-1.08a2.108,2.108,0,0,1-.54-1.35c1.08.54.54-1.62,1.62-1.62a1.035,1.035,0,0,1,.54-1.62c1.17-.54,0-1.08.63-1.62h.54l.54-1.08c-.54-1.08-1.71-.54-2.25-1.08a3.105,3.105,0,0,1,2.25-.63c0-1.08-.63-1.08-.63-1.62.54-1.08-1.71-2.43-2.79-4.05-.54-1.08-1.71-.63-2.25-1.71,0,0-.45.54-.45,0l.45-.63c-1.08-1.62,1.53-.9,2.07-1.98-.54,0-.27-.63-1.35-.18l-.54-.54Zm-2.07,9.63a.679.679,0,0,0,0,1.08c-.63,0-.63,0-.63.54a1.676,1.676,0,0,0,.63,1.17c-2.25,1.08-1.53,4.77-4.86,5.85l-.54-.54a.529.529,0,0,0-.54-.54c1.62-1.08.54-2.07.54-3.15l1.08-.54c-.54-.54-1.08-.54-.54-1.08.54,0,.54-.54,1.08-.54l-.54-.63,1.17-1.08c-1.17-.54.54-1.62,0-2.16,1.08-.54-.09-1.53,1.53-1.53C827.55,2.16,828.09,2.61,828.09,4.23Zm35.19-63.99c-1.08-3.24-7.2-1.08-9.36-1.08-.54,2.16-2.16-.54-3.24,1.08,1.08,1.08-1.53,1.98-.99,3.06h.54c-.54.54,0,1.62-1.08,1.08.54,1.08,1.62,0,2.16.54l-.54.54c0,.54,1.08.54,1.08,1.08h-.54c0,1.62,2.16-.54,1.08,1.08,2.16,0,3.78-1.08,5.94-1.08,0,.54-.54.54-1.08.54.54.54.54.54.54,1.08-2.16,1.62-2.97,4.41-4.59,6.03,0,2.16-2.16,3.78-2.7,5.94a8.215,8.215,0,0,0-1.44,3.15c1.08-.54,1.62.54,2.16.54l-1.62,1.62c.54.54,1.62-.54,1.62.54,1.08.54,2.43,1.62,4.05,1.08v-.54c.54,0,1.8-1.08,2.88,0,1.62-.54-.54.54,1.62,1.08-.54.54-.54.54-1.08.54l1.08,1.08c-2.16,0-1.26,2.7-1.8,3.24-1.08,1.62-.72,2.79-1.8,3.87,0,.54,0,.54.54,1.08-2.7,4.32-4.5,9.36-6.66,13.14-.54.54.18,1.98.27,1.71,0,.18.09.45.54.45a39.776,39.776,0,0,0,7.83-.36l.54-.54c1.08-.54,1.62-1.62,2.7-1.08v-.54c0-.54.54,0,1.08,0,.54-1.08,2.16-1.08,2.7-2.16,1.62.54,2.7-2.16,4.32-2.16,2.16-1.62,5.13-3.42,6.75-6.21-2.07,0-4.59-.63-5.67.45-4.32,1.08-5.94,3.24-9.72,4.32-.54,1.08-2.16-.54-1.62,1.08-1.08,0-.63-1.62-1.17-1.62.54-.54,1.17-.36,1.71-.9,0-.54,0-.45.54-.99-.54,0-.54-.54-.54-1.08h.54c0-.54.54-1.08,1.08-.72-.54-.54,0-.54,0-.54l-1.08-.54a1.885,1.885,0,0,1,1.08-.54c-.54-1.08.54-.63,1.08-1.17a.529.529,0,0,1-.54-.54c.54,0,.9-.54,1.44-1.08h-1.08l1.62-1.08c-2.16,0-.54-1.62-1.62-2.16,1.08-1.08,1.62,0,2.16-1.08.54-.54-.54-.54-.54-.54,0-1.08,1.08-1.08,1.08-1.62s-.54-.54-.54-1.08h.54l-.54-1.08c.54-.54,1.08-1.08.54-1.62-1.08-2.16-1.53-3.6-3.15-5.22-1.62,0-2.79,0-3.87-1.08-1.08,0-.54-.54-1.62.54a.529.529,0,0,1-.54-.54c1.08-1.08,2.88-1.44,3.96-1.98.54-.54.36-.72-.18-.72h-1.62l.54-1.08.54-.54.54.54c.54-.54,1.08-.54,1.62-1.08a2.375,2.375,0,0,1-2.7-.54l.54-.54c.54,0,1.08,0,1.08.54.54,0,1.08,0,1.08-.54h-1.08c.54-.54.99-1.8,2.61-1.8l-1.08-.54c.54-1.08,1.08-.54,1.62-1.08h-.54c1.08-.54,1.08-1.62,2.16-2.7-1.62,0,0-1.62,0-3.24C864.36-56.61,864.9-59.22,863.28-59.76Zm32.67,30.69c-5.4,3.78-11.88,6.66-16.2,10.98.81-.27,1.53,1.62,2.61,1.08,1.08,0,1.8-.45,2.88.09,0-1.08.54-1.08,1.08-1.08,0-1.08,1.62-1.08,2.7-1.62v-.54l.54-.54h1.08a.529.529,0,0,0-.54-.54l.54-.54a2.97,2.97,0,0,1,2.7,1.62l-.54.54a1.885,1.885,0,0,0,1.08.54c-1.62,1.62.54,1.89-.54,4.05,0,0,.54-.54.54,0-.54,1.08-.54,0-1.08.54.54.54,0,1.08,1.08,1.08l-1.08,1.35,1.08.54a.748.748,0,0,1-1.08,0v2.16c0,.54.54,0,.54.54v.54l.54.54h-.54c0,1.08-1.08.54-1.08,1.08.54.54.54.54,1.08.54-.54,1.08-.54,1.44-1.08,1.98l1.08,1.08v.54l-.54,1.08c2.16,0,.54,1.62,1.62,2.16L892.8,1.8l1.62,1.08c0,1.08,1.08,2.16,0,2.7.54.54.54,1.08,1.08,1.62,0,.45,0,1.44-.45,1.62.9.18.9,2.61,1.98,2.07,0-.54,2.07-1.53,2.07-2.07,0-1.62,2.16-2.16.54-3.78a3.246,3.246,0,0,1,.54-2.16c.54-1.08,0-1.08-.54-1.62l1.08-.54c-.54-1.08,0-2.7-.54-3.24a.529.529,0,0,1,.54-.54s-.54-1.08,0-1.08v-.54c0-.54-1.08-2.34,0-2.88h-.54a.529.529,0,0,1,.54-.54,1.984,1.984,0,0,0-.54-1.62l1.08-1.08a1.161,1.161,0,0,1-1.08-1.08h.54c.54-.54-.54-1.08-.54-1.62l.54-.54c-.54-1.62.54-2.7-.54-3.78,0-.54.54-.54,1.08-.54,0-.54-.54-.09,0-1.17s-.54-.54-1.08-1.62c0-.54,1.62-.54,1.08-1.62-.54-.54-.54-1.08-1.08-1.08v-.54c.54,0,1.08,0,.54-.54s-1.08-1.08-.54-1.62c0,.54.54,1.08,1.08.54,0-1.08-1.08-1.62-1.62-2.16-.54,0-2.07,0-2.61.54Zm6.03-28.53c-1.62-.54-4.95-3.06-6.57-1.98-.54,1.08-.09,1.44.45,1.98,0,1.08.54,2.16-.54,2.16l.54.54c0,.54-.54,1.08-1.08,1.62,1.62,0,0,1.17,1.08,1.71a4.471,4.471,0,0,1-1.08,2.16c.54-.45,1.62,0,2.16,0-1.08.54-1.62,1.62-2.7,1.08-1.62-1.08-2.7.54-3.78.54l-14.22,6.48c-1.62.54-4.41.9-4.41,1.98,0,.54.81.99.81.99.54,1.08,3.06,2.25,3.6,3.33h1.08l-1.08-.54c-.54-.54.54-1.08,1.08-1.62v.54c0,.54,1.08.54,1.08,1.08.54-2.16,4.86-1.08,5.94-1.62l-.54-1.08c1.08-.54,1.26-2.16,2.34-1.62v.54l.54-.54c.54-1.08,1.08,0,1.62,0-.54-1.08,1.08-.54,1.08-1.08,1.62.54,3.24-.54,4.32-1.08-.54-.54-1.62.54-2.16.54,0-2.16-2.16.54-3.24,0,.54-.54.54-.54.54-1.62,1.08,1.08,2.16,0,2.7,0,0-1.08,1.62-1.08,1.62-1.62v-.54c.54-.54,1.08,0,1.62.54-1.08.54-1.08,1.08-2.16,1.08.54.54,2.61.09,2.7,1.53.09-.18.18,1.26.09,1.35.9.54-.63.99.45,1.53-.54,0-1.08,1.08-1.08,1.62.99,0,.09.99.9,1.08-.36.09-.36.54-.36.54,1.08,0,3.96,1.08,5.04.54l-.54-1.08c.54,0,1.08-.54,1.62-1.08.54-1.08-.54-1.62-1.08-2.16,1.08-.54,1.62,0,1.08-1.08,1.62-1.08,0-.63,0-1.71a.529.529,0,0,1,.54-.54c.54-1.62,1.08-4.68,0-5.76a1.013,1.013,0,0,0,0-1.62c.54-.54,0-.63.54-1.71.54-.54-1.08-2.16.54-2.16-.54-3.24-2.16-1.08-3.78-2.7C899.82-57.06,901.44-56.52,901.98-57.6Zm-10.44,3.96c-.54,0-1.17-3.33-2.25-2.79-1.08-1.08-2.7,0-4.32,0a116.378,116.378,0,0,0-14.13,7.38l.54,1.08c2.7-.54.81,4.05,3.51,3.51,1.08-1.08,3.51-.81,4.59-2.97,2.7,2.16,2.34-2.16,5.04-1.08l1.44-1.08a1.918,1.918,0,0,1,1.62-1.08l-.54-.54.54-.18.54.18c1.17.36,1.62-.54,2.16-1.08a3.247,3.247,0,0,0-2.16.54C887.04-53.37,891-52.56,891.54-53.64Zm8.82,19.8c0-1.08-3.96,0-3.96-1.08-.54-.54-1.08.54-1.08.54a.529.529,0,0,0,.54.54c.36-.36,2.16.45,2.79.63-.63,0-2.88-.09-3.33-.09l.54,1.08a8.555,8.555,0,0,0,3.96-1.08h-.54l.54-.54Zm-4.05,1.89-.45.27v1.08c1.08.54,2.88-.54,2.88-1.08ZM854.73-60.3h2.34l.81.54Zm10.26,33.39c-.54-.54-.54,0-1.08,0l.54.54ZM859.77-60.3c-.54.54-.54,1.08-1.08.54C859.23-59.76,859.23-60.3,859.77-60.3Zm35.55,19.44v.09Zm.09.09h-.09Zm85.05-8.28c-.27-1.8-4.05-2.88-5.49-.36l-.63.45c-.54.54-.18,1.08.45,1.62l-.72.63h.63l-.72.54L975.15-45a2.856,2.856,0,0,0-.81,1.62c-.09,1.08.27,3.69.18,4.77-.63,1.08-.81,2.16-.27,2.25-.18,1.71-.9,3.24,0,4.5l-.36.45c-.09.54-.27.63-.36,1.17,0,.54.54,0,.54.54v.63c.63,0-.63.54-.63,1.08a.438.438,0,0,1,.45.54.438.438,0,0,1-.54.45l.99,1.26h-.63a2.3,2.3,0,0,0,1.17.54.648.648,0,0,0-.63.54c-1.44,1.62,1.44,2.43-1.08,3.33h.63a3.976,3.976,0,0,1,.36,2.25c.45,1.8-.99,4.68.63,5.85l-.63,1.08c-.18.54.36,1.17-.18,1.17l.99,1.08-.63.54-.18,1.17c.54,0,.54,0,.63-.63l.72,1.17c-.63-.27-.81,0-1.35,0a.971.971,0,0,1,.81,1.17l3.96-.36-.36-1.71c.63.09.72-.45,1.26-.45v-.54l-1.08-.63c.72-.45.63.09,1.26-.45.18-1.17.9-2.07-.27-2.79l.63-1.08c-1.71-.18,1.35-1.08-.27-2.43l.54.09c-.99-1.35.81-2.16-.9-2.97l.63-.45v-.54c-.36-.72.9-2.7-.81-2.97,1.35-.9.81-1.53.27-2.25l1.17-.27-.99-.81a9.981,9.981,0,0,0,.54-5.49c-.54-.09-.54-.09-1.17-.63a.782.782,0,0,1,1.17.09c-.45-.63.18-1.71.27-2.25a4.755,4.755,0,0,0-1.17-.09l1.26-.45c-.54-.54.18-1.71-.36-1.71l.36-1.8.45-1.26h-.54l.09-.54-1.17-.72c.54.09,1.17-.36,1.71-.27-1.62-1.44.36-2.25-1.35-3.06l.54-.36c-1.62-.81.72-.54.09-1.17a5.169,5.169,0,0,1-2.79-.99c1.35-.36,2.25.81,3.06-.09C981-48.42,980.46-48.51,980.46-49.05Zm-13.95.99c-.72-1.8-2.88-2.07-3.96-1.8-4.5,1.26-7.38,3.6-11.97,4.77-2.7.18-4.41,1.71-7.11,1.89-1.89,1.98-6.39,2.52-7.02,5.4.99.09,1.35,2.97,1.89,2.43,1.71-.81,5.04-.9,6.93-2.25l-.54-.27v-.54c.54.81,1.08.27,1.08.81,2.79-.9,1.8-1.35,4.5-1.71,1.62-.81,3.33-2.25,5.49-.99-1.08,0-1.71,1.44-2.25,1.44l.45.54c-1.89,2.52-3.87,4.05-5.31,7.11-.63.99-1.71.9-2.25,1.44,1.08,1.17-.72,1.62-.36,3.24-1.89,3.06-3.96,6.57-6.3,9.72l-.81,1.53c1.08.09,3.69,1.98,4.32.36,2.07.72,2.16-2.07,3.24-1.8v-.54c1.08-.54,1.26-2.16,2.34-2.61l-.45-.54.54-.45s.72-1.08.18-1.08c1.53-.09.99-1.35,1.08-2.43.45.18,2.07.63,1.17,1.26l.54.09-.54.45,1.35,1.35c0,1.62,2.16,1.26,1.44,2.7l.63-.36.45.54c0,.54-.54.54-1.08.36l1.53,1.35v.54l-.09.45c-.27,1.62,3.06,1.35,3.42,3.06l-.36.63c2.79,1.53,5.94,1.17,6.39.54-.36-.63-.9-1.44-1.44-1.53l.54-.45-2.34-2.97c-.81-4.41-3.69-6.84-5.94-10.89-.54-.63-1.44-1.35-1.44-1.89s0-.54.54-.36l-.54-.72.63-.36c0-.54-.54-.18-.54-.72l.54.18c.72-.99,2.52-2.52,2.61-4.05-.45-1.17,1.17-1.53,1.89-2.52.63-.54.81-1.62,1.35-2.07a11.5,11.5,0,0,1,3.78-4.5l-.54-.63,1.71-1.8h-.54Zm50.22-8.37c-2.25-.45-5.13-1.89-7.2-1.89-2.61.54-7.74.72-8.64,3.87l1.53.54a3.9,3.9,0,0,0-3.15,1.44c-1.26,1.17-1.89,3.96-2.97,5.04.45.54,0,.99.45.99l-.45.54c.45.63.81,1.98,1.71,1.98-.45.63-1.98,0-1.98.63h1.08c.45.99-.63.45-.63.99h1.53c0,.54,0,.54-.45.54,1.71.45,3.96,1.62,5.58,2.25,1.08-.63,4.05,1.89,4.95.36,2.16,0,3.33-2.7,4.86-3.78l.45-1.08c-.45-.54,1.08,0,1.08-.99,0-.63.63-1.62-.54-2.16h.54l.63.54h.54l-.54-.54.99-1.26-.45-.54,1.08-.9-1.08-.63,1.08-1.08-1.08-.63.45-.45.63.45A6.781,6.781,0,0,0,1016.73-56.43Zm-5.31,3.78c0,.45-1.17-.99-1.62,0,.45,1.08-.54,1.08-1.17,1.62h-.45c1.08.54,1.62,2.07.45,2.61,0,0-.45,0-.45.63.45.45.45.99,1.08.99l-.63.45-.45-.45c-2.07.99-1.26,3.87-3.87,3.87-1.08-.45-.09-2.25-.09-2.88.99-1.53-.63-1.98.99-3.6h-.36c.27-.09,1.89-.54.9-1.62a1.886,1.886,0,0,0,1.08-.54c0-1.08.54-1.08,1.44-1.62h-.9c.9-.45,1.71,0,2.7-.45Zm31.95,4.86c-2.16,0-4.77-1.71-6.93-1.17a.748.748,0,0,0,0,1.08c0,.54-.54,0-.54.54-1.08.54,0,1.62.54,1.62l-.54.54c-.54,1.08.45,1.08.45,1.62l-.54,1.44c.54.54,0,2.16.54,2.16,0,.54,0,.54-.54,1.08,1.62.54.54.81,1.62,1.89-1.08,1.62-2.34,2.16-4.5,2.16v.54c-1.62,0-2.16,2.16-4.32,1.62a41.909,41.909,0,0,0-11.88,6.48c-1.08,0-.54.54-1.08,1.08h1.62c0,2.16-3.24.81-3.6,3.24,1.08-.54,2.52.36,3.6.9l-.45.54c1.62-.54,3.15,0,4.77-.54-2.16-.54,1.08-1.62-.54-2.16l1.08-.54c1.08,0,1.08-.54,2.16-.54,0,.54-.54,1.08-.54,1.62l1.08-1.08.36-.54c1.08-1.62,1.8-1.08,2.88-1.08-1.08-2.7,2.16-.54,2.16-2.7,0,0-.54.54-.54,0,0,0,1.08-.54,1.08,0,1.62-2.16,2.88-.54,4.5-1.62-1.08,0-1.26,0-2.34-1.08,1.62-.54,3.42.54,4.5,1.62l-.54,1.08h.54c-.54.54-1.08,1.44-.54,1.98,1.62-.54-.54,1.62,1.08,1.62l-1.08.54,1.62.18-1.08,1.08c.54.54,1.08,1.08,1.08,1.62h-.54c0-.54-1.62-.54-1.62-.54.54,2.16,2.7-.54,3.24,1.62v.54l-1.08.54-.54.54a.529.529,0,0,1,.54.54c1.08,0,4.05.63,4.59-.45-1.08-1.62-3.51.45-4.59-.09,1.08-.54,4.05-2.07,5.67-1.53l-.54-.54c0-.54.54-.54,1.08-.54l-1.08-1.08c0-.54,1.08-1.08,1.08-1.62s-.54,0-1.08-.54a3.735,3.735,0,0,1-1.17.63c.9-.72,1.62-1.89,2.79-1.71l-1.62-.54c1.08-1.08,1.08.54,1.62,0-.54,0-.09-1.44-.9-1.62.45-.09.9-.9.9-1.44h-.54a.529.529,0,0,1-.54-.54h1.08l-.54-.54c.45-.45-.45-1.53.36-1.62a.949.949,0,0,1-.36-.81c1.62-.54-1.08-1.62.54-2.16l-.54-.54.54-.54c0-1.08-1.08-.54-1.08-1.08,0,0,1.08-.54.54-.54-.54-.54.54-.54.54-1.08l-1.08-.54c.54,0,.54-.54,1.08-.54,0-.54-1.08-1.62-.54-2.16l-.54-.54c.54-.54-.27-1.44-.81-1.98h.54c0-.54,1.08-1.08,0-1.08,1.08-.54-.54-1.62,0-2.16Zm-22.86,14.4c-.45-2.7-2.79-1.17-3.33-2.25-9.72,3.78-19.44,8.37-29.7,11.61,1.08,1.89,3.78,1.53,5.4,2.07.54.54,2.16-1.08,2.7-.54,2.07,1.53,1.62-1.35,2.7-1.08,2.16-1.08,1.8-.36,3.96-.9l.54-1.08h-.54c.54-1.08,1.62,0,2.16,0-1.62,2.16-.9,2.97-.9,5.13h.54c0,.54-1.08,0-1.08,1.08,1.62.54-1.08,2.16.54,3.24a1.161,1.161,0,0,1-1.08,1.08l.54.54a.529.529,0,0,1,.54.54h-.54c-.54.54,0,1.71.54,1.71-1.08,1.08,0,2.16-.54,3.24,0,0,.54-.54.54,0l-1.08.54,1.08,1.08c-1.62,1.62.54,3.24-1.08,4.86l1.08.54v-.54l.54.54,2.25,1.26.45.36.72-.09c0-1.08-1.08-.81,1.08-2.43,0-.54-.54,0-1.08-.54,0-1.08,1.26.18,2.34-.36l-1.08-.54-.54.18c-1.08-1.62,1.62-1.26,1.62-2.34h-.54c-1.08-.54.54,0,.54-1.08,0,0-.54.54-.54,0V-8.1c-.54.54-.54,0-1.08,0l1.08-.54c0-.54-1.08-.54,0-1.08l-.54-.54c.54-1.08,1.62-.54,2.16-.54v-.54h-.54a.529.529,0,0,1-.54-.54c-1.62,0,.45-1.62,0-2.16l.54.45c0-1.62,0-1.26-1.08-1.8,1.08,0,1.08-1.08,1.62-1.62v-.54h-1.08l.54-.54c.54-1.08-.54-.54-.54-1.62a1.673,1.673,0,0,0,1.08-.54h-.54v-.54h-.54c-1.08-1.08.54-.54.54-1.62l-.54-.54h1.08c0-1.62-1.62-.54-2.16-1.62.54-1.08,1.08.54,2.16,0,0-1.08-1.08-.54-1.08-1.08.54-.54,1.98.36,3.06-.18v-.54c-.54,0-1.44-.36-1.98-.36s-.54-1.08-.54-1.62h1.62a16.231,16.231,0,0,1,3.6-2.79l.54.54s1.08-.54.54-1.08C1018.26-31.68,1019.43-34.47,1020.51-33.39Zm16.38-1.35c-.54,0-1.08,1.62-2.16,1.08.09,0,1.08-.54,1.08-1.08C1035.54-35.28,1036.62-35.28,1036.89-34.74Zm1.62,11.25a1.58,1.58,0,0,0,1.44-.18.331.331,0,0,0-.09.27C1039.32-22.86,1039.05-22.95,1038.51-23.49Zm-6.84,10.08c-.54-.54-1.62-1.71-2.7-1.71-1.08.54-5.04.63-5.04,2.25,1.08,1.08,4.5-1.08,6.12,0-1.62.54-5.58,1.08-6.66,1.62-.54.54,0,.54.54,1.62h-1.62c0,1.08-1.62,2.34-1.08,3.96a.529.529,0,0,1,.54.54c-1.62,0-.54,1.08-.54,2.16l.27-.18.27.18c-1.62.54-1.08,4.59-1.62,6.21h.54c1.62.54,2.16-1.62,3.24,0,1.62-1.08,3.6,0,5.22,0V2.16c.54.54,1.08.54,1.08,1.08a1.984,1.984,0,0,0,1.62-.54h-.54c.54-2.16,2.7.54,3.78-1.08,1.62,0,3.15-1.62,4.77-1.62,1.8-1.53,1.17-.36,3.42-1.98,1.26-.9,2.88-.81,3.96-1.89l-.54-.54c.54-.54,1.35-.09,1.89-.09l.09-1.26,1.17-1.62c-1.08-.54-2.61.54-3.69.54-7.56,2.7-5.85,1.8-12.87,4.68-1.08,0-3.24,1.44-4.86.36,0-.54,1.08-1.08,1.08-1.62-.54-.54-1.62,0-1.62-1.08.54-.54,1.08,0,1.62-.54,0-.54-.54-.63-1.08-1.17.54-.54,1.08.54,1.62,0v-.54c-.54.54-1.08,0-1.62-.54,0-1.08,1.62.36,2.16-.72l-1.08-.54c-2.16,0,.54-1.08-.54-1.62a1.984,1.984,0,0,1,1.62-.54v-.54c-.54.54-1.08-.54-1.62-.54,1.08-.54,1.62-.54,1.62-1.62Zm-3.69,4.23.45,1.17c-.54-1.08-3.87-.54-4.95-1.08Z" transform="translate(-0.27 71.011)" fill="#fff"/></svg>