<svg xmlns="http://www.w3.org/2000/svg" width="589.184" height="84.098" viewBox="0 0 589.184 84.098"><path d="M28.8-44.82c-2.7-1.08-7.56.09-9.72,1.17l1.62.54c0,.54-2.07.45-2.07.45-2.07-1.62-5.04,1.8-6.57,1.8.45.54-1.08,1.08-.54,1.08.99,1.08-.36,1.71.18,2.25l1.35,2.07c-.54.54-1.53,0-1.53,1.08.99,1.08,3.51,0,4.59,1.08a1.672,1.672,0,0,0,.54-1.08c-.54,0-.54-.54-.54,0l-.54-.54v-.54c0-1.62,2.43-.72,2.97-2.34,1.08,0,2.88-1.08,3.96-.54.54,1.08.54,1.08-.54,1.62,0,1.62-.54,3.78,0,5.4a10.011,10.011,0,0,1-1.08,3.78l1.08,1.08h-.54c0,3.69-1.62,7.38-1.08,11.61h.54c.54.54,2.16,0,2.16,1.62,1.53-1.62,1.89.54,4.05,0,2.61-1.62,7.65-2.97,10.35-5.04.54-.54.99-1.62,1.53-1.62v-.54c2.16,0,.99-2.25,1.53-2.79h-.54s-1.35.36-1.26-.9c-.18-.36-.27-.36-.81-.81-3.24.54-5.58,1.98-8.82,3.6a1.668,1.668,0,0,1-1.8-.99l1.08-.54-1.08-.54c0-1.08.54-.99,1.08-1.44-.54-.54-1.08-1.44-.54-1.98,1.08,0,0-.72.54-1.8-.54,0,0-1.62-.54-2.16a.529.529,0,0,0,.54-.54c0-.54,0-1.08.54-1.08-1.62-.99-.54-2.61.45-3.15-1.53-1.62.54-3.24-.99-3.78l.54-.54c0-1.08.45-1.17-.54-1.71C28.35-42.57,29.79-43.74,28.8-44.82ZM10.71-41.58c-.54-1.62-4.77-1.62-5.85-1.08-.54,1.08-1.08,1.62,0,2.16l-.54,2.79v1.89a1.241,1.241,0,0,1,.54.9c0,.54-.54.54-.54,1.08a.658.658,0,0,1,0,.99.529.529,0,0,0,.54.54c0,.54,0,.54-.54.54-.54.54,0,1.08.54,1.62l-.54.54c.54.54-1.08,1.62.54,2.16-.54.54,0,1.62-.54,1.62.54.54,0,1.53.54,1.53,0,.54.54,1.62,0,2.16l.54,1.08-.54.54c1.08,1.62.54,5.13,2.07,5.67l-.54.54c.54,1.62,2.16,1.08,2.7,1.62a.529.529,0,0,1-.54.54c0,.54,2.79.63,4.32,0-.54-.54,0-1.08,0-1.62s-1.08-1.08-1.62-1.08c2.07,0,.54-2.43,1.08-2.97-1.62-1.62,0-4.32-2.16-5.94h1.08c-.54-.54-.54-1.53-1.08-2.07l.54-.54a1.672,1.672,0,0,1-.54-1.08h.54v-.54c0-.54-.54,0-1.08-.54,0-.54,1.08-.54,1.08-1.08s0-1.08-1.08-1.62c0-.54.54-.54,1.08-1.08-1.08-.54.54-.99-.54-.99l.54-1.08c-1.08-1.08.54-5.58-1.08-6.66Zm42.12-6.21c-1.71-.45-3.96-1.98-5.49-1.35,0,1.08.99-.09.99.99l-1.08.18-.36.45c.54,0,1.08-.09,1.08.45-.54.63-.45,1.17-.99,1.17-.45,1.62.99-.63,1.62.45-.54.54-1.08.63-1.53,1.17l1.08.99c.09.54-.54.09-.45.54l.54.54c.27.81-.27.27-.45,1.08h1.08c-.54,0-.99,1.08-1.53,1.17a23.489,23.489,0,0,1,.27,5.76l-.54.54c-.45.54.63,1.08.63,1.08a1.9,1.9,0,0,0-.45,1.62c1.17.99-.45,1.62.63,2.16H46.8c.09.54,1.62.9,1.17,1.62-.27.45-1.62-.18-.36,1.62,1.62.99-1.53,2.61.18,4.14-.45,1.62,1.26,3.15.27,4.32l.54.45c-.45,2.25,1.26,3.24.81,5.4h.54c1.08-.09.09,1.08.63,1.53a6.187,6.187,0,0,0,4.23-.09l-.54-.54a1.1,1.1,0,0,0,.99-1.17,7.53,7.53,0,0,1-1.08.09l1.53-1.71c0-.54-.99.63-1.62-.45l1.62-.63c-1.71-.99.9-1.71-.18-2.16l-.54.09c1.53-1.8.9-2.79.81-4.95h-.54c-.54-.45.54-.54.45-1.08,0-.54-.09-2.52.45-3.06-1.71-.99.36-2.25-1.26-3.24l.45-.54h.54l.54-.63c-.54.09-.81.18-.81-.36l.27-.45-.63-.18c0-.54-.54-1.08,0-1.08l.72-.09.18-2.16c-2.16.18.45-1.08-1.17-1.53l1.08-1.53c-.09-.54.36-2.16-.72-2.61h.54c-1.08-.54.45-1.71-.63-1.62l.45-.54c.54-1.17-.54-1.08-.63-2.16a.529.529,0,0,0,.54-.54c-.09-1.08-2.25-2.16-3.24-1.53-.09-1.08,1.44-.54,1.98-1.17Zm37.35,1.17c-.27-1.17-.72-2.79-1.8-2.79-7.29.63-16.92,2.43-23.67,4.95.54,0,.54,0,1.26.81-1.26,0,0,2.52-.72,3.15,1.53-.63.9,2.61,2.16,2.07,0-.81,1.71.09,1.89-2.07,2.79-1.53,5.04-1.62,7.65-2.16,1.98,0,4.68-1.35,5.31.45-2.16,0-.63,2.79-2.7,2.16,0,1.98-1.98,1.44-3.33,4.05l1.35.63c-.72.81-.81.18-1.44-.36-.81,1.35-1.26,1.17-1.26,2.52-2.7.54-2.61,3.33-4.59,4.59,0,.72.63,1.35,0,2.16h-.72c.72,1.26-1.44,2.97-.09,3.51,0-.54.72-1.17,1.35,0l.72-.18,1.26.18c1.35-.54,2.34,0,3.69-.54.63.54,2.88-.54,3.6.09-.72.54,1.26,3.33-.81,2.7v1.44l-.54.45v.72c-.45,3.42-1.08,1.89-1.89,4.95l.72.81c-1.35.63-1.98,1.98-1.98,4.05-.72.54,0,2.61-.72,3.33-.72.81.36,1.71,1.08,2.25a1.7,1.7,0,0,1-.72,1.26l2.16.81c0,1.53.54.72.54,1.98,1.44,0,2.25-1.71,3.51-1.71l.63.45-.54-.81s0-.72.54-.72a5.013,5.013,0,0,1,1.98.72c2.61-.72,5.31-1.98,8.01-2.52l-1.26-.81,1.26-.72c2.07.72,2.79-.63,4.77-1.26l-.72-.81c1.35.81,1.35-1.35,2.07-1.89,0,0,.63,0,.63.54a2.194,2.194,0,0,1,2.79-.54v-3.6c-.81.72-.81-.63-2.16-.63.81-.63,1.26-.45,1.35-.63-.27-.63-1.44-.36-2.61,0-4.77,1.98-9,2.43-13.68,5.85-1.08.09-1.62-.27-2.07-1.71,1.26-.54,0-2.61,2.07-1.89l-.81-.72c.81-1.35.36-2.07,2.34-3.42-.63-1.44.09-3.42.09-4.77l.72-1.44c0-.63-1.35-2.79,0-3.33.63-1.26.09-3.69-1.26-4.32l-4.14-.09c-1.35-.72-2.61,2.07-3.33,0,0-.72,0-.72.72-.72-.63-.45.36-1.08.54-1.26h-.54c1.98-1.44,1.26-2.25,3.24-3.06.72-1.98,3.6-2.61,2.97-4.59,1.26-.81,3.24-4.14,3.24-5.49a1.842,1.842,0,0,1,1.26-.72l-.72-.54c0-.72.72,0,1.35,0Zm38.79,9.27c.54-2.52-3.06-4.86-4.59-6.12-1.08.63-3.06,1.26-3.06,1.89a6.358,6.358,0,0,1,3.06,1.26H122.4c-.54,0-1.08-.63-1.62,0l1.08,1.62c-1.53-.09.45,1.08-.54,1.35-.54,1.26-.99,2.25.54,2.25l-.81.9c.09.63-.27,2.16.27,2.16l-.54.63h.54c-2.07,1.89-4.68,1.26-6.66,2.52-1.62-.63-2.88,1.89-4.5.63l1.08-1.26h-1.08c.54-.63.54-1.26,1.08-1.26,0-1.26-.9-1.17.54-2.34-.54,0-.54.09-.54-.54l.54-1.26-1.08-.63.54-.45c0-.54.54-1.98,0-2.61,0-.63-1.08-.99-1.08-1.62-.45,0-3.33-1.26-4.41-.63a1.27,1.27,0,0,0-1.08,1.26l.54.99c-1.53,0,.54,1.89-.99,1.89.99,1.8-.54,3.33,0,5.85-.54.63.99,1.71-.54,2.34.99,1.26-.54,2.25,0,4.77v.63l.54.45h-.54c0,1.26-.54,1.89.54,2.52h-.54c-.54.63,0,1.89.54,2.52v.63c-.54,1.26,0,2.97-.54,4.23h.99l-.45.63h.45v.63c.54.63,3.06,2.52,4.14,2.52.99.54,1.35,0,1.89-.63-.54-.63,0-1.89-.99-1.89l.99-1.26c-1.53-.63.54-2.34,0-3.6l.54.63v-.63l-.54-.63c1.08-.63,1.62-.45,2.07-1.08-.99-.63-.45.27-.99.27-.54.63-1.08.27-1.62-.36.54-1.26,1.17-.54,1.71-1.17v-.45l.63-.27s.27.09.27-.54c0-1.26,1.08-.63,1.62-1.26.99-1.71,2.52-1.17,3.51-1.53.45-.63,1.35,0,.81-1.26a3.564,3.564,0,0,1,2.61,1.17c-.54.63-.54.63-.54,1.26,0,0,0,.18-.45.18a4.423,4.423,0,0,0,.45,1.53c-.99,0,.54.99-.45.99a21.19,21.19,0,0,0,.45,2.61l-.99.63h.54c0,.63.99,2.25,0,2.88-.18.81.54,2.16-.09,2.52l.99.63-.99,1.17.99.63c-.54,1.26,1.08,2.52,0,3.78,1.08,1.89,4.41.72,6.03.63-.18,0-.45-.09-.45-.63h.54c1.08-1.26-.54-1.89-.54-2.52l1.08-.63-.54-.63c0-1.17-1.08-2.43.54-3.06-2.16.45-.81-1.44-.45-1.44a.674.674,0,0,1,.45.09,1.3,1.3,0,0,1-.18-.81c1.71-1.26-1.71.09-1.89-1.62.54-.63,2.16.63,2.7-.63-.54,0-.54,0-.54-.63.54-1.26,0-2.07-1.08-3.33h1.62l-1.08-.63c0-.63,1.08-1.26,1.08-1.26l-.54-1.71s0-.63.54,0a2.169,2.169,0,0,0-.54-1.71v-1.44a.736.736,0,0,1,.54-1.26,5.42,5.42,0,0,0-.54-2.52l.45-.27.09-.99s0-.63.45-.63v-.63c-.99-.63,1.08-1.26-.45-1.89-.54-.63.99-1.98,0-2.52Zm53.19-11.7c-.27-1.8-4.05-2.88-5.49-.36l-.63.45c-.54.54-.18,1.08.45,1.62l-.72.63h.63l-.72.54L176.85-45a2.856,2.856,0,0,0-.81,1.62c-.09,1.08.27,3.69.18,4.77-.63,1.08-.81,2.16-.27,2.25-.18,1.71-.9,3.24,0,4.5l-.36.45c-.09.54-.27.63-.36,1.17,0,.54.54,0,.54.54v.63c.63,0-.63.54-.63,1.08a.438.438,0,0,1,.45.54.438.438,0,0,1-.54.45l.99,1.26h-.63a2.3,2.3,0,0,0,1.17.54.648.648,0,0,0-.63.54c-1.44,1.62,1.44,2.43-1.08,3.33h.63a3.976,3.976,0,0,1,.36,2.25c.45,1.8-.99,4.68.63,5.85l-.63,1.08c-.18.54.36,1.17-.18,1.17l.99,1.08-.63.54-.18,1.17c.54,0,.54,0,.63-.63l.72,1.17c-.63-.27-.81,0-1.35,0a.971.971,0,0,1,.81,1.17l3.96-.36-.36-1.71c.63.09.72-.45,1.26-.45v-.54l-1.08-.63c.72-.45.63.09,1.26-.45.18-1.17.9-2.07-.27-2.79l.63-1.08c-1.71-.18,1.35-1.08-.27-2.43l.54.09c-.99-1.35.81-2.16-.9-2.97l.63-.45v-.54c-.36-.72.9-2.7-.81-2.97,1.35-.9.81-1.53.27-2.25l1.17-.27-.99-.81a9.981,9.981,0,0,0,.54-5.49c-.54-.09-.54-.09-1.17-.63a.782.782,0,0,1,1.17.09c-.45-.63.18-1.71.27-2.25a4.755,4.755,0,0,0-1.17-.09l1.26-.45c-.54-.54.18-1.71-.36-1.71l.36-1.8.45-1.26h-.54l.09-.54-1.17-.72c.54.09,1.17-.36,1.71-.27-1.62-1.44.36-2.25-1.35-3.06l.54-.36c-1.62-.81.72-.54.09-1.17a5.169,5.169,0,0,1-2.79-.99c1.35-.36,2.25.81,3.06-.09C182.7-48.42,182.16-48.51,182.16-49.05Zm-13.95.99c-.72-1.8-2.88-2.07-3.96-1.8-4.5,1.26-7.38,3.6-11.97,4.77-2.7.18-4.41,1.71-7.11,1.89-1.89,1.98-6.39,2.52-7.02,5.4.99.09,1.35,2.97,1.89,2.43,1.71-.81,5.04-.9,6.93-2.25l-.54-.27v-.54c.54.81,1.08.27,1.08.81,2.79-.9,1.8-1.35,4.5-1.71,1.62-.81,3.33-2.25,5.49-.99-1.08,0-1.71,1.44-2.25,1.44l.45.54c-1.89,2.52-3.87,4.05-5.31,7.11-.63.99-1.71.9-2.25,1.44,1.08,1.17-.72,1.62-.36,3.24-1.89,3.06-3.96,6.57-6.3,9.72l-.81,1.53c1.08.09,3.69,1.98,4.32.36,2.07.72,2.16-2.07,3.24-1.8v-.54c1.08-.54,1.26-2.16,2.34-2.61l-.45-.54.54-.45s.72-1.08.18-1.08c1.53-.09.99-1.35,1.08-2.43.45.18,2.07.63,1.17,1.26l.54.09-.54.45,1.35,1.35c0,1.62,2.16,1.26,1.44,2.7l.63-.36.45.54c0,.54-.54.54-1.08.36l1.53,1.35v.54l-.09.45c-.27,1.62,3.06,1.35,3.42,3.06l-.36.63c2.79,1.53,5.94,1.17,6.39.54-.36-.63-.9-1.44-1.44-1.53l.54-.45-2.34-2.97c-.81-4.41-3.69-6.84-5.94-10.89-.54-.63-1.44-1.35-1.44-1.89s0-.54.54-.36l-.54-.72.63-.36c0-.54-.54-.18-.54-.72l.54.18c.72-.99,2.52-2.52,2.61-4.05-.45-1.17,1.17-1.53,1.89-2.52.63-.54.81-1.62,1.35-2.07a11.5,11.5,0,0,1,3.78-4.5l-.54-.63,1.71-1.8h-.54Zm68.76,32.94a11.9,11.9,0,0,0-4.59-2.79c-.99,1.08-2.79-.45-4.41,1.17,0,.45.54.45.54.45-1.71,1.17-3.96,3.33-4.41,4.95a2.038,2.038,0,0,0,1.53-.45c.54,0,.18.45.72,1.08l.81-.63.9.63c-.54.99-2.43-.63-2.43.54-.45-.54-1.53.45-1.53-.54-1.71.99-1.26,2.25-2.25,3.33l.99.99c0,.72-.45-.54-.99,0-1.08,2.43-2.16,4.5-2.16,7.2h.54c-1.08,1.62,2.34,3.33,3.33,3.87,2.79-.54,6.39.99,8.1-.63l-1.17-.54a1.545,1.545,0,0,1,1.17-.63c0-.54.18-.72.72-1.17.45,0,.45.18.45.63.63-.45.81-.81.18-1.44,1.17-.54,2.7-.63,3.87-1.08l-1.17-1.17c-.45-1.71,1.62-1.17,2.88-2.25h-1.71c0-1.08.45-.36.45-1.08l.36-.63c1.53-1.62.18-1.98,1.35-2.7l-1.08-1.08,1.08-.63c-1.08-.45-1.08-1.62,0-1.62C237.96-13.5,237.42-13.5,236.97-15.12Zm-27-44.55c-.99-.72-5.31-.99-6.48-.72-.09.54.18.72.09,1.26,0,0-.54.54-.54-.18l-1.8,6.57.54.72c-1.89.36-.36,1.62-1.53,2.07l.45.45c-1.17.54-.27,1.8-1.35,1.62.45.63-.72,1.44-.18,1.53.45.81-.18,1.17-.18,1.17l.99.81c-.63.45-.63.45-1.17.27.45.63,1.08.27,1.44.9-.09.45-.54.54-.63,1.17-2.61,2.34-6.3,2.79-9.81,3.87,1.71,1.89,5.04,2.79,7.38,2.61,8.64-2.07,17.01-4.41,25.74-6.93.72-.36,2.61-.99,2.88-3.06a25.658,25.658,0,0,0-13.14.72c-2.79-.36-4.32,3.24-7.02,1.71,1.17-.36-.36-1.62.72-1.35l.18-1.08c.09-.63,0,0-.45-.72l1.17-.99-1.08-.09c.09-.54.09-.54.63-.45l.81-.54H207a13.005,13.005,0,0,1,1.8-4.86c.18-1.08.72-2.61.45-3.78,0,0,.54-.54,1.08-.36-.45-.63-.99-.72-.9-1.26C209.97-58.5,209.88-59.13,209.97-59.67Zm21.78,48.15c1.08,1.53.09,3.06.63,3.96-.54.54-.99.99-.99,1.62l.54.45a13.7,13.7,0,0,1-2.07,4.14c-1.53.99-1.8,1.35-3.42.81-.45,0,0-.18-.45-.63.45,0,.36-.45.36-.9-.99.45-.45-.18-.99-.18.54-.99,1.53-.99,2.61-1.62-.54-.36-1.08-.99-.54-1.53l.54-.45.09-.63c-1.08-1.08-.63,0-1.62,0h-.9c.99-.54,2.34-1.08,2.34-1.98,1.08,0,1.35-.63,1.8-1.08-.45-1.08-.45.63-.99.18,0-1.08.99-1.8,1.44-2.34,1.62-.54.63,1.35,1.62.36ZM225.9,5.22c-.63-.36-1.08.09-1.62.18C224.82,5.49,225.54,6.21,225.9,5.22Zm4.5-18.27c0,.54-.45,0-.99,0l-.36.54h-.54S229.95-14.04,230.4-13.05Zm-1.89-.54c-.54.54-1.53,1.08-2.07.54C227.43-13.05,227.52-14.04,228.51-13.59ZM225.9-4.68l.45.54h-1.53Zm-5.85-26.19c-1.89-1.26-5.13-2.43-6.93-3.6-2.43-1.26-4.95,2.25-6.75,1.53-1.17.63-1.26,1.98-.09,1.98v.54c-1.89,0-1.89,1.89-1.98,3.15.63.45-1.8.99,0,2.34h-.63l.63.63a.617.617,0,0,1-.63.63l-.09.54c.54.72.72-.54,1.89,0-.63,1.17-1.35.72-1.89,1.17-.63,1.26,1.26,1.89,1.8,2.43l-1.35,1.26,1.98-.09c.54,1.26,3.06,2.07,3.06,3.33,1.26,0,2.88,1.26,3.51-.54,1.89.63,4.32-1.35,5.58-2.07-.45-1.8,1.08-2.79,1.62-3.42a.614.614,0,0,1,.45-.63h-.45a1.1,1.1,0,0,1,0-1.71c-.45-.63-1.08-.63-1.08-1.26l1.8-.63a.561.561,0,0,0-.63-.54c0-.63-.54-.63,0-1.26l.18-1.17c.54-.54-.63-1.44-1.26-1.98Zm-7.38,4.59c0,1.17,1.44.63,2.07,1.17l-2.07.45c.72.72,0,.27.54.9l1.44.63c-1.98,0-.72,1.35-1.44,2.07l.45.45c-.72,0-1.35-.45-1.35,0-.09.36.63.63.72.63-.54.18-1.08.63-1.53.63-1.98-1.71-.36-3.33-1.98-4.59.45-.09,2.07-1.35.45-1.89h-.54s0-.45-.63-.45h-.63c.63-.63,2.52,0,2.61-1.98l.63-.54c-.63-.54-.63-1.08-1.17-.54l.9-1.08c3.24.72.27,2.16,2.07,4.14Zm24.39-30.06c0-.54-.18-1.08-1.44-1.08-1.53.09-5.58,1.62-4.95,2.7-1.89,1.62-.63,4.68-1.26,5.76,0,2.07.36,4.23.36,6.39-.63,2.16-.81,3.87-.18,5.49l-.63.54c0,.54,0,.54.63,1.08l-.63.54s.63,0,.63.54c-.63,0,.63,1.08-.63,1.08,0,1.08.99.27.99,1.35l-.36.27c0,.54-.9,2.07.99,2.61-1.89.54-.54,1.08-.54,1.62-.72.72.18,3.51,1.62,4.5.63.54,4.59,1.08,5.85.54v-1.17c-.63,0-1.26,0-1.26-.54,1.26-.54-.9-2.25.36-3.33-1.26,0,.99-1.08-.27-1.62.63-.54-1.26-1.08.63-1.62-1.26-.99.18-2.07-.45-3.15,0-.54-1.17-1.62.09-1.62,0-1.08.63-1.62-.63-2.16,1.26-2.7-.72-3.87,1.17-6.03-.63-.54-.63-.81-.27-1.62a1.262,1.262,0,0,1-.54-1.08c.63-1.53.09-2.07.09-3.15s.63-3.06,0-4.14C237.06-54.18,236.43-55.26,237.06-56.34ZM258.3-36.45c-1.44,0,.54-3.15-1.98-3.15-5.94,1.53-5.49,2.88-11.97,3.42-.45,0-1.08.18-1.08-.36-.45,0-.45-.54-.45-1.08-1.53,0-1.53,2.52-2.52,3.06-.45,1.53-1.71,2.7.27,3.24l3.24.99c1.62-.36,2.88-.18,5.76-.9,1.44-.54,3.6-.72,4.59-1.35,1.53,0,2.52-1.17,4.05-1.62Zm-3.42-13.32c-1.71-3.24-4.5-2.25-7.47-1.71-4.59,1.89-8.91,1.98-9.09,6.93.54.54,1.17,1.8,1.71,2.34,0,0,.54.72.54.27l-.45-.54,1.17-.45c.54-2.16,1.53.27,2.52-1.35s2.88,0,3.87-1.62c3.06-.54,4.05-1.53,7.02-1.53Zm54.45-3.78c0-1.8-3.24-3.96-4.5-5.13-.63-.63-1.8.27-2.34,1.44,0,.63-.09,2.52,1.08,2.52l-1.17,1.17h.54c0,1.26.63,2.61,0,3.87h.63c.63.63-.63.63-.63,1.17-5.49,1.89-10.71,3.06-16.83,4.95-1.8,1.17-7.2.63-6.84,5.76.63,0,1.98,1.8,3.24,1.8,0,0-1.26.63-.63.63s1.8.54,2.43,0h-1.26v-1.26l1.26.63c3.06-.63,4.86-2.43,8.55-2.43,3.06-1.26,6.48-2.52,10.08-2.52,0,.63-.54,1.89.63,2.52l-.63.54.63.63-.63.63c0,.63,0,.63.63.63-.63.63.63,1.8,0,2.43,1.89,1.26-1.17,1.26.63,2.43-.63,1.89.63,1.26.63,3.69a31.692,31.692,0,0,1-10.89.27c-1.26-.63-4.05,1.26-4.05,3.15,1.17,0,2.61,2.16,4.41,1.53v1.44c1.26,1.8,1.89-.63,2.52-.63v.63l2.97.63-1.17-1.89h1.17c1.26,1.26,2.52-1.8,4.32,0l-.63.63c-1.08-.99-1.17.81-2.07,1.26.45-.18.99-.63,1.44-.63.63,0,1.89.63,1.26,1.8,0,1.26-1.26,1.89,0,2.43l-.63.63a2.314,2.314,0,0,0,.63,1.89c-1.8,1.17.72,1.89-1.17,3.69,1.26,1.26,0,2.7,0,3.96l1.89.63h-1.89c0,.54,1.26,1.17,0,1.8-.54.63,0,1.8.63,1.8-1.8.63.63,2.52-.63,3.06l.63.63c0,.54.54,2.25-.9,2.43,1.98.18.09,3.69,3.06,3.69l.72.99c.63,0,1.53-1.62,2.79-1.62,0,1.26,1.89.63,1.89,1.26h.54c-.54-.18-.63-1.89-1.08-2.43l.54-1.26a4.013,4.013,0,0,0-.54-2.43l.54-.63-.54-.63c1.17-1.17,0-2.43-.63-3.06l1.17-1.17c-.54,0-.54-.63-1.17-.63a2.226,2.226,0,0,0,.63-1.8.617.617,0,0,1-.63-.63s.63-.63.63,0c1.17-1.89-1.26-3.33.54-3.96,0-1.26-.54-.63-1.17-1.26,0-1.17,1.17,0,1.17-1.17h-.54v-.63c1.8,0,0-1.8.54-2.43v-.63c0-.63-.54-.63-1.17-.63l.99-.18s.18.18.81.18c-1.17-.63,0-1.8-1.8-2.43a2.138,2.138,0,0,1,1.8-.63c.63-1.17-1.17-1.17-1.8-2.43.63,0,.63-.63,1.17-.63.63,0,0,.63,0,.63l1.26-.63a2.467,2.467,0,0,0-1.8-.54c0-1.26,1.17,0,1.17-.63-.63-1.26-1.17-.63-1.17-1.89-2.52.63-1.89-1.8-3.69-1.8,1.17-1.26,1.8,1.26,3.06.63,0-.63-1.26,0-1.26-.63a3.669,3.669,0,0,1,2.43-.63c-.54-.63-.54-.63-1.17-.63-.63-.54.63-1.17.63-1.17l-.63-.63c0-1.26.63-1.26,1.17-1.8-1.8-.63,0-2.52-1.8-3.06l.63-.63-.63-1.26,1.17-1.08c-.63.36-1.26-.72-1.8-.72a4.844,4.844,0,0,0,1.89-1.26c-.63,0-.63-.63-1.26-1.17a.617.617,0,0,0,.63-.63c0-.63,0-1.26-1.26-1.26.63-.63.63-.63,1.26-.63,0-1.17,0-2.43-.63-2.97a.617.617,0,0,1,.63-.63v-1.26c-.63-.63,0-.63,0-.63C308.7-50.94,309.33-52.92,309.33-53.55Zm-27.9,1.89c-1.8,0-3.87-2.07-5.67-2.07-3.06.63-6.75.63-10.44,1.26-1.17,1.8-4.59.36-5.85,2.16l2.25,3.96c1.26,1.89,2.16-.36,3.42-.36a3.94,3.94,0,0,0,3.42-1.26l.63.63a.561.561,0,0,0,.54-.63c1.26.63,2.43,0,3.69.63l-1.26,1.17s-1.17,1.26,0,1.26a.561.561,0,0,1-.54.63c0,.54-.63.54-1.26.54,1.26.63-.63,1.26,0,1.89h.63c.63,1.8-1.53,0-1.53,1.8,0,2.43-1.35,3.15-2.52,5.58v.63l-2.34,4.5v.54a17.892,17.892,0,0,1-1.8,3.51l.63.63h-.63c-.63.63-1.26,0-.63.63a.617.617,0,0,1,.63.63l-1.71,1.71.63.63,2.88,2.16,1.44.45,1.89-.27-1.26-.54a2.314,2.314,0,0,1,1.89-.63l-1.17-1.26c.54.54,1.17-.09,1.17-.09,0-.63,1.17-1.8,0-2.43.54-.63.54.63,1.17,0-.63-1.8,1.26-1.8,1.89-3.06a1.355,1.355,0,0,1-1.26-1.26c3.15-.9,4.95,2.97,5.49,3.06,1.26.63.63,3.06,2.43,2.52v.54c1.26,2.52,5.4,3.96,7.29,4.59l.09-2.88a104.291,104.291,0,0,0-7.83-9.54c-.63-1.8-3.69-1.8-4.32-4.23,0-1.26,1.17-.81,1.71-1.44,0-.54.63-1.8.63-2.43h-.63c.63-.63,1.26-.63,1.89-1.17,0-.63-.63-.63-.63-1.89h1.26v-.63a6.345,6.345,0,0,0,.36-3.15,2.792,2.792,0,0,0,.9-3.69ZM382.77-15.39c1.26-.63,1.98-.63,1.98-1.98l1.17-.18a4.411,4.411,0,0,0-3.15-1.98c-1.26.63-5.94.9-5.94,2.88,1.35,1.26,2.61-1.35,4.5,0a45.485,45.485,0,0,0-5.13,1.89c-.63.63,0,.63.63,1.98h-1.89c0,1.26-1.98,2.52-1.35,4.5,0,0,.72,0,.72.63-1.98,0-.72,1.26-.72,2.61l.36-.27.36.27c-1.98.63-1.53,5.67-2.16,7.56h.63c1.98.63,4.59-1.89,5.85,0,1.98-1.26,2.61,0,4.5,0V1.26c.72.63,1.35.63,1.35,1.26a2.314,2.314,0,0,0,1.89-.63h-.63c.63-2.61,3.24.63,4.5-1.26a27.567,27.567,0,0,0,5.49-2.52c1.53-1.08,3.15-1.08,4.41-2.34l-.63-.63c.63-.72,1.26,0,1.89,0v-.72l1.17-1.53.81-.99c-.99-1.35-3.24-.18-4.5-.18-9.09,3.24-3.42.81-11.88,4.23-1.26,0-2.97,1.26-4.86,0,0-.63,1.26-1.26,1.26-1.89-.63-.72-1.89,0-1.89-1.35.63-.63,1.26,0,1.89-.63,0-.63-.63-.36-1.26-.99.63-.72,1.26.63,1.89,0v-.72c-.63.72-1.26,0-1.89-.63,0-1.26,1.89.63,2.61-.63l-1.35-.63c-2.52,0,.63-1.26-.63-1.98a2.408,2.408,0,0,1,1.98-.63v-.63C384.03-14.13,383.4-15.39,382.77-15.39ZM362.88-59.22c-.99-.72-5.31-.99-6.48-.72-.09.54.18.72.09,1.26,0,0-.54.54-.54-.18l-1.8,6.57.54.72c-1.89.36-.36,1.62-1.53,2.07l.45.45c-1.17.54-.27,1.8-1.35,1.62.45.63-.72,1.44-.18,1.53.45.81-.18,1.17-.18,1.17l.99.81c-.63.45-.63.45-1.17.27.45.63,1.08.27,1.44.9-.09.45-.54.54-.63,1.17-2.61,2.34-6.3,2.79-9.81,3.87,1.71,1.89,5.04,2.79,7.38,2.61,8.64-2.07,17.01-4.41,25.74-6.93.72-.36,2.61-.99,2.88-3.06a25.658,25.658,0,0,0-13.14.72c-2.79-.36-4.32,3.24-7.02,1.71,1.17-.36-.36-1.62.72-1.35l.18-1.08c.09-.63,0,0-.45-.72l1.17-.99-1.08-.09c.09-.54.09-.54.63-.45l.81-.54h-.63a13.006,13.006,0,0,1,1.8-4.86c.18-1.08.72-2.61.45-3.78,0,0,.54-.54,1.08-.36-.45-.63-.99-.72-.9-1.26C362.88-58.05,362.79-58.68,362.88-59.22Zm10.08,28.8c-1.89-1.26-5.13-2.43-6.93-3.6-2.43-1.26-4.95,2.25-6.75,1.53-1.17.63-1.26,1.98-.09,1.98v.54c-1.89,0-1.89,1.89-1.98,3.15.63.45-1.8.99,0,2.34h-.63l.63.63a.617.617,0,0,1-.63.63l-.09.54c.54.72.72-.54,1.89,0-.63,1.17-1.35.72-1.89,1.17-.63,1.26,1.26,1.89,1.8,2.43l-1.35,1.26,1.98-.09c.54,1.26,3.06,2.07,3.06,3.33,1.26,0,2.88,1.26,3.51-.54,1.89.63,4.32-1.35,5.58-2.07-.45-1.8,1.08-2.79,1.62-3.42a.614.614,0,0,1,.45-.63h-.45a1.1,1.1,0,0,1,0-1.71c-.45-.63-1.08-.63-1.08-1.26l1.8-.63a.561.561,0,0,0-.63-.54c0-.63-.54-.63,0-1.26l.18-1.17c.54-.54-.63-1.44-1.26-1.98Zm20.97-19.17a28.237,28.237,0,0,0-2.25-3.24c-1.17.54-5.13,1.89-5.85,4.05.54,0,1.62.09,1.71-.45.45.09.99.63.45.63a2.168,2.168,0,0,1-1.62.36c0,.54-1.26,1.62-.18,1.62,0,1.08-.18,3.24-.18,4.32-.09,1.08-1.26,2.61.36,2.7-.63.54-1.17.54-.63,1.08,1.08.54-.18,2.16-.18,2.16,2.16.72-.54,1.08.99,2.16l-.72.45.63.09c0,1.08-1.17,3.24-1.17,4.32h1.08l-.63,1.08.45.54-.63.54h.63c1.98,2.34,4.77-.9,6.3-.27,2.79-.45,1.17-.63,3.33-.99,1.62.54,1.62-2.16,3.15-1.44,1.89-1.35,3.15-2.16,6.66-1.17-.36-.81-.54-1.53.54-1.26a15.114,15.114,0,0,0-.36-2.7c-5.85-2.61-6.3-.81-11.88,1.08-.54-1.08-1.62-.27-1.44-1.89.54,0,.54-.54.54-1.08.63-1.53.18-1.35-.36-2.43l1.17-.99a10.1,10.1,0,0,0-1.98-1.89h.54a4.754,4.754,0,0,0,.72-2.61l-.54-.09.54-.45c-.54-.54-.45-1.62-.45-2.16h.54c.63-.99-.99-.63-.45-1.62C393.03-49.86,393.84-48.51,393.93-49.59ZM365.58-25.83c0,1.17,1.44.63,2.07,1.17l-2.07.45c.72.72,0,.27.54.9l1.44.63c-1.98,0-.72,1.35-1.44,2.07l.45.45c-.72,0-1.35-.45-1.35,0-.09.36.63.63.72.63-.54.18-1.08.63-1.53.63-1.98-1.71-.36-3.33-1.98-4.59.45-.09,2.07-1.35.45-1.89h-.54s0-.45-.63-.45h-.63c.63-.63,2.52,0,2.61-1.98l.63-.54c-.63-.54-.63-1.08-1.17-.54l.9-1.08c3.24.72.27,2.16,2.07,4.14Zm20.43,8.28h-.09c0,.09,0,.18.09.18ZM432.9-54.9c-3.78-4.32-10.62-4.5-16.02-3.96-2.16,1.08-4.59,4.5-5.04,7.56h.54c.54,0,.63-.18.63.36l-.63.72h1.08v-.54c1.08,0,0,1.08,1.08,1.08v-.54c.54,0,1.08.54,1.62,1.08l-1.62.54,3.69.81c.54-1.62,2.16,0,3.24-.54,1.08,1.08,1.62-1.08,2.7,0,1.62-2.16,6.39-.63,8.01-4.59l.27-.36C432.45-54.36,432.9-54.36,432.9-54.9Zm-7.92,1.89c-1.08,1.62-2.97,1.35-4.59.81-.54-.54-.81-.27-1.89-.81-.45-1.35-.18-1.89,2.97-1.35C423.18-54.18,424.98-54.63,424.98-53.01Zm24.84-16.11c-2.16.09-7.11-.9-8.19.72,0,0-1.17,1.98,0,2.52l-.54.09c-.09,1.08-.09,1.08-.54,1.53l1.08.54c0,.54-1.62,1.08-.54,1.71l-.54.45c2.7.63-.54,2.79,1.08,3.87-.54.45,0,1.62,0,2.16v.54c.54-.09.09.54.09.54-.09.54-.63.45-.09,1.08.09.54.54.99,0,1.62a6.668,6.668,0,0,1,1.08.99l-1.08.09c0,.54,0,.54.63.99-.09,1.08,0,1.62-.63,2.25.54-.09.54.45,1.08.45l-.54.54a9.779,9.779,0,0,1,1.17.09c0,.54-.63.99-.63.99l.63,1.08a1.361,1.361,0,0,1-.99,1.08h.36s.63.54.54,0l.63.54c-.09,1.08.54,1.26-.63,1.8-7.56,1.08-12.69,4.14-19.62,6.84-1.71,2.16-6.39,2.16-8.01,4.86,2.7,1.08,5.31,2.07,7.47.36h-.54c0-.54.54-1.08,1.08-.54.9,1.35,2.07-.72,4.32-1.17,1.62-1.08,2.88-.72,4.41-1.8,1.62,0,2.34-1.71,3.96-.63-.54.45-1.08,1.08-1.62,1.62-4.86,5.4-5.94,9.27-10.71,15.21v1.08c-1.08,1.08.18,2.97.18,4.05l.54.99c.54.63,1.53-.09,2.07-.09-.54-1.71,1.71.63,2.16-.45h-.54l1.08-.54c1.08-1.08,3.24-.18,4.86-.18l.63.09c1.08-.54,2.25-.54,3.78-1.08v-.54c.54,0,1.17-.54,1.08,0l-.54.54c1.17.54,1.62-.54,1.71-1.08.45-.54.36-.54,1.44-.45-.45.45.99.45.99.99l-.54.54c-1.53,1.08-1.62,3.6-3.78,4.77.54,1.53-1.8,1.62-1.8,3.24-.54,0-.81.54-.27.54-4.23,4.41-6.93,8.55-11.88,12.87-.54.09.54.63-.54.63,0,1.08-1.53,2.79-.45,3.33v.54c.54,0,1.08-.09,1.62,1.08l1.08-.63c.45.09.09.45,0,.54,1.08.09.54.09,1.08-.45,1.08-1.62,3.6.99,5.22-.09l-.54-.54c.54-.54.54,0,1.08,0l2.07-.18,1.53-.18a1.351,1.351,0,0,0,1.62-1.08c1.62,1.08,2.16-.99,4.32.09.54-1.71,2.16-1.17,3.24-1.62,1.08.99,2.16-.63,3.24-.54.45-1.17,1.62-.09,2.07-1.17,2.25.54,5.67-1.44,7.83-1.35a9.3,9.3,0,0,0-.81-2.88c.54.09.81-.45.72-1.53l-2.7.54c-12.33.54-11.16,3.6-22.95,4.14.99-.99.45-1.08,1.62-1.62a.618.618,0,0,1,.54.99l.45-.45c-.54,0,.54-1.08-.54-1.08,0-2.16,2.25-.54,2.7-1.62-1.08-.54.9-.09-.72-.63a6.3,6.3,0,0,1,1.98-1.08,2.016,2.016,0,0,1-.9-.63h2.7c.54-1.08-.54-1.53.54-1.62.54-.45,1.08-.54,1.08-1.62,0-.54.54,0,1.08.09,1.62-.54.54-1.71.54-2.25.45-.54.99-.45,1.62-1.08v-.54s-.09-.54.54,0l.54-1.53c-.63-1.17.99-.63.99-1.17a.44.44,0,0,0-.45-.54c-.09-1.08.99-.45,1.53-1.08-.45-.45-1.08-1.08-.54-.99,1.62-.09,1.62-1.71,2.79-1.17.99-.54-1.17-.54-1.17-.54.09-.99,1.08-1.08,2.16-1.62a.745.745,0,0,1-.54-1.26h.54c-.54-1.62.99-1.08,1.44-2.16-3.78-3.15-9.36-2.7-13.77-1.53-1.53.54-3.24.9-4.95,1.44l-.36-.36c-.09,1.08-.54-.09-1.08,0-.63-1.08.45-.63.99-1.08h-1.08l1.08-1.62c-.54.45-.54-.09-1.08,0a23.39,23.39,0,0,0,4.95-2.52c-1.17-.63-1.62,1.62-2.7-.09-.09-.54.99-.45,1.53-1.08.45-.81,1.89-1.17,2.79-1.62l-.9-.54.54.09c-.63-2.16,2.07-2.16,2.7-2.79l-.54-.54c.45-.54,1.53-.54,2.7-.99-1.08-.09-2.16-.09-2.25-1.17l3.33-1.08-1.08.09c0-.54-.09-1.08.45-1.17h.54a3.622,3.622,0,0,1,2.25-2.61l-1.17-.63,2.61-.99-.63-.54c.54,0,.54-.54,1.08-.54l-1.08-1.62c.54,0,.63-.54,1.08-1.17l-1.08.09c.63-1.08,1.08-1.71,1.62-1.62-.54-.63-.54-.09-1.08-.54a.792.792,0,0,1,.63-.63,2.546,2.546,0,0,1,.54.27c-.81-.81.36-1.35-.09-2.34a.851.851,0,0,1-1.08,0c0-1.08,1.08-.54,1.62-.54,0-1.08,0-1.08-.54-1.62-.54-.09-1.62.54-1.62,0,.54-1.62,1.62.54,2.16-1.08h-.54c0-1.08,0-2.7.45-3.24-.45-1.08-.99-.09-.99-1.17-.09-.54.54.09.54.09l-.09-.54a.648.648,0,0,1,.63-.54l-.54-.54c.45-.54-.54-1.71-.63-2.25,1.17-.45-.45-.99.09-1.53-.63,0-.63,0-.54-.54h1.08c-1.08-.54-1.17-1.62-2.16-1.08v-.54l2.16-.54-.54-.54a2.973,2.973,0,0,0-1.08-2.7c0-.54.99-1.17,0-1.71l.45-.63Zm-2.7,1.71h1.62l.45.54Zm4.32,23.31-.45-.36Zm52.02,24.57c-5.94-.27-9.99,6.93-14.67,10.44-.27,1.17-2.07,1.98-.99,2.79l-.72.54c-.27,1.71.99,3.78,1.98,5.76l-.18.54.45.63,1.08,1.35c2.79.36,6.03.63,8.28,1.62,1.89-.36,4.68.72,5.31-.36,1.08,1.26,1.98-1.62,3.6-.18.81-1.71,2.34-.27,3.78-1.17,1.08.09,2.43-.9,3.69-1.26,0,0,.99.63,1.71.18L518.04.9c.81-.45-.9-1.35.9-.99.72-1.8,2.88-.27,4.32-2.34.81-1.71,4.86-2.07,5.76-3.69l-1.26-2.07c-3.42-.45-6.21,2.16-9.81,2.7-7.83,1.98-16.47,7.02-23.94.72-2.16-1.44,1.98-.63.54-2.61l.63-.45-.45-.72a9.78,9.78,0,0,0,1.17.09c0-.54,0-.54-.45-1.17.63-.54,1.26-.45,2.43-.27l-.63-.63.09-.63c1.17.18,1.44-1.44,2.61-1.35l-.45-.72c.72-.45,1.26-.9,1.89-.81l.18-1.8c1.17.09,1.35-1.62,2.34.27,1.35-.9.18-1.62.9-2.07Zm4.86-30.33c-1.71-1.35-4.5-2.7-6.3-2.43a2.857,2.857,0,0,0,.99,2.34l-1.26.45.45.72c-.9,2.25,1.8,4.41-1.26,5.04.45.72,1.08.81.99,1.35l-.63-.09.63.72a2.1,2.1,0,0,0-.9,1.08c1.62.72-.63.99-.81,1.62,1.08.81.99,1.89.36,2.43.54,0,0,.99.45,4.77l-.54-.09c-.09,1.17.9,1.8-.36,2.34.54.09.45,1.08.9,1.26-1.17.45.54,2.7-.63,2.52a3.679,3.679,0,0,0,1.98,2.61c.63.18.99.9,1.08.36,2.7,1.44,4.86-1.17,7.83-.81l-.54-.72,1.17-.36c2.97,1.08,4.59-2.34,7.47-2.52,1.62,1.53,3.42-1.17,4.23-.54l2.43-.36-.63-.09,1.71-.63-.27-1.8.9-.9c.63-.54.72-.72.72-1.26a11.451,11.451,0,0,0-7.92-.18c-5.31.45-8.1,2.34-13.05,3.96-1.62-.72,0-3.42-.45-4.77.09-.54-1.08-.63-.45-1.26,0,0,.72-.45-.45-1.17.54,0,.81-.54,1.35-.45a1.171,1.171,0,0,0-.99-1.26l.63-.45c.72-1.17.18-1.8-.9-2.61l1.26-.36c.09-2.25-.09-2.07.09-3.87C508.95-46.8,507.96-48.06,508.32-49.86Zm-33.3,12.6c-.45-1.26-1.98-3.96-3.87-3.51-.72.54-2.34.63-1.98,2.43.63-.54.54,0,.54,0,.54.72-.09,1.17-.72,1.08l.9,1.98c-.45-.09-.72.45-.72.45-.63,1.08-.18,1.8-.27,2.34l-.54.54c-.18,1.17-.09.54.36,1.26-.09.54-2.61,1.62-.45,3.15l-1.17.27.45.81c-.63.36-.63.99-.18,1.62-1.89.36-1.08,3.78-2.25,4.14.45.72,1.53,1.35,1.44,1.98.63.09,1.17,1.44,1.89.27l.45.72,2.07.09c1.08.72,1.08.72,2.97.36.63-.36,2.88.45,2.52-1.35a1.542,1.542,0,0,0,2.43-.27c-.09.54.45.63,1.08.81l-.54-1.35a21.883,21.883,0,0,0,6.75-1.89l-.54-.81.63.18c1.08.81,2.43-.27,3.06-.81-.45-.63-.36-1.26.27-1.17a15.735,15.735,0,0,0,5.13-3.33c1.17-.45,1.71-.45,2.61-1.53l-1.89.45c-.45-1.26,2.07-1.17,2.79-2.07-.63-.09-.72-1.89-1.26-1.98a106.414,106.414,0,0,1-22.86,8.91c-1.17.45-2.25-.81-2.61-1.53l1.62-1.89c-.27-2.43.09-1.62.99-3.96-1.53-1.44.9-1.71-.18-2.97l.63-.54c-.45-.63.36-1.71-.81-1.89C473.85-36.81,475.02-36.63,475.02-37.26Zm14.4-16.47a16.622,16.622,0,0,0-2.34-4.77c-7.2,1.35-17.1,3.06-24.57,5.58-1.89.81,1.89,2.97.63,3.87,1.08.18,1.8,3.33,3.42,1.08l-.63-.54c.18-1.17,1.89-.45,2.52-1.35,5.31.54,9.72-3.42,14.76-2.16,0,.54-.09,1.17-.72,1.17-.63.45-.18,1.62.27,2.34-1.8.9-.09,4.14-2.61,5.58.54.63-.18,1.71.18,2.43-1.26.27-.18,1.71-.9,2.79,0,0-.09,1.08.45,1.26-1.26.27-.81,1.53-.99,2.07,0,0-.18,1.17-.72,1.08l1.17.81-.81,1.08s1.62,1.17,1.26.18c1.17.27,3.06-1.35,4.23-1.8-1.62-1.98,1.71-2.52.09-3.24.54-.54.63-.99,1.08-.54-.45-.54.27-1.62-.27-2.34a5.058,5.058,0,0,0,1.17.18l-.36-1.71c1.35-1.08.45-2.97,1.8-4.05-.54-.54.81-1.53-.18-2.88.63.18.72-.36.72-.36.09-.63,1.44-2.25.36-2.97A2.693,2.693,0,0,0,489.42-53.73Zm89.37,5.94c.54-2.07-3.15-1.89-3.78-1.98-1.26,1.26-1.44,3.6-1.98,4.86.54,1.8,0,3.06.45,4.86-.63,2.52-3.06-1.8-4.86-1.35-7.02.63-12.33,3.69-17.28,7.92v.63c-.72,0-1.35,1.35-1.98,1.26-.63-1.44-.18-1.89-.18-3.15a7.991,7.991,0,0,0,.9-4.23c-.63-.63.9-2.7.09-3.33.81,0,.81-.54,1.35-1.26-3.24-.63-6.57.63-9,.45-3.78,1.26-11.61.9-11.79,7.2a55.239,55.239,0,0,1,8.91-2.07c1.35,0,1.35-1.26,1.89-.45,1.26,1.17,3.15-.72,3.69,1.17,0,.72-.54,0-.54,0a2.144,2.144,0,0,1-.63,1.89c.54,2.52-.99,4.05-.45,6.66a22.158,22.158,0,0,0-.72,6.84c.63,0,.63.63,0,1.17,0,.72-1.35,1.8-.09,2.43l-.72.72c1.17,4.32-1.89,7.83-.63,11.61.72.36,2.61,1.35,3.69.72.54-1.26,1.89-1.62,1.35-3.6h.63a1.676,1.676,0,0,0-.63-1.17c.63,0,.63-.72,1.26,0l-.63-3.15c.72-.72.72-.72,1.35-.72-1.89-1.17.63-2.52-.63-3.78h.63c.09-1.17-.54-1.17-.54-1.71,1.89-.63-.54-2.52,1.26-3.15-1.8-1.35.72-2.34-.54-3.69-.63-1.89,1.89-2.34,2.61-2.97,2.52-1.26,4.05-2.52,6.57-3.69,2.52-.63,3.78-1.8,5.58-1.17.81-.63.09-1.89,1.98-1.08,1.17,1.17,2.52-1.89,4.32-.72a2.7,2.7,0,0,0,2.7-1.26c2.43,1.17.09,1.98,1.35,3.24-1.26,2.43-4.95,2.88-6.84,4.14-1.17,2.43-4.41,1.17-4.95,3.06-2.61,0-4.77,2.34-6.66,1.08-1.17-.63-2.34,1.89-2.97,3.15.63.72,1.26,1.71,2.52,1.71.54,2.43,3.24,1.17,5.13,1.26l.18-.54.54-.63c.63-1.26,2.43-.63,3.87-.54-.81-2.07,1.8-1.98,2.52-2.52v-.63a3.332,3.332,0,0,0,3.06-1.71l.63.63c.63.63.63-.63,1.35-.63.54-.63,1.17,0,1.8.63,0,.63-.63,1.8-.72,2.52.63,1.26,0,2.25.63,2.79-.63,1.26-1.35,3.69-.18,4.86-1.17,1.35-.09,2.16-.63,4.05-1.17,1.8,2.7,1.62,2.7,2.79.63,0,2.97-.27,3.51-1.44a2.06,2.06,0,0,1,.72-1.89l-.72-.63h-.54c0-.63,0-.63.54-.63l-1.08-1.26c0-.54.63,0,.63,0a2.3,2.3,0,0,1,.54-1.17c-.54,0-.54-.72-1.17-.72l.63-.63-.63-1.08c.63-.72,1.17-.72.63-1.26a.525.525,0,0,1-.54-.63l1.17-1.26-.54-.54c0-.63.54,0,.54-.63s0-1.26-1.17-1.26a1.842,1.842,0,0,1,1.17-.63c.09-.72.81-1.26-.45-1.26.54-1.89,2.07-4.32.09-5.67l.54-.63c-.27-1.35.36-1.35,0-3.06l.27-1.17c1.26-.72-.72-1.89-.72-3.78h.72c-1.17-.72.72-1.89-.63-2.43l.72-.72c-1.26-1.17-.63-2.88-1.17-3.6Zm12.96,1.71c0-1.26-2.7-2.25-3.24-3.51a3.332,3.332,0,0,0-2.34.9,2.419,2.419,0,0,0,.45,3.24l-.54.63c-3.78,1.17,1.26,0,0,2.52l-1.35-.09c-.63.54.72,1.08,1.35,1.71-.63,0-.63.63-1.35-.09l.63,1.35c.63,1.35-.72,1.8,1.17,3.15-.54,0-.54.63-.54.63l-.09,1.17c-.63,1.26,1.8,3.15,0,4.5l.45.54-.54.63a2.853,2.853,0,0,0,1.26,2.43c-.72.63-.72,1.26-1.26.63l.54,1.71a2.839,2.839,0,0,1-.63,1.35c1.17,0,0,1.26,1.17,1.89-1.98.54-.18,3.06-1.35,5.04h.63c0,1.17-.63,2.43.45,3.06-.54,0,0,1.26-.54,1.8,0,.63,2.34,1.53,2.34,2.79h.54c-1.26-2.52,2.7-.27,3.24-2.07l-.54-.72c.54.09,0-1.26,1.26-1.71-1.89-.09.09-1.89-1.71-1.98a2.2,2.2,0,0,1,1.8-.45,13.561,13.561,0,0,1-1.26-1.53s0-.54.63-.45l-.63-.72,1.26-.54c-.63,0-.54-.54-1.17-1.26.63-.63,1.26.72,1.26-.63-.63,0-.63-.54-1.26-1.26,0-1.26,1.26.09,1.26-1.17l-.63-.63c-.54-.72.09-1.26.09-1.89-1.17-.72.63-2.34-.63-2.97l.63-.63-.54-1.17c.63,0,.63-.72.63-1.35h-.63l.63-1.26c1.26-1.17-1.17-.72-1.17-1.98l1.8.09c-.54-.54-1.17-.54-1.17-1.17,0-.54-.54-.09-1.17-.72l.81-.54.36-1.89c1.35-2.43-1.08-3.06-1.71-3.6l.63-.72-.63-.54a.873.873,0,0,1,1.26,0v-.63l-1.8-.63C589.95-46.08,591.75-46.08,591.75-46.08Z" transform="translate(-4.096 69.338)" fill="#fff"/></svg>