<svg xmlns="http://www.w3.org/2000/svg" width="516.611" height="76.335" viewBox="0 0 516.611 76.335"><path d="M15.93-45.72c.45-.09.09-.81.63-1.08-.36,0-1.26.27-1.8.27a1.1,1.1,0,0,1-.81-.27c-1.62,1.08-4.32.9-5.4,3.06l.54.54c-2.25,0-2.25,3.42-2.7,4.86,0,0,1.08,0,1.08.54a1.583,1.583,0,0,0-.54-.09c-.36,0-.45.18-.45.54,0,.18.09.36.09.63a.965.965,0,0,1-.18.54c.18,0,.09.27,0,.27v1.89c.09.09.09.18.09.36,0,.36-.27.9-.27,1.35,0,.54.27.36.27.72,0,.27-.45.63-.45.9s.63.54.63.99c0,.36-.27.72-.27,1.08a1.043,1.043,0,0,1,.54.99c0,.63-.36,1.44-.36,2.07a1.343,1.343,0,0,0,.9,1.26c-.54.18-.63.45-.63.72,0,.45.18.9.18,1.26,0,.27-.18.54-.63.72.54.18.72.63.72,1.26,0,.81-.27,1.89-.27,2.79a15.932,15.932,0,0,0,.09,2.07c-.27.09-.36.27-.36.36,0,.36.99.9.99,1.8a1.142,1.142,0,0,1-.09.54,6.711,6.711,0,0,1,2.34-.36c.9,0,1.8.18,2.88.18a7.215,7.215,0,0,0,2.97-1.08c.09,0,.18.09.27.18v-1.08c1.08,0,2.7-1.62,3.78-1.62l-.54-.54c1.08-.54,2.7-.54,3.78-1.08a.979.979,0,0,1-.09-.45c0-.99,1.8-.18,2.25-1.17a.68.68,0,0,1-.09-.36c0-.36,2.07-2.07,2.07-2.07.09,0,.18.09.18.27,2.16-.54,2.88-2.79,5.04-3.87a1.521,1.521,0,0,1-.18-.45l.18-.36a.778.778,0,0,1-.54-.27l.54-.54c.27-.45.54-.63.81-.63.63,0,1.08,1.17,1.89,1.17a.331.331,0,0,1,.09.27c0,.36-.27.81-.27,1.17,0,.27.09.54.72.72h-.54a1.141,1.141,0,0,1,.09.54c0,.99-.72,1.98-.72,2.79a1.142,1.142,0,0,0,.63.99l-.54.54v.54l-.54,1.08c0,.54.54.54.54,1.08h-.54v.54c.54.54.54.54,1.08.54a2.156,2.156,0,0,0-1.08,2.16s.27-.27.36-.27.18.09.18.27a.529.529,0,0,1-.54.54,35.026,35.026,0,0,0,.54,4.68c0,.54,0,.54-.54.54l.54.54a.529.529,0,0,1-.54.54l.54.54-.54.81c1.53.27-.09,2.79,1.53,2.79a1.757,1.757,0,0,0,.63-.09c0,.54-.54.54-1.08.54,0,.81,1.17,1.53,1.17,2.16,0,.18-.18.36-.63.54,1.62,0,4.14,1.17,4.68,1.17V.81a1.142,1.142,0,0,0,.54.09h.09c-.09,0-.09,0-.09.09h.99C41.58.9,41.49.81,41.4.81A5.564,5.564,0,0,1,42.84.45L42.75,0c0-.27.72-.36.72-.81-.54,0,.18-.63,0-1.08-1.08-.54-1.62,0-2.7-.54l.54-.54a.468.468,0,0,0,.36.18c.27,0,.54-.36.63-.36.54,0,.27-1.89.09-1.44a1.1,1.1,0,0,1-.81.27c-.72,0-1.53-.27-1.89-.27,0-.45.18-.63.45-.63.45,0,1.17.45,1.71.45a.56.56,0,0,0,.54-.36.787.787,0,0,0-.81-.45c-.27,0-.63.09-.9.09-.18,0,.72-.9.63-.99l-.27-.9-.27-.36c.54-.54,1.62,0,2.16-.54-.81,0-.45-.99-1.17-.99-.18,0-.45.09-.63.09a.682.682,0,0,1-.36-.18l.54-.54h-.54l.54-.54c0-.54,0-.54-.54-1.08a.529.529,0,0,1,.54-.54v.72c.27-.54.45-1.62.9-1.8-.27.09-.63.27-.72.27s-.18-.09-.18-.27a2.25,2.25,0,0,1,1.26-.36c.99,0,1.89.45,2.88.45.27,0,.36-.81.99-.81a.331.331,0,0,1,.27.09v-.45c2.43-.54,3.33-4.14,4.86-4.32a.529.529,0,0,1,.54-.54.541.541,0,0,0,.36.09c1.26,0,.9-2.97,3.15-2.97.45,0,.81.18,1.17.18a.752.752,0,0,0,.81-.54.279.279,0,0,0-.18-.09c-.18,0-.09.45-.36.45-.09,0-.27-.09-.54-.36.54-.54,0-1.62,1.08-2.16a2.012,2.012,0,0,0,.9.27c1.26,0,1.53-2.79,2.88-2.79-.54-.27-.81-1.26-.99-1.26-.27,0-.36.09-.63.36l.09.36c-.36.27-.36.54-.63.54-.45,0-.81-.27-1.08-.9a5.993,5.993,0,0,0-2.79-.36,5.219,5.219,0,0,0-3.24.9.979.979,0,0,1,.09.45c0,.27-.18.36-.45.36s-.54-.09-.81-.09-.45.09-.45.36c-3.24.54-4.32,3.78-7.02,4.32-.54-.54-2.16-.54-2.16-1.62h1.08a1.312,1.312,0,0,1-.45-.72.412.412,0,0,1,.45-.36c-.54-.54-1.08,0-1.08-.54l.54-.54c0-.36.54-.72.81-.72.18,0,.27,0-.27-.36.54-.54,1.08-1.08,1.08-1.62h-.54s-.36.36-.36-.18c-.36,0-.36-.09-.54-.09-.09,0-.18-.09-.18-.27s.09-.27.18-.27c.18,0,.54.27.9.27,0-.54.54,0,.54-1.08h-.54c.36-.36.09-.9.27-1.08-.36-.09-.63-.81-.63-.81,0-.36.99,0,1.44-.81,0-.45-.72-1.26-.72-1.53,0-.09.09-.18.18-.27h.54l-.54-.54v-.54l.54-.54H42.93c0-.81.9-.99.9-1.35,0-.09-.09-.27-.36-.54l1.08-.54c-.54,0-1.08,0-1.08-.54,1.08-.54.54-.54,1.08-1.62a1.142,1.142,0,0,1-.54.09c-1.08,0-1.62-1.26-2.7-1.26a1.142,1.142,0,0,0-.54.09c0-.45.72-.54.72-.54-1.17-.45-4.77-.36-5.94-.36a2.672,2.672,0,0,0-.45,1.62,2.487,2.487,0,0,0,.45,1.62c-.81.18-.9.81-.9,1.35v1.08c0,1.35-2.97,1.08-2.97,2.34a.68.68,0,0,0,.09.36c-.72,2.07-3.6,2.43-3.6,3.6a16.193,16.193,0,0,1-4.14,3.24c-2.16,2.16-4.23,2.7-6.93,4.86l-1.62,1.17c-.63,0-1.17-.9-1.98-.9l.54-.54c0-1.08-1.08-.54-1.62-1.08.36,0,.99-.27,1.44-.27a1.866,1.866,0,0,1,.54.18c-.45-.54-.54-1.53-1.44-2.07,0-.36.9-.54.9-.72,0-.09-.09-.18-.36-.36,0-.54,0-2.16.54-2.7-.54-.54-.54-.54-1.62-.54.54-.54,1.08-.54,1.08-1.62,0,0-.27.27-.45.27-.09,0-.09-.09-.09-.27l.54-.54-2.16-.54a7.455,7.455,0,0,0,2.16-1.62l-.54-1.08h1.08c-1.08-.36-.9-.36-.9-.45a.7.7,0,0,0-.72-.63.468.468,0,0,1,.36-.18c.27,0,.54.36.63.36s.09-.09.09-.18c0-.27-.18-.63-.18-.99l-.36-.63.54-1.08a1.672,1.672,0,0,0-.54-1.08l.18-1.35c-.09,0-.18-.09-.18-.27v-.54c.27-.54.36-.63.54-.63l.09-.45c0-.72,1.44-1.08,1.44-1.98A.758.758,0,0,0,15.93-45.72Zm10.26-6.57c2.16,0,1.89-2.7,3.42-2.79-.54-.18-1.71-.99-2.25-.99-1.8,0-3.78.9-5.67.9a3.062,3.062,0,0,1-.9-.09c-5.4,2.7-8.37,3.06-14.31,4.68-1.62,1.08-5.13.99-6.75,2.07l.54.99c.45,0,2.52,1.71,3.24,1.71a.687.687,0,0,0,.45-.18c1.62-1.08,4.14,0,5.22-1.62a1.244,1.244,0,0,0,.81.45l1.08-.81a3.062,3.062,0,0,0,.9.09c1.71,0,3.15-1.17,5.04-1.17C19.71-50.13,23.49-50.67,26.19-52.29ZM44.01-14.76c0,.54,1.17,0,1.17.81,0,.09-.09.18-.27.18a3.7,3.7,0,0,1-1.44-.45l.27-.45Zm-9-13.23c-.27.27-.54.45-1.08,0-.45-.45-.27-.54,0-.54C34.47-28.53,35.01-28.53,35.01-27.99ZM16.65-47.7h.54c-.09,0-.18-.09-.27-.09S16.74-47.7,16.65-47.7Zm67.32,9.27c.09-1.08-3.15-2.79-3.69-3.33-.54.54-1.89.72-2.43,1.17-1.17,1.08-2.52,4.59-4.68,5.58a22.443,22.443,0,0,1-2.88,4.77c-.54,1.62-1.62,1.53-2.25,3.15l.54.54c-1.08.54-1.71,2.16-2.25,3.15-.63.54-.09,1.62-1.17,2.16a5.849,5.849,0,0,1-2.43,4.41l1.62,1.17c.45,1.08-.36,1.08-.36,1.62.99,2.16,2.97.81,4.59,1.44,0,.54-.09.45-.09.45a.529.529,0,0,0,.54.54c.54-.54,0-1.08,0-1.62l2.61-1.08c.54-1.62-1.08-.63-1.08-1.71l1.71-1.71a3.683,3.683,0,0,0,1.17-1.53c0-1.08,0-1.62.54-1.62.54-.54,1.08,0,1.62-.54.09-.54,1.17-.99.09-1.08a2.249,2.249,0,0,1,1.62-.45c3.15,2.25,5.58,5.49,9.36,6.75,1.8.72,3.87-1.62,4.41-2.07L90-19.71c-3.15-1.17-5.58-4.86-8.19-6.57-1.08-.54-2.7-1.17-2.7-2.25.63-.54,1.17-2.7,1.71-2.07a10.268,10.268,0,0,1,1.35-1.71c-.99-1.62,1.08-.99,1.71-2.07-.54-1.62,1.62-1.8,1.71-2.88-.54-.09-.54-.63-1.08-.63l-.54.54-.54-.54C83.43-38.43,83.43-38.43,83.97-38.43Zm21.6-8.01c-2.88-2.07-4.41-2.43-5.76-1.8,0,1.08.72.27.72,1.35l-.99.18-.36.36c.45.09.99,0,.99.54-.54.63-.45,1.17-.9,1.08-.54,1.62.9-.54,1.44.54-.63.54-1.08.63-1.44,1.08l.9,1.08c.09.54-.45.09-.36.54l.36.54c.27.81-.18.27-.36,1.08h.9c-.45,0-.81,1.17-1.44,1.17a21.063,21.063,0,0,1,.18,5.13l-.54.45c-.45.54.54,1.17.54,1.17a2.963,2.963,0,0,0-.54,1.71c1.08,1.08-.36,1.62.63,2.25l-.99-.09c0,.54,1.35.99.99,1.71-.27.45-1.44-.27-.45,1.62,1.44.99-1.35,1.62.09,3.24-.45,1.53.99,3.24.09,4.41l.45.45c-.45,2.25.99,3.24.54,5.4h.45c.99,0,.36,1.53.81,1.98a3.183,3.183,0,0,0,3.87,0l-.63-.99a1.1,1.1,0,0,0,.9-1.17,7.17,7.17,0,0,1-.99.09l1.44-1.71c0-.54-.9.63-1.44-.45l1.44-.63c-1.44-.99.9-1.62-.09-2.16l-.45.09c1.44-1.71.9-2.79.9-4.95l-.45-.09c-.54-.45.45-.45.45-1.08,0-.54-.09-1.62.45-2.07-1.44-1.08.36-2.25-.99-3.33l.45-.54.45.09.45-.63c-.45.09-.72.09-.72-.45l.27-.36-.54-.27c.09-.54-.45-1.26.09-1.26h.63l.27-2.16c-1.98.09.36-1.26-1.08-1.8l.99-.54c0-.54.36-2.16-.54-2.7l.45.09c-.9-.72.45-1.8-.45-1.8l.36-.45c.54-1.17-.36-1.17-.45-2.25.45.09.45-.45.45-.45,0-1.08-.99-2.25-1.89-1.62-.09-1.08.45-.54.9-1.17Zm71.82-6.57a3.561,3.561,0,0,0-2.34-.81c-4.14-.09-8.55,2.88-13.23,2.97-.54,1.71-2.7.72-3.6,1.98-.99,1.35.81,2.79,1.17,3.24a5.529,5.529,0,0,0,4.68-.72c.99,0,1.98-1.08,2.43.09l-.54.45a8.574,8.574,0,0,0-2.07,4.68c-.99.27-.09,1.71-.9,2.16-.09,2.34-3.87,1.89-4.32,3.24-1.35-.54-2.7.72-4.14,1.08-3.78.81-4.05,2.61-7.74,2.79-.45,0-.81-1.35-.81-1.71l.09-.63c.99-1.26-1.35-.9.54-1.8a4.8,4.8,0,0,1-.99-.36c.54-.63,1.62-1.26,1.08-2.16-.45.45-.45-.09-.45-.09.45-.36.45-.81,1.35-1.17-.81-.9.54-1.89-.81-1.89.54-.81,1.35.54,1.35-.36h-.45l.54-.45-.45-.45.45-.9c-.45.54-.45.09-.45.09l.54-.81c-.72-.18-1.08-2.16-1.98-1.53-1.08,1.26-3.15,3.6-2.79,5.04a3.722,3.722,0,0,1-.99,1.71c0,.36-.54.72,0,.81l-.54.63c-.09.36-.54.9.45,1.53-1.62,1.62-1.17,3.51-1.26,4.77l-.36.27-.18.81c1.35,1.08-.18,2.88-.27,4.14,1.98.09,5.22.72,7.11.27.45-.72,1.89-.27,2.25-.72a.88.88,0,0,1-.81-.9l.54.09c2.16,0,4.23-1.08,6.48-1.89l.09-.45c1.44.09,1.53-2.07,3.24-1.53a4.1,4.1,0,0,0,2.07-1.62c1.44.09.81-.36,1.26-.81.99-.45.54.45.99.9-1.98.45.36,1.35-.54,1.71.45,0,1.35-.72,1.8.18-.09.45-.45-.09-.54.36a.654.654,0,0,0,.45.45l.45.18.54-.18a12.884,12.884,0,0,1,2.07.27l.81-.54h-.45c-.45,0-.9-.09-.9-.54a6.976,6.976,0,0,1,4.14.18v-.36c.99,0,1.89-.99,3.24-.9.99,0,1.26-1.44,2.25-1.35a16.293,16.293,0,0,0,2.07-.27l.54-.81h-.54l-.45-.45c1.62-1.17,1.53-2.34,1.53-2.34-5.04-2.34-7.29,2.97-12.24.99l.45-.45-.45-.45,1.08-.81-.54-.81.54-.36c-.45-.09-.45-.36-.99-.36,0-.9.99-1.17,1.44-1.71-.09-.45-.36-.9,0-.9,0-.36.45-1.35-.27-1.44.9-.09,1.26-1.71,2.16-1.71-.36-.9-.81-.45-1.17-.99.81-.27.9-.63,1.44-1.08.99-1.26.63-.36,1.98-1.26l-.36-.09c.36-.72,1.44-.45,1.44-.45a.866.866,0,0,0,.9-.63c.45,0,.72-.54,1.17,0-.45-.81.63,0,1.17-.81C177.84-51.3,176.94-52.65,177.39-53.01Zm-20.16-.18c-2.34-1.44-4.86-.18-6.75-.27L139.5-49.95c-.09.81-1.17,3.24-1.26,3.78,1.89,1.44,2.79-.72,4.32-.36l3.96-.9c1.98-1.35,4.41-1.17,6.39-2.07.45-.81,1.35-.72,1.89-.72.54-1.26,2.61.54,2.34-1.17Zm36.63,8.1c-.54-1.71-3.24-3.06-3.24-4.77a9.647,9.647,0,0,0-3.42.99c0,1.08-2.25,2.61-1.08,3.78v5.76c1.08,1.71.18,4.95.18,6.66,2.25,0-.63,1.71.54,2.25,0,1.71-1.71,2.88,0,4.59v.54c0,.63-1.17,2.34.54,2.34,0,1.71,0,4.5-.54,5.67,0,.54,1.8,1.71.63,2.34-1.08,1.08,0,1.71.63,2.25-1.71.54,1.08,2.25.54,3.42-1.17,2.25,1.08,2.25.54,4.59l2.52.18s.63-.09.63-.63l.36-.72c-.54-1.17,1.17-2.88-.45-3.96.54,0,.54-.63.54-.63.54-1.08,0-2.25,0-3.96a9.222,9.222,0,0,0-.54-4.05.529.529,0,0,1,.54-.54v-.54c.54-1.17-.36-2.88.18-4.05l-1.17-.54c1.71-.54,0-1.71,0-2.34,0-.54,1.17,0,1.17-.54,0-1.17-.54-.54-1.17-1.17l.63-.54c-1.17-1.17,1.71-1.71,0-2.88,0-.54,0-2.61,1.08-2.61l-1.08-1.17c.54-.54,1.71-.54,1.71-1.71-.63,0-1.17-.54-1.71-.54l.9-1.17c-1.17.09-1.08-1.53,0-1.71l.54-1.53c1.17-1.17-1.08-1.35.63-1.89l-1.17-.63A.529.529,0,0,0,193.86-45.09Zm-12.15,18.9c-3.78-.18-9.9,1.53-13.77,2.43-5.49,1.35-10.44,3.87-15.39,5.22-3.33,1.98-10.89,2.88-12.15,7.11.81,1.17,3.6,1.8,4.14,1.8l-.54-.54c1.08-.54,2.07,1.17,3.24.63-2.25-.45,1.35-.99,2.16-.99,1.17-.45,4.59-1.26,6.21-1.71.54-.54,1.17-1.08,1.17-1.62l.54.54c1.08-.99,1.8-.9,2.88-1.44,1.62.09,2.79-.9,3.33-.9l1.08.63c-.63.45-.63.99-1.17.99.54.54-1.08,1.44-.63,2.52.54,1.08-.09,2.7-.18,3.78a1.672,1.672,0,0,0,.54,1.08c-1.71.45-.09,1.62-.18,2.7.54.54,0,1.08-.63,1.62,2.16,1.17,1.53,3.33,4.14,4.5.54,0,2.88-.63,2.97-1.17l.54.09-1.53-2.25c.54-1.08-.99-2.25.09-2.7a1.073,1.073,0,0,1,.09-1.62c.54-.54-.54-.54-.45-1.08.54,0,0-.54,0-1.08a2.406,2.406,0,0,0,.63-1.62h-.54l1.17-1.08h-.54c1.08-1.53-.9-4.68,1.26-5.13-1.44-3.33,1.53-.9,2.79-2.97,1.53.63,2.16-.45,3.24-.99l-.54-.54a3.512,3.512,0,0,1,2.25-.45c.54-.99,4.68-.63,5.22-1.71l-1.08-.09,1.8-1.08-1.17-2.25ZM155.7-13.32c-.63.45-1.71.45-2.79.9C153.54-13.41,155.16-13.41,155.7-13.32Zm80.82-14.4c.36-1.26-.9-2.25-2.16-2.61-7.47,2.25-16.65,5.13-24.21,7.29-1.35.36-3.96-.18-4.95,1.53-.09.63-1.08,3.42.18,3.51a.543.543,0,0,1-.72.45l.09.81c.54.18.45.72,1.17.27,1.17-3.06,2.25,2.34,4.05.18l-1.17-.81h.54l.18-.54c1.8,1.08,2.34.09,4.23.45l-.81-.63,1.26-.45c1.17.81,2.43.54,3.78.09l-1.8-.27a3.623,3.623,0,0,1,3.06,0l.72-.54c1.08.9,1.35-.27,2.07-.81l-.36-.72c1.62.99,2.7-.72,3.6.72.45,1.26-1.35.45-1.44.99a6.13,6.13,0,0,1-1.35,2.34c-2.07,3.42-3.42,6.93-5.58,10.98-.72.45-1.44,1.53-.27,2.43l-.81.45c-.54,2.43-1.44,4.59.72,6.84,0,0-.27.63.36.72,1.08-.81,4.41-.72,4.41.72l-1.35.18c.99.9,1.98-.09,3.33-.54.45.81.45.81,1.08.9,1.8.27,3.24-.63,5.58.54a29.892,29.892,0,0,0,6.93-1.62c1.35-.99,3.69,0,5.04-.27l-1.17-.9c.99-.99,2.52.45,3.51-1.17a.785.785,0,0,0,1.17.18l-.54-.09c.27-1.26,1.35-.36,2.07-.81l-.54-.81c.63.18,3.69-.54,3.15-.63,0,0,.36-1.89.99-1.8,0-.54-.9-.9-2.25-1.17C240.48-3.96,236.07-.63,230.4-.45c-2.61.18-5.31.63-8.1-1.17.99-1.08-.18-1.89.72-2.88l.09-.63.72-.54c.9-1.17.27-1.26-.18-1.98a.881.881,0,0,1,1.26.18v-.54c-.54-.18.09-.63.72-.45,1.17-1.44-1.98-.72-.09-2.16l1.35-.36c-1.17-.72.27-1.8-.81-1.98l1.71-.27c-.09,0-.54-.18-.99-.9,1.35-.36,1.53-.99,2.79-.72l-.9-1.44c.45.45.9-.54,1.26-.36l-.45-.72c1.8-.18,1.62-2.79,3.6-2.97.63-2.52,2.52-1.53,3.96-2.61.27-.27.27-.72-.09-.63l-.99-.18-1.26-.36c.27-1.71,1.8.45,2.61,0l.09-.54c-.63-.27-1.17-.99-1.89-.54l-.54-.63a4.9,4.9,0,0,0,1.44-1.44ZM217.89-59.49c-.36-1.35-5.04-1.98-6.3-2.07.27,1.89-1.17,3.24-.81,4.68a12.216,12.216,0,0,0-.72,3.69c-1.53.9-.54,2.34-1.44,3.42l-.18.63c-.36,1.8-.54,4.05-.81,5.94l.54.09c-.09.54-.9.99-.9.99l.45.81c.45.72.36,1.26-1.08,2.25.63.18,1.35-.36,1.17.27.54.72-.18,1.26-.81,1.17.45,1.35,1.35-.45,1.8.36a1.735,1.735,0,0,1-.72,1.08c.99.81,1.8.27,2.79,1.26,1.35-.45,5.67,1.53,6.21-.9.63.18,1.44-.9,2.52-.18.72-.54,1.98-.18,2.07-.81.72-.54,1.35-.9,1.89-.18-.09-2.52,3.96,0,5.04-1.8,1.26-.27.18-1.08,1.35-.9.63.18,1.53,1.62,1.8.36a.994.994,0,0,1,1.26.36l.81-1.17c.63.09,1.17.81,1.8.99.09-1.17,1.98-.9,2.16-1.44-.63-.27-1.44.36-2.07.27v-1.35c-.54-.18-.81-2.07-.72-2.7l.72-.45a.623.623,0,0,1,.54.72l1.44-.81a14.566,14.566,0,0,0-4.86-1.62,67.119,67.119,0,0,0-17.37,4.05c-2.34-.36.18-3.15-.27-4.5,0,0-.45-.72.09-.63.36-1.26,1.08-1.8-.54-3.33,3.42-1.08-1.62-3.69,3.24-5.49-.99-.72.81-.99-.27-1.8Zm87.84,22.95c3.42-1.26,5.31-2.07,9.09-2.16,1.08.09,2.25-.9,3.33-.81.63-.99,2.25-.27,3.33-.72,1.62.18,1.71-.36,3.33-.18.63-.99,4.23-.45,3.87-2.97-1.08-.09-3.15-.9-4.23-.45a13.037,13.037,0,0,0-2.52-1.26l-1.17.27-1.08-.09a5.4,5.4,0,0,0-3.33.72c-1.44-1.8-2.97.18-4.5-.54-1.71.36-3.42,1.8-4.95.54.09-.54,1.08-.45.63-.99l-.45-.63c0-.54,1.08-.45,1.08-.45.72-.99-.36-1.08-.9-1.17.63-.99,1.62-.81,2.25-1.26l-.45-.63-.54-.54c.63-.54.63-.54.09-.54l.54-.54c.18-1.08.18-1.62-.9-1.71l.63-.45.09-.54.54-.54c.18-.99.27-1.17-.27-1.8l.63-.45.09-.54c0-.54.09-1.08.63-1.08l.99-1.17,1.26-3.15c-.45-1.35-3.06-1.8-6.66-.99a53.868,53.868,0,0,1-7.11,1.53c-2.61-.27-5.04,1.62-7.74,1.35-1.71,1.44-6.12,1.71-8.37,2.52,1.26,1.98,4.59,2.25,6.66,2.61,2.25-1.35,5.04-1.44,7.83-2.25,1.62.18,3.78-1.71,5.85-.45a3.756,3.756,0,0,0-.9,2.25c-1.08.45.36,1.53-.81,2.43-.63,1.08.36,1.71-.81,2.16.54.54-.09,1.62.36,2.16l-.63.63c-.72,1.53.9,1.44,1.44,1.98-.63.54-1.08-.36-1.71.09.54.09.45,1.17.36,1.71l-.54-.09.54.63-.63.45a.536.536,0,0,1,.45.63c-1.08.36,0,.54-.63.99-1.62-.18-2.25.72-3.87.54-2.25.9-4.95.63-6.21,2.07-4.95.54-9.27,2.88-13.23,4.59-1.62.36-3.96,1.8-3.15,4.05,1.17-.45.99,2.43,1.53,2.52.18-1.62,1.71-.36,2.79-.27.72-1.53,2.07-1.44,2.7-2.43,1.08.63,6.03-1.44,5.49-1.08,2.79-.27,5.22-2.7,8.37-1.8l.09-.54a13.592,13.592,0,0,0,3.87-.99c-.09,1.17-.45,2.52-.45,3.6-.54.54,0,.54.54,1.08-1.62.54.54,1.62-1.08,2.16-.54,1.08.54,1.08.54,2.16,0,0-.54,0-.54,1.08,1.62,0,0,1.62,0,1.62l.54.54c0,.54.54,1.62-.54,1.62.54.54,3.6,0,4.14.54l.54-1.08c0,.54,0,.54.54.54-.54-.54.54-2.16,0-2.7a.529.529,0,0,1,.54-.54c-.09.09.27-1.53-.54-1.08,0-.54,0-.54.54-.54-1.62-2.16,2.7-2.16.54-3.78a19.186,19.186,0,0,1,1.08-5.4c-.54,0-.09-.45-.09-.99Zm9.99,16.02c-1.08,0-2.07-1.17-2.7-1.08a130.894,130.894,0,0,0-21.96,5.04c-1.62.36-4.41,0-4.41,2.16,2.16.54,4.68,3.96,7.38,2.88-.54,0-1.08,0-1.08-.54.54-.54,1.62,0,2.16-.54.54,0,2.16-1.62,4.32-1.08,2.7-1.62,4.68,0,7.92-1.62.54.54,1.62,0,2.16,0,.54.54-.54,1.08.54,1.62-1.08,1.62-.54,2.52-1.08,4.14-1.08,1.08.54,2.16-.54,2.7,0,2.7-.9,5.22-.36,6.84-1.08,1.62-.54,3.24-.54,5.4,0,0,.54-.54.54,0l-.54.54c-1.08-.54,0,1.62-1.08,1.62.54.54.54,1.62,1.62,1.62-.54,1.08-1.08,0-1.62,0,0,.54-.54,1.62,0,1.62s0,.54,0,.54c.54.54,2.16,0,2.16,1.08,1.62.54,3.51-.54,4.59-.54l-1.08-.54c.54-1.08,1.62-1.08,1.62-2.16a1.035,1.035,0,0,1-.54-1.62h.54l-.54-.54c.54-.54.54-.54,1.08-.54V5.94c-.54-1.62.54-2.7-.54-3.78.54,0,.54-.54,1.08-.54l-1.08-.54.54-.54c0-.54.54-1.08-.54-1.08l.9-2.52c-.54-.54.54-1.08.54-1.08l-.54-1.08a1.161,1.161,0,0,0,1.08-1.08c-1.62-.54-.54-2.16-.54-2.16-.54,0,0-.54,0-.54a.529.529,0,0,1,.54.54c0-1.08.54-2.16,0-3.24,0-.54.54-.54,1.08-.54-.54-.54-.54-1.08-1.62-1.62l1.62-1.08c-.54,0-.09-.99-.9-1.08a1.158,1.158,0,0,0,.9-1.08l-.54-.54.54-.54Zm37.35-22.5c-1.89.27-3.42-2.97-4.14-3.96-1.44-.63-3.87-2.07-6.03-.09l-.54.36-.54.45-.54.54-.72-.09-1.44,2.97-.72.27c-.18.45-.45.99.09,1.17l-1.26.09.81.9c-.99-.45-1.71-.18-1.98.27l-.18.54c-.27.45.18.72.45,1.44-.18.45-.9.72-.9.72l-.27.54a7.309,7.309,0,0,1-.45.9l.72.99c-.9.72-.9-.45-1.17,0-.18.54.54,1.44.09,2.43l-.54-.18v1.8c.27.72.72,2.16,1.89,2.07.99,1.71,5.22,2.88,7.38,3.33l-.18-.81c.72-.27,1.71.18,1.98-.27.9-.72,2.43-2.43,3.33-3.15-.27-.72.72-1.44,1.44-1.71-.54-.27.18-.54.18-.54,2.43-1.26.63-3.87,3.33-4.41l-.54-1.44c1.44-.45,0-2.97.99-3.69-.36-.27-.36-.45-.81-.63Zm-4.41,1.35c-.9.72-.72,1.44-.9,1.89l.45.27-.18.45c-.54-.18-.72.27-1.26.09-.63,1.44-1.26,4.32-2.97,5.31l-.18.54c-.54-.27-.72.27-1.26,0-.18.45.09.72.18.72-1.44.54-2.16,1.8-3.42.63a4.289,4.289,0,0,0,.54-3.69l.72-.18c-.72-.99,1.17-1.26.99-1.98l.72-.27-.27-.72c1.44.72.36-.81,1.26-1.53a6.616,6.616,0,0,0,2.16-1.98c.45.18.63-.18,1.08,0v-1.17C347.04-42.3,348.12-43.11,348.66-41.67Zm25.92,17.19c-1.53-.63-3.69-.63-5.31-1.26-1.08.45-3.42-.18-3.51,1.44-3.24.36-9.72,3.42-13.05,4.32l.63.63L347.94-18c.45,2.25,3.15,2.88,4.14,3.51h.54l-.09.27.36.45.27-.36,1.62-.27c1.71-.45,6.48-.63,7.65-1.62,1.62.63,1.53-2.16,3.06-.99l-.54.54c1.53.63-.72,2.7.9,3.33-.09,1.62-1.8,2.16-.18,2.79a6.907,6.907,0,0,0-.72,3.42c.54,0,0,0-.09.54,2.88-.45.45,1.62.99,2.7-.09,1.17-.45,1.17.63,1.8l-.27.36-.72.63c.54.54-.27,1.08-.27,1.08.99.63,1.08,1.71,2.25,1.17-.63.54-1.71.99-1.17,1.08,0,.54-.54-.09-1.08.45,1.08.09.81,1.26,1.98,1.8l-1.26,1.08c1.8-.45,4.41,1.17,6.03.72-1.08-.09-1.17-.36-2.25-.99,1.71-.99,1.26-.18,2.34-.09-.54-1.62,1.89-4.41.18-5.04.63-.45,1.17-.45,1.26-.99h-.54c0-.54.81-.54.81-1.08-.99-.63.36-2.25-.18-3.33.63-1.62-.54,0-1.08-.63,0-1.08,1.17-.99,1.17-.99l.09-.54c.54-.54,0-.27,0-.81.09-.54-.9-2.79.18-3.24,0-.54-1.08-.09-1.08-.63.09-1.08.63-1.53,1.17-.99.09-1.08-1.71-.09-2.16-1.17a2.471,2.471,0,0,0,1.71-.45c0-.54.63-1.08.09-2.25,1.71-.99-.99-2.34.72-3.33l-1.53-1.17C373.95-21.69,374.58-23.4,374.58-24.48Zm1.35-29.07c-.72-2.07-4.05-3.06-5.76-3.96-.54,0-2.07.36-2.07.9l.63,1.08-.63.81.54.54h-.54c-.36,1.71.27,3.24.45,4.86-.99,1.17.18,3.06-.81,3.69l.54.45c.09,1.08-.27,3.33-.09,4.95-.54.54-.45,1.62.72,2.07-.54.63-.54.63-1.08.63a2.861,2.861,0,0,0,1.26,2.07,9.918,9.918,0,0,0-1.62.18c.09.99.63.99,1.17.9.09,1.08-.99.63-.99,1.17.18,1.08,2.07.99,2.07,1.53a6.875,6.875,0,0,0,3.51-1.8c1.17.99.99-1.17,1.62-.63l.45-1.17c-.63-.45-1.17-.99-1.71-.9a2.026,2.026,0,0,1,2.07-1.26c-.09-.54-.09-.54-.63-1.08a1.159,1.159,0,0,1,.99-1.17c-.09-.45-1.17-.36-1.17-.9.45-.63.99-.63.9-1.17h-.54c1.08-.63.45-1.08.45-1.62h-.54c.45-.54.45-1.08.99-1.17-2.34-1.44.72-4.77-.54-6.84C374.94-52.38,374.85-53.46,375.93-53.55Zm56.16,2.07c-2.97-4.95-10.8-3.87-12.06-2.79l-3.96,6.03c-.63.72.81,1.44-.63,1.44a11.09,11.09,0,0,0-1.35,3.51.765.765,0,0,1,.63,1.35l-.63-.63c-.81.72.63.63.09,1.44h-.72c-1.44.54,0,1.98.72,2.61h-.72l.72.63-.27,1.17c1.17,0,.99,3.6,3.15,3.6l2.7.18c4.23-.81,9.36-2.88,12.51-5.76-.72-.54,0-.63-.72-.54-1.35-.63.72-1.44,1.53-1.44v-.63c.54.63,1.17-.81,1.17-.81-.72-.72-1.26-2.25-.72-2.97h1.26c-.45-.09.09-.63-.54-.63-.72-.63,0-.63,0-1.35,0,0-1.26,0-1.35-.72h1.26l-1.26-.72.54-.81c0-.45-.54-1.62-1.35-1.53Zm-4.05,5.22c-.54.63-1.98.72-2.7,2.79l.72.63c-2.07.72-2.97,3.69-5.04,4.32l.27-.72s-.27-.72.45-.72c-.72-.09-1.08-.54-1.62,0,0-1.26,2.7-2.88.63-3.51,1.44-2.07,5.22-8.82,6.75-2.79Zm33.66,4.14a.788.788,0,0,0,.09-1.08c-1.62-.54-5.76-3.33-6.84-1.71l.54,1.17h-.54c0,2.16-.27,2.79-.27,4.95l.81,3.24c-2.16.54,0,2.7-1.62,3.24l1.08.54c0,.54-.72.72-.72,1.26l-.36,1.71a.529.529,0,0,1,.54.54.474.474,0,0,0-.54.45v.54a.529.529,0,0,0,.54.54s-.54.54-.54,0c-.54,1.08,0,1.08.54,1.62l-.54.54c0,1.08-1.35,1.53-2.97,2.61-.54,1.08-2.61.36-3.15,1.44-.54,0-1.98,0-2.52,1.08-2.16.54-4.86,1.62-6.48,2.16-1.62,1.62-2.43,0-4.05,1.08-2.7,1.08-4.77,1.71-6.93,2.79-1.62,1.08-1.08-1.08-2.16-1.62l1.08-1.08c0-1.08-1.08-1.08-.54-1.62.27-.27.36-.27.45-.18-.36-1.53,1.08-1.98.63-3.51.54-.54.54-.54,1.08-.54-1.62-.54-.54-1.53,0-2.07h-.54l.54-1.08v-.54a9.9,9.9,0,0,0,.36-3.96c-1.08-1.08-3.96-1.08-5.04-2.16-.54,0-2.43.9-2.43,1.44.54.54,1.62.54,2.16,1.62-1.08,0-1.08,1.62-2.16,1.62l1.08,1.08c-.54.54-1.62,0-1.08.54-1.62,1.08-.09,2.52-1.71,3.6a23.389,23.389,0,0,0-.54,2.7c0,1.08,1.08,0,1.62,1.08,0,.54-.54,0-1.62.54,0,0-1.08.54-.54,1.08l.54-.54c1.08,1.62-1.08.54-1.08,1.62l1.08,1.08h-.54c.54,1.62-1.62,1.62-1.62,2.7,1.08,0,1.62,0,2.16-.54l-.45,1.08-1.71.54a3.894,3.894,0,0,1,2.16,1.98c0,1.08-1.62,0-1.62,1.62,2.7,2.16,6.84.54,10.08,1.08a28.337,28.337,0,0,1,6.21-2.16c2.16-2.7,6.21-1.08,8.91-3.78,1.08,1.08,2.7-.54,3.24-1.08,1.62,0,5.4-2.43,5.94-2.43l.54-.54c.54-.9,1.71.72,1.62.54v.54l-.54.54h.54l-.54.54c-.54.54.54,1.08.54,1.08,0,.54-.54.54-1.08,1.08,0,.54,1.08.54,1.08.54,0,1.08-.54.45-.54,1.53h.54c.54,1.62-.54,2.16,0,3.78.99,0,0,1.53,1.44,1.62-.09.09-.36.18-.36.54,1.08.54,1.08,1.08,1.08,1.62,1.62-1.62,4.59,2.16,5.67,1.62l-.18-2.16c0-1.08-.9-1.62-.9-2.7,0-.54,1.08,0,1.08-.54-.54,0-.54-1.08-1.08-.54-1.08-1.62,1.62-1.08,1.08-2.7-.54,0-1.08.09-1.08-.45-.54-1.08.54-.99,1.08-1.53l-.54-1.08h.54v-1.08c-.54,0-.54-1.08-1.08-1.08.54-1.08,1.08.54,1.08-.54.54-.54,1.08-2.61,0-3.15,1.44-6.12-1.08-1.98.36-8.73-2.16,2.16,1.26-2.97-.9-4.05l1.17-.81c-1.08-1.53.36-2.25-.63-3.42l.54-.54,1.08-1.35-.54-.63a.529.529,0,0,1,.54-.54c-1.08-.54-.54-1.62-1.62-1.62l1.08-.54C463.32-41.13,462.24-41.58,461.7-42.12Zm38.16,14.58c1.53,1.17,3.15,2.34,4.23,1.53.45-.45,3.06-2.25,3.42-3.33l-.18-4.23,1.17-.45c-.45-.09-1.17-.18-1.17-.72.81-1.17.81-1.17.27-1.8a.665.665,0,0,0,.63-.63c.18-.63-1.08-1.26.18-1.8l-.54-.54.81-2.88c.09-1.26-.99-2.52.81-2.97-.45-.63-.36-1.17-.99-1.89l.72-.45-.45-.72,1.17-.54c-1.08-.72.27-2.97-.99-3.06a.623.623,0,0,1,.72-.54l-.54-1.26c.54.09,1.17.18,1.17-.36.09-.63-.99-.72-.99-1.35-9.18,2.07-25.29,1.8-27.36,7.65-.09,1.17,1.53,1.89,2.07,2.79,1.26-.45,3.06-.18,3.78-1.17,2.52-1.08,5.67-.72,7.11-1.17,1.8-.36,1.62-.18,3.42-.63h-.99c-.54-.72.54-1.26.54-1.26,1.17.72,2.43,1.62,3.15.45.54,0,0,0,.09-.54a1.734,1.734,0,0,1,1.62.72v.54c.45,1.26-1.35,1.71-.27,2.52-.63.54-.72.45-.9.99.45,2.61-.09,2.16.09,4.77-1.8.99.9,3.06-1.44,3.96.99,1.35.27,3.15.63,4.86C500.67-29.79,501.21-28.53,499.86-27.54Zm-14.22-4.05a2.629,2.629,0,0,1-2.16-.72c-.54,0-2.97.09-3.51.18.09,1.53-.99,3.6-.99,5.22-.45,1.08-.45,1.44-.9,2.52-.54,1.08.45,1.89-.45,3.51.63,1.08.09,2.7.63,3.78-.45.63,1.17.45.09,1.08l.81.09c.09,1.08,1.71.63,1.26,1.8l3.6-.18c-.54-.54-.99-1.26-.45-1.35h.54a.529.529,0,0,0-.54-.54c.99-.99-.72-2.61-.18-3.78h.54l-.45-.54h.54c-.09-.54-.63-1.08-.72-1.62,1.62,0-.54-1.8.54-1.89v-1.08c.99-.54-.63-1.44.36-1.98.63,0,.63-1.08.09-1.08l.45-.54C483.66-29.88,486.9-30.06,485.64-31.59Zm10.53,5.49c1.35-1.98-3.42-3.87-4.32-4.95-1.62.27-1.71,2.34-1.89,3.42.45,1.17.18,3.33-.36,3.24,1.62.18.36,1.98,1.44,2.07l-.63.45a1.8,1.8,0,0,1,.45,1.17,1.535,1.535,0,0,0-.54.99c.54-.45.45.09.45.09l-.18,1.08s.45,1.62-.09,2.16l.45.54h-.54l-.09.54c.36,2.16-2.16,1.35-3.96,2.16-1.62-.18-4.23-.54-5.49.99a18.872,18.872,0,0,0-9.72,2.7c-.63.99-.54,1.71.45,2.34,1.62.18,3.15,2.16,4.77,2.34,2.34-.81,4.41-.09,6.75-1.44,2.52,1.44,4.14-2.79,7.11-.72l.09-.54a16.647,16.647,0,0,1,5.4-.54c.54.54.54.54,1.08.18l-.54-.18c.18-.54.18-.54.72-.9,1.53.72,3.24.36,5.4.63v-.54c.72-.54,1.8-1.44,2.88-.81l-.72.99,1.8-.81c.09-1.08,3.15-.27,4.32-.63l-.54-.72c.63-.36,2.34.9,2.52-.72.54,0,.99.54,1.44.72,0,0,.9-.54,1.35-.45,0,0,1.62-.9.54-1.08,0-.54-.45-1.17.18-1.62-1.44-1.26-4.5-1.71-6.66-1.44-.18,1.08-2.34-.27-1.98.9-.54-.09-1.35-.18-1.17-.72l.81-.45c-1.08-.09-2.43.27-3.51.09-1.26,1.08-3.24-.36-5.04.54-1.08,0-.9.27-1.89-.36l.63-.99c-.54-.09-.54-.36-.54-.9.09-.54-.27-1.89.27-1.89a4.382,4.382,0,0,0,.09-1.08c1.71-.27-1.44-2.07.36-3.51l-.9-.54.54-.54A1.443,1.443,0,0,0,496.17-26.1Z" transform="translate(0.27 63.763)" fill="#fff"/></svg>