<svg xmlns="http://www.w3.org/2000/svg" width="622.71" height="78.977" viewBox="0 0 622.71 78.977"><path d="M20.97-28.08c-1.53-3.24-6.66,0-7.56,1.17.18,1.08-.72,3.24-1.62,5.04a10.448,10.448,0,0,1-1.71,4.5c.18,2.16-2.16,4.95-.9,6.93l.27,1.08c.45-.54,1.08.45,1.53-.63,1.8,1.98,4.41-1.98,6.12-1.08l-.45.63.09.54c1.71.36.36-1.17.9-1.17.63.45,2.79-2.16,3.33-2.79,2.07-.72.63-3.87,2.79-3.51,0-.54-.54-.54-.63-1.08l.54-.54-.63-.45c.54-.09-.18-1.62,1.44-1.8-.63-.54-.18-1.62-1.26-1.53C26.28-24.84,21.24-26.46,20.97-28.08Zm-1.98,6.66c0,.54-1.08,1.35-.99,2.43a21.021,21.021,0,0,0-2.25,4.14c-.54.09-.72-.36-1.26-.27v-.63l-.54.09a14.153,14.153,0,0,1,.99-3.15c-.99-.27,1.62-2.79,2.61-4.32C17.55-22.86,18.81-22.32,18.99-21.42ZM15.84-9.81A10.653,10.653,0,0,1,11.61-9l.09.27a2.516,2.516,0,0,0-1.62.99l5.22-.9C16.11-9,16.2-9.99,15.84-9.81Zm3.15-5.04,1.08.18-1.44.36c-.45.63-1.08.09-1.62.18Zm.09-41.94c0-2.16-3.06-.36-4.14-.9a4.852,4.852,0,0,0-2.43,1.08c-4.32-.54-1.08,3.78-2.7,5.4h.54L9.27-50.13l.54.54c-1.08,0,.54,1.71-1.08,2.25,1.62,0,0,1.08,1.08,1.08-1.08.54,0,1.62,0,2.16,1.08,1.08-1.08.9-.54,2.52,0,0,.54-.54.54,0,.54.54,0,1.08-.54,1.08,0,.54,0,.54.54.54l-.54.54c0,.54.54.54,1.08,1.08l-.54.54c-.54,0-1.62,1.08-2.16,1.08C5.31-35.28,2.7-35.37.54-34.11A5.486,5.486,0,0,0-.81-32.04c1.8,1.44,2.88.99,5.04.72,2.16,1.08,5.4-.99,7.56.09h1.08c.36-.36.45-.18.54-.09.09-.99,1.62-.99,1.08-2.07.54-2.16,3.24-.54,3.78-2.16,1.08,0,2.16-1.08,3.78-.54l-1.08-.54c1.08-.54,2.7-.54,3.78-1.62v.54l.54-.54a13.737,13.737,0,0,1,3.78-1.08c.45-1.35,2.97-.63,3.33-1.62.18-.54.18-1.44.27-1.62-2.7-1.62-5.22-1.17-7.92-.63l-7.29,2.88c-.54,0-.54-.54-1.08-.54v-2.52c1.62-2.16.54-6.39,1.62-8.55.54-.54-1.08-1.62.54-2.16v-.54C18.54-55.17,18-56.25,19.08-56.79Zm16.11,24.3c.45,1.17.18,3.24.27,4.14.09-1.08-.45,2.34.09,2.88.36,2.34,4.14.9,5.13,1.98.54-.45,0-.54-.54-1.08l.72-.54-1.08-.54c.09-1.62.54,0,1.08,0a5.712,5.712,0,0,0-.45-2.52c0-.54.09-1.08.63-1.08,0-.54.18-2.97-.36-3.51l1.08-.18c.99-.36,1.17-.99,1.71-1.44-1.08-.18-1.08.36-1.62-.18.09-.54-.45-1.17.09-1.08.54.63,1.35-1.35,1.89-1.26,1.71-1.53,2.34-.63,4.05-2.16.54.09,1.44-.45,1.44.63l-.63,1.08a2.843,2.843,0,0,1,.27,3.06c.99,1.26-.99,4.05,1.62,4.86-.45-.09-.54.45-1.08.45.99,1.71-.99,4.23.99,6.03.54.54-.54,1.08-1.17,1.53,0,.54.99.72,1.53.72,1.62.09,4.32-.63,4.95-1.62-.54-.63-.54-.63-.45-1.17.54-.45.45.63,1.08.09.09-1.08,1.26-3.15-.9-3.33.09-1.08,1.08.09,1.71-.36,0-1.08-.81-1.98-.81-2.52-.99-.72.9-2.52-.18-3.06a1.825,1.825,0,0,0,.63-1.08c-.54-.54.27-3.06-1.35-3.24.09-1.08,1.17-.36,1.17-.9-.99-1.26.63-2.7-.9-3.42,1.71-.36-.45-1.71.72-2.07,0-.54,0-.54-.54-1.26,1.17-.36-.81-2.16.81-2.52l-.54-.18.54-.36.63-.54c.54-1.08-.54-.54-.45-1.62-1.08-.18-.63-5.04-.99-5.67l.09-.63c-.45-1.53-4.59-2.88-5.67-1.89,0,0-.18.99.36,1.17a2.559,2.559,0,0,0-1.17,1.44c.45.54.09,1.8.09,1.8l.09,2.25-.18,3.96c-.54.54-2.16,0-2.16,1.08-.72.54-1.08.99-1.62.99-2.16.36-2.07,1.89-4.14,0,.54.09.36-.45.9-.36-.45-1.17-.27-4.41.27-4.86-.99-1.8-4.05-4.5-6.21-4.41a1.911,1.911,0,0,0-.72.99c0,.54-.99,2.43.09,3.15l-.63.45a1.25,1.25,0,0,0,1.08,1.17,2.377,2.377,0,0,0-.72,1.53c0,.54-.54,0-.54.54l.45,1.44-.54.54c.99,1.17-.63,2.7.81,3.42a4.142,4.142,0,0,0-1.17,1.98l.54.09c0,1.08-.18,2.43.18,3.06,0,.54-.54.45,0,.54v.54C35.37-34.74,35.37-33.3,35.19-32.49ZM48.87-15.75a10.442,10.442,0,0,0-4.41-2.7c-.9.99-2.52-.36-4.14,1.08,0,.45.54.45.54.45-1.62,1.17-3.78,3.15-4.23,4.77a2.143,2.143,0,0,0,1.53-.45c.45,0,.18.45.63.99l-.63.54c-.54-.54-1.53.45-1.53-.54-1.62.99-1.17,2.16-2.07,3.24l.9.9c0,.63-.45-.54-.9,0-1.08,2.25-2.07,4.23-2.07,6.84h.45C31.95.9,35.19,2.52,36.09,3.06c2.7-.54,6.12.9,7.74-.63l-1.08-.54a1.521,1.521,0,0,1,1.08-.54c0-.54.18-.72.63-1.08.45,0,.45.09.45.54.72-.45.81-.72.18-1.35,1.17-.45,2.61-.54,3.69-1.08L47.7-2.7c-.45-1.62,1.62-1.08,2.79-2.07H48.78c0-1.08.54-.45.54-1.08l.27-.63c1.44-1.53.18-1.8,1.26-2.61l-.99-.99.99-.54c-.99-.45-.99-1.53,0-1.53C49.86-14.22,49.32-14.22,48.87-15.75Zm-4.95,3.42c.99,1.44.09,2.88.54,3.78-.45.54-.9.9-.9,1.53l.54.36A12.539,12.539,0,0,1,42.12-2.7c-1.44.9-1.71,1.26-3.24.72-.36,0,0-.09-.36-.54.36,0,.27-.45.27-.81-.9.36-.36-.18-.9-.18.54-.9,1.44-.9,2.43-1.62-.54-.36-.99-.9-.54-1.44l.54-.36.09-.63c-.99-.99-.63,0-1.53,0h-.81c.9-.45,2.16-.99,2.16-1.89.99,0,1.35-.63,1.8-.99-.45-1.08-.45.54-1.08.09,0-.99,1.08-1.62,1.44-2.16,1.53-.54.63,1.26,1.53.36ZM38.43,3.6c-.63-.36-1.17.09-1.62.18C37.26,3.87,38.07,4.5,38.43,3.6ZM94.14-66.15c-.09-1.17-1.98.27-2.61-.36-9,2.7-15.66,3.6-25.83,3.78-.63.63-1.17,3.42-1.08,4.77,10.8-.27,18.63-2.07,29.7-4.95l-.72-2.43Zm12.96,40.5c.09.27-.63-3.69-1.98-3.6-6.12.45-9.36,2.79-15.93,3.96-1.98.18-.81-1.98-2.16-1.8,1.98-.81.45-2.34,1.62-3.78-1.53-1.89,2.43-2.88.27-4.68l.63-.72-.72-1.26c3.15-.9-1.35-4.86,1.98-5.76l-1.44-1.17c-2.07-.45-5.4.54-7.38,1.35-3.87.27-5.13,2.43-8.55,1.35-.81-1.35-1.53-2.79-.27-2.88-2.07-1.89,1.71-1.8-.36-2.97.63-.72-.09-1.98,1.17-2.16l-1.26-.54c2.52-.9,1.08-2.43,2.97-3.87.63-.09.54-.81,1.17-.81-.81-1.89.63-.63,1.17-1.98-3.24-3.06-7.2,2.25-9.72,5.22a34.756,34.756,0,0,0-2.07,6.84c.81,1.89-2.07,4.5,0,5.76l-.54.63c0,.63,2.34,1.17,3.6,1.71.81.72,2.7-.81,3.33.45a65.178,65.178,0,0,1,10.26-1.89c.81.54.81,1.17.27,1.98-.54,1.98-1.26,3.6-1.08,6.3-1.17,1.44-1.08,2.43-1.53,4.41h.63c-1.98.72-.54,1.98-1.08,2.7-3.15,2.25-7.29,1.8-10.62,2.7-.54,1.44-2.43,4.14-.99,5.4a2.219,2.219,0,0,0,2.61-.27c2.07,1.26,4.68.36,5.94-.45,4.5-.99,9.36-2.79,13.23-3.78,1.89-1.44,5.94-1.08,8.46-1.98,3.96-.99,5.13-1.62,8.37-2.61ZM87.75-11.61c0-.63-1.35-.54-1.98-.45-5.31,1.98-8.1,8.01-9.36,15.3l1.35.27-.63.72a1.908,1.908,0,0,0,1.53,2.52l-.81,1.44c.72.54,3.24,1.53,4.41,2.16.18.27,4.77.27,5.04-.36,1.98.54,3.96-2.79,4.95-3.51l.72-.63-.81-.63c2.7-.9.45-3.33,2.34-4.86l-.09-.72L93.06-1.53l1.8-2.07c-.18-1.35-1.44-1.89-1.62-2.52-1.35-1.26-4.05-4.32-6.21-5.4ZM87.3-4.95a1.228,1.228,0,0,1,.18,1.98s-.63.72.09.63c.72,1.35-.99,3.69-.9,5.67-1.17,1.44-2.43,1.35-3.69,1.44l-.54-1.08.27-.9c.72-1.35-1.98-3.15,1.26-4.14-.81-1.89.27-3.33,1.44-4.77C85.41-5.4,87.84-6.3,87.3-4.95ZM128.97-52.2c0-2.16-3.06-.36-4.14-.9a4.852,4.852,0,0,0-2.43,1.08c-4.32-.54-1.08,3.78-2.7,5.4h.54l-1.08,1.08.54.54c-1.08,0,.54,1.71-1.08,2.25,1.62,0,0,1.08,1.08,1.08-1.08.54,0,1.62,0,2.16,1.08,1.08-1.08.9-.54,2.52,0,0,.54-.54.54,0,.54.54,0,1.08-.54,1.08,0,.54,0,.54.54.54l-.54.54c0,.54.54.54,1.08,1.08l-.54.54c-.54,0-1.62,1.08-2.16,1.08-2.34,1.44-4.95,1.35-7.11,2.61a5.486,5.486,0,0,0-1.35,2.07c1.8,1.44,2.88.99,5.04.72,2.16,1.08,5.4-.99,7.56.09h1.08c.36-.36.45-.18.54-.09.09-.99,1.62-.99,1.08-2.07.54-2.16,3.24-.54,3.78-2.16,1.08,0,2.16-1.08,3.78-.54l-1.08-.54c1.08-.54,2.7-.54,3.78-1.62v.54l.54-.54a13.737,13.737,0,0,1,3.78-1.08c.45-1.35,2.97-.63,3.33-1.62.18-.54.18-1.44.27-1.62-2.7-1.62-5.22-1.17-7.92-.63l-7.29,2.88c-.54,0-.54-.54-1.08-.54v-2.52c1.62-2.16.54-6.39,1.62-8.55.54-.54-1.08-1.62.54-2.16v-.54C128.43-50.58,127.89-51.66,128.97-52.2Zm3.6,32.58c-1.71-1.62-5.58-2.07-6.12-4.86-2.79-1.08-6.66,2.43-8.37,4.05h1.17l-1.17.54c0,2.25-2.16,2.97-2.16,4.68h.54c-.54.54-.54.54-1.17.54.63,1.08-.54.54-.54,1.62l.54.54c-1.62,1.71,1.71,2.25,1.17,2.79H117c.54,0,1.08,1.44,1.62,1.98.63,1.08,4.23-.54,3.69,1.08,1.62,0,3.24-1.08,4.95-.54,2.25.54,2.79-1.71,3.87-1.71l3.06-3.87c-.54,0-.54,0-.54-.54l.54-.54c-1.08,0-1.08-1.08-.54-1.71C133.11-16.65,133.65-18.45,132.57-19.62Zm-6.39,2.79c.72,0,.81.81,1.35,1.44-1.62.54,1.08,1.62-1.08,2.16l.54.54-3.06,1.44a3,3,0,0,1-1.98-.9c0,.63,0,.63-.54.63l.27-1.17c-.54-1.08-.81-.54-.81-.54-.54-.54,0-.54.54-.54-.54-1.62.9-1.98,1.98-3.6C124.47-17.37,124.56-16.83,126.18-16.83Zm28.71-26.28c.54-2.7-3.15-4.86-5.31-5.94-.54.54-2.61,1.62-2.61,2.7.54.54,1.62.54,2.16,1.08-.54,1.08-1.62,1.08-1.62,2.16h1.08c0,.54-1.08,1.08-1.08,1.62.54.54,1.08-1.08,1.08.54-2.7.54,0,3.24-1.08,4.32,0,.54-.54,1.62.54,1.08.54,2.7-1.08,5.31-.54,8.01-.81,1.08.18,0,.54,1.08-1.08,1.08,0,3.78-1.08,5.4h.54c1.08,1.08-.54,0-.54.54,0,1.08.54,2.16.54,3.24h-.54c0,.54,0,2.52.54,2.52l-1.08.54h.54a.529.529,0,0,1,.54.54c-.54.54-1.08,0-1.62.54,0,.54.54.54.54,1.08h1.08c-2.16.54,0,3.6-1.08,4.14.54.54.54,1.08,1.53,1.08-.45.09-.45.63-.45,1.08l.45.18a1.56,1.56,0,0,1-.45,1.44h.54c.54,0,1.08,0,1.08.54,0,0,2.25,1.44,2.79.9l-.54-.54,1.89-1.44h-.54l.54-1.08c-.54-.54-1.08.54-1.08-1.08,0-.54,1.08-.54,1.62-.54,0-.54-1.08-.9-1.62-1.44,0-1.08,1.08,0,1.08-.54-1.08-.54.54-1.62,0-1.62l-.54.54c.54-1.08.54-2.97,1.08-2.97-.54-.54-.54-.54-.54-1.08h1.08l-.54-.9c0-.54.54-.54,1.08-1.08h-.54a1.161,1.161,0,0,1-1.08-1.08h1.08l-1.08-1.08h1.08l-.54-.54c.54-2.7,3.24-1.08,4.86-2.16,1.08-.54,1.89-1.62,2.97-1.62.54,0,3.24,0,4.86-1.62h-.54l1.08-.54,1.08-2.7c-.54,0,0-.54-.54-.54.54-1.08-1.08-1.44,0-1.98-3.78-.54-5.67,2.16-9.45,1.62-.54.54-1.62,1.08-2.16.54a.529.529,0,0,1,.54-.54l-1.08-.54c-1.08-1.08,1.08-.54.54-1.62-.54,0-.54,0-1.08-.54l.54-.54h-.54l1.08-1.62c.54-.54-1.08.09,0-.45l-1.08-1.53h.54v-.54l.54-.54h-.54l.54-.54s-1.08,0-1.08-.54l.54-.54c.54-.54.54-2.16-.54-2.16l.54-.54C154.89-41.49,156.51-42.57,154.89-43.11Zm49.23,15.39c.36-1.26-.9-2.25-2.16-2.61-7.47,2.25-16.65,5.13-24.21,7.29-1.35.36-3.96-.18-4.95,1.53-.09.63-1.08,3.42.18,3.51a.543.543,0,0,1-.72.45l.09.81c.54.18.45.72,1.17.27,1.17-3.06,2.25,2.34,4.05.18l-1.17-.81h.54l.18-.54c1.8,1.08,2.34.09,4.23.45l-.81-.63,1.26-.45c1.17.81,2.43.54,3.78.09l-1.8-.27a3.623,3.623,0,0,1,3.06,0l.72-.54c1.08.9,1.35-.27,2.07-.81l-.36-.72c1.62.99,2.7-.72,3.6.72.45,1.26-1.35.45-1.44.99a6.13,6.13,0,0,1-1.35,2.34c-2.07,3.42-3.42,6.93-5.58,10.98-.72.45-1.44,1.53-.27,2.43l-.81.45c-.54,2.43-1.44,4.59.72,6.84,0,0-.27.63.36.72,1.08-.81,4.41-.72,4.41.72l-1.35.18c.99.9,1.98-.09,3.33-.54.45.81.45.81,1.08.9,1.8.27,3.24-.63,5.58.54a29.892,29.892,0,0,0,6.93-1.62c1.35-.99,3.69,0,5.04-.27l-1.17-.9c.99-.99,2.52.45,3.51-1.17a.785.785,0,0,0,1.17.18l-.54-.09c.27-1.26,1.35-.36,2.07-.81l-.54-.81c.63.18,3.69-.54,3.15-.63,0,0,.36-1.89.99-1.8,0-.54-.9-.9-2.25-1.17C208.08-3.96,203.67-.63,198-.45c-2.61.18-5.31.63-8.1-1.17.99-1.08-.18-1.89.72-2.88l.09-.63.72-.54c.9-1.17.27-1.26-.18-1.98a.881.881,0,0,1,1.26.18v-.54c-.54-.18.09-.63.72-.45,1.17-1.44-1.98-.72-.09-2.16l1.35-.36c-1.17-.72.27-1.8-.81-1.98l1.71-.27c-.09,0-.54-.18-.99-.9,1.35-.36,1.53-.99,2.79-.72l-.9-1.44c.45.45.9-.54,1.26-.36l-.45-.72c1.8-.18,1.62-2.79,3.6-2.97.63-2.52,2.52-1.53,3.96-2.61.27-.27.27-.72-.09-.63l-.99-.18-1.26-.36c.27-1.71,1.8.45,2.61,0l.09-.54c-.63-.27-1.17-.99-1.89-.54l-.54-.63a4.905,4.905,0,0,0,1.44-1.44ZM185.49-59.49c-.36-1.35-5.04-1.98-6.3-2.07.27,1.89-1.17,3.24-.81,4.68a12.216,12.216,0,0,0-.72,3.69c-1.53.9-.54,2.34-1.44,3.42l-.18.63c-.36,1.8-.54,4.05-.81,5.94l.54.09c-.09.54-.9.99-.9.99l.45.81c.45.72.36,1.26-1.08,2.25.63.18,1.35-.36,1.17.27.54.72-.18,1.26-.81,1.17.45,1.35,1.35-.45,1.8.36a1.735,1.735,0,0,1-.72,1.08c.99.81,1.8.27,2.79,1.26,1.35-.45,5.67,1.53,6.21-.9.63.18,1.44-.9,2.52-.18.72-.54,1.98-.18,2.07-.81.72-.54,1.35-.9,1.89-.18-.09-2.52,3.96,0,5.04-1.8,1.26-.27.18-1.08,1.35-.9.63.18,1.53,1.62,1.8.36a.994.994,0,0,1,1.26.36l.81-1.17c.63.09,1.17.81,1.8.99.09-1.17,1.98-.9,2.16-1.44-.63-.27-1.44.36-2.07.27v-1.35c-.54-.18-.81-2.07-.72-2.7l.72-.45a.623.623,0,0,1,.54.72l1.44-.81a14.566,14.566,0,0,0-4.86-1.62,67.119,67.119,0,0,0-17.37,4.05c-2.34-.36.18-3.15-.27-4.5,0,0-.45-.72.09-.63.36-1.26,1.08-1.8-.54-3.33,3.42-1.08-1.62-3.69,3.24-5.49-.99-.72.81-.99-.27-1.8Zm94.05,44.1c1.26-.63,1.98-.63,1.98-1.98l1.17-.18a4.411,4.411,0,0,0-3.15-1.98c-1.26.63-5.94.9-5.94,2.88,1.35,1.26,2.61-1.35,4.5,0a45.487,45.487,0,0,0-5.13,1.89c-.63.63,0,.63.63,1.98h-1.89c0,1.26-1.98,2.52-1.35,4.5,0,0,.72,0,.72.63-1.98,0-.72,1.26-.72,2.61l.36-.27.36.27c-1.98.63-1.53,5.67-2.16,7.56h.63c1.98.63,4.59-1.89,5.85,0,1.98-1.26,2.61,0,4.5,0V1.26c.72.63,1.35.63,1.35,1.26a2.314,2.314,0,0,0,1.89-.63h-.63c.63-2.61,3.24.63,4.5-1.26a27.567,27.567,0,0,0,5.49-2.52c1.53-1.08,3.15-1.08,4.41-2.34l-.63-.63c.63-.72,1.26,0,1.89,0v-.72l1.17-1.53.81-.99c-.99-1.35-3.24-.18-4.5-.18-9.09,3.24-3.42.81-11.88,4.23-1.26,0-2.97,1.26-4.86,0,0-.63,1.26-1.26,1.26-1.89-.63-.72-1.89,0-1.89-1.35.63-.63,1.26,0,1.89-.63,0-.63-.63-.36-1.26-.99.63-.72,1.26.63,1.89,0v-.72c-.63.72-1.26,0-1.89-.63,0-1.26,1.89.63,2.61-.63l-1.35-.63c-2.52,0,.63-1.26-.63-1.98a2.408,2.408,0,0,1,1.98-.63v-.63C280.8-14.13,280.17-15.39,279.54-15.39ZM259.65-59.22c-.99-.72-5.31-.99-6.48-.72-.09.54.18.72.09,1.26,0,0-.54.54-.54-.18l-1.8,6.57.54.72c-1.89.36-.36,1.62-1.53,2.07l.45.45c-1.17.54-.27,1.8-1.35,1.62.45.63-.72,1.44-.18,1.53.45.81-.18,1.17-.18,1.17l.99.81c-.63.45-.63.45-1.17.27.45.63,1.08.27,1.44.9-.09.45-.54.54-.63,1.17-2.61,2.34-6.3,2.79-9.81,3.87,1.71,1.89,5.04,2.79,7.38,2.61,8.64-2.07,17.01-4.41,25.74-6.93.72-.36,2.61-.99,2.88-3.06a25.658,25.658,0,0,0-13.14.72c-2.79-.36-4.32,3.24-7.02,1.71,1.17-.36-.36-1.62.72-1.35l.18-1.08c.09-.63,0,0-.45-.72l1.17-.99-1.08-.09c.09-.54.09-.54.63-.45l.81-.54h-.63a13.006,13.006,0,0,1,1.8-4.86c.18-1.08.72-2.61.45-3.78,0,0,.54-.54,1.08-.36-.45-.63-.99-.72-.9-1.26C259.65-58.05,259.56-58.68,259.65-59.22Zm10.08,28.8c-1.89-1.26-5.13-2.43-6.93-3.6-2.43-1.26-4.95,2.25-6.75,1.53-1.17.63-1.26,1.98-.09,1.98v.54c-1.89,0-1.89,1.89-1.98,3.15.63.45-1.8.99,0,2.34h-.63l.63.63a.617.617,0,0,1-.63.63l-.09.54c.54.72.72-.54,1.89,0-.63,1.17-1.35.72-1.89,1.17-.63,1.26,1.26,1.89,1.8,2.43l-1.35,1.26,1.98-.09c.54,1.26,3.06,2.07,3.06,3.33,1.26,0,2.88,1.26,3.51-.54,1.89.63,4.32-1.35,5.58-2.07-.45-1.8,1.08-2.79,1.62-3.42a.614.614,0,0,1,.45-.63h-.45a1.1,1.1,0,0,1,0-1.71c-.45-.63-1.08-.63-1.08-1.26l1.8-.63a.561.561,0,0,0-.63-.54c0-.63-.54-.63,0-1.26l.18-1.17c.54-.54-.63-1.44-1.26-1.98ZM290.7-49.59a28.237,28.237,0,0,0-2.25-3.24c-1.17.54-5.13,1.89-5.85,4.05.54,0,1.62.09,1.71-.45.45.09.99.63.45.63a2.168,2.168,0,0,1-1.62.36c0,.54-1.26,1.62-.18,1.62,0,1.08-.18,3.24-.18,4.32-.09,1.08-1.26,2.61.36,2.7-.63.54-1.17.54-.63,1.08,1.08.54-.18,2.16-.18,2.16,2.16.72-.54,1.08.99,2.16l-.72.45.63.09c0,1.08-1.17,3.24-1.17,4.32h1.08l-.63,1.08.45.54-.63.54h.63c1.98,2.34,4.77-.9,6.3-.27,2.79-.45,1.17-.63,3.33-.99,1.62.54,1.62-2.16,3.15-1.44,1.89-1.35,3.15-2.16,6.66-1.17-.36-.81-.54-1.53.54-1.26a15.114,15.114,0,0,0-.36-2.7c-5.85-2.61-6.3-.81-11.88,1.08-.54-1.08-1.62-.27-1.44-1.89.54,0,.54-.54.54-1.08.63-1.53.18-1.35-.36-2.43l1.17-.99a10.1,10.1,0,0,0-1.98-1.89h.54a4.753,4.753,0,0,0,.72-2.61l-.54-.09.54-.45c-.54-.54-.45-1.62-.45-2.16h.54c.63-.99-.99-.63-.45-1.62C289.8-49.86,290.61-48.51,290.7-49.59ZM262.35-25.83c0,1.17,1.44.63,2.07,1.17l-2.07.45c.72.72,0,.27.54.9l1.44.63c-1.98,0-.72,1.35-1.44,2.07l.45.45c-.72,0-1.35-.45-1.35,0-.09.36.63.63.72.63-.54.18-1.08.63-1.53.63-1.98-1.71-.36-3.33-1.98-4.59.45-.09,2.07-1.35.45-1.89h-.54s0-.45-.63-.45h-.63c.63-.63,2.52,0,2.61-1.98l.63-.54c-.63-.54-.63-1.08-1.17-.54l.9-1.08c3.24.72.27,2.16,2.07,4.14Zm20.43,8.28h-.09c0,.09,0,.18.09.18Zm50.58-27.27c-2.7-1.08-7.56.09-9.72,1.17l1.62.54c0,.54-2.07.45-2.07.45-2.07-1.62-5.04,1.8-6.57,1.8.45.54-1.08,1.08-.54,1.08.99,1.08-.36,1.71.18,2.25l1.35,2.07c-.54.54-1.53,0-1.53,1.08.99,1.08,3.51,0,4.59,1.08a1.672,1.672,0,0,0,.54-1.08c-.54,0-.54-.54-.54,0l-.54-.54v-.54c0-1.62,2.43-.72,2.97-2.34,1.08,0,2.88-1.08,3.96-.54.54,1.08.54,1.08-.54,1.62,0,1.62-.54,3.78,0,5.4a10.011,10.011,0,0,1-1.08,3.78l1.08,1.08h-.54c0,3.69-1.62,7.38-1.08,11.61h.54c.54.54,2.16,0,2.16,1.62,1.53-1.62,1.89.54,4.05,0,2.61-1.62,7.65-2.97,10.35-5.04.54-.54.99-1.62,1.53-1.62v-.54c2.16,0,.99-2.25,1.53-2.79h-.54s-1.35.36-1.26-.9c-.18-.36-.27-.36-.81-.81-3.24.54-5.58,1.98-8.82,3.6a1.668,1.668,0,0,1-1.8-.99l1.08-.54-1.08-.54c0-1.08.54-.99,1.08-1.44-.54-.54-1.08-1.44-.54-1.98,1.08,0,0-.72.54-1.8-.54,0,0-1.62-.54-2.16a.529.529,0,0,0,.54-.54c0-.54,0-1.08.54-1.08-1.62-.99-.54-2.61.45-3.15-1.53-1.62.54-3.24-.99-3.78l.54-.54c0-1.08.45-1.17-.54-1.71C332.91-42.57,334.35-43.74,333.36-44.82Zm-18.09,3.24c-.54-1.62-4.77-1.62-5.85-1.08-.54,1.08-1.08,1.62,0,2.16l-.54,2.79v1.89a1.241,1.241,0,0,1,.54.9c0,.54-.54.54-.54,1.08a.658.658,0,0,1,0,.99.529.529,0,0,0,.54.54c0,.54,0,.54-.54.54-.54.54,0,1.08.54,1.62l-.54.54c.54.54-1.08,1.62.54,2.16-.54.54,0,1.62-.54,1.62.54.54,0,1.53.54,1.53,0,.54.54,1.62,0,2.16l.54,1.08-.54.54c1.08,1.62.54,5.13,2.07,5.67l-.54.54c.54,1.62,2.16,1.08,2.7,1.62a.529.529,0,0,1-.54.54c0,.54,2.79.63,4.32,0-.54-.54,0-1.08,0-1.62s-1.08-1.08-1.62-1.08c2.07,0,.54-2.43,1.08-2.97-1.62-1.62,0-4.32-2.16-5.94h1.08c-.54-.54-.54-1.53-1.08-2.07l.54-.54a1.672,1.672,0,0,1-.54-1.08h.54v-.54c0-.54-.54,0-1.08-.54,0-.54,1.08-.54,1.08-1.08s0-1.08-1.08-1.62c0-.54.54-.54,1.08-1.08-1.08-.54.54-.99-.54-.99l.54-1.08c-1.08-1.08.54-5.58-1.08-6.66Zm42.12-6.21c-1.71-.45-3.96-1.98-5.49-1.35,0,1.08.99-.09.99.99l-1.08.18-.36.45c.54,0,1.08-.09,1.08.45-.54.63-.45,1.17-.99,1.17-.45,1.62.99-.63,1.62.45-.54.54-1.08.63-1.53,1.17l1.08.99c.09.54-.54.09-.45.54l.54.54c.27.81-.27.27-.45,1.08h1.08c-.54,0-.99,1.08-1.53,1.17a23.488,23.488,0,0,1,.27,5.76l-.54.54c-.45.54.63,1.08.63,1.08a1.9,1.9,0,0,0-.45,1.62c1.17.99-.45,1.62.63,2.16h-1.08c.09.54,1.62.9,1.17,1.62-.27.45-1.62-.18-.36,1.62,1.62.99-1.53,2.61.18,4.14-.45,1.62,1.26,3.15.27,4.32l.54.45c-.45,2.25,1.26,3.24.81,5.4h.54c1.08-.09.09,1.08.63,1.53a6.187,6.187,0,0,0,4.23-.09l-.54-.54a1.1,1.1,0,0,0,.99-1.17,7.531,7.531,0,0,1-1.08.09l1.53-1.71c0-.54-.99.63-1.62-.45l1.62-.63c-1.71-.99.9-1.71-.18-2.16l-.54.09c1.53-1.8.9-2.79.81-4.95h-.54c-.54-.45.54-.54.45-1.08,0-.54-.09-2.52.45-3.06-1.71-.99.36-2.25-1.26-3.24l.45-.54h.54l.54-.63c-.54.09-.81.18-.81-.36l.27-.45-.63-.18c0-.54-.54-1.08,0-1.08l.72-.09.18-2.16c-2.16.18.45-1.08-1.17-1.53l1.08-1.53c-.09-.54.36-2.16-.72-2.61h.54c-1.08-.54.45-1.71-.63-1.62l.45-.54c.54-1.17-.54-1.08-.63-2.16a.529.529,0,0,0,.54-.54c-.09-1.08-2.25-2.16-3.24-1.53-.09-1.08,1.44-.54,1.98-1.17Zm41.22-18.36c-.09-1.17-1.98.27-2.61-.36-9,2.7-15.66,3.6-25.83,3.78-.63.63-1.17,3.42-1.08,4.77,10.8-.27,18.63-2.07,29.7-4.95l-.72-2.43Zm12.96,40.5c.09.27-.63-3.69-1.98-3.6-6.12.45-9.36,2.79-15.93,3.96-1.98.18-.81-1.98-2.16-1.8,1.98-.81.45-2.34,1.62-3.78-1.53-1.89,2.43-2.88.27-4.68l.63-.72-.72-1.26c3.15-.9-1.35-4.86,1.98-5.76l-1.44-1.17c-2.07-.45-5.4.54-7.38,1.35-3.87.27-5.13,2.43-8.55,1.35-.81-1.35-1.53-2.79-.27-2.88-2.07-1.89,1.71-1.8-.36-2.97.63-.72-.09-1.98,1.17-2.16l-1.26-.54c2.52-.9,1.08-2.43,2.97-3.87.63-.09.54-.81,1.17-.81-.81-1.89.63-.63,1.17-1.98-3.24-3.06-7.2,2.25-9.72,5.22a34.756,34.756,0,0,0-2.07,6.84c.81,1.89-2.07,4.5,0,5.76l-.54.63c0,.63,2.34,1.17,3.6,1.71.81.72,2.7-.81,3.33.45a65.179,65.179,0,0,1,10.26-1.89c.81.54.81,1.17.27,1.98-.54,1.98-1.26,3.6-1.08,6.3-1.17,1.44-1.08,2.43-1.53,4.41h.63c-1.98.72-.54,1.98-1.08,2.7-3.15,2.25-7.29,1.8-10.62,2.7-.54,1.44-2.43,4.14-.99,5.4a2.219,2.219,0,0,0,2.61-.27c2.07,1.26,4.68.36,5.94-.45,4.5-.99,9.36-2.79,13.23-3.78,1.89-1.44,5.94-1.08,8.46-1.98,3.96-.99,5.13-1.62,8.37-2.61ZM392.22-11.61c0-.63-1.35-.54-1.98-.45-5.31,1.98-8.1,8.01-9.36,15.3l1.35.27-.63.72a1.908,1.908,0,0,0,1.53,2.52l-.81,1.44c.72.54,3.24,1.53,4.41,2.16.18.27,4.77.27,5.04-.36,1.98.54,3.96-2.79,4.95-3.51l.72-.63-.81-.63c2.7-.9.45-3.33,2.34-4.86l-.09-.72-1.35-1.17,1.8-2.07c-.18-1.35-1.44-1.89-1.62-2.52-1.35-1.26-4.05-4.32-6.21-5.4Zm-.45,6.66a1.228,1.228,0,0,1,.18,1.98s-.63.72.09.63c.72,1.35-.99,3.69-.9,5.67-1.17,1.44-2.43,1.35-3.69,1.44l-.54-1.08.27-.9c.72-1.35-1.98-3.15,1.26-4.14-.81-1.89.27-3.33,1.44-4.77C389.88-5.4,392.31-6.3,391.77-4.95Zm52.02-50.49c-2.7-1.08-7.65.09-9.81,1.17l1.62.54c0,.54-2.07.45-2.07.45-2.16-1.62-6.21,1.89-7.83,1.89.54.54-1.08,1.08-.54,1.08,1.08,1.08-.36,1.71.18,2.25l1.44,2.07c-.54.54-1.62,0-1.62,1.08,1.08,1.08,3.6,0,4.68,1.08a1.672,1.672,0,0,0,.54-1.08c-.54,0-.54-.54-.54,0l-.54-.54v-.54c0-1.62,3.6-.72,4.14-2.34,1.08,0,2.88-1.08,3.96-.54.54,1.08.54,1.08-.54,1.62,0,1.62-.54,3.87,0,5.49a10.012,10.012,0,0,1-1.08,3.78l1.08,1.08h-.54c0,3.78-1.62,7.47-1.08,11.79h.54c.27.36.9.27,1.44.45l-.09.18.09-.09a1.035,1.035,0,0,1,.72,1.08c1.62-1.62,1.98.54,4.14,0a24.14,24.14,0,0,0,5.94-5.58c.99-.9,1.44-1.53,2.34-2.25.54-.54,1.08-1.62,1.62-1.62v-.54c2.16,0,.81-1.98,1.35-2.52h-.54c-.54,0-.36-.54-.36-1.08,2.16.54.63-2.16,2.16-1.8-2.43-2.79-4.05.36-5.67.36,0,.54,1.08,0,1.08,1.08-2.25.36-4.05,2.88-5.85,4.77-.54.09-1.98,2.07-2.43.09l1.35-.9-.81-.63c0-1.08.54-.99,1.08-1.53-.54-.54-1.08-1.44-.54-1.98,1.08,0,0-.72.54-1.8-.54,0,0-1.62-.54-2.16a.529.529,0,0,0,.54-.54c0-.54,0-1.08.54-1.08-1.62-1.08-.54-2.34.54-2.88-1.62-1.62.54-3.24-1.08-3.78l.54-.54c0-1.08.54-1.17-.54-1.71C443.34-53.19,444.87-54.36,443.79-55.44Zm-19.44,4.77c-.54-1.62-4.86-1.62-5.94-1.08-.54,1.08-1.08,1.62,0,2.16l-.54,1.08v1.89a1.241,1.241,0,0,1,.54.9c0,.54-.54.54-.54,1.08a.748.748,0,0,1,0,1.08.529.529,0,0,0,.54.54c0,.54,0,.54-.54.54-.54.54,0,1.08.54,1.62l-.54.54c.54.54-1.08,1.62.54,2.16-.54.54,0,1.62-.54,1.62.54.54,0,1.62.54,1.62,0,.54.54,1.62,0,2.16l.54,1.08-.54.54c1.08,1.62.54,5.22,2.16,5.76l-.54.54c.54,1.62,2.16,1.08,2.7,1.62a.529.529,0,0,1-.54.54c0,.54,2.79.63,4.41,0-.54-.54,0-1.08,0-1.62,0-.45-.9-.99-1.53-1.08,1.89-.18.36-2.52.9-3.06-1.62-1.62,0-4.32-2.16-5.94h1.08c-.54-.54-.54-1.62-1.08-2.16l.54-.54a1.672,1.672,0,0,1-.54-1.08h.54v-.54c0-.54-.54,0-1.08-.54,0-.54,1.08-.54,1.08-1.08s0-1.08-1.08-1.62c0-.54.54-.54,1.08-1.08-1.08-.54.54-1.08-.54-1.08l.54-1.08c-1.08-1.08.54-3.87-1.08-4.95Zm33.39,16.11-.09,1.53c-.54-.18.09.72-.9.45l1.35,1.89c-.54.54-.54.54-1.08.27a5.344,5.344,0,0,1,.27,1.62l-.54.36,1.08.27c-.63.45-.09,1.08.36,1.62-1.26.9.9,1.17-.18,1.62l1.26,1.44c1.08,1.17,4.23.27,5.31.54l-.45-.9.72-.45a.648.648,0,0,1-.54-.63l.54-.45c-1.53-.81-.27-.63-1.26-1.98l1.71-.81-.36-1.08,1.08-1.08h-.54l-.27-1.62c1.26-1.62,1.89-.9,3.06-1.35l-.9-.63v-.54s-.54-.54-.36-1.08c.54,0,1.08-.45,1.62-.45.72-.9,2.88-.9,2.34-.99l-1.08-.27,1.62-.54c-.54-.09-1.62,0-2.07-.09.63-.99,2.34-1.35,2.88-1.89a2.148,2.148,0,0,1-.99-.27l.54-.27c.54,0,1.08,0,.99.54v.54c1.53-.27.36-2.43,1.8-2.43-.18-.09.63-.45-.36-1.08.72-1.08,2.34-.81,3.42-.18.36.54-.72,1.08-.18,1.08l-.18,1.08a.727.727,0,0,1-.09,1.08c.9,1.71-.54,3.51.36,5.22-.27,2.07.63,2.79.36,4.95,0,0,.54-.45.54.09-.09.54-.09.54-.72.99,2.07,1.35-.27,2.7,1.8,3.51l-1.71.45a20.368,20.368,0,0,0-10.8,3.6c-1.89,1.35-4.95,2.16-6.66,3.6-.63.45-1.35,1.98-.9,2.52-2.43,1.98-4.59,6.75-6.12,9.81l.72.09-.54.99c-.72.99.36,2.79-.99,4.14,1.17-.36,1.62.81,2.16.9-.09,1.08-1.71.72-1.26,1.8l1.08.18c.99.09.36,1.08.9,1.17.99,1.26,3.33.45,3.87,1.08h.54c0-.54,1.08-.36,1.08.18l-.18.54h.54c.18-1.08.72-.99,1.26-.9,1.89,2.43,3.51-1.8,5.67-.9l-.54-.9-.27-.63V2.07c.54.09.81.81,1.35.9,0-.54.36-1.35-.18-1.98l1.08-.36-.18-2.7,1.08-.45c0-.54-.54-.54-.27-1.08l.54-.54c.09-1.08-.54.54-1.08-.54.18-1.08,1.26-1.08.9-2.16.54,0,.54-.54,1.08-.36.63-1.08-.9-1.08-.81-2.16-.54-.54,0-.54.72-1.53-1.44-1.8-1.35-3.33-3.24-5.22,1.17-.9.18-1.17,1.98-1.53v-.54c1.08.18,1.71-1.35,3.24-.63l-.54-.72,1.08.27.09-.54.72-.54c.27.54.36.63,0,.9a6.737,6.737,0,0,1,3.78-.9.784.784,0,0,1-.54-.72c1.26-.81,5.04,1.71,5.22.09a.472.472,0,0,1-.36-.63.648.648,0,0,1,.54-.63c-.45-.63.54-.54,1.08-.45.18-1.08-.9-1.53-.81-2.07l.63-.54c-.45-1.08.27-3.6.45-5.13-1.98-1.35.36-2.7-.45-4.41.54-.54.18-2.16-.27-2.79l.54-.45-.36-.63v-1.08l-.36-1.08c1.8-.9-.9-1.71.9-2.7l-.99-.54c-.54-.54,1.08-.54.54-.54l-.54-.54c.54,0-.36-1.08.72-1.08l-.99-.54,1.71-.99c-1.08-.09-1.08-.09-1.53-.63h.54V-49.5l-.36-.54-.45-.63,1.71-.18c-.36-1.62-3.06-2.34-2.79-4.5-1.08-.54-2.7.81-3.87,1.8.72,2.16-1.89,2.61-1.17,4.77a5.319,5.319,0,0,0-3.87,1.08c-3.69,3.42-6.03,5.85-9.18,9.09l-.9-1.17.63-.45a.529.529,0,0,0-.54-.54l.63-.54a.529.529,0,0,1-.54-.54l.63-.54c-.36-.54-.9-1.08-1.26-1.62v-.54l.54.54c.45.09.54-.45.54-.45l-.45-.54,1.17-.27c-.45-1.26-1.26.81-1.62-.27.09-1.08,1.62,0,1.17-1.26-.45-.09-.99-.09-.9-.63l.54-.54h-.54c0-.54.54-.54.72-1.08v-.54a1.083,1.083,0,0,1,.18-1.62c-.36-1.08-.81-1.26-1.17-2.43-1.53-.72-4.32-2.79-6.03-1.98a5.336,5.336,0,0,0,.63,3.96,3.368,3.368,0,0,1-.81,1.98c1.08.27-.09,1.08.9,1.89,0,.54-.72.9-.72,1.44,1.8,2.97-1.35,6.12.63,8.01.09,1.71.09,2.16-.27,2.7Zm7.29,23.04a.6.6,0,0,1-.63.45,2.76,2.76,0,0,1,.9,2.16l-.27.45a6.208,6.208,0,0,1,.18,3.33c-1.08.9.81,2.79-.9,3.6.27,1.8-1.35,2.07-2.43,2.52-1.8.81-1.62-1.35-2.52-1.89a1.449,1.449,0,0,0-.9-2.34l1.35-1.44-.54-.72s.54.18.54-.36l-.54-.18c.81-.36,1.35-.81,1.35-1.35l-.99-.72a1.983,1.983,0,0,0,.81-1.35c.27-.18.36-.18.45-.09-.27-1.08,1.08-1.98,2.07-2.88C463.59-12.78,463.95-11.07,465.03-11.52Zm87.75-49.5c-1.17-1.17-2.16-3.42-4.05-2.97-5.49,1.17-11.61,2.61-16.65,5.13-4.32,1.35-10.62,3.87-12.96,7.56l6.48,1.53c0-.45-1.71-.72-.9-1.8,1.8-.99,3.33-1.53,5.31-2.52,3.06-.81,4.86-1.98,7.92-2.88,2.43-.81,4.05-.54,6.66-1.98a1.478,1.478,0,0,1,1.53.63c.36,1.8-1.44,3.33-2.25,5.04-.09,1.17-.81,2.25-.9,3.42a27.838,27.838,0,0,0-3.78,7.29,13.234,13.234,0,0,1-1.44,2.43c.45.72-.09,1.17.36,1.89A4.194,4.194,0,0,0,536.67-36c-.9,4.05-3.96,3.96-7.11,5.4-3.6,2.16-8.55,3.78-9.9,7.47,1.89-.36,6.03,1.53,8.1-.63,1.08.09,1.35-1.08,2.43-.99,1.98-1.62,4.77-.72,6.93-2.79,2.97-.36,5.4-1.35,8.46-2.25,3.87-3.24,12.6-1.35,14.76-4.59-2.52-3.87-6.3-3.42-10.53-1.98-2.97-.9-5.04,2.52-7.83.54l1.35-2.34.81-.81,1.17-.45c-1.08-1.26.18-2.34.36-3.6,1.35-.99.36-3.6,2.79-5.13l-.54-.72c.63-.54.36-2.88,2.07-2.79-.45-.09.09-.54.09-.54.09-.54.09-.54.72-.45L550.26-54c1.17-.45.9-2.79,1.44-3.42C551.25-58.68,553.14-59.67,552.78-61.02ZM543.15-25.2c-.45-.72-1.44-1.89-2.43-1.89-1.8.36-3.15,3.24-3.42,4.5-.63,1.08.45,2.43-.9,3.42,1.17,1.26-.81,2.97.36,3.69.36,1.08-.36,3.6-1.08,4.59,1.62,1.44-.9,2.88.81,3.06l-.09.63c-.99-.72,0,.54-.63,1.08.63.63-.81,3.24.99,3.33l-1.17.54c-.18,1.08.45,1.8.9,1.8l-.54.63c0,.63.45.63.45,1.26-1.26.99-.18,2.34-.27,2.88l.99,1.26c-.72.63-.72.63-1.17.54.36.99.81,1.62.09,2.16.45-.09.81.9.81.9l-.63.45c-.09.63,1.62.81.9,1.89a7.874,7.874,0,0,0,6.21.36c.09-1.08-1.17-1.17-.45-2.34l.72-.45a14.686,14.686,0,0,0-1.53-3.15l.63-.54c.09-.63.18-1.71-.45-1.89,2.43-.99-.9-1.89-.72-3.6.54-.54,1.8.18,1.8-.45-.54-.72-1.08-1.8.18-1.71-1.8-.81.18-2.7-1.62-3.42a9.78,9.78,0,0,0,1.17.09c-.45-.63-.45-1.26.09-1.17l-.54-.09c.09-.63-.54-.72-.54-1.26l1.26.18c-.54-.72-1.17-.72-1.08-1.26a.828.828,0,0,1,1.26.09l-1.17-1.26c1.26-.54,0-.63.18-1.26l.54-.54c-1.08-.72.9-2.79-.9-3.06l.63.09s.72-.54.63,0l.09-.54c-1.26-.72,1.35-2.25-.45-2.34l.09-.63c-.45-1.98-.18-4.23-1.26-5.58.63.09.72-.45,1.17-.36ZM581.4-61.11c0-2.16-3.06-.36-4.14-.9a4.852,4.852,0,0,0-2.43,1.08c-4.32-.54-1.08,3.78-2.7,5.4h.54l-1.08,1.08.54.54c-1.08,0,.54,1.71-1.08,2.25,1.62,0,0,1.08,1.08,1.08-1.08.54,0,1.62,0,2.16,1.08,1.08-1.08.9-.54,2.52,0,0,.54-.54.54,0,.54.54,0,1.08-.54,1.08,0,.54,0,.54.54.54l-.54.54c0,.54.54.54,1.08,1.08l-.54.54c-.54,0-1.62,1.08-2.16,1.08-2.34,1.44-4.86,1.35-7.02,2.61a5.486,5.486,0,0,0-1.35,2.07c1.8,1.44,2.88.99,5.04.72,2.16,1.08,5.31-.99,7.47.09h1.08c.36-.36.45-.18.54-.09.09-.99,1.62-.99,1.08-2.07.54-2.16,3.24-.54,3.78-2.16,1.08,0,1.26-.45,2.88.09l-1.08-.54c1.08-.54,2.7-.54,3.78-1.62v.54l.54-.54c1.62-.54,1.98-.9,3.06-.9.45-1.35,2.97-.63,3.33-1.62.18-.54.18-1.44.27-1.62-2.7-1.62-4.5-1.35-7.2-.81-2.7,1.08-3.69,1.17-6.39,2.25-.54,0-.54-.54-1.08-.54V-47.7c1.62-2.16.54-6.39,1.62-8.55.54-.54-1.08-1.62.54-2.16v-.54C580.86-59.49,580.32-60.57,581.4-61.11Zm29.7,49.95c.45-.09,3.24-.54,3.69-2.16.63-.63,1.17-1.17,1.71-1.08-.54-.72-.54-.72-.54-1.26.09-.63-.9-1.8.72-2.34l-.54-.63.54.09a3.683,3.683,0,0,0-.36-2.52l.54-.36a11.971,11.971,0,0,1,.27-2.7s0-1.53.54-1.53c-1.08-.72-.36-2.34-.36-3.51a9.274,9.274,0,0,1-.81-4.32c1.08-.45-.45-1.8-.45-2.43,1.26-2.16.81-5.31-.09-7.11-1.08-.54-3.33-1.98-3.87-2.07-2.34,2.88-1.62,6.84-1.89,10.98.54.63-1.08,1.08-.09,2.34,0,0,.45.63-.09.63-.45-1.26-2.07-.18-2.61.27-5.49,1.44-5.76,2.61-10.8,3.96-1.62.63-4.14-.36-5.76,1.17a11.1,11.1,0,0,0,1.53,3.6c.54.63,1.53,1.8,2.61.81.63-.45.63-.45,1.08,0,.81-.99,2.07,0,2.61-.9a6.809,6.809,0,0,0,1.71-.63,4.781,4.781,0,0,1,3.6-1.35l-.54-.63c.81-.99,1.35-1.17,1.62-.45a.44.44,0,0,1-.54.45c.54.72.9,1.44.99.81l-.45-.72a1.581,1.581,0,0,0,.54-1.08,4.11,4.11,0,0,0,2.79-1.08l-.45-.54,1.53-.54c-.54-.63-.99.54-1.53-.09,0-1.17.99-.54.99-1.08.54,1.17,1.62.72,1.62,1.89-.18.54-.72,1.62.36,1.8-1.08.45,0,1.17-.09,1.71-1.17,1.08-.18,2.52-.81,3.69,1.62.09-.63,1.71.99,1.8-.54.63-.09,1.17-.63,1.8-.63,1.17.45,1.8-.63,2.34l.99.63-.63.54C610.2-11.7,610.38-11.52,611.1-11.16Zm-9.81-.63c1.26-.63,1.98-.63,1.98-1.98l1.17-.18a4.411,4.411,0,0,0-3.15-1.98c-1.26.63-5.94.9-5.94,2.88,1.35,1.26,2.61-1.35,4.5,0a45.485,45.485,0,0,0-5.13,1.89c-.63.63,0,.63.63,1.98h-1.89c0,1.26-1.98,2.52-1.35,4.5,0,0,.72,0,.72.63-1.98,0-.72,1.26-.72,2.61l.36-.27.36.27c-1.98.63-1.53,5.67-2.16,7.56h.63c1.98.63,4.59-1.89,5.85,0,1.98-1.26,2.61,0,4.5,0V4.86c.72.63,1.35.63,1.35,1.26a2.314,2.314,0,0,0,1.89-.63h-.63c.63-2.61,3.24.63,4.5-1.26a27.568,27.568,0,0,0,5.49-2.52C615.78.63,617.4.63,618.66-.63l-.63-.63c.63-.72,1.26,0,1.89,0v-.72l1.17-1.53.81-.99c-.99-1.35-3.24-.18-4.5-.18-9.09,3.24-3.42.81-11.88,4.23-1.26,0-2.97,1.26-4.86,0,0-.63,1.26-1.26,1.26-1.89-.63-.72-1.89,0-1.89-1.35.63-.63,1.26,0,1.89-.63,0-.63-.63-.36-1.26-.99.63-.72,1.26.63,1.89,0v-.72c-.63.72-1.26,0-1.89-.63,0-1.26,1.89.63,2.61-.63l-1.35-.63c-2.52,0,.63-1.26-.63-1.98a2.408,2.408,0,0,1,1.98-.63v-.63C602.55-10.53,601.92-11.79,601.29-11.79ZM585-28.53c-1.71-1.62-5.58-2.07-6.12-4.86-2.79-1.08-6.66,2.43-8.37,4.05h1.17l-1.17.54c0,2.25-2.16,2.97-2.16,4.68h.54c-.54.54-.54.54-1.17.54.63,1.08-.54.54-.54,1.62l.54.54c-1.62,1.71,1.71,2.25,1.17,2.79h.54c.54,0,1.08,1.44,1.62,1.98.63,1.08,4.23-.54,3.69,1.08,1.62,0,3.24-1.08,4.95-.54,2.25.54,2.79-1.71,3.87-1.71l3.06-3.87c-.54,0-.54,0-.54-.54l.54-.54c-1.08,0-1.08-1.08-.54-1.71C585.54-25.56,586.08-27.36,585-28.53ZM605.88-39.6c-.54-1.26-2.52-.81-4.14-.99-5.4,1.44-7.65,2.25-12.15,6.03-.09.54,0,.63,0,.63,0,.63-.54.54-.54.54l.18,1.44c.54.9,1.35,1.98,2.61,1.71l1.08-.99c.63-.81,1.35-.81,2.43-1.35a11.505,11.505,0,0,1,2.16-.72,21.549,21.549,0,0,1,4.95-1.8c-.45-1.98,3.24-1.17,4.41-2.34l-.36-1.44ZM578.61-25.74c.72,0,.81.81,1.35,1.44-1.62.54,1.08,1.62-1.08,2.16l.54.54-3.06,1.44a3,3,0,0,1-1.98-.9c0,.63,0,.63-.54.63l.27-1.17c-.54-1.08-.81-.54-.81-.54-.54-.54,0-.54.54-.54-.54-1.62.9-1.98,1.98-3.6C576.9-26.28,576.99-25.74,578.61-25.74Zm25.92,11.79h-.09c0,.09,0,.18.09.18Z" transform="translate(0.81 66.625)" fill="#fff"/></svg>