<svg xmlns="http://www.w3.org/2000/svg" width="48.519" height="39.821" viewBox="0 0 48.519 39.821"><g transform="translate(-67.568 -56.517)"><path d="M279.337,242.487c-3.166-1.349-6.611-2.008-8.748-5.008a8.218,8.218,0,0,1-.566-9.171,8,8,0,0,1,7.3-3.392c3.882.253,6.75,2.941,9.783,5.123Z" transform="translate(-201.306 -168.38)" fill="#af8e65"/><path d="M351.129,263.694c3.649,3.393,6.546,7.7,7.362,12.694a8.683,8.683,0,0,1-1.622,6.656c-6.228,8.2-19.87-3.9-24.036-9.011-1.555-1.906-2.841-4.031-4.674-5.7a24.578,24.578,0,0,0-4.235-3.031l7.636-12.23c1.9.863,3.9,1.36,5.868,2.159a44.861,44.861,0,0,1,13.7,8.458" transform="translate(-242.52 -189.478)" fill="#af8e65"/></g></svg>