<svg xmlns="http://www.w3.org/2000/svg" width="1766.832" height="997.805" viewBox="0 0 1766.832 997.805"><g transform="translate(30.011 -2131.443)"><path d="M3950.434,3129.248l-.446-1.432.757-.236.446,1.432Zm4.6-1.434-.447-1.432,3.824-1.2.448,1.431Zm7.633-2.39-.449-1.431,3.79-1.192.451,1.431Zm7.63-2.4-.452-1.43,3.824-1.21.453,1.43Zm7.632-2.418-.454-1.43,3.789-1.206.456,1.429Zm7.615-2.428-.457-1.428,3.822-1.224.458,1.428Zm7.629-2.447-.459-1.428,3.786-1.22.461,1.427Zm7.6-2.454-.462-1.427,3.819-1.239.463,1.427Zm7.623-2.475-.465-1.427,3.782-1.234.466,1.426Zm7.593-2.481-.468-1.425,3.815-1.253.469,1.425Zm7.613-2.5-.47-1.425,3.777-1.248.471,1.424Zm7.584-2.511-.473-1.423,3.809-1.268.475,1.423Zm7.6-2.533-.476-1.423,3.77-1.263.477,1.422Zm7.578-2.543-.479-1.422q1.905-.641,3.8-1.282l.48,1.421Zm7.585-2.563-.482-1.42,3.76-1.278.483,1.42Zm7.574-2.577-.485-1.42,3.792-1.3.486,1.419Zm7.565-2.593-.488-1.418,3.767-1.3.49,1.418Zm7.572-2.614-.491-1.417,3.78-1.312.492,1.417Zm7.541-2.622-.494-1.416,3.779-1.322.5,1.416Zm7.571-2.652-.5-1.415,3.766-1.327.5,1.415Zm7.514-2.653-.5-1.414q1.9-.674,3.794-1.347l.5,1.413Zm7.57-2.694-.5-1.413,3.75-1.342.506,1.412Zm7.515-2.695-.508-1.411,3.779-1.363.51,1.41Q4116.271,3073.88,4114.375,3074.563Zm7.537-2.725-.512-1.41,3.732-1.357.513,1.409Q4123.785,3071.158,4121.912,3071.838Zm7.518-2.74-.515-1.409q1.885-.69,3.758-1.379l.518,1.408Zm7.5-2.756-.52-1.407q1.885-.7,3.756-1.389l.521,1.406Q4138.813,3065.646,4136.928,3066.342Zm7.521-2.788-.523-1.406q1.874-.7,3.736-1.394l.525,1.405Q4146.325,3062.856,4144.449,3063.554Zm7.474-2.795-.528-1.4q1.888-.709,3.763-1.416l.529,1.4Q4153.812,3060.049,4151.923,3060.759Zm7.5-2.831-.532-1.4q1.863-.706,3.713-1.411l.534,1.4Q4161.291,3057.221,4159.426,3057.928Zm7.479-2.848-.536-1.4q1.874-.717,3.735-1.432l.538,1.4Q4168.781,3054.363,4166.906,3055.08Zm7.448-2.862-.54-1.4q1.881-.727,3.748-1.451l.542,1.4Q4176.236,3051.491,4174.354,3052.218Zm7.485-2.9-.545-1.4q1.86-.724,3.7-1.448l.547,1.4Q4183.7,3048.589,4181.838,3049.314Zm7.444-2.916-.549-1.4c1.24-.488,2.494-.983,3.727-1.471l.552,1.395C4191.778,3045.414,4190.523,3045.909,4189.282,3046.4Zm7.431-2.94-.554-1.394c1.239-.493,2.492-.992,3.724-1.485l.557,1.393C4199.207,3042.465,4197.953,3042.965,4196.713,3043.458Zm7.449-2.977-.559-1.392c1.229-.493,2.47-.993,3.691-1.487l.562,1.391C4206.633,3039.486,4205.391,3039.987,4204.162,3040.48Zm7.413-2.994-.564-1.39c1.235-.5,2.484-1.01,3.711-1.511l.567,1.389C4214.06,3036.476,4212.81,3036.985,4211.574,3037.487Zm7.4-3.02-.57-1.388c1.235-.507,2.484-1.021,3.711-1.527l.572,1.386C4221.457,3033.445,4220.208,3033.96,4218.971,3034.467Zm7.416-3.061-.575-1.385c1.221-.507,2.455-1.02,3.668-1.527l.578,1.384C4228.844,3030.385,4227.609,3030.9,4226.387,3031.406Zm7.383-3.081-.581-1.383c1.227-.515,2.467-1.037,3.685-1.552l.584,1.382C4236.239,3027.287,4235,3027.809,4233.771,3028.325Zm7.352-3.1-.586-1.381c1.232-.523,2.478-1.054,3.7-1.577l.589,1.379C4243.6,3024.166,4242.356,3024.7,4241.123,3025.221Zm7.376-3.151-.592-1.378c1.22-.525,2.453-1.056,3.664-1.58l.6,1.377C4250.953,3021.012,4249.719,3021.544,4248.5,3022.069Zm7.354-3.18-.6-1.375c1.215-.529,2.442-1.064,3.648-1.593l.6,1.374C4258.3,3017.823,4257.068,3018.36,4255.852,3018.889Zm7.324-3.208-.6-1.373c1.219-.538,2.451-1.082,3.661-1.619l.608,1.371C4265.629,3014.6,4264.4,3015.144,4263.176,3015.681Zm7.3-3.237-.612-1.37c1.223-.546,2.458-1.1,3.672-1.646l.615,1.368C4272.935,3011.343,4271.7,3011.9,4270.474,3012.444Zm7.314-3.289-.619-1.366c1.212-.549,2.438-1.105,3.64-1.654l.622,1.365C4280.228,3008.049,4279,3008.606,4277.789,3009.156Zm7.292-3.324-.625-1.363c1.2-.552,2.414-1.11,3.605-1.661l.63,1.362C4287.5,3004.72,4286.283,3005.28,4285.08,3005.832Zm7.265-3.359-.633-1.36c1.2-.561,2.419-1.128,3.612-1.688l.637,1.358C4294.767,3001.344,4293.55,3001.912,4292.345,3002.473Zm7.24-3.4-.641-1.356c1.206-.57,2.422-1.147,3.617-1.716l.645,1.354C4302.01,2997.928,4300.792,2998.506,4299.585,2999.077Zm7.215-3.437-.649-1.352c1.207-.579,2.424-1.166,3.62-1.745l.653,1.35C4309.228,2994.473,4308.008,2995.06,4306.8,2995.64Zm7.205-3.486-.658-1.348c1.2-.586,2.416-1.181,3.607-1.766l.662,1.346C4316.424,2990.972,4315.209,2991.567,4314.005,2992.154Zm7.192-3.537-.667-1.344c1.194-.592,2.4-1.192,3.582-1.784l.671,1.342C4323.6,2987.423,4322.393,2988.024,4321.2,2988.617Zm7.165-3.584-.676-1.339c1.187-.6,2.384-1.206,3.559-1.8l.681,1.337C4330.749,2983.826,4329.55,2984.434,4328.362,2985.033Zm7.136-3.633-.685-1.334c1.18-.606,2.37-1.22,3.537-1.826l.69,1.332C4337.872,2980.178,4336.68,2980.793,4335.5,2981.4Zm7.108-3.686-.7-1.329c1.173-.614,2.357-1.237,3.518-1.85l.7,1.326C4344.967,2976.475,4343.782,2977.1,4342.606,2977.714Zm7.079-3.741-.707-1.323c1.168-.623,2.346-1.255,3.5-1.878l.712,1.321C4352.034,2972.716,4350.854,2973.348,4349.685,2973.973Zm7.047-3.8-.718-1.317c1.163-.633,2.335-1.275,3.484-1.908l.723,1.314C4359.07,2968.9,4357.9,2969.539,4356.731,2970.173Zm7.013-3.862-.729-1.311c1.158-.645,2.325-1.3,3.468-1.941l.735,1.308C4366.074,2965.011,4364.9,2965.666,4363.745,2966.311Zm6.977-3.927-.742-1.3c1.154-.656,2.316-1.322,3.454-1.977l.749,1.3C4373.042,2961.059,4371.877,2961.726,4370.722,2962.384Zm6.938-4-.755-1.3c1.149-.67,2.306-1.349,3.439-2.017l.762,1.292C4379.97,2957.037,4378.811,2957.717,4377.659,2958.388Zm6.894-4.069-.77-1.288c1.145-.684,2.3-1.377,3.424-2.06l.777,1.283C4386.854,2952.939,4385.7,2953.634,4384.553,2954.319Zm6.844-4.145-.785-1.279c1.14-.7,2.287-1.408,3.409-2.106l.792,1.273C4393.688,2948.763,4392.539,2949.473,4391.4,2950.175Zm6.792-4.228-.8-1.268c1.133-.716,2.272-1.44,3.387-2.154l.809,1.263C4400.468,2944.5,4399.325,2945.23,4398.189,2945.947Zm6.757-4.329-.818-1.257c1.117-.726,2.239-1.462,3.335-2.187l.827,1.251C4407.19,2940.153,4406.065,2940.89,4404.946,2941.619Zm6.688-4.42-.836-1.245c1.1-.742,2.214-1.493,3.3-2.233l.846,1.239C4413.854,2935.7,4412.742,2936.455,4411.634,2937.2Zm6.609-4.515-.856-1.232c1.1-.763,2.2-1.536,3.275-2.3l.867,1.224C4420.45,2931.143,4419.344,2931.918,4418.243,2932.684Zm6.537-4.628-.877-1.217c1.083-.781,2.169-1.572,3.228-2.351l.889,1.208C4426.957,2926.479,4425.867,2927.272,4424.78,2928.057Zm6.463-4.756-.9-1.2c1.067-.8,2.135-1.613,3.177-2.411l.913,1.19C4433.387,2921.682,4432.314,2922.5,4431.243,2923.3Zm6.344-4.868-.926-1.18c1.054-.827,2.109-1.664,3.135-2.489l.939,1.169C4439.706,2916.761,4438.646,2917.6,4437.587,2918.433Zm6.264-5.033-.954-1.158c1.031-.849,2.062-1.709,3.063-2.555l.968,1.146C4445.923,2911.682,4444.888,2912.546,4443.852,2913.4Zm6.118-5.172-.983-1.133c1.007-.875,2.012-1.76,2.985-2.631l1,1.118C4451.992,2906.458,4450.982,2907.348,4449.969,2908.228Zm5.977-5.346-1.017-1.1c.984-.908,1.964-1.827,2.913-2.731l1.035,1.086C4457.922,2901.044,4456.937,2901.968,4455.946,2902.882Zm5.814-5.543-1.054-1.068c.953-.94,1.9-1.891,2.812-2.827l1.074,1.048C4463.672,2895.434,4462.719,2896.392,4461.76,2897.339Zm5.607-5.748-1.095-1.026c.916-.977,1.821-1.964,2.693-2.935l1.117,1C4469.2,2889.611,4468.29,2890.607,4467.367,2891.591Zm5.362-5.979-1.139-.976c.87-1.017,1.728-2.044,2.549-3.055l1.164.946C4474.474,2883.548,4473.608,2884.586,4472.729,2885.612Zm5.064-6.235-1.189-.914c.814-1.06,1.612-2.132,2.371-3.184l1.216.877C4479.424,2877.222,4478.617,2878.305,4477.794,2879.377Zm4.7-6.53-1.245-.837c.748-1.113,1.474-2.236,2.159-3.34l1.274.791C4483.992,2870.581,4483.256,2871.72,4482.5,2872.847Zm-35.673-4.512q-.775,0-1.537-.007l.014-1.5c1.3.012,2.645.009,3.99-.011l.021,1.5C4448.48,2868.33,4447.647,2868.336,4446.824,2868.336Zm-5.553-.1c-1.355-.048-2.705-.115-4.013-.2l.1-1.5c1.293.083,2.629.149,3.97.2Zm12.048-.023-.054-1.5c1.306-.047,2.647-.109,3.989-.184l.083,1.5C4455.987,2868.107,4454.635,2868.169,4453.319,2868.216Zm8.016-.445-.111-1.5c1.3-.1,2.641-.207,3.975-.329l.136,1.494C4463.993,2867.563,4462.647,2867.674,4461.335,2867.771Zm-28.092-.051c-1.356-.131-2.7-.284-4-.457l.2-1.487c1.282.17,2.61.322,3.948.451Zm36.088-.676-.16-1.491c1.3-.139,2.63-.292,3.958-.453l.181,1.489C4471.977,2866.75,4470.638,2866.9,4469.332,2867.043Zm-44.074-.39c-1.347-.234-2.678-.5-3.957-.781l.325-1.464c1.256.278,2.565.536,3.89.767Zm52.03-.579-.2-1.486c1.3-.176,2.629-.366,3.954-.563l.221,1.484C4479.93,2865.707,4478.594,2865.9,4477.288,2866.075Zm9.453-.073-1.3-.74.249-.442-.457.074-.239-1.481q.8-.129,1.607-.263.369-.693.719-1.379l1.336.681c-.065.128-.131.256-.2.385l.467-.081.256,1.478c-.536.093-1.073.184-1.608.274Q4487.164,2865.255,4486.741,2866Zm-69.354-1.1c-1.326-.368-2.627-.77-3.868-1.2l.488-1.419c1.212.417,2.484.81,3.78,1.169Zm75.734-1.369-.271-1.475c1.291-.237,2.61-.487,3.921-.742l.286,1.472C4495.74,2863.041,4494.416,2863.292,4493.12,2863.53Zm-83.384-1.273c-1.273-.539-2.509-1.122-3.674-1.732l.7-1.329c1.129.591,2.328,1.156,3.563,1.68Zm91.25-.256-.3-1.47c1.287-.263,2.6-.538,3.908-.818l.313,1.467C4503.6,2861.462,4502.276,2861.738,4500.985,2862Zm7.835-1.676-.327-1.464c1.283-.286,2.593-.584,3.895-.886l.338,1.461C4511.422,2859.74,4510.108,2860.039,4508.821,2860.326Zm-18.421-1.517-1.368-.615c.547-1.217,1.061-2.444,1.525-3.647l1.4.541C4491.482,2856.315,4490.958,2857.568,4490.4,2858.809Zm26.226-.292-.35-1.458c1.279-.307,2.585-.626,3.88-.947l.361,1.456C4519.218,2857.89,4517.909,2858.21,4516.626,2858.518Zm-114.079-.044a37.453,37.453,0,0,1-3.3-2.405l.951-1.16a35.939,35.939,0,0,0,3.163,2.308Zm121.855-1.885-.372-1.453c1.275-.326,2.577-.664,3.868-1l.381,1.45C4526.986,2855.924,4525.681,2856.262,4524.4,2856.589Zm7.75-2.039-.391-1.448c1.272-.344,2.57-.7,3.857-1.056l.4,1.445C4534.729,2853.85,4533.428,2854.206,4532.152,2854.551Zm-135.9-1.262a29.7,29.7,0,0,1-2.614-3.16l1.22-.873a28.216,28.216,0,0,0,2.482,3Zm143.62-.876-.409-1.443c1.266-.359,2.556-.729,3.836-1.1l.418,1.441C4542.436,2851.681,4541.143,2852.052,4539.874,2852.412Zm-46.57-1.141-1.429-.456c.405-1.27.768-2.548,1.078-3.8l1.456.361C4494.091,2848.658,4493.719,2849.969,4493.3,2851.271Zm54.254-1.087-.426-1.438c1.263-.374,2.551-.76,3.827-1.145l.434,1.436C4550.115,2849.422,4548.824,2849.808,4547.558,2850.183Zm7.667-2.317-.441-1.434c1.261-.389,2.547-.788,3.822-1.188l.449,1.431C4557.778,2847.077,4556.49,2847.477,4555.226,2847.867Zm-163.723-1.244a27.433,27.433,0,0,1-1.593-3.788l1.422-.477a25.967,25.967,0,0,0,1.506,3.581Zm171.368-1.153-.456-1.429c1.255-.4,2.533-.811,3.8-1.222l.462,1.427C4565.407,2844.657,4564.127,2845.069,4562.87,2845.47Zm-67.629-2.057-1.479-.254c.225-1.307.4-2.621.515-3.905l1.494.136C4495.65,2840.713,4495.472,2842.067,4495.241,2843.413Zm75.24-.411-.469-1.425c1.254-.413,2.532-.837,3.8-1.26l.476,1.423C4573.017,2842.164,4571.737,2842.588,4570.48,2843Zm7.6-2.541-.482-1.421c1.247-.423,2.517-.857,3.775-1.289l.488,1.418C4580.6,2839.6,4579.331,2840.037,4578.082,2840.461Zm-189.188-1.6a30.461,30.461,0,0,1-.447-4.074l1.5-.064a28.9,28.9,0,0,0,.425,3.872Zm196.751-1-.494-1.416c1.249-.435,2.52-.881,3.778-1.325l.5,1.415C4588.168,2836.977,4586.9,2837.424,4585.645,2837.86Zm-89.677-2.53-1.5-.008c.006-1.317-.047-2.638-.158-3.927l1.495-.129C4495.919,2832.6,4495.975,2833.967,4495.968,2835.329Zm97.231-.135-.5-1.413.986-.353c.928-.333,1.871-.667,2.8-.994l.5,1.415c-.928.326-1.867.659-2.792.99Zm7.558-2.65-.484-1.42c1.256-.428,2.532-.856,3.793-1.274l.471,1.424C4603.28,2831.69,4602.008,2832.117,4600.757,2832.543Zm-210.733-1.729-1.5-.12a37.157,37.157,0,0,1,.554-4.042l1.473.283A35.759,35.759,0,0,0,4390.024,2830.814Zm218.308-.775-.458-1.428c1.267-.406,2.554-.813,3.826-1.208l.445,1.432C4610.877,2829.229,4609.594,2829.634,4608.332,2830.039Zm7.63-2.373-.433-1.436c1.269-.382,2.559-.765,3.834-1.136l.42,1.44C4618.513,2826.9,4617.227,2827.285,4615.962,2827.666Zm-122.174-.163c-.235-1.285-.536-2.57-.894-3.822l1.442-.412c.371,1.3.683,2.631.927,3.963Zm129.841-2.072-.408-1.444c1.278-.361,2.578-.721,3.862-1.071l.395,1.448C4626.2,2824.713,4624.9,2825.072,4623.629,2825.431Zm509.4-.247v-1.5c1.329,0,2.672,0,3.994-.01l.006,1.5C5135.7,2825.179,5134.358,2825.183,5133.027,2825.184Zm-4,0c-1.326,0-2.675-.009-4.009-.017l.009-1.5c1.333.008,2.68.013,4,.017Zm12-.031-.012-1.5c1.333-.01,2.68-.023,4.005-.039l.017,1.5C5143.715,2825.126,5142.366,2825.139,5141.031,2825.149Zm-20.014-.016c-1.322-.012-2.667-.027-4-.043l.019-1.5c1.329.017,2.672.031,3.992.043Zm28.019-.076-.023-1.5c1.329-.02,2.672-.043,3.994-.068l.028,1.5C5151.712,2825.015,5150.366,2825.038,5149.036,2825.058Zm-36.018-.024c-1.325-.021-2.673-.044-4.007-.069l.028-1.5c1.333.025,2.679.048,4,.069Zm44.023-.127-.034-1.5c1.331-.03,2.677-.063,4-.1l.04,1.5C5159.722,2824.844,5158.374,2824.877,5157.042,2824.907Zm-52.031-.023c-1.321-.029-2.665-.06-4-.093l.037-1.5c1.329.033,2.671.064,3.991.093Zm60.031-.188-.045-1.5c1.328-.04,2.672-.083,3.994-.128l.051,1.5C5167.717,2824.613,5166.372,2824.656,5165.042,2824.7Zm-68.03-.01c-1.323-.036-2.67-.076-4-.116l.046-1.5c1.332.041,2.677.08,4,.116Zm-8-.244c-1.319-.044-2.663-.091-3.993-.138l.054-1.5c1.329.048,2.67.094,3.988.138Zm84.037-.019-.057-1.5c1.329-.051,2.673-.1,4-.16l.063,1.5C5175.724,2824.319,5174.377,2824.373,5173.047,2824.424Zm-92.036-.269c-1.321-.051-2.667-.105-4-.16l.062-1.5c1.332.055,2.676.109,4,.159Zm100.03-.068-.069-1.5c1.327-.061,2.67-.126,3.992-.193l.076,1.5C5183.715,2823.961,5182.37,2824.026,5181.041,2824.087Zm-108.025-.262c-1.319-.058-2.663-.118-4-.18l.069-1.5c1.331.062,2.673.122,3.991.18Zm116.027-.141-.082-1.5c1.326-.072,2.668-.148,3.99-.226l.088,1.5C5191.716,2823.536,5190.372,2823.612,5189.043,2823.684Zm-124.025-.229c-1.319-.064-2.664-.131-4-.2l.076-1.5c1.332.068,2.675.135,3.994.2Zm-433.687-.125-.382-1.451c1.284-.338,2.59-.676,3.88-1l.37,1.454C4633.912,2822.657,4632.61,2822.993,4631.33,2823.331Zm565.7-.115-.094-1.5c1.326-.083,2.668-.171,3.989-.26l.1,1.5C5199.7,2823.045,5198.356,2823.132,5197.028,2823.216Zm-805.539-.092-1.437-.427c.378-1.273.826-2.566,1.332-3.841l1.395.553C4392.289,2820.642,4391.855,2821.892,4391.49,2823.124Zm665.54-.074c-1.319-.07-2.664-.143-4-.217l.083-1.5c1.333.073,2.676.146,3.994.217Zm148-.372-.107-1.5c1.324-.095,2.664-.194,3.982-.294l.114,1.5C5207.693,2822.484,5206.351,2822.583,5205.025,2822.678Zm-155.992-.071c-1.317-.076-2.661-.154-3.993-.233l.089-1.5c1.332.079,2.674.157,3.99.233Zm-7.98-.474c-1.318-.081-2.664-.165-4-.249l.095-1.5c1.335.085,2.68.168,4,.25Zm171.947-.062-.121-1.495c1.324-.107,2.665-.218,3.984-.33l.127,1.495C5215.669,2821.854,5214.326,2821.965,5213,2822.071Zm-179.942-.444c-1.314-.085-2.656-.174-3.989-.263l.1-1.5c1.332.089,2.673.177,3.986.263Zm187.93-.235-.134-1.494c1.321-.118,2.658-.241,3.974-.365l.141,1.493C5223.65,2821.151,5222.311,2821.274,5220.988,2821.392Zm-581.914-.031-.357-1.457c1.288-.316,2.6-.631,3.893-.937l.345,1.46C4641.664,2820.732,4640.359,2821.047,4639.074,2821.362Zm386-.267-4-.277.1-1.5q2,.14,3.995.277Zm203.869-.451-.147-1.493c1.322-.131,2.66-.266,3.979-.4l.154,1.492C5231.613,2820.376,5230.272,2820.512,5228.948,2820.643Zm-211.857-.108q-1.994-.142-3.986-.288l.109-1.5,3.983.288Zm-525.458-.571c-.476-1.207-1.019-2.412-1.614-3.58l1.337-.681c.616,1.211,1.18,2.459,1.673,3.71Zm517.48-.01-3.993-.3.113-1.5,3.991.3Zm227.812-.136-.161-1.491c1.317-.142,2.651-.29,3.964-.438l.168,1.49C5239.581,2819.527,5238.245,2819.675,5236.925,2819.818Zm-590.081-.292-.333-1.463c1.294-.294,2.611-.588,3.912-.873l.321,1.465C4649.447,2818.939,4648.134,2819.232,4646.844,2819.526Zm354.289-.175-3.983-.308.116-1.5,3.981.308Zm243.736-.43-.175-1.49c1.319-.155,2.655-.316,3.97-.477l.183,1.489C5247.528,2818.6,5246.19,2818.765,5244.868,2818.92Zm-251.714-.191-3.99-.316.12-1.5,3.988.316Zm-7.974-.636-3.987-.323.122-1.5,3.986.323Zm267.649-.149-.189-1.488c1.313-.167,2.644-.34,3.954-.513l.2,1.487C5255.478,2817.6,5254.146,2817.777,5252.83,2817.944Zm-598.181-.126-.309-1.468c1.3-.272,2.617-.544,3.921-.808l.3,1.47C4657.257,2817.275,4655.942,2817.546,4654.648,2817.818Zm322.554-.374-3.986-.328.124-1.495,3.985.328Zm283.551-.549-.2-1.486c1.316-.181,2.648-.367,3.961-.554l.211,1.485C5263.406,2816.528,5262.071,2816.715,5260.753,2816.9Zm-291.517-.11-3.992-.333.125-1.495,3.991.333Zm-306.758-.548-.285-1.473c1.3-.252,2.626-.5,3.936-.745l.273,1.475C4665.1,2815.736,4663.776,2815.987,4662.478,2816.238Zm298.778-.119-3.983-.335.126-1.495,3.982.335Zm-566.876-.308-1.345-.664c.589-1.194,1.239-2.394,1.932-3.565l1.291.763C4395.584,2813.483,4394.952,2814.65,4394.379,2815.81Zm874.316-.045-.219-1.484c1.31-.193,2.636-.392,3.942-.591l.226,1.483C5271.336,2815.373,5270.007,2815.572,5268.7,2815.765Zm-315.406-.318-3.991-.337.126-1.494,3.991.337Zm-282.958-.665-.262-1.477c1.306-.231,2.634-.461,3.947-.684l.25,1.479C4672.957,2814.322,4671.632,2814.552,4670.331,2814.782Zm274.982-.009-3.98-.336.126-1.494,3.98.336Zm331.282-.212-.233-1.482c1.312-.206,2.64-.419,3.949-.632l.241,1.48C5279.241,2814.141,5277.91,2814.354,5276.6,2814.562Zm-339.252-.46-3.989-.335.125-1.495,3.989.335Zm-259.136-.653-.239-1.481c1.308-.211,2.64-.421,3.956-.624l.228,1.483C4680.84,2813.029,4679.513,2813.238,4678.208,2813.449Zm251.165-.015-3.983-.332.124-1.495,3.983.332Zm355.143-.16-.248-1.479c1.305-.219,2.627-.444,3.929-.67l.256,1.478C5287.147,2812.829,5285.822,2813.054,5284.515,2813.274Zm-796.439-.306c-.69-1.094-1.444-2.181-2.242-3.232l1.194-.907c.824,1.085,1.6,2.208,2.316,3.339Zm433.323-.2-3.986-.327.123-1.5,3.987.327Zm-235.3-.537-.217-1.484c1.312-.192,2.646-.382,3.965-.565l.206,1.486C4688.741,2811.853,4687.411,2812.043,4686.1,2812.234Zm227.329-.114-3.99-.322.12-1.5,3.991.322Zm378.958-.208-.263-1.477c1.307-.233,2.631-.472,3.935-.712l.271,1.476C5295.025,2811.438,5293.7,2811.678,5292.389,2811.912Zm-386.937-.431-3.984-.314.117-1.5,3.985.313Zm-211.436-.345-.2-1.487c1.313-.173,2.65-.344,3.973-.508l.185,1.489C4696.66,2810.793,4695.326,2810.963,4694.016,2811.136Zm203.468-.278-3.993-.3.113-1.5,4,.305Zm402.8-.394-.278-1.474c1.3-.246,2.619-.5,3.917-.75l.286,1.472C5302.9,2809.965,5301.583,2810.218,5300.28,2810.464Zm-410.776-.21-3.982-.293.109-1.5q1.991.145,3.984.294Zm-187.561-.1-.175-1.49c1.316-.154,2.655-.307,3.979-.453l.165,1.491C4704.591,2809.844,4703.256,2810,4701.943,2810.15Zm179.585-.478q-2-.142-3.991-.282l.1-1.5q2,.139,3.994.281Zm-171.642-.4-.155-1.492c1.317-.136,2.657-.271,3.983-.4l.145,1.493C4712.537,2809,4711.2,2809.137,4709.886,2809.273Zm163.665-.156c-1.335-.091-2.677-.181-3.987-.267l.1-1.5c1.312.087,2.654.177,3.99.268Zm-475.165-.1-1.234-.853c.761-1.1,1.573-2.194,2.416-3.251l1.173.935C4399.92,2806.882,4399.127,2807.948,4398.386,2809.021Zm909.739-.079-.293-1.471c1.3-.26,2.62-.526,3.919-.792l.3,1.469C5310.75,2808.414,5309.429,2808.681,5308.125,2808.941Zm-442.557-.353c-1.335-.086-2.677-.17-3.99-.251l.093-1.5c1.313.082,2.657.166,3.993.252Zm-147.732-.087-.135-1.494c1.32-.119,2.663-.237,3.992-.348l.125,1.495C4720.493,2808.266,4719.153,2808.383,4717.836,2808.5Zm139.758-.407c-1.337-.08-2.682-.159-4-.235l.086-1.5c1.317.076,2.663.155,4,.235Zm-131.795-.261-.116-1.5c1.32-.1,2.663-.2,3.992-.3l.107,1.5C4728.457,2807.63,4727.116,2807.731,4725.8,2807.833Zm123.8-.2c-1.333-.074-2.675-.146-3.988-.215l.079-1.5c1.315.069,2.658.141,3.992.215Zm466.38-.3-.309-1.468c1.3-.273,2.61-.552,3.9-.831l.316,1.467C5318.6,2806.779,5317.283,2807.059,5315.984,2807.332Zm-582.214-.07-.1-1.5c1.321-.087,2.666-.171,4-.25l.089,1.5C4736.43,2807.092,4735.088,2807.176,4733.77,2807.262Zm107.853-.046c-1.335-.067-2.68-.132-4-.194l.071-1.5c1.318.062,2.665.128,4,.194Zm-7.989-.377c-1.332-.059-2.674-.116-3.988-.171l.062-1.5c1.316.054,2.66.112,3.993.171Zm-91.888-.052-.081-1.5c1.322-.071,2.668-.14,4-.2l.072,1.5C4744.407,2806.646,4743.064,2806.715,4741.745,2806.786Zm-258.42-.086c-.864-.963-1.786-1.916-2.743-2.832l1.038-1.083c.983.942,1.933,1.922,2.822,2.914Zm342.319-.192c-1.333-.051-2.678-.1-4-.147l.053-1.5c1.319.046,2.665.1,4,.147Zm-75.912-.108-.064-1.5c1.32-.056,2.665-.11,4-.16l.056,1.5C4752.392,2806.29,4751.05,2806.344,4749.732,2806.4Zm67.926-.173c-1.334-.043-2.679-.083-4-.12l.042-1.5c1.321.038,2.667.078,4,.121Zm-59.945-.126-.048-1.5c1.324-.043,2.671-.082,4.006-.119l.041,1.5C4760.379,2806.019,4759.034,2806.059,4757.713,2806.1Zm51.948-.1c-1.332-.033-2.676-.064-3.994-.092l.032-1.5c1.32.028,2.665.059,4,.092Zm-43.958-.116-.033-1.5c1.322-.029,2.668-.056,4-.078l.026,1.5C4768.367,2805.83,4767.023,2805.856,4765.7,2805.885Zm35.97-.053c-1.334-.023-2.68-.044-4-.062l.021-1.5c1.323.018,2.67.039,4.007.062Zm-27.978-.084-.019-1.5c1.322-.016,2.669-.03,4-.041l.012,1.5C4776.361,2805.718,4775.017,2805.731,4773.7,2805.748Zm19.981-.024c-1.331-.012-2.673-.022-3.991-.029l.008-1.5c1.32.007,2.665.017,4,.03Zm-11.991-.038,0-1.5c1.323,0,2.671-.007,4,0v1.5C4784.351,2805.679,4783.007,2805.681,4781.686,2805.685Zm542.111-.038-.324-1.464c1.3-.287,2.607-.58,3.9-.873l.332,1.463C5326.41,2805.066,5325.095,2805.36,5323.8,2805.647Zm7.822-1.772-.339-1.461c1.292-.3,2.6-.607,3.89-.914l.347,1.459C5334.225,2803.267,5332.913,2803.574,5331.619,2803.875Zm-928.314-1.028-1.108-1.011c.907-.994,1.858-1.969,2.827-2.9l1.039,1.083C4405.117,2800.927,4404.189,2801.878,4403.3,2802.847Zm936.093-.821-.354-1.458c1.288-.313,2.593-.634,3.879-.954l.362,1.455C5342,2801.391,5340.688,2801.713,5339.4,2802.027Zm-861.762-.784c-1-.828-2.048-1.642-3.122-2.419l.879-1.215c1.1.8,2.178,1.631,3.2,2.48Zm869.542-1.151-.37-1.454c1.287-.327,2.592-.663,3.877-1l.377,1.452C5349.774,2799.427,5348.467,2799.763,5347.177,2800.092Zm7.742-2.013-.385-1.45c1.28-.34,2.578-.688,3.855-1.035l.393,1.448C5357.5,2797.389,5356.2,2797.738,5354.919,2798.079Zm-945.917-.7-.963-1.15c1.038-.869,2.113-1.708,3.195-2.492l.88,1.214C4411.061,2795.72,4410.014,2796.537,4409,2797.384Zm62.237-.775c-1.1-.7-2.247-1.373-3.4-2.012l.725-1.313c1.184.654,2.355,1.346,3.481,2.058Zm891.412-.628-.4-1.446c1.284-.355,2.583-.719,3.865-1.082l.408,1.444C5365.241,2795.261,5363.938,2795.625,5362.652,2795.981Zm7.7-2.177-.416-1.441c1.271-.367,2.56-.742,3.83-1.115l.423,1.439C5372.921,2793.061,5371.63,2793.437,5370.356,2793.8Zm-906.039-1.02c-1.181-.567-2.4-1.109-3.615-1.612l.573-1.386c1.243.514,2.485,1.067,3.692,1.646Zm-48.927-.027-.79-1.275c1.158-.717,2.346-1.391,3.529-2l.688,1.333C4417.668,2791.406,4416.515,2792.061,4415.39,2792.757Zm962.646-1.212-.431-1.437c1.275-.382,2.567-.773,3.841-1.163l.438,1.434C5380.609,2790.77,5379.314,2791.162,5378.036,2791.545ZM4457,2789.763c-1.245-.435-2.514-.84-3.771-1.2l.415-1.441c1.284.37,2.579.783,3.851,1.228Zm928.7-.56-.446-1.432c1.262-.393,2.541-.795,3.8-1.195l.454,1.43C5388.247,2788.406,5386.965,2788.809,5385.7,2789.2Zm-963.314-.05-.574-1.386c1.265-.525,2.551-.991,3.823-1.387l.446,1.432C4424.853,2788.2,4423.61,2788.646,4422.387,2789.153Zm27.013-1.578c-1.3-.293-2.6-.546-3.878-.753l.239-1.481c1.307.211,2.642.47,3.97.77Zm-19.52-.744-.3-1.469c.551-.113,1.108-.215,1.657-.3.764-.122,1.564-.221,2.38-.292l.131,1.494c-.78.068-1.545.162-2.274.279C4430.946,2786.625,4430.41,2786.723,4429.88,2786.831Zm963.443-.046-.461-1.427c1.266-.409,2.548-.827,3.812-1.242l.468,1.425C5395.876,2785.957,5394.591,2786.375,5393.323,2786.785Zm-951.721-.46c-1.341-.123-2.665-.192-3.934-.206l.017-1.5c1.309.014,2.673.085,4.053.212Zm959.345-2.047-.476-1.423c1.251-.419,2.52-.847,3.77-1.273l.483,1.42C5403.473,2783.429,5402.2,2783.858,5400.948,2784.278Zm7.56-2.574-.491-1.417c1.255-.435,2.527-.879,3.781-1.321l.5,1.415C5411.04,2780.822,5409.765,2781.268,5408.508,2781.7Zm7.582-2.671-.506-1.412c1.241-.445,2.5-.9,3.739-1.35l.513,1.409C5418.593,2778.132,5417.333,2778.587,5416.089,2779.032Zm7.495-2.729-.521-1.407c1.244-.46,2.5-.93,3.747-1.4l.527,1.4C5426.093,2775.371,5424.83,2775.842,5423.584,2776.3Zm7.513-2.824-.535-1.4c1.238-.473,2.494-.956,3.731-1.436l.542,1.4C5433.6,2772.521,5432.338,2773.005,5431.1,2773.479Zm7.451-2.889-.549-1.4c1.231-.485,2.48-.98,3.71-1.471l.557,1.393C5441.033,2769.608,5439.782,2770.1,5438.548,2770.59Zm7.44-2.973-.563-1.39c1.235-.5,2.487-1.012,3.721-1.52l.571,1.387C5448.48,2766.6,5447.226,2767.115,5445.988,2767.616Zm7.408-3.049-.578-1.384c1.219-.509,2.455-1.028,3.672-1.544l.585,1.381C5455.855,2763.537,5454.617,2764.058,5453.4,2764.568Zm7.363-3.118-.592-1.378c1.222-.525,2.461-1.061,3.682-1.592l.6,1.375C5463.224,2760.386,5461.983,2760.924,5460.759,2761.449Zm7.366-3.208-.605-1.372c1.205-.532,2.427-1.075,3.631-1.614l.613,1.369C5470.557,2757.164,5469.333,2757.708,5468.125,2758.241Zm7.281-3.258-.62-1.366c1.208-.548,2.434-1.107,3.641-1.662l.626,1.363C5477.844,2753.875,5476.616,2754.434,5475.406,2754.983Zm7.3-3.354-.633-1.36c1.2-.559,2.417-1.129,3.616-1.694l.64,1.357C5485.127,2750.5,5483.908,2751.07,5482.706,2751.629Zm7.222-3.4-.646-1.354c1.194-.57,2.4-1.152,3.6-1.729l.653,1.35C5492.336,2747.071,5491.124,2747.654,5489.928,2748.225Zm7.213-3.487-.66-1.347c1.2-.586,2.411-1.184,3.607-1.776l.666,1.344C5499.556,2743.552,5498.34,2744.15,5497.141,2744.738Zm7.227-3.583-.674-1.34c1.19-.6,2.392-1.208,3.572-1.812l.683,1.335C5506.766,2739.943,5505.561,2740.554,5504.368,2741.155Zm7.124-3.643-.691-1.331c1.179-.613,2.371-1.237,3.541-1.855l.7,1.326C5513.869,2736.271,5512.675,2736.9,5511.492,2737.511Zm7.1-3.75-.71-1.321c1.167-.627,2.345-1.265,3.5-1.9l.719,1.316C5520.941,2732.493,5519.76,2733.133,5518.59,2733.761Zm7.013-3.83-.729-1.312c1.167-.648,2.345-1.308,3.5-1.961l.738,1.306C5527.954,2728.62,5526.773,2729.281,5525.6,2729.931Zm6.983-3.943-.747-1.3c1.148-.659,2.308-1.331,3.446-2l.756,1.3C5534.9,2724.653,5533.738,2725.326,5532.586,2725.988Zm6.925-4.045-.766-1.29c1.14-.677,2.29-1.367,3.419-2.049l.776,1.283C5541.808,2720.572,5540.654,2721.264,5539.511,2721.943Zm6.838-4.134-.786-1.278c1.137-.7,2.285-1.412,3.411-2.116l.8,1.271C5548.641,2716.394,5547.489,2717.108,5546.349,2717.809Zm6.8-4.257-.806-1.265c1.117-.712,2.245-1.437,3.351-2.154l.816,1.259C5555.4,2712.112,5554.271,2712.838,5553.15,2713.552Zm6.729-4.363-.827-1.252c1.106-.73,2.221-1.473,3.315-2.208l.837,1.245C5562.107,2707.712,5560.988,2708.457,5559.879,2709.189Zm6.637-4.461-.847-1.238c1.1-.753,2.209-1.519,3.3-2.277l.857,1.23C5568.734,2703.2,5567.621,2703.973,5566.517,2704.728Zm6.574-4.582-.868-1.223c1.084-.77,2.177-1.553,3.249-2.328l.879,1.215C5575.275,2698.588,5574.179,2699.375,5573.091,2700.146Zm6.5-4.7-.89-1.208c1.063-.784,2.137-1.582,3.188-2.372l.9,1.2C5581.738,2693.856,5580.662,2694.656,5579.594,2695.443Zm6.4-4.809-.912-1.191c1.055-.808,2.119-1.63,3.161-2.443l.923,1.182C5588.124,2689,5587.057,2689.823,5586,2690.634Zm6.3-4.918-.934-1.174c1.045-.831,2.1-1.677,3.13-2.514l.945,1.165C5594.406,2684.032,5593.35,2684.881,5592.3,2685.715Zm6.235-5.06-.956-1.156c1.021-.845,2.051-1.706,3.059-2.557l.967,1.146C5600.595,2678.944,5599.562,2679.807,5598.536,2680.656Zm6.129-5.175-.979-1.136c1-.863,2.011-1.741,3-2.611l.991,1.126C5606.683,2673.732,5605.67,2674.614,5604.665,2675.48Zm6.015-5.291-1-1.116c.988-.887,1.983-1.79,2.957-2.683l1.014,1.105C5612.67,2668.393,5611.671,2669.3,5610.68,2670.19Zm5.9-5.408-1.025-1.095c.973-.911,1.952-1.838,2.911-2.755l1.037,1.084C5618.538,2662.936,5617.555,2663.867,5616.578,2664.781Zm5.8-5.545-1.048-1.072c.95-.929,1.907-1.875,2.843-2.811l1.06,1.061C5624.288,2657.354,5623.328,2658.3,5622.373,2659.237Zm5.676-5.673-1.072-1.049c.924-.945,1.855-1.907,2.766-2.859l1.083,1.037C5629.913,2651.649,5628.978,2652.615,5628.049,2653.564Zm5.543-5.793-1.1-1.025c.9-.966,1.813-1.949,2.7-2.922l1.107,1.012C5635.413,2645.812,5634.5,2646.8,5633.593,2647.77Zm5.405-5.915-1.119-1c.883-.99,1.772-2,2.641-2.993l1.13.986C5640.778,2639.85,5639.886,2640.861,5639,2641.855Zm5.264-6.037-1.142-.972c.862-1.013,1.728-2.043,2.575-3.062l1.154.958C5646,2633.765,5645.128,2634.8,5644.262,2635.818Zm5.12-6.163-1.166-.945c.838-1.034,1.68-2.086,2.5-3.127l1.177.93C5651.069,2627.558,5650.224,2628.615,5649.382,2629.654Zm4.976-6.3-1.188-.915c.81-1.051,1.623-2.121,2.417-3.179l1.2.9C5655.988,2621.226,5655.171,2622.3,5654.358,2623.357Zm4.815-6.417-1.211-.885c.781-1.069,1.565-2.156,2.331-3.231l1.222.87C5660.746,2614.774,5659.958,2615.866,5659.173,2616.94Zm4.65-6.535-1.233-.854c.752-1.086,1.506-2.191,2.242-3.283l1.244.838C5665.337,2608.2,5664.579,2609.314,5663.823,2610.405Zm4.479-6.651-1.255-.822c.725-1.106,1.451-2.232,2.159-3.345l1.266.805C5669.76,2601.511,5669.03,2602.642,5668.3,2603.754Zm4.3-6.765-1.276-.788c.7-1.126,1.393-2.272,2.072-3.406l1.287.771C5674.006,2594.705,5673.305,2595.857,5672.605,2596.989Zm4.123-6.876-1.3-.754c.666-1.146,1.333-2.311,1.983-3.463l1.307.736C5678.068,2587.79,5677.4,2588.961,5676.728,2590.112Zm3.937-6.984-1.317-.719c.636-1.164,1.271-2.348,1.89-3.519l1.327.7C5681.942,2580.768,5681.3,2581.958,5680.665,2583.128Zm3.746-7.088-1.336-.683c.6-1.182,1.208-2.383,1.795-3.571l1.345.664C5685.625,2573.644,5685.018,2574.852,5684.411,2576.04Zm3.551-7.189-1.354-.646c.572-1.2,1.143-2.416,1.7-3.62l1.363.627C5689.111,2566.423,5688.537,2567.647,5687.962,2568.851Zm3.354-7.286-1.371-.609c.538-1.212,1.075-2.445,1.6-3.664l1.379.589C5692.4,2559.107,5691.857,2560.346,5691.316,2561.565Zm3.153-7.377-1.387-.57c.5-1.226,1.006-2.472,1.493-3.7l1.4.551C5695.481,2551.7,5694.976,2552.956,5694.469,2554.188Zm2.947-7.46-1.4-.532c.47-1.239.937-2.5,1.39-3.743l1.41.512C5698.359,2544.217,5697.889,2545.482,5697.417,2546.727Zm2.74-7.539-1.417-.493c.435-1.25.868-2.522,1.286-3.779l1.423.473C5701.028,2536.654,5700.594,2537.932,5700.157,2539.189Zm2.531-7.611-1.43-.454c.4-1.261.8-2.544,1.181-3.812l1.436.434C5703.489,2529.021,5703.09,2530.31,5702.688,2531.578Zm2.32-7.678-1.442-.414c.365-1.271.728-2.564,1.076-3.842l1.447.395C5705.739,2521.323,5705.375,2522.622,5705.008,2523.9Zm2.109-7.738-1.453-.375c.331-1.281.657-2.583.97-3.87l1.458.355C5707.777,2513.566,5707.449,2514.875,5707.117,2516.162Zm1.9-7.792-1.462-.335c.3-1.289.587-2.6.866-3.894l1.466.315C5709.6,2505.758,5709.313,2507.074,5709.015,2508.37Zm1.688-7.84-1.47-.3c.261-1.3.517-2.614.761-3.916l1.474.276C5711.222,2497.9,5710.965,2499.227,5710.7,2500.53Zm1.478-7.882-1.478-.257c.227-1.3.448-2.626.657-3.935l1.481.238C5712.63,2490.008,5712.408,2491.338,5712.181,2492.647Zm1.269-7.918-1.484-.218c.192-1.308.379-2.637.555-3.951l1.487.2C5713.831,2482.079,5713.643,2483.415,5713.45,2484.729Zm1.063-7.948-1.489-.179c.158-1.312.31-2.646.452-3.964l1.492.161C5714.825,2474.122,5714.672,2475.462,5714.513,2476.781Zm.858-7.972-1.493-.142c.125-1.316.243-2.653.352-3.974l1.5.123C5715.616,2466.142,5715.5,2467.486,5715.372,2468.808Zm.657-7.992-1.5-.1c.092-1.319.177-2.659.253-3.982l1.5.086C5716.207,2458.146,5716.121,2459.492,5716.029,2460.816Zm.458-8.005-1.5-.067c.06-1.321.112-2.662.155-3.988l1.5.049C5716.6,2450.137,5716.546,2451.485,5716.487,2452.811Zm.263-8.013-1.5-.031c.027-1.322.047-2.664.059-3.99l1.5.013C5716.8,2442.121,5716.777,2443.47,5716.75,2444.8Zm-1.429-8.013c0-1.322-.016-2.665-.035-3.991l1.5-.022c.02,1.332.032,2.681.036,4.009Zm-.117-7.981c-.035-1.322-.078-2.664-.128-3.99l1.5-.057c.05,1.331.094,2.679.128,4.007Zm-.3-7.977c-.064-1.321-.138-2.662-.218-3.986l1.5-.09c.081,1.33.154,2.677.219,4Zm-.481-7.969c-.094-1.319-.2-2.658-.307-3.981l1.5-.123c.109,1.328.213,2.673.308,4Zm-.657-7.956c-.123-1.317-.256-2.653-.394-3.973l1.492-.156c.139,1.325.271,2.668.4,3.99Zm-.83-7.94c-.151-1.314-.312-2.648-.478-3.965l1.488-.187c.167,1.322.328,2.661.48,3.98Zm-1-7.922c-.179-1.311-.368-2.641-.561-3.954l1.484-.218c.194,1.318.383,2.654.563,3.969Zm-1.162-7.9c-.206-1.307-.422-2.633-.642-3.942l1.479-.248c.221,1.314.438,2.646.644,3.957Zm-1.322-7.874c-.232-1.3-.475-2.625-.721-3.929l1.474-.278c.247,1.309.49,2.636.723,3.944Zm-1.479-7.847c-.258-1.3-.526-2.615-.8-3.915l1.468-.306c.272,1.3.542,2.626.8,3.929Zm-1.632-7.817c-.283-1.293-.576-2.6-.872-3.9l1.462-.335c.3,1.3.592,2.615.875,3.913Zm-1.78-7.785c-.307-1.287-.625-2.593-.946-3.882l1.456-.362c.321,1.293.64,2.6.949,3.9Zm-1.926-7.751c-.331-1.281-.673-2.581-1.017-3.863l1.449-.389c.345,1.287.688,2.591,1.021,3.876Zm-2.068-7.715c-.354-1.275-.72-2.568-1.086-3.844l1.441-.415c.368,1.28.735,2.577,1.09,3.857Zm-2.207-7.676c-.377-1.269-.766-2.555-1.154-3.823l1.434-.44c.39,1.273.78,2.563,1.158,3.836Zm-2.343-7.636c-.4-1.261-.81-2.54-1.221-3.8l1.426-.465c.413,1.265.825,2.549,1.225,3.814Zm-2.475-7.594c-.421-1.254-.854-2.526-1.286-3.779l1.418-.49c.434,1.258.868,2.533,1.29,3.791Zm-2.605-7.551c-.441-1.247-.9-2.51-1.349-3.756l1.41-.513c.455,1.249.91,2.517,1.354,3.767Zm-2.732-7.506c-.463-1.239-.937-2.494-1.411-3.731l1.4-.537c.475,1.241.952,2.5,1.416,3.743Zm-2.857-7.459c-.483-1.231-.979-2.479-1.473-3.709l1.392-.559c.5,1.233.993,2.485,1.478,3.72Zm-2.979-7.411c-.5-1.224-1.02-2.464-1.534-3.686l1.382-.582c.516,1.225,1.034,2.469,1.539,3.7Zm-3.1-7.362c-.524-1.217-1.06-2.449-1.594-3.663l1.373-.6c.536,1.218,1.074,2.454,1.6,3.674Zm-3.217-7.31c-.544-1.209-1.1-2.433-1.654-3.639l1.363-.626c.555,1.209,1.113,2.437,1.658,3.65Zm-3.333-7.257c-.563-1.2-1.14-2.417-1.713-3.615l1.353-.648c.575,1.2,1.153,2.421,1.718,3.625Zm-3.449-7.206c-.583-1.192-1.178-2.4-1.77-3.587l1.342-.669c.594,1.191,1.191,2.4,1.775,3.6Zm-3.564-7.153c-.6-1.182-1.214-2.377-1.824-3.554l1.332-.69c.611,1.18,1.227,2.38,1.829,3.565Zm-3.677-7.095c-.619-1.17-1.25-2.354-1.877-3.52l1.321-.711c.629,1.168,1.263,2.356,1.883,3.53Zm-3.788-7.034c-.637-1.16-1.287-2.334-1.933-3.488l1.31-.732c.647,1.158,1.3,2.334,1.938,3.5Zm-3.9-6.971c-.656-1.152-1.326-2.317-1.991-3.461l1.3-.753c.667,1.148,1.338,2.316,2,3.472Zm-4.008-6.905c-.676-1.144-1.366-2.3-2.05-3.434l1.285-.774c.686,1.139,1.377,2.3,2.056,3.445Zm-4.12-6.84c-.7-1.133-1.4-2.278-2.106-3.4l1.272-.8c.7,1.127,1.416,2.276,2.113,3.412Zm-4.237-6.779c-.712-1.118-1.437-2.247-2.156-3.355l1.258-.816c.721,1.111,1.449,2.244,2.163,3.366Zm-4.348-6.7c-.731-1.106-1.476-2.223-2.213-3.318l1.244-.838c.74,1.1,1.487,2.219,2.221,3.329Zm-4.459-6.621c-.752-1.1-1.519-2.2-2.277-3.287l1.229-.86c.761,1.088,1.529,2.2,2.285,3.3Zm-4.576-6.542c-.773-1.084-1.559-2.176-2.336-3.244l1.213-.882c.78,1.073,1.569,2.168,2.344,3.256Zm-4.7-6.466c-.791-1.066-1.595-2.139-2.389-3.188l1.2-.905c.8,1.053,1.6,2.13,2.4,3.2Zm-4.817-6.363c-.815-1.055-1.643-2.115-2.461-3.151l1.177-.929c.821,1.04,1.652,2.1,2.471,3.163Zm-4.948-6.267c-.835-1.035-1.684-2.075-2.52-3.089l1.157-.955c.84,1.018,1.692,2.062,2.53,3.1Zm-5.084-6.161c-.861-1.019-1.733-2.041-2.594-3.035l1.135-.981c.864,1,1.741,2.025,2.605,3.049Zm-5.219-6.032c-.885-1-1.781-2-2.664-2.965l1.109-1.01c.887.974,1.788,1.977,2.677,2.979Zm-5.377-5.9c-.915-.977-1.84-1.951-2.75-2.9l1.08-1.041c.916.949,1.846,1.929,2.766,2.911Zm-5.54-5.745c-.943-.949-1.9-1.891-2.832-2.8l1.045-1.075c.942.916,1.9,1.864,2.85,2.819Zm-5.709-5.551c-.977-.917-1.962-1.823-2.928-2.694l1-1.114c.973.877,1.965,1.79,2.949,2.714Z" transform="translate(-3980)" fill="#af8e65"/></g></svg>