<svg xmlns="http://www.w3.org/2000/svg" width="48.519" height="39.821" viewBox="0 0 48.519 39.821"><g transform="translate(0 0)"><path d="M10.463,17.591C7.3,16.242,3.852,15.583,1.715,12.583a8.219,8.219,0,0,1-.566-9.171A8,8,0,0,1,8.452.02c3.882.253,6.75,2.941,9.783,5.123Z" transform="translate(0 0)" fill="#af8e65"/><path d="M82.255,38.8c3.649,3.393,6.546,7.7,7.362,12.694a8.683,8.683,0,0,1-1.622,6.656c-6.229,8.2-19.87-3.9-24.036-9.011-1.555-1.906-2.841-4.031-4.674-5.7a24.586,24.586,0,0,0-4.236-3.031l7.636-12.23c1.9.863,3.9,1.36,5.868,2.159a44.861,44.861,0,0,1,13.7,8.458" transform="translate(-41.214 -21.099)" fill="#af8e65"/></g></svg>