<svg xmlns="http://www.w3.org/2000/svg" width="44.424" height="44.635" viewBox="0 0 44.424 44.635"><g transform="translate(-8.055 -51.577)"><path d="M49.931,214.2c-1.795-2.937-2.947-6.249-6.225-7.928a8.218,8.218,0,0,0-9.156.772,8,8,0,0,0-2.3,7.718c.814,3.8,3.891,6.252,6.49,8.935Z" transform="translate(-23.999 -153.664)" fill="#af8e65"/><path d="M81.527,280.31c3.887,3.118,8.573,5.358,13.629,5.44a8.683,8.683,0,0,0,6.35-2.572c7.205-7.353-6.748-19.093-12.406-22.473-2.112-1.262-4.4-2.225-6.315-3.8a24.608,24.608,0,0,1-3.613-3.751l-10.991,9.33c1.129,1.755,1.911,3.659,2.988,5.493A44.859,44.859,0,0,0,81.527,280.31" transform="translate(-51.046 -189.539)" fill="#af8e65"/></g></svg>