<svg xmlns="http://www.w3.org/2000/svg" width="613.3" height="96.437" viewBox="0 0 613.3 96.437"><path d="M43.9-29A5.658,5.658,0,0,0,41-31.8c-6.9-.7-12.7,1.2-19.1,2-2,1-4.9-1.2-5.7,1.3,1.7,1.4,3.4,3.5,5.3,3,.6,0,1.3-1.1,2-.5v-.6c2-.4,4.4.4,6.3-.6,1.7,2.1,3.4-2.2,5.8-.8a1.4,1.4,0,0,1-1.8,1.2,1.827,1.827,0,0,1,1,.6,5.283,5.283,0,0,1-1.3-.1l.6.7-1.3.6c-2.7,2.2-4.9,5.8-7,8.1-2,1.1-3.6,3.5-4.9,4.6-.1,1.8-2.7,1.6-2.1,2.9l.5.7a5.667,5.667,0,0,0-2.8,2.9l1.2.1-.6.5,2.4,1c1.4-.6,1.9.1,3.1.2l1.9.2c.6-.5.6-.5,1.3-.5,1.9.2,4.5-.9,5.2-2,1.9.8,3.9-.3,5.7-.1l-.2,1.9c-3.5,4-7.7,8-11.9,12.7l.5.6c-1.8.6-2,3-3.4,3.5.5,1.3-1.6,3-1.1,4.4.7,0,1.9.7,2.6.2.4,2.5,3.1-.2,4.2.4-.1,0-.6.5,0,.6,0,0,1.3.1,1.4-.5a10.948,10.948,0,0,0,4.3,1.1l-.5-1.4,3.1.3c1.4-1.1,3.7,1.7,3.2-.9.7.1,1.3.7,1.9.2.1-1.3,3.2.3,3.3-1l-.7-.1.8-.5c1.7.7,3.7-.3,5-.2l.1-.6a8.909,8.909,0,0,1,3.9-.9,2.367,2.367,0,0,0-1.8-2.1c-6.8-1.2-13.4,1.9-19.8,3.2-1.9-.1-4.5.2-4.3-1.7-.5-1.2,1.5-1.7,2.2-2.9.1-1.3.8-1.2,2-1.7.8-.5.8-.5.8-1.1A1.018,1.018,0,0,1,31,7a6.888,6.888,0,0,1,2.1-1.2c.6-.5.1-1.2.7-1.8l1.3.8c.6-.6,2-1.1,1.3-1.8a.783.783,0,0,1-1.2-.1c.1-1.3,1.9.2,1.3-1.2.7.1,1.5-1.7,2.7-.9L38,0a3.279,3.279,0,0,1,2.5-.4c-1.1-.7,1.5-1.7.8-1.8l.2-.7c0-.6,1.2-.4,1.9-1-.6,0-1.3.5-1.2-.1.6-.5.7-1.8,2-1.7,1.3-.5.2-1.9-.3-2.6-3.5-3.5-10-1.6-14.5-1.4-1.9-.1-3.2,1.6-4.4.2l1.9-.4c.1-.6-.5-.6-1.1-.7l2.1-1.7c1.7.8,1.3-1.8,2.6-1-.7-.7-1.3-.8-1.2-1.4.7-.5,1.4-1.1,2-1l3.5-2.9-.7-.7,2-.4a8.367,8.367,0,0,0-1.2-.1c2-1.1,2.7-2.9,4.7-3.4a8.367,8.367,0,0,1,.1-1.2c.7-1.2,1.3-1.2,2-1.1C39.4-27.5,43.8-27.8,43.9-29ZM19.3-45c-.1.7-1.1-.4-1.2.2-1.5,1.5-4.4.7-6.7,1.9-3.1,1-7.6,1.4-10.1,3.8l1.3.9c1.4,1.4,3.2-1.2,3.7.9.7,0,.7.7,2.2.8l-.8-.6c1.7-1.2,3.8.3,4.7-1.8,3.7.4,9-.5,11.4-2.3,1.6.1,3.9-1,3.8.4,1.6-1.3,3.2-2.5,5.5-2.2,2.1.7,3.9-1.8,6-.3,1.5-1.1,3-.4,4.6-1.6,3.6,1,7.4-.1,10.5-.4,1.6-1.3-.6-1.5.2-2.7-10.2-1.6-20.1.7-29.9,1.8Zm23-30.8c-1.6-4-4.4-1.1-6.9-1.4-5.6.1-10.9,2.2-16,3.6-.8,1.1-2.6,1-3.3,1.5.5.8,1,2,1.6,2.1l-.6.5,1.2.8.1-.6a50.876,50.876,0,0,1,12.1-2c2.1-2.3,5.1-1.4,7-1.3v.6c.6.1,1.3-.4,1.3.1l-1.4.6c-1.9-.1-.1,1.8-2,1.7l.5.7c-.7,1.1-.2,1.9-.9,3.6,1.8.9-1.4,1.2-1,3.2h.7l.6.1a.6.6,0,0,1-.7.5c1.6,2.1-1.6,3.7-.4,5l-.8,1.2.5.7s-.1.6-.6.5c-.7.6,1.1,1.4.4,2,.7,0-.2,1.9,1.2,1.4-1.2-2,2-1.1,2.1-2.3a.812.812,0,0,1-.7-.8c.1-.5.6-.5.7-.8,0-.1-.2-.3-.4-.4l.5.1c.1-.6.2-1.3-.4-1.4.6-.5,1.3-1.1,1.9-1-.6-.7-1-2.3,0-2.5h-.4l.8-.7c.7-1.1-.7-.6-1.2-1.3a2.23,2.23,0,0,1,1.3-.5c-1.1-2,1.5-3.1-.2-4.4l1.3-.6c-.5-1.3.9-2.4.3-3.7.8-1.2-.4-2.5,1-3.1a4.869,4.869,0,0,1,.1-1.2ZM79.4-56.4c-4.8-2.4-10.2-.6-15-.6-1.8.6-4.2.6-5.4,1.8,2.4,5.4,9.6,1.8,13.8,1.8,1.2,0,1.2.6,2.4,1.2S74.6-51,74-49.8a2.1,2.1,0,0,0,.6,1.2c0,.6-1.8,0-1.8,1.2a2.2,2.2,0,0,1,1.8.6l-2.4.6a17.018,17.018,0,0,1-5.4,6c-.6,3.6-4.8,6-5.4,9a.588.588,0,0,1,.6.6l1.8,1.2-.6.6c1.2.6,2.4-1.2,3,.6,2.4-.6,4.8-1.2,7.2-.6.6,0,1.2,1.2,1.8,0,1.2.6,3-.6,3,1.2A1.858,1.858,0,0,0,77-27h.6c-1.8,1.2-1.2,3.6-2.4,4.8h.6c-4.8,3-6.6,9-10.8,12.6-1.8,2.4-4.8,4.8-5.4,7.2,1.8,1.2,4.2,1.2,6.6,1.2.6,1.2,1.8,0,3,.6h1.2c2.4-.6,4.8,1.2,6.6,0,3,.6,5.4-1.8,7.8-1.2,2.4,0,4-1.1,7.6-1.1l.8-.7c.6,0,1.8-1.2,2.4,0h1.8l-1.8-.6c2.4,0,4.2-1.2,6-.6.6-2.4,3.6,0,4.8-1.8.6-.6,0-1.2-.6-1.2-13.8-1.8-25.2,6-39,3a14.95,14.95,0,0,0,2.6-1.5c-.4.1-1-.1-1.4.3l-1.2-.6v-.6c.6,0,.6.6,1.2.6,0-1.8,1.8-1.2,3-1.8h-.6c-.6-1.8,1.8-1.2,2.4-1.8-1.2-.6-1.8.6-2.4-.6.6-.6.6-.6,1.2-.6,0-1.2,1.8-.6,2.4-1.8-.6.6-.6,0-.6,0,1.2-.6,1.8-1.2,3-1.8-.6-.6-.6-.6-.6-1.2.6-.6,1.2-1.2,1.8-.6C77-18.6,79.4-18,80-19.2c-.6,0-1.2,1.2-1.8.6,1.2-1.2,1.8-2.4,3-3.6.6-.6,0-1.8,1.8-1.2,0-1.1-.6-2.8.9-3h-.3c-.6,0-1.2-.6-.6-1.2.6,0,1.2-1.2,1.8-1.8h-.6c-.6,0,0-.6,0-1.2-2.4-2.4-5.4-1.8-7.8-1.8-1.8.6-3.6-.6-4.8.6-.6-.6-2.4,0-1.8-1.2l-.6-.6c.6-1.2,2.4-1.2,3-2.4-1.2-.6.6-1.2-.6-1.8,1.2-1.3,5.4-2.4,1.8-3a2.2,2.2,0,0,1,1.8-.6c0-.6,1.8-1.2.6-1.8.6-.6,1.2-.6.6-1.2.6-.6,3-.6,1.8-1.8L80-47.4h-.6c-.6,0-.6,0-.6-.6,1.2-1.2,2.4-3,1.8-4.2l.6-.6a.831.831,0,0,1,0-1.2ZM69.8-6.6l-.4.3C69.6-6.3,69.8-6.4,69.8-6.6Zm85.6-38,1,.8,1.4-1c.1-1.2.1-2.4-1.1-3,.7-.6,1.3-1.2,1.9-1.1a2.252,2.252,0,0,0-.4-3.1l.6-.5c0-.6-.6-.1-.6-.7l.6.1c.1-1.2.2-2.4-1-2.5l1.2-.5c.1-1.1-1-1.8-2.1-1.9,1-.1.5-1.8,1.7-1.7l.6-.6-1.7-1.9c.6,0,.7-.6,1.3-.5v-.6l-.6-.1c1.2-.5.1-1.8,1.3-2.3-.6,0-1.2.5-1.8-.1.7-1.2,1.3-.5,1.9-1.1l-.6-.6.7-.6c-1.2-.7.1-1.8.1-3-1.2-.1-.5-1.2-1.1-1.3l.6-.5v-.6c-2.3-1.4.7-1.8.8-2.4-.7-.6-2.2-.6-4.2-.2a6.074,6.074,0,0,0-2.8,6.4c-2.4,1.1-5.8,1.8-8.2,3.5a13.4,13.4,0,0,0-3.6,1.7,36.643,36.643,0,0,0-11.1,4.8c-1.2.6-1.7-1.2-2.4-.7a3.585,3.585,0,0,1,2.3-1.1c-.4-.1-.5-.6-.9-1.2l-.1.6-.5-.7c.6-1.1,1.2-.5,1.3-1.7l-.6-1.2c-.6-.1-.7,1.1-1.3-.1.1-1.2,1.4-.5,2-.5l-1.2-.7,1.2-.5c-.5-1.2-1.1-.7-2.3-1.3.6,0,1.8-.5,2.4.1,0-.6-.5-1.2-.5-1.8,0,0,0-.6.6,0,.1-1.8-1.7-1.9-2.3-2.5-1.1-1.3-3,.4-3.6,1l1.7,1.3.1-1.2c1.2-.6,1.1.6,2.3.7-.6.6-1.7-.7-1.8.5a.588.588,0,0,1,.6.6l-1.8-.1-.7.6c.6,1.2,2.3,1.9,2.9,3.2l-.7.5c-.6,0-.5-.6-1.1-.6-.6-.1-1.2-1.3-1.8-.7l.5,1-1.2.7c.6.1,3.1-1,2.4.8a1.843,1.843,0,0,1,1.8-.5c-.1,1.8-3.6-.2-4.3.9-1.2.6.6,1.3-.1,1.8l.7-.5c-.7,1.1-.2,3-.8,3.5.6.1.5,1.3.5,1.3l-.6.5c2.8,3.8-3.2,4.1-4,7-3.1,1.1-3.4,6.5-7.4,4.4.5.1.6-.5,1.2-.5l-.6-.6,1.2-.6c-2.4-.1.7-1.1-1.1-1.8l.7-.6c-.6-1.2.7-3-1.1-3.1l1.3-1.7h-.6l1.3-1.2c-1.2-.6.1-1.2.1-1.8-.6-.6-2.4.5-2.3-1.3.6-1.2,1.8-.5,2.4-1.1.1-.6-.5-1.2-.5-1.8-.5-.6-1.8-.1-2.3-.7l1.2-.5h1.2c0-.6.1-1.2.7-1.1-.6-.7-1.8-.7-1.1-1.9,0,0,0-.6.6,0-.5-1.8,1.3-2.3.2-3.6.6-.5.7-2.3,1.9-2.3.1-1.8-1.1-1.8-2.3-3.1-1.7-.7-3,1.6-4.3,2.8-1.2.5.6.6-.1,1.2a.489.489,0,0,1-.6.5c-.6.6-.7,2.4.5,1.9v.6l-.6-.1-.7,1.2c.6.6,1.2.7,1.7,1.3a1.477,1.477,0,0,1-1.2.5v-.6h-.6l-.6.6c.5.6.9,1.1.2,1.2h.3c.6.6,0,.6,0,1.2l.5.6s.6.7,0,.6c-.6,0-.6-.6-1.2,0,.6,0,.6,0,1.2.6h-.6a1.192,1.192,0,0,1-.1,1.8h1.2l-.7,1.2c0,.6-.1,1.2.5,1.2,0,.6-.6.6-1.2.6l1.2.6c.5.7-.6,0-.7,1.2.6-.6.6,0,.6.6h-.6l.5.6L107-52.5l1.1,1.2c-.6.6-.6-.6-1.2,0v.6l.6.6-.1.6c0,.6.6.6,1.2,1.3-.6-.1-.7.5-1.3,1.1.5,1.2-.2,3,1,3.7L107-42.3c1.2.1,1.2.7,1.2,1.3l-.7.5c-.1,2.4,1.8.1,2.4.8L108.6-38c1.2.6.5,1.2,1.1,2.4a2.342,2.342,0,0,1,1.7.7c-1.8,1.1,1.1,2.5-.7,3,.6,0,.5,1.2,1.1,1.9a.6.6,0,0,1-.7.5l.6.7v-.6a1.175,1.175,0,0,1,1.2,1.2c-.1.6-.1.6-.7.6.6,1.2,2.5-.5,3,1.4l-.1.6c2.4,1.3,2.5-.5,5.4.2,1.3-1.1,1.9-.5,3.7-1l-.5-1.2c1.2-1.1,1.3-1.7,2.5-2.3H125l.6-1.2c-.6,0-1.2.6-1.2,0,.1-.6,1.3-.6,1.3-1.2l-1.2-.6c.7-1.8,1.8.1,2.5-1.1l-.9-.7.9-.5-1.7-.7c.6-.6,1.2-.5,2.4-.5a1.555,1.555,0,0,0-1.1-.6,2.1,2.1,0,0,1,.6-1.2c-.6,0-.5-.6-1.1-.7l1.2-.5h-.6l.6-.6a1.287,1.287,0,0,0-1.1-1.3l.6-.5-.6-.1a.6.6,0,0,1,.7-.5h1.2c.1-2.4,0-1.2-.5-1.8-.6,0-.6-.6-.6-1.2.6.6.7-1.2,1.2,0,.7-1.1-.5-.6-1.1-1.2.7-1.2,1.8.1,1.9-1.1-.6-.1-1.2-.1-1.2-.7,1.2.1,0-.6.7-1.2-.6,0-1.3.6-1.2,0l.6-.6c.6-.6.6,0,1.2.7,0-.6-1.2-1.3-.5-1.9H128c3.1-3.4,6.8-5,11.2-7.2,1.1.7,1.3-1.7,2.4-.5.7-1.1,3.8-1.4,4.5-2.5,1.7.7,3-1.1,4.9-1.6,3.6-.4-.1,1.8,1.6,3.1l-.6.6c.6,0-.1.6-.1,1.2,2.3,1.3-.8,3,.4,3.6v.6l.5.7c-1.2,1.1,1.1,2.4-.7,3.5,1.2.1.5,1.2,1.7,1.3,0,.6-.1,1.8-.7,1.8.6.6,1.2.6.5,1.2ZM159.9-32a4.942,4.942,0,0,0-4.8-3c-6.6,1.8-12.6,3.6-19.2,3.6a8.516,8.516,0,0,0-5.4,4.8h.6c1.8,1.8,3.6-1.2,5.4,0,3.6.6,7.2-1.2,10.2-1.8,1.8.6,3,0,4.2.6-1.8,1.8-3,4.2-4.8,6,.6,1.8-1.8,1.2-1.2,2.4-2.4,3.6-4.2,7.8-7.2,10.2.6,1.8-1.8,3-1.2,4.2.7-.5,2-.4,2.4-1.2,2.4,1.8,6-1.2,7.8-.6l2.4-.6c1.2-1.2,2.4.6,3.6-.6,1.2,0,3-.6,4.2.6.6.6-.6.6-.6,1.2-4.8,7.2-12.6,12-16.2,19.8l.6.6c3,0,6,.4,8.8.5,3.9,0,2.7-.2,6.8-.3.6,0,3.6-1.5,4.2-.3,2.4,0,3.6-1.8,4.8-2.4,1.8.6,2.4-.6,3-1.8,0-1.2-1.8,0-1.8-1.2-5.3.3-9.6,1.9-18,1.3-.6-.6-1.8,0-2.4-.6,0-.6.6-.6,1.2-.6,0,0,1.2-.6.6-1.2a10.534,10.534,0,0,1,3-2.4c0-1.2,1.2-.6,1.8-1.8-.6-1.2,1.8-1.8,2.4-3a.588.588,0,0,0,.6-.6c1.8,0,2.4-2.4,3.6-3a2.2,2.2,0,0,0-.6-1.8l2.4-.6c.6-.6-1.2-1.8.6-1.8a2.2,2.2,0,0,1-.6-1.8c-1.8-2.4-5.4-4.2-8.4-3-3-1.2-5.4,2.4-7.2,0l-1.2.6v-.6c1.8-1.2,1.8-3,3.6-3.6v-.6c.6-.6,1.8-1.8.6-3a2.2,2.2,0,0,1,1.8-.6c0-1.2,1.8-1.8,1.8-1.8l-.6-.6c.6-.6.6-.6,1.2-.6l-.6-.6c1.8-.6,1.2-3.6,3.6-3.6v-.6c0-.6.6-.6,1.2-.6l-.6-.6A19.026,19.026,0,0,1,159.9-32Zm-37-14.3c-.6,0-.7.6-1.3.6l1.2,1.2c-.6,0-1.2,0-1.3.6h1.2c0,1.2-1.8.5-1.2,1.2.5.6,1.1.6,1.1,1.2-1.8-.1-.1,1.2-1.9,1.1l.6,1.3-.7.5.6.7-.6.5c-.7.6,1.1.7,1.1,1.3l-.7,1.8c-.6.1-.7,1.1-.6,1.1l1.2.1c-.7,1.2-2.5.5-1.9,1.7,2.3.7-.2,2.4-.2,3-1.2.5-2.4-.7-3.5-2,.6-.6-.5-1.8-.5-2.4-.5-.7.1-1.8-1-2.5,1.2-.5.7-1.8.7-3a8.077,8.077,0,0,0,1.4-3.5c.6,0,1.2.1,1.2-.5.8-2.4,3.2-3.5,4.5-4.6A.588.588,0,0,1,122.9-46.3ZM112.3-72.1c-.6,0-1.9.5-2.4-.1v-.6h.6ZM124-34.2c.6-.5,1.3-.1,1.9-.1l-1.3.2ZM241.8-51.7a.831.831,0,0,0,0-1.2c-1.8-.6-3.3-3.3-4.5-1.5l.6,1.2h-.6c0,2.4-.3,3.1-.3,5.5l.9,2.9c-2.4.6,0,2.4-1.8,3l1.2.6c0,.6-.8,1.2-.8,1.8l-.4,2.4a.588.588,0,0,1,.6.6.588.588,0,0,0-.6.6v.6a.588.588,0,0,0,.6.6s-.6.6-.6,0c-.6,1.2,0,1.2.6,1.8l-.6.6c0,1.2-1.2,2.4-3,3.6-.6,1.2-2.4-.6-3,.6-.6,0-1.2-1.2-1.8,0-2.4.6-5.7,2.1-7.5,2.7-1.8,1.8-3,0-4.8,1.2-3,1.2-6,2.4-8.4,3.6-1.8,1.2-1.2-1.2-2.4-1.8l1.2-1.2c0-1.2-1.2-1.2-.6-1.8.3-.3.4-.3.5-.2-.4-1.7,1.2-3.5.7-5.2.6-.6.6-.6,1.2-.6-1.8-.6-.6-1.8,0-2.4h-.6l.6-1.2v-.6a10.211,10.211,0,0,0,.6-4.2c-1.2-1.2-3-.6-4.2-1.8-.6,0-1.8.6-1.8,1.2.6.6,1.8.6,2.4,1.8-1.2,0-1.2,1.8-2.4,1.8l1.2,1.2c-.6.6-1.8,0-1.2.6-1.8,1.2,0,2.4-1.8,3.6a25.987,25.987,0,0,0-.6,3c0,1.2,1.2,0,1.8,1.2,0,.6-.6,0-1.8.6,0,0-1.2.6-.6,1.2l.6-.6c1.2,1.8-1.2.6-1.2,1.8l1.2,1.2h-.6c.6,1.8-1.8,1.8-1.8,3,1.2,0,1.8,0,2.4-.6l-.5,1.2-1.9.6c1.2.6,1.8,0,2.4,1.2,0,1.2-1.8,0-1.8,1.8,3,2.4,6,.6,9.6,1.2a29.248,29.248,0,0,1,6.6-2.4c2.4-3,7.2-1.2,10.2-4.2,1.2,1.2,3.3-.9,3.9-1.5,1.8,0,4.2-1.2,4.8-1.2l.6-.6c.6-1,1.9.8,1.8.6v.6l-.6.6h.6l-.6.6c-.6.6.6,1.2.6,1.2,0,.6-.6.6-1.2,1.2,0,.6,1.2.6,1.2.6,0,1.2-.6.6-.6,1.8h.6c.6,1.8-.6,3,0,4.8,1.1,0,0,1.7,1.6,1.8-.1.1-.4.2-.4.6,1.2.6,1.2,1.2,1.2,1.8,1.8-1.8,2.1,2.1,3.3,1.5l-.2-2.4c0-1.2-1-1.8-1-3,0-.6,1.2,0,1.2-.6-.6,0-.6-1.2-1.2-.6-1.2-1.8,1.8-1.2,1.2-3-.6,0-1.2,0-1.2-.6-.6-1.2.6-1.2,1.2-1.8l-.6-1.2h.6v-1.2c-.6,0-.6-1.2-1.2-1.2.6-1.2,1.2.6,1.2-.6.6-.6,1.2-1.8,0-2.4,1.8-5.4,8.4-6,12-8.4,1.8-1.2,6-1.2,6-3h.6c.5,1.1,2.1.2,2.8,0-.1,0-.4-.1-.4-.6,0,0,1.2,0,1.2-.6h-.6a1.858,1.858,0,0,1,1.2-.6v-.6a1.858,1.858,0,0,1-1.2-.6.831.831,0,0,1,1.2,0c.6,0,1.8,0,1.2.6H267l-1.8-1.8a4.591,4.591,0,0,0-3-1.2c-.6,0-.6.6-.6,1.2-.6,0-1.2.6-1.8.6a.588.588,0,0,0-.6-.6c-1.2,0-3-1.2-4.2,0-1.8,1.2-3.6.6-4.2,1.8-2.4,0-4.2,1.2-6,1.8-2.4,2.4-1.2-.6-3.6-1.8l1.3-.9c-1.2-1.7.4-2-.7-3.3l.6-.6,1.2-1.8-.6-.6a.588.588,0,0,1,.6-.6c-1.2-.6-.6-1.8-1.8-1.8l1.2-.6C243.6-50.5,242.4-51.1,241.8-51.7Zm-17.9-3.6c-1.3-2.7-4.9-2.7-7.5-1.9.4,1.2-1.3.4-2,.8-1.8-.3-3.2.8-5.5.4a24.909,24.909,0,0,1-6.3,1.2c-1.4,1-3.1.1-5.1,1l1,1.4c-.6.5-1.6-.9-2.4-.4.4,1.3.4,1.3,1.6,1.5.6.6,2.3,1,1.9-.3,2.5-.2,5.1-1.6,7.6-1.8,1.8-.2,4.4-.4,6.2-.7,1.2.2,3.2-.7,3.5,1.2l-.8,1.1c1,.8-.9,1.6.3,1.8l-.9,1.7c1.4,2-1.7,3.4.9,5-.6.6-.6.6-1.2.4-.1.6-1.5,1.6-.3,1.8l-.7.5.8,2-.7.4v.6c.5.2-.1.6-.7.5l.5.7c.4.6-.2,1.2-.9,1.7.2,1.9,2.7,1.1,3.9,1.9a5.428,5.428,0,0,0-2.8,1.9l3,.6-.4-1.3s.5.1,1.1.2l-.4-.7c.1-.6.6.1,1.3-.4-.1-1.7.1-3.8.7-4.1l-.5-.7,1.2.2c-1.2-.8-1.6-1.5-.9-2a9.509,9.509,0,0,0,2.1-2c-2.1-1.6,2-4-.8-5.7l1.3-.4c.1-.6-.5-1.2-.8-2l.6-.4-.5-1.3,1.5-1-1.1-.7c.6,0,.8-1.2.8-1.2a1.445,1.445,0,0,1-1.1-.8C222.6-54.4,222.7-55,223.9-55.3Zm-17.5,30a.31.31,0,0,0-.1-.2C206.3-25.4,206.3-25.4,206.4-25.3Zm117.8,3.7c-1.7-.7-2.9-.7-4.7-1.4-1.2.5-3.6-.2-3.7,1.6-3.6.4-10.1,3.7-13.8,4.7l.7.6c-1.2,0-3.2,1.3-5.6,1.6.5,2.4,3,1.3,4.1,2h.6l-.1.3.4.5.3-.4,1.8-.3c1.8-.5,6.4-.9,7.6-2,1.8.7,2.6-2.3,4.3-1l-.6.6c1.7.6-.8,2.9,1,3.6-.1,1.8-2,2.9-.2,3.6a6.756,6.756,0,0,0-.8,3.6c.6,0,0,0-.1.6,3.1-.5.5,1.8,1.1,3-.1,1.2-.5,1.2.7,1.9l-.3.4-.8.7c.6.6-.3,1.2-.3,1.2,1.1.7,1.1,1.9,2.3,1.3-.6.6-1.7,1.1-1.1,1.2,0,.6-.6-.1-1.2.5,1.2.1.9,1.3,2.1,1.9l-1.3,1.2c1.9-.5,3,1.3,4.8.8-1.2-.1-.8-.4-2-1.1,1.9-1.1.9-.2,2.1-.1-.6-1.8,2-4.1.2-4.8.6-.5,1.2-.5,1.3-1.1h-.6c0-.6.9-.6.9-1.2-1.1-.7.4-2.4-.2-3.6.7-1.8-.6,0-1.1-.7A1.069,1.069,0,0,1,323.2-3l.1-.6c.6-.6,0-.6,0-1.2.1-.6-1-2.5.2-3,0-.6-1.2-.1-1.2-.7.1-1.2.7-1.7,1.3-1.1.1-1.2-1.8-.1-2.3-1.3a2.5,2.5,0,0,0,1.8-.5c0-.6.7-1.2.1-2.4,1.9-1.1-1.1-1.9.8-3l-1.7-1.3C323.5-18.6,324.2-20.4,324.2-21.6ZM298.7-39.2c-1.8-1.3-4.2-2-6-3.2-2.5-1.3-4.4,1.7-6.2,1-1.2.6-1.3,1.9-.1,1.9v.6c-1.9,0-1.9,1.8-2,3.1.6.6-1.8,1.1,0,2.4h-.6l.6.7a.588.588,0,0,1-.6.6l-.1.6c.6.6.7-.6,1.9,0-.7,1.2-1.3.6-1.9,1.2-.6,1.3,1.2,1.9,1.8,2.5l-1.3,1.2h1.9c.6,1.3,2.4,1.4,2.4,2.6,1.3,0,3,1.3,3.7-.5,1.9.6,3.7-1.1,5-1.8-.5-1.8.7-2.4,1.3-3.1a.575.575,0,0,1,.4-.6h-.4a1.125,1.125,0,0,1,0-1.8c-.5-.6-1.1-.6-1.1-1.3l1.8-.6a.588.588,0,0,0-.6-.6c0-.6-.6-.6,0-1.2l.1-1.3c.6-.6-.6-1.2-1.2-1.8ZM287.6-70.6a7.27,7.27,0,0,0-4.8-.8c-.1.6.5.8.4,1.4,0,0-.7.6-.7-.2l-1.6,7.3.6.8c-2.1.4-.4,1.8-1.7,2.3l.5.5c-1.3.6-.3,2-1.5,1.8.5.7-.8,1.6-.2,1.7.5.9-.2,1.3-.2,1.3l1.1.9c-.7.5-.7.5-1.3.3.5.7,1.2.3,1.6,1-.1.5-.6.4-.7,1.1-2.9,2.6-6.7,2.7-10.6,3.9,1.6,1.6,3.6,1.2,6.2,1,9.6-2.3,18.8-5.3,28.5-8.1.8-.6,2.6-.2,3.3-.9a32.615,32.615,0,0,0-15.2,1.5c-3.1-.4-5.3,3-8.3,1.3,1.3-.4-.4-1.4.8-1.1l.2-1.2c.1-.7,0,0-.5-.8l1.3-1.1-1.2-.1c.1-.6.1-.6.7-.5l.9-.6h-.7a14.451,14.451,0,0,1,2-5.4,12.37,12.37,0,0,0,.1-4.3s.6-.6,1.2-.4c-.5-.7-1.1-.8-1-1.4C287.4-69.3,287.5-70,287.6-70.6ZM325-60.3a17.353,17.353,0,0,0-1.6-2.6c-1.3.6-3.7,1-4.5,3.4l.6.6c0,.6-1.4,1.8-.2,1.8,0,1.2-.2,3.6-.2,4.8-.1,1.2-1.4,2.9.4,3-.7.6-1.3.6-.7,1.2,1.2.6-.2,2.4-.2,2.4,2.4.8-.6,1.2,1.1,2.4l-.8.5.7.1c0,1.2-1.3,1.8-1.3,3h1.2l-.7,1.2.5.6-.7.6h.7c2.2,2.6,3.7-.9,5.4-.2,3.1-.5,1.3-.7,3.7-1.1,1.8.6,2-2.4,3.7-1.6,2.5-1.1,5.5-.9,7.3-1.3-.4-.9-.6-.9.6-.6a1.749,1.749,0,0,0-.4-1.2c-6.5-2.9-8.4.1-14.6,2.2-.6-1.2-1.8-.7-1.6-2.5.6,0,.6-.6.6-1.2.7-1.7.2-2.4-.4-3.6l1.3-1.1c-.6-.6-1.1-1.9-2.2-2.6h.6a5.282,5.282,0,0,0,.8-2.9l-.6-.1.6-.5c-.6-.6-.5-1.8-.5-2.4h.6c.7-1.1-1.1-.7-.5-1.8C324-60.6,324.9-59.1,325-60.3ZM291.8-35c0,1.2,1.3.6,1.9,1.2l-1.9.6c.7.7,0,.7.5,1.3l1.3.6c-1.9,0-.6,1.8-1.3,2.5l.7.6c-.7,0-1.3-.6-1.3,0a.46.46,0,0,0,.3.6c-.5.2-1.1,1.1-1.6,1.1-1.8-1.7-.6-4.7-2.2-6,.5-.1,2.1-1.5.5-2h-.6a.588.588,0,0,0-.6-.6h-.6c.6-.6,2.5,0,2.6-1.9l.6-.6c-.6-.6-.6-1.2-1.2-.6l1.2-1.8c3.1.7.6,3,2.4,5ZM362-44.1c-.6.1-1.2-1-2.4-.3.1,1.1-1.8.1-2.2,2.1v-.6c-1.8.2-3.6.4-4.2,1.6a4.517,4.517,0,0,1,4.2-.4l-1.6,1.4c1.3,1,1.6-1.4,2.4-.4.7,1.2-.5,1.4-1.7,1.4-.7-1-2.3.9-3.7-.2l1.2-.6,1.2-.2v-.6c-1.8.2-3,.9-4.4-.2-.4.7-1,.2-1.6.2l.6.6c-.5,1.2-1.2-.5-2.4.2-1,1.9-4,1.7-5,3.6,0,1.1,1.4,2.3,2.6,2.7h-.6l1.3.6c1.3.4,1.2-.2,1.7-.8-.6,0-1.8.2-1.8-.4l-.1-.6a.6.6,0,0,0,.7.5c1.5-2.6,4.8-.5,6.5-1.3l-.1-.6c-.7-1.1-1.1.7-1.8-.4,1.6-1.4,5.1.7,5.3-.6l-1.2.1.5-.6c1.2-.2,3-.4,3.2,1.4a7.206,7.206,0,0,0,.1,6.1.588.588,0,0,1-.6.6c.1.6-1,2,.3,2.4l-.5.7.6.5c-.4.7-1,.7-1.6,2l.6-.1c.7.5.2,1.8-.3,2.5l.6-.1-.5.7c.1,1.2-1.6,2,.2,2.4l-1,1.8a2.9,2.9,0,0,0,.8,1.8c1.3.4,1.9,1,2.5,1a1,1,0,0,0-.5.6l1.9.4-.1-.6c1.3.5,1.1-.7,1.1-.7-.6-.5-1.8.1-1.8-.4a12.493,12.493,0,0,0,2-3.3,11.019,11.019,0,0,1-1.8.2l1.7-1.4c-.6.1-1.2-.4-.8-1.1,0-1.2,1.8-.8,1.6-2a.487.487,0,0,1-.6-.5l.8-1.5-1.6-.2v-.6s.4-.7,1.8-.2l-.8-.6c0-.6,1.2-.6.6-1.2a3.558,3.558,0,0,0-1.4-1.6c1-.8,2.4-.4,2.2-2.1a.807.807,0,0,1-1.2.1l.4-1.2.5-1.2c-.1-.6.4-2-.8-1.8l.5-.6,1-2.6-.2-1.2c1.2-.7-.7-1.7-1.4-2.2C363.9-43.7,361.6-42.8,362-44.1Zm24.5-8.6c-.9-2.4-3.8-.9-4.2.4-2.3,1.5,1.5,2.9-.2,3.7.2,1.8.4,4.8-.6,6,0,.6.8,1.2,1.4,1.2-1.8,1.3-.2,3.6-1.3,5.4l.3,2.4.6.6h-.6c-.5.7.8,1.8-.4,1.9.7.5,2,1.6.8,1.7a.621.621,0,0,0,.5.6,3.751,3.751,0,0,0-1,.1c.6.5.1,1.2.8,1.7l-.4.4-.1.9c.6-.1.6-.1.7.5,0,.6-1.6,2,.2,1.8a.72.72,0,0,1-.6.7l.1.6c.1,1.2.8,1.7-.3,3l1.4,1.1a1.3,1.3,0,0,1-1.1,1.3l.2,1.8.6-.1-.5.7.6.5c.1.6-.5.7-1,1.3.7,1.2.2,1.8.8,2.4.6-.1.5-.7,1.1-1.4l-.6.1s-.7-.5-.1-.6c.6-.7,2.5.3,2.9-.9-.7-1.2-1.7.2-1.9-1l1.8-.2-1.2-.5a2.79,2.79,0,0,1,2.2-1.4L386-17.1a4.4,4.4,0,0,1,1.7-1.4c-.5,0-.8-.5-1.3-.4.6-.7,1.1-1.5,1-1.9-1.8-1.1,1.4-3.8-.5-5.4-.1-.6-.7-1.2-.1-1.2a4.689,4.689,0,0,1,1-2c.5-.6-1.4-1-1.4-1,.6-.6,1.2-.8,1.7-1.4-.7-.6-1.3-.4-1.4-1.6,0-.6.5-.8,1.1-.8,0-.6-.7-1.7.4-2.4-.7-.6.5-.7.5-1.3-.7-.5-1.8.8-3,.3,2-1.4,1.3-3.5,2.6-3.8-.7-.6-1.3-.6-1.4-1.2l-.6-.4c1.2-.8,1.6-2,2.8-1.6,0-.6-1.2-1-.8-1.7.2-.7.3-.7-.8-1.7l1.2-.8a1.781,1.781,0,0,1-1.8-.4c.6,0,1.8-.2,1.6-.7,0-1.2-1.8-1.1-2.5-1.6-.1-1,.5-.2.6,0Zm-2.6,3.9c.5-1.4,1.6-.8,1.8-.2Zm1.4-3.8c0,.6-1.2.7-1.8.8A2.121,2.121,0,0,1,385.3-52.6Zm36.5-24.1c-1.4-1.4-2.8,0-4.2,1.4-2.1,2.1-2.8,5.7-4.9,8.5-2.1,2.1-2.1,4.9-3.5,7-.7.7-.7,1.4.7,2.1-2.1,0-.7,2.8-1.4,4.2.7,0,2.1.7,3.5,0l-1.4-1.4,1.4-1.4,1.4-2.1c-.7-2.1,1.4-2.1.7-3.5,0-.7,1.4-.7,1.4-.7l-.7-.7c.7-.7,1.4-.7,1.4-1.4.7.7,2.8,0,2.8.7.7-.7,2.1-2.1,2.8-1.4,2.1,0,5,1.4,7.8,1.4.7.7,1.4.7,2.8.7l2.3-.4.5.4A4.209,4.209,0,0,0,438-64l-.7-.7c.7,0,.7-.7,1.4-.7-.7-2.8-4.2-2.1-6.3-2.8-2.8-.7-5.6,0-8.5-.7-2.1-1.4-4.2.7-5.6-.7l2.1-2.2,1.4-.7c.7,0,1.4-1.4,1.4-2.1l-.6-1.3Zm19.7,26.8c-1.4-2.9-4.9-1.5-7.7-1.5-4.2,1.5-8.4,2.2-12.7,3.6-5.6.7-11.2,2.8-17.6,3.5-2.1,1.4-4.2-1.4-5.6.7-2.1,2.1.7,2.1,1.4,3.5l.7-.7c.7-.7,1.4,0,2.1.7,3.6-.7,7.8,0,11.3-2.1,3.5,2.1,5.6-2.1,9.8-1.4,2.2-.7,2.9-2.1,4.3-2.1v.7c.7,0,2.1,0,2.1-.7h.7c0,1.4,0,2.1-.7,2.1v.7c-1.4.7-2.1,2.8-2.8,4.2-1.4,2.8-2.9,4.2-3.6,7-.7,2.2-2.8,5-4.9,5.7-2.1,1.4-2.8,4.2-3.5,5.6,2.1-2.1,5.6.7,7-2.1.7-.7.7.7,1.4.7.7-1.4,2.9,0,4.3-2.1,2.1.7,3.5-.7,4.9-1.4-.7,0-1.4.7-1.4,0,1.4-1.4,3.5,0,5.6-1.4a4.209,4.209,0,0,1,2.8.7c-.7,2.1-3.5,2.8-4.2,4.9-4.9,4.2-9.1,10.6-13.4,15.5a2.572,2.572,0,0,0-.7,2.1h8.5l-1.4-.7v-.7c.7,0,1.4.7,2.1,1.4l8.4-.7c-.7,0-2.1,0-2.1-.7.7-2.8,2.1,1.4,3.5-.7.7.7.7.7.7,1.4a.686.686,0,0,1-.7.7L435.2.7c-2.1,2.8-5.6,5.6-8.4,8.5v.7c-1.4,1.4-3.6,4.2-3.6,6.3.7,0,1.3-.7,2,0a10.2,10.2,0,0,0,5.3.2l1.1.4c0,.7.1.1,1.5.1v.7c2.1,0,4.2-.7,5.6-.7,2.1-1.4,5.6-.7,8.5-2.1,2.1.7.7-2.1,2.8-2.1l-.7-.7,2.1-.7c-.7-.7-1.4-.7-1.4-1.4V9.2l-.7-.7a28.59,28.59,0,0,0-10.6,2.1c-2.8,0-6.3,2.1-9.1,0,1.4-.7,4.2-1.4,3.5-2.1l.2-.5.7-.4.6-.7,2-1.3c.7-2.1,2.4-2.7,3.4-3.4l.8-1.5a6.254,6.254,0,0,1,1.4,0c.7-2.1-.7-.7-1.4-1.4a2.168,2.168,0,0,1,1.4-.7c.7-.7,1.4-.7,0-1.4a2.572,2.572,0,0,1,2.1-.7l.6-1.2.9-.9s-1.5-2.1-1.5-2.8c-1.4-.7-2.1-2.1-3.5-1.4-1.4-.7-4.2.7-7,0-.7.7-2.8.7-4.2.7a.686.686,0,0,0,.7-.7h-.7a.686.686,0,0,1-.7-.7h1.4v-.7c1.1-1.2,1.9-.9,2.9-2.6l1.3-1.7c1.4,0,.7-2.1,2.1-1.4l-.7-.7c.7,0,2.8-1.4,2.1-2.1a.686.686,0,0,1,.7-.7v-.7l-.7-.7c.7,0,4.2,0,2.8-2.1,1.4,1.4,2.8-.7,4.3-.7l-.8-.7a8.279,8.279,0,0,0,2.2-2.8c.4-.1.7,1.4.7.7a1.32,1.32,0,0,0,1.4-.7l-1.4-2.8c-2.9-3.6-7.1,0-10.6-.8-2.8,1.5-5.6,1.5-9.1,2.2v-.7a.686.686,0,0,0,.7-.7c-.7-.8,1.4-2.2,1.4-2.2v-.7c0-.7,0-1.4.7-1.4,0-2.8,2.8-3.5,2.1-5.6.7-.7.7-2.1,2.1-2.1l-.7-.7c.7-.7,0-2.1,1.4-2.1,1.4-.7,2.8-2.1,4.9-2.1C440.8-47.8,441.5-48.5,441.5-49.9Zm95.6,33.5c-1.8-2.4-4.2-3-6.6-3.6-1.2,0-2.4,1.2-3,2.4.6,0,.6,1.2,1.8,1.2,0,1.2,1.8.6,3.6,1.2a.588.588,0,0,1-.6.6c.6.4.9,2.7.6,4.2-.6,1.2-2.4,3.6-3.6,4.2s-3,.6-3.6-.6.6-1.2,1.2-2.4l-1.8-.6v-.6l.6-.6c0-1.2,1.8-.6,1.8-2.4.7-.9,2.2-.4,1.2-1.8,1.2-.6-.6,0-.6-1.2a16.566,16.566,0,0,0-4.8,3.6c-.6.6,0,1.2-.6,1.8-.6,1.2-1.2,2.4,0,3.6h-1.2a19.971,19.971,0,0,0-1.8,3.6h.6c2.4,1.2,4.2.6,6.6,1.2a.588.588,0,0,0-.6.6c1.8,0,1.8-.6,3-1.2,2.4.6,4.2-2.4,6.6-2.4l-1.8-.6.6-.6c1.2.6.6-1.8,3-2.4C536.5-11.6,539.5-14,537.1-16.4ZM510.3-44c0-.6-.7-1.3-1.4-1.9-3.9-3.3-9.8,0-13.7,1.9-3.2.7-5.2,3.3-8.5,3.9.7.7,2,0,3.3.7-2,1.3-3.3-.7-4.6,0l.7.7c-1.3-.7-2.6,1.3-3.9,1.3-.7,1.9,1.3,1.9.6,3.9.7.6.7.6,1.3.6.7,0,1.3,0,1.3-.6,4.6-2.6,9.8-3.9,14.4-7.2,2,.6,4.6-2,5.9.6-1.3.7.6,2-1.3,2v3.3c-.5,3-1.4,3.1-.7,5.2-1.9,1.3.7,2.6-1.3,3.9,0,1.3-.6,2.6.7,2.6,0,2.7-1.3,5.3,0,6.6-.7,1.3,1.3,2.6,1.3,3.9a3.693,3.693,0,0,0,2.6-.7c-2-.6,0-1.9-2-2.6l1.3-1.3c0-1.3-.6-3.9,1.3-5.2-.6,0-1.3-.7-1.9-1.3,3.2,0,.6-4.6,2.6-5.2-1.3-.7,0-2,0-3.3h-.7c2.7-1.3.7-4.6,1.3-5.9,0-.6,2-1.3,0-2,0-.6,0-1.9,1.4-1.9l-.7-.7C508.9-43.3,510.3-43.3,510.3-44Zm22.8-9.2c-.6-1.8-1.2-4.2-3.6-4.2-1.2,1.2.6,2.4-.6,4.2l.6.6c.6,1.2-.6,2.4-.6,3,.6,1.2,0,1.8.6,2.4a5.125,5.125,0,0,0,0,4.2l-.6.6c-.6,0,0,1.2.6,1.2-.6.6,0,1.8-.6,1.8l.6.6-.6.6v3c0,1.2,1.2,2.4,0,3,2.4.6,4.2,1.8,6,1.2l-.6-.6h.6a.831.831,0,0,1,1.2,0c1.8-.6,4.2-1.2,6-1.8,1.8-1.8,4.8-2.4,7.2-3,.6-1.2,2.4,1.2,3-.6v-.6c-6-3.6-12,0-18,1.8l-1.2-1.8-.6.6-.2-.8.5-.8-.5-.4.8-1a2.2,2.2,0,0,0-.6-1.8.588.588,0,0,1,.6-.6c.6-.6,0-1.8,0-2.4v-.6l-1.2-1.2,1.2-.6c0-.6.6-1.8,0-2.4-1.2,0-.6-1.2-1.2-1.8h1.2c.6-1.2-1.2-.6-1.8-1.2C531.3-53.8,533.1-52.6,533.1-53.2Zm55.6,11.6A31.976,31.976,0,0,1,599.8-44c1.2.1,2.5-1,3.7-.9.7-1.1,2.5-.3,3.7-.8,1.8.2,1.9-.4,3.7-.2.7-1.1,3,.3,3.7-1.4-1.2-.1-2.9-.9-4.1-.4a14.485,14.485,0,0,0-2.8-1.4l-1.3.3-1.2-.1a6,6,0,0,0-3.7.8c-1.6-2-4.3.2-6-.6-1.9.4-3.8,2-5.5.6.1-.6,1.2-.5.7-1.1l-.5-.7c0-.6,1.2-.5,1.2-.5.8-1.1-.4-1.2-1-1.3.7-1.1,1.8-.4,2.5-.9l-.5-.7-.6-.6c.7-.6.7-.6.1-.6l.6-.6c.2-1.2.2-1.8-1-1.9l.7-.5.1-.6.6-.6c.2-1.1.3-2.3-.3-3l.7-.5.1-.6c0-.6.1-1.2.7-1.2l1.1-1.3,1.1-2.6c-.5-1.5-3.1-1.7-7.1-.8a49.023,49.023,0,0,1-6.9,1.7c-2.9-.3-5.6,1.8-8.6,1.5-1.9,1.6-4.9,1.3-7.4,2.2,1.6,2,3.5,1,5.9,1.2,2.5-1.5,6.2-1.7,9.3-2.6,1.8.2,4.4-1.9,6.7-.5a7.421,7.421,0,0,0-1,3.5c-1.2.5.4,1.9-.9,2.9-.7,1.2.4,1.9-.9,2.4.6.6-.1,1.8.4,2.4l-.7.6c-.8,1.7,1,1.9,1.6,2.5-.7.6-1.2-.1-1.9.4.6.1.5,1.3.4,1.9l-.6-.1.6.7-.7.5a.6.6,0,0,1,.5.7c-1.2.4,0,.6-.7,1.1-1.8-.2-3.7.8-5.5.6-2.5,1-5.5.7-6.9,2.3-5.5.6-10,3.2-14.4,5.1-1.8.4-4.4,2-3.5,4.5,1.3-.5,1.1.7,1.7.8.2-1.8,1.9-.4,3.1-.3.8-1.7,2-1.6,2.7-2.7,1.2.7,6.7-1.6,6.1-1.2,3.1-.3,5.8-3,9.3-2l.1-.6a24.381,24.381,0,0,0,5.5-1.1c-.1,1.3-.5,2.8-.5,4-.6.6,0,.6.6,1.2-1.8.6.6,1.8-1.2,2.4-.6,1.2.6,1.2.6,2.4,0,0-.6,0-.6,1.2,1.8,0,0,1.8,0,1.8l.6.6c0,.6.6,1.8-.6,1.8.6.6,1.8,0,2.4.6l.6-1.2c0,.6,0,.6.6.6-.6-.6.6-2.4,0-3a.588.588,0,0,1,.6-.6c-.1.1.3-1.7-.6-1.2,0-.6,0-.6.6-.6-1.8-2.4,3-2.4.6-4.2a21.319,21.319,0,0,1,1.2-6c-.6,0-.1-.5-.1-1.1Zm11.1,18.7c-1.2,0-2.3-1.3-3-1.2A126.875,126.875,0,0,0,574-18.7c-1.8.6-4.2-.6-4.2,1.8,2.4.6,4.2,3,7.2,1.8-.6,0-1.2,0-1.2-.6.6-.6,1.8,0,2.4-.6.6,0,2.4-1.8,4.8-1.2,3-1.8,6.6,0,10.2-1.8.6.6,1.8,0,2.4,0,.6.6-.6,1.2.6,1.8-1.2,1.8-1.2,4.8-1.8,6.6-1.2,1.2.6,2.4-.6,3,0,3-1,5.4-.4,7.2-1.2,1.8-.6,3.6-.6,6,0,0,.6-.6.6,0l-.6.6c-1.2-.6,0,1.8-1.2,1.8.6.6.6,1.8,1.8,1.8-.6,1.2-1.2,0-1.8,0,0,.6-.6,1.8,0,1.8s0,.6,0,.6c.6.6,2.4,0,2.4,1.2,1.8.6,1.8-.6,3-.6l-1.2-.6c.6-1.2,1.8-1.2,1.8-2.4a1.15,1.15,0,0,1-.6-1.8h.6l-.6-.6c.6-.6.6-.6,1.2-.6V5.9c-.6-1.8.6-3-.6-4.2.6,0,.6-.6,1.2-.6L597.6.5l.6-.6c0-.6.6-1.2-.6-1.2l1-2.4c-.6-.6.6-1.2.6-1.2l-.6-1.2a1.291,1.291,0,0,0,1.2-1.2c-1.8-.6-.6-2.4-.6-2.4-.6,0,0-.6,0-.6a.588.588,0,0,1,.6.6c0-1.2.6-2.4,0-3.6,0-.6.6-.6,1.2-.6-.6-.6-.6-1.2-1.8-1.8l1.8-1.2c-.6,0-.1-1.1-1-1.2a1.286,1.286,0,0,0,1-1.2l-.6-.6.6-.6Z" transform="translate(-1.3 77.937)" fill="#fff"/></svg>