<svg xmlns="http://www.w3.org/2000/svg" width="608.3" height="97.1" viewBox="0 0 608.3 97.1"><path d="M32.5-49.3c-1.4-2.4-4-1-6.3-.2-3,.5-6.8,2.7-9.9,3.1C9.9-42.2,5.9-44.5-.3-39.3l2.2.1c3,2.9,3.5.2,6.9-.2l-.2,2.3-.3,2.9c2.1,1.6-.9,3-1.8,3.7.8,0,.8.9.8.9l-.8.7a2.287,2.287,0,0,1,2.1.9c-.1,1.6-2.2-.1-2.2.6l.7.9H6.3c3.6,1.7-1.6,3.7-1,5.3-.1,1.6-1.5,2.3-.9,3.1l-.8,1.5c.6,1.4,2.7,2.1,3.4,2.1,2.3-1.4,5.8,1.1,7.4-1.1,1.6-.1,3.1-1.2,4.5-1.1,3.6-.7,7-3.3,11.1-3,1.6-2.2,3.7-1.4,4.6-3.7,0-1.5-.7-1.5-1.8-1.4-3.8.6-9,2.8-12.2,3.8-3.7.5-6.8,4.3-9.4.2,0-.7,1.4-.7,1.5-1.5-1.4-.8.9-1.5-.6-2.4h-.7l2.3-1.4c.8-1.6-1.5-.1-1.4-1.7.8-1.4.7.1,1.5.1-.7-1.5-.7-2.4.2-3.1,0-.8.1-1.6-1.4-1.7.1-1.5,1.6-1.4,1.6-2.3a1.546,1.546,0,0,1-1.4-1.6c.1-.8.7.1,1.5.1a8.6,8.6,0,0,1,.1-1.6c0-.7.1-1.6-1.4-1.7,1.6-1.4,3.1-2.9,5.2-3.5C22.7-45.2,28.1-47.2,32.5-49.3Zm16.8-1.1a3.428,3.428,0,0,0-4.4-2.2c-.2,1.3-1.5,2.6.5,3.4a.6.6,0,0,1-.8.5c-.6.7,1.3,2.1-.6,2.6l.6.7-.1.6c0,1.4,0,2.7.7,2.8-.8.5-.1,1.3-.8,1.8,1.2,2.7-.2,6.5.3,9.8-.6,1.3,1.2,2.7-.1,4.5-.1,1.3-.7,2.6.6,4-1.3.6.5,3.3-1.4,3.8l1.2.8-1.3.5L45-15.4l-.7.6a3.564,3.564,0,0,0,.6,2.7c-.7-.1,0,1.3-.7,1.2l.7.1c-.2.6-.2,1.2-.7,1.2.5.2.5.7,1.2.7l-.7.7,2,.6a.812.812,0,0,1-.8.7c.7.6.3,1,2,.7a5.692,5.692,0,0,0-1.3-.7c1.4-1.2,1.9,1.4,3.2.1.8-.7,2.1-.5,1.5-1.3v-.7c-.7-1.3.7-2.4-.6-3.2l.7-.7a2,2,0,0,1-1.3-.6l1.3-.7-.6-.6.7-.7-.7-.6h.7c-.7-.7-.7-1.3-1.3-1.3a1.775,1.775,0,0,1,1.4-.6l-.7-1.4c.7-.5,0-.6-.6-1.3a.9.9,0,0,1,1.3.1l-1.2-1.4c0-1.3.6-1.3,1.3-1.8L50.5-25l.6-.7c0-.6-1.3-1.9,0-1.9-.5-.7.2-2-.5-2l.7-.6c0-.7.1-1.3-.6-1.3.7-.7,0-2,.7-2-.7-1.3-.6-1.9.1-3.9-1.3-.6-.6-1.9-.6-3.2-.6,0-1.3,0-1.3-.7.1-.6,1.4-.6,1.4-1.3,0-.6,0-1.3-1.3-1.9.7,0,.8-.7,1.4-.7-1.3-.6-.6-1.9-1.9-2.6l.6-.6C50-49.1,49.3-49.7,49.3-50.4Zm56.6-3.8a1.973,1.973,0,0,0-3.8-.4l-.7.5c-.6.6-.2,1.2.5,1.8l-.8.7h.7l-.8.6,1.3,1.3a3.173,3.173,0,0,0-.9,1.8c-.1,1.2.3,3.8.2,5-.7,1.2-.9,2.4-.3,2.5-.2,1.9-1,3.6,0,5l-.4.5c-.1.6-.3.7-.4,1.3,0,.6.6,0,.6.6v.7c.7,0-.7.6-.7,1.2a.487.487,0,0,1,.5.6.487.487,0,0,1-.6.5l1.1,1.4h-.7a2.552,2.552,0,0,0,1.3.6.72.72,0,0,0-.7.6c-1.6,1.8,1.6,2.7-1.2,3.7h.7a4.418,4.418,0,0,1,.4,2.5c.5,2-1.1,5,.7,6.3l-.7,1.2c-.2.6.4,1.3-.2,1.3l1.1,1.2-.7.6-.2,1.3c.6,0,.6,0,.7-.7l.8,1.3c-.7-.3-.9,0-1.5,0,.6,0,.6,0,.5.6l2.7-.3-.6-1.3c.7.1.8-.5,1.4-.5v-.6l-1.2-.7c.8-.5.7.1,1.4-.5.2-1.3,1-2.3-.3-3.1l.7-1.2c-1.9-.2,1.5-1-.3-2.5l.6.1c-1.1-1.5.9-2.4-1-3.3l.7-.5v-.6c-.4-.8,1-3-.9-3.3,1.5-1,.9-1.7.3-2.5l1.3-.3-1.1-.9a11.09,11.09,0,0,0,.6-6.1c-.6-.1-.6-.1-1.3-.7a.869.869,0,0,1,1.3.1c-.5-.7.2-1.9.3-2.5a5.283,5.283,0,0,0-1.3-.1l1.4-.5c-.6-.6.2-1.9-.4-1.9l.4-2,.5-1.1h-.6l.1-.6-1.3-.8c.6.1,1.3-.4,1.9-.3-1.8-1.6.4-2.5-1.5-3.4l.6-.4c-1.8-.9.8-.6.1-1.3a5.743,5.743,0,0,1-3.1-1.1c1.5-.4,2.5.9,3.4-.1C106.5-53.5,105.9-53.6,105.9-54.2Zm-16,1.7c-.6-1.3-1.2-1.3-2.3-1.4-5,1.4-8.2,4-13.3,5.3-3,.2-4.9,1.9-7.9,2.1-2.1,2.2-5.7,1.8-6.7,4.7.6.1.4,1.7,1,1.1,1.9-.9,5.6-1.1,7.7-2.6l-.6-.3v-.6c.6.9,1.2.3,1.2.9,3.1-1,5.7-2.5,8.7-2.9,1.8-.9,3.7-2.5,6.1-1.1-1.2,0-1.9,1.6-2.5,1.6l.5.6c-2.1,2.8-5.6,6.7-7.2,10.1-.7,1.1-1.9,1-2.5,1.6,1.2,1.3-.8,1.8-.4,3.6-2.1,3.4-4.4,7.3-7,10.8l-.9,1.7c1.2.1.5,1.9,1.2.1,2.3.8,2.1-1.7,3.3-1.4v-.6c1.2-.6,1.4-2.4,2.6-2.9l-.5-.6.6-.5s.8-1.2.2-1.2c.6,0,1.3-.6,1.9-1.1,0-.6-.5-1.3.1-1.8,0,0-.6.5-.6,0,1.2-.6,1.8-.5,3,.3-.1,1.2,2.4-.4,1.1,1.3l.6.1-.6.5,1.5,1.5c0,1.8,2.4,1.4,1.6,3l.7-.4.5.6c0,.6-.6.6-1.2.4l1.7,1.5v.6l-.1.5c-.3,1.8,3.4,1.5,3.8,3.4l-.8.5c2.9,1.2,3.8,1,4.2.5a2.527,2.527,0,0,0-1.5-1.4l.6-.5-2.6-3.3c-.9-4.9-4.1-7.6-6.6-12.1-.6-.7-1.6-1.5-1.6-2.1s0-.6.6-.4l-.6-.8.7-.4c0-.6-.6-.2-.6-.8l.6.2c.8-1.1,2.8-2.8,2.9-4.5-.5-1.3,1.3-1.7,2.1-2.8.7-.6.9-1.8,1.5-2.3a12.78,12.78,0,0,1,4.2-5l-.6-.7L89-51h-.6Zm90.6,24.2c-6.5-4.5-13.7.7-19.6,2.6-3.9,2-8.5,3.3-10.4,6.6,1.8.6,1.9.1,3.7,0-.1.1-.4.2-.4.6.6,0,1.9,0,1.9-.6,3.9-2.6,7.8-3.3,11.7-5.3,2.6.7,3.9-2.6,5.9-1.3.7,0,.7,0,.7.7L161.6-12.6c-2.6,3.2-5.2,5.8-6.5,9.1,1.3,1.3,3.2-.7,4.5.7,3.3-.7,3.9-1.4,6.5-2.7,2.6.7,3.9-3.2,6.6-1.3,0,1.3.6,2-.7,2.6L169.4-.9C164.8,5.6,158.3,10.8,157,18c.7,0,.7-.6,1.3-.6,1.3-.7,1.5-.7,2.2,0l-.9.6,2-.6c1.3,0,2.6,0,3.2.6,0-1.9,2,0,2.6-1.3,3.3-1.3,5.1-1.2,7.8-3.5l1.3-.5a70.31,70.31,0,0,1,6.8-3.1c.7-3.3,5.3-2,4.6-4.6.7,0,.7-.6,1.3,0V4.4c0-.7-1.3-.7-1.3-.7a64.936,64.936,0,0,0-12.4,4.6l-2.2,1.2c-2.6,1.3-5.9,3.3-9.1,2.6,1.9-2.6,1.3-4.5,3.9-5.8,1.3-3.9,5.9-5.2,6.5-9.1,1.3,0,0-1.4,1.3-.7,1.3-.7.7-3.9,3.3-4.6l-.7-.6.7-.7h-.7l.7-.6c-3.9-3.9-9.8,0-13.7.6,0,2-2,1.3-2.6,1.3v-.6c4.5-4.6,8.4-9.8,13.7-14.4,1.3-1.3,2.6-3.2,3.9-4.5ZM130.3-59.5c0-1.4-.7-.7-2-.7-.6.7-2.6,1.3-2.6,2.6s-1.3,2.6,0,3.3l-1.3.6c0,2,.7,2.6-.6,3.9-.7.7-2.6,0-2.6-.6a7.276,7.276,0,0,0-5.2,4.5c1.9,0,3.9,0,5.2-.6,1.3,0,2.6-.7,3.2,0l-.6,2.6c.6.6-2,3.3.6,3.9-1.9.7-.6,2-1.9,3.3.6,0,1.3,0,1.3.6-1.3.7-1.3,2-1.3,3.3,0,0,1.3,0,1.3.6,0,1.3-2-.6-2,1.3.7.7,0,1.3-.6,2,.6.6,1.9-1.3,1.9,0,.7.6-.6,0-.6.6h.6v.7a.588.588,0,0,1-.6.6c.6.7-.7.7-.7,1.3.7,0,.7,0,.7.7l.6,1.3c3.3,1.3,6.5-.7,9.8-2,4.6-1.3,9.1-4.5,13.7-5.8,1.9-2.6,6.5-1.3,8.5-3.3-2-1.9-4.6-.6-6.6,0-7.1,1.3-13,5.9-20.2,7.2-.6-3.3,0-6.5-.6-9.8.6-2.6,1.3-4.6.6-7.8l.5-.6.2-2.7c.6-1.9,2.6-1.3,3.9-2.6,4.6-1.3,9.1-3.9,13.7-5.2a5.938,5.938,0,0,0,3.2-2.6c-.1-.2-.8-.9-1.2-.9-4.1.4-8.3,2.7-11.8,4.5-3.3,0-4.6,2.6-7.2,1.9l.3-1.1c0-1.3-.3-.4-.3-1.7-.6,0,0-1.1,0-1.1v-.9c-.6,0,0-.7,0-.7C129.6-59.5,129.6-59.5,130.3-59.5Zm52.8-2c-2,0-2-2.7-3.9-2-1.3,1.3-4.6,2.6-4.6,5.2-2.6.7-5.2,2-7.8,2.6-5.9,3.3-14.4,3.9-18.3,10.4l2,.7c2.6-.7,2.6-3.3,4.6-2.6,3.9-2.6,8.4-2.6,11.7-5.2,3.2,0,5.9-3.9,8.5-2a.686.686,0,0,1-.7.7v1.3l-.6.6c1.3,1.3,0,1.3.6,3.3.7,0-1.3,1.9.7,2.6l-.7,1.3.7.6h-.7l.7.7c1.3.7,0,2-.7,1.3l1.3,2a.588.588,0,0,1-.6.6c1.3,1.3,0,3.3.6,4.6l.7,1.3,1.3-.7c1.3-.6.6-1.3,1.3-1.3l-1.3-1.3c1.3,0,1.3-1.3,1.9-1.9-.6-.7.7-1.3.7-1.3-.7-1.3,1.3-1.3,0-2,.6,0,.6-.6.6-1.3-.6,0-1.3,0-1.3-.7v-.6l.7.6c0-.6,1.3-.6,1.3-1.9-.7,0,0-.7,0-.7l-.7-.6c-.6-1.3.7-2,.7-2.6a.686.686,0,0,1-.7-.7l.7-.6a6.269,6.269,0,0,1-.1-1.1c.6-.7.3-1,.1-1.5h-.7l.7-.7-.7-1.3h1.3l-1.3-1.9c0-.7,0-.7.7-.7l-.7-.6,1.3-.7-.6-.6C181.8-60.9,183.1-60.2,183.1-61.5ZM154.4-77.8c-.6-1.3-2-.6-3.3-1.3-5.2,2.2-11.1,3.6-16.2,5.9-6.8,3.1-14.4,4.5-19.6,10.4l1.4.2.6.4c1.3,0,2.8-.3,3.4-1-.6,0,1-.8,1-.8,7.8-4.5,15.2-6.1,22.9-9.3,1.3-.3,3.6-2.3,6.5-1.9A13.568,13.568,0,0,0,154.4-77.8Zm94.3,25.1c1.2-1.2-2.4-1.2-3.6-1.2-6,1.2-10.8,1.2-15.6,4.2-.6-1.2-1.3-.8-1.9-.8l-.5-.4h-.6l-.3.7c-1.8.6-2.7.5-3.9,1.7a8.917,8.917,0,0,0,1.2,5.4c-.6,0,0,.6-.6.6,0,1.2-.6,1.2.6,1.8a2.1,2.1,0,0,1-.6,1.2c-.6.6,0,.6.6,1.2-.6.6,0,1.8-.6,2.4a.588.588,0,0,1,.6.6c0,.6-.6.6-.6,1.2h.6c.5.6.1,1.1-.5,1.2.4.2-.1,1.2.5,1.2-1.2,1.8,3,0,1.8,1.8,1.2.6,1.2.6,1.8,0h-.6v-.6c.6-.6,1.8,0,2.4.6,0-1.2-2.4-.6-1.8-2.4,0-1.2,1.8-1.2,2.4-1.2a1.858,1.858,0,0,0-1.2-.6c.6-1.8-1.8-1.2-2.4-2.4,1.2-.6,2.4.6,3.6-.6a2.963,2.963,0,0,0-1.8-.6c0-1.2.6-.6,1.2-1.2l-.1-.6-.6-1.2c0-.6.7,0,1.3-.6a1.858,1.858,0,0,1-1.2-.6l1.2-1.2-1.8-1.2c1.2,0,1.8-1.2,2.4-1.2l-.6-1.2c1.8.6,2.4-.6,4.2,0-1.2-1.2-.6-1.8-.6-3,.6.6,1.2,0,1.8-.6a1.247,1.247,0,0,0,.5,1.3l.7-.1c0-.6,1.2-1.2,2.4-1.2,1.8,1.8,4.2,0,4.8,2.4a3.117,3.117,0,0,1-2.4,1.2c-.6.6-.6.6,0,1.2-.6,0-.6.6-1.2,0-.6.6-.6,1.8,0,1.8l-1.2.6v.6l-.6.6h.6v.6c-3,1.2-2.4,4.8-4.8,6.6-.6,0-.6.6,0,.6l-.6.6.6.6c-1.2,0-1.2,1.2-2.4,1.8,0,.6,1.8,1.2.6,1.8-1.8-1.2-.6,1.2-2.4,1.8l1.2,1.8-1.2,1.2c1.2.6,2.4-1.2,3.6-1.2.6,0,1.2.6,1.8,1.2-.6,1.2-1.2-.6-1.8.6-.1.4.7.4,3,0l-.6-.6v-.6a1.15,1.15,0,0,1,1.8.6l-.6.6h.6c0-.6.6-1.2,1.8-.6l-.6-.6c1.2-.6,1.8,0,3-.6,1.2,0,2.4-1.8,3.6,0,.6,1.2-1.2,1.2-1.2,2.4.6,1.2-.6,1.2-.6,1.8,0,1.2-1.2,2.4-1.2,3.6,0,1.8-2.4,3-1.8,4.8,0,.6-.6.6-.6,1.2a12.06,12.06,0,0,0-2.4,4.8c-1.8,1.8-1.8,5.4-4.8,7.2.6,1.2-.6,1.2-1.2,2.4.6,0,1.2-.6,1.8-.6,2.4-1.8,4.8,1.2,7.2.6,4.2-2.4,9.6-3.6,14.4-4.8,0-1.2,1.8,0,2.4-1.2,2.4.6.6-1.8,3-1.8a8.917,8.917,0,0,0-5.4-1.2c-4.8.6-9,3.6-13.8,3.6,0-1.2,1.2,0,1.2-1.2s-.6-1.2-1.8-1.2c1.2-1.2,3-1.8,3.6-2.4,0-.6-.6-.6,0-1.2,0,0,0-1.2,1.2-.6l-1.2-1.2c.6,0,0-.6.6-1.2a13.088,13.088,0,0,1,3-2.4l-1.2-.6c.6,0,0-1.2,1.2-.6v-1.2c1.2-1.8,0-4.2,2.4-4.8,0-1.8.6-2.4-.6-3.6.6,0,1.1-1.1,1.7-.6l-.5-.6c.6-.6.6-.6,1.2-.6a.831.831,0,0,1,0-1.2c-4.2-6.6-10.2.6-15.6,0l1.2-1.2-1.2-.6a1.858,1.858,0,0,1,1.2-.6l-.6-1.2,1.2-1.2c.6-.6.6-1.2,1.8-1.8a3.388,3.388,0,0,1,1.2-3.6c-.6,0-.6.6-1.2,0,.6,0,1.2-2.4,1.8-.6,0-.6,0-.6-.6-1.2.6,0,1.2-1.2,2.4-.6-.6-1.2,1.2-1.2,1.2-1.8,0,0-.6.6-.6,0-.6-.6,0-1.2.6-1.8,1.7-.6-.5-2.3,1.6-2.4-.6-.1-1.6-.6-1.6-1.2h1.8l-1.2-.6c.6-1.2,2.4-1.8,3.6-3h-.6a8.283,8.283,0,0,0-2.4-1.8C246.9-53.9,248.1-52.7,248.7-52.7Zm-21,4.2c-.6,1.2-2.4.6-3,1.2,0,0-.4.1-.4-.5l.4-.7C225.9-48.5,227.1-49.7,227.7-48.5Zm5,0c-1.2,1.8-2.4.6-3.6.6,0-.6,0-.6-.6-.6C229.7-49.1,230.9-48.5,232.7-48.5Zm6.4-1.8c.5-1.7,2.2-.1,3.4,0ZM227.7-27.5l-1.2-1.2h-.6Zm1.8,1.2a1.858,1.858,0,0,0-.6,1.2l.6-.6Zm91.9-44.9v.6c-1.2-1.2-2.4.6-3,1.2-.6,1.2,0,2.4-.6,3.6,1.2.6,0,1.2.6,1.8,0,1.2-1.8,1.2-3,2.4.6,0,1.2,0,1.2.6H316c-2.4-.6-4.2,1.8-6,2.4-3.2,1.9-4.9,3.1-8.9,5.6a.588.588,0,0,1,.6.6l-.6.6a.588.588,0,0,0-.6-.6c-1.8,1.2-4.8,2.4-5.4,4.8-.6,0-.6-.6-1.2-.6,0-.6.6-.6.6-1.2-1.2-1.8.6-2.4-.6-3.6,1.2-.6.6-3,.6-3.6s0-.6-.6-1.2l.6-.6c-1.2-1.2.6-1.8,0-3-1.8-1.2,1.2-1.8.6-3,1.2-1.8-1.2-2.4-2.4-3.6-1.2.6-1.8,3-2.4,4.8l1.2.6a.588.588,0,0,0-.6.6l-.6.6c-.6.6.6,1.2.6,1.8l-.6.6c-.6.6,0,1.8.6,2.4-1.2,0,0,.6-1.2,1.8h1.2c-1.2.6-.6,2.4-.6,3.6h-.6c0,1.2,1.8,1.8-.6,3,1.8.6.6,3,1.2,4.2-.6,2.4-3,1.8-3.6,3.6-3,3-4.8,7.2-6,11.4l.6.6h-.6l.6.6-1.2,1.2h1.2l-1.2,1.2c.6,0,1.2-.6,1.2,0l-1.2,1.2c2.4,0-.6,2.4,1.8,2.4,0,.6,0,1.7-.5,1.8h1.1l-.6,1.8h1.2a.588.588,0,0,1,.6.6c.6.6,0,1.2-.6,1.2.6,1.2,1.2-.6,1.8.6,2,1.1,3.6,1,4.8,0,1.2-.6.6-1.8,1.8-2.4,0-1.2,1.2-3,.6-4.2,1.2-1.2-.6-3.6,1.2-4.2v-.6c-.6-1.2-.6-3.6.6-4.2,0-1.2-1.2-2.4,0-3-.6-.6.6-2.4-.6-3h.6a.588.588,0,0,0-.6-.6l1.2-1.2-1.2-.6c7.8-7.8,14.3-11.6,22.7-17,1.2,0,1.2.6,1.8,1.2-1.8,1.2.6,3-.6,4.2h.6c0,.6-.6.6-.6,1.2v2.4a2.967,2.967,0,0,1,0,2.6c.6.6-1.2,2.4-.6,3l-.2,1.3c.6,0,.6,0,.6.6.6.6,0,.6,0,.6,0,.6,0,.6.6.6.6.6,0,2.4,0,3a17.519,17.519,0,0,1,1.2,5.4c1.2,2.4,3,1.2,5.4,1.8,0-1.2-.6-1.8-1.8-2.4,1.8,0-.6-1.8,1.2-1.8v-.6c-.5-1.4.3-2.8-.6-3l-1.2-.6c0-.6,1.2-.6,1.2-1.2-.6,0,0-1.2.6-1.8-1.2,0,0-1.2-1.2-1.8l.2-1.9c1.2-.6-1.2-1.2.6-1.8l-.1-.8-1.1-.6,1.2-1.2-.6-.6v-.6a.588.588,0,0,1,.6-.6v-.6c-.6-.6,0-2.4,0-3.6l-.7-.4c0-1.2-.5-2,.7-2.6l-.6-.6.6-.6a.588.588,0,0,1-.6-.6h.6c.6-1.2-1.2-1.8-.6-2.4a2.725,2.725,0,0,0,0-3c.6,0-.6-1.2.6-.6.6-1.8-1.8-1.8-1.2-3,0-1.2,1.8-1.2,1.8-2.4Zm.7,49a13.4,13.4,0,0,0-5.1-2.4,43.669,43.669,0,0,0-9.9,8.9c-.5.7-.8,3.7-2.6,3.3.5-.7.4-1.8,1.5-2.6l-.6-.5c-1.4-1.1.4-1.9-.2-1.8l-.6.1-.7-.6c1.1-.7-.3-2.3,1-1.9a.487.487,0,0,1,.5-.6c1.2-.2.6-.7.5-1.3-1.2.1-2.7-2.1-3.7-.2L300.9-18c0,.6-.5,1.8.8,2.3l-.5.6c.1,1.2-1.6,2.6.4,3.6-1.7,1.4-.9,3.1-1.4,4.4,0,0,.2,1.2.8,1.1a.716.716,0,0,1-.6.7c1.4,1.1-1,1.9.9,2.3l-1.1.7c1.2-.1.7,1.2.7,1.2-1.1,1.3.3,2.3-.7,4.3,2.3-.3.2,2.4,2.1,2.8.5-.2.7.4,1.2-.2,2.8-1.5-2.1-2.2.8-3.7a4.869,4.869,0,0,1-1.2.1L304.7.9c-.6,0-.6-.6-1.2-.5.5-.7,1-1.3,1.6-1.4l-.7-1.1c1.7-.8-.9-2.9.8-3.7-.1-.6-.1-1.2-.7-1.2,1-1.9,3,.3,4-1.6a.864.864,0,0,1-1.2.1L309-9.9c1-1.3-1.3-1-2-1.6l.5-.6a3.356,3.356,0,0,0,4-2.3c1.6-2,2.7-3.3,5.1-3.5,2.5.9-.4,1.8.3,3.5l.7.6c.1.6-.5.6-1,1.9l.2,1.8c.1,1.2-.8,3.7-.1,4.8a.6.6,0,0,0,.7.5l-1.1.8c-.6.6.1,1.2.7,1.1-.5.7-1.1,1.3-1,1.9.6,0,.6,0,.7.6-1.1,1.3-.8,3.7-.7,4.9.1,1.1-1.6,1.9-.3,2.4-.6.7-1.1,1.3-1,1.9.1,1.2.2,2.4-.9,3.1l.6.6,1.6-2a2.124,2.124,0,0,1,.8,1.1l1.8.4v-.6c1.8.4,2.3-.8,2.7-2.1,3-1.8,4.1-3.1,6.4-4.6.8-.8.7-1.2,1.2-1.9a2.409,2.409,0,0,1,1.8.4c-.1-1.2,1-1.9,1.6-2.5,2.4.3-.3-2.4,2.2-2.1l-.1-.6c-.1-.6.4-.6.5-1.2-.6,0-1.2.7-1.8.7-4.7,1.2-4.2,1.6-9.4,4-1.6,1.4-1.8,1.3-3.7,1.3l.6-.7c-1.2.2-.8-1.7-.8-1.7.6,0,1.1-.7,1.1-.7-.6.1-1.2.1-1.3-.5.6-.6.5-1.2,1.7-1.4l-1.5-2.2.6-.1c-.1-1.2.9-3.1.2-4.2l.6-.1c-.8-1.1,1-1.9.2-3-.5,0-.5,0-1.2-.5l1.6-1.4-.5.1c1.1-.8-1.6-2.9.8-3.1l-.6-.6a.487.487,0,0,0,.5-.6c-.7-.6.5-1.3.4-1.9-.7-.4-.7-1-1.2-1C321.7-20.9,321.6-21.5,322.1-22.2ZM271.7-58.3c-2.4-2.4,1.2-6-2.4-7.2a8.911,8.911,0,0,0-2.4,8.4V-56c2.4,1.2-1.2,3.6.6,4.8.6.6,0,1.2-.6,1.8,2.4,1.2-1.8,2.4.6,3.6h-.6c-.6,1.2,1.8,2.4,0,3,1.2,1.2.6,3,.6,4.8v.6s.6-.6.6,0l-.6.6c0,.6,0,1.2,1.2,1.8.6,1.2-1.2.6-1.2,1.8,1.2.6.6,1.2,0,1.8,1.8,0,1.2,3,1.2,3,1.8,1.2-.6,3,1.2,3.6,1.2,1.2,1.8,3,3.6,2.4,0-.6,0-2.4-1.2-2.4,0-1.8-.6-3-.6-4.8-.6-.6.6-1.8-.6-3l.6-4.2c-.6-.6,0-1.8-.6-2.4h.6l-.6-.6c.6-2.4,0-4.2,0-6h.6l-.6-.6V-57.7Zm18,24.5-.6,1.2s.6,0,0,.6l-.6.6c.6.6,1.2,1.8.6,2.4a46.314,46.314,0,0,1-1.2,9c-.6.6-1.2,1.2-1.8.6a4.549,4.549,0,0,0-1.2-2.4c.6-1.2-1.2-3.6,0-5.4v-1.2a35.376,35.376,0,0,1,2.4-4.8c1.2-.6.6-1.8,1.8-2.4l1.2,1.2h-1.2Zm78.4-7.8A31.975,31.975,0,0,1,379.2-44c1.2.1,2.5-1,3.7-.9.7-1.1,2.5-.3,3.7-.8,1.8.2,1.9-.4,3.7-.2.7-1.1,3,.3,3.7-1.4-1.2-.1-2.9-.9-4.1-.4a14.484,14.484,0,0,0-2.8-1.4l-1.3.3-1.2-.1a6,6,0,0,0-3.7.8c-1.6-2-4.3.2-6-.6-1.9.4-3.8,2-5.5.6.1-.6,1.2-.5.7-1.1l-.5-.7c0-.6,1.2-.5,1.2-.5.8-1.1-.4-1.2-1-1.3.7-1.1,1.8-.4,2.5-.9l-.5-.7-.6-.6c.7-.6.7-.6.1-.6l.6-.6c.2-1.2.2-1.8-1-1.9l.7-.5.1-.6.6-.6c.2-1.1.3-2.3-.3-3l.7-.5.1-.6c0-.6.1-1.2.7-1.2l1.1-1.3,1.1-2.6c-.5-1.5-3.1-1.7-7.1-.8a49.022,49.022,0,0,1-6.9,1.7c-2.9-.3-5.6,1.8-8.6,1.5-1.9,1.6-4.9,1.3-7.4,2.2,1.6,2,3.5,1,5.9,1.2,2.5-1.5,6.2-1.7,9.3-2.6,1.8.2,4.4-1.9,6.7-.5a7.42,7.42,0,0,0-1,3.5c-1.2.5.4,1.9-.9,2.9-.7,1.2.4,1.9-.9,2.4.6.6-.1,1.8.4,2.4l-.7.6c-.8,1.7,1,1.9,1.6,2.5-.7.6-1.2-.1-1.9.4.6.1.5,1.3.4,1.9l-.6-.1.6.7-.7.5a.6.6,0,0,1,.5.7c-1.2.4,0,.6-.7,1.1-1.8-.2-3.7.8-5.5.6-2.5,1-5.5.7-6.9,2.3-5.5.6-10,3.2-14.4,5.1-1.8.4-4.4,2-3.5,4.5,1.3-.5,1.1.7,1.7.8.2-1.8,1.9-.4,3.1-.3.8-1.7,2-1.6,2.7-2.7,1.2.7,6.7-1.6,6.1-1.2,3.1-.3,5.8-3,9.3-2l.1-.6a24.38,24.38,0,0,0,5.5-1.1c-.1,1.3-.5,2.8-.5,4-.6.6,0,.6.6,1.2-1.8.6.6,1.8-1.2,2.4-.6,1.2.6,1.2.6,2.4,0,0-.6,0-.6,1.2,1.8,0,0,1.8,0,1.8l.6.6c0,.6.6,1.8-.6,1.8.6.6,1.8,0,2.4.6l.6-1.2c0,.6,0,.6.6.6-.6-.6.6-2.4,0-3a.588.588,0,0,1,.6-.6c-.1.1.3-1.7-.6-1.2,0-.6,0-.6.6-.6-1.8-2.4,3-2.4.6-4.2a21.319,21.319,0,0,1,1.2-6c-.6,0-.1-.5-.1-1.1Zm11.1,18.7c-1.2,0-2.3-1.3-3-1.2a126.877,126.877,0,0,0-22.8,5.4c-1.8.6-4.2-.6-4.2,1.8,2.4.6,4.2,3,7.2,1.8-.6,0-1.2,0-1.2-.6.6-.6,1.8,0,2.4-.6.6,0,2.4-1.8,4.8-1.2,3-1.8,6.6,0,10.2-1.8.6.6,1.8,0,2.4,0,.6.6-.6,1.2.6,1.8-1.2,1.8-1.2,4.8-1.8,6.6-1.2,1.2.6,2.4-.6,3,0,3-1,5.4-.4,7.2-1.2,1.8-.6,3.6-.6,6,0,0,.6-.6.6,0l-.6.6c-1.2-.6,0,1.8-1.2,1.8.6.6.6,1.8,1.8,1.8-.6,1.2-1.2,0-1.8,0,0,.6-.6,1.8,0,1.8s0,.6,0,.6c.6.6,2.4,0,2.4,1.2,1.8.6,1.8-.6,3-.6l-1.2-.6c.6-1.2,1.8-1.2,1.8-2.4a1.15,1.15,0,0,1-.6-1.8h.6l-.6-.6c.6-.6.6-.6,1.2-.6V5.9c-.6-1.8.6-3-.6-4.2.6,0,.6-.6,1.2-.6L377,.5l.6-.6c0-.6.6-1.2-.6-1.2l1-2.4c-.6-.6.6-1.2.6-1.2L378-6.1a1.29,1.29,0,0,0,1.2-1.2c-1.8-.6-.6-2.4-.6-2.4-.6,0,0-.6,0-.6a.588.588,0,0,1,.6.6c0-1.2.6-2.4,0-3.6,0-.6.6-.6,1.2-.6-.6-.6-.6-1.2-1.8-1.8l1.8-1.2c-.6,0-.1-1.1-1-1.2a1.286,1.286,0,0,0,1-1.2l-.6-.6.6-.6Zm56.4-32.6c-1.2-1.2-1.2-2.4-3-2.4-1.2.6,0,1.8.6,2.4h-.6c.6,3,1.2,7.8.6,10.2l.6.2c-.6.6,0,2.2,0,2.2-.6,2.4,0,5.4,0,7.8-1.2,2.4.6,4.2-1.2,6.6,0,1.2-.6,2.4,1.2,3l-.6,6.6c1.8,1.2-1.8,2.4.6,3-.6.6-1.2,1.8-.6,2.4-1.2.6.6,1.8-.6,1.8a7.61,7.61,0,0,1-.6,3.6h1.8l-.6.6c-1.2,0-1.2,1.8-.6,3,0,1.2,1.2,2.4,1.8,1.8l-.6-.6c1.7.6.7-1.6,2.1-1.8-.3,0-.3-.1-.3-.6-.6-.6.6,0,.6-.6-.6,0,0,0-.6-.6,0-.6.6-.1.6-.6-.6-.6-1.2-1.8-.6-2.4.5,0,.1-1.1,0-1.2a.9.9,0,0,1,.6-.6c-.7-1,.7-1.6,0-1.8-1.2-1.8,1.2-1.8,1.2-3h-.6c0-.6-.6-.6,0-1.2a.588.588,0,0,1-.6-.6c0-.6.6,0,1.2,0l-1.2-1.2c1.2,0,0-.6.6-1.2,1.8-1.2-1.2-1.8,0-3.6-.6,0,.6-1.2,0-1.8l1.2-1.2-.6-.6c.6-.6,1.2-1.2,2.4-.6a.588.588,0,0,0-.6.6h.6c1.2-.6,0-1.2,0-1.8h2.4l-.6-.6c.6-.6,1.1-.4,1.1-1l.1-.2c1.2-.3,2.4,0,2.4-.6.6-1.8,3,0,4.2-1.2h-1.2c.6-2.4,1.8,0,2.4-.6a.588.588,0,0,1,.6-.6,2.1,2.1,0,0,0,1.2.6v-.6a6.044,6.044,0,0,1-1.8-.6c-1.8,0-3,1.7-4.2.5l-.6.1s-.6-.6,0-.6h1.8c3,.6,2.4-3,4.8-3-1.2-1.8-3,0-4.2-.6v-.6a29.247,29.247,0,0,0-6.6,2.4c-1.2,0-2.4,2.4-4.2,1.2-.6-1.8.6-3.6-1.2-4.8l.6-.6c-1.8,0,1.2-1.2,0-2.4l-.2.4-.4-.4.6-.6a6.268,6.268,0,0,1,.1-1.1l-.2-.6-.5-.1c1.8-1.8-1.2-3.6,0-5.4-1.8-.6.6-1.8-.6-3-.6,0-1.2,0-1.2-.6C435-54.9,435-55.5,435.6-55.5ZM416.2-45.3c-.6-2.4-2.4-3.6-3-6-2.4,0-4.2,1.8-6.6,2.4-3,1.8-7.8,3.6-9.6,7.2.6,1.2.6,3,1.2,3.6a30.51,30.51,0,0,0,7.8-3.6l-1.2-.6c.6,0,.6-.6,1.2-.6,1.2,1.2,1.2-.6,2.4-.6,1.8,0,2.4-1.8,4.2,0H412a1.125,1.125,0,0,0,0,1.8l-.6.6c1.8.6-1.2,1.2.6,1.8-.6,0-.5.3-.7.6.1.2-.3,1.2.7,1.2-1.2.6,0,3-1.2,4.8l1.2.6c-1.8.6,0,1.8-1.2,2.4.6,0,.6,0,1.2.6l-1.2,1.8h.6c0,1.2-.6,1.2-.6,1.8s1.2,1.8,0,2.4l.6.6h-.6c0,.6.6,1.8,0,2.4.6,0-.6,1.2.6,1.8h-.6c.6.6-.6,1.8.6,1.8-.6,2.4,1.8,1.8,3,3v-1.8c-1.2-.6,1.2-1.8,0-1.8l1.2-1.2h-1.2c0-.6.6-1.2,1.8-.6,0-.6.6-.6.6-1.2-.5-.4-1,.2-1.4.2h-.1c-.1,0-.2-.1-.3-.2a.588.588,0,0,1-.6-.6h-.6c-.6-1.2,0-2.4.6-3.6h-1.2c.6-1.2,1.2-1.2,1.2-2.4a.588.588,0,0,1,.6-.6c-.6-1.2-.6-3-1.2-3.6h.6c0-.6.6,0,.6,0l-.6-1.2v.6l-.6-.6c1.2,0,.6-1.2,1.2-1.2-1.2-.6.6-1.8-.6-1.8,0-.6,0-.6.6-.6a10.211,10.211,0,0,0-.6-4.2l.6-.6h-.6c1.2-.6,0-2.4,1.2-3h-1.2c.6-.6.6-1.2,1.8-.6l-.6-1.2Zm32,7.8c0,1.2-1.5,1-1.2.6C447.2-36.9,447.6-38.1,448.2-37.5Zm-14.6-18h.2l.4-.2.2.2-.6.4ZM415-20.1l.3.2h.1l-.1-.4-.5-.2-.1.3ZM437.7-35l-.2.2-.2-.3-.1-.4.4.2Zm96.5-41.3c-2.4,0-6-.6-7.2,1.2a1.314,1.314,0,0,0,.6,1.8H527c0,1.2,0,1.2-.6,1.8l1.2.6c0,.6-1.8,1.2-.6,1.8l-.6.6c3,.6-.6,3,1.2,4.2-.6.6,0,1.8,0,2.4v.6c.6,0,0,.6,0,.6,0,.6-.6.6,0,1.2,0,.6.6,1.2,0,1.8l1.2,1.2h-1.2c0,.6,0,.6.6,1.2,0,1.2,0,1.8-.6,2.4.6,0,.6.6,1.2.6l-.6.6h1.2a2.1,2.1,0,0,1-.6,1.2l.6,1.2a1.286,1.286,0,0,1-1,1.2h.4s.6.6.6,0l.6.6c0,1.2.6,1.8-.6,2.4-8.4,1.2-15.6,4.8-23.4,7.8-1.8,2.4-5.4,1.8-7.2,4.8,3,1.2,6,0,8.4-1.8h-.6c0-.6.6-1.2,1.2-.6,1,1.5,2.3-.7,4.8-1.2,1.8-1.2,4.2-1.2,6-2.4,1.8,0,3.6-1.2,5.4,0-.6.6-1.2.6-1.8,1.2-5.4,6-8.4,12.6-13.8,19.2v1.2c-1.2,1.2,0,2.4,0,3.6l.6,1.2c.6.6,1.8-.6,2.4-.6-.6-1.8,1.8.6,2.4-.6h-.6l1.2-.6c1.2-1.2,2.3-.1,4.1-.1l.7.1c1.2-.6,2.4-.6,4.2-1.2v-.6c.6,0,1.2-.6,1.2,0l-.6.6c1.2.6,1.8-.6,1.8-1.2.6-.6,1.8-.6,3-.6-.6.6,1.2.6,1.2,1.2l-.6.6c-2.4.6-1.2,4.2-3.6,5.4.6,1.8-1.8,1.8-1.8,3.6-.6,0-.6.6,0,.6-4.8,4.8-9,10.8-14.4,15.6-.6,0,.6.6-.6.6,0,1.2-1.8,1.8-.6,2.4v.6c.6,0,1.2,0,1.8,1.2l1.2-.6c.6,0,0,.6,0,.6,1.2,0,.6,0,1.2-.6,1.2-1.8,2.4,1.2,4.2,0l-.6-.6c.6-.6.6,0,1.2,0l3.8-.8v.6c1.2,0,1.8-.6,1.8-1.2,1.8,1.2,2.4-1.2,4.8,0,.6-1.8,2.4-1.2,3.6-1.8,1.2,1.2,2.4-.6,3.6-.6.6-1.2,1.8,0,2.4-1.2,2.4.6,4.8-1.2,7.2-1.2,0-.6,0-.6-.6-1.2.6,0,1.8,0,1.8-1.2l-3,.6c-7.9,1.6-15.2,3.2-21.9,4.4l-1.2.1a45.34,45.34,0,0,1-5.3.5c1.2-1.2.6-1.2,1.8-1.8.5,0,1.1.5.7,1.1l.5-.5c-.6,0,.6-1.2-.6-1.2,0-2.4,2.4-1.2,3-2.4-1.2-.6,1.8-1.2,0-1.8A8.247,8.247,0,0,1,522,2.9a2.84,2.84,0,0,1-1-.6h3c.6-1.2-.6-1.8.6-1.8.6-.6,1.2-.6,1.2-1.8,0-.6.6,0,1.2,0,1.8-.6.6-1.8.6-2.4.6-.6,1.2-.6,1.8-1.2v-.6s0-.6.6,0l.6-1.8c-.6-1.2,1.2-.6,1.2-1.2a.588.588,0,0,0-.6-.6c0-1.2,1.2-.6,1.8-1.2-.6-.6-1.2-1.2-.6-1.2,1.8,0,1.8-1.8,3-1.2,1.2-.6-1.2-.6-1.2-.6,0-1.2,1.2-1.2,2.4-1.8-.6,0-1.2-.6-.6-1.2h.6c-.6-1.8,1.2-.6,1.8-1.8-4.2-3.6-10.8-2.4-15.6-1.2-1.8.6-3.7,1-5.5,1.6l-.5-.4c0,1.2-.6,0-1.2,0-.6-1.2.6-.6,1.2-1.2h-1.2l1.2-1.8c-.6.6-.6,0-1.2,0a24.32,24.32,0,0,0,5.4-3c-1.2-.6-1.8,1.8-3,0,0-.6,1.2-.6,1.8-1.2,0-.6,1.2-.6.6-1.2,1.1,0,2.1-1.9,2.8-1.9l-1-.5h.6c-.6-2.4,2.4-2.4,3-3l-.6-.6c.6-.6,1.8-.6,3-1.2-1.2,0-2.4,0-2.4-1.2l3.6-1.2h-1.2c0-.6,0-1.2.6-1.2h.6c0-1.2,1.2-2.4,2.4-3l-1.2-.6,3.6-1.2-.6-.6c.6,0,.6-.6,1.2-.6l-1.2-1.8c.6,0,.6-.6,1.2-1.2h-1.2q.9-1.8,1.8-1.8c-.6-.6-.6,0-1.2-.6a.588.588,0,0,1,.6-.6,1.3,1.3,0,0,1,.7.3c-1-1,.4-1.6-.1-2.7a.831.831,0,0,1-1.2,0c0-1.2,1.2-.6,1.8-.6,0-1.2,0-1.2-.6-1.8-.6,0-1.8.6-1.8,0,.6-1.8,1.8.6,2.4-1.2h-.6c0-1.2,0-3,.6-3.6-.6-1.2-1.2,0-1.2-1.2,0-.6.6,0,.6,0v-.6a.588.588,0,0,1,.6-.6l-.6-.6c.6-.6-.6-1.8-.6-2.4,1.2-.6-.6-1.2,0-1.8-.6,0-.6,0-.6-.6h1.2c-1.2-.6-1.2-1.8-2.4-1.2v-.6l2.4-.6-.6-.6a3.3,3.3,0,0,0-1.2-3c0-.6,1.2-1.2,0-1.8l.6-.6Zm-29.9.9a17.519,17.519,0,0,0-5.4,1.2c-3,.6-3.6,4.8-5.4,6.6.6,0,.6.6,1.2.6,0,0-.6.6-.6,0-.6-.6-1.2.6-1.8.6-.6.6,0,1.2,0,1.8h-.6c-1.2,1.2-2.4,2.4-1.8,4.2-.6.6-1.8.6-2.4,1.8h.6a.588.588,0,0,1-.6.6c-.6.6.6,1.2-.6,1.8,1.2.6-1.2.6,0,1.8a6.335,6.335,0,0,0-3,1.2c.6.6,1.8.6,1.2,1.8a2.1,2.1,0,0,1-1.2-.6c-1.8.6.6,1.2.6,2.4l-1.8,1.2c-.6,0,0,.6-.6.6,0,.6,1.2.6,1.2,1.2-.6.6-1.2-.6-1.8.6-.6,0,.6.6-.6,1.2,1.2,1.2,3-.6,4.2-.6,0-.6,1.2-1.2,1.8-1.8l-.6-.6c.6-2.4,3-4.8,4.2-6l-.6-.6c1.8-.6,1.8-2.4,3-3.6.6-1.2,1.8-1.8,3-.6h-.6l.6.6v.6c.6,0,0,1.2,1.2,1.2v.6c0,.6,1.2.6,2.4,1.2.6,0,.6,1.2.6,1.2.6.6.6,1.2,1.2,1.8h-.6c1.2,1.8,3-.6,3.6,1.2.6-.6,1.2-1.2,2.4-.6l-.6.6c-1.2,1.8-3-1.2-3.6,0a.588.588,0,0,0,.6.6c0,2.4,3,1.2,4.2,1.2.6.6,3,2.4,4.2,1.8-.6-1.8-1.8,0-2.4-1.2a3.607,3.607,0,0,1,2.4-.6l-.6-1.2c0-.6.6,0,.6,0-.6-1.8-2.4-1.8-3.6-2.4,0-.6.6,0,1.2-.6-3-3-4.8-6.6-8.4-9.6.6-3-3,0-3.6-1.2C498.3-67.6,501.9-71.2,504.3-75.4Zm-6,15.6c0,.6-.6,0-1.2.6l-.1-.5c-.6-.6.1-.7.1-.7S498.3-61,498.3-59.8Zm3,4.8c-.9-.8-1.8,0-1.8-.6C500.1-56.2,501.3-56.2,501.3-55Zm-1.2-3.6c-.6,1.2-1.2,0-1.8,0C498.3-58.6,499.5-59.2,500.1-58.6ZM484.5-43.7l-1.6-.3-.8.9Zm12-17.3h-1.2s.6-1.2,1.2-.6Zm1.2,3,.6.6h-1.2ZM484.5-44.6c0-.6-.6,0-.6,0C484.5-43.4,484.5-45.2,484.5-44.6ZM536-48.7l-.5-.3ZM523.4-28.3a.349.349,0,0,1-.2-.1ZM598-12.7c.5-.1,1.5-.6,2-2.4.7-.7,1.3-1.3,1.9-1.2-.6-.8-.6-.8-.6-1.4.1-.7-1-2,.8-2.6l-.6-.7.6.1a4.092,4.092,0,0,0-.4-2.8l.6-.4a15.651,15.651,0,0,1,.3-3.3s0-.7.6-.7c-1.2-.8-.4-2.6-.4-3.9a10.306,10.306,0,0,1-.9-4.8c1.2-.5-.5-2-.5-2.7,1.4-2.4.9-5.9-.1-7.9-1.2-.6-1.8-1.4-2.4-1.5-2.6,3.2-1.6,7.9-1.9,12.5.6.7-1.2,1.2-.1,2.6,0,0,.5.7-.1.7-.5-1.4-2.3-.2-2.9.3-6.1,1.6-6.7,3.1-12.3,4.6-1.8.7-4.1-.8-5.9.9a3.91,3.91,0,0,0,1,2.2c.6.7,1.7,2,2.9.9.7-.5.7-.5,1.2,0,.9-1.1,2.4-.1,3-1.1a7.565,7.565,0,0,0,1.9-.7,6.411,6.411,0,0,1,4.4-1.7l-.6-.7c.9-1.1,1.5-1.3,1.8-.5a.489.489,0,0,1-.6.5c.6.8,1,1.6,1.1.9l-.5-.8a1.756,1.756,0,0,0,.6-1.2,4.567,4.567,0,0,0,3.1-1.2l-.5-.6,1.7-.6c-.6-.7-1.1.6-1.7-.1,0-1.3,1.1-.6,1.1-1.2.6,1.3,1.8.8,1.8,2.1-.2.6-.8,1.8.4,2-1.2.5,0,1.3-.1,1.9-1.3,1.2-.2,3.3-.9,4.6,1.8.1-.7,1.9,1.1,2-.6.7-.1,1.3-.7,2-.7,1.3.5,2-.7,2.6l1.1.7-.7.6C597-13.3,597.2-13.1,598-12.7ZM563.5-66c0-2.4-2.4-.6-3.6-1.2-.6,0-.6.6-1.2,1.2-4.8-.6-1.2,4.2-3,6h.6l-1.2,1.2.6.6c-1.2,0,.6,1.8-1.2,2.4,1.8,0,0,1.2,1.2,1.2-1.2.6,0,1.8,0,2.4,1.2,1.2-1.2,1.2-.6,3,0,0,.6-.6.6,0,.6.6,0,1.2-.6,1.2,0,.6,0,.6.6.6l-.6.6c0,.6.6.6,1.2,1.2l-.6.6c-.6,0-1.8,1.2-2.4,1.2-3,1.8-7.2,1.2-9.6,3.6,1.8,1.2,3,0,4.8,0,2.4,1.2,6-1.2,8.4,0h1.2c.4-.4.5-.2.6-.1.1-1.1,1.8-1.1,1.2-2.3.6-2.4,3.6-.6,4.2-2.4,1.2,0,2.4-1.2,3-1.2l1.8-.9v.6l.6-.6c1.8-.6,3-1.2,4.2-1.2.6-1.8,3-.6,3.6-1.8-3-1.8-5.4-.6-8.4,0-3,1.2-4.2,1.5-7.2,2.7-.6,0-.6-.6-1.2-.6v-3c1.8-2.4.6-7.2,1.8-9.6.6-.6-1.2-1.8.6-2.4v-.6C562.9-64.2,562.3-65.4,563.5-66Zm24.9,50.6a5.628,5.628,0,0,0-3.6-1.4c-1.4.7-3.6,0-3.6,2.2l-.7,2.1c-.7.7,0,.7.7,2.2h-2.1c0,1.4-2.2,2.8-1.5,5,0,0,.8,0,.8.7-2.2,0-.8,1.4-.8,2.9L578-2l.4.3c-2.2.7-1.5,4.3-2.2,6.4h.7c2.2.7,2.9-2.1,4.3,0,2.2-1.4,2.9,0,5,0V3.3c.8.7,1.5.7,1.5,1.4a2.571,2.571,0,0,0,2.1-.7h-.7c.7-2.9,3.6.7,5-1.4a30.63,30.63,0,0,0,6.1-2.8c1.7-1.2,3.5-1.2,4.9-2.6l-.7-.7c.7-.8,1.4,0,2.1,0v-.8L608-5c-1.5-.7-2.9.7-4.3.7-10.1,3.6-3.8.9-13.2,4.7-1.4,0-4.3,1.4-6.4,0,0-.7,1.4-1.4,1.4-2.1-.7-.8-2.1,0-2.1-1.5.7-.7,1.4,0,2.1-.7,0-.7-.7-1.4-1.4-2.1.7-.8,1.4.7,2.1,0v-.8c-.7.8-1.4,0-2.1-.7,0-1.4,2.1.7,2.9-.7l-1.5-.7c-2.8,0,.7-1.4-.7-2.2a2.675,2.675,0,0,1,2.2-.7v-.7c-.8.7-1.5-.7-2.2-.7,1.4-.7,2.2-.7,2.2-2.2ZM567.1-31.2c-1.8-1.8-4.8-1.2-5.4-4.2-3-1.2-5.4,1.2-7.2,3h1.2l-1.2.6c0,2.4-2.4,3-2.4,4.8h.6c-.6.6-.6.6-1.2.6.6,1.2-.6.6-.6,1.8l.6.6c-1.8,1.8,1.8,1.8,1.2,2.4h.6c.6,0,1.2.6,1.8,1.2.6,1.2,3-.6,2.4,1.2,1.8,0,3.6-1.2,5.4-.6,2.4.6,1.8-1.8,3-1.8l3-3c-.6,0-.6,0-.6-.6l.6-.6c-1.2,0-1.2-1.2-.6-1.8C567.7-28.8,568.3-30,567.1-31.2Zm25-11.4c-.6-1.4-2.4-.9-4.2-1.1-6,1.6-8.5,2.5-13.5,6.7a.6.6,0,0,0,.5.7c0,.7-.6.6-.6.6l-.1.6c.6,1,.8,1.2,2.2.9l1.2-1.1c.7-.9,1.5-.9,2.7-1.5a12.785,12.785,0,0,1,2.4-.8,24.76,24.76,0,0,1,5.6-2c-.5-2.2,3-1.1,4.3-2.4ZM561.7-28.8c.8,0,1.2,1.2,1.8,1.8-1.8.6,1.2,1.8-1.2,2.4l.6.6-3.6,1.8a4.549,4.549,0,0,1-2.4-1.2c0,.6,0,.6-.6.6l.3-1.2c-.6-1.2-.9-.6-.9-.6-.6-.6,0-.6.6-.6-.6-1.8,1.2-2.4,2.4-4.2C559.9-29.4,560-28.8,561.7-28.8Z" transform="translate(0.3 79.1)" fill="#fff"/></svg>