<svg xmlns="http://www.w3.org/2000/svg" width="641.2" height="82.507" viewBox="0 0 641.2 82.507"><path d="M35-41.9c-2.4.6-5.4.6-7.8,1.2-3,.6-5.4,1.8-8.4,1.8-5.4,1.2-11.4,1.8-15.6,5.4v.6c-.6,0-1.2,1.2-1.2,1.8,1.2-.6,1.8,1.2,3,1.2,0-1.2-.6-1.2-1.2-1.8h3c2.4-1.2,7.2-.6,9.6-2.4,2.4,0,6-1.8,8.4-1.8,0,.6,0,.6-.6.6l1.2,1.2h-.6v.6l.6.6c-1.8.6,0,2.4-1.2,3,.6.6-.6,1.8,0,2.4v.6a1.825,1.825,0,0,0,0,2.4l-.6.8v2.8a1.29,1.29,0,0,0-1.2,1.2c.6,0,.6-.6,1.2,0-.6,0-.6.6-1.2.6-.6.6.6,1.8,0,2.4-1.2,1.2,0,2.4,0,4.2l-.6.6c0,.6-1.2,1.8.6,1.8-1.8,1.2,0,2.4,0,3.6h-.6c-1.2,1.2.6,1.2.6,1.8L21.2-3.5c.6.6,0,1.2.6,1.8l-.6.6.6.6L20.6.7H26c5.4,2.4,1.8-4.8,4.2-6.6-.6-.6-1.2-.6-1.2-1.2.6,0,.6-.6,1.2-.6a6.625,6.625,0,0,1,0-4.8c.6-.6-.6-1.8.6-2.4-1.2-1.2,0-1.8-.6-2.4,1.2-1.2.6-4.2.6-6l.6-.6c.6-.6-.6-2.4.6-3l-.6-.6H32c0-.6.6-.6,0-1.2l.6-.6c-1.2-.6,0-1.8-.6-3.6.6,0,.6-.6,1.2-.6-.6,0-.6-.6-.6-1.2a.588.588,0,0,0,.6-.6c0-.6-1.2,0-1.2-1.2l1.2-.6H32C33.8-38.9,35-40.7,35-41.9Zm74.2-8.5c-1.8-1.8-2.9-.5-5,1.6-.5,1.5-2.8,3.2-4,5-3,3.6-5.4,6.6-8.4,10.8-.6,1.2-1.8,1.8-2.4,3-1.8,1.8-3,4.2-5.4,4.8-.6,0,0-.6,0-.6a11.7,11.7,0,0,1,.6-4.8l-.6-.6.6-.6c-1.2-1.8.6-3.6-.6-5.4,1.8-.6,0-1.2,1.2-2.4a4.512,4.512,0,0,0-3-4.2c-.6.6-2.4,1.2-3,3,0,2.4-4.2,3-5.4,5.4-.6,1.2-2.4,1.2-3,3-2.4,0-2.4,2.4-4.8,3-4.2,4.2-8.4,6.6-13.8,10.2a4.549,4.549,0,0,1-2.4-1.2c0-.6.6-.6,1.2-.6-.6-1.2-1.2-2.4-.6-3.6v-.6h-.6l1.2-.6a2.638,2.638,0,0,1-.6-3l.5-.3.5-3.5.8-1c-1.2-1.2,0-2.4,0-3.6v-1.2a1.125,1.125,0,0,0,0-1.8c1.2-4.2,4.8-1.8,7.2-4.2,3,0,6-1.8,9-3-.6-1.2-2.4-1.2-3-1.8-6,1.2-10.8,3.6-16.8,4.8-3.5,2.1-6.9,1.2-8.7,6,2.4.6,4.2-1.2,6.6-1.8l2.1-.6a2.2,2.2,0,0,1,1.8.6c-1.8,1.8-1.2,4.2-2.4,6l.6.6c-1.8,0-.6,1.8-1.8,3-.6.6.6,1.2.6,1.2l-.6.6v.6c-1.8,1.8.6,3-.6,4.8.6,0,1.2,0,1.2.6.6,1.2-1.2.6-1.2,1.8a1.858,1.858,0,0,1,1.2.6l-.6.6.6.6c-3,0,1.2,2.4-1.2,3-.6,1.2.6,1.2,1.2,1.2-1.8,1.3-1.9.3-1.2,1.8,4.2,1.2,7.8-2.4,11.4-4.2,2.4-3,6-3.6,7.8-6.6,1.2.6,1.2-1.2,1.8-1.2a6.494,6.494,0,0,0,3-2.4A41.311,41.311,0,0,0,78-34.2,1.29,1.29,0,0,1,79.2-33c-.6,1.2,0,1.2-.6,2.4h.6c0,1.2,0,1.8-.6,2.4l.6.6-.6.6c.6,0,.6,0,.6.6a3.3,3.3,0,0,0-.2,1.1l-.4.7v1.2c-.6,1.2,1.8,1.8,0,3.6h.6c.6,0,0,.6,0,.6l.6.6-.6.6a9.857,9.857,0,0,0,9.6-4.2c.6-.6.6-1.2,1.2-1.2.6-.6,0-1.2-.6-1.2.6-.6,1.2-.6,2.4-.6.6-.6,0-1.2,0-2.4.6-1.2,2.4-1.8,3.6-2.4,0,0-1.2,0-1.2-.6s.6-.6,1.2-.6c-.6-.6.6-.6.6-.6l-.6-.6c.6-1.2,2.4-1.2,3-1.8-1.8-2.4,2.4-1.2,2.4-3l-.6.6v-.6c0-1.2,1.8-.6,1.8-1.2l-.6-.6,1.2-1.2c.6-.6,1.2,0,1.8.6a.588.588,0,0,1-.6.6c0,1.2-.6,2.4.6,3l-1.8,1.2c0,.6,1.2.6,1.2,1.2h-.6c.5.6.1,1.1.4,1.2-1.5.1-.4,1.2-.4,1.8-1.8,1.2,1.2,2.4-.6,3.6v1.2c0,.6,1.2,1.8,0,1.8l-.6,1.2c1.8.6,0,2.4,0,2.4.6.6-1.2,1.2,0,1.8l-.6.6a1.438,1.438,0,0,0,1.2,2.4c0,.6-.6.6-1.2.6,0,.6,0,1.2.6,1.2a.588.588,0,0,1-.6.6c0,2.4-.6,6,0,8.4,1.2,0,3,2.4,4.2.6H105c1.2-1.2,1.8-1.8,1.2-3l.6-.6c-1.8-.6,1.2-2.4-.6-3.6h1.2c-1.2-1.8.6-4.2-.6-5.4l.6-.6c.6,0,.6-.6,0-1.2s0-1.2.6-1.2c0-.6-.6-.6-.6-1.2l.6-.6c0-.6.6-1.2,0-1.2-.6-.6,0-1.2.6-1.2-.6-1.2,0-3,0-3.6v-.6l.6-.6c-1.2-1.2.6-2.4-.6-3.6.6-.6,1.8-.6,1.2-1.8-.6,0-.6-.6-1.2-.6.6-.6,1.2-1.2.6-1.8,2.4-1.8.6-5.4,1.8-7.8a9.638,9.638,0,0,1,0-2.4c-.6-1.2-.6-3-1.8-3ZM179.1-59c-2.4-1.2-3-3.6-5.4-4.8-1.8-1.2-4.2.6-6,1.8-2.4,0-3,3-5.4,3-2.4.6-1.8,3-3.6,4.2,0,1.2-3,3.6-.6,4.2-.6.6-.6,0-1.2.6,0,1.2,1.8,1.8,1.2,3a1.858,1.858,0,0,0,1.2.6c1.2,1.8,2.4,3,4.8,3,1.8.6,4.2-.6,6-1.8.6-1.2,3.6,0,2.4-1.8,3.6,1.2,2.4-3.6,5.4-3.6l-.6-.6,1.8-1.8c0-.6-2.4,0-1.2-1.2,0,0,.6-.6.6,0a2.963,2.963,0,0,1,1.8-.6c-.6-.6-1.2-.6-.6-1.2,1.2,0,.6-.6.6-1.2-.6.6-.6,0-.6,0l.6-.6h-1.2C178.5-58.4,179.7-58.4,179.1-59Zm-5.9,4.1c-.6,0-.6,1.2-1.2,1.8h.6l.6-.6c0,1.2-.6,1.2-1.2,1.2-1.2.6-3.7,3.2-5.5,3.2l.6.6c-.6.6-2.2,1.9-3.3.7l-.9-.2c-.2-2.5.3-2.7,2.2-5.5.6,0,.7,0,1.3-.6-.6-1.2-.7,0-1.3-.6a10.586,10.586,0,0,1,6.8-2.9h1.8Zm19.6,17.2c-1.2,0-2.4-.6-3.6-.6-1.8.6-3,0-4.8.6-4.8,0-7.8,3-12,3.6l.4.5-.4.1c-1.8-1.2-3,.6-5.4.6-3.6.6-6.6,2.4-10.2,3s-7.8,2.4-10.2,1.8v.6c1.2.6,3,1.2,3.6,2.4h-.6c1,1.3,3.2,1.2,4.8.6l.5-.5.6.2.9-.6c2.4-2.4,4.6-.3,7-.9.6-1.2,1.2,0,1.8-.6,1.8,0,2.4-1.2,3-1.8h.6c0-.6,1.2-1.2,2.4-.6-.6,1.2-2.4.6-3,1.8a3.607,3.607,0,0,1,2.4-.6c-.6,1.8,0,3-.6,4.8-.6.6,1.2,1.8-.6,2.4l.6.5c0,.6,0,.1-.6.7,1.8.6-.6,2.4.6,3v1.3h-.6c.6,1.8,0,3,.6,4.2,1.2,1.8-1.8,3,.6,4.8-.6,0-.6.6-1.2.6,0,.6,1.2.6.6,1.2h-.6c.6.6,0,1.8,1.2,1.8h.6c.6,0,1.2-.6,1.8,0l-2.4,1.2c-.8-.3.1.5-.6.6.6.6-.6,2.4.6,2.4L170,3.2h1.2s.4,1,1.1.5l.5.3c.6.6,1.4-.2,2-.8-1.8-.6-2.4-.6-4.2-1.2a21.4,21.4,0,0,1,3.6,0,1.964,1.964,0,0,0-.3-1.7c1.2,0,.9-.2,1.5-.1.6-1.8-1.8-.6-2.4-1.2a.588.588,0,0,1,.6-.6l3-1.2C176-4,176-3.4,175.4-4c0,.6,0,1.2-.6,1.2-1.2-.6,0-1.2-1.8-1.8,1.2-1.2,3.4.4,4-.9-.4-.9-1.6-1.5-1-2.1l-.6-.6,1.8-.6c-1.2-.6-1.2-2.4-2.4-2.4.6-.6,1.2,0,1.2-.6l-.6-1.2c0-1.2,1.2,0,1.2-1.2l-.6-.6.2-1.7-.2-.4v-1a11.811,11.811,0,0,1,.6-3c-2.4-.6.6-1.8-1.2-2.4l1.2-.6-.6-.6v-2.4c0-1.2,0-1.8-1.2-1.8.6-.6.6-.6.6-1.2.6,0,1.8-1.2,3-1.2.6-1.2,1.8,1.2,2.4-.6h-1.2v-.6c1.2-.6,1.8,0,2.4.6.8,0,.6,0,1.2-.6h-.6v-.6c.6-1.2,1.8.6,2.4-.6l1.6-.2c.6-.6,1.4-1.6,2-.4l-1.2.6c1.8,0,3.6-1.8,5.4-2.4Zm42.9,5.9L231-32.9c-5.6,1.8-11.8,3-17.4,4.8-3.7.8-6.8,1.7-9.9,2.6-.6-.1-1.9.4-2,1,.5,1.2,1,1.9,2.2,2,2.3.9,4.2.4,6.7-.5v.6c2.5-.9,4.3-.7,6.1-1.1,2.9.9-.4,4.1,1.2,5.5l-.6.6c.4,1.2-1.5,2.2.2,3l-1.3,1.1h.6c-.1,1.2.4,1.9-.8,2.4l1.1.7-1.3.4c-.2,2.4.8,3.8.6,6.1l-.7.6.6.6-.7.6.5,1.2c.4,1.3-1.4,1.7-.3,2.4,1.1,1.3,3.3,3.4,5.2,2.4-.6-.7-.5-1.3-1.1-1.3.1-.6,1.3-.5,2-1.6-.5-.7-1.9.4-1.7-.8.6-.6,1.2.1,1.8.2-1.8-.8.2-2.4-.9-3.1-.5-.7.6,0,.7-1.2h-.6c.1-.6.1-1.2.7-1.2l-1-1.3c.5-.4,1-.5,1.1-.1-.1-.4-.5-.5-.4-1l-.6-.1.7-1.1c-.4-1.3.8-1.7-.3-2.5.1-.6.1-1.2.7-1.1l.1-.6c-.5-1.2.3-3-.2-4.2,1.4-1.1.3-2.4-.2-3.7l.6.1a3.18,3.18,0,0,0-.9-2.5h.6v-.6c-1.1-.7.8-1.7.9-2.3,1.1.7,3-.3,4.2-.1,3.2-1.5,5.6-1.2,8.7-2.1-.5-1.3,1.3-.5,1.9-1-1-1.3-1.7-.8-3.4-1.6ZM220.5-61.9c-4.2-3.6-8.7,1.1-12.6,1.3a43.923,43.923,0,0,0-8.6,1.8c-1.5,1-3.7-2.4-3.4.8,3.6,2.4,7.7.9,11.7,0,2.6.2,4.9-2,7.3-.5-.2,1.3-1.4,1.2-2.2,2.4.4,2-2.3,2.3-1.8,4.3a16.092,16.092,0,0,0-4,7.5c-.3,1.3-2.2,1.7-1.1,3.7-.7-.1-.8.6-1.4.6-.9,1.8-1.1,4.4-2,6.3-.8,1.8,1.2,1.4,1.7,2.1-.6-.1-.7.6-.7.6l.6.4.7-.3.7-.6c2.6-.3.2-1.3.9-2.5l2.1-.4a.615.615,0,0,1-.6-.7l.6-.6c-.5-.2.9-2.5-1-2,1.4-1.2,2.3-3.1,3.7-3.6h-.7c.8-.7.9-2.6,2.2-1.7l-.1.6c6.8-2.6,13.6.8,20.1,1.5v-.6c-4.8-4.5-11.7-5.9-18.2-6.6,1.3-.6-1.6-2.8.9-2.5l.1-.7.1-.6a13.718,13.718,0,0,1,1.8-5c.7-.6,2.1-1.1.9-1.9.8-1.2,2.7-1.7,3.5-2.2Zm1.6,55.7-.1-.1ZM324.5-16.4c-1.8-2.4-4.2-3-6.6-3.6-1.2,0-2.4,1.2-3,2.4.6,0,.6,1.2,1.8,1.2,0,1.2,1.8.6,3.6,1.2a.588.588,0,0,1-.6.6c.6.4.9,2.7.6,4.2-.6,1.2-2.4,3.6-3.6,4.2s-3,.6-3.6-.6.6-1.2,1.2-2.4l-1.8-.6v-.6l.6-.6c0-1.2,1.8-.6,1.8-2.4.7-.9,2.2-.4,1.2-1.8,1.2-.6-.6,0-.6-1.2a16.566,16.566,0,0,0-4.8,3.6c-.6.6,0,1.2-.6,1.8-.6,1.2-1.2,2.4,0,3.6h-1.2a19.975,19.975,0,0,0-1.8,3.6h.6c2.4,1.2,4.2.6,6.6,1.2a.588.588,0,0,0-.6.6c1.8,0,1.8-.6,3-1.2,2.4.6,4.2-2.4,6.6-2.4l-1.8-.6.6-.6c1.2.6.6-1.8,3-2.4C323.9-11.6,326.9-14,324.5-16.4ZM297.7-44c0-.6-.7-1.3-1.4-1.9-3.9-3.3-9.8,0-13.7,1.9-3.2.7-5.2,3.3-8.5,3.9.7.7,2,0,3.3.7-2,1.3-3.3-.7-4.6,0l.7.7c-1.3-.7-2.6,1.3-3.9,1.3-.7,1.9,1.3,1.9.6,3.9.7.6.7.6,1.3.6.7,0,1.3,0,1.3-.6,4.6-2.6,9.8-3.9,14.4-7.2,2,.6,4.6-2,5.9.6-1.3.7.6,2-1.3,2v3.3c-.5,3-1.4,3.1-.7,5.2-1.9,1.3.7,2.6-1.3,3.9,0,1.3-.6,2.6.7,2.6,0,2.7-1.3,5.3,0,6.6-.7,1.3,1.3,2.6,1.3,3.9a3.693,3.693,0,0,0,2.6-.7c-2-.6,0-1.9-2-2.6l1.3-1.3c0-1.3-.6-3.9,1.3-5.2-.6,0-1.3-.7-1.9-1.3,3.2,0,.6-4.6,2.6-5.2-1.3-.7,0-2,0-3.3H295c2.7-1.3.7-4.6,1.3-5.9,0-.6,2-1.3,0-2,0-.6,0-1.9,1.4-1.9l-.7-.7C296.3-43.3,297.7-43.3,297.7-44Zm22.8-9.2c-.6-1.8-1.2-4.2-3.6-4.2-1.2,1.2.6,2.4-.6,4.2l.6.6c.6,1.2-.6,2.4-.6,3,.6,1.2,0,1.8.6,2.4a5.125,5.125,0,0,0,0,4.2l-.6.6c-.6,0,0,1.2.6,1.2-.6.6,0,1.8-.6,1.8l.6.6-.6.6v3c0,1.2,1.2,2.4,0,3,2.4.6,4.2,1.8,6,1.2l-.6-.6h.6a.831.831,0,0,1,1.2,0c1.8-.6,4.2-1.2,6-1.8,1.8-1.8,4.8-2.4,7.2-3,.6-1.2,2.4,1.2,3-.6v-.6c-6-3.6-12,0-18,1.8l-1.2-1.8-.6.6-.2-.8.5-.8-.5-.4.8-1a2.2,2.2,0,0,0-.6-1.8.588.588,0,0,1,.6-.6c.6-.6,0-1.8,0-2.4v-.6l-1.2-1.2,1.2-.6c0-.6.6-1.8,0-2.4-1.2,0-.6-1.2-1.2-1.8h1.2c.6-1.2-1.2-.6-1.8-1.2C318.7-53.8,320.5-52.6,320.5-53.2Zm55.6,11.6A31.975,31.975,0,0,1,387.2-44c1.2.1,2.5-1,3.7-.9.7-1.1,2.5-.3,3.7-.8,1.8.2,1.9-.4,3.7-.2.7-1.1,3,.3,3.7-1.4-1.2-.1-2.9-.9-4.1-.4a14.484,14.484,0,0,0-2.8-1.4l-1.3.3-1.2-.1a6,6,0,0,0-3.7.8c-1.6-2-4.3.2-6-.6-1.9.4-3.8,2-5.5.6.1-.6,1.2-.5.7-1.1l-.5-.7c0-.6,1.2-.5,1.2-.5.8-1.1-.4-1.2-1-1.3.7-1.1,1.8-.4,2.5-.9l-.5-.7-.6-.6c.7-.6.7-.6.1-.6l.6-.6c.2-1.2.2-1.8-1-1.9l.7-.5.1-.6.6-.6c.2-1.1.3-2.3-.3-3l.7-.5.1-.6c0-.6.1-1.2.7-1.2l1.1-1.3,1.1-2.6c-.5-1.5-3.1-1.7-7.1-.8a49.022,49.022,0,0,1-6.9,1.7c-2.9-.3-5.6,1.8-8.6,1.5-1.9,1.6-4.9,1.3-7.4,2.2,1.6,2,3.5,1,5.9,1.2,2.5-1.5,6.2-1.7,9.3-2.6,1.8.2,4.4-1.9,6.7-.5a7.42,7.42,0,0,0-1,3.5c-1.2.5.4,1.9-.9,2.9-.7,1.2.4,1.9-.9,2.4.6.6-.1,1.8.4,2.4l-.7.6c-.8,1.7,1,1.9,1.6,2.5-.7.6-1.2-.1-1.9.4.6.1.5,1.3.4,1.9l-.6-.1.6.7-.7.5a.6.6,0,0,1,.5.7c-1.2.4,0,.6-.7,1.1-1.8-.2-3.7.8-5.5.6-2.5,1-5.5.7-6.9,2.3-5.5.6-10,3.2-14.4,5.1-1.8.4-4.4,2-3.5,4.5,1.3-.5,1.1.7,1.7.8.2-1.8,1.9-.4,3.1-.3.8-1.7,2-1.6,2.7-2.7,1.2.7,6.7-1.6,6.1-1.2,3.1-.3,5.8-3,9.3-2l.1-.6a24.38,24.38,0,0,0,5.5-1.1c-.1,1.3-.5,2.8-.5,4-.6.6,0,.6.6,1.2-1.8.6.6,1.8-1.2,2.4-.6,1.2.6,1.2.6,2.4,0,0-.6,0-.6,1.2,1.8,0,0,1.8,0,1.8l.6.6c0,.6.6,1.8-.6,1.8.6.6,1.8,0,2.4.6l.6-1.2c0,.6,0,.6.6.6-.6-.6.6-2.4,0-3a.588.588,0,0,1,.6-.6c-.1.1.3-1.7-.6-1.2,0-.6,0-.6.6-.6-1.8-2.4,3-2.4.6-4.2a21.319,21.319,0,0,1,1.2-6c-.6,0-.1-.5-.1-1.1Zm11.1,18.7c-1.2,0-2.3-1.3-3-1.2a126.877,126.877,0,0,0-22.8,5.4c-1.8.6-4.2-.6-4.2,1.8,2.4.6,4.2,3,7.2,1.8-.6,0-1.2,0-1.2-.6.6-.6,1.8,0,2.4-.6.6,0,2.4-1.8,4.8-1.2,3-1.8,6.6,0,10.2-1.8.6.6,1.8,0,2.4,0,.6.6-.6,1.2.6,1.8-1.2,1.8-1.2,4.8-1.8,6.6-1.2,1.2.6,2.4-.6,3,0,3-1,5.4-.4,7.2-1.2,1.8-.6,3.6-.6,6,0,0,.6-.6.6,0l-.6.6c-1.2-.6,0,1.8-1.2,1.8.6.6.6,1.8,1.8,1.8-.6,1.2-1.2,0-1.8,0,0,.6-.6,1.8,0,1.8s0,.6,0,.6c.6.6,2.4,0,2.4,1.2,1.8.6,1.8-.6,3-.6l-1.2-.6c.6-1.2,1.8-1.2,1.8-2.4a1.15,1.15,0,0,1-.6-1.8h.6l-.6-.6c.6-.6.6-.6,1.2-.6V5.9c-.6-1.8.6-3-.6-4.2.6,0,.6-.6,1.2-.6L385,.5l.6-.6c0-.6.6-1.2-.6-1.2l1-2.4c-.6-.6.6-1.2.6-1.2L386-6.1a1.29,1.29,0,0,0,1.2-1.2c-1.8-.6-.6-2.4-.6-2.4-.6,0,0-.6,0-.6a.588.588,0,0,1,.6.6c0-1.2.6-2.4,0-3.6,0-.6.6-.6,1.2-.6-.6-.6-.6-1.2-1.8-1.8l1.8-1.2c-.6,0-.1-1.1-1-1.2a1.286,1.286,0,0,0,1-1.2l-.6-.6.6-.6ZM450-26.6c-11.7-.3-21.4,4-32.4,6.2-4.8,1.6-11,1.1-13.5,4-.9,1.1-.2,1.8,1.3,2.6,1.5.7,2.5-1.1,3.9-.4a.721.721,0,0,0-.8.7c1.2,1.1,3.1-.6,4.2-1-.2,0-.2-.2-.2-.6-.8-.1-1.5.4-1.5-.2.9-1.8,1.6-.4,3.2-.9,0,0,.7.6,0,.6-.1.6,0,0-.8-.1.7.7.7,1.3,1.4.7,0,0,.1-.6.9-.5,1.5,1.3,0-.6.9-1.2l.7.7c1.5-.6,3.7,1.5,4.6-.3l-.8.6c-.7,0-.7,0-1.5-.8l.9-.5-1.6-.2c1.6.2,3.2-.9,4.7.4a24.359,24.359,0,0,1,7-.7c1.1,0,.6-.1,1.5.2.2-1.9-1.5-.2-2.1-1.5l3.9-.3c1.5.1,3.2-1.7,3.9-.9,1.6.1,2.4.2,3.1-.5,3.1.3,3.4-.5,6.5-.3l.6-.3c1-3.1,3.8.9,4.7.3l-.8-.6,2.4-1.1c.1-.6-1.5-.2-.6-1.3Zm-21.7-26c-1.2-.6-3-.6-4.2-1.2a5.125,5.125,0,0,0-4.2,0c-3-.6-4.8,1.8-7.2,3-.6.6,0,1.2-.6,1.8l-.6.6.6.6c0,1.2-.6,0-1.2,0-.6.6-.6,1.8-1.2,2.4a1.858,1.858,0,0,1,1.2.6l-.7.7c-.6.6.9.6.3,1.8h-.3v.6c.6.6,1.2.6,1.2,1.2-.6,0-1.2,1.2-1.2,1.8-1.8,1.2,1.8,1.2,0,2.4H412l-1.1,1.1c.6-.3,1.6,1.4,1.1,1.9l1.2-.6a1.29,1.29,0,0,0-1.2-1.2l1.8-1.8c-.6-.6-.3-3.3-.3-3.9l1-2.8c0-1.8,2.4-3.6,3.6-4.8.6-.6,1.8,0,1.8-1.2,1.8.6,4.8-.6,6.6,1.2.6,1.2,0,1.8-1.2,3l-.2.8-1,.4c-2.4,4.2-6-1.2-8.4,1.2,0,1.2,1.6,1.8,1.3,2.3,1.2-1,2.9,1.3,4.1,1.3-1.2,1.8-1.8-.6-3,.6l2.4.6c1.2-.6,3,0,3.6-1.8,1.2,1.2,1.2-1.2,3-.6l.3-.4a1.721,1.721,0,0,1,.9-.2l-.6-.6h.6c1.8,0,1.8-2.4,3-3.6l-.4-1.3.4-1.1C430.7-49.6,430.1-51.4,428.3-52.6ZM410.6-15.1c0,.6-.7,1.1-1.4,1.2C409.8-14,409.8-15.1,410.6-15.1Zm2.7.6a.638.638,0,0,0-.6,0C412.8-14.4,413-14.5,413.3-14.5Zm65.8-41.9c-4.8-2.4-10.2-.6-15-.6-1.8.6-4.2.6-5.4,1.8,2.4,5.4,9.6,1.8,13.8,1.8,1.2,0,1.2.6,2.4,1.2s-.6,1.2-1.2,2.4a2.1,2.1,0,0,0,.6,1.2c0,.6-1.8,0-1.8,1.2a2.2,2.2,0,0,1,1.8.6l-2.4.6a17.018,17.018,0,0,1-5.4,6c-.6,3.6-4.8,6-5.4,9a.588.588,0,0,1,.6.6l1.8,1.2-.6.6c1.2.6,2.4-1.2,3,.6,2.4-.6,4.8-1.2,7.2-.6.6,0,1.2,1.2,1.8,0,1.2.6,3-.6,3,1.2a1.858,1.858,0,0,0-1.2.6h.6c-1.8,1.2-1.2,3.6-2.4,4.8h.6c-4.8,3-6.6,9-10.8,12.6-1.8,2.4-4.8,4.8-5.4,7.2,1.8,1.2,4.2,1.2,6.6,1.2.6,1.2,1.8,0,3,.6h1.2c2.4-.6,4.8,1.2,6.6,0,3,.6,5.4-1.8,7.8-1.2,2.4,0,4-1.1,7.6-1.1l.8-.7c.6,0,1.8-1.2,2.4,0h1.8l-1.8-.6c2.4,0,4.2-1.2,6-.6.6-2.4,3.6,0,4.8-1.8.6-.6,0-1.2-.6-1.2-13.8-1.8-25.2,6-39,3a14.951,14.951,0,0,0,2.6-1.5c-.4.1-1-.1-1.4.3l-1.2-.6v-.6c.6,0,.6.6,1.2.6,0-1.8,1.8-1.2,3-1.8h-.6c-.6-1.8,1.8-1.2,2.4-1.8-1.2-.6-1.8.6-2.4-.6.6-.6.6-.6,1.2-.6,0-1.2,1.8-.6,2.4-1.8-.6.6-.6,0-.6,0,1.2-.6,1.8-1.2,3-1.8-.6-.6-.6-.6-.6-1.2.6-.6,1.2-1.2,1.8-.6-.6-1.8,1.8-1.2,2.4-2.4-.6,0-1.2,1.2-1.8.6,1.2-1.2,1.8-2.4,3-3.6.6-.6,0-1.8,1.8-1.2,0-1.1-.6-2.8.9-3h-.3c-.6,0-1.2-.6-.6-1.2.6,0,1.2-1.2,1.8-1.8h-.6c-.6,0,0-.6,0-1.2-2.4-2.4-5.4-1.8-7.8-1.8-1.8.6-3.6-.6-4.8.6-.6-.6-2.4,0-1.8-1.2l-.6-.6c.6-1.2,2.4-1.2,3-2.4-1.2-.6.6-1.2-.6-1.8,1.2-1.3,5.4-2.4,1.8-3a2.2,2.2,0,0,1,1.8-.6c0-.6,1.8-1.2.6-1.8.6-.6,1.2-.6.6-1.2.6-.6,3-.6,1.8-1.8l1.8-1.2h-.6c-.6,0-.6,0-.6-.6,1.2-1.2,2.4-3,1.8-4.2l.6-.6a.831.831,0,0,1,0-1.2ZM469.5-6.6l-.4.3C469.3-6.3,469.5-6.4,469.5-6.6Zm91.7-52.1a1.391,1.391,0,0,1-1.1-1.4c-3.4-2.2-6.8,2.3-10.9,1.4-5,1.3-10.6,2.5-15.6,3.9-.7,1.7,1.1.6,1.8,1.3a.6.6,0,0,0-.7.5c.5,1.2-.7.6-.7.6,1.1,1.2-.7,1.1-.8,2.3,1.2.2,2.3.2,2.5-1,2.5-.9,6,0,8-1.6,1.7.8,3.1-1.5,4.9-.7l-.3,1.3-.5.4a81.612,81.612,0,0,0-11,13.4l.6.7-1.3,1c-.1.6-1.4,1.8-.9,2.3-2.4.5-1.5,3.6-3.4,4.6l1,1.3-.6-.1a3.22,3.22,0,0,0,1,2.5c-1.1-.7-.7,1.2-2,1.6l.6.1a10.211,10.211,0,0,1,6,.6c-.7.5-1.8-.2-1.9.4l.6.6c.6.1,1.2-.4,1.1.2.3-2.4,1.3.7,2.5-.3l-1.1-.8.6-.5c1.2.6,2.4.2,4.3-.2.1-.6,1.7.7,1.8-.5-.5,0-.5,0-1.1-.6,1.9-.5,4.1,1,4.9-.8.5,1.3,3.1-.3,2.9,1.5-1.9.5-.2,1.8-2.1,2.3l.6-.1c-2.8,4.6-4.4,8.7-7.3,13.2-2.1,2.8-5.4,6.1-5.7,9.1.6.7,2.4.3,3.5,1.5l.7-.7.8.3,1.4.8a21.866,21.866,0,0,0,2.5-.4l-.5-.7,1.3-1.1c.5,1.3,1.1.8,2.3.9,1.9-1.1,4.3-1.4,6.2-1.8,1.2.7,3.2-2.1,4.3-.8l-.6-.6c.7-.6.6,0,1.2.1,0,0,.6.1,0,.6,1.8.1,2-1.7,3.1-.9.1-1.2,2.9.9,2-1.6,2.2,1.4,2.6-1.6,4.3-.8l3.7-1.5c-1.2-.1-2.4-.2-2.9-.8-4.7-1.1-9.7.2-14.7,1.5-1.2-.1-1.7.5-2.3.4-2.6.9-4.9.7-7.5,2.2-.6-.6-1.8-.1-1.7-1.3l.7-.5v-.7c0-.6.6-.5,1.2-.5.1-.6.2-1.7-1-1.9.7-.5.8-1.1,1.4-1a18.439,18.439,0,0,0,2.8-4.5,1.753,1.753,0,0,1,1.3-1.2c.2-1.2,1.9-1.6,1-3.5,1.8-.4.2-1.8,2-1.6.7-2.3.9-3.5,2.2-4.6-1-1.2.2-1.8.3-3.6-6.1-4.8-12.8,1.2-18.8,1.2-2.3-.9-.9-2.5-1.4-3.2,0-.6,1.2.2,1.2-.4l.2-1.2c1.8-1,.8-2.9,2.8-4a4.223,4.223,0,0,0,1.4-2.9l.7-.5-.6-.6,1.2.1c.1-.6-.6-.1-.5-.7a.6.6,0,0,1,.7-.5v-.6c-.4-1.8,3,.3,1.9-1.7.2-1.2.8-1.7,2-1.5-.5-.7.2-1.2.2-1.8,1.2.1,2-1.6,3.2-2.2l-.6.1-.5-.7c1.8.1.9-2.4,3.2-1.5,0-.6-.6-.7-.5-1.3,1.1.7,1.9-1.6,3.8-2.1-.6,0-.6,0-.5-.6C557.8-55.5,559.4-58.4,561.2-58.7Zm60.3,36.2c-1.7-.7-2.9-.7-4.7-1.4-1.2.5-3.6-.2-3.7,1.6-3.6.4-10.1,3.7-13.8,4.7l-.6.7-4.3,1.5c.5,2.4,3,1.3,4.1,2h.6l-.1.3.4.5.3-.4,1.8-.3c1.8-.5,6.4-.9,7.6-2,1.8.7,2.6-2.3,4.3-1l-.6.6c1.7.6-.8,2.9,1,3.6-.1,1.8-2,2.9-.2,3.6a6.756,6.756,0,0,0-.8,3.6c.6,0,0,0-.1.6,3.1-.5.5,1.8,1.1,3-.1,1.2-.5,1.2.7,1.9l-.3.4-.8.7c.6.6-.3,1.2-.3,1.2,1.1.7,1.1,1.9,2.3,1.3-.6.6-1.7,1.1-1.1,1.2,0,.6-.6-.1-1.2.5,1.2.1.9,1.3,2.1,1.9L613.9,9c1.9-.5,3,1.3,4.8.8-1.2-.1-.8-.4-2-1.1,1.9-1.1.9-.2,2.1-.1-.6-1.8,2-4.1.2-4.8.6-.5,1.2-.5,1.3-1.1h-.6c0-.6.9-.6.9-1.2-1.1-.7.4-2.4-.2-3.6.7-1.8-.6,0-1.1-.7a1.069,1.069,0,0,1,1.2-1.1l.1-.6c.6-.6,0-.6,0-1.2.1-.6-1-2.5.2-3,0-.6-1.2-.1-1.2-.7.1-1.2.7-1.7,1.3-1.1.1-1.2-1.8-.1-2.3-1.3a2.5,2.5,0,0,0,1.8-.5c0-.6.7-1.2.1-2.4,1.9-1.1-1.1-1.9.8-3L619.6-19C620.8-19.5,621.5-21.3,621.5-22.5ZM591.4-50.4c-1.8,1.2-3-.6-4.2-1.2-1.8,0-4.2-1.8-5.4,1.2l-.4.6-.3.7-.3.8-.8.3v3.6l-.6.6c0,.6,0,1.2.6,1.2l-1.2.6,1.2.6c-1.2,0-1.8.6-1.8,1.2v.6c0,.6.6.6,1.2,1.2a2.1,2.1,0,0,1-.6,1.2v1.8l1.2.6c-.6,1.2-1.2,0-1.2.6S580-33,580-31.8h-.6l.6.6c.6.6,1.8,1.8,3,1.2,1.8,1.2,4.2.6,6.6,0l-.6-.6c.6-.6,1.8-.6,1.8-1.2l1.8-3.6c-.6-.6,0-1.8.6-2.4-.6,0,0-.6,0-.6,1.8-2.4-1.2-4.2,1.2-6l-1.2-1.2c1.2-1.2-1.2-2.4-.6-3.6-.5-.1-.5-.3-1.1-.3ZM619.6-67c0-.6-.2-1.2-1.6-1.2-1.7.1-3.7,1.8-3,3-2.1,1.8-.7,4.2-1.4,5.4,0,2.3.4,4.7.4,7.1a10.728,10.728,0,0,0-.2,6.6l-.7.6c0,.6,0,.6.7,1.2l-.7.6s.7,0,.7.6c-.7,0,.7,1.2-.7,1.2,0,1.2,1.1.3,1.1,1.5l-.4.3c0,.6-1,2.3,1.1,2.9-2.1.6-.6,1.2-.6,1.8-.8.8.2,3.2,1.8,4.3a4.44,4.44,0,0,0,4,.5v-1.2c-.7,0-1.4,0-1.4-.6,1.4-.6-1-1.8.4-3-1.4,0,1.1-1.2-.3-1.8.7-.6-1.4-1.2.7-1.8-1.4-1.1.2-2.3-.5-3.5,0-.6-1.3-1.8.1-1.8,0-1.2.7-1.8-.7-2.4,1.4-3-.8-4.8,1.3-7.2-.7-.6-.7-.9-.3-1.8a1.4,1.4,0,0,1-.6-1.2c.7-1.7.1-2.3.1-3.5s.7-2.4,0-3.6C619.6-64.6,618.9-65.8,619.6-67Zm23.6,22c-1.6,0,.6-2.4-2.2-2.4-6.6,1.7-5.9,3.1-13.1,3.7-.5,0-1.1,0-1.1-.6-.5,0-.5-.6-.5-1.2-1.7,0-1.7,1.2-2.8,1.8-.5,1.7-1.9,2.8.3,3.4l3.6.7c1.8-.4,2.9-.2,6.1-1,1.6-.6,4.2-.8,5.3-1.5,1.7,0,2.6-1,4.3-1.5ZM589-48c-.6,1.2,0,1.8,0,2.4h.6v.6c-.6,0-.6.6-1.2.6,0,1.8.6,5.4-.6,7.2v.6c-.6,0-.6.6-1.2.6a.588.588,0,0,0,.6.6c-1.2,1.2-1.8,3-3.6,2.4,0-1.2,0-3-1.2-4.2l.6-.6c-1.2-.6.6-1.8,0-2.4l.6-.6-.6-.6c1.8,0,0-1.2.6-2.4a6.335,6.335,0,0,0,1.2-3c.6,0,.6-.6,1.2-.6l-.6-1.2C586.6-48,587.8-49.2,589-48Zm50.1-10.8c-1.7-4.7-4.8-2.6-8.1-2-5.1,2.1-9.5,2.1-9.7,7.6.6.6,1.1.6,1.7,1.2,0,0,.5.5.5,0l-.5-.6,1.3-1.1c.6-2.4,1.7,0,2.8-1.8s3.3,0,4.4-1.8C634.9-57.9,635.8-58.8,639.1-58.8Z" transform="translate(-2 69.239)" fill="#fff"/></svg>