<svg xmlns="http://www.w3.org/2000/svg" width="788.6" height="94.88" viewBox="0 0 788.6 94.88"><path d="M-348.8-51.7a.831.831,0,0,0,0-1.2c-1.8-.6-3.3-3.3-4.5-1.5l.6,1.2h-.6c0,2.4-.3,3.1-.3,5.5l.9,2.9c-2.4.6,0,2.4-1.8,3l1.2.6c0,.6-.8,1.2-.8,1.8l-.4,2.4a.588.588,0,0,1,.6.6.588.588,0,0,0-.6.6v.6a.588.588,0,0,0,.6.6s-.6.6-.6,0c-.6,1.2,0,1.2.6,1.8l-.6.6c0,1.2-1.2,2.4-3,3.6-.6,1.2-2.4-.6-3,.6-.6,0-1.2-1.2-1.8,0-2.4.6-5.7,2.1-7.5,2.7-1.8,1.8-3,0-4.8,1.2-3,1.2-6,2.4-8.4,3.6-1.8,1.2-1.2-1.2-2.4-1.8l1.2-1.2c0-1.2-1.2-1.2-.6-1.8.3-.3.4-.3.5-.2-.4-1.7,1.2-3.5.7-5.2.6-.6.6-.6,1.2-.6-1.8-.6-.6-1.8,0-2.4h-.6l.6-1.2v-.6a10.211,10.211,0,0,0,.6-4.2c-1.2-1.2-3-.6-4.2-1.8-.6,0-1.8.6-1.8,1.2.6.6,1.8.6,2.4,1.8-1.2,0-1.2,1.8-2.4,1.8l1.2,1.2c-.6.6-1.8,0-1.2.6-1.8,1.2,0,2.4-1.8,3.6a25.986,25.986,0,0,0-.6,3c0,1.2,1.2,0,1.8,1.2,0,.6-.6,0-1.8.6,0,0-1.2.6-.6,1.2l.6-.6c1.2,1.8-1.2.6-1.2,1.8l1.2,1.2h-.6c.6,1.8-1.8,1.8-1.8,3,1.2,0,1.8,0,2.4-.6l-.5,1.2-1.9.6c1.2.6,1.8,0,2.4,1.2,0,1.2-1.8,0-1.8,1.8,3,2.4,6,.6,9.6,1.2a29.247,29.247,0,0,1,6.6-2.4c2.4-3,7.2-1.2,10.2-4.2,1.2,1.2,3.3-.9,3.9-1.5,1.8,0,4.2-1.2,4.8-1.2l.6-.6c.6-1,1.9.8,1.8.6v.6l-.6.6h.6l-.6.6c-.6.6.6,1.2.6,1.2,0,.6-.6.6-1.2,1.2,0,.6,1.2.6,1.2.6,0,1.2-.6.6-.6,1.8h.6c.6,1.8-.6,3,0,4.8,1.1,0,0,1.7,1.6,1.8-.1.1-.4.2-.4.6,1.2.6,1.2,1.2,1.2,1.8,1.8-1.8,2.1,2.1,3.3,1.5l-.2-2.4c0-1.2-1-1.8-1-3,0-.6,1.2,0,1.2-.6-.6,0-.6-1.2-1.2-.6-1.2-1.8,1.8-1.2,1.2-3-.6,0-1.2,0-1.2-.6-.6-1.2.6-1.2,1.2-1.8l-.6-1.2h.6v-1.2c-.6,0-.6-1.2-1.2-1.2.6-1.2,1.2.6,1.2-.6.6-.6,1.2-1.8,0-2.4,1.8-5.4,8.4-6,12-8.4,1.8-1.2,6-1.2,6-3h.6c.5,1.1,2.1.2,2.8,0-.1,0-.4-.1-.4-.6,0,0,1.2,0,1.2-.6h-.6a1.858,1.858,0,0,1,1.2-.6v-.6a1.858,1.858,0,0,1-1.2-.6.831.831,0,0,1,1.2,0c.6,0,1.8,0,1.2.6h1.2l-1.8-1.8a4.591,4.591,0,0,0-3-1.2c-.6,0-.6.6-.6,1.2-.6,0-1.2.6-1.8.6a.588.588,0,0,0-.6-.6c-1.2,0-3-1.2-4.2,0-1.8,1.2-3.6.6-4.2,1.8-2.4,0-4.2,1.2-6,1.8-2.4,2.4-1.2-.6-3.6-1.8l1.3-.9c-1.2-1.7.4-2-.7-3.3l.6-.6,1.2-1.8-.6-.6a.588.588,0,0,1,.6-.6c-1.2-.6-.6-1.8-1.8-1.8l1.2-.6C-347-50.5-348.2-51.1-348.8-51.7Zm-17.9-3.6c-1.3-2.7-4.9-2.7-7.5-1.9.4,1.2-1.3.4-2,.8-1.8-.3-3.2.8-5.5.4a24.909,24.909,0,0,1-6.3,1.2c-1.4,1-3.1.1-5.1,1l1,1.4c-.6.5-1.6-.9-2.4-.4.4,1.3.4,1.3,1.6,1.5.6.6,2.3,1,1.9-.3,2.5-.2,5.1-1.6,7.6-1.8,1.8-.2,4.4-.4,6.2-.7,1.2.2,3.2-.7,3.5,1.2l-.8,1.1c1,.8-.9,1.6.3,1.8l-.9,1.7c1.4,2-1.7,3.4.9,5-.6.6-.6.6-1.2.4-.1.6-1.5,1.6-.3,1.8l-.7.5.8,2-.7.4v.6c.5.2-.1.6-.7.5l.5.7c.4.6-.2,1.2-.9,1.7.2,1.9,2.7,1.1,3.9,1.9a5.428,5.428,0,0,0-2.8,1.9l3,.6-.4-1.3s.5.1,1.1.2l-.4-.7c.1-.6.6.1,1.3-.4-.1-1.7.1-3.8.7-4.1l-.5-.7,1.2.2c-1.2-.8-1.6-1.5-.9-2a9.51,9.51,0,0,0,2.1-2c-2.1-1.6,2-4-.8-5.7l1.3-.4c.1-.6-.5-1.2-.8-2l.6-.4-.5-1.3,1.5-1-1.1-.7c.6,0,.8-1.2.8-1.2a1.445,1.445,0,0,1-1.1-.8C-368-54.4-367.9-55-366.7-55.3Zm-17.5,30a.31.31,0,0,0-.1-.2C-384.3-25.4-384.3-25.4-384.2-25.3Zm117.8,3.7c-1.7-.7-2.9-.7-4.7-1.4-1.2.5-3.6-.2-3.7,1.6-3.6.4-10.1,3.7-13.8,4.7l.7.6c-1.2,0-3.2,1.3-5.6,1.6.5,2.4,3,1.3,4.1,2h.6l-.1.3.4.5.3-.4,1.8-.3c1.8-.5,6.4-.9,7.6-2,1.8.7,2.6-2.3,4.3-1l-.6.6c1.7.6-.8,2.9,1,3.6-.1,1.8-2,2.9-.2,3.6a6.756,6.756,0,0,0-.8,3.6c.6,0,0,0-.1.6,3.1-.5.5,1.8,1.1,3-.1,1.2-.5,1.2.7,1.9l-.3.4-.8.7c.6.6-.3,1.2-.3,1.2,1.1.7,1.1,1.9,2.3,1.3-.6.6-1.7,1.1-1.1,1.2,0,.6-.6-.1-1.2.5,1.2.1.9,1.3,2.1,1.9L-274,9.9c1.9-.5,3,1.3,4.8.8-1.2-.1-.8-.4-2-1.1,1.9-1.1.9-.2,2.1-.1-.6-1.8,2-4.1.2-4.8.6-.5,1.2-.5,1.3-1.1h-.6c0-.6.9-.6.9-1.2-1.1-.7.4-2.4-.2-3.6.7-1.8-.6,0-1.1-.7A1.069,1.069,0,0,1-267.4-3l.1-.6c.6-.6,0-.6,0-1.2.1-.6-1-2.5.2-3,0-.6-1.2-.1-1.2-.7.1-1.2.7-1.7,1.3-1.1.1-1.2-1.8-.1-2.3-1.3a2.5,2.5,0,0,0,1.8-.5c0-.6.7-1.2.1-2.4,1.9-1.1-1.1-1.9.8-3l-1.7-1.3C-267.1-18.6-266.4-20.4-266.4-21.6Zm-25.5-17.6c-1.8-1.3-4.2-2-6-3.2-2.5-1.3-4.4,1.7-6.2,1-1.2.6-1.3,1.9-.1,1.9v.6c-1.9,0-1.9,1.8-2,3.1.6.6-1.8,1.1,0,2.4h-.6l.6.7a.588.588,0,0,1-.6.6l-.1.6c.6.6.7-.6,1.9,0-.7,1.2-1.3.6-1.9,1.2-.6,1.3,1.2,1.9,1.8,2.5l-1.3,1.2h1.9c.6,1.3,2.4,1.4,2.4,2.6,1.3,0,3,1.3,3.7-.5,1.9.6,3.7-1.1,5-1.8-.5-1.8.7-2.4,1.3-3.1a.575.575,0,0,1,.4-.6h-.4a1.125,1.125,0,0,1,0-1.8c-.5-.6-1.1-.6-1.1-1.3l1.8-.6a.588.588,0,0,0-.6-.6c0-.6-.6-.6,0-1.2l.1-1.3c.6-.6-.6-1.2-1.2-1.8ZM-303-70.6a7.27,7.27,0,0,0-4.8-.8c-.1.6.5.8.4,1.4,0,0-.7.6-.7-.2l-1.6,7.3.6.8c-2.1.4-.4,1.8-1.7,2.3l.5.5c-1.3.6-.3,2-1.5,1.8.5.7-.8,1.6-.2,1.7.5.9-.2,1.3-.2,1.3l1.1.9c-.7.5-.7.5-1.3.3.5.7,1.2.3,1.6,1-.1.5-.6.4-.7,1.1-2.9,2.6-6.7,2.7-10.6,3.9,1.6,1.6,3.6,1.2,6.2,1,9.6-2.3,18.8-5.3,28.5-8.1.8-.6,2.6-.2,3.3-.9a32.615,32.615,0,0,0-15.2,1.5c-3.1-.4-5.3,3-8.3,1.3,1.3-.4-.4-1.4.8-1.1l.2-1.2c.1-.7,0,0-.5-.8l1.3-1.1-1.2-.1c.1-.6.1-.6.7-.5l.9-.6h-.7a14.451,14.451,0,0,1,2-5.4,12.37,12.37,0,0,0,.1-4.3s.6-.6,1.2-.4c-.5-.7-1.1-.8-1-1.4C-303.2-69.3-303.1-70-303-70.6Zm37.4,10.3a17.355,17.355,0,0,0-1.6-2.6c-1.3.6-3.7,1-4.5,3.4l.6.6c0,.6-1.4,1.8-.2,1.8,0,1.2-.2,3.6-.2,4.8-.1,1.2-1.4,2.9.4,3-.7.6-1.3.6-.7,1.2,1.2.6-.2,2.4-.2,2.4,2.4.8-.6,1.2,1.1,2.4l-.8.5.7.1c0,1.2-1.3,1.8-1.3,3h1.2l-.7,1.2.5.6-.7.6h.7c2.2,2.6,3.7-.9,5.4-.2,3.1-.5,1.3-.7,3.7-1.1,1.8.6,2-2.4,3.7-1.6,2.5-1.1,5.5-.9,7.3-1.3-.4-.9-.6-.9.6-.6a1.749,1.749,0,0,0-.4-1.2c-6.5-2.9-8.4.1-14.6,2.2-.6-1.2-1.8-.7-1.6-2.5.6,0,.6-.6.6-1.2.7-1.7.2-2.4-.4-3.6l1.3-1.1c-.6-.6-1.1-1.9-2.2-2.6h.6a5.282,5.282,0,0,0,.8-2.9l-.6-.1.6-.5c-.6-.6-.5-1.8-.5-2.4h.6c.7-1.1-1.1-.7-.5-1.8C-266.6-60.6-265.7-59.1-265.6-60.3ZM-298.8-35c0,1.2,1.3.6,1.9,1.2l-1.9.6c.7.7,0,.7.5,1.3l1.3.6c-1.9,0-.6,1.8-1.3,2.5l.7.6c-.7,0-1.3-.6-1.3,0a.46.46,0,0,0,.3.6c-.5.2-1.1,1.1-1.6,1.1-1.8-1.7-.6-4.7-2.2-6,.5-.1,2.1-1.5.5-2h-.6a.588.588,0,0,0-.6-.6h-.6c.6-.6,2.5,0,2.6-1.9l.6-.6c-.6-.6-.6-1.2-1.2-.6l1.2-1.8c3.1.7.6,3,2.4,5Zm70.2-9.1c-.6.1-1.2-1-2.4-.3.1,1.1-1.8.1-2.2,2.1v-.6c-1.8.2-3.6.4-4.2,1.6a4.517,4.517,0,0,1,4.2-.4l-1.6,1.4c1.3,1,1.6-1.4,2.4-.4.7,1.2-.5,1.4-1.7,1.4-.7-1-2.3.9-3.7-.2l1.2-.6,1.2-.2v-.6c-1.8.2-3,.9-4.4-.2-.4.7-1,.2-1.6.2l.6.6c-.5,1.2-1.2-.5-2.4.2-1,1.9-4,1.7-5,3.6,0,1.1,1.4,2.3,2.6,2.7h-.6l1.3.6c1.3.4,1.2-.2,1.7-.8-.6,0-1.8.2-1.8-.4l-.1-.6a.6.6,0,0,0,.7.5c1.5-2.6,4.8-.5,6.5-1.3l-.1-.6c-.7-1.1-1.1.7-1.8-.4,1.6-1.4,5.1.7,5.3-.6l-1.2.1.5-.6c1.2-.2,3-.4,3.2,1.4a7.206,7.206,0,0,0,.1,6.1.588.588,0,0,1-.6.6c.1.6-1,2,.3,2.4l-.5.7.6.5c-.4.7-1,.7-1.6,2l.6-.1c.7.5.2,1.8-.3,2.5l.6-.1-.5.7c.1,1.2-1.6,2,.2,2.4l-1,1.8a2.9,2.9,0,0,0,.8,1.8c1.3.4,1.9,1,2.5,1a1,1,0,0,0-.5.6l1.9.4-.1-.6c1.3.5,1.1-.7,1.1-.7-.6-.5-1.8.1-1.8-.4a12.493,12.493,0,0,0,2-3.3,11.019,11.019,0,0,1-1.8.2l1.7-1.4c-.6.1-1.2-.4-.8-1.1,0-1.2,1.8-.8,1.6-2a.487.487,0,0,1-.6-.5l.8-1.5-1.6-.2v-.6s.4-.7,1.8-.2l-.8-.6c0-.6,1.2-.6.6-1.2a3.558,3.558,0,0,0-1.4-1.6c1-.8,2.4-.4,2.2-2.1a.807.807,0,0,1-1.2.1l.4-1.2.5-1.2c-.1-.6.4-2-.8-1.8l.5-.6,1-2.6-.2-1.2c1.2-.7-.7-1.7-1.4-2.2C-226.7-43.7-229-42.8-228.6-44.1Zm24.5-8.6c-.9-2.4-3.8-.9-4.2.4-2.3,1.5,1.5,2.9-.2,3.7.2,1.8.4,4.8-.6,6,0,.6.8,1.2,1.4,1.2-1.8,1.3-.2,3.6-1.3,5.4l.3,2.4.6.6h-.6c-.5.7.8,1.8-.4,1.9.7.5,2,1.6.8,1.7a.621.621,0,0,0,.5.6,3.751,3.751,0,0,0-1,.1c.6.5.1,1.2.8,1.7l-.4.4-.1.9c.6-.1.6-.1.7.5,0,.6-1.6,2,.2,1.8a.72.72,0,0,1-.6.7l.1.6c.1,1.2.8,1.7-.3,3L-207-18a1.3,1.3,0,0,1-1.1,1.3l.2,1.8.6-.1-.5.7.6.5c.1.6-.5.7-1,1.3.7,1.2.2,1.8.8,2.4.6-.1.5-.7,1.1-1.4l-.6.1s-.7-.5-.1-.6c.6-.7,2.5.3,2.9-.9-.7-1.2-1.7.2-1.9-1l1.8-.2-1.2-.5a2.79,2.79,0,0,1,2.2-1.4l-1.4-1.1a4.4,4.4,0,0,1,1.7-1.4c-.5,0-.8-.5-1.3-.4.6-.7,1.1-1.5,1-1.9-1.8-1.1,1.4-3.8-.5-5.4-.1-.6-.7-1.2-.1-1.2a4.689,4.689,0,0,1,1-2c.5-.6-1.4-1-1.4-1,.6-.6,1.2-.8,1.7-1.4-.7-.6-1.3-.4-1.4-1.6,0-.6.5-.8,1.1-.8,0-.6-.7-1.7.4-2.4-.7-.6.5-.7.5-1.3-.7-.5-1.8.8-3,.3,2-1.4,1.3-3.5,2.6-3.8-.7-.6-1.3-.6-1.4-1.2l-.6-.4c1.2-.8,1.6-2,2.8-1.6,0-.6-1.2-1-.8-1.7.2-.7.3-.7-.8-1.7l1.2-.8a1.781,1.781,0,0,1-1.8-.4c.6,0,1.8-.2,1.6-.7,0-1.2-1.8-1.1-2.5-1.6-.1-1,.5-.2.6,0Zm-2.6,3.9c.5-1.4,1.6-.8,1.8-.2Zm1.4-3.8c0,.6-1.2.7-1.8.8A2.121,2.121,0,0,1-205.3-52.6Zm36.5-24.1c-1.4-1.4-2.8,0-4.2,1.4-2.1,2.1-2.8,5.7-4.9,8.5-2.1,2.1-2.1,4.9-3.5,7-.7.7-.7,1.4.7,2.1-2.1,0-.7,2.8-1.4,4.2.7,0,2.1.7,3.5,0l-1.4-1.4,1.4-1.4,1.4-2.1c-.7-2.1,1.4-2.1.7-3.5,0-.7,1.4-.7,1.4-.7l-.7-.7c.7-.7,1.4-.7,1.4-1.4.7.7,2.8,0,2.8.7.7-.7,2.1-2.1,2.8-1.4,2.1,0,5,1.4,7.8,1.4.7.7,1.4.7,2.8.7l2.3-.4.5.4a4.209,4.209,0,0,0,2.8-.7l-.7-.7c.7,0,.7-.7,1.4-.7-.7-2.8-4.2-2.1-6.3-2.8-2.8-.7-5.6,0-8.5-.7-2.1-1.4-4.2.7-5.6-.7l2.1-2.2,1.4-.7c.7,0,1.4-1.4,1.4-2.1l-.6-1.3Zm19.7,26.8c-1.4-2.9-4.9-1.5-7.7-1.5-4.2,1.5-8.4,2.2-12.7,3.6-5.6.7-11.2,2.8-17.6,3.5-2.1,1.4-4.2-1.4-5.6.7-2.1,2.1.7,2.1,1.4,3.5l.7-.7c.7-.7,1.4,0,2.1.7,3.6-.7,7.8,0,11.3-2.1,3.5,2.1,5.6-2.1,9.8-1.4,2.2-.7,2.9-2.1,4.3-2.1v.7c.7,0,2.1,0,2.1-.7h.7c0,1.4,0,2.1-.7,2.1v.7c-1.4.7-2.1,2.8-2.8,4.2-1.4,2.8-2.9,4.2-3.6,7-.7,2.2-2.8,5-4.9,5.7-2.1,1.4-2.8,4.2-3.5,5.6,2.1-2.1,5.6.7,7-2.1.7-.7.7.7,1.4.7.7-1.4,2.9,0,4.3-2.1,2.1.7,3.5-.7,4.9-1.4-.7,0-1.4.7-1.4,0,1.4-1.4,3.5,0,5.6-1.4a4.209,4.209,0,0,1,2.8.7c-.7,2.1-3.5,2.8-4.2,4.9-4.9,4.2-9.1,10.6-13.4,15.5a2.572,2.572,0,0,0-.7,2.1h8.5l-1.4-.7v-.7c.7,0,1.4.7,2.1,1.4l8.4-.7c-.7,0-2.1,0-2.1-.7.7-2.8,2.1,1.4,3.5-.7.7.7.7.7.7,1.4a.686.686,0,0,1-.7.7L-155.4.7c-2.1,2.8-5.6,5.6-8.4,8.5v.7c-1.4,1.4-3.6,4.2-3.6,6.3.7,0,1.3-.7,2,0a10.2,10.2,0,0,0,5.3.2l1.1.4c0,.7.1.1,1.5.1v.7c2.1,0,4.2-.7,5.6-.7,2.1-1.4,5.6-.7,8.5-2.1,2.1.7.7-2.1,2.8-2.1l-.7-.7,2.1-.7c-.7-.7-1.4-.7-1.4-1.4V9.2l-.7-.7a28.59,28.59,0,0,0-10.6,2.1c-2.8,0-6.3,2.1-9.1,0,1.4-.7,4.2-1.4,3.5-2.1l.2-.5.7-.4.6-.7,2-1.3c.7-2.1,2.4-2.7,3.4-3.4l.8-1.5a6.254,6.254,0,0,1,1.4,0c.7-2.1-.7-.7-1.4-1.4a2.168,2.168,0,0,1,1.4-.7c.7-.7,1.4-.7,0-1.4a2.572,2.572,0,0,1,2.1-.7l.6-1.2.9-.9s-1.5-2.1-1.5-2.8c-1.4-.7-2.1-2.1-3.5-1.4-1.4-.7-4.2.7-7,0-.7.7-2.8.7-4.2.7a.686.686,0,0,0,.7-.7h-.7a.686.686,0,0,1-.7-.7h1.4v-.7c1.1-1.2,1.9-.9,2.9-2.6l1.3-1.7c1.4,0,.7-2.1,2.1-1.4l-.7-.7c.7,0,2.8-1.4,2.1-2.1a.686.686,0,0,1,.7-.7v-.7l-.7-.7c.7,0,4.2,0,2.8-2.1,1.4,1.4,2.8-.7,4.3-.7l-.8-.7a8.28,8.28,0,0,0,2.2-2.8c.4-.1.7,1.4.7.7a1.32,1.32,0,0,0,1.4-.7l-1.4-2.8c-2.9-3.6-7.1,0-10.6-.8-2.8,1.5-5.6,1.5-9.1,2.2v-.7a.686.686,0,0,0,.7-.7c-.7-.8,1.4-2.2,1.4-2.2v-.7c0-.7,0-1.4.7-1.4,0-2.8,2.8-3.5,2.1-5.6.7-.7.7-2.1,2.1-2.1l-.7-.7c.7-.7,0-2.1,1.4-2.1,1.4-.7,2.8-2.1,4.9-2.1C-149.8-47.8-149.1-48.5-149.1-49.9Zm30.4,16.7a5.8,5.8,0,0,0-5.8-5.8,5.72,5.72,0,0,0-5.7,5.8,5.574,5.574,0,0,0,5.7,5.7A5.657,5.657,0,0,0-118.7-33.2Zm30.6-12.5c-2.4-.6-3.6-3-6-3.6-1.2-.6-3-.6-3.6.6,0,.6-1.2,1.8,0,2.4,1.2-.6,1.8,1.2,3.6.6,1.2,1.2,0,2.4,0,3,.6,1.2-.6,3,0,4.2-1.8,2.4-1.8,6-4.8,7.2-.6,0-1.2.6-1.8,0l.6-.6c-.6-.6-1.2,0-1.2-.6,1.2-.6,0-2.4.6-2.4a2.1,2.1,0,0,1-1.2-.6l1.8-1.8h-1.8c0-.6.6-.6,1.2-1.2,0,0,.6-1.2-.6-1.2.6-.6.6-.6,1.2-.6.6-.6,1.2,0,.6-.6,0-.6,0,0-.6,0l-.6-.6c.6-1.2,1.8-.6,2.4-.6.6-.6,1.8-.6,1.2-1.8-1.2-.6-1.8-1.8-3-1.8-1.2,1.2-2.4,2.4-2.4,3.6-.6,1.8-2.4,4.2-1.2,6a2.1,2.1,0,0,1-1.2.6c0,.6.6.6,1.2,1.2l-1.2,1.8c.6,1.2.6,2.4,1.8,3l-.6.6h1.2c1.2,0-.6.6,0,.6l1.2.6v-.6c1.8.6,2.4,0,3.6,0,1.2.6,2.4,0,2.4-.6l-.6-1.2c.6.6,1.8-.6,2.4,0l.3-1.1A4.819,4.819,0,0,1-91-32.7l1.1-1h-1.8l.6-.6c.6-1.2-.6-.6-1.2-1.2l.6-.6-.6-.6v-.6l2.4,1.8c-.6-1.2.6-.6,1.8-1.2-2.4,0-.6-2.4-1.8-3,.6-.6,1.8,0,2.4-.6-.6-.6-1.2-.6-1.2-1.8-1.8-.6.6,0,.6-1.2a.588.588,0,0,1,.6.6h.6C-86.3-43.9-88.1-44.5-88.1-45.7Zm25-14.6c-.6.1-1.3-1.1-2.5-.9-1.7,1.4-4.1,1-5.8,3,1.4.5.8,1.1,1.4,1.1l-.5,1.2c1.8.4-1,2.5.9,3l.1.6c-1.2,0-.5,1.2-.5,1.2a.949.949,0,0,1,1.2-.2c0,.6-1.2.2-1.2.8,1.2.4-1.5,3.1,1.5,2.8-2.3,1.5-1,3.2-1.3,5.6a.9.9,0,0,0,.1,1.2c-.4,1.9.3,3,.4,4.2h-.6c-1.1.7.9,1.8-.3,1.9,0,.6.6.5,1.2.5l-1.2.7.7.5c-1.2.7-.4,2.5-.2,3.7a.72.72,0,0,0-.7-.6c-.5.7.7,1.2-.5,1.3.1,1.2,1.2.5,1.3,1.1h-.6l1.3,1a7.324,7.324,0,0,0,4.6-2.2l-.6-.5c-.6.7-1.8.7-2.4.8,1.2-.1.9-3.1,2.3-1.4a5.618,5.618,0,0,0,1-2.6,1.3,1.3,0,0,0,1.1-1.3c-.6.1-1.3-1.1-1.9-.9.6-.2,2.4-.3,2.1-2.1l-.6-.5s0-.6.6-.1V-38c-.1-.6-.1-.6-.7-.5-.1-1.2.9-2.5.8-3.7,0-.6,0-.6-.6-1.2l1-1.3-.6.1.5-1.3c-.7-.5-.1-1.1-.2-1.7,0,0-.5.6-.6,0a6.958,6.958,0,0,0,1-2.5c.5-1.2-1.3-1.1-1.4-2.3a8.367,8.367,0,0,0,1.2-.1c.5-.6-.7-.5-.8-1.1l1.1-1.3c-1.2-.5-.7-1.8-1.4-2.3,1.6-1.4-.6-.6-.2-1.8-.6,0-.5.6-1.2.2C-65.5-60.6-63-59.1-63.1-60.3Zm4.5,51.6c-.4-1.3-1.5-1.2-2.5-1a48.566,48.566,0,0,1-9.6,2.8C-74-5.2-78.1-5.2-81.3-3.2c-.6-.5-.9.5-1.4.6-.7-1.5,2.9-1.1,2.5-2.7-.5.1-1.1,1-2.2.6l.6-.5c0-.6-.5-.6-.5-1.1,1,.4.9-1.6,2-1.7-1.1.1,0-.9.5-.9h-1a.709.709,0,0,1,0-1.1h-.6c1.6-1.6,0-3.2,1.5-4.2.6,0,.1-1.1.1-1.6,0-.6,1-1.1,1.5-1.1l-.5-.5a.621.621,0,0,1,.6-.5h-1.6c-.1-1.6,1.6,0,1.6-1.6-.6.5-.5,0-1.1-.6l1.5-1.1c.6-1,.3.2.8-.9l.8-.6s.6-.1.6-.6a2.428,2.428,0,0,1-1.2,0l.1-.6c0-.5-1.1-.5-1.6-.4-1.6,0-3.2,1.6-3.7,3.2-.4,2-3.6,5.3-2,7.5a2.045,2.045,0,0,0-1.1,0c.5.9-.5,1.5-.5,3.1,0,2.7-.5,2.9-1.1,4.7l.1.6-1.6,2.1c1.1,2.2-1,2.6-.5,4.3A6.517,6.517,0,0,0-86,0c.6,3.3,2.6.6,4.2,1.1l-1,1.2,1-.1c1.1-1.1,1.6,0,2.7-1.1,1,0,1.5-1.2,2.6-.6,2.1-.6,3.7-1.6,5.3-2.1,1.6,0,2.1-2.2,3.6-1.7.6-1.5,1.6.1,2.7-.6.6-2.5,3.7-2.1,5.3-3.7,0,0,.8.4.8-.1ZM-7-54.8c-1.2-1.8-4.2-1.1-5.4-.5,0,.6-1.1,1.2.1,1.8l-.6.6c0,.6,1.8,0,1.8,1.2l-1.8.6c.1,1.2,1.4,4.8.2,6,.1,1.2.7,2.4.1,3,1.2.6-1.1,1.9.7,1.8-.6.6-.6.6-.6,1.2,1.8,1.2-1.1,2.4.7,3l-.6.6c0,.6.6.6.6,1.2h-.6l1.3,1.2-.6.6.5.3.1.3c0,.6,0,1.2-.6,1.2.6.6,1.2,0,1.2.6l-.5.6,1.8-.1c3.1-.2,3.6,2.3,6.5-.8C-1.5-31-.3-32.2.9-32.9c1.8-.6,3.5-1.9,5.3-2.5-.6,0-.6,0-.6-.6l2.9-1.9H7.9c.6-.6,1.8-1.2,2.4-.6a.588.588,0,0,1-.6.6c1.2.5.1,1.2.7,1.2-1.2,2.4.1,4.2-1.1,6l.7.6-.6.6.6,1.2c-.6,0,.6,1.2-.5,1.8a1.484,1.484,0,0,0,.6,2.4L9-22.9c1.2.6-.6,1.2.6,1.8l-.6.6c.6.6-.5,1.2.7,1.8l-.6.2v.4c.6,0,1.2,0,1.2.6-.6,0-.6.6-1.2,0,.6,1.2-.5,2.4,1.3,3,0,.6-1.2.6-1.1,1.8,1.1-.6.6.6.6.6,1.2.6-1.2.6-.6,1.8,1.2,0,1.2-1.2,1.8,0L9.4-8.5l1.2.6-.6.6c.6,0,1.8-.7,2.4-.1,0,1.2-1.8.7-2.3,1.9.6.6,0,1.2.6,1.2.6.5,1.8.5,2.4,1.7h-.6a.588.588,0,0,0-.6-.6L12-2l1.8.6c.6-.6.6,1.2,1.2.5l.4-.3,1.4-.3c0-.6-1.2,0-1.9-1.2l1.2-.6h-.6c0-.6.6-.6.6-1.2-1.8-.5.5-2.4-1.3-2.4,0-.6.6-1.2,0-1.2.5-2.4,1.6-5.4-.2-6.5l.6-.1a2.461,2.461,0,0,0-.7-2.9c0-.6.6-.7,1.2-.7a1.131,1.131,0,0,0-1.2-1.1,6,6,0,0,0,1.1-2.5c0-1.2.5-2.4-1.3-2.3l1.2-.7c.6-.6.6-1.2-.6-1.8h1.2c-.7-.6-.1-1.8-1.3-2.4,0-.6.6,0,1.2,0l-.6-1.2c1.1-1.8.4-3.6,1-5.4l-.6-.6c.6-.6,0-.6,0-.6l.5-1.2-.6-.6.6-.6-.6-.6a.588.588,0,0,1,.6-.6c-.1-.6.5-1.8-.7-2.4h.6c0-.6-.6-.6,0-1.2-.7-.6-1.3-2.4.5-2.4l-.6-.6v-.6l-.7-.6H16l-.6-.6c0-.6,1.2,0,1.2-.6-.6-.6-.6-1.2-1.2-1.8l1.7-.6a.588.588,0,0,1-.6-.6v-.6a6.218,6.218,0,0,0-6.6-.4c1.3,2.3.7,5.4.8,7.2.2,5.9-7,6.8-11.1,9.9-.6.6-1.8.6-1.8,1.2-1.8.7-2.9,2.5-4.2,1.3.6-1.2-1.2-1.1-1.2-2.3,1.8-.7.5-1.8-.1-2.4h-.6l1.2-1.2c-.6,0-.6,0-1.2-.6-.7-.6.5-1.2,1.1-1.2,0-1.2-1.8-1.2-2.4-1.2,0-1.2,1.2,0,1.2-.6A.588.588,0,0,0-9-44c.5-.6.6-.2,1.2-.8l-.1-.4.6-.6-1.2-.6c-.1-1.2,1.2-.6,1.1-1.8,0,0-.6.6-.6,0-.6-1.2,1.2-1.3,0-1.8h.6c-.6-.6-1.3-1.2-.1-1.8a.588.588,0,0,1-.6-.6c.6,0,.6-.6,1.2-.6Zm-20.6,3.4c-.7-.7-1.3,0-2.6,0-8.6,3.3-17.9,7.2-25.2,12.5,1.3.7,1.3,2,3.3,1.4.7,0,2,.6,2-.7l.2-.8c1.1-.3,3.1-1.7,5-2.6C-41.1-43.4-37-45-33.1-47l1.5-.5-.6.7h.6l-.6.7c-1.4,5.3-2.7,9.9-4,15.2,0,1.3-2.6,2.6-.7,3.3h-.6a2.855,2.855,0,0,0,0,3.3c-1.3.7-1.3,2.7-2,3.3,0,1.3-1.3,2,0,2.7,0,.6,0,.6-.7.6,0,1.4-2,2.7,0,3.3l-.6.7c0,.7-.7,2,.6,2-.6,0-.6.7-.6.7.6.6,2-.7,2.6,0-.6.6-1.3.6-2,1.3,1.4,0,2,1.3,3.3,0l-.6-1.3c.6,0,.6-.7,1.3-.7l-1.3-.7,1.3-1.3c-.7-.7,0-2.6,0-4.6,1.3-.7.7-2.7,2-4-1.3-.7.6-.7.6-1.3h2.7c0,.6-.7.6-.7.6,1.4.7.7,2.7,2,3.3-.6,1.4,2,.7,2,2l-.7.7c.7,0,.7,0,1.4.7-.7,1.3,2,.6.6,1.9,0,.7,1.4-.6,1.4.7-.8.1-.4.7.6.7l1.3,1.3a.686.686,0,0,1,.7.7c.7.6,2-.7,2,.6h2.6a.686.686,0,0,1,.7.7c0-.7,2,0,2-.7-2-1.3-4.6-2-5.3-4.6-2-1.3-1.3-4-3.3-4.7l.6-.6-1.3-1.3c0-1.4-2-2.7-3.3-4-3.1-3.5-4.4-1.4-5.3-2-.7-1.3,0-2,.7-2l-.7-.6.7-.7h-.7c.7-.7.7-1.3,1.3-1.3,0-.7,0-1.4-.6-1.4,1.3-1.9,1.3-2.6,2-4.6-.7-1.3,1.3-3.3.6-4-.6-1.3.7-1.3.7-1.3,0-.7-.7,0-1.3-.7,1.3-.6,1.9-1.9,1.9-3.9C-29.6-48.8-28.3-50.8-27.6-51.4Zm137.3,35c-1.8-2.4-4.2-3-6.6-3.6-1.2,0-2.4,1.2-3,2.4.6,0,.6,1.2,1.8,1.2,0,1.2,1.8.6,3.6,1.2a.588.588,0,0,1-.6.6c.6.4.9,2.7.6,4.2-.6,1.2-2.4,3.6-3.6,4.2s-3,.6-3.6-.6.6-1.2,1.2-2.4l-1.8-.6v-.6l.6-.6c0-1.2,1.8-.6,1.8-2.4.7-.9,2.2-.4,1.2-1.8,1.2-.6-.6,0-.6-1.2a16.565,16.565,0,0,0-4.8,3.6c-.6.6,0,1.2-.6,1.8-.6,1.2-1.2,2.4,0,3.6H94.1a19.975,19.975,0,0,0-1.8,3.6h.6c2.4,1.2,4.2.6,6.6,1.2a.588.588,0,0,0-.6.6c1.8,0,1.8-.6,3-1.2,2.4.6,4.2-2.4,6.6-2.4l-1.8-.6.6-.6c1.2.6.6-1.8,3-2.4C109.1-11.6,112.1-14,109.7-16.4ZM82.9-44c0-.6-.7-1.3-1.4-1.9-3.9-3.3-9.8,0-13.7,1.9-3.2.7-5.2,3.3-8.5,3.9.7.7,2,0,3.3.7-2,1.3-3.3-.7-4.6,0l.7.7c-1.3-.7-2.6,1.3-3.9,1.3-.7,1.9,1.3,1.9.6,3.9.7.6.7.6,1.3.6.7,0,1.3,0,1.3-.6,4.6-2.6,9.8-3.9,14.4-7.2,2,.6,4.6-2,5.9.6-1.3.7.6,2-1.3,2v3.3c-.5,3-1.4,3.1-.7,5.2-1.9,1.3.7,2.6-1.3,3.9,0,1.3-.6,2.6.7,2.6,0,2.7-1.3,5.3,0,6.6C75-15.2,77-13.9,77-12.6a3.694,3.694,0,0,0,2.6-.7c-2-.6,0-1.9-2-2.6l1.3-1.3c0-1.3-.6-3.9,1.3-5.2-.6,0-1.3-.7-1.9-1.3,3.2,0,.6-4.6,2.6-5.2-1.3-.7,0-2,0-3.3h-.7c2.7-1.3.7-4.6,1.3-5.9,0-.6,2-1.3,0-2,0-.6,0-1.9,1.4-1.9l-.7-.7C81.5-43.3,82.9-43.3,82.9-44Zm22.8-9.2c-.6-1.8-1.2-4.2-3.6-4.2-1.2,1.2.6,2.4-.6,4.2l.6.6c.6,1.2-.6,2.4-.6,3,.6,1.2,0,1.8.6,2.4a5.125,5.125,0,0,0,0,4.2l-.6.6c-.6,0,0,1.2.6,1.2-.6.6,0,1.8-.6,1.8l.6.6-.6.6v3c0,1.2,1.2,2.4,0,3,2.4.6,4.2,1.8,6,1.2l-.6-.6h.6a.831.831,0,0,1,1.2,0c1.8-.6,4.2-1.2,6-1.8,1.8-1.8,4.8-2.4,7.2-3,.6-1.2,2.4,1.2,3-.6v-.6c-6-3.6-12,0-18,1.8l-1.2-1.8-.6.6-.2-.8.5-.8-.5-.4.8-1a2.2,2.2,0,0,0-.6-1.8.588.588,0,0,1,.6-.6c.6-.6,0-1.8,0-2.4v-.6l-1.2-1.2,1.2-.6c0-.6.6-1.8,0-2.4-1.2,0-.6-1.2-1.2-1.8h1.2c.6-1.2-1.2-.6-1.8-1.2C103.9-53.8,105.7-52.6,105.7-53.2Zm55.6,11.6A31.975,31.975,0,0,1,172.4-44c1.2.1,2.5-1,3.7-.9.7-1.1,2.5-.3,3.7-.8,1.8.2,1.9-.4,3.7-.2.7-1.1,3,.3,3.7-1.4-1.2-.1-2.9-.9-4.1-.4a14.485,14.485,0,0,0-2.8-1.4l-1.3.3-1.2-.1a6,6,0,0,0-3.7.8c-1.6-2-4.3.2-6-.6-1.9.4-3.8,2-5.5.6.1-.6,1.2-.5.7-1.1l-.5-.7c0-.6,1.2-.5,1.2-.5.8-1.1-.4-1.2-1-1.3.7-1.1,1.8-.4,2.5-.9l-.5-.7-.6-.6c.7-.6.7-.6.1-.6l.6-.6c.2-1.2.2-1.8-1-1.9l.7-.5.1-.6.6-.6c.2-1.1.3-2.3-.3-3l.7-.5.1-.6c0-.6.1-1.2.7-1.2l1.1-1.3,1.1-2.6c-.5-1.5-3.1-1.7-7.1-.8a49.022,49.022,0,0,1-6.9,1.7c-2.9-.3-5.6,1.8-8.6,1.5-1.9,1.6-4.9,1.3-7.4,2.2,1.6,2,3.5,1,5.9,1.2,2.5-1.5,6.2-1.7,9.3-2.6,1.8.2,4.4-1.9,6.7-.5a7.419,7.419,0,0,0-1,3.5c-1.2.5.4,1.9-.9,2.9-.7,1.2.4,1.9-.9,2.4.6.6-.1,1.8.4,2.4l-.7.6c-.8,1.7,1,1.9,1.6,2.5-.7.6-1.2-.1-1.9.4.6.1.5,1.3.4,1.9l-.6-.1.6.7-.7.5a.6.6,0,0,1,.5.7c-1.2.4,0,.6-.7,1.1-1.8-.2-3.7.8-5.5.6-2.5,1-5.5.7-6.9,2.3-5.5.6-10,3.2-14.4,5.1-1.8.4-4.4,2-3.5,4.5,1.3-.5,1.1.7,1.7.8.2-1.8,1.9-.4,3.1-.3.8-1.7,2-1.6,2.7-2.7,1.2.7,6.7-1.6,6.1-1.2,3.1-.3,5.8-3,9.3-2l.1-.6a24.38,24.38,0,0,0,5.5-1.1c-.1,1.3-.5,2.8-.5,4-.6.6,0,.6.6,1.2-1.8.6.6,1.8-1.2,2.4-.6,1.2.6,1.2.6,2.4,0,0-.6,0-.6,1.2,1.8,0,0,1.8,0,1.8l.6.6c0,.6.6,1.8-.6,1.8.6.6,1.8,0,2.4.6l.6-1.2c0,.6,0,.6.6.6-.6-.6.6-2.4,0-3a.588.588,0,0,1,.6-.6c-.1.1.3-1.7-.6-1.2,0-.6,0-.6.6-.6-1.8-2.4,3-2.4.6-4.2a21.318,21.318,0,0,1,1.2-6c-.6,0-.1-.5-.1-1.1Zm11.1,18.7c-1.2,0-2.3-1.3-3-1.2a126.877,126.877,0,0,0-22.8,5.4c-1.8.6-4.2-.6-4.2,1.8,2.4.6,4.2,3,7.2,1.8-.6,0-1.2,0-1.2-.6.6-.6,1.8,0,2.4-.6.6,0,2.4-1.8,4.8-1.2,3-1.8,6.6,0,10.2-1.8.6.6,1.8,0,2.4,0,.6.6-.6,1.2.6,1.8-1.2,1.8-1.2,4.8-1.8,6.6-1.2,1.2.6,2.4-.6,3,0,3-1,5.4-.4,7.2-1.2,1.8-.6,3.6-.6,6,0,0,.6-.6.6,0l-.6.6c-1.2-.6,0,1.8-1.2,1.8.6.6.6,1.8,1.8,1.8-.6,1.2-1.2,0-1.8,0,0,.6-.6,1.8,0,1.8s0,.6,0,.6c.6.6,2.4,0,2.4,1.2,1.8.6,1.8-.6,3-.6l-1.2-.6c.6-1.2,1.8-1.2,1.8-2.4a1.15,1.15,0,0,1-.6-1.8h.6l-.6-.6c.6-.6.6-.6,1.2-.6V5.9c-.6-1.8.6-3-.6-4.2.6,0,.6-.6,1.2-.6L170.2.5l.6-.6c0-.6.6-1.2-.6-1.2l1-2.4c-.6-.6.6-1.2.6-1.2l-.6-1.2a1.29,1.29,0,0,0,1.2-1.2c-1.8-.6-.6-2.4-.6-2.4-.6,0,0-.6,0-.6a.588.588,0,0,1,.6.6c0-1.2.6-2.4,0-3.6,0-.6.6-.6,1.2-.6-.6-.6-.6-1.2-1.8-1.8l1.8-1.2c-.6,0-.1-1.1-1-1.2a1.286,1.286,0,0,0,1-1.2l-.6-.6.6-.6ZM251-75.6a2.386,2.386,0,0,0-2.2-1.1c-.5,1.1-2.2.6-2.2,2.2l.2,1.3c0,.6-1.1.6-1.1.6,0,.5.6.5.6,1.1a.936.936,0,0,0,0,1.6h-.6a.588.588,0,0,0,.6.6v.5h-1.1l1.1,1.1a1.182,1.182,0,0,0-1.1,1.1h.5a.527.527,0,0,1-.5.6l1.1,1.1-1.1.5h.5c0,1.1-1.7,2.2,0,2.8,0,.5-1.7,1.1-.5,2.2a2.1,2.1,0,0,1-1.2.6l.6.5c-2.2,2.8-5.5,4.4-7.7,7.2v.5l-.6.6c0,1.1-1.6,1.7-2.2,3.3-.5.6-.5,2.2-1.7,2.8-.5,1.1,1.2,1.6,1.2,2.2l-1.2.5,1.2,1.7H233c1.1.5,1.7.5,2.8,1.1l-1.7.5c1.7.6,3.3,1.7,5,1.7a7.142,7.142,0,0,0,1.7-.5l.7-.6c2.3.1,3.7-1.7,4.8-2.8,0-1.1,1.6-1.6.5-2.2,2.2-1.1,0-3.8,2.2-4.9l-.5-.6c.5-1.1-1.1-2.8.5-2.8-1.1-.5.6-1.6-.5-1.6l.5-.6v-.5c2.2-1.1-1.1-2.2.6-3.3a16.805,16.805,0,0,1,3.7-3.3l1.5-.9c2.8-1.4,4.9-1.9,5.7-4a5.561,5.561,0,0,0-4.3-.3,4.235,4.235,0,0,1-1.4.6c-1,.5-2.4,1.1-3.6,1.8-2.8,1.6,0-2.8-1.6-2.8l1.1-.5c-2.2-1.1,1.1-1.7-1.1-2.2,1.6,0,1.6-1.7,1.6-2.2-1.1,0-1.6,1.1-1.6,0,.5,0,.5-.6.5-1.1A15.1,15.1,0,0,0,251-75.6Zm-25.2,4.1c-.5-2.3-4.4-2.8-4.9,0,1.6,1.1,0,2.7,1.1,3.8h-.6c1.1,1.1-1.1,1.7.6,2.2-1.7,1.1.5,1.7-.6,2.8h.6c0,.5-.6.5-.6,1.1,0,.5-.5,2.2.6,2.8l.5.5c0,1.1-1.6,1.1-1.6,2.8.5,0,1.1-.6,1.1,0,0,.5-1.1.5-.6,1.1l1.1,1.1a1.8,1.8,0,0,0,0,2.2c-1.6.5.6,1.6,0,2.2l-.5.6c.5,1.6.5,2.7,1.6,4.4,2.2,0,3.3,1.1,5-.6,0-1.6-1.1-.5-1.7-.5-1.6,0,0-1.1-.5-2.2-.6,0-1.1.5-1.1,0,0-.6.5-.6,1.1-.6v-3.3l-.6-.6v-.5s.6.5.6,0v-.6l-.6-.5c1.1-1.1,0-3.3.6-3.9l-.6-1.1.6-.5c0-1.1.2-3.3.2-3.8,0-1.7-.2-2.3-.2-3.4.5-.6,0-1.1-.6-1.7C227.5-68.8,225.3-70.4,225.8-71.5Zm18.8,18.7s-1.1,1.1-.6,1.7h.6c0,.5-.6,0-1.1.5l.5.6c.6.5-.5.5-.5.5l1.1,1.7a1.182,1.182,0,0,0-1.1,1.1l.5.6c-1.1-.6,0,.5-1.1,1.1l1.1.5c-.5,0-1.1-.5-1.1,0v.6h.6c0,1.1-1.7,0-.6,1.1-.5,0-.5.5-1.1,1.1l.6.5c-1.1,0-1.1,2.2-2.8,1.1-.5,0-.5-1.6-1.6-1.1,1.1-1.1-.6-1.6-.6-2.7,0,0,.6.5.6,0-.6-1.7,1.6-3.9,2.2-5.6.5,0,1.1-1.1,1.6-1.1A6.15,6.15,0,0,1,244.6-52.8Zm-3.9,18.3c-1.2,1.2-2.4,0-3.6,0a5.959,5.959,0,0,0-3.6,4.8c.6,1.2-1.2,1.8,0,3-.6,0,0,1.2-.6,1.2l.4.8-.6.6c.6.6-.6,1.2.6,1.8.6,1.2-.6,1.8,0,3-5.4,2.4-6.7,2.5-12.1,4.9-1.2.6-3.6,1.8-4.2,3a8.528,8.528,0,0,1,3.6,1.2h.6s.3-.1.3.5l.9.1s1.2-.6,0-.6a18.233,18.233,0,0,1,4.2-3l3.7-1.3c.6.6,2.4,0,3,0l-1.2-.6a22.5,22.5,0,0,1,6.6-.6c.6-1.2,1.2-1.2,2.4-1.8,2.4,0,5.3-1,7.8-1.8a8.088,8.088,0,0,1,2.7-.5l-.6-.6c.6-1.2,1.2.6,1.8,0,1.8-1.8,5.4,1.2,6-2.4-4.8-.6-6.3-.7-11.1.5-3.6.6-7.8,3.6-10.8.6.6-.6.6-.6,1.2-.6,0-.6,1.2-1.2,0-1.8,1.8-.6,0-1.2,0-1.8l.8-.2-.6-.6c.6-.6-1.2-1.8.6-1.8-.6-1.2,0-2.4,0-3,.6-.6.6-1.2,1.2-1.8C239.5-33.3,240.7-33.9,240.7-34.5Zm.5,22.7c-5.4-.8-7.5,6.1-10.5,9.3l.6.1a21.772,21.772,0,0,0-4.7,6.6l.6.1-.6.5c.3,1.9-2.9,3.1-.7,4.7-1.2-.2-1.4,1-1.5,1.6.5,1.4,1.8.3,2.3,1-.1.6-1.2-.1-.7.5l.3.8.8-.1a11.432,11.432,0,0,0,4.7,1.3l.1-.6c-.6-.6-1.8-1.6-2-.4-1.2-.2-1,0-1.5-.7a1.146,1.146,0,0,0,1.3-1c1,1.4,2.4.9,3.3,2.3l.2-1.2c2.3,1,3.8-1.2,5.8-2.1.4,1.8,1.9-.4,3.1-.2.9-2.2,3.6,0,4.5-1.7,1.8-.3,3.9-1.8,5.7-1.5.8-1.8,4.2,0,4.6-3-1-.8-1.3,1-3,.2-2.6.8-6-.3-9.2.9-3.2.8-5.8,1.7-8.9,2.4-2.3-.4-5.3,2.8-7.2-.5l1.3-.4-.6-.1c.7-1.1.9-1.6,1.6-2.8h-.6l.7-.6c-.4-1.8,2.2-2.1,2.4-3.9l.6.2c.1-.6-.3-2,.3-2.4,1.3-.4,1.6-2.2,2.2-2.8.2-.6.8-1,.2-1.1l1.4-1-.4-.7c1.2.1,1.4-1.7,2.6-1.5l-.6-.6c.2-.6,1.4-.4,1.4-1Zm75.3-13.9c-3.5-.3-11,2.8-15.2,4.6-1.2.6-3.6.8-4.2,2.6-.2,1.4,2.2,2,5,1,1.4-.1,1.7-.9,3.1-.3,0-.6-.6-.6,0-1.2,1.2,1.2,5-1.6,6.2-1.6,1.8.6-1.2,1.2.6,1.8-1.2,1.8.9,4.5-.9,5.7l.6.6-.6,1.2.5.4.1.8c0,.6,0,.6-.6.6,2.4.6-1.2,2.4.6,3l-.6,4.7c0,.6-.6,1.2-.6,1.8.6,0,1.2-.6,1.8,0,0,.6,1.2,1.8,0,2.4l1.8.6-.6,1.2c.6.6,1.2,0,1.8,0a1.15,1.15,0,0,1,.6-1.8c-1.2-1.2.6-2.4,0-3,0-1.2,1.2-2.9.6-4.1.6-1.8,0-4.2.6-5.4-1.2-1.2.6-1.8,0-3,1.2-.6-.6-1.8.6-2.4l-.6-.6a.588.588,0,0,0,.6-.6c-1.2-.6,0-2.4-1.2-3,3-.6-.6-3,1.2-3.6h-.6l.3-.8-.3-.9Zm.4-3a2.911,2.911,0,0,0,2-2.2c.7-.6,1.3-1.2,1.9-1.1-.6-.7-.6-.7-.6-1.3.1-.6-1-1.8.8-2.3l-.6-.7.6.1a3.267,3.267,0,0,0-.4-2.5l.6-.4a13.3,13.3,0,0,1,.3-3,.588.588,0,0,1,.6-.6c-1.2-.8-.4-2.4-.4-3.6a8.673,8.673,0,0,1-.9-4.4c1.2-.4-.5-1.8-.5-2.4,1.4-2.2.9-5.4-.1-7.2-1.2-.6-1.8-1.3-2.4-1.4-2.6,2.9-1.6,7.2-1.9,11.4.6.6-1.2,1.1-.1,2.4,0,0,.5.6-.1.6-.5-1.3-2.4-.2-3,.3-6.1,1.4-11.6,4.1-17.2,5.5-1.8.6-4.2-.8-6,.8a3.434,3.434,0,0,0,1,2c.6.6,1.7,1.8,3,.8.7-.4.7-.4,1.2,0,.9-1,2.4-.1,3-1,1.2.7,3-.8,3.7-.3,1.6-1.9,2.9-1.2,3.1-1.6a6.4,6.4,0,0,1,4.4-1.6l-.6-.6c.9-1,1.5-1.2,1.8-.5a.489.489,0,0,1-.6.5c.6.7,1,1.4,1.1.8l-.5-.7a1.706,1.706,0,0,0,.6-1.1,5.042,5.042,0,0,0,3.1-1.1l-.5-.6,1.8-.5c-.6-.6-1.2.5-1.8-.1,0-1.2,1.2-.5,1.2-1.1.6,1.2,1.8.7,1.8,1.9-.2.6-.8,1.7.4,1.8-1.2.5,0,1.2-.1,1.8-1.3,1.1-.2,3-.9,4.2,1.8.1-.7,1.7,1.1,1.8-.6.6-.1,1.2-.7,1.8-.7,1.2.5,1.8-.7,2.4l1.1.6-.7.6C315.9-29.3,316.1-29.1,316.9-28.7Zm-8.5-25.1c-.6-1.2-2.4-.8-4.2-1-6.1,1.5-12.9,4.1-17.9,7.9a.6.6,0,0,0,.5.7.489.489,0,0,1-.6.5l-.1.6c.6.9.8,1.1,2.2.8l1.2-1c.7-.8,1.5-.8,2.7-1.4a24.133,24.133,0,0,0,2.5-.8l2.5-1A4.359,4.359,0,0,1,299-49c1.3-1.2,3.7-1.6,5.6-2-.5-2,3-1,4.3-2.2Zm-27.1,0c-.5-1.2-2.3-1.4-3.6-.2,0,0-1.3.5-1.7-.2-.2.6-1.2,0-1.4,1.2-.6.6-2.4-.2-3.6-.2l-4.6,1.6c-.8.6-4.4.2-3.9,1.5-.6,1.4,1.5,3.9,3.4,2.2l3.5-1.3c.6.1,4.2-.2,4.2-.8,1.2,0,3.2-.6,3.8.2,1.2,1.2,1,3,.9,5.4-1.3,1.2-.8,3-.8,4.2-.5,1,.5,2.5-.5,4.5l-.8,3c.5,1.2-1.3,1.6.4,3a4.285,4.285,0,0,1-1.2-.2l.5,2c-.6.4-.7,1.6-1.4,2.8,3,.8-1.2,1.8,1,2.5,0,0,0,1.2-.6,1.1.8.8,2.9,1.4,3.6.2,0-.6.8-2.2-.4-2.4,1.2-.4,1.4-2.8,1.4-4,1.8-.6-1-2.6.8-3l-.5-1.2c1.2-2.1,1-3.2,1.3-4.8-.5-1.2.4-2.7,0-3.9.3-.7.8-.6.6-1.2,0-.6-.4-3,.2-2.9-.6-.7.7-1.8-.4-2.5,1.3-1.7.1-3,.3-4.2h-1.2c-.6-1.3.6,0,1.2-.6,0-.6-.6-.6-1.2-1.2ZM348-19.6a5.027,5.027,0,0,0-2.2,1.2l1.4,1.3-.6.6h.6l-.2,2.3c-.7.1-1.4.7,0,1.2a25.79,25.79,0,0,0-.6,6.4v1.5C345-3.3,343.1-2.3,341-.5c-.7,1.2.4,2.5,1,4,1.2.1,2.6-1.8,3.7-.4-.4-1.4,1.4-.5,1.4-1.2l-.5-.6c1.9-1.1,3.7-1,4.6-2.9.7-.6,1.8.9,1.9-.5,2.5.3,5.4-3.3,8.4-1.8.8-1.2,1.9.7,2.1-1.2,1.1.1,2.3-.9,3-.3,0-.1-.6-.7.1-.6,0,0,.1-.7.7-.7l.5-.2,2.5-.6.3,4,.2,1.4-.2.6c.5,2.5.4,5.1.7,8.3.6,1.3,1.1,1.3,2.4,2.1.8.2.9,0,1.3-.6,1.9-1-1-2.6.3-3.7a.686.686,0,0,1-.7-.7c.1-.7.7,0,.8-.7l-.7-.5c1.6-2.4-.1-5.7,1.4-8.2.1-.6-1.8-2.1.2-2.5a.615.615,0,0,0-.6-.7l.6-.5-.1-2v-1c.1-1.2,2.4-2.2,3.1-2.8l4.1-1.9,3.1-1.4c.7-2,5.2-1.8,4.7-1.8.6-1.3,1.8.1,2.5-.4l-1.2-.7,1.2-.6.3-2.7-.5-.5c-8.1,1-10.7,2.4-17,6.3-2,1.1-.6-1.7-1-2h.6c.7-2.4-.4-3.7-.3-6.3-.3-3.3,1.4-8.7-3.6-11a1.354,1.354,0,0,0-2.4.3c.5.7-.1,2,1,2.7-.7.5.5,1.8-.9,2.4a3.784,3.784,0,0,1,.3,4.5.686.686,0,0,0,.7.7c.4,2-1,3.7-.6,5.6.5,3.2.2,5.7-.1,9.5h-.5l-4.6,1.1c-3.8.3-6.4,2-10.3,3-1.4.5-2.8,1.6-3.9.9-.6-.4-.2-.9-.2-1.4h.6c0-1.2-1.3-.5-1.3-1.8l1.1-.5-.6-.7.8-.7L350-13.6a1.862,1.862,0,0,1,1.3-.7l.5-1.3-.1-1.1c.5-1.5-.5-2.3-.6-2.7Zm.5-51.4a4.789,4.789,0,0,0-3.1-1c-1,.7-1.4,3-.8,4.2-1.2.5-1.1,2.3-1,3-.5,1.7-.5,2.9-1.5,4,.7,1.8-1.6,3.6-.4,5.4,0,0,.6-.1.7.4-1.2.7-1.1,1.9-1.6,3l1.2.5-.6.6-.6.1.1.6c.6.1,1.7.3,1.7.8-.9,1.7-1.8-.3-3.1.8l-.1,1.1c-3.1,1.3-6.8,2-10.6,3.8,1.1,1.3,1.7.3,2.2,1.4l-.7.6c1.9-.9,2.1,2.1,4,1.1,6-.9,11.6-3.6,17.6-4.6a2.535,2.535,0,0,1,1.2-.4c.8-1.1,2.9.4,3.2-1.3,1.9-1.5,4.4,1.2,5.4-1.6l.6.1.1-.6c-.5-.7-.4-1.2-1-1.3-5.5-2.5-11.2.8-16.5.7l.1-.6-.6-.1c-1.1-.8-1.8,0-2.4-.6l.6-.9,1.1.3v-.6l.6-.1-.7-.4c.6-.6,1.8.3,2.4-.2V-54l-.6.6c-.6,0-.6-.6-1.3-1.1.5-.6.5-.6,1.2-.1-.1-.6,1-.6,1.1-1.1-2.4-1.1,1.6-1.9-.2-3l1.2-.6a.588.588,0,0,1-.6-.6c.6,0,.4-1.2,1.1-1.2l-.7-.6c.5-2.3,2.7-4.2,2-6.4-1.2-.6-1.2-1.7-1.8-1.7C347.4-70.9,348.6-70.5,348.5-71Zm5.3,37.7c-1.3-3.6-4.8-3.5-6.2-6-1.6-1.4-3.4-.5-4.6-.7-1.8.4-2.1,2.6-2.8,3.2l.8-.1.3.2-1.2,1.1h.6c1,.7.2,1.8,1.5,1.4-.3-.7.6-.7,1.6-.8l.3-.7.7-.5c1.8-.4,2.7,1.6,3.9,1.7,1,1.3-1.4,1-.3,2.3a.6.6,0,0,0,.5.7,26.414,26.414,0,0,0-4.1,4.1c-.8,1.1-2.5.8-3.1.8v.5c-.7.5-1.4,1-1.9.3l.7-.5v-.5l1.3-.4c-.4-1.3-1.3.4-1.8-.3,1.3-.4,2.7-1.9,3.2-1.9-.4-.6-.9-1.3-.9-1.3.1-.6,1.2-.4.7-.5-.5-1.2.6-.5.6-1l.2-1.2a7.33,7.33,0,0,0-6.2,2.1l1.2.7c-1.3.4-.9,1.6-2,1.5-.7,1.1-1.5,2.1-1,3.4l-1.4,1c.5,1.2,2.3.3,2.6,2.1-.4,0-.5.2-.7.4,1.4-.2,1.9.9,2.9,1.1,1.8-.4,4.9,1.2,6.8-1.2l2-1,.4-.7c3.9,1.2,3.2-1.9,5.8-3.3-2.9-.9,1.2-1-.3-2.4C353.5-31.5,354.2-32,353.8-33.3ZM335.9-22.2c.1.1.3,0,.4,0Z" transform="translate(394.5 77.28)" fill="#fff"/></svg>