<svg xmlns="http://www.w3.org/2000/svg" width="940" height="95.58" viewBox="0 0 940 95.58"><path d="M-426.6-21.2c-1.4-1.5-3.5-3.8-6.3-3.1-10.2,3.1-20.4,7-31.2,8.7-2.9,1.3-7.1-1-8.7,1.7,0,.7.7.1,1.4.8-.8,2.2,2.8,1.6,3.5,2.3l-1.4.7c1.3.7,2.7.8,3.6-.6,1.4.8,2.1-.6,2.8.9-.8.6-2.1-.8-2.2.6.8-.7,2.1.1,2.9-.6l-.7-.7c.8-2.2,2.2,0,2.9.8l-.7-1.5c1.4.1,2.9-.6,3.5.2,2.2.8,3.4-.4,4.4-1.3-.7,0-1.4.6-1.4-.1,2.2-1.3,4.3-1.2,7.2-1.1,2.1.1,3-2.8,5.2-2.7,1.4-.6,2.8.2,3.5-1.2,2.2.1,3.6-.6,5.9-1.9l.7.8c0-.7.7-.7,1.4-.7C-429.5-20.6-427.3-20.5-426.6-21.2ZM-445-9.8c-.6-2.2-2.8-2.3-4.2-1.7-1.6,2.9-2.4,6.4-4.1,10h1.5c0,.7-.7.7-1.5.7.7,1.4-2.2,2.7-.2,3.6a.583.583,0,0,1-.7.6c1.5.8.6,2.2-.1,2.8.7.9,1.4,2.3,2.1,3l.5.5,2.9.4c1-.1,2.3.2,3.6.1.1-1.4,3.7-.5,5.2-3.4,1.5-.6,3.6.2,5-1.1.8.7,1.6-.7,2.3-.7.1-2.2,2.9-.5,3-2a27.447,27.447,0,0,0-10.8-.5c-2.8-.1-5.8,2-8.7,1.8l-.2-1.3.1-1.6c.7-.6.3-.9.8-2.1l.2-.6,1.6-2.2-.7-.7.1-.7c.7-.6,1.5-2.1.1-2.2C-445.1-7.7-445.8-8.4-445-9.8Zm1.8-59.4c-1.2-1.2-4.2-.6-6-.6-2.4,1.2-6,.6-8.4,2.4-.6,1.8-5.4,2.4-7.2,3l.6.6c-.6,0-1.8.6-2.4.6-.6.6-2.4,1.2-1.8,2.4,1.2,1.2,3.6-.6,5.4-.6,1.2-1.8,4.8-.6,4.8-2.4h1.2l3.6-1.8c3,0,5.4-2.4,7.8-1.8v.6ZM-454-57.8c-1.2-.6-2.4-1.8-4.2-1.2-.6,0,0,.6.6,1.2-1.8,0-1.8,1.2-2.4,2.4-.6.6.6,1.8-.6,2.4,0,.6.6.6,1.2,1.2-.6.6-1.8-.6-1.8.6l1.2.6a2.2,2.2,0,0,1-1.8.6.588.588,0,0,0,.6.6c-1.2,3.6-6,.6-7.2,4.2,1.2.6,2.4,3,3.6,1.2a.588.588,0,0,0,.6.6h1.8c.6.6,0,2.4-.6,3.6a.588.588,0,0,1,.6.6c-1.2.6-.6,1.8-1.2,3,0,1.2-.6,3,0,3.6.6,1.2,0,1.8,1.2,2.4.6.6,2.4-.6,2.4,1.2.6,0,1.8,1.2,2.4.6l-.6-.6h.6c1.8.6,4.8,0,7.2-.6l-.6-.6.6-.6c.6.6,1.8,0,1.8,1.2.6-1.8,3-1.2,4.8-1.8l-.6-.6c1.2,0,1.2-1.2,2.4-.6,1.2-1.2,3.6-.6,4.2-1.2.6,0,1.2.6,1.2,0-.6-.6,0-1.8-.6-2.4-.6-1.2-2.4,0-3-.6-6.6-1.2-12,4.2-19.2,3.6l1.2-1.2a.588.588,0,0,1-.6-.6h1.2a5.409,5.409,0,0,0-.6-3c2.4-.6-.6-1.8,1.2-3h-.6c0-.6-.6-1.2,0-1.8,0-.6.6-1.2.6-1.8,1.2-1.2,2.4-2.4,4.8-2.4a3.117,3.117,0,0,1,2.4-1.2v.6s.6,0,.6-1.2c1.2.6,1.8-1.8,3,0l.6-1.2c1.8,0,3.6-1.8,5.4-2.4a5.186,5.186,0,0,0-3.6-1.8.527.527,0,0,1-.5.6c-1.8,0-2.5,1.2-3.7.6-1.8,1.2-4.2.6-6,1.8-1.2.6-2.4-.6-3-.6,0-.6.6,0,.6-.6,0-1.2,1.2-2.4.6-3l.6-.6C-455.8-57.2-454-56.6-454-57.8Zm76.3,36.6c-1.4-1.5-3.5-3.8-6.3-3.1-10.2,3.1-20.4,7-31.2,8.7-2.9,1.3-7.1-1-8.7,1.7,0,.7.7.1,1.4.8-.8,2.2,2.8,1.6,3.5,2.3l-1.4.7c1.3.7,2.7.8,3.6-.6,1.4.8,2.1-.6,2.8.9-.8.6-2.1-.8-2.2.6.8-.7,2.1.1,2.9-.6l-.7-.7c.8-2.2,2.2,0,2.9.8l-.7-1.5c1.4.1,2.9-.6,3.5.2,2.2.8,3.4-.4,4.4-1.3-.7,0-1.4.6-1.4-.1,2.2-1.3,4.3-1.2,7.2-1.1,2.1.1,3-2.8,5.2-2.7,1.4-.6,2.8.2,3.5-1.2,2.2.1,3.6-.6,5.9-1.9l.7.8c0-.7.7-.7,1.4-.7C-380.6-20.6-378.4-20.5-377.7-21.2ZM-396.1-9.8c-.6-2.2-2.8-2.3-4.2-1.7-1.6,2.9-2.4,6.4-4.1,10h1.5c0,.7-.7.7-1.5.7.7,1.4-2.2,2.7-.2,3.6a.583.583,0,0,1-.7.6c1.5.8.6,2.2-.1,2.8.7.9,1.4,2.3,2.1,3l.5.5,2.9.4c1-.1,2.3.2,3.6.1.1-1.4,3.7-.5,5.2-3.4,1.5-.6,3.6.2,5-1.1.8.7,1.6-.7,2.3-.7.1-2.2,2.9-.5,3-2a27.447,27.447,0,0,0-10.8-.5c-2.8-.1-5.8,2-8.7,1.8l-.2-1.3.1-1.6c.7-.6.3-.9.8-2.1l.2-.6,1.6-2.2-.7-.7.1-.7c.7-.6,1.5-2.1.1-2.2C-396.2-7.7-396.9-8.4-396.1-9.8Zm1.8-59.4c-1.2-1.2-4.2-.6-6-.6-2.4,1.2-6,.6-8.4,2.4-.6,1.8-5.4,2.4-7.2,3l.6.6c-.6,0-1.8.6-2.4.6-.6.6-2.4,1.2-1.8,2.4,1.2,1.2,3.6-.6,5.4-.6,1.2-1.8,4.8-.6,4.8-2.4h1.2l3.6-1.8c3,0,5.4-2.4,7.8-1.8v.6Zm-10.8,11.4c-1.2-.6-2.4-1.8-4.2-1.2-.6,0,0,.6.6,1.2-1.8,0-1.8,1.2-2.4,2.4-.6.6.6,1.8-.6,2.4,0,.6.6.6,1.2,1.2-.6.6-1.8-.6-1.8.6l1.2.6a2.2,2.2,0,0,1-1.8.6.588.588,0,0,0,.6.6c-1.2,3.6-6,.6-7.2,4.2,1.2.6,2.4,3,3.6,1.2a.588.588,0,0,0,.6.6h1.8c.6.6,0,2.4-.6,3.6a.588.588,0,0,1,.6.6c-1.2.6-.6,1.8-1.2,3,0,1.2-.6,3,0,3.6.6,1.2,0,1.8,1.2,2.4.6.6,2.4-.6,2.4,1.2.6,0,1.8,1.2,2.4.6l-.6-.6h.6c1.8.6,4.8,0,7.2-.6l-.6-.6.6-.6c.6.6,1.8,0,1.8,1.2.6-1.8,3-1.2,4.8-1.8l-.6-.6c1.2,0,1.2-1.2,2.4-.6,1.2-1.2,3.6-.6,4.2-1.2.6,0,1.2.6,1.2,0-.6-.6,0-1.8-.6-2.4-.6-1.2-2.4,0-3-.6-6.6-1.2-12,4.2-19.2,3.6l1.2-1.2a.588.588,0,0,1-.6-.6h1.2a5.409,5.409,0,0,0-.6-3c2.4-.6-.6-1.8,1.2-3h-.6c0-.6-.6-1.2,0-1.8,0-.6.6-1.2.6-1.8,1.2-1.2,2.4-2.4,4.8-2.4a3.117,3.117,0,0,1,2.4-1.2v.6s.6,0,.6-1.2c1.2.6,1.8-1.8,3,0l.6-1.2c1.8,0,3.6-1.8,5.4-2.4a5.186,5.186,0,0,0-3.6-1.8.527.527,0,0,1-.5.6c-1.8,0-2.5,1.2-3.7.6-1.8,1.2-4.2.6-6,1.8-1.2.6-2.4-.6-3-.6,0-.6.6,0,.6-.6,0-1.2,1.2-2.4.6-3l.6-.6C-406.9-57.2-405.1-56.6-405.1-57.8Zm59,24.8c-1.8-1.3-4.2-2-6-3.2-2.5-1.3-4.4,1.7-6.2,1-1.2.6-1.3,1.9-.1,1.9v.6c-1.9,0-1.9,1.8-2,3.1.6.6-1.8,1.1,0,2.4h-.6l.6.7a.588.588,0,0,1-.6.6l-.1.6c.6.6.7-.6,1.9,0-.7,1.2-1.3.6-1.9,1.2-.6,1.3,1.2,1.9,1.8,2.5l-1.3,1.2h1.9c.6,1.3,2.4,1.4,2.4,2.6,1.3,0,3,1.3,3.7-.5,1.9.6,3.7-1.1,5-1.8-.5-1.8.7-2.4,1.3-3.1a.575.575,0,0,1,.4-.6h-.4a1.125,1.125,0,0,1,0-1.8c-.5-.6-1.1-.6-1.1-1.3l1.8-.6a.588.588,0,0,0-.6-.6c0-.6-.6-.6,0-1.2l.1-1.3c.6-.6-.6-1.2-1.2-1.8ZM-332-20.3a5.628,5.628,0,0,0-3.6-1.4c-1.4.7-3.6,0-3.6,2.2,1.5,1.4,2.9-1.5,5,0a50.541,50.541,0,0,0-5.7,2.1c-.7.7,0,.7.7,2.2h-2.1c0,1.4-2.2,2.8-1.5,5,0,0,.8,0,.8.7-2.2,0-.8,1.4-.8,2.9l.4-.3.4.3c-2.2.7-1.5,4.3-2.2,6.4h.7c2.2.7,2.9-2.1,4.3,0,2.2-1.4,2.9,0,5,0V-1.6c.8.7,1.5.7,1.5,1.4a2.572,2.572,0,0,0,2.1-.7h-.7c.7-2.9,3.6.7,5-1.4a30.63,30.63,0,0,0,6.1-2.8c1.7-1.2,3.5-1.2,4.9-2.6l-.7-.7c.7-.8,1.4,0,2.1,0v-.8l1.5-.7c-1.5-.7-2.9.7-4.3.7-10.1,3.6-3.8.9-13.2,4.7-1.4,0-4.3,1.4-6.4,0,0-.7,1.4-1.4,1.4-2.1-.7-.8-2.1,0-2.1-1.5.7-.7,1.4,0,2.1-.7,0-.7-.7-1.4-1.4-2.1.7-.8,1.4.7,2.1,0v-.8c-.7.8-1.4,0-2.1-.7,0-1.4,2.1.7,2.9-.7l-1.5-.7c-2.8,0,.7-1.4-.7-2.2a2.675,2.675,0,0,1,2.2-.7v-.7c-.8.7-1.5-.7-2.2-.7,1.4-.7,2.2-.7,2.2-2.2Zm-25.2-44.1a7.27,7.27,0,0,0-4.8-.8c-.1.6.5.8.4,1.4,0,0-.7.6-.7-.2l-1.6,7.3.6.8c-2.1.4-.4,1.8-1.7,2.3l.5.5c-1.3.6-.3,2-1.5,1.8.5.7-.8,1.6-.2,1.7.5.9-.2,1.3-.2,1.3l1.1.9c-.7.5-.7.5-1.3.3.5.7,1.2.3,1.6,1-.1.5-.6.4-.7,1.1-2.9,2.6-6.7,2.7-10.6,3.9,1.6,1.6,3.6,1.2,6.2,1,9.6-2.3,18.8-5.3,28.5-8.1.8-.6,2.6-.2,3.3-.9a32.615,32.615,0,0,0-15.2,1.5c-3.1-.4-5.3,3-8.3,1.3,1.3-.4-.4-1.4.8-1.1l.2-1.2c.1-.7,0,0-.5-.8l1.3-1.1-1.2-.1c.1-.6.1-.6.7-.5l.9-.6h-.7a14.451,14.451,0,0,1,2-5.4,12.371,12.371,0,0,0,.1-4.3s.6-.6,1.2-.4c-.5-.7-1.1-.8-1-1.4C-357.4-63.1-357.3-63.8-357.2-64.4Zm34.4,10.3a17.356,17.356,0,0,0-1.6-2.6c-1.3.6-3.7,1-4.5,3.4l.6.6c0,.6-1.4,1.8-.2,1.8,0,1.2-.2,3.6-.2,4.8-.1,1.2-1.4,2.9.4,3-.7.6-1.3.6-.7,1.2,1.2.6-.2,2.4-.2,2.4,2.4.8-.6,1.2,1.1,2.4l-.8.5.7.1c0,1.2-1.3,1.8-1.3,3h1.2l-.7,1.2.5.6-.7.6h.7c2.2,2.6,3.7-.9,5.4-.2,3.1-.5,1.3-.7,3.7-1.1,1.8.6,2-2.4,3.7-1.6,2.5-1.1,5.5-.9,7.3-1.3-.4-.9-.6-.9.6-.6a1.749,1.749,0,0,0-.4-1.2c-6.5-2.9-8.4.1-14.6,2.2-.6-1.2-1.8-.7-1.6-2.5.6,0,.6-.6.6-1.2.7-1.7.2-2.4-.4-3.6l1.3-1.1c-.6-.6-1.1-1.9-2.2-2.6h.6a5.282,5.282,0,0,0,.8-2.9l-.6-.1.6-.5c-.6-.6-.5-1.8-.5-2.4h.6c.7-1.1-1.1-.7-.5-1.8C-323.8-54.4-322.9-52.9-322.8-54.1ZM-353-28.8c0,1.2,1.3.6,1.9,1.2l-1.9.6c.7.7,0,.7.5,1.3l1.3.6c-1.9,0-.6,1.8-1.3,2.5l.7.6c-.7,0-1.3-.6-1.3,0a.46.46,0,0,0,.3.6c-.5.2-1.1,1.1-1.6,1.1-1.8-1.7-.6-4.7-2.2-6,.5-.1,2.1-1.5.5-2h-.6a.588.588,0,0,0-.6-.6h-.6c.6-.6,2.5,0,2.6-1.9l.6-.6c-.6-.6-.6-1.2-1.2-.6l1.2-1.8c3.1.7.6,3,2.4,5Zm110.4-12.8A31.975,31.975,0,0,1-231.5-44c1.2.1,2.5-1,3.7-.9.7-1.1,2.5-.3,3.7-.8,1.8.2,1.9-.4,3.7-.2.7-1.1,3,.3,3.7-1.4-1.2-.1-2.9-.9-4.1-.4a14.485,14.485,0,0,0-2.8-1.4l-1.3.3-1.2-.1a6,6,0,0,0-3.7.8c-1.6-2-4.3.2-6-.6-1.9.4-3.8,2-5.5.6.1-.6,1.2-.5.7-1.1l-.5-.7c0-.6,1.2-.5,1.2-.5.8-1.1-.4-1.2-1-1.3.7-1.1,1.8-.4,2.5-.9l-.5-.7-.6-.6c.7-.6.7-.6.1-.6l.6-.6c.2-1.2.2-1.8-1-1.9l.7-.5.1-.6.6-.6c.2-1.1.3-2.3-.3-3l.7-.5.1-.6c0-.6.1-1.2.7-1.2l1.1-1.3,1.1-2.6c-.5-1.5-3.1-1.7-7.1-.8A49.022,49.022,0,0,1-249-67c-2.9-.3-5.6,1.8-8.6,1.5-1.9,1.6-4.9,1.3-7.4,2.2,1.6,2,3.5,1,5.9,1.2,2.5-1.5,6.2-1.7,9.3-2.6,1.8.2,4.4-1.9,6.7-.5a7.419,7.419,0,0,0-1,3.5c-1.2.5.4,1.9-.9,2.9-.7,1.2.4,1.9-.9,2.4.6.6-.1,1.8.4,2.4l-.7.6c-.8,1.7,1,1.9,1.6,2.5-.7.6-1.2-.1-1.9.4.6.1.5,1.3.4,1.9l-.6-.1.6.7-.7.5a.6.6,0,0,1,.5.7c-1.2.4,0,.6-.7,1.1-1.8-.2-3.7.8-5.5.6-2.5,1-5.5.7-6.9,2.3-5.5.6-10,3.2-14.4,5.1-1.8.4-4.4,2-3.5,4.5,1.3-.5,1.1.7,1.7.8.2-1.8,1.9-.4,3.1-.3.8-1.7,2-1.6,2.7-2.7,1.2.7,6.7-1.6,6.1-1.2,3.1-.3,5.8-3,9.3-2l.1-.6a24.38,24.38,0,0,0,5.5-1.1c-.1,1.3-.5,2.8-.5,4-.6.6,0,.6.6,1.2-1.8.6.6,1.8-1.2,2.4-.6,1.2.6,1.2.6,2.4,0,0-.6,0-.6,1.2,1.8,0,0,1.8,0,1.8l.6.6c0,.6.6,1.8-.6,1.8.6.6,1.8,0,2.4.6l.6-1.2c0,.6,0,.6.6.6-.6-.6.6-2.4,0-3a.588.588,0,0,1,.6-.6c-.1.1.3-1.7-.6-1.2,0-.6,0-.6.6-.6-1.8-2.4,3-2.4.6-4.2a21.318,21.318,0,0,1,1.2-6c-.6,0-.1-.5-.1-1.1Zm11.1,18.7c-1.2,0-2.3-1.3-3-1.2a126.877,126.877,0,0,0-22.8,5.4c-1.8.6-4.2-.6-4.2,1.8,2.4.6,4.2,3,7.2,1.8-.6,0-1.2,0-1.2-.6.6-.6,1.8,0,2.4-.6.6,0,2.4-1.8,4.8-1.2,3-1.8,6.6,0,10.2-1.8.6.6,1.8,0,2.4,0,.6.6-.6,1.2.6,1.8-1.2,1.8-1.2,4.8-1.8,6.6-1.2,1.2.6,2.4-.6,3,0,3-1,5.4-.4,7.2-1.2,1.8-.6,3.6-.6,6,0,0,.6-.6.6,0l-.6.6c-1.2-.6,0,1.8-1.2,1.8.6.6.6,1.8,1.8,1.8-.6,1.2-1.2,0-1.8,0,0,.6-.6,1.8,0,1.8s0,.6,0,.6c.6.6,2.4,0,2.4,1.2,1.8.6,1.8-.6,3-.6l-1.2-.6c.6-1.2,1.8-1.2,1.8-2.4a1.15,1.15,0,0,1-.6-1.8h.6l-.6-.6c.6-.6.6-.6,1.2-.6V5.9c-.6-1.8.6-3-.6-4.2.6,0,.6-.6,1.2-.6l-1.2-.6.6-.6c0-.6.6-1.2-.6-1.2l1-2.4c-.6-.6.6-1.2.6-1.2l-.6-1.2a1.29,1.29,0,0,0,1.2-1.2c-1.8-.6-.6-2.4-.6-2.4-.6,0,0-.6,0-.6a.588.588,0,0,1,.6.6c0-1.2.6-2.4,0-3.6,0-.6.6-.6,1.2-.6-.6-.6-.6-1.2-1.8-1.8l1.8-1.2c-.6,0-.1-1.1-1-1.2a1.286,1.286,0,0,0,1-1.2l-.6-.6.6-.6Zm67.7-31.9c-.6-1.8-1.2-4.2-3.6-4.2-1.2,1.2.6,2.4-.6,4.2l.6.6c.6,1.2-.6,2.4-.6,3,.6,1.2,0,1.8.6,2.4a5.125,5.125,0,0,0,0,4.2l-.6.6c-.6,0,0,1.2.6,1.2-.6.6,0,1.8-.6,1.8l.6.6-.6.6v3c0,1.2,1.2,2.4,0,3,2.4.6,4.2,1.8,6,1.2l-.6-.6h.6a.831.831,0,0,1,1.2,0c1.8-.6,4.2-1.2,6-1.8,1.8-1.8,4.8-2.4,7.2-3,.6-1.2,2.4,1.2,3-.6v-.6c-6-3.6-12,0-18,1.8l-1.2-1.8-.6.6-.2-.8.5-.8-.5-.4.8-1a2.2,2.2,0,0,0-.6-1.8.588.588,0,0,1,.6-.6c.6-.6,0-1.8,0-2.4V-47l-1.2-1.2,1.2-.6c0-.6.6-1.8,0-2.4-1.2,0-.6-1.2-1.2-1.8h1.2c.6-1.2-1.2-.6-1.8-1.2C-165.6-55.4-163.8-54.2-163.8-54.8Zm3,20.4.8-.3-.2.9h-.6Zm-27.4-21c-1.8-.7-3.7.4-4.9,1.4-.2,1.2-1.3,2.4-.1,3-.1,1.3.3,3-.3,4.3,1.1.6-.1.6,1,1.2l-.6.5a5.861,5.861,0,0,1,.4,3v.6l-.7.7c.6-.1-.1,1.8,1.1,1.9l-.7.4c-.6,1.3,0,1.2.7,2l-.8,1.1c.6,0,.6,0,.6.6-3,.4-5.8,3.3-8.8,4.9-.7,1.8-3.2,3.5-2.6,4.6-.6.1-.8,1.9-1.9,1.1-1.1-3-.9-6-.7-9l-1.1-1.3a4.869,4.869,0,0,1,1.2.1l.3-6-.6-.1c.6.1.7-.5,1.3-1l-.5-.7c.1-.6,1.3-2.3.2-3.5,1.9-.6,1.4-1.9.7-3,.9-1.3.9-3.1,2.7-3.5.1-1.2,1.4-1.6.2-3-2.4.4-4.4,2.7-5.6,4.4.3,2.5-2.2,5.2-.6,6.7l-.6-.1c-.6,1.7-1.5,5.2-1,7h-.6c.6,1.8-1.4,3.6.4,4.2h-.6c.4,1.2-.8,2.4.9,3.1l-1.2.5,1.2.1c0,.6-1.3,1.7-.1,1.7l-.6.6c.6.6,1.2.8,1.8,1.5-1.3.9.5,1.2.4,2.4.9,1.3,2.5-.5,2.8.7,1.2,2-1.2,1.8-.7,3.6.6,0,1.1.2,1.1.8l-.6.4a14.22,14.22,0,0,1,2.4,1.9,8.814,8.814,0,0,1,5.1,2.9l.1-1.2c.6.6,1.8,0,2.4.7,0-.6,1.1-1.1,2.4-1.6l-.4-.7c1.1.1,1.8-.5,2.4-1.6-.6-1.3.7-1.7.7-2.3.7-1.8-.3-3.1,1-4.2,0-.6.1-1.2-.5-1.2,1.2-1.3.7-4.2.8-5.4.6-.7.6-1.3,0-1.2l.2-.7c.2-.2.3-.8.8-1.1,6.5-3.3,3.8-4.1.8-3l-1.4.4c-.3-1.9.1-1.1-.3-2.8.6,0,.5-.1.5-.1-.6-.6.1-1.8-1.1-1.7l1.3-.6c-1.6-2.5,1.5-4.7-.8-7.3.6,0,.6-.6,1.2-.5A8.819,8.819,0,0,1-188.2-55.4Zm-4.1,25.6c-.6-.2-.6-.2-.7.4l.6.8-.6-.1c1.2,1.3-.1,1.8-.1,2.4-1.2,1.2,1.1,2.5-.8,3,.6.6-.8,1.8,1,2.5-1.9,1.1-2,5.3-5,4.5a7.976,7.976,0,0,1-4-3.9l-.1-2.4.5-.7a2.02,2.02,0,0,1,.5-1c1.2-1.2,3.2-3.5,4.4-4.6l.1-.6C-195.3-30.1-194-31.7-192.3-29.8Zm28.4,11.3c-3-2.4-8.4-3-10.8.6h.6c0,1.2-1.8,0-1.8,1.2-1.2.6-2.4,2.4-1.8,3-1.2,1.8-3.6,3-2.4,4.8,2.4,0,.6,4.8,3.6,3l-.6,1.2c1.2,1.2,1.8-1.2,2.4-.6a2.1,2.1,0,0,1-.6,1.2c.6,1.2,1.8-1.2,1.8.6h.6c.6.6,1.2,0,1.2.6.6,0,1.8,0,1.8-.6,1.8.6,3.6-1.2,4.8-1.2,2.4-1.2,4.8-3.6,4.8-6.6A16.351,16.351,0,0,0-163.9-18.5Zm-1.2,4.2c0,1.2,0,2.4-.6,3v.6a11.129,11.129,0,0,1-7.2,4.2c-2.4-.6,0-3-2.4-3.6h-.6v-1.2a1.825,1.825,0,0,0,2.4,0c-.6-.6-1.2,0-1.8-1.2l.6-.6,1.2-.6-.6-.6h.6c.6,0,.6.6,1.2,0h.6c-.6-.6-.6-.6-1.2-.6l1.2-.6v-1.2C-169.3-18.5-166.3-16.1-165.1-14.3Zm39.5,9.2c-.6-1.8-.6-3.6-1.2-4.8-2.2-.7-5.3-.5-6.3,2.5a7.613,7.613,0,0,0,.2,6.1c-.2.6,2.5,1,2.3,1.6-.7,2.7-1.2,5.7-3.6,7.2-1.1,3.7-5,6.1-5,9.5,0,.4,2.1.8,2.2,1.3a3.117,3.117,0,0,0,2.4-1.2c-.6-1.8,2.4-3.6,3-5.4,1.8-2.4,2.4-5.4,4.2-7.8.6-.6,1.2-1.8.6-2.4l.6-1.2c.6-.6,0-1.2,0-1.8C-125.3-1.9-125.6-3.9-125.6-5.1Zm79.2-46.6a.831.831,0,0,0,0-1.2c-1.8-.6-3.3-3.3-4.5-1.5l.6,1.2h-.6c0,2.4-.3,3.1-.3,5.5l.9,2.9c-2.4.6,0,2.4-1.8,3l1.2.6c0,.6-.8,1.2-.8,1.8l-.4,2.4a.588.588,0,0,1,.6.6.588.588,0,0,0-.6.6v.6a.588.588,0,0,0,.6.6s-.6.6-.6,0c-.6,1.2,0,1.2.6,1.8l-.6.6c0,1.2-1.2,2.4-3,3.6-.6,1.2-2.4-.6-3,.6-.6,0-1.2-1.2-1.8,0-2.4.6-5.7,2.1-7.5,2.7-1.8,1.8-3,0-4.8,1.2-3,1.2-6,2.4-8.4,3.6-1.8,1.2-1.2-1.2-2.4-1.8l1.2-1.2c0-1.2-1.2-1.2-.6-1.8.3-.3.4-.3.5-.2-.4-1.7,1.2-3.5.7-5.2.6-.6.6-.6,1.2-.6-1.8-.6-.6-1.8,0-2.4h-.6l.6-1.2v-.6a10.211,10.211,0,0,0,.6-4.2c-1.2-1.2-3-.6-4.2-1.8-.6,0-1.8.6-1.8,1.2.6.6,1.8.6,2.4,1.8-1.2,0-1.2,1.8-2.4,1.8l1.2,1.2c-.6.6-1.8,0-1.2.6-1.8,1.2,0,2.4-1.8,3.6a25.987,25.987,0,0,0-.6,3c0,1.2,1.2,0,1.8,1.2,0,.6-.6,0-1.8.6,0,0-1.2.6-.6,1.2l.6-.6c1.2,1.8-1.2.6-1.2,1.8l1.2,1.2h-.6c.6,1.8-1.8,1.8-1.8,3,1.2,0,1.8,0,2.4-.6l-.5,1.2-1.9.6c1.2.6,1.8,0,2.4,1.2,0,1.2-1.8,0-1.8,1.8,3,2.4,6,.6,9.6,1.2a29.247,29.247,0,0,1,6.6-2.4c2.4-3,7.2-1.2,10.2-4.2,1.2,1.2,3.3-.9,3.9-1.5,1.8,0,4.2-1.2,4.8-1.2l.6-.6c.6-1,1.9.8,1.8.6v.6l-.6.6h.6l-.6.6c-.6.6.6,1.2.6,1.2,0,.6-.6.6-1.2,1.2,0,.6,1.2.6,1.2.6,0,1.2-.6.6-.6,1.8h.6c.6,1.8-.6,3,0,4.8,1.1,0,0,1.7,1.6,1.8-.1.1-.4.2-.4.6,1.2.6,1.2,1.2,1.2,1.8,1.8-1.8,2.1,2.1,3.3,1.5l-.2-2.4c0-1.2-1-1.8-1-3,0-.6,1.2,0,1.2-.6-.6,0-.6-1.2-1.2-.6-1.2-1.8,1.8-1.2,1.2-3-.6,0-1.2,0-1.2-.6-.6-1.2.6-1.2,1.2-1.8l-.6-1.2h.6v-1.2c-.6,0-.6-1.2-1.2-1.2.6-1.2,1.2.6,1.2-.6.6-.6,1.2-1.8,0-2.4,1.8-5.4,8.4-6,12-8.4,1.8-1.2,6-1.2,6-3h.6c.5,1.1,2.1.2,2.8,0-.1,0-.4-.1-.4-.6,0,0,1.2,0,1.2-.6h-.6a1.858,1.858,0,0,1,1.2-.6v-.6a1.858,1.858,0,0,1-1.2-.6.831.831,0,0,1,1.2,0c.6,0,1.8,0,1.2.6h1.2L-23-40.9a4.591,4.591,0,0,0-3-1.2c-.6,0-.6.6-.6,1.2-.6,0-1.2.6-1.8.6a.588.588,0,0,0-.6-.6c-1.2,0-3-1.2-4.2,0-1.8,1.2-3.6.6-4.2,1.8-2.4,0-4.2,1.2-6,1.8-2.4,2.4-1.2-.6-3.6-1.8l1.3-.9c-1.2-1.7.4-2-.7-3.3l.6-.6,1.2-1.8-.6-.6a.588.588,0,0,1,.6-.6c-1.2-.6-.6-1.8-1.8-1.8l1.2-.6C-44.6-50.5-45.8-51.1-46.4-51.7Zm-17.9-3.6c-1.3-2.7-4.9-2.7-7.5-1.9.4,1.2-1.3.4-2,.8-1.8-.3-3.2.8-5.5.4a24.909,24.909,0,0,1-6.3,1.2c-1.4,1-3.1.1-5.1,1l1,1.4c-.6.5-1.6-.9-2.4-.4.4,1.3.4,1.3,1.6,1.5.6.6,2.3,1,1.9-.3,2.5-.2,5.1-1.6,7.6-1.8,1.8-.2,4.4-.4,6.2-.7,1.2.2,3.2-.7,3.5,1.2l-.8,1.1c1,.8-.9,1.6.3,1.8l-.9,1.7c1.4,2-1.7,3.4.9,5-.6.6-.6.6-1.2.4-.1.6-1.5,1.6-.3,1.8l-.7.5.8,2-.7.4v.6c.5.2-.1.6-.7.5l.5.7c.4.6-.2,1.2-.9,1.7.2,1.9,2.7,1.1,3.9,1.9a5.428,5.428,0,0,0-2.8,1.9l3,.6-.4-1.3s.5.1,1.1.2l-.4-.7c.1-.6.6.1,1.3-.4-.1-1.7.1-3.8.7-4.1l-.5-.7,1.2.2c-1.2-.8-1.6-1.5-.9-2a9.509,9.509,0,0,0,2.1-2c-2.1-1.6,2-4-.8-5.7l1.3-.4c.1-.6-.5-1.2-.8-2l.6-.4-.5-1.3,1.5-1-1.1-.7c.6,0,.8-1.2.8-1.2a1.445,1.445,0,0,1-1.1-.8C-65.6-54.4-65.5-55-64.3-55.3Zm-17.5,30a.31.31,0,0,0-.1-.2C-81.9-25.4-81.9-25.4-81.8-25.3ZM36-21.6c-1.7-.7-2.9-.7-4.7-1.4-1.2.5-3.6-.2-3.7,1.6-3.6.4-10.1,3.7-13.8,4.7l.7.6c-1.2,0-3.2,1.3-5.6,1.6.5,2.4,3,1.3,4.1,2h.6l-.1.3.4.5.3-.4,1.8-.3c1.8-.5,6.4-.9,7.6-2,1.8.7,2.6-2.3,4.3-1l-.6.6c1.7.6-.8,2.9,1,3.6-.1,1.8-2,2.9-.2,3.6A6.756,6.756,0,0,0,27.3-4c.6,0,0,0-.1.6,3.1-.5.5,1.8,1.1,3C28.2.8,27.8.8,29,1.5l-.3.4-.8.7c.6.6-.3,1.2-.3,1.2,1.1.7,1.1,1.9,2.3,1.3-.6.6-1.7,1.1-1.1,1.2,0,.6-.6-.1-1.2.5,1.2.1.9,1.3,2.1,1.9L28.4,9.9c1.9-.5,3,1.3,4.8.8-1.2-.1-.8-.4-2-1.1,1.9-1.1.9-.2,2.1-.1-.6-1.8,2-4.1.2-4.8.6-.5,1.2-.5,1.3-1.1h-.6c0-.6.9-.6.9-1.2-1.1-.7.4-2.4-.2-3.6.7-1.8-.6,0-1.1-.7A1.069,1.069,0,0,1,35-3l.1-.6c.6-.6,0-.6,0-1.2.1-.6-1-2.5.2-3,0-.6-1.2-.1-1.2-.7.1-1.2.7-1.7,1.3-1.1.1-1.2-1.8-.1-2.3-1.3a2.5,2.5,0,0,0,1.8-.5c0-.6.7-1.2.1-2.4,1.9-1.1-1.1-1.9.8-3l-1.7-1.3C35.3-18.6,36-20.4,36-21.6ZM10.5-39.2c-1.8-1.3-4.2-2-6-3.2C2-43.7.1-40.7-1.7-41.4c-1.2.6-1.3,1.9-.1,1.9v.6c-1.9,0-1.9,1.8-2,3.1.6.6-1.8,1.1,0,2.4h-.6l.6.7a.588.588,0,0,1-.6.6l-.1.6c.6.6.7-.6,1.9,0-.7,1.2-1.3.6-1.9,1.2-.6,1.3,1.2,1.9,1.8,2.5L-4-26.6h1.9C-1.5-25.3.3-25.2.3-24c1.3,0,3,1.3,3.7-.5,1.9.6,3.7-1.1,5-1.8-.5-1.8.7-2.4,1.3-3.1a.575.575,0,0,1,.4-.6h-.4a1.125,1.125,0,0,1,0-1.8c-.5-.6-1.1-.6-1.1-1.3l1.8-.6a.588.588,0,0,0-.6-.6c0-.6-.6-.6,0-1.2l.1-1.3c.6-.6-.6-1.2-1.2-1.8ZM-.6-70.6a7.27,7.27,0,0,0-4.8-.8c-.1.6.5.8.4,1.4,0,0-.7.6-.7-.2l-1.6,7.3.6.8c-2.1.4-.4,1.8-1.7,2.3l.5.5c-1.3.6-.3,2-1.5,1.8.5.7-.8,1.6-.2,1.7.5.9-.2,1.3-.2,1.3l1.1.9c-.7.5-.7.5-1.3.3.5.7,1.2.3,1.6,1-.1.5-.6.4-.7,1.1-2.9,2.6-6.7,2.7-10.6,3.9,1.6,1.6,3.6,1.2,6.2,1,9.6-2.3,18.8-5.3,28.5-8.1.8-.6,2.6-.2,3.3-.9A32.615,32.615,0,0,0,3.1-53.8c-3.1-.4-5.3,3-8.3,1.3,1.3-.4-.4-1.4.8-1.1l.2-1.2c.1-.7,0,0-.5-.8l1.3-1.1-1.2-.1c.1-.6.1-.6.7-.5l.9-.6h-.7a14.45,14.45,0,0,1,2-5.4,12.371,12.371,0,0,0,.1-4.3s.6-.6,1.2-.4c-.5-.7-1.1-.8-1-1.4C-.8-69.3-.7-70-.6-70.6ZM36.8-60.3a17.355,17.355,0,0,0-1.6-2.6c-1.3.6-3.7,1-4.5,3.4l.6.6c0,.6-1.4,1.8-.2,1.8,0,1.2-.2,3.6-.2,4.8-.1,1.2-1.4,2.9.4,3-.7.6-1.3.6-.7,1.2,1.2.6-.2,2.4-.2,2.4,2.4.8-.6,1.2,1.1,2.4l-.8.5.7.1c0,1.2-1.3,1.8-1.3,3h1.2l-.7,1.2.5.6-.7.6h.7c2.2,2.6,3.7-.9,5.4-.2,3.1-.5,1.3-.7,3.7-1.1,1.8.6,2-2.4,3.7-1.6,2.5-1.1,5.5-.9,7.3-1.3-.4-.9-.6-.9.6-.6a1.749,1.749,0,0,0-.4-1.2c-6.5-2.9-8.4.1-14.6,2.2-.6-1.2-1.8-.7-1.6-2.5.6,0,.6-.6.6-1.2.7-1.7.2-2.4-.4-3.6l1.3-1.1c-.6-.6-1.1-1.9-2.2-2.6h.6a5.282,5.282,0,0,0,.8-2.9l-.6-.1.6-.5c-.6-.6-.5-1.8-.5-2.4H36c.7-1.1-1.1-.7-.5-1.8C35.8-60.6,36.7-59.1,36.8-60.3ZM3.6-35c0,1.2,1.3.6,1.9,1.2l-1.9.6c.7.7,0,.7.5,1.3l1.3.6c-1.9,0-.6,1.8-1.3,2.5l.7.6c-.7,0-1.3-.6-1.3,0a.46.46,0,0,0,.3.6c-.5.2-1.1,1.1-1.6,1.1-1.8-1.7-.6-4.7-2.2-6,.5-.1,2.1-1.5.5-2H-.1a.588.588,0,0,0-.6-.6h-.6c.6-.6,2.5,0,2.6-1.9l.6-.6c-.6-.6-.6-1.2-1.2-.6L1.9-40c3.1.7.6,3,2.4,5Zm70.2-9.1c-.6.1-1.2-1-2.4-.3.1,1.1-1.8.1-2.2,2.1v-.6c-1.8.2-3.6.4-4.2,1.6a4.516,4.516,0,0,1,4.2-.4l-1.6,1.4c1.3,1,1.6-1.4,2.4-.4.7,1.2-.5,1.4-1.7,1.4-.7-1-2.3.9-3.7-.2l1.2-.6,1.2-.2v-.6c-1.8.2-3,.9-4.4-.2-.4.7-1,.2-1.6.2l.6.6c-.5,1.2-1.2-.5-2.4.2-1,1.9-4,1.7-5,3.6,0,1.1,1.4,2.3,2.6,2.7h-.6l1.3.6c1.3.4,1.2-.2,1.7-.8-.6,0-1.8.2-1.8-.4l-.1-.6a.6.6,0,0,0,.7.5c1.5-2.6,4.8-.5,6.5-1.3l-.1-.6c-.7-1.1-1.1.7-1.8-.4,1.6-1.4,5.1.7,5.3-.6l-1.2.1.5-.6c1.2-.2,3-.4,3.2,1.4a7.206,7.206,0,0,0,.1,6.1.588.588,0,0,1-.6.6c.1.6-1,2,.3,2.4l-.5.7.6.5c-.4.7-1,.7-1.6,2l.6-.1c.7.5.2,1.8-.3,2.5l.6-.1-.5.7c.1,1.2-1.6,2,.2,2.4l-1,1.8a2.9,2.9,0,0,0,.8,1.8c1.3.4,1.9,1,2.5,1a1,1,0,0,0-.5.6l1.9.4-.1-.6c1.3.5,1.1-.7,1.1-.7-.6-.5-1.8.1-1.8-.4a12.493,12.493,0,0,0,2-3.3,11.019,11.019,0,0,1-1.8.2l1.7-1.4c-.6.1-1.2-.4-.8-1.1,0-1.2,1.8-.8,1.6-2a.487.487,0,0,1-.6-.5l.8-1.5-1.6-.2v-.6s.4-.7,1.8-.2l-.8-.6c0-.6,1.2-.6.6-1.2a3.558,3.558,0,0,0-1.4-1.6c1-.8,2.4-.4,2.2-2.1a.807.807,0,0,1-1.2.1l.4-1.2.5-1.2c-.1-.6.4-2-.8-1.8l.5-.6,1-2.6-.2-1.2c1.2-.7-.7-1.7-1.4-2.2C75.7-43.7,73.4-42.8,73.8-44.1Zm24.5-8.6c-.9-2.4-3.8-.9-4.2.4-2.3,1.5,1.5,2.9-.2,3.7.2,1.8.4,4.8-.6,6,0,.6.8,1.2,1.4,1.2-1.8,1.3-.2,3.6-1.3,5.4l.3,2.4.6.6h-.6c-.5.7.8,1.8-.4,1.9.7.5,2,1.6.8,1.7a.621.621,0,0,0,.5.6,3.751,3.751,0,0,0-1,.1c.6.5.1,1.2.8,1.7l-.4.4-.1.9c.6-.1.6-.1.7.5,0,.6-1.6,2,.2,1.8a.72.72,0,0,1-.6.7l.1.6c.1,1.2.8,1.7-.3,3L95.4-18a1.3,1.3,0,0,1-1.1,1.3l.2,1.8.6-.1-.5.7.6.5c.1.6-.5.7-1,1.3.7,1.2.2,1.8.8,2.4.6-.1.5-.7,1.1-1.4l-.6.1s-.7-.5-.1-.6c.6-.7,2.5.3,2.9-.9-.7-1.2-1.7.2-1.9-1l1.8-.2L97-14.6A2.79,2.79,0,0,1,99.2-16l-1.4-1.1a4.4,4.4,0,0,1,1.7-1.4c-.5,0-.8-.5-1.3-.4.6-.7,1.1-1.5,1-1.9-1.8-1.1,1.4-3.8-.5-5.4-.1-.6-.7-1.2-.1-1.2a4.689,4.689,0,0,1,1-2c.5-.6-1.4-1-1.4-1,.6-.6,1.2-.8,1.7-1.4-.7-.6-1.3-.4-1.4-1.6,0-.6.5-.8,1.1-.8,0-.6-.7-1.7.4-2.4-.7-.6.5-.7.5-1.3-.7-.5-1.8.8-3,.3,2-1.4,1.3-3.5,2.6-3.8-.7-.6-1.3-.6-1.4-1.2l-.6-.4c1.2-.8,1.6-2,2.8-1.6,0-.6-1.2-1-.8-1.7.2-.7.3-.7-.8-1.7l1.2-.8a1.781,1.781,0,0,1-1.8-.4c.6,0,1.8-.2,1.6-.7,0-1.2-1.8-1.1-2.5-1.6-.1-1,.5-.2.6,0Zm-2.6,3.9c.5-1.4,1.6-.8,1.8-.2Zm1.4-3.8c0,.6-1.2.7-1.8.8A2.121,2.121,0,0,1,97.1-52.6Zm36.5-24.1c-1.4-1.4-2.8,0-4.2,1.4-2.1,2.1-2.8,5.7-4.9,8.5-2.1,2.1-2.1,4.9-3.5,7-.7.7-.7,1.4.7,2.1-2.1,0-.7,2.8-1.4,4.2.7,0,2.1.7,3.5,0l-1.4-1.4,1.4-1.4,1.4-2.1c-.7-2.1,1.4-2.1.7-3.5,0-.7,1.4-.7,1.4-.7l-.7-.7c.7-.7,1.4-.7,1.4-1.4.7.7,2.8,0,2.8.7.7-.7,2.1-2.1,2.8-1.4,2.1,0,5,1.4,7.8,1.4.7.7,1.4.7,2.8.7l2.3-.4.5.4a4.209,4.209,0,0,0,2.8-.7l-.7-.7c.7,0,.7-.7,1.4-.7-.7-2.8-4.2-2.1-6.3-2.8-2.8-.7-5.6,0-8.5-.7-2.1-1.4-4.2.7-5.6-.7l2.1-2.2,1.4-.7c.7,0,1.4-1.4,1.4-2.1l-.6-1.3Zm19.7,26.8c-1.4-2.9-4.9-1.5-7.7-1.5-4.2,1.5-8.4,2.2-12.7,3.6-5.6.7-11.2,2.8-17.6,3.5-2.1,1.4-4.2-1.4-5.6.7-2.1,2.1.7,2.1,1.4,3.5l.7-.7c.7-.7,1.4,0,2.1.7,3.6-.7,7.8,0,11.3-2.1,3.5,2.1,5.6-2.1,9.8-1.4,2.2-.7,2.9-2.1,4.3-2.1v.7c.7,0,2.1,0,2.1-.7h.7c0,1.4,0,2.1-.7,2.1v.7c-1.4.7-2.1,2.8-2.8,4.2-1.4,2.8-2.9,4.2-3.6,7-.7,2.2-2.8,5-4.9,5.7-2.1,1.4-2.8,4.2-3.5,5.6,2.1-2.1,5.6.7,7-2.1.7-.7.7.7,1.4.7.7-1.4,2.9,0,4.3-2.1,2.1.7,3.5-.7,4.9-1.4-.7,0-1.4.7-1.4,0,1.4-1.4,3.5,0,5.6-1.4a4.209,4.209,0,0,1,2.8.7c-.7,2.1-3.5,2.8-4.2,4.9-4.9,4.2-9.1,10.6-13.4,15.5a2.572,2.572,0,0,0-.7,2.1h8.5L140-4.2v-.7c.7,0,1.4.7,2.1,1.4l8.4-.7c-.7,0-2.1,0-2.1-.7.7-2.8,2.1,1.4,3.5-.7.7.7.7.7.7,1.4a.686.686,0,0,1-.7.7L147,.7c-2.1,2.8-5.6,5.6-8.4,8.5v.7c-1.4,1.4-3.6,4.2-3.6,6.3.7,0,1.3-.7,2,0a10.2,10.2,0,0,0,5.3.2l1.1.4c0,.7.1.1,1.5.1v.7c2.1,0,4.2-.7,5.6-.7,2.1-1.4,5.6-.7,8.5-2.1,2.1.7.7-2.1,2.8-2.1l-.7-.7,2.1-.7c-.7-.7-1.4-.7-1.4-1.4V9.2l-.7-.7a28.59,28.59,0,0,0-10.6,2.1c-2.8,0-6.3,2.1-9.1,0,1.4-.7,4.2-1.4,3.5-2.1l.2-.5.7-.4.6-.7,2-1.3c.7-2.1,2.4-2.7,3.4-3.4l.8-1.5a6.254,6.254,0,0,1,1.4,0c.7-2.1-.7-.7-1.4-1.4a2.168,2.168,0,0,1,1.4-.7c.7-.7,1.4-.7,0-1.4a2.572,2.572,0,0,1,2.1-.7l.6-1.2.9-.9s-1.5-2.1-1.5-2.8c-1.4-.7-2.1-2.1-3.5-1.4-1.4-.7-4.2.7-7,0-.7.7-2.8.7-4.2.7a.686.686,0,0,0,.7-.7h-.7a.686.686,0,0,1-.7-.7h1.4v-.7c1.1-1.2,1.9-.9,2.9-2.6l1.3-1.7c1.4,0,.7-2.1,2.1-1.4l-.7-.7c.7,0,2.8-1.4,2.1-2.1a.686.686,0,0,1,.7-.7v-.7l-.7-.7c.7,0,4.2,0,2.8-2.1,1.4,1.4,2.8-.7,4.3-.7l-.8-.7a8.28,8.28,0,0,0,2.2-2.8c.4-.1.7,1.4.7.7a1.32,1.32,0,0,0,1.4-.7L159-30.9c-2.9-3.6-7.1,0-10.6-.8-2.8,1.5-5.6,1.5-9.1,2.2v-.7a.686.686,0,0,0,.7-.7c-.7-.8,1.4-2.2,1.4-2.2v-.7c0-.7,0-1.4.7-1.4,0-2.8,2.8-3.5,2.1-5.6.7-.7.7-2.1,2.1-2.1l-.7-.7c.7-.7,0-2.1,1.4-2.1,1.4-.7,2.8-2.1,4.9-2.1C152.6-47.8,153.3-48.5,153.3-49.9Zm95.6,33.5c-1.8-2.4-4.2-3-6.6-3.6-1.2,0-2.4,1.2-3,2.4.6,0,.6,1.2,1.8,1.2,0,1.2,1.8.6,3.6,1.2a.588.588,0,0,1-.6.6c.6.4.9,2.7.6,4.2-.6,1.2-2.4,3.6-3.6,4.2s-3,.6-3.6-.6.6-1.2,1.2-2.4l-1.8-.6v-.6l.6-.6c0-1.2,1.8-.6,1.8-2.4.7-.9,2.2-.4,1.2-1.8,1.2-.6-.6,0-.6-1.2a16.566,16.566,0,0,0-4.8,3.6c-.6.6,0,1.2-.6,1.8-.6,1.2-1.2,2.4,0,3.6h-1.2a19.976,19.976,0,0,0-1.8,3.6h.6c2.4,1.2,4.2.6,6.6,1.2a.588.588,0,0,0-.6.6c1.8,0,1.8-.6,3-1.2,2.4.6,4.2-2.4,6.6-2.4l-1.8-.6.6-.6c1.2.6.6-1.8,3-2.4C248.3-11.6,251.3-14,248.9-16.4ZM222.1-44c0-.6-.7-1.3-1.4-1.9-3.9-3.3-9.8,0-13.7,1.9-3.2.7-5.2,3.3-8.5,3.9.7.7,2,0,3.3.7-2,1.3-3.3-.7-4.6,0l.7.7c-1.3-.7-2.6,1.3-3.9,1.3-.7,1.9,1.3,1.9.6,3.9.7.6.7.6,1.3.6.7,0,1.3,0,1.3-.6,4.6-2.6,9.8-3.9,14.4-7.2,2,.6,4.6-2,5.9.6-1.3.7.6,2-1.3,2v3.3c-.5,3-1.4,3.1-.7,5.2-1.9,1.3.7,2.6-1.3,3.9,0,1.3-.6,2.6.7,2.6,0,2.7-1.3,5.3,0,6.6-.7,1.3,1.3,2.6,1.3,3.9a3.694,3.694,0,0,0,2.6-.7c-2-.6,0-1.9-2-2.6l1.3-1.3c0-1.3-.6-3.9,1.3-5.2-.6,0-1.3-.7-1.9-1.3,3.2,0,.6-4.6,2.6-5.2-1.3-.7,0-2,0-3.3h-.7c2.7-1.3.7-4.6,1.3-5.9,0-.6,2-1.3,0-2,0-.6,0-1.9,1.4-1.9l-.7-.7C220.7-43.3,222.1-43.3,222.1-44Zm22.8-9.2c-.6-1.8-1.2-4.2-3.6-4.2-1.2,1.2.6,2.4-.6,4.2l.6.6c.6,1.2-.6,2.4-.6,3,.6,1.2,0,1.8.6,2.4a5.125,5.125,0,0,0,0,4.2l-.6.6c-.6,0,0,1.2.6,1.2-.6.6,0,1.8-.6,1.8l.6.6-.6.6v3c0,1.2,1.2,2.4,0,3,2.4.6,4.2,1.8,6,1.2l-.6-.6h.6a.831.831,0,0,1,1.2,0c1.8-.6,4.2-1.2,6-1.8,1.8-1.8,4.8-2.4,7.2-3,.6-1.2,2.4,1.2,3-.6v-.6c-6-3.6-12,0-18,1.8l-1.2-1.8-.6.6-.2-.8.5-.8-.5-.4.8-1a2.2,2.2,0,0,0-.6-1.8.588.588,0,0,1,.6-.6c.6-.6,0-1.8,0-2.4v-.6l-1.2-1.2,1.2-.6c0-.6.6-1.8,0-2.4-1.2,0-.6-1.2-1.2-1.8h1.2c.6-1.2-1.2-.6-1.8-1.2C243.1-53.8,244.9-52.6,244.9-53.2Zm55.6,15.6A31.975,31.975,0,0,1,311.6-40c1.2.1,2.5-1,3.7-.9.7-1.1,2.5-.3,3.7-.8,1.8.2,1.9-.4,3.7-.2.7-1.1,3,.3,3.7-1.4-1.2-.1-2.9-.9-4.1-.4a14.483,14.483,0,0,0-2.8-1.4l-1.3.3-1.2-.1a6,6,0,0,0-3.7.8c-1.6-2-4.3.2-6-.6-1.9.4-3.8,2-5.5.6.1-.6,1.2-.5.7-1.1l-.5-.7c0-.6,1.2-.5,1.2-.5.8-1.1-.4-1.2-1-1.3.7-1.1,1.8-.4,2.5-.9l-.5-.7-.6-.6c.7-.6.7-.6.1-.6l.6-.6c.2-1.2.2-1.8-1-1.9l.7-.5.1-.6.6-.6c.2-1.1.3-2.3-.3-3l.7-.5.1-.6c0-.6.1-1.2.7-1.2l1.1-1.3,1.1-2.6c-.5-1.5-3.1-1.7-7.1-.8a49.022,49.022,0,0,1-6.9,1.7c-2.9-.3-5.6,1.8-8.6,1.5-1.9,1.6-4.9,1.3-7.4,2.2,1.6,2,3.5,1,5.9,1.2,2.5-1.5,6.2-1.7,9.3-2.6,1.8.2,4.4-1.9,6.7-.5a7.42,7.42,0,0,0-1,3.5c-1.2.5.4,1.9-.9,2.9-.7,1.2.4,1.9-.9,2.4.6.6-.1,1.8.4,2.4l-.7.6c-.8,1.7,1,1.9,1.6,2.5-.7.6-1.2-.1-1.9.4.6.1.5,1.3.4,1.9l-.6-.1.6.7-.7.5a.6.6,0,0,1,.5.7c-1.2.4,0,.6-.7,1.1-1.8-.2-3.7.8-5.5.6-2.5,1-5.5.7-6.9,2.3-5.5.6-10,3.2-14.4,5.1-1.8.4-4.4,2-3.5,4.5,1.3-.5,1.1.7,1.7.8.2-1.8,1.9-.4,3.1-.3.8-1.7,2-1.6,2.7-2.7,1.2.7,6.7-1.6,6.1-1.2,3.1-.3,5.8-3,9.3-2l.1-.6a20.928,20.928,0,0,0,5.1-.9c-.1,1.3-.5,2.8-.5,4-.6.6,0,.6.6,1.2-1.8.6.6,1.8-1.2,2.4-.6,1.2.6,1.2.6,2.4,0,0-.6,0-.6,1.2.9,1.7-.1,6.4-.1,6.4l.6.6c0,.6,1,1.6-.2,1.6.1,1.4,1.2,1,2.4.6l.6-1.2c0,.6,0,.6.6.6-.6-.6.6-2.4,0-3,0,0,.1-5.2.7-5.2-.1.1.3-1.7-.6-1.2,0-.6,0-.6.6-.6-1.8-2.4,3-2.4.6-4.2a21.318,21.318,0,0,1,1.2-6c-.6,0-.1-.5-.1-1.1Zm-11.2,23c-1.2-.1-1.1-.7-1.6-1.4-1.3-.1-1.3,1-2.6,1.5.5.6.5.6,1.1.7.5.1.5.1.4.7.1.6-.6-.1-1.7-.2-.7,1.2-2.1,2.8-2.1,4a.5.5,0,0,1,.4.7L282-8.7l.6.6-1.2.4c.4.7-.3,1.8.8,2.6l-.6.5.5.8c-.8,2.2-2.8,3.7-3.7,6.1l3.1-.3V1.4c1.1.8,2.9,1.5,4.1,1,0,.6-.6.6-.7,1.2-.6-.1-1.1-.7-1.8-.2.6,1.3,2.4.3,3,.3l-.5-.7.6-.5c1.1.8,2.4.4,3.6.5,1.4-2.3,4.3-.7,6.4-3,2.2,1.4,2.6-1.5,5.5-.6-.5-.6,0-.5.1-1.1H303l-.5.5c.7-.4,1.8-.3,3-.8.6.1.8-1.6,2-1.6,1.2-1,3.6-.2,5.4.1l-.5-.6c-.6-.7-1.3-.3-1.2-1.5,0,0,.7-.6.7.1l.6.1a.5.5,0,0,1,.4.7c.8-.6,1.4-1.1,2.5-.4-2-3.1-6.4-1.9-9.5-1.7-3.7,1.5-6.7,1.7-11.1,2.4-1.9,1.6-4.3,1.3-6.3,2.4-1.7-.3-3.2,1.5-4-1.1l1.2-.5H285a3.047,3.047,0,0,0,.9-1.2c-1.8-.2.6-1.1.1-1.8h-1.2c-.4-1.3,1.2-.6,1.4-1.2-2.6.4-.9-.7-.6-.8a.63.63,0,0,1,.7-.4c.7-1.1,1.3-.3,1.3-.9-.6-.2-1.2-.3-1.2.3l-.6-.6c.6,0,1.3-1,1.4-1.6-.6-.1-1.4,2.2-2.5.3a6.573,6.573,0,0,1,4.4-1.3l.4.1c-.4-.1-.5-.7-1-.8C288.8-14.1,289.4-14,289.3-14.6Zm-3.7,6v.1C285.7-8.6,285.7-8.6,285.6-8.6Zm16.7,7.5h0ZM400.9-42a5.237,5.237,0,0,0-3.2-2.4c-.6,0-1.4,1-2.2,2.1a3.754,3.754,0,0,0,0,4.3c-1.2-.2-1,2.3-1.1,2.9-1.4,1,.7,3.1-.6,3.5l.6.1c-1.9.9,1.4,2.7-1.1,3.5l1.1.7c.5.7-.2,1.2-.9,1.7,1,1.4-1.5,2.2-1.1,3.5-4.4,4.8-10.6,5.6-16.4,7.8a4.907,4.907,0,0,1-1.6,2.1l.5.7c2.1-1.5,3.6.6,5.3.9.8-1.1,2.1-1.5,3.9-1.3.7-.5,2.1-2.1,3.9-1.8.9-1.7,2.4.4,3.3-1.3,1.7.3,1.8-.3,3.7-.6,0,0,1.2.2,1.1.8s-.9,1.6.1,3l-.7.5c-.6-.1-.7,1.1-.2,1.2l-.8,5.3c.5.7.1,3.1-.5,3-.2,1.8,1.3,3.8-.7,4.7.4,1.3-.4,2.4.7,3.2-.2,1.2-.3,2.4-.9,2.3l.5.7c-.1.5,1.2.1,1,1.3-.6-.1-.9.6-1.5.5-.2,1.2-.5,1.7-.7,2.9.7-.5,2.5-1.5,2.9-.2l-.6-.1a2.235,2.235,0,0,0,.3,1.9l-.6-.1-1.3-.3.2-.5c.1-.6-.5-.7-.7.5,1,1.4,3.6.5,5.4.8-.5-.7.7-.5.2-1.2l-.7.5a.6.6,0,0,1-.5-.7c.8-1.8,2-1.1,1.6-2.7.1-.6.6.1.6.1.8-1.1-.3-1.9.9-1.7l-1.6-1.5.7-.5c1.1.8.7-.5,1.3-1-1.5-1.5,1.7-2.8-.6-3.7l1.3-.4c-.6-.1-.5-.7-1.1-.8l1.3-.4c-2.3-1,.9-1.7-1.4-2.7l1.3-.4-.5-.7.5.1c-.4-1.3-1.6-.8-2-2.1l1.9-.9-.5-.7a.6.6,0,0,0,.7-.5c.1-.6-.5-.7.2-1.2-1-1.4.9-1.7-.1-3.1l.6-.5-.5-.6a3.657,3.657,0,0,1,1-2.3c-.6-.1-.6-.1-.5-.7l.7-.5-.5-.7a1.308,1.308,0,0,1,1.4-1c-.8-3.1-5.2-2-6.7-4.1-.5-.7.7-.5.8-1.1l-.6-.1c.1-.5.8-1,1.5-1.5a7.4,7.4,0,0,0-.7-3.8c.6.1.7-.5,1.3-.4l.1-.6c-.5-.7-.3-1.9-.8-2.5.1-.6,1.4-1,.9-1.7l.6-.5c-.5-.7.3-1.8-.9-2l.4-.4-.2-.8c1.2.2.2-1.2.2-1.2C401.1-39,400.7-40.2,400.9-42Zm-3.4-30c-1.7-.2-1.6-1.4-2.7-1.6-4.5-2.5-7.8-.6-11.9,1.8-.2,1.8-2.8,2.6-4.3,4.2-1.5,2.2-4.2,3.6-4.7,7.1l.6.1c-1.3.4-.2,1.2-.3,1.8,2.2,1.6,5.5,3.9,8.1,2.5a25.7,25.7,0,0,0,9.2-4.6c2.7-1.5,3.1-3.8,5.1-5.3-.5-.7.3-1.8.4-2.4.7-.5-.3-1.9.9-1.7,0-.6-.5-.7-1-1.4A.516.516,0,0,0,397.5-72ZM406-52.4c2.9,1,5-1.6,8.1-1.8-.5-.1-1-1.3-2.2-.9-2.3-1-5.5.3-7.9-.1-1.9.4-3.1.8-5,1.1-9.6,3.3-20.1,4.1-30.4,8-2.4-.4-4.7,2.9-7.1,2.5-1.9.9-4.3.6-5.7,1.6,2.4,4,7.2.5,10.9.4,4.5-1.7,9.5-2.7,14-4.4,3.7-.1,6.3-1.5,9.5-2.2,2.9.5,3.9-1.8,6.3-1.5.8-1,1.7.9,2.5-.8a.6.6,0,0,1,.5.7c.8-1.1,3.2-.7,2.2-2.1A10.789,10.789,0,0,0,406-52.4ZM389.9-45c-1.8-.2-2.8-1.6-5.4-.8l.5.7c-3.2,1.3-5.9,2.7-7.6,6.1-.8,1.1-2.2,2.7-1.2,3.4-.5,0-1.2.5-.7,1.1.4,1.3-.4,2.4.1,3.1a.6.6,0,0,1-.7.5c-.2,1.2.8,2.6.6,4.3a5.079,5.079,0,0,0,4.3,3.1l.2-1.1c-.6-.1-.4-1.3-1.2-.2l.1-.6c-.6-.1,0,0,.1-.6s.8-1.1.3-1.8c.8-1.1-.8-2.5,0-4.2-1.5-2.1,1.7-2.8,1.4-4.7l-.5-.7c1.2.2,2.1-2.1,2.2-2.7a8.53,8.53,0,0,0,3.5-3l-1.1-.8c1.3-.4,1.7.8,3,.4l-1.1-.7C388.1-45.2,389.2-44.5,389.9-45Zm1.6-20.8-.4.4c-3.4,2.5-5.4,6.8-10.3,7.2-1.1-.8-.2-2.4-1.3-3.2,3-.1-.2-2.5,2.3-3.3,1.7-2.8,5.1-5.3,8.4-7.2,2.3,1,1.5,2.1,1.4,3.3ZM381.1-12.3c-.7.5-1.4,1-1.9.3C379.8-11.9,380.5-12.4,381.1-12.3ZM395.2-21l1.1.7-.1.6Zm72-28.4c0-.6-1.2-.6-1.2-1.8-1.2-.6-2.4-3.6-4.2-1.8,0,1.2,0,1.8.6,2.4-1.8,1.2-.6,4.8-1.8,6a108.183,108.183,0,0,1-11.4,3c-6,2.4-8.4,1.6-10.2,8a2.2,2.2,0,0,0,1.8.6v.6c1.2,1.2,2.4-1.2,3-.6,3.6-3.2,5.6-3,10.2-4.4,2.2-.6,4.6-1.5,5.4-2.4.6.6,1.2,0,1.8.6-.6.6-.6.6-1.2.6,1.2.6,1.8,1.8.6,3a3.607,3.607,0,0,1,.6,2.4h-.6l.6.6-.6.6c1.2.6,1.2,1.2.6,2.4,0,1.2.6,3.6.6,4.8,2.4,0,0,1.8.6,2.4-2.4-.6-4.8-1.8-7.8-.6s-3.6,4.2-6,6l.6.6c-1.8,1.2-1.8,3-3,4.8a.588.588,0,0,0,.6-.6l.6.6c-3,0,0,3-2.4,4.2,1.2,1.2,0,1.8.6,3.6s3,1.8,4.2,3c1.8,0,3.6.6,6,.6.6,0,1.8-.6,1.8-1.2-.6-2.4,3-1.8,3.6-3.6l.6-.6-.6-1.2c0-.6.6-1.2,1.8-1.2,0-.6.6-2.4.6-3,.6-.6,0-2.4,1.2-1.8,0-.6-.6-.6-1.2-1.2a1.858,1.858,0,0,0,1.2-.6c-.6,0-1.2-.6-1.8-.6l.6-1.2c-1.8-1.1-2.4-4-5.8-4.2,1.1-.1,1.6-1.2,2.2-1.8.7.9.2.7,2.5.6l.5.6c.6,0,.6-.6,1.2-.6-.6-1.8,1.2-1.8,1.8-2.4-1.2,0-.7-1.6-1.6-1.8.6-.1,1.5-.6,1-1.2l.6-.6L464.8-29c.6-.6.6-1.2,1.8-1.2,0-1.2-1.2-1.2-1.2-2.4h.6v-.6l-.6-.6c.6-.6.6-.6,1.2-.6L466-35c0-.6-.6-1.8.6-1.8-1.2-1.2.6-3.6-1.2-4.2,0-.6.6-.6.6-1.2l-.6-.6,1.2-1.8c-1.2-1.2.6-3-.6-4.2A2.1,2.1,0,0,1,467.2-49.4Zm-32.4,1.2c0-1.2-.6-1.8-.6-2.4-1.8-.6-4.8-4.2-6-.6.6.6,1.8,0,1.8,1.2-.6,0-1.2-.6-1.8,0-1.2,0-.6,1.8-.6,2.4s-1.2.6-1.2,1.2c-1.2,3-1.8,5.4-3.6,8.4-.6,1.2.6,1.8-.6,3-.6.6-.6,1.8,0,1.8-2.4,1.2-1.2,3-3,4.8,0,1.8-1.2,3.6-.6,4.8,0,.6-.6.6-1.2.6-1.2,1.8,0,3-.6,4.8.6.6,1.8-.6,1.8,0s-.6.6-1.8.6v1.2c.6.6,1.2-.6,1.8,0l-1.2,1.2h2.4c-.6-1.2,1.8-1.2,2.4-1.8a2.1,2.1,0,0,1-1.2-.6l1.2-1.2c-.6,0-1.2.6-1.2,0,.6-.6,1.2-.6,1.8-1.2-.6-.6,1.2-1.8-.6-2.4l.6-.6h-.6c.7-1.3,1.6-3.4,2.6-3.7a5.868,5.868,0,0,1,1.6,2.5c1.1.2-.2,1.2.4,1.2l.3.9c.4.8.7.8.7,2,.9.6.6,2.6,2.8,3.7l-.6.6c0,1.2,1.8,1.2,2.4,1.8l-1.2.6c1.2,0,2.4,1.2,3.6,0-1.8-1.2-1.2-4.2-3-6l.6-.6c-1.2-1.8,0-3-1.8-4.2a11.846,11.846,0,0,0-3.6-8.4c0-.6,0-2.4,1.2-3v-1.2c1.8-1.2.6-4.8,3-5.4-1.2-1.8,1.8-3,1.2-4.8A2.4,2.4,0,0,1,434.8-48.2ZM457-20c.6,1.8,1.2,1.8,1.2,3.6-.6,0,0,1.8-.6,2.4l.6.6c-.6,1.2-2.4,1.8-1.8,3v.6c-1.2-.6-.6,1.2-1.2,1.2,0,1.2-.6,1.2-1.2,1.8v.6c-.6.6-2.4,1.8-3.6,1.2,0-.6.6-.6,1.2-.6-.6-.6-1.2-1.2-1.8-1.2L451-8v-.6c0-.6.6-1.8,0-3a2.2,2.2,0,0,0,1.8-.6c-1.8,0,0-1.8-1.8-1.2.6-1.2,1.8-.6,1.8-1.2l-1.2-.6c.6-1.2,2.4-1.2,3-1.8,0-.6-1.2,0-1.2-1.2l1.2-1.2V-20C456.2-20.6,455.2-20.3,457-20Z" transform="translate(472.8 77.28)" fill="#fff"/></svg>