<svg xmlns="http://www.w3.org/2000/svg" width="966.5" height="97.6" viewBox="0 0 966.5 97.6"><path d="M-441.1-29a5.658,5.658,0,0,0-2.9-2.8c-6.9-.7-12.7,1.2-19.1,2-2,1-4.9-1.2-5.7,1.3,1.7,1.4,3.4,3.5,5.3,3,.6,0,1.3-1.1,2-.5v-.6c2-.4,4.4.4,6.3-.6,1.7,2.1,3.4-2.2,5.8-.8a1.4,1.4,0,0,1-1.8,1.2,1.827,1.827,0,0,1,1,.6,5.283,5.283,0,0,1-1.3-.1l.6.7-1.3.6c-2.7,2.2-4.9,5.8-7,8.1-2,1.1-3.6,3.5-4.9,4.6-.1,1.8-2.7,1.6-2.1,2.9l.5.7a5.667,5.667,0,0,0-2.8,2.9l1.2.1-.6.5,2.4,1c1.4-.6,1.9.1,3.1.2l1.9.2c.6-.5.6-.5,1.3-.5,1.9.2,4.5-.9,5.2-2,1.9.8,3.9-.3,5.7-.1l-.2,1.9c-3.5,4-7.7,8-11.9,12.7l.5.6c-1.8.6-2,3-3.4,3.5.5,1.3-1.6,3-1.1,4.4.7,0,1.9.7,2.6.2.4,2.5,3.1-.2,4.2.4-.1,0-.6.5,0,.6,0,0,1.3.1,1.4-.5a10.948,10.948,0,0,0,4.3,1.1l-.5-1.4,3.1.3c1.4-1.1,3.7,1.7,3.2-.9.7.1,1.3.7,1.9.2.1-1.3,3.2.3,3.3-1l-.7-.1.8-.5c1.7.7,3.7-.3,5-.2l.1-.6a8.909,8.909,0,0,1,3.9-.9,2.367,2.367,0,0,0-1.8-2.1c-6.8-1.2-13.4,1.9-19.8,3.2-1.9-.1-4.5.2-4.3-1.7-.5-1.2,1.5-1.7,2.2-2.9.1-1.3.8-1.2,2-1.7.8-.5.8-.5.8-1.1A1.018,1.018,0,0,1-454,7a6.888,6.888,0,0,1,2.1-1.2c.6-.5.1-1.2.7-1.8l1.3.8c.6-.6,2-1.1,1.3-1.8a.783.783,0,0,1-1.2-.1c.1-1.3,1.9.2,1.3-1.2.7.1,1.5-1.7,2.7-.9L-447,0a3.279,3.279,0,0,1,2.5-.4c-1.1-.7,1.5-1.7.8-1.8l.2-.7c0-.6,1.2-.4,1.9-1-.6,0-1.3.5-1.2-.1.6-.5.7-1.8,2-1.7,1.3-.5.2-1.9-.3-2.6-3.5-3.5-10-1.6-14.5-1.4-1.9-.1-3.2,1.6-4.4.2l1.9-.4c.1-.6-.5-.6-1.1-.7l2.1-1.7c1.7.8,1.3-1.8,2.6-1-.7-.7-1.3-.8-1.2-1.4.7-.5,1.4-1.1,2-1l3.5-2.9-.7-.7,2-.4a8.367,8.367,0,0,0-1.2-.1c2-1.1,2.7-2.9,4.7-3.4a8.367,8.367,0,0,1,.1-1.2c.7-1.2,1.3-1.2,2-1.1C-445.6-27.5-441.2-27.8-441.1-29Zm-24.6-16c-.1.7-1.1-.4-1.2.2-1.5,1.5-4.4.7-6.7,1.9-3.1,1-7.6,1.4-10.1,3.8l1.3.9c1.4,1.4,3.2-1.2,3.7.9.7,0,.7.7,2.2.8l-.8-.6c1.7-1.2,3.8.3,4.7-1.8,3.7.4,9-.5,11.4-2.3,1.6.1,3.9-1,3.8.4,1.6-1.3,3.2-2.5,5.5-2.2,2.1.7,3.9-1.8,6-.3,1.5-1.1,3-.4,4.6-1.6,3.6,1,7.4-.1,10.5-.4,1.6-1.3-.6-1.5.2-2.7-10.2-1.6-20.1.7-29.9,1.8Zm23-30.8c-1.6-4-4.4-1.1-6.9-1.4-5.6.1-10.9,2.2-16,3.6-.8,1.1-2.6,1-3.3,1.5.5.8,1,2,1.6,2.1l-.6.5,1.2.8.1-.6a50.876,50.876,0,0,1,12.1-2c2.1-2.3,5.1-1.4,7-1.3v.6c.6.1,1.3-.4,1.3.1l-1.4.6c-1.9-.1-.1,1.8-2,1.7l.5.7c-.7,1.1-.2,1.9-.9,3.6,1.8.9-1.4,1.2-1,3.2h.7l.6.1a.6.6,0,0,1-.7.5c1.6,2.1-1.6,3.7-.4,5l-.8,1.2.5.7s-.1.6-.6.5c-.7.6,1.1,1.4.4,2,.7,0-.2,1.9,1.2,1.4-1.2-2,2-1.1,2.1-2.3a.812.812,0,0,1-.7-.8c.1-.5.6-.5.7-.8,0-.1-.2-.3-.4-.4l.5.1c.1-.6.2-1.3-.4-1.4.6-.5,1.3-1.1,1.9-1-.6-.7-1-2.3,0-2.5h-.4l.8-.7c.7-1.1-.7-.6-1.2-1.3a2.23,2.23,0,0,1,1.3-.5c-1.1-2,1.5-3.1-.2-4.4l1.3-.6c-.5-1.3.9-2.4.3-3.7.8-1.2-.4-2.5,1-3.1a4.868,4.868,0,0,1,.1-1.2Zm37.1,19.4c-4.8-2.4-10.2-.6-15-.6-1.8.6-4.2.6-5.4,1.8,2.4,5.4,9.6,1.8,13.8,1.8,1.2,0,1.2.6,2.4,1.2s-.6,1.2-1.2,2.4a2.1,2.1,0,0,0,.6,1.2c0,.6-1.8,0-1.8,1.2a2.2,2.2,0,0,1,1.8.6l-2.4.6a17.018,17.018,0,0,1-5.4,6c-.6,3.6-4.8,6-5.4,9a.588.588,0,0,1,.6.6l1.8,1.2-.6.6c1.2.6,2.4-1.2,3,.6,2.4-.6,4.8-1.2,7.2-.6.6,0,1.2,1.2,1.8,0,1.2.6,3-.6,3,1.2a1.858,1.858,0,0,0-1.2.6h.6c-1.8,1.2-1.2,3.6-2.4,4.8h.6c-4.8,3-6.6,9-10.8,12.6-1.8,2.4-4.8,4.8-5.4,7.2,1.8,1.2,4.2,1.2,6.6,1.2.6,1.2,1.8,0,3,.6h1.2c2.4-.6,4.8,1.2,6.6,0,3,.6,5.4-1.8,7.8-1.2,2.4,0,4-1.1,7.6-1.1l.8-.7c.6,0,1.8-1.2,2.4,0h1.8l-1.8-.6c2.4,0,4.2-1.2,6-.6.6-2.4,3.6,0,4.8-1.8.6-.6,0-1.2-.6-1.2-13.8-1.8-25.2,6-39,3a14.951,14.951,0,0,0,2.6-1.5c-.4.1-1-.1-1.4.3l-1.2-.6v-.6c.6,0,.6.6,1.2.6,0-1.8,1.8-1.2,3-1.8h-.6c-.6-1.8,1.8-1.2,2.4-1.8-1.2-.6-1.8.6-2.4-.6.6-.6.6-.6,1.2-.6,0-1.2,1.8-.6,2.4-1.8-.6.6-.6,0-.6,0,1.2-.6,1.8-1.2,3-1.8-.6-.6-.6-.6-.6-1.2.6-.6,1.2-1.2,1.8-.6-.6-1.8,1.8-1.2,2.4-2.4-.6,0-1.2,1.2-1.8.6,1.2-1.2,1.8-2.4,3-3.6.6-.6,0-1.8,1.8-1.2,0-1.1-.6-2.8.9-3h-.3c-.6,0-1.2-.6-.6-1.2.6,0,1.2-1.2,1.8-1.8h-.6c-.6,0,0-.6,0-1.2-2.4-2.4-5.4-1.8-7.8-1.8-1.8.6-3.6-.6-4.8.6-.6-.6-2.4,0-1.8-1.2l-.6-.6c.6-1.2,2.4-1.2,3-2.4-1.2-.6.6-1.2-.6-1.8,1.2-1.3,5.4-2.4,1.8-3a2.2,2.2,0,0,1,1.8-.6c0-.6,1.8-1.2.6-1.8.6-.6,1.2-.6.6-1.2.6-.6,3-.6,1.8-1.8l1.8-1.2h-.6c-.6,0-.6,0-.6-.6,1.2-1.2,2.4-3,1.8-4.2l.6-.6a.831.831,0,0,1,0-1.2Zm-9.6,49.8-.4.3C-415.4-6.3-415.2-6.4-415.2-6.6Zm85.6-38,1,.8,1.4-1c.1-1.2.1-2.4-1.1-3,.7-.6,1.3-1.2,1.9-1.1a2.252,2.252,0,0,0-.4-3.1l.6-.5c0-.6-.6-.1-.6-.7l.6.1c.1-1.2.2-2.4-1-2.5l1.2-.5c.1-1.1-1-1.8-2.1-1.9,1-.1.5-1.8,1.7-1.7l.6-.6-1.7-1.9c.6,0,.7-.6,1.3-.5v-.6l-.6-.1c1.2-.5.1-1.8,1.3-2.3-.6,0-1.2.5-1.8-.1.7-1.2,1.3-.5,1.9-1.1l-.6-.6.7-.6c-1.2-.7.1-1.8.1-3-1.2-.1-.5-1.2-1.1-1.3l.6-.5v-.6c-2.3-1.4.7-1.8.8-2.4-.7-.6-2.2-.6-4.2-.2a6.074,6.074,0,0,0-2.8,6.4c-2.4,1.1-5.8,1.8-8.2,3.5a13.4,13.4,0,0,0-3.6,1.7,36.642,36.642,0,0,0-11.1,4.8c-1.2.6-1.7-1.2-2.4-.7a3.585,3.585,0,0,1,2.3-1.1c-.4-.1-.5-.6-.9-1.2l-.1.6-.5-.7c.6-1.1,1.2-.5,1.3-1.7l-.6-1.2c-.6-.1-.7,1.1-1.3-.1.1-1.2,1.4-.5,2-.5l-1.2-.7,1.2-.5c-.5-1.2-1.1-.7-2.3-1.3.6,0,1.8-.5,2.4.1,0-.6-.5-1.2-.5-1.8,0,0,0-.6.6,0,.1-1.8-1.7-1.9-2.3-2.5-1.1-1.3-3,.4-3.6,1l1.7,1.3.1-1.2c1.2-.6,1.1.6,2.3.7-.6.6-1.7-.7-1.8.5a.588.588,0,0,1,.6.6l-1.8-.1-.7.6c.6,1.2,2.3,1.9,2.9,3.2l-.7.5c-.6,0-.5-.6-1.1-.6-.6-.1-1.2-1.3-1.8-.7l.5,1-1.2.7c.6.1,3.1-1,2.4.8a1.843,1.843,0,0,1,1.8-.5c-.1,1.8-3.6-.2-4.3.9-1.2.6.6,1.3-.1,1.8l.7-.5c-.7,1.1-.2,3-.8,3.5.6.1.5,1.3.5,1.3l-.6.5c2.8,3.8-3.2,4.1-4,7-3.1,1.1-3.4,6.5-7.4,4.4.5.1.6-.5,1.2-.5l-.6-.6,1.2-.6c-2.4-.1.7-1.1-1.1-1.8l.7-.6c-.6-1.2.7-3-1.1-3.1l1.3-1.7h-.6l1.3-1.2c-1.2-.6.1-1.2.1-1.8-.6-.6-2.4.5-2.3-1.3.6-1.2,1.8-.5,2.4-1.1.1-.6-.5-1.2-.5-1.8-.5-.6-1.8-.1-2.3-.7l1.2-.5h1.2c0-.6.1-1.2.7-1.1-.6-.7-1.8-.7-1.1-1.9,0,0,0-.6.6,0-.5-1.8,1.3-2.3.2-3.6.6-.5.7-2.3,1.9-2.3.1-1.8-1.1-1.8-2.3-3.1-1.7-.7-3,1.6-4.3,2.8-1.2.5.6.6-.1,1.2a.489.489,0,0,1-.6.5c-.6.6-.7,2.4.5,1.9v.6l-.6-.1-.7,1.2c.6.6,1.2.7,1.7,1.3a1.477,1.477,0,0,1-1.2.5v-.6h-.6l-.6.6c.5.6.9,1.1.2,1.2h.3c.6.6,0,.6,0,1.2l.5.6s.6.7,0,.6c-.6,0-.6-.6-1.2,0,.6,0,.6,0,1.2.6h-.6a1.192,1.192,0,0,1-.1,1.8h1.2l-.7,1.2c0,.6-.1,1.2.5,1.2,0,.6-.6.6-1.2.6l1.2.6c.5.7-.6,0-.7,1.2.6-.6.6,0,.6.6h-.6l.5.6-1.2,1.2,1.1,1.2c-.6.6-.6-.6-1.2,0v.6l.6.6-.1.6c0,.6.6.6,1.2,1.3-.6-.1-.7.5-1.3,1.1.5,1.2-.2,3,1,3.7l-1.3,1.1c1.2.1,1.2.7,1.2,1.3l-.7.5c-.1,2.4,1.8.1,2.4.8l-1.3,1.7c1.2.6.5,1.2,1.1,2.4a2.342,2.342,0,0,1,1.7.7c-1.8,1.1,1.1,2.5-.7,3,.6,0,.5,1.2,1.1,1.9a.6.6,0,0,1-.7.5l.6.7v-.6a1.175,1.175,0,0,1,1.2,1.2c-.1.6-.1.6-.7.6.6,1.2,2.5-.5,3,1.4l-.1.6c2.4,1.3,2.5-.5,5.4.2,1.3-1.1,1.9-.5,3.7-1l-.5-1.2c1.2-1.1,1.3-1.7,2.5-2.3H-360l.6-1.2c-.6,0-1.2.6-1.2,0,.1-.6,1.3-.6,1.3-1.2l-1.2-.6c.7-1.8,1.8.1,2.5-1.1l-.9-.7.9-.5-1.7-.7c.6-.6,1.2-.5,2.4-.5a1.555,1.555,0,0,0-1.1-.6,2.1,2.1,0,0,1,.6-1.2c-.6,0-.5-.6-1.1-.7l1.2-.5h-.6l.6-.6a1.287,1.287,0,0,0-1.1-1.3l.6-.5-.6-.1a.6.6,0,0,1,.7-.5h1.2c.1-2.4,0-1.2-.5-1.8-.6,0-.6-.6-.6-1.2.6.6.7-1.2,1.2,0,.7-1.1-.5-.6-1.1-1.2.7-1.2,1.8.1,1.9-1.1-.6-.1-1.2-.1-1.2-.7,1.2.1,0-.6.7-1.2-.6,0-1.3.6-1.2,0l.6-.6c.6-.6.6,0,1.2.7,0-.6-1.2-1.3-.5-1.9h-.6c3.1-3.4,6.8-5,11.2-7.2,1.1.7,1.3-1.7,2.4-.5.7-1.1,3.8-1.4,4.5-2.5,1.7.7,3-1.1,4.9-1.6,3.6-.4-.1,1.8,1.6,3.1l-.6.6c.6,0-.1.6-.1,1.2,2.3,1.3-.8,3,.4,3.6v.6l.5.7c-1.2,1.1,1.1,2.4-.7,3.5,1.2.1.5,1.2,1.7,1.3,0,.6-.1,1.8-.7,1.8.6.6,1.2.6.5,1.2Zm4.5,12.6a4.942,4.942,0,0,0-4.8-3c-6.6,1.8-12.6,3.6-19.2,3.6a8.516,8.516,0,0,0-5.4,4.8h.6c1.8,1.8,3.6-1.2,5.4,0,3.6.6,7.2-1.2,10.2-1.8,1.8.6,3,0,4.2.6-1.8,1.8-3,4.2-4.8,6,.6,1.8-1.8,1.2-1.2,2.4-2.4,3.6-4.2,7.8-7.2,10.2.6,1.8-1.8,3-1.2,4.2.7-.5,2-.4,2.4-1.2,2.4,1.8,6-1.2,7.8-.6l2.4-.6c1.2-1.2,2.4.6,3.6-.6,1.2,0,3-.6,4.2.6.6.6-.6.6-.6,1.2-4.8,7.2-12.6,12-16.2,19.8l.6.6c3,0,6,.4,8.8.5,3.9,0,2.7-.2,6.8-.3.6,0,3.6-1.5,4.2-.3,2.4,0,3.6-1.8,4.8-2.4,1.8.6,2.4-.6,3-1.8,0-1.2-1.8,0-1.8-1.2-5.3.3-9.6,1.9-18,1.3-.6-.6-1.8,0-2.4-.6,0-.6.6-.6,1.2-.6,0,0,1.2-.6.6-1.2a10.534,10.534,0,0,1,3-2.4c0-1.2,1.2-.6,1.8-1.8-.6-1.2,1.8-1.8,2.4-3a.588.588,0,0,0,.6-.6c1.8,0,2.4-2.4,3.6-3a2.2,2.2,0,0,0-.6-1.8l2.4-.6c.6-.6-1.2-1.8.6-1.8a2.2,2.2,0,0,1-.6-1.8c-1.8-2.4-5.4-4.2-8.4-3-3-1.2-5.4,2.4-7.2,0l-1.2.6v-.6c1.8-1.2,1.8-3,3.6-3.6v-.6c.6-.6,1.8-1.8.6-3a2.2,2.2,0,0,1,1.8-.6c0-1.2,1.8-1.8,1.8-1.8l-.6-.6c.6-.6.6-.6,1.2-.6l-.6-.6c1.8-.6,1.2-3.6,3.6-3.6v-.6c0-.6.6-.6,1.2-.6l-.6-.6A19.027,19.027,0,0,1-325.1-32Zm-37-14.3c-.6,0-.7.6-1.3.6l1.2,1.2c-.6,0-1.2,0-1.3.6h1.2c0,1.2-1.8.5-1.2,1.2.5.6,1.1.6,1.1,1.2-1.8-.1-.1,1.2-1.9,1.1l.6,1.3-.7.5.6.7-.6.5c-.7.6,1.1.7,1.1,1.3l-.7,1.8c-.6.1-.7,1.1-.6,1.1l1.2.1c-.7,1.2-2.5.5-1.9,1.7,2.3.7-.2,2.4-.2,3-1.2.5-2.4-.7-3.5-2,.6-.6-.5-1.8-.5-2.4-.5-.7.1-1.8-1-2.5,1.2-.5.7-1.8.7-3a8.077,8.077,0,0,0,1.4-3.5c.6,0,1.2.1,1.2-.5.8-2.4,3.2-3.5,4.5-4.6A.588.588,0,0,1-362.1-46.3Zm-10.6-25.8c-.6,0-1.9.5-2.4-.1v-.6h.6ZM-361-34.2c.6-.5,1.3-.1,1.9-.1l-1.3.2Zm103.3-15.1c-1.4-2.4-4-1-6.3-.2-3,.5-6.8,2.7-9.9,3.1-6.4,4.2-10.4,1.9-16.6,7.1l2.2.1c3,2.9,3.5.2,6.9-.2l-.2,2.3-.3,2.9c2.1,1.6-.9,3-1.8,3.7.8,0,.8.9.8.9l-.8.7a2.287,2.287,0,0,1,2.1.9c-.1,1.6-2.2-.1-2.2.6l.7.9h-.8c3.6,1.7-1.6,3.7-1,5.3-.1,1.6-1.5,2.3-.9,3.1l-.8,1.5c.6,1.4,2.7,2.1,3.4,2.1,2.3-1.4,5.8,1.1,7.4-1.1,1.6-.1,3.1-1.2,4.5-1.1,3.6-.7,7-3.3,11.1-3,1.6-2.2,3.7-1.4,4.6-3.7,0-1.5-.7-1.5-1.8-1.4-3.8.6-9,2.8-12.2,3.8-3.7.5-6.8,4.3-9.4.2,0-.7,1.4-.7,1.5-1.5-1.4-.8.9-1.5-.6-2.4h-.7l2.3-1.4c.8-1.6-1.5-.1-1.4-1.7.8-1.4.7.1,1.5.1-.7-1.5-.7-2.4.2-3.1,0-.8.1-1.6-1.4-1.7.1-1.5,1.6-1.4,1.6-2.3a1.546,1.546,0,0,1-1.4-1.6c.1-.8.7.1,1.5.1a8.6,8.6,0,0,1,.1-1.6c0-.7.1-1.6-1.4-1.7,1.6-1.4,3.1-2.9,5.2-3.5C-267.5-45.2-262.1-47.2-257.7-49.3Zm16.8-1.1a3.428,3.428,0,0,0-4.4-2.2c-.2,1.3-1.5,2.6.5,3.4a.6.6,0,0,1-.8.5c-.6.7,1.3,2.1-.6,2.6l.6.7-.1.6c0,1.4,0,2.7.7,2.8-.8.5-.1,1.3-.8,1.8,1.2,2.7-.2,6.5.3,9.8-.6,1.3,1.2,2.7-.1,4.5-.1,1.3-.7,2.6.6,4-1.3.6.5,3.3-1.4,3.8l1.2.8-1.3.5,1.3,1.4-.7.6a3.564,3.564,0,0,0,.6,2.7c-.7-.1,0,1.3-.7,1.2l.7.1c-.2.6-.2,1.2-.7,1.2.5.2.5.7,1.2.7l-.7.7,2,.6a.812.812,0,0,1-.8.7c.7.6.3,1,2,.7a5.691,5.691,0,0,0-1.3-.7c1.4-1.2,1.9,1.4,3.2.1.8-.7,2.1-.5,1.5-1.3v-.7c-.7-1.3.7-2.4-.6-3.2l.7-.7a2,2,0,0,1-1.3-.6l1.3-.7-.6-.6.7-.7-.7-.6h.7c-.7-.7-.7-1.3-1.3-1.3a1.775,1.775,0,0,1,1.4-.6l-.7-1.4c.7-.5,0-.6-.6-1.3a.9.9,0,0,1,1.3.1l-1.2-1.4c0-1.3.6-1.3,1.3-1.8l-1.2-1.4.6-.7c0-.6-1.3-1.9,0-1.9-.5-.7.2-2-.5-2l.7-.6c0-.7.1-1.3-.6-1.3.7-.7,0-2,.7-2-.7-1.3-.6-1.9.1-3.9-1.3-.6-.6-1.9-.6-3.2-.6,0-1.3,0-1.3-.7.1-.6,1.4-.6,1.4-1.3,0-.6,0-1.3-1.3-1.9.7,0,.8-.7,1.4-.7-1.3-.6-.6-1.9-1.9-2.6l.6-.6C-240.2-49.1-240.9-49.7-240.9-50.4Zm56.6-3.8a1.973,1.973,0,0,0-3.8-.4l-.7.5c-.6.6-.2,1.2.5,1.8l-.8.7h.7l-.8.6,1.3,1.3a3.173,3.173,0,0,0-.9,1.8c-.1,1.2.3,3.8.2,5-.7,1.2-.9,2.4-.3,2.5-.2,1.9-1,3.6,0,5l-.4.5c-.1.6-.3.7-.4,1.3,0,.6.6,0,.6.6v.7c.7,0-.7.6-.7,1.2a.487.487,0,0,1,.5.6.487.487,0,0,1-.6.5l1.1,1.4h-.7a2.552,2.552,0,0,0,1.3.6.72.72,0,0,0-.7.6c-1.6,1.8,1.6,2.7-1.2,3.7h.7a4.418,4.418,0,0,1,.4,2.5c.5,2-1.1,5,.7,6.3l-.7,1.2c-.2.6.4,1.3-.2,1.3l1.1,1.2-.7.6-.2,1.3c.6,0,.6,0,.7-.7l.8,1.3c-.7-.3-.9,0-1.5,0,.6,0,.6,0,.5.6l2.7-.3-.6-1.3c.7.1.8-.5,1.4-.5v-.6l-1.2-.7c.8-.5.7.1,1.4-.5.2-1.3,1-2.3-.3-3.1l.7-1.2c-1.9-.2,1.5-1-.3-2.5l.6.1c-1.1-1.5.9-2.4-1-3.3l.7-.5v-.6c-.4-.8,1-3-.9-3.3,1.5-1,.9-1.7.3-2.5l1.3-.3-1.1-.9a11.09,11.09,0,0,0,.6-6.1c-.6-.1-.6-.1-1.3-.7a.869.869,0,0,1,1.3.1c-.5-.7.2-1.9.3-2.5a5.283,5.283,0,0,0-1.3-.1l1.4-.5c-.6-.6.2-1.9-.4-1.9l.4-2,.5-1.1h-.6l.1-.6-1.3-.8c.6.1,1.3-.4,1.9-.3-1.8-1.6.4-2.5-1.5-3.4l.6-.4c-1.8-.9.8-.6.1-1.3a5.743,5.743,0,0,1-3.1-1.1c1.5-.4,2.5.9,3.4-.1C-183.7-53.5-184.3-53.6-184.3-54.2Zm-16,1.7c-.6-1.3-1.2-1.3-2.3-1.4-5,1.4-8.2,4-13.3,5.3-3,.2-4.9,1.9-7.9,2.1-2.1,2.2-5.7,1.8-6.7,4.7.6.1.4,1.7,1,1.1,1.9-.9,5.6-1.1,7.7-2.6l-.6-.3v-.6c.6.9,1.2.3,1.2.9,3.1-1,5.7-2.5,8.7-2.9,1.8-.9,3.7-2.5,6.1-1.1-1.2,0-1.9,1.6-2.5,1.6l.5.6c-2.1,2.8-5.6,6.7-7.2,10.1-.7,1.1-1.9,1-2.5,1.6,1.2,1.3-.8,1.8-.4,3.6-2.1,3.4-4.4,7.3-7,10.8l-.9,1.7c1.2.1.5,1.9,1.2.1,2.3.8,2.1-1.7,3.3-1.4v-.6c1.2-.6,1.4-2.4,2.6-2.9l-.5-.6.6-.5s.8-1.2.2-1.2c.6,0,1.3-.6,1.9-1.1,0-.6-.5-1.3.1-1.8,0,0-.6.5-.6,0,1.2-.6,1.8-.5,3,.3-.1,1.2,2.4-.4,1.1,1.3l.6.1-.6.5,1.5,1.5c0,1.8,2.4,1.4,1.6,3l.7-.4.5.6c0,.6-.6.6-1.2.4l1.7,1.5v.6l-.1.5c-.3,1.8,3.4,1.5,3.8,3.4l-.8.5c2.9,1.2,3.8,1,4.2.5a2.527,2.527,0,0,0-1.5-1.4l.6-.5-2.6-3.3c-.9-4.9-4.1-7.6-6.6-12.1-.6-.7-1.6-1.5-1.6-2.1s0-.6.6-.4l-.6-.8.7-.4c0-.6-.6-.2-.6-.8l.6.2c.8-1.1,2.8-2.8,2.9-4.5-.5-1.3,1.3-1.7,2.1-2.8.7-.6.9-1.8,1.5-2.3a12.78,12.78,0,0,1,4.2-5l-.6-.7,1.3-1.1h-.6Zm90.6,24.2c-6.5-4.5-13.7.7-19.6,2.6-3.9,2-8.5,3.3-10.4,6.6,1.8.6,1.9.1,3.7,0-.1.1-.4.2-.4.6.6,0,1.9,0,1.9-.6,3.9-2.6,7.8-3.3,11.7-5.3,2.6.7,3.9-2.6,5.9-1.3.7,0,.7,0,.7.7l-12.4,12.4c-2.6,3.2-5.2,5.8-6.5,9.1,1.3,1.3,3.2-.7,4.5.7,3.3-.7,3.9-1.4,6.5-2.7,2.6.7,3.9-3.2,6.6-1.3,0,1.3.6,2-.7,2.6l-2.6,3.3c-4.6,6.5-11.1,11.7-12.4,18.9.7,0,.7-.6,1.3-.6,1.3-.7,1.5-.7,2.2,0l-.9.6,2-.6c1.3,0,2.6,0,3.2.6,0-1.9,2,0,2.6-1.3,3.3-1.3,5.1-1.2,7.8-3.5l1.3-.5a70.309,70.309,0,0,1,6.8-3.1c.7-3.3,5.3-2,4.6-4.6.7,0,.7-.6,1.3,0V4.4c0-.7-1.3-.7-1.3-.7a64.936,64.936,0,0,0-12.4,4.6l-2.2,1.2c-2.6,1.3-5.9,3.3-9.1,2.6,1.9-2.6,1.3-4.5,3.9-5.8,1.3-3.9,5.9-5.2,6.5-9.1,1.3,0,0-1.4,1.3-.7,1.3-.7.7-3.9,3.3-4.6l-.7-.6.7-.7h-.7l.7-.6c-3.9-3.9-9.8,0-13.7.6,0,2-2,1.3-2.6,1.3v-.6c4.5-4.6,8.4-9.8,13.7-14.4,1.3-1.3,2.6-3.2,3.9-4.5Zm-50.2-31.2c0-1.4-.7-.7-2-.7-.6.7-2.6,1.3-2.6,2.6s-1.3,2.6,0,3.3l-1.3.6c0,2,.7,2.6-.6,3.9-.7.7-2.6,0-2.6-.6a7.276,7.276,0,0,0-5.2,4.5c1.9,0,3.9,0,5.2-.6,1.3,0,2.6-.7,3.2,0l-.6,2.6c.6.6-2,3.3.6,3.9-1.9.7-.6,2-1.9,3.3.6,0,1.3,0,1.3.6-1.3.7-1.3,2-1.3,3.3,0,0,1.3,0,1.3.6,0,1.3-2-.6-2,1.3.7.7,0,1.3-.6,2,.6.6,1.9-1.3,1.9,0,.7.6-.6,0-.6.6h.6v.7a.588.588,0,0,1-.6.6c.6.7-.7.7-.7,1.3.7,0,.7,0,.7.7l.6,1.3c3.3,1.3,6.5-.7,9.8-2,4.6-1.3,9.1-4.5,13.7-5.8,1.9-2.6,6.5-1.3,8.5-3.3-2-1.9-4.6-.6-6.6,0-7.1,1.3-13,5.9-20.2,7.2-.6-3.3,0-6.5-.6-9.8.6-2.6,1.3-4.6.6-7.8l.5-.6.2-2.7c.6-1.9,2.6-1.3,3.9-2.6,4.6-1.3,9.1-3.9,13.7-5.2a5.937,5.937,0,0,0,3.2-2.6c-.1-.2-.8-.9-1.2-.9-4.1.4-8.3,2.7-11.8,4.5-3.3,0-4.6,2.6-7.2,1.9l.3-1.1c0-1.3-.3-.4-.3-1.7-.6,0,0-1.1,0-1.1v-.9c-.6,0,0-.7,0-.7C-160.6-59.5-160.6-59.5-159.9-59.5Zm52.8-2c-2,0-2-2.7-3.9-2-1.3,1.3-4.6,2.6-4.6,5.2-2.6.7-5.2,2-7.8,2.6-5.9,3.3-14.4,3.9-18.3,10.4l2,.7c2.6-.7,2.6-3.3,4.6-2.6,3.9-2.6,8.4-2.6,11.7-5.2,3.2,0,5.9-3.9,8.5-2a.686.686,0,0,1-.7.7v1.3l-.6.6c1.3,1.3,0,1.3.6,3.3.7,0-1.3,1.9.7,2.6l-.7,1.3.7.6h-.7l.7.7c1.3.7,0,2-.7,1.3l1.3,2a.588.588,0,0,1-.6.6c1.3,1.3,0,3.3.6,4.6l.7,1.3,1.3-.7c1.3-.6.6-1.3,1.3-1.3l-1.3-1.3c1.3,0,1.3-1.3,1.9-1.9-.6-.7.7-1.3.7-1.3-.7-1.3,1.3-1.3,0-2,.6,0,.6-.6.6-1.3-.6,0-1.3,0-1.3-.7v-.6l.7.6c0-.6,1.3-.6,1.3-1.9-.7,0,0-.7,0-.7l-.7-.6c-.6-1.3.7-2,.7-2.6a.686.686,0,0,1-.7-.7l.7-.6a6.268,6.268,0,0,1-.1-1.1c.6-.7.3-1,.1-1.5h-.7l.7-.7-.7-1.3h1.3l-1.3-1.9c0-.7,0-.7.7-.7l-.7-.6,1.3-.7-.6-.6C-108.4-60.9-107.1-60.2-107.1-61.5Zm-28.7-16.3c-.6-1.3-2-.6-3.3-1.3-5.2,2.2-11.1,3.6-16.2,5.9-6.8,3.1-14.4,4.5-19.6,10.4l1.4.2.6.4c1.3,0,2.8-.3,3.4-1-.6,0,1-.8,1-.8,7.8-4.5,15.2-6.1,22.9-9.3,1.3-.3,3.6-2.3,6.5-1.9A13.568,13.568,0,0,0-135.8-77.8Zm94.3,25.1c1.2-1.2-2.4-1.2-3.6-1.2-6,1.2-10.8,1.2-15.6,4.2-.6-1.2-1.3-.8-1.9-.8l-.5-.4h-.6l-.3.7c-1.8.6-2.7.5-3.9,1.7a8.917,8.917,0,0,0,1.2,5.4c-.6,0,0,.6-.6.6,0,1.2-.6,1.2.6,1.8a2.1,2.1,0,0,1-.6,1.2c-.6.6,0,.6.6,1.2-.6.6,0,1.8-.6,2.4a.588.588,0,0,1,.6.6c0,.6-.6.6-.6,1.2h.6c.5.6.1,1.1-.5,1.2.4.2-.1,1.2.5,1.2-1.2,1.8,3,0,1.8,1.8,1.2.6,1.2.6,1.8,0h-.6v-.6c.6-.6,1.8,0,2.4.6,0-1.2-2.4-.6-1.8-2.4,0-1.2,1.8-1.2,2.4-1.2a1.858,1.858,0,0,0-1.2-.6c.6-1.8-1.8-1.2-2.4-2.4,1.2-.6,2.4.6,3.6-.6a2.963,2.963,0,0,0-1.8-.6c0-1.2.6-.6,1.2-1.2l-.1-.6-.6-1.2c0-.6.7,0,1.3-.6a1.858,1.858,0,0,1-1.2-.6l1.2-1.2-1.8-1.2c1.2,0,1.8-1.2,2.4-1.2l-.6-1.2c1.8.6,2.4-.6,4.2,0-1.2-1.2-.6-1.8-.6-3,.6.6,1.2,0,1.8-.6a1.247,1.247,0,0,0,.5,1.3l.7-.1c0-.6,1.2-1.2,2.4-1.2,1.8,1.8,4.2,0,4.8,2.4a3.117,3.117,0,0,1-2.4,1.2c-.6.6-.6.6,0,1.2-.6,0-.6.6-1.2,0-.6.6-.6,1.8,0,1.8l-1.2.6v.6l-.6.6h.6v.6c-3,1.2-2.4,4.8-4.8,6.6-.6,0-.6.6,0,.6l-.6.6.6.6c-1.2,0-1.2,1.2-2.4,1.8,0,.6,1.8,1.2.6,1.8-1.8-1.2-.6,1.2-2.4,1.8l1.2,1.8-1.2,1.2c1.2.6,2.4-1.2,3.6-1.2.6,0,1.2.6,1.8,1.2-.6,1.2-1.2-.6-1.8.6-.1.4.7.4,3,0l-.6-.6v-.6a1.15,1.15,0,0,1,1.8.6l-.6.6h.6c0-.6.6-1.2,1.8-.6l-.6-.6c1.2-.6,1.8,0,3-.6,1.2,0,2.4-1.8,3.6,0,.6,1.2-1.2,1.2-1.2,2.4.6,1.2-.6,1.2-.6,1.8,0,1.2-1.2,2.4-1.2,3.6,0,1.8-2.4,3-1.8,4.8,0,.6-.6.6-.6,1.2a12.06,12.06,0,0,0-2.4,4.8c-1.8,1.8-1.8,5.4-4.8,7.2.6,1.2-.6,1.2-1.2,2.4.6,0,1.2-.6,1.8-.6,2.4-1.8,4.8,1.2,7.2.6,4.2-2.4,9.6-3.6,14.4-4.8,0-1.2,1.8,0,2.4-1.2,2.4.6.6-1.8,3-1.8a8.917,8.917,0,0,0-5.4-1.2c-4.8.6-9,3.6-13.8,3.6,0-1.2,1.2,0,1.2-1.2s-.6-1.2-1.8-1.2c1.2-1.2,3-1.8,3.6-2.4,0-.6-.6-.6,0-1.2,0,0,0-1.2,1.2-.6l-1.2-1.2c.6,0,0-.6.6-1.2a13.088,13.088,0,0,1,3-2.4l-1.2-.6c.6,0,0-1.2,1.2-.6v-1.2c1.2-1.8,0-4.2,2.4-4.8,0-1.8.6-2.4-.6-3.6.6,0,1.1-1.1,1.7-.6l-.5-.6c.6-.6.6-.6,1.2-.6a.831.831,0,0,1,0-1.2c-4.2-6.6-10.2.6-15.6,0l1.2-1.2-1.2-.6a1.858,1.858,0,0,1,1.2-.6l-.6-1.2,1.2-1.2c.6-.6.6-1.2,1.8-1.8a3.388,3.388,0,0,1,1.2-3.6c-.6,0-.6.6-1.2,0,.6,0,1.2-2.4,1.8-.6,0-.6,0-.6-.6-1.2.6,0,1.2-1.2,2.4-.6-.6-1.2,1.2-1.2,1.2-1.8,0,0-.6.6-.6,0-.6-.6,0-1.2.6-1.8,1.7-.6-.5-2.3,1.6-2.4-.6-.1-1.6-.6-1.6-1.2h1.8l-1.2-.6c.6-1.2,2.4-1.8,3.6-3h-.6a8.283,8.283,0,0,0-2.4-1.8C-43.3-53.9-42.1-52.7-41.5-52.7Zm-21,4.2c-.6,1.2-2.4.6-3,1.2,0,0-.4.1-.4-.5l.4-.7C-64.3-48.5-63.1-49.7-62.5-48.5Zm5,0c-1.2,1.8-2.4.6-3.6.6,0-.6,0-.6-.6-.6C-60.5-49.1-59.3-48.5-57.5-48.5Zm6.4-1.8c.5-1.7,2.2-.1,3.4,0ZM-62.5-27.5l-1.2-1.2h-.6Zm1.8,1.2a1.858,1.858,0,0,0-.6,1.2l.6-.6ZM31.2-71.2v.6c-1.2-1.2-2.4.6-3,1.2-.6,1.2,0,2.4-.6,3.6,1.2.6,0,1.2.6,1.8,0,1.2-1.8,1.2-3,2.4.6,0,1.2,0,1.2.6h-.6c-2.4-.6-4.2,1.8-6,2.4-3.2,1.9-4.9,3.1-8.9,5.6a.588.588,0,0,1,.6.6l-.6.6a.588.588,0,0,0-.6-.6C8.5-51.2,5.5-50,4.9-47.6c-.6,0-.6-.6-1.2-.6,0-.6.6-.6.6-1.2-1.2-1.8.6-2.4-.6-3.6,1.2-.6.6-3,.6-3.6s0-.6-.6-1.2l.6-.6c-1.2-1.2.6-1.8,0-3-1.8-1.2,1.2-1.8.6-3,1.2-1.8-1.2-2.4-2.4-3.6-1.2.6-1.8,3-2.4,4.8l1.2.6a.588.588,0,0,0-.6.6l-.6.6c-.6.6.6,1.2.6,1.8L.1-59c-.6.6,0,1.8.6,2.4-1.2,0,0,.6-1.2,1.8H.7c-1.2.6-.6,2.4-.6,3.6H-.5c0,1.2,1.8,1.8-.6,3,1.8.6.6,3,1.2,4.2-.6,2.4-3,1.8-3.6,3.6-3,3-4.8,7.2-6,11.4l.6.6h-.6l.6.6-1.2,1.2h1.2l-1.2,1.2c.6,0,1.2-.6,1.2,0l-1.2,1.2c2.4,0-.6,2.4,1.8,2.4,0,.6,0,1.7-.5,1.8h1.1l-.6,1.8h1.2a.588.588,0,0,1,.6.6c.6.6,0,1.2-.6,1.2.6,1.2,1.2-.6,1.8.6,2,1.1,3.6,1,4.8,0,1.2-.6.6-1.8,1.8-2.4,0-1.2,1.2-3,.6-4.2,1.2-1.2-.6-3.6,1.2-4.2v-.6c-.6-1.2-.6-3.6.6-4.2,0-1.2-1.2-2.4,0-3-.6-.6.6-2.4-.6-3h.6a.588.588,0,0,0-.6-.6l1.2-1.2-1.2-.6c7.8-7.8,14.3-11.6,22.7-17,1.2,0,1.2.6,1.8,1.2-1.8,1.2.6,3-.6,4.2h.6c0,.6-.6.6-.6,1.2v2.4a2.967,2.967,0,0,1,0,2.6c.6.6-1.2,2.4-.6,3l-.2,1.3c.6,0,.6,0,.6.6.6.6,0,.6,0,.6,0,.6,0,.6.6.6.6.6,0,2.4,0,3a17.519,17.519,0,0,1,1.2,5.4c1.2,2.4,3,1.2,5.4,1.8,0-1.2-.6-1.8-1.8-2.4,1.8,0-.6-1.8,1.2-1.8v-.6c-.5-1.4.3-2.8-.6-3l-1.2-.6c0-.6,1.2-.6,1.2-1.2-.6,0,0-1.2.6-1.8-1.2,0,0-1.2-1.2-1.8l.2-1.9c1.2-.6-1.2-1.2.6-1.8l-.1-.8-1.1-.6L33-48.4l-.6-.6v-.6a.588.588,0,0,1,.6-.6v-.6c-.6-.6,0-2.4,0-3.6l-.7-.4c0-1.2-.5-2,.7-2.6l-.6-.6.6-.6a.588.588,0,0,1-.6-.6H33c.6-1.2-1.2-1.8-.6-2.4a2.725,2.725,0,0,0,0-3c.6,0-.6-1.2.6-.6.6-1.8-1.8-1.8-1.2-3,0-1.2,1.8-1.2,1.8-2.4Zm.7,49a13.4,13.4,0,0,0-5.1-2.4,43.668,43.668,0,0,0-9.9,8.9c-.5.7-.8,3.7-2.6,3.3.5-.7.4-1.8,1.5-2.6l-.6-.5c-1.4-1.1.4-1.9-.2-1.8l-.6.1-.7-.6c1.1-.7-.3-2.3,1-1.9a.487.487,0,0,1,.5-.6c1.2-.2.6-.7.5-1.3-1.2.1-2.7-2.1-3.7-.2L10.7-18c0,.6-.5,1.8.8,2.3l-.5.6c.1,1.2-1.6,2.6.4,3.6-1.7,1.4-.9,3.1-1.4,4.4,0,0,.2,1.2.8,1.1a.716.716,0,0,1-.6.7c1.4,1.1-1,1.9.9,2.3L10-2.3c1.2-.1.7,1.2.7,1.2C9.6.2,11,1.2,10,3.2c2.3-.3.2,2.4,2.1,2.8.5-.2.7.4,1.2-.2,2.8-1.5-2.1-2.2.8-3.7a4.869,4.869,0,0,1-1.2.1L14.5.9c-.6,0-.6-.6-1.2-.5.5-.7,1-1.3,1.6-1.4l-.7-1.1c1.7-.8-.9-2.9.8-3.7-.1-.6-.1-1.2-.7-1.2,1-1.9,3,.3,4-1.6a.864.864,0,0,1-1.2.1l1.7-1.4c1-1.3-1.3-1-2-1.6l.5-.6a3.356,3.356,0,0,0,4-2.3c1.6-2,2.7-3.3,5.1-3.5,2.5.9-.4,1.8.3,3.5l.7.6c.1.6-.5.6-1,1.9l.2,1.8c.1,1.2-.8,3.7-.1,4.8a.6.6,0,0,0,.7.5L26.1-4c-.6.6.1,1.2.7,1.1-.5.7-1.1,1.3-1,1.9.6,0,.6,0,.7.6-1.1,1.3-.8,3.7-.7,4.9.1,1.1-1.6,1.9-.3,2.4-.6.7-1.1,1.3-1,1.9.1,1.2.2,2.4-.9,3.1l.6.6,1.6-2a2.124,2.124,0,0,1,.8,1.1l1.8.4v-.6c1.8.4,2.3-.8,2.7-2.1,3-1.8,4.1-3.1,6.4-4.6.8-.8.7-1.2,1.2-1.9a2.409,2.409,0,0,1,1.8.4c-.1-1.2,1-1.9,1.6-2.5,2.4.3-.3-2.4,2.2-2.1L44.2-2c-.1-.6.4-.6.5-1.2-.6,0-1.2.7-1.8.7-4.7,1.2-4.2,1.6-9.4,4-1.6,1.4-1.8,1.3-3.7,1.3l.6-.7c-1.2.2-.8-1.7-.8-1.7.6,0,1.1-.7,1.1-.7-.6.1-1.2.1-1.3-.5.6-.6.5-1.2,1.7-1.4L29.6-4.4l.6-.1c-.1-1.2.9-3.1.2-4.2l.6-.1c-.8-1.1,1-1.9.2-3-.5,0-.5,0-1.2-.5l1.6-1.4-.5.1c1.1-.8-1.6-2.9.8-3.1l-.6-.6a.487.487,0,0,0,.5-.6c-.7-.6.5-1.3.4-1.9-.7-.4-.7-1-1.2-1C31.5-20.9,31.4-21.5,31.9-22.2ZM-18.5-58.3c-2.4-2.4,1.2-6-2.4-7.2a8.911,8.911,0,0,0-2.4,8.4V-56c2.4,1.2-1.2,3.6.6,4.8.6.6,0,1.2-.6,1.8,2.4,1.2-1.8,2.4.6,3.6h-.6c-.6,1.2,1.8,2.4,0,3,1.2,1.2.6,3,.6,4.8v.6s.6-.6.6,0l-.6.6c0,.6,0,1.2,1.2,1.8.6,1.2-1.2.6-1.2,1.8,1.2.6.6,1.2,0,1.8,1.8,0,1.2,3,1.2,3,1.8,1.2-.6,3,1.2,3.6,1.2,1.2,1.8,3,3.6,2.4,0-.6,0-2.4-1.2-2.4,0-1.8-.6-3-.6-4.8-.6-.6.6-1.8-.6-3l.6-4.2c-.6-.6,0-1.8-.6-2.4h.6l-.6-.6c.6-2.4,0-4.2,0-6h.6l-.6-.6V-57.7Zm18,24.5-.6,1.2s.6,0,0,.6l-.6.6c.6.6,1.2,1.8.6,2.4a46.315,46.315,0,0,1-1.2,9c-.6.6-1.2,1.2-1.8.6a4.549,4.549,0,0,0-1.2-2.4c.6-1.2-1.2-3.6,0-5.4v-1.2a35.376,35.376,0,0,1,2.4-4.8c1.2-.6.6-1.8,1.8-2.4L.1-34.4H-1.1Zm78.4-7.8A31.975,31.975,0,0,1,89-44c1.2.1,2.5-1,3.7-.9.7-1.1,2.5-.3,3.7-.8,1.8.2,1.9-.4,3.7-.2.7-1.1,3,.3,3.7-1.4-1.2-.1-2.9-.9-4.1-.4a14.485,14.485,0,0,0-2.8-1.4l-1.3.3-1.2-.1a6,6,0,0,0-3.7.8c-1.6-2-4.3.2-6-.6-1.9.4-3.8,2-5.5.6.1-.6,1.2-.5.7-1.1l-.5-.7c0-.6,1.2-.5,1.2-.5.8-1.1-.4-1.2-1-1.3.7-1.1,1.8-.4,2.5-.9l-.5-.7-.6-.6c.7-.6.7-.6.1-.6l.6-.6c.2-1.2.2-1.8-1-1.9l.7-.5.1-.6.6-.6c.2-1.1.3-2.3-.3-3l.7-.5.1-.6c0-.6.1-1.2.7-1.2l1.1-1.3,1.1-2.6c-.5-1.5-3.1-1.7-7.1-.8A49.022,49.022,0,0,1,71.5-67c-2.9-.3-5.6,1.8-8.6,1.5-1.9,1.6-4.9,1.3-7.4,2.2,1.6,2,3.5,1,5.9,1.2,2.5-1.5,6.2-1.7,9.3-2.6,1.8.2,4.4-1.9,6.7-.5a7.419,7.419,0,0,0-1,3.5c-1.2.5.4,1.9-.9,2.9-.7,1.2.4,1.9-.9,2.4.6.6-.1,1.8.4,2.4l-.7.6c-.8,1.7,1,1.9,1.6,2.5-.7.6-1.2-.1-1.9.4.6.1.5,1.3.4,1.9l-.6-.1.6.7-.7.5a.6.6,0,0,1,.5.7c-1.2.4,0,.6-.7,1.1-1.8-.2-3.7.8-5.5.6-2.5,1-5.5.7-6.9,2.3-5.5.6-10,3.2-14.4,5.1-1.8.4-4.4,2-3.5,4.5,1.3-.5,1.1.7,1.7.8.2-1.8,1.9-.4,3.1-.3.8-1.7,2-1.6,2.7-2.7,1.2.7,6.7-1.6,6.1-1.2,3.1-.3,5.8-3,9.3-2l.1-.6a24.38,24.38,0,0,0,5.5-1.1c-.1,1.3-.5,2.8-.5,4-.6.6,0,.6.6,1.2-1.8.6.6,1.8-1.2,2.4-.6,1.2.6,1.2.6,2.4,0,0-.6,0-.6,1.2,1.8,0,0,1.8,0,1.8l.6.6c0,.6.6,1.8-.6,1.8.6.6,1.8,0,2.4.6l.6-1.2c0,.6,0,.6.6.6-.6-.6.6-2.4,0-3a.588.588,0,0,1,.6-.6c-.1.1.3-1.7-.6-1.2,0-.6,0-.6.6-.6-1.8-2.4,3-2.4.6-4.2a21.318,21.318,0,0,1,1.2-6c-.6,0-.1-.5-.1-1.1ZM89-22.9c-1.2,0-2.3-1.3-3-1.2a126.877,126.877,0,0,0-22.8,5.4c-1.8.6-4.2-.6-4.2,1.8,2.4.6,4.2,3,7.2,1.8-.6,0-1.2,0-1.2-.6.6-.6,1.8,0,2.4-.6.6,0,2.4-1.8,4.8-1.2,3-1.8,6.6,0,10.2-1.8.6.6,1.8,0,2.4,0,.6.6-.6,1.2.6,1.8-1.2,1.8-1.2,4.8-1.8,6.6-1.2,1.2.6,2.4-.6,3,0,3-1,5.4-.4,7.2-1.2,1.8-.6,3.6-.6,6,0,0,.6-.6.6,0l-.6.6c-1.2-.6,0,1.8-1.2,1.8.6.6.6,1.8,1.8,1.8-.6,1.2-1.2,0-1.8,0,0,.6-.6,1.8,0,1.8s0,.6,0,.6c.6.6,2.4,0,2.4,1.2,1.8.6,1.8-.6,3-.6L85,11.9c.6-1.2,1.8-1.2,1.8-2.4a1.15,1.15,0,0,1-.6-1.8h.6l-.6-.6c.6-.6.6-.6,1.2-.6V5.9c-.6-1.8.6-3-.6-4.2.6,0,.6-.6,1.2-.6L86.8.5l.6-.6c0-.6.6-1.2-.6-1.2l1-2.4c-.6-.6.6-1.2.6-1.2l-.6-1.2A1.29,1.29,0,0,0,89-7.3c-1.8-.6-.6-2.4-.6-2.4-.6,0,0-.6,0-.6a.588.588,0,0,1,.6.6c0-1.2.6-2.4,0-3.6,0-.6.6-.6,1.2-.6-.6-.6-.6-1.2-1.8-1.8l1.8-1.2c-.6,0-.1-1.1-1-1.2a1.286,1.286,0,0,0,1-1.2l-.6-.6.6-.6Zm56.4-32.6c-1.2-1.2-1.2-2.4-3-2.4-1.2.6,0,1.8.6,2.4h-.6c.6,3,1.2,7.8.6,10.2l.6.2c-.6.6,0,2.2,0,2.2-.6,2.4,0,5.4,0,7.8-1.2,2.4.6,4.2-1.2,6.6,0,1.2-.6,2.4,1.2,3l-.6,6.6c1.8,1.2-1.8,2.4.6,3-.6.6-1.2,1.8-.6,2.4-1.2.6.6,1.8-.6,1.8a7.61,7.61,0,0,1-.6,3.6h1.8l-.6.6c-1.2,0-1.2,1.8-.6,3,0,1.2,1.2,2.4,1.8,1.8l-.6-.6c1.7.6.7-1.6,2.1-1.8-.3,0-.3-.1-.3-.6-.6-.6.6,0,.6-.6-.6,0,0,0-.6-.6,0-.6.6-.1.6-.6-.6-.6-1.2-1.8-.6-2.4.5,0,.1-1.1,0-1.2a.9.9,0,0,1,.6-.6c-.7-1,.7-1.6,0-1.8-1.2-1.8,1.2-1.8,1.2-3h-.6c0-.6-.6-.6,0-1.2a.588.588,0,0,1-.6-.6c0-.6.6,0,1.2,0L146-19.5c1.2,0,0-.6.6-1.2,1.8-1.2-1.2-1.8,0-3.6-.6,0,.6-1.2,0-1.8l1.2-1.2-.6-.6c.6-.6,1.2-1.2,2.4-.6a.588.588,0,0,0-.6.6h.6c1.2-.6,0-1.2,0-1.8H152l-.6-.6c.6-.6,1.1-.4,1.1-1l.1-.2c1.2-.3,2.4,0,2.4-.6.6-1.8,3,0,4.2-1.2H158c.6-2.4,1.8,0,2.4-.6a.588.588,0,0,1,.6-.6,2.1,2.1,0,0,0,1.2.6v-.6a6.044,6.044,0,0,1-1.8-.6c-1.8,0-3,1.7-4.2.5l-.6.1s-.6-.6,0-.6h1.8c3,.6,2.4-3,4.8-3-1.2-1.8-3,0-4.2-.6v-.6a29.247,29.247,0,0,0-6.6,2.4c-1.2,0-2.4,2.4-4.2,1.2-.6-1.8.6-3.6-1.2-4.8l.6-.6c-1.8,0,1.2-1.2,0-2.4l-.2.4-.4-.4.6-.6a6.269,6.269,0,0,1,.1-1.1l-.2-.6-.5-.1c1.8-1.8-1.2-3.6,0-5.4-1.8-.6.6-1.8-.6-3-.6,0-1.2,0-1.2-.6C144.8-54.9,144.8-55.5,145.4-55.5ZM126-45.3c-.6-2.4-2.4-3.6-3-6-2.4,0-4.2,1.8-6.6,2.4-3,1.8-7.8,3.6-9.6,7.2.6,1.2.6,3,1.2,3.6a30.51,30.51,0,0,0,7.8-3.6l-1.2-.6c.6,0,.6-.6,1.2-.6,1.2,1.2,1.2-.6,2.4-.6,1.8,0,2.4-1.8,4.2,0h-.6a1.125,1.125,0,0,0,0,1.8l-.6.6c1.8.6-1.2,1.2.6,1.8-.6,0-.5.3-.7.6.1.2-.3,1.2.7,1.2-1.2.6,0,3-1.2,4.8l1.2.6c-1.8.6,0,1.8-1.2,2.4.6,0,.6,0,1.2.6l-1.2,1.8h.6c0,1.2-.6,1.2-.6,1.8s1.2,1.8,0,2.4l.6.6h-.6c0,.6.6,1.8,0,2.4.6,0-.6,1.2.6,1.8h-.6c.6.6-.6,1.8.6,1.8-.6,2.4,1.8,1.8,3,3v-1.8c-1.2-.6,1.2-1.8,0-1.8l1.2-1.2h-1.2c0-.6.6-1.2,1.8-.6,0-.6.6-.6.6-1.2-.5-.4-1,.2-1.4.2h-.1c-.1,0-.2-.1-.3-.2a.588.588,0,0,1-.6-.6h-.6c-.6-1.2,0-2.4.6-3.6H123c.6-1.2,1.2-1.2,1.2-2.4a.588.588,0,0,1,.6-.6c-.6-1.2-.6-3-1.2-3.6h.6c0-.6.6,0,.6,0l-.6-1.2v.6l-.6-.6c1.2,0,.6-1.2,1.2-1.2-1.2-.6.6-1.8-.6-1.8,0-.6,0-.6.6-.6a10.211,10.211,0,0,0-.6-4.2l.6-.6h-.6c1.2-.6,0-2.4,1.2-3h-1.2c.6-.6.6-1.2,1.8-.6l-.6-1.2Zm32,7.8c0,1.2-1.5,1-1.2.6C157-36.9,157.4-38.1,158-37.5Zm-14.6-18h.2l.4-.2.2.2-.6.4ZM124.8-20.1l.3.2h.1l-.1-.4-.5-.2-.1.3ZM147.5-35l-.2.2-.2-.3-.1-.4.4.2Zm64.2-9.1c-.6.1-1.2-1-2.4-.3.1,1.1-1.8.1-2.2,2.1v-.6c-1.8.2-3.6.4-4.2,1.6a4.517,4.517,0,0,1,4.2-.4l-1.6,1.4c1.3,1,1.6-1.4,2.4-.4.7,1.2-.5,1.4-1.7,1.4-.7-1-2.3.9-3.7-.2l1.2-.6,1.2-.2v-.6c-1.8.2-3,.9-4.4-.2-.4.7-1,.2-1.6.2l.6.6c-.5,1.2-1.2-.5-2.4.2-1,1.9-4,1.7-5,3.6,0,1.1,1.4,2.3,2.6,2.7h-.6l1.3.6c1.3.4,1.2-.2,1.7-.8-.6,0-1.8.2-1.8-.4l-.1-.6a.6.6,0,0,0,.7.5c1.5-2.6,4.8-.5,6.5-1.3l-.1-.6c-.7-1.1-1.1.7-1.8-.4,1.6-1.4,5.1.7,5.3-.6l-1.2.1.5-.6c1.2-.2,3-.4,3.2,1.4a7.206,7.206,0,0,0,.1,6.1.588.588,0,0,1-.6.6c.1.6-1,2,.3,2.4l-.5.7.6.5c-.4.7-1,.7-1.6,2l.6-.1c.7.5.2,1.8-.3,2.5l.6-.1-.5.7c.1,1.2-1.6,2,.2,2.4l-1,1.8a2.9,2.9,0,0,0,.8,1.8c1.3.4,1.9,1,2.5,1a1,1,0,0,0-.5.6l1.9.4-.1-.6c1.3.5,1.1-.7,1.1-.7-.6-.5-1.8.1-1.8-.4a12.493,12.493,0,0,0,2-3.3,11.019,11.019,0,0,1-1.8.2l1.7-1.4c-.6.1-1.2-.4-.8-1.1,0-1.2,1.8-.8,1.6-2a.487.487,0,0,1-.6-.5l.8-1.5-1.6-.2v-.6s.4-.7,1.8-.2l-.8-.6c0-.6,1.2-.6.6-1.2a3.558,3.558,0,0,0-1.4-1.6c1-.8,2.4-.4,2.2-2.1a.807.807,0,0,1-1.2.1l.4-1.2.5-1.2c-.1-.6.4-2-.8-1.8l.5-.6,1-2.6-.2-1.2c1.2-.7-.7-1.7-1.4-2.2C213.6-43.7,211.3-42.8,211.7-44.1Zm24.5-8.6c-.9-2.4-3.8-.9-4.2.4-2.3,1.5,1.5,2.9-.2,3.7.2,1.8.4,4.8-.6,6,0,.6.8,1.2,1.4,1.2-1.8,1.3-.2,3.6-1.3,5.4l.3,2.4.6.6h-.6c-.5.7.8,1.8-.4,1.9.7.5,2,1.6.8,1.7a.621.621,0,0,0,.5.6,3.751,3.751,0,0,0-1,.1c.6.5.1,1.2.8,1.7l-.4.4-.1.9c.6-.1.6-.1.7.5,0,.6-1.6,2,.2,1.8a.72.72,0,0,1-.6.7l.1.6c.1,1.2.8,1.7-.3,3l1.4,1.1a1.3,1.3,0,0,1-1.1,1.3l.2,1.8.6-.1-.5.7.6.5c.1.6-.5.7-1,1.3.7,1.2.2,1.8.8,2.4.6-.1.5-.7,1.1-1.4l-.6.1s-.7-.5-.1-.6c.6-.7,2.5.3,2.9-.9-.7-1.2-1.7.2-1.9-1l1.8-.2-1.2-.5a2.79,2.79,0,0,1,2.2-1.4l-1.4-1.1a4.4,4.4,0,0,1,1.7-1.4c-.5,0-.8-.5-1.3-.4.6-.7,1.1-1.5,1-1.9-1.8-1.1,1.4-3.8-.5-5.4-.1-.6-.7-1.2-.1-1.2a4.689,4.689,0,0,1,1-2c.5-.6-1.4-1-1.4-1,.6-.6,1.2-.8,1.7-1.4-.7-.6-1.3-.4-1.4-1.6,0-.6.5-.8,1.1-.8,0-.6-.7-1.7.4-2.4-.7-.6.5-.7.5-1.3-.7-.5-1.8.8-3,.3,2-1.4,1.3-3.5,2.6-3.8-.7-.6-1.3-.6-1.4-1.2L236-43c1.2-.8,1.6-2,2.8-1.6,0-.6-1.2-1-.8-1.7.2-.7.3-.7-.8-1.7l1.2-.8a1.781,1.781,0,0,1-1.8-.4c.6,0,1.8-.2,1.6-.7,0-1.2-1.8-1.1-2.5-1.6-.1-1,.5-.2.6,0Zm-2.6,3.9c.5-1.4,1.6-.8,1.8-.2Zm1.4-3.8c0,.6-1.2.7-1.8.8A2.121,2.121,0,0,1,235-52.6Zm38.5-2.7c-1.8-.7-3.7.4-4.9,1.4-.2,1.2-1.3,2.4-.1,3-.1,1.3.3,3-.3,4.3,1.1.6-.1.6,1,1.2l-.6.5a5.861,5.861,0,0,1,.4,3v.6l-.7.7c.6-.1-.1,1.8,1.1,1.9l-.7.4c-.6,1.3,0,1.2.7,2l-.8,1.1c.6,0,.6,0,.6.6-3,.4-5.8,3.3-8.8,4.9-.7,1.8-3.2,3.5-2.6,4.6-.6.1-.8,1.9-1.9,1.1-1.1-3-.9-6-.7-9l-1.1-1.3a4.869,4.869,0,0,1,1.2.1l.3-6-.6-.1c.6.1.7-.5,1.3-1l-.5-.7c.1-.6,1.3-2.3.2-3.5,1.9-.6,1.4-1.9.7-3,.9-1.3.9-3.1,2.7-3.5.1-1.2,1.4-1.6.2-3-2.4.4-4.4,2.7-5.6,4.4.3,2.5-2.2,5.2-.6,6.7l-.6-.1c-.6,1.7-1.5,5.2-1,7h-.6c.6,1.8-1.4,3.6.4,4.2H251c.4,1.2-.8,2.4.9,3.1l-1.2.5,1.2.1c0,.6-1.3,1.7-.1,1.7l-.6.6c.6.6,1.2.8,1.8,1.5-1.3.9.5,1.2.4,2.4.9,1.3,2.5-.5,2.8.7,1.2,2-1.2,1.8-.7,3.6.6,0,1.1.2,1.1.8l-.6.4a14.221,14.221,0,0,1,2.4,1.9,8.814,8.814,0,0,1,5.1,2.9l.1-1.2c.6.6,1.8,0,2.4.7,0-.6,1.1-1.1,2.4-1.6l-.4-.7c1.1.1,1.8-.5,2.4-1.6-.6-1.3.7-1.7.7-2.3.7-1.8-.3-3.1,1-4.2,0-.6.1-1.2-.5-1.2,1.2-1.3.7-4.2.8-5.4.6-.7.6-1.3,0-1.2l.2-.7c.2-.2.3-.8.8-1.1,6.5-3.3,3.8-4.1.8-3l-1.4.4c-.3-1.9.1-1.1-.3-2.8.6,0,.5-.1.5-.1-.6-.6.1-1.8-1.1-1.7l1.3-.6c-1.6-2.5,1.5-4.7-.8-7.3.6,0,.6-.6,1.2-.5A8.819,8.819,0,0,1,273.5-55.3Zm21.8-4.6c-.4-2.5-2.9-1.4-4.1-.9-.3,1.2-1.5,1.8-1,3.7-1.8.4,1.1,1.8-.7,2.3,1.2.7-1,3.3.3,4l-.6,1.4c.5,1.2-.2,2.4,1.6,3.1-1.9.5-.7,2.9-.9,3.5-.7.6-.7.6-.7,1.2s-.1,1.2,1.2.7c.5.7-.6,1.7-.1,2.3h-.6c-.1.6.5.6,1.1.8.6-.1.6-.1.6.5,1.2.6,4.2.9,4.8-.3,2.4.2,3.7-.4,5.4-.2-.5-1.2,1.9-1.1,2-1.7,1.7.3,5.3-1.3,5.4-1.5-.6,0,0-1.2.6-.6,1.3-1,3.6.4,4.3-.9,1.3-.4,1.4-2.8,1.4-2.2v-.6c-6.3-2.3-12.7,1.4-18.9,3.5-.6.6-1.2.5-1.8-.1-1-1.9.2-1.8.3-3.6-1.7-.8.2-1.8-1-3.6a1.573,1.573,0,0,1,.7-2.4l-.5-.6c.7-.7-1-2,.2-2.4,0-.6-.6-.6-.6-1.2l1.3-.7c-.6-.5-1.1-1.1-.5-1.1l.6-.6c-.6,0-.6,0-.6-.6C293.9-59.3,294.5-59.3,295.3-59.9Zm-.6,35.5c-5.3-.4-7,6.8-9.7,10.1h.6a25.53,25.53,0,0,0-4.1,7l.6.1-.6.5c.6,1.9-2.5,3.5-.2,4.8-1.2,0-1.4,1.2-1.5,1.8.6,1.2,1.8,0,2.4.7,0,.6-1.2,0-.6.6l.4.7.8-.1a24.723,24.723,0,0,0,4.7,1.1V2.3c-.4-.7-1.9-1.8-1.8-.6-1.2,0-1.1.2-1.7-.4A1.29,1.29,0,0,0,285.2.1c1.3,1.4,2.4,1,3.5,2.2l.1-1.2c2.5.8,3.8-1.7,5.7-2.7.3,1.9,1.9-.5,3.1-.5.6-2.3,3.7-.2,4.2-2,1.9-.5,3.7-2.2,5.6-2.2.6-1.7,4.1-.2,4.5-3.1-1.3-.9-1.5.9-3,.3-2.7,1.1-6.1.2-9.3,1.8-3.1,1-5.4,2-8.6,3.1-2.4-.2-5,3.2-7.2,0l1.2-.5h-.6c.8-1.2.7-1.8,1.3-3h-.6l.8-.6c-.6-1.8,1.9-2.1,2-3.9h.6c.1-.6-.5-1.8.1-2.4,1.3-.5,1.4-2.3,2.1-2.8,0-.6.7-1.2.1-1.2l1.3-1.3-.6-.6c1.2.1,1.3-1.7,2.5-1.7l-.6-.6c0-.6,1.2-.4,1.2-1Zm-25.3-5.3c-.6-.2-.6-.2-.7.4l.6.8-.6-.1c1.2,1.3-.1,1.8-.1,2.4-1.2,1.2,1.1,2.5-.8,3,.6.6-.8,1.8,1,2.5-1.9,1.1-2,5.3-5,4.5a7.976,7.976,0,0,1-4-3.9l-.1-2.4.5-.7a2.02,2.02,0,0,1,.5-1c1.2-1.2,3.2-3.5,4.4-4.6l.1-.6C266.4-30,267.7-31.6,269.4-29.7ZM394.1-53.9c-1.3-1.1-3.8-2.7-4.9-.9-2.2,2,.9,3.6-.8,5.5,0,.6,1.2-.1,1.2.5-.5,1.9-1.6,3.1-.3,4.3-1.2.6.2,3-1,3.6l.6.6-.5.6c0,.6-1.1,1.3.1,1.8-.6.1-.6.7-.5,1.3a1.923,1.923,0,0,1-2.4.7,32.742,32.742,0,0,1-8.7,5.4c-2.3.7-4,2.6-5.8,2.1-.1-.6.5-.6.5-1.2-.6.6-.7-.6-1.3-.5a2.666,2.666,0,0,1,1.4-.7h-.2l-.6-.6c-.1-.6.4-2.4,1-2.4-.1-1.8,1-3.7-.3-5.4a.6.6,0,0,0,.5-.7l-.6-.5,1.1-1.3a.588.588,0,0,1-.6-.6c-.1-.6.5-1.2,1.1-1.8h-.6c-.1-.6.5-1.8,1-3.1l-.1-1.2s.5-1.2,1.1-1.2a6.47,6.47,0,0,0-5.5-2.7c-3.5,2.6-7.6,3.5-11.7,6.2-1.7,1.3-2.5-1.1-3.7-1.6l1.2-.7-1.3-.5.6-.6-.6-.6,1.1-1.3-1.3-1.1c-2.4-.5-2.8,2.6-4,2.7-.5,2.4-.9,4.8.9,5.3-.6.6-.6.6-1.2.7,1.3,1.1-.4,2.4,1.4,2.3-.6.6-1.1,1.3-.5,1.2,1.8.5-1.1,1.9.7,2.4l-1.1,1.3,1.2-.1c.7,1.2-.4,3.6.9,4.1-2.4,1.4,1.3,1.8-.5,3.1,1.3,1.1.8,1.7.2,3,1.3.5.8,2.3.3,3.6a1.661,1.661,0,0,1,1.2.5v.6c-1.6,2.4,1.7,2.3,3,3.3l-1-1c1.1-.7,1.8.5,1.8-.1l-.7-.6c0-.6,1.2-.7,1.2-1.3a10.869,10.869,0,0,1-1.8.1c-.7-1.1,1.1-.6,1-1.8l-.6-.6c0-.6.6-.6,1.1-1.3l-1.2.1,1.2-1.3c-.6.1-1.2.7-1.2.1l-.1-.6h.6c.6-.1.6-.1.6-.7l-.6.1c-.1-.6.5-.7.5-1.3l-1.2-.5-.1-.6.6-.6V-31l.5-.7c0-.6-.6.1-1.2-.5l.5-.6-.6-.6c0-.6.6,0,1.2-.1-.6-.5-.1-1.7-1.3-2.3h.6l-.1-.6c-.6-.6-1.3-1.1-.1-1.8,0-.6.5-2.4-.7-1.8-.1-1.2,1.2-.6,1.8-.7l-.1-.6h.6v-.6c-1.2.1-.2-1-.6-1.2.5.1.5.6,1.1,0a8.284,8.284,0,0,0,3.5-1.5c2.4-.1,4.1-2,6.5-2.8.9,1.5.4,2.3.7,3a.487.487,0,0,1-.5.6c0,.6-1.1,1.3.1,1.2a.588.588,0,0,1-.6.6c-.6.7.1,1.2.1,2.4-1.1,1.3-1.5,4.9-1.9,7.4l1.3,1.1a4.868,4.868,0,0,0-1.2.1c2,3.5-2.7,5.6-.7,9,1-3,3.1,1,4.2-1.4.6-.1,1.7-.7,1.8-.1-.6,1.2-1.8.7-3,1.3.6,0,1.9.5,2.4-.1,3.6-.8,6.4-3.4,9.9-4.8-.1-2.4,3-1.4,4.1-3.3a.716.716,0,0,1-.7-.6c1.8-.1.5-1.3,2.9-1.4v-.5l.5-1.3a.489.489,0,0,1-.6-.5c.6-.1,1.7-.7,2.4-.2L387-33l1.2.6-1.1,1.2h.6c0,.6,0,.6-.6.6.7,1.2.2,2.4.9,3.6a15.147,15.147,0,0,0-.7,9c.1.6.1.6-.5.7v.6c.1,1.2.8,2.9.3,4.2l.6-.1c.6,1.2.1,2.4.2,3,0,.6,1.2.5.6,1.2h-.6a3.443,3.443,0,0,0,2.5,1.1l-.6.6,3-.2L391-7.4c0-.6.6-.6,1.2-.6,1.7-1.4-.8-2.4-.9-3.6a2.454,2.454,0,0,1,1.2-.7l-.6-.5,1.1-.7-1.2-1.1c.5-.1,1-.6,1.5-.7-.3,0-1-.1-1-.6.5-.6,1.1-1.8.4-2.4h-.6c-1.2-1.1,1.1-1.2,1.7-1.9a1.179,1.179,0,0,1-1.3-1.1l.6-.6h-1.2c.5-1.2,1.1-1.8,1.7-1.9l-1.3-1.1,1.2-.7-.6.1c-.6,0-.1-.6-.1-1.2.6-.1.6-.7,1.2-.7l-1.9-.5,1.3-1.6c.6-.6.9-1.5,1.5-2.2.6.6,0,.6.1,1.2.6,0,2.4.5,2.3-.7,0,0-.5-.5-1.1.2l-.7-.7c.6-.6,1.8-.1,1.1-1.3l1.4.6-.1.5c1.2,0,.6,0,.5-1.2,3,.4,4.1-1.4,5.8-3.4,2.4-.1,3.6-.8,5.2-2.7l-.9-.9.2-.8c.7.5.7,1.1,1.3.5a.716.716,0,0,0-.7-.6c1.2-.7,1.7-1.9,3-1.4-.7-.5-.1-.6-.7-.5v-.6c.6-.1,0,0-.1-.6-6.5,1-11.7,4.3-16.9,7.6-.6-.5-.5,1.3-1.2.1,0-.6,1.2-.7,1.1-1.3,0-.6.5-2.4-1.3-2.3l.5-.6a2.634,2.634,0,0,0,.5-1.8c1.1-1.3.5-2.5,1-3.1h-.6c-.6-.5-.6-.5-.6-1.1a.6.6,0,0,0,.5-.7,2.113,2.113,0,0,0,.5-1.8c-.6.6-.6,0-.6,0l.6-.6c-.7-1.2.4-2.4-1.4-2.3,0-.6.6-.7,1.2-.7C394.1-53.3,394.1-53.3,394.1-53.9ZM423-29c1.2-.6,1.8,1.2,3,0,0-1.2,1.8.6,2.4-.6,1.8,0,3-.6,4.8.6.6,1.2,0,2.4-.6,3.6a.588.588,0,0,1,.6.6c-1.2.6-1.2,3-1.8,3.6,0,1.2-1.8,2.4-1.2,4.2-2.4,2.4-2.4,6.6-4.2,8.4a25.986,25.986,0,0,1-.6,3c-.6.6-.6.6-.6,1.2,1.2,0,2.4,0,3-.6h.6c0,.6-.6.6-.6,1.2,0,0,1.2,0,1.2.6,3-1.8,6.6-1.2,8.4-4.2,1.3-.4,1,.4.8.9.7-.9,2.2-1,2.8-2.1,3,0,1.8-.6,4.2-1.2l-.6-.6c.6-.6,2.4,0,3-1.2,2.4.6,1.8-2.4,4.2-2.4l-.6-.6c0-.6.6-.6,1.2-.6l-.6-.6c-6.6,3-13.2,6-19.8,7.8-.6-.6-.6-1.2-1.2-1.8,0-.6.6-.6,1.2-.6-.6-.6-1.2,0-1.2-.6,1.1,0,.6-2.2,1.6-2.4H432l1.2-1.2-.6-.6,1.2-1.2V-17l1.2-1.2h-.6c0-1.2,0-3,1.2-3.6.6-1.2,0-2.4-1.2-2.4l2.4-1.2V-26a2.09,2.09,0,0,1,.6-3l-.6-.6h.6V-32c-1.2-2.4-3.6,0-6-1.2a15.435,15.435,0,0,1-9,.6c.6,0,.6-.6,1.2-.6,0,0,1.2,0,.6-1.2,1.8-.6,1.2-3,3.6-3.6l-.6-.6c.6-.6,3-1.2,1.8-3l.6-.6c0-1.2,1.2-.6,1.2-1.8a.588.588,0,0,0-.6-.6l1-.2c0-.6.2-.4.2-1l1.2-.6H432l1.2-1.2c-1.2,0-1.7-.6-2.9-.6,1.2-.6,2.3-.6,3.5-1.2h-1.2c.6-.6,1.2-1.8,1.8-2.4h-.6l.7-.9c-.6,0-.7-.3-.7-.3v-.6c-1.8-1.8-6-1.2-8.4,0-3.6,0-7.8-.6-10.8,1.2,0,1.2.6,1.2,1.2,1.2l-1.2.6c0,.6-1.2,1.8.6,2.4,4.8-1.2,8.4-.6,12.6-2.4,0,.6,1.8.6,1.8,1.8,1.8,1.8-1.8,3-1.8,4.8-3.6,4.8-7.2,9.6-8.4,15l.6.6c.6-1.2,1.8.6,2.4,0Zm54.1-22.3c-1.8-.6-3.6-3-5.4-1.8-.6,1.2,0,1.2.6,1.8,0,1.2.6,2.4-.6,2.4l.6.6c0,.6-.6,1.2-1.2,1.8,1.8,0,0,1.8,1.2,2.4a4.968,4.968,0,0,1-1.2,2.4c.6-.5,1.8,0,2.4,0-1.2.6-1.8,1.8-3,1.2-1.8-1.2-3,.6-4.2.6l-16.2,7.2c-1.8.6-4.2,0-4.2,1.2a.588.588,0,0,0,.6.6c.6,1.2,3,1.8,3.6,3h1.2l-1.2-.6c-.6-.6.6-1.2,1.2-1.8v.6c0,.6,1.2.6,1.2,1.2.6-2.4,5.4-1.2,6.6-1.8l-.6-1.2c1.2-.6,1.8-2.4,3-1.8v.6l.6-.6c.6-1.2,1.2,0,1.8,0-.6-1.2,1.2-.6,1.2-1.2,1.8.6,3.6-.6,4.8-1.2-.6-.6-1.8.6-2.4.6,0-2.4-2.4.6-3.6,0,.6-.6.6-.6.6-1.8,1.2,1.2,2.4,0,3,0,0-1.2,1.8-1.2,1.8-1.8v-.6c.6-.6,1.2,0,1.8.6-1.2.6-1.2,1.2-2.4,1.2.6.6,2.9.1,3,1.7a6.192,6.192,0,0,1,.1,2c1,.6-.7,1.1.5,1.7-.6,0-1.2,1.2-1.2,1.8,1.1,0,.1,1.1,1,1.2-.4.1-.4.6-.4.6,1.2,0,2.4,1.2,3.6.6l-.6-1.2c.6,0,1.2-.6,1.8-1.2.6-1.2-.6-1.8-1.2-2.4,1.2-.6,1.8,0,1.2-1.2,1.8-1.2,0-1.2,0-2.4a.588.588,0,0,1,.6-.6c.6-1.8,1.2-3,0-4.2a1.125,1.125,0,0,0,0-1.8c.6-.6,0-1.2.6-1.8v-.6c.6-.6-1.2-2.4.6-2.4-.6-3.6-2.4-1.2-4.2-3C474.7-50.7,476.5-50.1,477.1-51.3ZM463.2-21.8a2.2,2.2,0,0,0-.6-1.8c-.6-.6-1.8.6-3,0-1.2,0-1.2,1.8-1.8,3-1.2,1.8,1.2,1.2,1.8,1.8-.6.6-1,.4-1.6.4,0,1.2-.2,1.4-.2,2-.6,1.2-.6,2.4.6,3l-.6.6c.6,1.2-1.2,3,1.2,4.2l-1.2.6a2.638,2.638,0,0,1,.6,3c1.2,0,4.8-1.2,6.6,1.2l2.2-1.1c-.4.2-1,.4-1-.1.6,0,1.2-.6,1.8,0,1.2.6,1.2.6,1.8,0,1.2.6,2.4-1.2,3.6-.6v-.6l1.3-.7c1.4-1,2.2-1.2,5.1-2.5l-.6-.6c.6-.6.6,0,1.2,0,0-1.2,1.8-1.2,2.4-1.8l-3.1.3-3,1c-4.8,1.2-6.6,3.8-11.7,1.9-.6-1.2-2.4-1.8-1.8-3,0-1.2-.6-1.8-.6-2.4h.6c0-1.8-.6,0-1.2-.6,0-.6,0-1.2.6-1.2l.2-.5-.4-.6.8-.7c0-1.2-.6-1.2-.6-1.2.6-1.8-1.2-1.2-1.8-1.8.6-.6.3-.9.9-.9S462.6-21.8,463.2-21.8Zm3.1-26.5c-.6,0,0-1.8-1.2-1.2-1.2-1.2-3,0-4.8,0a117.89,117.89,0,0,0-15,7.8l.6,1.2c3-.6.6,2.4,3.6,1.8,1.2-1.2,3-.6,4.2-3,3,2.4,3-2.4,6-1.2l1.2-1.2a2.131,2.131,0,0,1,1.8-1.2l-.6-.6.6-.2.6.2c1.3.4,1.8-.6,2.4-1.2a3.607,3.607,0,0,0-2.4.6C462.1-48.3,465.7-47.1,466.3-48.3Zm9,22.2c0-1.2-2.4,0-2.4-1.2-.6-.6-1.2.6-1.2.6a.588.588,0,0,0,.6.6c.5-.5.7.6,1.2.7-.6,0-1.3-.1-1.8-.1l.6,1.2a3.117,3.117,0,0,0,2.4-1.2h-.6l.6-.6ZM472.8-24l-.5.3v1.2c1.2.6,1.2-.6,1.2-1.2Z" transform="translate(483.7 79.1)" fill="#fff"/></svg>