<svg xmlns="http://www.w3.org/2000/svg" xmlns:xlink="http://www.w3.org/1999/xlink" width="82" height="41.717" viewBox="0 0 82 41.717">
  <defs>
    <clipPath id="clip-path">
      <rect id="사각형_1225" data-name="사각형 1225" width="82" height="41.717" transform="translate(0 0)" fill="none"/>
    </clipPath>
  </defs>
  <g id="그룹_4532" data-name="그룹 4532" transform="translate(0 0)">
    <path id="패스_496" data-name="패스 496" d="M28.116,4.82,27.5,5.881H13.552V4.82Zm4.328-2.5H11.052V8.381h17.9Z" fill="#222"/>
    <path id="선_129" data-name="선 129" d="M1.25,3.785h-2.5V0h2.5Z" transform="translate(63.297 6.862)" fill="#222"/>
    <path id="선_130" data-name="선 130" d="M1.25,3.785h-2.5V0h2.5Z" transform="translate(13.384 21.836)" fill="#222"/>
    <path id="선_131" data-name="선 131" d="M1.25,3.785h-2.5V0h2.5Z" transform="translate(68.289 6.862)" fill="#222"/>
    <path id="패스_497" data-name="패스 497" d="M4.447,21.836,7.92,20.15H18.357l.749-1.02,5.012-6.824H76.533L79.5,18.24V33.689H17.711Zm18.4-12.03L17.091,17.65H7.346L0,21.215,16.756,36.189H82V17.65L78.079,9.806Z" fill="#222"/>
    <path id="선_132" data-name="선 132" d="M1.25,8.048h-2.5V0h2.5Z" transform="translate(56.546 10.308)" fill="#222"/>
    <g id="그룹_4529" data-name="그룹 4529">
      <g id="그룹_4528" data-name="그룹 4528" clip-path="url(#clip-path)">
        <path id="패스_498" data-name="패스 498" d="M27.8,11.175l-2.129-1.31L31.745,0H50.806V10.52h-2.5V2.5H33.142Z" fill="#222"/>
      </g>
    </g>
    <path id="선_133" data-name="선 133" d="M8.557,1.25H0v-2.5H8.557Z" transform="translate(36.009 6.862)" fill="#222"/>
    <path id="패스_499" data-name="패스 499" d="M74.986,19.61H73.694L18,19.606v-2.5l54.474,0-.03-6.8,2.5-.011Z" fill="#222"/>
    <path id="선_134" data-name="선 134" d="M1.25,7.634h-2.5V0h2.5Z" transform="translate(17.851 18.356)" fill="#222"/>
    <g id="그룹_4531" data-name="그룹 4531">
      <g id="그룹_4530" data-name="그룹 4530" clip-path="url(#clip-path)">
        <path id="패스_500" data-name="패스 500" d="M28.165,32.98a7.487,7.487,0,1,1-7.487-7.487,7.487,7.487,0,0,1,7.487,7.487" fill="#fff"/>
        <path id="타원_63" data-name="타원 63" d="M7.487-1.25A8.737,8.737,0,1,1-1.25,7.487,8.747,8.747,0,0,1,7.487-1.25Zm0,14.974A6.237,6.237,0,1,0,1.25,7.487,6.244,6.244,0,0,0,7.487,13.724Z" transform="translate(13.191 25.493)" fill="#222"/>
        <path id="패스_501" data-name="패스 501" d="M23.174,32.98a2.5,2.5,0,1,1-2.5-2.5,2.5,2.5,0,0,1,2.5,2.5" fill="#fff"/>
        <path id="패스_502" data-name="패스 502" d="M20.678,29.234a3.746,3.746,0,1,1-3.745,3.746A3.75,3.75,0,0,1,20.678,29.234Zm0,4.992a1.246,1.246,0,1,0-1.245-1.246A1.247,1.247,0,0,0,20.678,34.226Z" fill="#222"/>
        <path id="패스_503" data-name="패스 503" d="M43.139,32.98a7.487,7.487,0,1,1-7.487-7.487,7.487,7.487,0,0,1,7.487,7.487" fill="#fff"/>
        <path id="타원_64" data-name="타원 64" d="M7.487-1.25A8.737,8.737,0,1,1-1.25,7.487,8.747,8.747,0,0,1,7.487-1.25Zm0,14.974A6.237,6.237,0,1,0,1.25,7.487,6.244,6.244,0,0,0,7.487,13.724Z" transform="translate(28.165 25.493)" fill="#222"/>
        <path id="패스_504" data-name="패스 504" d="M38.148,32.98a2.5,2.5,0,1,1-2.5-2.5,2.5,2.5,0,0,1,2.5,2.5" fill="#fff"/>
        <path id="패스_505" data-name="패스 505" d="M35.652,29.234a3.746,3.746,0,1,1-3.745,3.746A3.75,3.75,0,0,1,35.652,29.234Zm0,4.992a1.246,1.246,0,1,0-1.245-1.246A1.247,1.247,0,0,0,35.652,34.226Z" fill="#222"/>
        <path id="패스_506" data-name="패스 506" d="M75.939,32.98a7.487,7.487,0,1,1-7.487-7.487,7.487,7.487,0,0,1,7.487,7.487" fill="#fff"/>
        <path id="타원_65" data-name="타원 65" d="M7.487-1.25A8.737,8.737,0,1,1-1.25,7.487,8.747,8.747,0,0,1,7.487-1.25Zm0,14.974A6.237,6.237,0,1,0,1.25,7.487,6.244,6.244,0,0,0,7.487,13.724Z" transform="translate(60.965 25.493)" fill="#222"/>
        <path id="패스_507" data-name="패스 507" d="M70.948,32.98a2.5,2.5,0,1,1-2.5-2.5,2.5,2.5,0,0,1,2.5,2.5" fill="#fff"/>
        <path id="패스_508" data-name="패스 508" d="M68.452,29.234a3.746,3.746,0,1,1-3.745,3.746A3.75,3.75,0,0,1,68.452,29.234Zm0,4.992a1.246,1.246,0,1,0-1.245-1.246A1.247,1.247,0,0,0,68.452,34.226Z" fill="#222"/>
        <path id="패스_509" data-name="패스 509" d="M60.965,32.98a7.487,7.487,0,1,1-7.487-7.487,7.487,7.487,0,0,1,7.487,7.487" fill="#fff"/>
        <path id="타원_66" data-name="타원 66" d="M7.487-1.25A8.737,8.737,0,1,1-1.25,7.487,8.747,8.747,0,0,1,7.487-1.25Zm0,14.974A6.237,6.237,0,1,0,1.25,7.487,6.244,6.244,0,0,0,7.487,13.724Z" transform="translate(45.991 25.493)" fill="#222"/>
        <path id="패스_510" data-name="패스 510" d="M55.974,32.98a2.5,2.5,0,1,1-2.5-2.5,2.5,2.5,0,0,1,2.5,2.5" fill="#fff"/>
        <path id="패스_511" data-name="패스 511" d="M53.478,29.234a3.746,3.746,0,1,1-3.745,3.746A3.75,3.75,0,0,1,53.478,29.234Zm0,4.992a1.246,1.246,0,1,0-1.245-1.246A1.247,1.247,0,0,0,53.478,34.226Z" fill="#222"/>
      </g>
    </g>
  </g>
</svg>
