<svg id="그룹_4527" data-name="그룹 4527" xmlns="http://www.w3.org/2000/svg" xmlns:xlink="http://www.w3.org/1999/xlink" width="115" height="58" viewBox="0 0 115 58">
  <defs>
    <clipPath id="clip-path">
      <rect id="사각형_1223" data-name="사각형 1223" width="115" height="58" fill="none"/>
    </clipPath>
  </defs>
  <path id="패스_484" data-name="패스 484" d="M40.307,6,38.866,8.5H18.5V6ZM45.5,3h-30v8.5H40.6Z" fill="#222"/>
  <path id="선_123" data-name="선 123" d="M1.5,5.308h-3V0h3Z" transform="translate(88.771 9.37)" fill="#222"/>
  <path id="선_124" data-name="선 124" d="M1.5,5.308h-3V0h3Z" transform="translate(18.771 30.371)" fill="#222"/>
  <path id="선_125" data-name="선 125" d="M1.5,5.308h-3V0h3Z" transform="translate(95.771 9.37)" fill="#222"/>
  <path id="패스_485" data-name="패스 485" d="M5.336,30.245,10.992,27.5h14.5l.9-1.224,7.18-9.775h74.079L112,25.208V47.5H24.645ZM32.049,13.5l-8.08,11H10.3L0,29.5l23.5,21H115v-26l-5.5-11Z" fill="#222"/>
  <path id="선_126" data-name="선 126" d="M1.5,11.287h-3V0h3Z" transform="translate(79.303 14.203)" fill="#222"/>
  <g id="그룹_4524" data-name="그룹 4524">
    <g id="그룹_4523" data-name="그룹 4523" clip-path="url(#clip-path)">
      <path id="패스_486" data-name="패스 486" d="M38.777,15.286l-2.555-1.572L44.662,0H71V14.5H68V3H46.338Z" fill="#222"/>
    </g>
  </g>
  <path id="선_127" data-name="선 127" d="M12,1.5H0v-3H12Z" transform="translate(50.5 9.37)" fill="#222"/>
  <path id="패스_487" data-name="패스 487" d="M104.908,27h-1.556l-77.852,0v-3l76.394,0-.042-9.785,3-.013Z" fill="#222"/>
  <path id="선_128" data-name="선 128" d="M1.5,10.707h-3V0h3Z" transform="translate(25.035 25.49)" fill="#222"/>
  <g id="그룹_4526" data-name="그룹 4526">
    <g id="그룹_4525" data-name="그룹 4525" clip-path="url(#clip-path)">
      <path id="패스_488" data-name="패스 488" d="M39.5,46A10.5,10.5,0,1,1,29,35.5,10.5,10.5,0,0,1,39.5,46" fill="#fff"/>
      <path id="타원_55" data-name="타원 55" d="M10.5-1.5a12,12,0,0,1,12,12,12,12,0,0,1-12,12,12,12,0,0,1-12-12,12,12,0,0,1,12-12Zm0,21a9,9,0,1,0-9-9A9.01,9.01,0,0,0,10.5,19.5Z" transform="translate(18.5 35.5)" fill="#222"/>
      <path id="패스_489" data-name="패스 489" d="M32.5,46A3.5,3.5,0,1,1,29,42.5,3.5,3.5,0,0,1,32.5,46" fill="#fff"/>
      <path id="타원_56" data-name="타원 56" d="M3.5-1.5a5,5,0,1,1-5,5A5.006,5.006,0,0,1,3.5-1.5Zm0,7a2,2,0,1,0-2-2A2,2,0,0,0,3.5,5.5Z" transform="translate(25.5 42.5)" fill="#222"/>
      <path id="패스_490" data-name="패스 490" d="M60.5,46A10.5,10.5,0,1,1,50,35.5,10.5,10.5,0,0,1,60.5,46" fill="#fff"/>
      <path id="타원_57" data-name="타원 57" d="M10.5-1.5a12,12,0,0,1,12,12,12,12,0,0,1-12,12,12,12,0,0,1-12-12,12,12,0,0,1,12-12Zm0,21a9,9,0,1,0-9-9A9.01,9.01,0,0,0,10.5,19.5Z" transform="translate(39.5 35.5)" fill="#222"/>
      <path id="패스_491" data-name="패스 491" d="M53.5,46A3.5,3.5,0,1,1,50,42.5,3.5,3.5,0,0,1,53.5,46" fill="#fff"/>
      <path id="타원_58" data-name="타원 58" d="M3.5-1.5a5,5,0,1,1-5,5A5.006,5.006,0,0,1,3.5-1.5Zm0,7a2,2,0,1,0-2-2A2,2,0,0,0,3.5,5.5Z" transform="translate(46.5 42.5)" fill="#222"/>
      <path id="패스_492" data-name="패스 492" d="M106.5,46A10.5,10.5,0,1,1,96,35.5,10.5,10.5,0,0,1,106.5,46" fill="#fff"/>
      <path id="타원_59" data-name="타원 59" d="M10.5-1.5a12,12,0,0,1,12,12,12,12,0,0,1-12,12,12,12,0,0,1-12-12,12,12,0,0,1,12-12Zm0,21a9,9,0,1,0-9-9A9.01,9.01,0,0,0,10.5,19.5Z" transform="translate(85.5 35.5)" fill="#222"/>
      <path id="패스_493" data-name="패스 493" d="M99.5,46A3.5,3.5,0,1,1,96,42.5,3.5,3.5,0,0,1,99.5,46" fill="#fff"/>
      <path id="타원_60" data-name="타원 60" d="M3.5-1.5a5,5,0,1,1-5,5A5.006,5.006,0,0,1,3.5-1.5Zm0,7a2,2,0,1,0-2-2A2,2,0,0,0,3.5,5.5Z" transform="translate(92.5 42.5)" fill="#222"/>
      <path id="패스_494" data-name="패스 494" d="M85.5,46A10.5,10.5,0,1,1,75,35.5,10.5,10.5,0,0,1,85.5,46" fill="#fff"/>
      <path id="타원_61" data-name="타원 61" d="M10.5-1.5a12,12,0,0,1,12,12,12,12,0,0,1-12,12,12,12,0,0,1-12-12,12,12,0,0,1,12-12Zm0,21a9,9,0,1,0-9-9A9.01,9.01,0,0,0,10.5,19.5Z" transform="translate(64.5 35.5)" fill="#222"/>
      <path id="패스_495" data-name="패스 495" d="M78.5,46A3.5,3.5,0,1,1,75,42.5,3.5,3.5,0,0,1,78.5,46" fill="#fff"/>
      <path id="타원_62" data-name="타원 62" d="M3.5-1.5a5,5,0,1,1-5,5A5.006,5.006,0,0,1,3.5-1.5Zm0,7a2,2,0,1,0-2-2A2,2,0,0,0,3.5,5.5Z" transform="translate(71.5 42.5)" fill="#222"/>
    </g>
  </g>
</svg>
