<svg xmlns="http://www.w3.org/2000/svg" width="602.812" height="133.447" viewBox="0 0 602.812 133.447"><path d="M100.08-100.98c-.9-4.14-.18-7.74-3.06-12.24-1.08-1.8-7.38-2.16-10.26,1.44-.54,9.72-1.26,17.46-2.34,26.1a34.953,34.953,0,0,0-4.32-.36c-9.36,1.08-14.04,2.16-22.86,2.88l1.08-3.06c-1.08-.18-2.34-.54-1.98-2.16.54-1.26,2.88-.9,3.24-2.7.36-1.62.72-2.7-1.08-4.5,1.26.18,1.98-1.8,2.7-1.8-1.62-1.8.36-4.86-1.44-6.84l.54-.72.72-.72c.72-1.62.18-3.42.54-5.22.36-4.86-6.66-7.56-10.08-6.66-1.08,3.24-3.96,6.3-1.26,9,0,0-.54,1.44-1.44.54-1.44,1.8.9,5.94-2.52,6.3l.54,2.34-.54,1.44c-.72,3.24-1.8,6.12-.72,6.66-1.44.9-.9,3.06-2.34,4.32a34.954,34.954,0,0,1-.36,4.32H41.76l-28.08,6.3c-3.24,1.62,1.98,8.64-2.52,10.62,2.7.9,5.4.18,7.92,1.08,4.32-1.44,7.74-3.6,12.78-1.98,2.52-3.24,5.4-.72,7.92-.54a36.757,36.757,0,0,0-1.8,7.38c-1.8,3.42.36,7.02-2.88,11.34-1.08,3.42-2.88,4.5-1.62,8.28-.9.54-1.26,1.8-1.62,3.42-5.94,1.08-12.24,2.52-21.24,4.5-1.08.9-3.06.54-3.78,3.78.72,1.62,3.78,6.84,6.48,4.14,1.62,5.22,3.96-.18,5.76,2.16,2.7-2.34,4.5,1.62,7.38-.9a18.17,18.17,0,0,1,3.78-1.26h.18l-2.52.9,1.44,4.14-1.62.9c-.36,1.98-1.08,5.04-.72,6.84-.72-.36-.72,3.42-1.44,3.42l.72.36c-.54,1.26-.9,2.7-1.8,2.52.9.54.54,1.98,1.62,2.16l-1.62,1.8,2.7,1.8c-.54,1.98-1.44,1.8-1.44,1.8.54,1.44-.18,2.52,2.52,2.34a3.753,3.753,0,0,0-1.62-2.16c3.06-2.7,4.32,3.96,7.02.72,1.62-1.26,5.94-.36,5.4-2.52L39.42-.9c-.18-3.6,2.88-6.12,1.08-8.64l1.8-1.44a2.577,2.577,0,0,1-1.98-1.8l2.7-1.44-.72-1.44,1.62-1.62-.72-1.8,1.26.36c-.9-2.16-.54-3.42-1.44-3.6,1.44-1.62,2.7-1.44,2.7-1.44l-.36-2.34c8.1-1.62,13.68-2.34,21.24-5.94,3.42,1.08,4.86.9,8.64-1.26a7.383,7.383,0,0,0,1.98-.18,10.472,10.472,0,0,0,.72,5.76c-2.88,3.24,1.26,5.94-2.34,7.56l.9,1.44-.36,2.16,1.26.18c-1.8,3.42.9,8.82-1.8,12.6,2.16.18-.9,5.58.36,5.76,1.44,4.5,9.18,6.48,11.52,6.84-1.26-1.8-2.34-.36-2.34-1.98.36-1.98.36-1.98,2.34.36l.36-1.98c-1.26-.36-.9-1.98-.9-1.98-.72-4.14,2.16-5.76,3.42-5.4-3.42-2.16.72-5.58-.36-7.56.9-5.58-2.88-3.78-3.78-5.94,2.52-1.8,5.76,1.08,5.4-4.86l-2.34-.36c-.54-3.78,0-7.74,3.78-9.18-.9-1.8-3.42-2.16-3.06-3.96a1.393,1.393,0,0,1,.18-.54,89.634,89.634,0,0,0,11.16-2.52c5.58,1.98,9.54,0,15.48.54,2.34.54,5.94-.9,9-1.98-.36-.36-1.62-3.06-1.98-3.42-5.04-3.96-8.82-2.88-14.22-4.5-3.24-1.44-7.92-3.24-9.72,1.26a3.734,3.734,0,0,0-3.24-2.34,5.028,5.028,0,0,1-3.06.9c0-2.7.18-5.76,1.08-5.58l1.26-7.92c-3.06-2.52,1.98-3.78,0-7.92a3.369,3.369,0,0,0,.9-2.52H98.1l-1.08-1.62c7.2,2.34,10.08-3.06,17.28-.54,2.16,1.98,6.3-2.16,9,1.26,1.62-.54,3.24-5.94,2.7-7.56-6.12-6.48-16.92-5.58-25.92-6.66a24.848,24.848,0,0,1-3.6.54c0-2.7,4.5-6.66,1.08-8.64l.36-1.8C102.06-99,98.28-97.74,100.08-100.98ZM54.36-63.72a8.9,8.9,0,0,1,.54-5.76,5.478,5.478,0,0,1,3.78.18c4.5-1.98,6.12-1.08,11.34-.9,1.08,0,3.24-2.16,4.14-.54a33.287,33.287,0,0,1,8.64-.54c.72,3.96-1.62,5.58,0,9.54l-1.62,1.8.9,2.16c-1.62,3.24-.9,5.58-2.88,9.18a4.345,4.345,0,0,1,.54,2.88c-5.76,1.26-8.28,3.24-14.04,2.7-4.32,2.16-7.2-.9-10.44,2.88-4.5.54-5.76,1.08-9.18,1.62.72-2.88,1.62-2.88,3.06-3.96l-.9-3.78,1.44-1.62c.18-1.26-1.26-3.42,1.08-2.88-.54-1.98,1.26-5.4.18-5.4l1.44-1.26c.54-1.62,1.26-3.24,0-3.6C54-62.46,53.1-63.9,54.36-63.72Zm126.72-43.56a6.379,6.379,0,0,0-3.96-1.8c-9.18,3.24-21.06,5.4-28.44,9.54a17.421,17.421,0,0,0-4.32,1.44c1.26-1.98,3.96-4.14,3.42-6.84l1.08-.18c2.52-5.04,2.88-10.44,7.92-13.86,1.26-8.1-9.72-2.34-13.68-1.62-.18,3.24-8.28,11.34-5.58,15.66-3.24,1.44-2.88,4.86-5.22,7.92-.18,1.44-1.08,2.16-1.8,3.96a21.055,21.055,0,0,0-2.16,3.6l-1.62,1.08c2.16.72,7.2,4.68,9.18,3.42l3.06-1.26c2.52-2.34,7.02-3.06,9.9-5.4,3.06-.36,2.88-1.8,5.94-2.16,1.08-1.08,2.52-1.08,4.68-1.98,1.08,0,2.88-.72,3.06,1.26l-.72,1.26a1.289,1.289,0,0,1-1.26-1.08c-1.98,2.52-2.7,3.6-3.42,5.94-.9,1.08-2.88,3.24-.54,4.14l-1.08.18c-1.98,1.26-2.7,3.42-1.8,4.32-5.58,3.78-4.14,8.1-7.92,12.78a8.763,8.763,0,0,1,2.16-.18v-.9c1.08.72,1.98-.36,1.98.54-1.44,4.32-6.12-.36-5.76,4.86l1.08-.18c2.7,4.14-2.34,5.58-2.88,9.9l1.08-.18c1.08.9.18,1.08.36,3.24,1.8-1.26,1.98.9,1.98.9,1.98,0,4.86,3.78,8.46,1.8-.18-.9,2.34-4.32,0-5.22a12.917,12.917,0,0,1,1.98-2.16c-.36-2.16,1.8-3.42.54-4.32,2.88-1.44-.36-3.24,1.8-3.42,1.8-1.26,2.16-2.52,3.06-4.68,1.62-1.44.9.72,3.06-.36-.9,1.98,5.04,2.7,1.98,4.14,2.16-.18,4.32,1.44,5.58,2.52,0,0,0,1.08-1.08,0,.18,2.16,3.6,2.88,3.78,4.86.18,1.08,2.16.9,2.16,1.98,1.26.9,3.42,2.7,5.58,2.34h1.08l-.9,1.08c3.06.72,2.7-2.34,5.04-.54,1.26.9,7.38-.72,7.2-1.8l-.72-1.08c-5.4-1.44-6.84-7.74-11.34-10.44-3.78-3.78-7.92-7.92-12.42-10.44-1.26-1.08-3.24-2.16-4.14-1.08l-1.26-.9c-.18-1.08,1.08-.18.9-1.26,1.08-1.08,1.98-2.16.9-1.98l1.98-1.44c-2.52-2.88.54-3.06,1.44-5.22l.9-1.26c-1.26-2.88,2.88-2.34.72-4.14.9-1.26,1.8-1.26,2.7-2.34.72-3.42,2.34-6.48,4.32-7.74C178.74-104.04,181.26-104.4,181.08-107.28Zm25.74,62.82c-7.38-.72-15.84,1.8-23.58,3.24-11.16,1.98-21.42,6.48-31.32,8.82-6.84,3.6-18.36,3.96-21.42,12.42,1.44,2.34,7.02,3.96,8.1,4.14l-1.08-1.26c2.34-.9,4.14,2.52,6.48,1.62-4.5-1.08,2.7-1.98,4.32-1.8l9-2.34c1.08-.9,2.34-1.98,2.52-3.06l.9,1.08c2.34-1.8,3.78-1.44,5.94-2.52,3.24.36,5.58-1.62,6.66-1.44l2.16,1.26c-1.26.9-1.26,1.98-2.34,1.98.9,1.08-2.34.9-1.44,3.06,1.08,2.34-.36,5.4-.9,7.56a3.345,3.345,0,0,0,1.08,2.16c-3.42.9-.36,3.24-.54,5.4,1.08,1.26-.18,2.16-1.44,3.24,4.14,2.52,2.7,6.84,7.74,9.54,1.08,0,5.94-1.08,6.12-2.16l1.08.18-2.88-4.5c1.26-2.16-1.62-4.68.54-5.4-.9-1.26-.9-2.34.18-3.24,1.26-1.08-.9-1.26-.72-2.16,1.08,0,0-1.08,0-2.16a5.017,5.017,0,0,0,1.62-3.24h-1.08l2.34-2.16h-1.08c2.34-3.06-1.44-7.74,2.88-8.46-2.34-6.66,3.42-1.44,5.94-5.4,3.06,1.26,4.5-.9,6.66-1.8l-1.08-1.08c1.26-1.08,3.42-.9,4.5-.72,1.26-1.8,5.4-.36,6.66-2.52l-2.16-.18,3.6-2.16-1.98-4.5ZM157.5-21.78c-1.26.9-3.42.9-5.58,1.8C153.18-21.96,156.42-21.96,157.5-21.78Zm70.56-48.78c-1.44-7.92-4.32-9.54-7.56-12.96-.9,0-6.84-3.06-7.2,2.34l1.26,4.14-.9,2.16,1.08,1.8h-1.08c-.54,6.66.54,12.96.9,19.26l-1.44,1.44.9,1.62c.18,4.32-.54,12.6-.18,18.9-.9,2.16-.72,6.12,1.44,7.74-1.08,2.52-1.08,2.52-1.98,2.52a12.672,12.672,0,0,0,2.34,7.74,8.48,8.48,0,0,0-3.06.72c.18,3.96,1.08,3.96,2.16,3.42.18,3.96-1.8,2.34-1.8,4.5.36,4.14,3.6,3.24,3.6,5.4,1.98-.36,5.58-3.96,6.48-6.3,2.16,3.6,1.98-4.5,3.06-2.7l.72-4.32c-1.08-1.62-1.98-3.78-3.06-3.24.9-4.5,2.7-5.04,3.78-5.04a9.456,9.456,0,0,0-1.08-4.14c-.18-1.8.72-3.96,1.8-4.14-.18-1.8-2.16-1.44-2.16-3.6.72-2.52,1.98-2.52,1.8-4.32h-1.26c2.16-2.34.9-4.14.9-6.3h-1.08c.9-2.16.9-3.96,1.98-4.5-2.34-5.4-.36-5.94-1.08-13.86C226.8-66.42,226.08-70.2,228.06-70.56Zm51.48-20.7c-4.32-1.08-6.84-6.12-11.16-7.2-2.16-1.08-7.92-1.98-8.82.72,0,1.08-2.7,4.86-.54,5.94,2.16-1.08,3.42,2.16,6.66,1.08,2.16,2.16-.18,3.78-.18,4.86,1.08,2.16-1.08,5.4,0,7.56-3.24,4.32-1.98,8.1-7.56,12.06-1.08,0-2.16,1.44-3.24.36l1.08-1.08c-1.08-1.08-2.16,0-2.16-1.08,2.16-1.08,0-3.78,1.08-3.78a3.771,3.771,0,0,1-2.16-1.08l3.24-3.24h-3.24c0-1.08,1.08-1.08,2.16-2.16,0,0,1.08-2.16-1.08-2.16,1.08-1.08,1.08-1.08,2.16-1.08,1.08-1.08,2.16,0,1.08-1.08,0-1.08,0,0-1.08,0L254.7-83.7c1.08-2.16,3.24-1.08,4.32-1.08,1.08-1.08,3.24-1.62,2.16-3.78-2.16-1.08-4.86-4.32-7.02-4.32-2.16,2.16-5.58,5.94-5.58,8.1-1.08,3.24-4.32,7.56-2.16,10.8a3.771,3.771,0,0,1-2.16,1.08c0,1.08,1.08,1.08,2.16,2.16l-2.16,3.24c1.08,2.16,2.34,6.12,4.5,7.2l-1.26.9,2.52.18c2.16,0-1.08,1.08,0,1.08l2.16,1.08v-1.08c3.24,1.08,6.48.54,8.64.54,2.16,1.08,4.68-.54,4.68-1.62l-1.08-2.16c1.08,1.08,3.24-1.08,4.32,0l.54-2.16c2.16-2.16,2.88-3.24,5.04-4.32l1.98-1.8h-3.24l1.08-1.08c1.08-2.16-1.08-1.08-2.16-2.16l1.08-1.08-1.08-1.08v-1.08l4.32,3.24c-1.08-2.16,1.08-1.08,3.24-2.16-4.32,0-1.08-4.32-3.24-5.4,1.08-1.08,3.24,0,4.32-1.08-1.08-1.08-2.16-1.08-2.16-3.24-3.24-1.08,1.08,0,1.08-2.16a1.058,1.058,0,0,1,1.08,1.08h1.08C282.78-88.02,279.54-89.1,279.54-91.26Zm18.54,43.38c-2.16,0-6.48-2.52-8.82-2.34-2.34,2.16-10.44,5.58-8.28,9.18-1.08-.18,0,2.88-2.16,4.32,1.44,1.26,2.34,1.98,1.62,4.68.54.9-1.62,1.26.9,2.16-.18,1.44-.18,2.34-.9,3.24,1.08,1.26-1.08,2.88.9,2.52-.9,1.26.36,3.6-1.8,3.78l1.08.72c0,2.16,2.16,5.22-.9,6.48,1.08,2.16.9,5.58.36,8.1a2.386,2.386,0,0,1,1.8,2.34c1.62,1.26,5.04-.36,5.04,1.8l-.72.18c1.26.9,5.4,1.08,5.4,1.08,1.44-1.26,3.78-1.08,3.78-3.42,0,0-1.08,1.08-1.08.18V-3.6l-.9-.54a4.895,4.895,0,0,1,2.88-4.5c-.9-2.52-2.16-2.34-3.06-3.6.72-.9,2.16,1.08,3.06,0-1.62-2.34-.72-8.28-.18-8.64,2.88-8.46,9.9-8.64,18-9.72,2.34,1.98-1.26,2.52-1.26,4.86-4.68,5.94-5.76,13.5-9.72,18.18,0,3.42-5.94,8.64-5.94,12.24,2.16-1.62,4.68-1.26,5.76,0,.36.9-.36,1.44-1.08,1.8,2.52-.54,4.14,1.26,7.02,1.26,3.78-1.62,11.52-.54,12.42-3.96C325.8,5.04,328.5,0,333,2.34c2.34-2.7,8.28-5.58,8.1-9.36-4.14-1.98-7.74-3.6-13.32-1.26a12.7,12.7,0,0,0-7.56,3.24c-1.26.18-2.34,0-3.6-1.62l1.26-1.08a1.584,1.584,0,0,0,1.26,1.26c-.18-1.08-1.26-1.26-1.26-2.16a3.691,3.691,0,0,1,2.34-1.26c1.08-.18,1.98-3.06,0-4.5l1.8-2.52c2.16,0-1.08-1.8,1.26-1.8.9-.36,2.16,0,.9-1.44,1.26-1.08,0-.54,0-1.8.72-2.34,3.06-1.8,3.78-5.58,2.88-2.16.36-7.2,3.6-9.72-.54-1.98,2.52-2.34,2.34-3.42-13.68-7.92-27,6.84-39.42.36l1.26-.18c-1.44-1.8,2.52-.9,2.16-2.52-1.26-.9-2.16-.54-3.42-1.44l2.16-.72-.72-1.08S297.9-46.44,298.08-47.88Zm29.7-57.42c-1.44-4.14-8.1-6.12-11.52-7.92-1.08,0-4.14.72-4.14,1.8l1.26,2.16-1.26,1.62,1.08,1.08h-1.08c-.72,3.42.54,6.48.9,9.72-1.98,2.34.36,6.12-1.62,7.38l1.08.9c.18,2.16-.54,6.66-.18,9.9-1.08,1.08-.9,3.24,1.44,4.14-1.08,1.26-1.08,1.26-2.16,1.26a5.722,5.722,0,0,0,2.52,4.14,19.834,19.834,0,0,0-3.24.36c.18,1.98,1.26,1.98,2.34,1.8.18,2.16-1.98,1.26-1.98,2.34.36,2.16,4.14,1.98,4.14,3.06,2.16-.18,6.12-2.34,7.02-3.6,2.34,1.98,1.98-2.34,3.24-1.26l.9-2.34c-1.26-.9-2.34-1.98-3.42-1.8a4.053,4.053,0,0,1,4.14-2.52c-.18-1.08-.18-1.08-1.26-2.16a2.317,2.317,0,0,1,1.98-2.34c-.18-.9-2.34-.72-2.34-1.8.9-1.26,1.98-1.26,1.8-2.34h-1.08c2.16-1.26.9-2.16.9-3.24h-1.08c.9-1.08.9-2.16,1.98-2.34-4.68-2.88,1.44-9.54-1.08-13.68C325.8-102.96,325.62-105.12,327.78-105.3Zm79.2,28.44a5.816,5.816,0,0,1-4.86-3.96c-2.34-1.62-9.54-.9-9.9,2.34,1.08.18,1.08.18,1.98,1.44a1.072,1.072,0,0,1-1.26.9c.9,1.26-.72,4.32,1.08,6.66l-1.08.9c.9,1.26.36,4.5.18,5.58-1.44,1.98,1.62,4.5-.54,5.4,3.06.36-.54,3.06.36,4.32-.36,2.16-1.62,3.06.18,5.58-3.06,6.12.72,9.9-.9,14.04,2.7,3.6-.9,7.02,1.8,10.8l-1.26.9c5.22,1.8-3.24,7.2,4.14,8.28l-1.26.9a4.957,4.957,0,0,0,.72,3.42c-.54,3.06,6.12,4.68,8.1,6.12,2.16.36,6.48,5.22,10.08,3.6-1.8-3.6,1.08-8.64-1.62-12.24l1.08-.9c-1.62-3.6-1.08-6.84-1.62-10.08-.9-2.34-2.88-2.7-2.7-4.86,1.08.18,1.26-.9,2.34-.72l-3.6-5.58,3.42-.72c-1.98-1.26-.9-2.16-1.8-3.42l-1.08-.18,1.8-4.14.18-1.08-1.8-2.34h1.08l-1.98-1.26c.18-2.16,2.16-.72,2.34-1.8-3.06-1.62.36-2.16-1.62-3.6,1.08.18,2.16.36,2.52-1.8-1.08-.18-.9-1.26-.72-2.34-1.26.9-3.24-.36-4.32-.54,1.26-.9,2.34-.72,4.5-1.62l-.9-2.16a1.072,1.072,0,0,1,1.26-.9l.18-1.08-1.08-.18c-1.08-.18-2.52,1.8-3.24-.54a3.823,3.823,0,0,1,2.34-.72l-.9-1.26c-1.62-3.6,3.6-1.62,1.8-5.22.72-4.14-3.96-1.62-4.86-3.96,1.98,1.44,3.78-2.7,5.94-2.34l-1.98-1.44Zm.72-4.32-4.32-.54-.18,1.08ZM468-115.2c-7.56-6.48-15.84,2.34-22.86,2.7a75.665,75.665,0,0,0-15.12,3.24c-2.7,1.8-8.82-3.24-7.92,5.4,6.48,4.32,11.16,2.7,18.36,1.08,4.68.36,8.82-3.6,13.14-.9-.36,2.34-2.52,2.16-3.96,4.32.72,3.6-4.14,4.14-3.24,7.74-3.96,4.32-3.78,5.4-5.4,11.16-.54,2.34-3.96,3.06-1.98,6.66-1.26-.18-1.44,1.08-2.52,1.08-1.62,3.24-1.98,8.28-3.6,11.7-1.44,3.24,2.16,3.42,3.06,4.68-1.08-.18-1.26,1.08-1.26,1.08l2.16,1.44,5.22-1.26,1.26-1.08c4.68-.54.36-3.24,1.62-5.4l3.78-.72a1.106,1.106,0,0,1-1.08-1.26l1.08-1.08c-.9-.36,1.62-4.86-1.8-3.96,2.52-2.16,3.78-3.78,6.3-4.68h-1.26c1.44-1.26,1.62-4.68,3.96-3.06l-.18,1.08c12.24-4.68,23.76,1.8,35.46,3.06l.72-5.76c-8.64-8.1-20.34-10.62-32.04-11.88,2.34-1.08-2.88-5.04,1.62-4.5l.18-1.26.18-1.08c.18-2.34,1.44-4.32,2.88-6.48,1.26-1.08,3.78-1.98,1.62-3.42,1.44-2.16,4.86-3.06,6.3-3.96Zm28.8,56.16-8.46-1.98c-10.08,3.24-22.86,5.4-32.94,8.64-6.66,1.44-12.96,3.06-18.54,4.68-1.08-.18-5.04,1.62-5.22,2.7-.18,2.16,3.42,6.66,5.58,6.84,4.14,1.62,7.74.72,12.24-.9v1.08c4.5-1.62,6.48-1.26,9.72-1.98,5.22,1.62-.72,7.38,2.16,9.9l-1.08,1.08c.72,2.16-2.7,3.96.36,5.4l-2.34,1.98h1.08c-.18,2.16.72,3.42-1.44,4.32l1.98,1.26-2.34.72c-.36,4.32,1.44,6.84,1.08,10.98l-1.26,1.08,1.08,1.08L457.2-1.08l.9,2.16c.72,2.34-2.52,3.06-.54,4.32,1.98,2.34,9.9,6.12,13.32,4.32-1.08-1.26-.9-2.34-1.98-2.34.18-1.08,2.34-.9,3.6-2.88-.9-1.26-3.42.72-3.06-1.44,1.08-1.08,2.16.18,3.24.36-3.24-1.44.36-4.32-1.62-5.58-.9-1.26,1.08,0,1.26-2.16h-1.08c.18-1.08.18-2.16,1.26-2.16l-1.8-2.34c.9-.72,1.8-.9,1.98-.18-.18-.72-.9-.9-.72-1.8l-1.08-.18,1.26-1.98c-.72-2.34,1.44-3.06-.54-4.5.18-1.08.18-2.16,1.26-1.98l.18-1.08c-.9-2.16.54-5.4-.36-7.56,2.52-1.98.54-4.32-.36-6.66l1.08.18a5.724,5.724,0,0,0-1.62-4.5h1.08v-1.08c-1.98-1.26,1.44-3.06,1.62-4.14,1.98,1.26,5.58-.54,7.74-.18,5.76-2.7,9.36-2.16,14.94-3.78-.9-2.34,2.34-.9,3.42-1.8-1.8-2.34-3.06-5.58-6.12-7.02Zm90,22.32c.9-.18,6.48-1.08,7.38-4.32,1.26-1.26,2.34-2.34,3.42-2.16-1.08-1.44-1.08-1.44-1.08-2.52.18-1.26-1.8-3.6,1.44-4.68l-1.08-1.26,1.08.18c.18-2.34.18-3.6-.72-5.04l1.08-.72a23.942,23.942,0,0,1,.54-5.4s0-3.06,1.08-3.06c-2.16-1.44-.72-4.68-.72-7.02a18.55,18.55,0,0,1-1.62-8.64c2.16-.9-.9-3.6-.9-4.86,2.52-4.32,1.62-10.62-.18-14.22-2.16-1.08-6.66-3.96-7.74-4.14-4.68,5.76-3.24,13.68-3.78,21.96,1.08,1.26-2.16,2.16-.18,4.68,0,0,.9,1.26-.18,1.26-.9-2.52-4.14-.36-5.22.54-10.98,2.88-11.52,5.22-21.6,7.92-3.24,1.26-8.28-.72-11.52,2.34,0,1.26,1.98,5.76,3.06,7.2,1.08,1.26,3.06,3.6,5.22,1.62,1.26-.9,1.26-.9,2.16,0,1.62-1.98,4.14,0,5.22-1.8a13.617,13.617,0,0,0,3.42-1.26,9.563,9.563,0,0,1,7.2-2.7l-1.08-1.26c1.62-1.98,2.7-2.34,3.24-.9a.881.881,0,0,1-1.08.9c1.08,1.44,1.8,2.88,1.98,1.62l-.9-1.44a3.161,3.161,0,0,0,1.08-2.16,8.22,8.22,0,0,0,5.58-2.16l-.9-1.08,3.06-1.08c-1.08-1.26-1.98,1.08-3.06-.18,0-2.34,1.98-1.08,1.98-2.16,1.08,2.34,3.24,1.44,3.24,3.78-.36,1.08-1.44,3.24.72,3.6-2.16.9,0,2.34-.18,3.42-2.34,2.16-.36,5.04-1.62,7.38,3.24.18-1.26,3.42,1.98,3.6-1.08,1.26-.18,2.34-1.26,3.6-1.26,2.34.9,3.6-1.26,4.68l1.98,1.26-1.26,1.08C585-37.8,585.36-37.44,586.8-36.72ZM521.1-81.36c-1.08-2.16-8.1-1.98-11.34-1.98,1.08,3.24-2.52,7.02-2.52,10.26a9.736,9.736,0,0,1-1.08,5.4v2.16c0,3.24-1.08,6.48,0,10.8-2.16,3.24,1.08,6.48-1.08,9.72,0,3.24,2.16,9.36,1.08,13.68v2.16a3.968,3.968,0,0,1,1.08,3.24c4.32,1.08,10.44-1.08,13.68-3.24,3.24-3.24,8.64-4.32,11.88-5.4l-1.08-1.08c4.32,0,6.48-5.4,10.8-6.48-1.08-1.08,2.7-1.26,3.78-1.26,0-1.08,1.8-5.4,1.8-6.48a59.906,59.906,0,0,1-6.66.9c-2.16,2.16-5.4,1.08-8.64,3.24l-13.32,5.76c0-1.08-1.08-2.16-2.16-3.24,1.8-.9.18-2.88,0-5.76l-1.08-1.08c0-2.16,1.08-1.08,2.16-2.16,0-1.08-3.24-1.08-1.08-2.16l-1.08-1.08,1.08-1.08V-57.6l1.08-2.16a1.058,1.058,0,0,1-1.08-1.08s-1.08-2.16,0-2.16a1.5,1.5,0,0,0,0-2.16c0-1.08,1.08-1.08,1.08-2.16,1.08-2.16-3.24-5.4,1.08-5.4,0-1.08-1.08-1.08,0-2.16H518.4C518.4-77.04,518.94-80.28,521.1-81.36Zm48.06,48.24c0-3.24-7.74-5.58-11.16-.36a2.025,2.025,0,0,0,0,3.24c1.08,0,1.08-1.08,2.16,0a1.058,1.058,0,0,1-1.08,1.08H558c-.72,1.44-.72,2.34,0,4.68,1.08,0,2.16-1.08,2.16,0a1.058,1.058,0,0,1-1.08,1.08c-1.08,0-2.16,0-2.16,1.08,2.16,2.16,0,3.24,1.08,5.4-1.08,1.08-1.08,5.76,1.08,6.84-2.16,0,1.08,2.16-2.16,2.16l2.16,4.32c2.16,1.08,7.2,0,9.36-1.08,6.48,3.24,11.88-2.16,17.28-4.32,2.16-1.08,4.32-2.16,4.32-3.24,1.08-1.08,3.24-4.32,4.32-2.16,1.08,0,1.08-1.08,2.16-2.16,1.08,0,4.32,0,5.4-1.08-1.08-1.08-3.24,0-3.24-1.08s0-1.08,1.08-1.08c1.08,1.08,3.24,1.08,4.32-1.08a1.058,1.058,0,0,1,1.08,1.08c1.08-1.08,5.4-4.86,4.32-5.94-2.16-1.08-5.4.18-7.56-.9-3.24-2.16-5.4,2.16-8.64,1.08L574.56-15.48c-2.16,0-4.32,0-5.4-2.16,0-1.08,1.08,0,2.16-1.08l-2.16-2.16a2.323,2.323,0,0,1,2.16-2.16c0-2.16-1.08-3.24-3.24-4.32,0-1.08,1.08-1.08,2.16-1.08v-1.44l-2.16-1.08c0-1.08,1.08-1.08,2.16-1.08Zm3.6-60.48c-1.08-2.52-5.04-1.62-8.28-1.98-10.8,2.88-15.3,4.5-24.3,12.06-.18,1.08,0,1.26,0,1.26,0,1.26-1.08,1.08-1.08,1.08l.36,2.88c1.08,1.8,2.7,3.96,5.22,3.42l2.16-1.98c1.26-1.62,2.7-1.62,4.86-2.7A23.012,23.012,0,0,1,556.02-81a43.1,43.1,0,0,1,9.9-3.6c-.9-3.96,6.48-2.34,8.82-4.68l-.72-2.88Z" transform="translate(-6.84 123.257)" fill="#fff"/></svg>