<svg xmlns="http://www.w3.org/2000/svg" width="213.127" height="609.711" viewBox="0 0 213.127 609.711"><path d="M5504.368,2741.155l-.674-1.34c1.19-.6,2.392-1.208,3.571-1.812l.683,1.335C5506.765,2739.943,5505.561,2740.554,5504.368,2741.155Zm7.124-3.643-.691-1.331c1.179-.613,2.371-1.237,3.54-1.855l.7,1.326C5513.869,2736.271,5512.675,2736.9,5511.492,2737.511Zm7.1-3.75-.71-1.321c1.167-.627,2.345-1.265,3.5-1.9l.719,1.316C5520.941,2732.493,5519.76,2733.133,5518.59,2733.761Zm7.013-3.83-.729-1.312c1.167-.648,2.345-1.308,3.5-1.961l.738,1.306C5527.954,2728.62,5526.773,2729.281,5525.6,2729.931Zm6.983-3.944-.747-1.3c1.148-.659,2.308-1.331,3.446-2l.756,1.3C5534.9,2724.653,5533.738,2725.326,5532.586,2725.988Zm6.924-4.045-.766-1.29c1.14-.677,2.29-1.367,3.419-2.049l.776,1.284C5541.808,2720.572,5540.654,2721.264,5539.511,2721.943Zm6.838-4.134-.786-1.278c1.137-.7,2.285-1.412,3.411-2.116l.8,1.271C5548.64,2716.394,5547.489,2717.108,5546.349,2717.809Zm6.8-4.257-.806-1.265c1.117-.712,2.245-1.436,3.351-2.154l.816,1.259C5555.4,2712.112,5554.271,2712.838,5553.15,2713.552Zm6.729-4.363-.826-1.252c1.106-.73,2.221-1.473,3.315-2.208l.837,1.245C5562.107,2707.712,5560.988,2708.457,5559.879,2709.189Zm6.638-4.461-.847-1.238c1.1-.753,2.209-1.519,3.3-2.278l.858,1.231C5568.734,2703.2,5567.621,2703.973,5566.517,2704.728Zm6.574-4.582-.868-1.223c1.084-.77,2.177-1.553,3.249-2.328l.879,1.216C5575.275,2698.589,5574.179,2699.374,5573.091,2700.146Zm6.5-4.7-.89-1.208c1.064-.784,2.136-1.582,3.188-2.372l.9,1.2C5581.738,2693.856,5580.662,2694.656,5579.594,2695.443Zm6.4-4.809-.912-1.191c1.055-.808,2.119-1.63,3.161-2.443l.922,1.183C5588.124,2689,5587.057,2689.823,5586,2690.634Zm6.3-4.918-.934-1.174c1.045-.831,2.1-1.677,3.13-2.515l.945,1.165C5594.406,2684.032,5593.35,2684.881,5592.3,2685.716Zm6.235-5.06-.956-1.156c1.021-.845,2.05-1.706,3.059-2.557l.968,1.146C5600.595,2678.944,5599.562,2679.807,5598.536,2680.656Zm6.129-5.175-.979-1.136c1-.863,2.011-1.741,3-2.611l.991,1.126C5606.683,2673.732,5605.67,2674.614,5604.665,2675.48Zm6.015-5.291-1-1.116c.988-.887,1.982-1.79,2.957-2.683l1.014,1.105C5612.67,2668.393,5611.671,2669.3,5610.68,2670.19Zm5.9-5.408-1.025-1.095c.973-.911,1.952-1.838,2.911-2.755l1.037,1.084C5618.538,2662.936,5617.555,2663.867,5616.578,2664.781Zm5.795-5.545-1.048-1.073c.95-.929,1.907-1.875,2.843-2.81l1.06,1.061C5624.288,2657.354,5623.328,2658.3,5622.373,2659.237Zm5.676-5.673-1.072-1.049c.925-.945,1.856-1.907,2.767-2.859l1.083,1.037C5629.913,2651.649,5628.978,2652.615,5628.049,2653.564Zm5.543-5.794-1.1-1.024c.9-.966,1.813-1.949,2.7-2.922l1.107,1.012C5635.413,2645.812,5634.5,2646.8,5633.592,2647.77Zm5.406-5.915-1.119-1c.883-.99,1.772-2,2.641-2.993l1.13.986C5640.778,2639.85,5639.886,2640.861,5639,2641.855Zm5.264-6.038-1.142-.972c.862-1.013,1.728-2.043,2.575-3.062l1.154.958C5646,2633.765,5645.128,2634.8,5644.262,2635.817Zm5.12-6.163-1.166-.944c.838-1.034,1.68-2.086,2.5-3.127l1.177.93C5651.069,2627.558,5650.224,2628.615,5649.382,2629.654Zm4.976-6.3-1.188-.915c.81-1.051,1.623-2.121,2.417-3.179l1.2.9C5655.988,2621.226,5655.171,2622.3,5654.358,2623.357Zm4.815-6.417-1.211-.885c.781-1.069,1.565-2.156,2.331-3.231l1.222.87C5660.746,2614.774,5659.958,2615.866,5659.173,2616.94Zm4.65-6.535-1.233-.854c.752-1.086,1.507-2.191,2.243-3.283l1.244.838C5665.337,2608.2,5664.579,2609.314,5663.823,2610.405Zm4.479-6.651-1.255-.822c.725-1.107,1.451-2.232,2.159-3.345l1.266.805C5669.76,2601.511,5669.03,2602.642,5668.3,2603.754Zm4.3-6.765-1.276-.788c.7-1.126,1.393-2.272,2.072-3.406l1.287.771C5674.006,2594.705,5673.3,2595.857,5672.605,2596.989Zm4.123-6.876-1.3-.754c.666-1.146,1.333-2.311,1.983-3.463l1.307.736C5678.068,2587.79,5677.4,2588.961,5676.728,2590.112Zm3.937-6.984-1.317-.719c.636-1.164,1.271-2.348,1.89-3.518l1.327.7C5681.942,2580.768,5681.3,2581.958,5680.665,2583.128Zm3.746-7.089-1.335-.683c.6-1.181,1.208-2.383,1.794-3.571l1.345.665C5685.625,2573.644,5685.018,2574.852,5684.411,2576.039Zm3.552-7.188-1.354-.646c.572-1.2,1.143-2.416,1.7-3.621l1.362.627C5689.111,2566.423,5688.537,2567.647,5687.962,2568.851Zm3.354-7.286-1.371-.609c.538-1.212,1.075-2.445,1.6-3.664l1.379.589C5692.4,2559.107,5691.857,2560.346,5691.317,2561.565Zm3.152-7.377-1.387-.57c.5-1.226,1.006-2.472,1.493-3.7l1.4.551C5695.481,2551.7,5694.976,2552.956,5694.469,2554.188Zm2.947-7.46-1.4-.532c.47-1.239.937-2.5,1.39-3.743l1.41.512C5698.359,2544.217,5697.889,2545.482,5697.417,2546.727Zm2.74-7.539-1.417-.493c.435-1.25.868-2.522,1.286-3.779l1.423.473C5701.029,2536.654,5700.594,2537.932,5700.157,2539.189Zm2.531-7.611-1.43-.454c.4-1.261.8-2.544,1.18-3.812l1.436.434C5703.489,2529.021,5703.09,2530.31,5702.688,2531.578Zm2.32-7.678-1.442-.414c.365-1.272.727-2.564,1.076-3.842l1.447.395C5705.739,2521.323,5705.375,2522.622,5705.008,2523.9Zm2.109-7.738-1.453-.375c.331-1.281.657-2.583.971-3.869l1.457.355C5707.777,2513.566,5707.449,2514.875,5707.117,2516.162Zm1.9-7.792-1.462-.335c.3-1.289.587-2.6.866-3.894l1.466.315C5709.6,2505.757,5709.313,2507.074,5709.015,2508.37Zm1.688-7.84-1.47-.3c.261-1.3.517-2.614.761-3.916l1.475.276C5711.222,2497.9,5710.965,2499.227,5710.7,2500.53Zm1.478-7.882-1.478-.257c.227-1.3.448-2.626.657-3.935l1.481.237C5712.63,2490.008,5712.408,2491.338,5712.181,2492.647Zm1.27-7.918-1.484-.218c.192-1.308.379-2.637.555-3.951l1.486.2C5713.831,2482.079,5713.643,2483.415,5713.45,2484.729Zm1.063-7.948-1.489-.18c.158-1.312.311-2.646.452-3.964l1.492.161C5714.825,2474.122,5714.672,2475.462,5714.513,2476.781Zm.858-7.973-1.493-.142c.125-1.316.243-2.653.352-3.975l1.5.123C5715.616,2466.142,5715.5,2467.486,5715.372,2468.808Zm.657-7.991-1.5-.1c.092-1.319.177-2.659.253-3.982l1.5.086C5716.207,2458.145,5716.121,2459.491,5716.029,2460.816Zm.458-8.005-1.5-.067c.06-1.321.112-2.662.155-3.988l1.5.049C5716.6,2450.137,5716.547,2451.485,5716.487,2452.811Zm.263-8.014-1.5-.031c.028-1.322.047-2.664.059-3.991l1.5.013C5716.8,2442.121,5716.777,2443.47,5716.75,2444.8Zm-1.429-8.013c0-1.322-.016-2.665-.036-3.991l1.5-.022c.02,1.332.032,2.681.036,4.009Zm-.117-7.981c-.035-1.322-.078-2.664-.128-3.99l1.5-.057c.05,1.332.093,2.679.128,4.007Zm-.3-7.977c-.065-1.321-.139-2.662-.218-3.986l1.5-.09c.081,1.33.154,2.677.219,4Zm-.481-7.969c-.095-1.319-.2-2.658-.307-3.98l1.5-.124c.109,1.328.213,2.673.308,4Zm-.657-7.956c-.123-1.317-.256-2.654-.394-3.973l1.492-.156c.139,1.325.271,2.667.4,3.989Zm-.83-7.941c-.151-1.314-.312-2.647-.478-3.964l1.488-.187c.167,1.322.328,2.661.48,3.98Zm-1-7.921c-.179-1.311-.368-2.641-.561-3.954l1.484-.218c.194,1.318.383,2.654.563,3.969Zm-1.162-7.9c-.206-1.307-.421-2.633-.642-3.942l1.479-.248c.221,1.314.438,2.646.644,3.957Zm-1.322-7.874c-.232-1.3-.475-2.625-.721-3.929l1.474-.278c.247,1.31.49,2.636.723,3.944Zm-1.479-7.847c-.258-1.3-.526-2.615-.8-3.915l1.468-.307c.272,1.3.542,2.626.8,3.929Zm-1.631-7.817c-.283-1.293-.576-2.6-.872-3.9l1.462-.334c.3,1.3.592,2.615.875,3.913Zm-1.78-7.785c-.308-1.287-.625-2.593-.946-3.881l1.456-.362c.322,1.293.641,2.6.949,3.9Zm-1.926-7.751c-.331-1.281-.673-2.581-1.017-3.863l1.449-.388c.345,1.287.688,2.591,1.021,3.876Zm-2.068-7.715c-.354-1.275-.72-2.568-1.086-3.844l1.441-.415c.368,1.28.735,2.577,1.09,3.857Zm-2.207-7.676c-.377-1.268-.765-2.555-1.154-3.823l1.434-.44c.391,1.273.78,2.563,1.159,3.836Zm-2.343-7.636c-.4-1.261-.81-2.541-1.221-3.8l1.426-.465c.413,1.265.825,2.549,1.225,3.814Zm-2.475-7.594c-.421-1.254-.854-2.525-1.286-3.779l1.418-.489c.434,1.258.868,2.533,1.29,3.791Zm-2.605-7.551c-.442-1.246-.9-2.51-1.349-3.755l1.41-.513c.455,1.25.91,2.517,1.354,3.767Zm-2.732-7.506c-.462-1.239-.937-2.494-1.411-3.731l1.4-.536c.475,1.241.952,2.5,1.416,3.743Zm-2.856-7.459c-.483-1.231-.979-2.479-1.473-3.709l1.392-.559c.5,1.233.993,2.485,1.478,3.72Zm-2.979-7.411c-.5-1.224-1.02-2.464-1.534-3.686l1.382-.582c.516,1.226,1.034,2.469,1.539,3.7Zm-3.1-7.362c-.523-1.216-1.06-2.449-1.594-3.663l1.373-.6c.536,1.218,1.074,2.453,1.6,3.674Zm-3.217-7.31c-.544-1.209-1.1-2.433-1.654-3.639l1.363-.626c.556,1.209,1.114,2.438,1.659,3.65Zm-3.333-7.257c-.563-1.2-1.14-2.417-1.713-3.615l1.353-.647c.575,1.2,1.153,2.421,1.718,3.625Zm-3.449-7.206c-.583-1.192-1.178-2.4-1.77-3.587l1.342-.669c.594,1.191,1.191,2.4,1.775,3.6Zm-3.564-7.153c-.6-1.182-1.214-2.377-1.824-3.554l1.332-.69c.612,1.18,1.228,2.38,1.83,3.565Zm-3.677-7.095c-.619-1.171-1.25-2.355-1.877-3.52l1.321-.711c.629,1.168,1.263,2.356,1.883,3.53Zm-3.788-7.034c-.637-1.16-1.287-2.334-1.933-3.488l1.31-.732c.647,1.158,1.3,2.335,1.938,3.5Zm-3.9-6.971c-.656-1.152-1.326-2.317-1.991-3.462l1.3-.753c.667,1.148,1.338,2.316,2,3.472Zm-4.008-6.905c-.676-1.144-1.366-2.3-2.049-3.434l1.285-.774c.686,1.139,1.378,2.3,2.056,3.445Zm-4.12-6.84c-.7-1.133-1.4-2.278-2.106-3.4l1.272-.795c.7,1.127,1.416,2.276,2.113,3.412Zm-4.237-6.779c-.712-1.118-1.437-2.247-2.156-3.355l1.259-.816c.721,1.112,1.449,2.244,2.163,3.366Zm-4.348-6.7c-.731-1.106-1.476-2.223-2.213-3.318l1.245-.838c.739,1.1,1.486,2.219,2.22,3.329Zm-4.459-6.621c-.752-1.1-1.519-2.2-2.277-3.287l1.229-.86c.761,1.088,1.53,2.2,2.285,3.3Zm-4.576-6.542c-.773-1.084-1.559-2.175-2.336-3.244l1.213-.882c.78,1.073,1.569,2.168,2.344,3.256Zm-4.7-6.466c-.791-1.066-1.595-2.139-2.389-3.188l1.2-.905c.8,1.053,1.6,2.13,2.4,3.2Zm-4.817-6.363c-.815-1.055-1.643-2.115-2.461-3.151l1.177-.929c.821,1.04,1.652,2.1,2.471,3.163Zm-4.948-6.267c-.835-1.035-1.684-2.074-2.52-3.089l1.157-.955c.84,1.018,1.691,2.062,2.53,3.1Zm-5.084-6.161c-.861-1.019-1.733-2.04-2.594-3.035l1.135-.981c.864,1,1.741,2.025,2.605,3.049Zm-5.219-6.031c-.885-1-1.781-2-2.664-2.965l1.109-1.01c.887.974,1.788,1.976,2.677,2.979Zm-5.377-5.9c-.915-.977-1.84-1.951-2.75-2.9l1.08-1.041c.915.949,1.845,1.929,2.765,2.911Zm-5.54-5.745c-.943-.949-1.9-1.891-2.832-2.8l1.046-1.075c.941.916,1.9,1.864,2.85,2.819Zm-5.709-5.551c-.977-.917-1.962-1.823-2.928-2.694l1-1.114c.973.877,1.965,1.79,2.949,2.714Z" transform="translate(-5503.694 -2131.443)" fill="#af8e65"/></svg>