<svg xmlns="http://www.w3.org/2000/svg" width="52.479" height="96.213" viewBox="0 0 52.479 96.213"><g transform="translate(0)"><path d="M49.931,214.2c-1.795-2.937-2.947-6.249-6.225-7.928a8.218,8.218,0,0,0-9.156.772,8,8,0,0,0-2.3,7.718c.814,3.8,3.891,6.252,6.49,8.935Z" transform="translate(-23.999 -153.664)" fill="#af8e65"/><path d="M81.527,280.31c3.887,3.118,8.573,5.358,13.629,5.44a8.683,8.683,0,0,0,6.35-2.572c7.205-7.353-6.748-19.093-12.406-22.473-2.112-1.262-4.4-2.225-6.315-3.8a24.608,24.608,0,0,1-3.613-3.751l-10.991,9.33c1.129,1.755,1.911,3.659,2.988,5.493A44.859,44.859,0,0,0,81.527,280.31" transform="translate(-51.046 -189.539)" fill="#af8e65"/><path d="M10.463,17.591C7.3,16.242,3.852,15.583,1.715,12.583a8.219,8.219,0,0,1-.566-9.171A8,8,0,0,1,8.452.02c3.882.253,6.75,2.941,9.783,5.123Z" transform="translate(0 0)" fill="#af8e65"/><path d="M82.255,38.8c3.649,3.393,6.546,7.7,7.362,12.694a8.683,8.683,0,0,1-1.622,6.656c-6.229,8.2-19.87-3.9-24.036-9.011-1.555-1.906-2.841-4.031-4.674-5.7a24.586,24.586,0,0,0-4.236-3.031l7.636-12.23c1.9.863,3.9,1.36,5.868,2.159a44.861,44.861,0,0,1,13.7,8.458" transform="translate(-41.214 -21.099)" fill="#af8e65"/></g></svg>