<svg xmlns="http://www.w3.org/2000/svg" width="264.208" height="106.096" viewBox="0 0 264.208 106.096"><path d="M-76.244-28.952c-1.008-1.008-2.3-.336-3.472.84-.28.84-1.568,1.792-2.24,2.8-1.68,2.016-3.024,3.7-4.7,6.048C-87-18.592-87.668-18.2-88-17.528c-1.008,1.008-.952,2.016-2.3,2.352-.336,0,0-.336,0-.336a6.55,6.55,0,0,1,.336-2.688l-.336-.336.336-.336c-.672-1.008.336-2.016-.336-3.024,1.008-.336,0-.672.672-1.344a2.441,2.441,0,0,0-1.736-2.24c-.336.336-2.688.952-3.024,1.96,0,1.344-1.736,1.568-2.408,2.912-.336.672-1.288.672-1.624,1.68-1.344,0-1.344,1.344-2.688,1.68-2.352,2.352-3.584,3.024-6.608,5.04a2.547,2.547,0,0,1-1.344-.672c0-.336.336-.336.672-.336-.336-.672-.672-1.232-.336-1.9v-.336h-.336l.672-.336a1.478,1.478,0,0,1-.336-1.68l.28-.168.28-1.288h.448c-.672-.672,0-1.344,0-2.016v-.672a.63.63,0,0,0,0-1.008c.672-2.352,1.568-.336,2.912-1.68,1.68,0,4.368-1.568,6.048-2.24-.336-.672-2.352-1.792-2.688-2.128-3.36.672-6.048,2.016-9.408,2.688-1.736,1.4-5.768,2.128-5.432,4.928,1.344.336,2.184-.336,3.528-.672l1.176-.336c.336,0,.672-.28,1.008.056-1.008,1.008-.672,2.632-1.344,3.64l.336.336c-1.008,0-.336,1.008-1.008,1.68-.336.336.336.672.336.672l-.336.336v.336c-1.008,1.008.336,1.68-.336,2.688.336,0,.672,0,.672.336.336.672-.672.336-.672,1.008a1.041,1.041,0,0,1,.672.336v.28c-1.68,0,.672,1.9-.672,2.24-.336.672.336.672.672.672-1.008.728-1.064.168-.672,1.008,2.352.672,5.1-1.568,7.112-2.576,1.344-1.68,3.36-2.016,4.368-3.7.672.336.672-.672,1.008-.672a3.636,3.636,0,0,0,1.68-1.344c1.68-1.008,2.3-2.016,3.64-3.36a.723.723,0,0,1,.672.672c-.336.672,0,.672-.336,1.344h.336c0,.672,0,1.008-.336,1.344l.336.336-.336.336c.336,0,.336,0,.336.336a1.848,1.848,0,0,0-.112.616l-.224.392v.672c-.336.672,1.008.672,0,1.68h.336c.336,0,0,.336,0,.336l.336.336-.336.336c2.016.336,5.1-.672,6.1-2.352.336-.336.336-.672.672-.672.336-.336,0-.672-.336-.672.336-.336.672-.336,1.344-.336.336-.336,0-.672,0-1.344.336-.672,1.344-1.008,2.016-1.344,0,0-.672,0-.672-.336s.336-.336.672-.336c-.336-.336.336-.336.336-.336l-.336-.336c.336-.672,1.12-.5,1.176-.952.112-1.68,1.232-.728,1.232-1.736l-.336.336V-20.1c0-.672.952-.336.952-.672l-.28-.336.672-.672c.336-.336.616,0,.952.336a.274.274,0,0,1-.28.336c0,.672-.392,1.344.28,1.68l-1.008.672c0,.336.672.336.672.672h-.336c.28.336.056.616.224.672-.84.056-.224.672-.224,1.008-1.008.672.672,1.344-.336,2.016v.672c0,.336.672,1.008,0,1.008l-.336.672c1.008.336,0,1.344,0,1.344.336.336-.672.672,0,1.008l-.336.336a.806.806,0,0,0,.672,1.344c0,.336-.336.336-.672.336,0,.336,0,.672.336.672a.329.329,0,0,1-.336.336c0,1.344-.336,3.136,0,4.48.672,0,3.08,1.344,3.752.336h-.336c.672-.672,1.008-1.008.672-1.68l.336-.336c-1.008-.336.672-1.344-.336-2.016h.672c-.672-1.008.336-2.128-.336-2.8l.336-.336c.336,0,.336-.336,0-.672s0-.672.336-.672c0-.336-.336-.336-.336-.672l.336-.336c0-.336.336-.672,0-.672-.336-.336,0-.672.336-.672-.336-.672,0-1.68,0-2.016v-.336l.336-.336c-.672-.672.336-1.344-.336-2.016.336-.336,1.008-.336.672-1.008-.336,0-.336-.336-.672-.336.336-.336.672-.672.336-1.008,1.344-1.008.336-4.424,1.008-5.768a5.854,5.854,0,0,1,0-1.4c-.336-.672-.392-1.68-1.064-1.68Zm29.68,19.376c.784-.392,1.232-.392,1.232-1.232l.728-.112a2.744,2.744,0,0,0-1.96-1.232c-.784.392-3.7.56-3.7,1.792.84.784,1.624-.84,2.8,0a28.3,28.3,0,0,0-3.192,1.176c-.392.392,0,.392.392,1.232h-1.176c0,.784-1.232,1.568-.84,2.8,0,0,.448,0,.448.392-1.232,0-.448.784-.448,1.624l.224-.168.224.168c-1.232.392-.952,3.528-1.344,4.7h.392c1.232.392,2.856-1.176,3.64,0,1.232-.784,1.624,0,2.8,0V.784c.448.392.84.392.84.784a1.44,1.44,0,0,0,1.176-.392h-.392c.392-1.624,2.016.392,2.8-.784A17.153,17.153,0,0,0-38.5-1.176c.952-.672,1.96-.672,2.744-1.456l-.392-.392c.392-.448.784,0,1.176,0v-.448l.728-.952.5-.616c-.616-.84-2.016-.112-2.8-.112-5.656,2.016-2.128.5-7.392,2.632-.784,0-1.848.784-3.024,0,0-.392.784-.784.784-1.176-.392-.448-1.176,0-1.176-.84.392-.392.784,0,1.176-.392,0-.392-.392-.224-.784-.616.392-.448.784.392,1.176,0v-.448c-.392.448-.784,0-1.176-.392,0-.784,1.176.392,1.624-.392l-.84-.392c-1.568,0,.392-.784-.392-1.232a1.5,1.5,0,0,1,1.232-.392v-.392C-45.78-8.792-46.172-9.576-46.564-9.576ZM-58.94-36.848a8.9,8.9,0,0,0-4.032-.448c-.056.336.112.448.056.784,0,0-.336.336-.336-.112l-1.12,4.088.336.448c-1.176.224-.224,1.008-.952,1.288l.28.28c-.728.336-.168,1.12-.84,1.008.28.392-.448.9-.112.952.28.5-.112.728-.112.728l.616.5c-.392.28-.392.28-.728.168.28.392.672.168.9.56-.056.28-.336.336-.392.728-1.624,1.456-3.92,1.736-6.1,2.408a6.131,6.131,0,0,0,4.592,1.624c5.376-1.288,10.584-2.744,16.016-4.312.448-.224,1.624-.616,1.792-1.9a15.965,15.965,0,0,0-8.176.448c-1.736-.224-2.688,2.016-4.368,1.064.728-.224-.224-1.008.448-.84l.112-.672c.056-.392,0,0-.28-.448l.728-.616-.672-.056c.056-.336.056-.336.392-.28l.5-.336h-.392a8.092,8.092,0,0,1,1.12-3.024,6.623,6.623,0,0,0,.28-2.352s.336-.336.672-.224c-.28-.392-.616-.448-.56-.784C-58.94-36.12-59-36.512-58.94-36.848Zm6.272,17.92c-1.176-.784-3.192-1.512-4.312-2.24-1.512-.784-3.08,1.4-4.2.952-.728.392-.784,1.232-.056,1.232v.336c-1.176,0-1.176,1.176-1.232,1.96.392.28-1.12.616,0,1.456h-.392l.392.392a.384.384,0,0,1-.392.392l-.056.336c.336.448.448-.336,1.176,0-.392.728-.84.448-1.176.728-.392.784.784,1.176,1.12,1.512l-.84.784,1.232-.056c.336.784,1.9,1.288,1.9,2.072.784,0,1.792.784,2.184-.336,1.176.392,2.688-.84,3.472-1.288-.28-1.12.672-1.736,1.008-2.128a.382.382,0,0,1,.28-.392h-.28a.687.687,0,0,1,0-1.064c-.28-.392-.672-.392-.672-.784l1.12-.392a.349.349,0,0,0-.392-.336c0-.392-.336-.392,0-.784l.112-.728c.336-.336-.392-.9-.784-1.232ZM-39.62-30.856a17.567,17.567,0,0,0-1.4-2.016c-.728.336-3.192,1.176-3.64,2.52.336,0,1.008.056,1.064-.28.28.056.616.392.28.392a1.349,1.349,0,0,1-1.008.224c0,.336-.784,1.008-.112,1.008,0,.672-.112,2.016-.112,2.688-.056.672-.784,1.624.224,1.68-.392.336-.728.336-.392.672.672.336-.112,1.344-.112,1.344,1.344.448-.336.672.616,1.344l-.448.28.392.056c0,.672-.728,2.016-.728,2.688h.672l-.392.672.28.336-.392.336h.392c1.232,1.456,2.968-.56,3.92-.168,1.736-.28.728-.392,2.072-.616,1.008.336,1.008-1.344,1.96-.9a3.916,3.916,0,0,1,4.144-.728c-.224-.5-.336-.952.336-.784a9.4,9.4,0,0,0-.224-1.68c-3.64-1.624-3.92-.5-7.392.672-.336-.672-1.008-.168-.9-1.176.336,0,.336-.336.336-.672.392-.952.112-.84-.224-1.512l.728-.616a6.285,6.285,0,0,0-1.232-1.176h.336a2.958,2.958,0,0,0,.448-1.624l-.336-.056.336-.28c-.336-.336-.28-1.008-.28-1.344h.336c.392-.616-.616-.392-.28-1.008C-40.18-31.024-39.676-30.184-39.62-30.856ZM-57.26-16.072c0,.728.9.392,1.288.728l-1.288.28c.448.448,0,.168.336.56l.9.392c-1.232,0-.448.84-.9,1.288l.28.28c-.448,0-.84-.28-.84,0-.056.224.392.392.448.392-.336.112-.672.392-.952.392-1.232-1.064-.224-2.072-1.232-2.856.28-.056,1.288-.84.28-1.176h-.336s0-.28-.392-.28h-.392c.392-.392,1.568,0,1.624-1.232l.392-.336c-.392-.336-.392-.672-.728-.336l.56-.672c2.016.448.168,1.344,1.288,2.576Zm12.712,5.152H-44.6c0,.056,0,.112.056.112Zm31.92-22.008c-1.68-.672-4.76.056-6.1.728l1.008.336c0,.336-1.288.28-1.288.28-1.344-1.008-3.416,1.176-4.424,1.176.336.336-.672.672-.336.672.672.672-.224,1.064.112,1.4l.9,1.288c-.336.336-1.008,0-1.008.672.672.672,2.24,0,2.912.672a1.041,1.041,0,0,0,.336-.672c-.336,0-.336-.336-.336,0l-.336-.336v-.336c0-1.008,1.792-.448,2.128-1.456.672,0,1.792-.672,2.464-.336.336.672.336.672-.336,1.008,0,1.008-.336,2.408,0,3.416a6.229,6.229,0,0,1-.672,2.352l.672.672h-.336c0,2.352-1.008,4.648-.672,7.336h.336c.336.336,1.344,0,1.344,1.008,1.008-1.008,1.232.336,2.576,0,1.68-1.008,4.032-1.68,5.712-3.024.336-.336.672-1.008,1.008-1.008v-.336c1.344,0,.56-1.176.9-1.512h-.336a.621.621,0,0,1-.616-.616c1.344.336.5-1.68,1.736-1.176-1.344-1.344-2.016-.056-3.024-.056,0,.336.672-.056.672.616a12.882,12.882,0,0,0-4.592,1.736c-.336,0-1.008.336-1.344-.336l.672-.336-.672-.336c0-.672.336-.616.672-.952-.336-.336-.672-.9-.336-1.232.672,0,0-.448.336-1.12-.336,0,0-1.008-.336-1.344a.329.329,0,0,0,.336-.336c0-.336,0-.672.336-.672-1.008-.672-.336-1.68.336-2.016-1.008-1.008.336-2.016-.672-2.352l.336-.336c0-.672.336-.728-.336-1.064C-12.908-31.528-11.956-32.256-12.628-32.928ZM-24.276-29.96c-.336-1.008-3.024-1.008-3.7-.672-.336.672-.672,1.008,0,1.344l-.336.672v1.176a.772.772,0,0,1,.336.56c0,.336-.336.336-.336.672a.465.465,0,0,1,0,.672.329.329,0,0,0,.336.336c0,.336,0,.336-.336.336-.336.336,0,.672.336,1.008l-.336.336c.336.336-.672,1.008.336,1.344-.336.336,0,1.008-.336,1.008.336.336,0,1.008.336,1.008,0,.336.336,1.008,0,1.344l.336.672-.336.336c.672,1.008.336,3.248,1.344,3.584l-.336.336c.336,1.008,1.344.672,1.68,1.008a.329.329,0,0,1-.336.336c0,.336,1.736.392,2.744,0-.336-.336,0-.672,0-1.008s-.728-.672-1.064-.672c1.344,0,.336-1.568.672-1.9-1.008-1.008,0-2.688-1.344-3.7h.672c-.336-.336-.336-1.008-.672-1.344l.336-.336a1.041,1.041,0,0,1-.336-.672h.336v-.336c0-.336-.336,0-.672-.336,0-.336.672-.336.672-.672s0-.672-.672-1.008c0-.336.336-.336.672-.672-.672-.336.336-.672-.336-.672l.336-.672c-.672-.672.336-2.408-.672-3.08Zm28.224-.9C3.444-32.592,1.2-34.1.2-34.44c-.336,0-1.12.056-1.12.56l.448.9-.336.5.336.392H-.812a27.744,27.744,0,0,0,.336,4.872c-.616.952.112,1.848-.5,2.352l.28.392c.112.952-.168,2.856-.056,4.256-.28.448-.224,1.792.5,2.128-.336.56-.336.56-.672.56A2.31,2.31,0,0,0-.14-15.792a2.947,2.947,0,0,0-1.008.224c.056.84.336.84.672.728.112.9-.56.5-.56,1.008.112.9.84.5.84.952.672-.112,2.128-.616,2.408-1.176.784.84.672-1.008,1.008-.56l.28-.952c-.336-.392-.672-.84-1.008-.784a1.219,1.219,0,0,1,1.232-1.12,2.3,2.3,0,0,0-.392-1.288A.98.98,0,0,1,4-19.768c-.056-.336-.784-.28-.784-.784.28-.5.672-.5.616-.952H3.444c.672-.56.28-.9.28-1.4H3.388c.28-.5.28-.9.672-1.008-1.456-1.232.448-3.3-.392-5.04C3.276-29.848,3.22-30.744,3.948-30.856ZM-6.468-10.024c-.672-.672-2.688-2.128-3.36-2.128,0,.672-1.512,1.456-.84,2.128l-.168.448A7.029,7.029,0,0,0-12.18-7.56c0,.336-1.008,1.344,0,1.68,0,.336-.336.336-.672.336-.672,1.008.672,1.008.672,1.68l-.616.28-.056,1.4a.465.465,0,0,1,.672,0,.329.329,0,0,1-.336.336c0,.672-.336,2.3.336,2.632A4.373,4.373,0,0,1-9.94,1.792c.672.672,1.344-.672,2.016,0H-6.58c.336.672,1.008-.672,1.68,0,0,.336-.336,0-.336.336A7.736,7.736,0,0,0-2.212,1.12c.672,0,1.008.672,1.68.336l.112-.28C-.42.84-.532,1.12-.532.784.812,1.12,1.652,0,3,0c.672-1.68,2.352-.336,3.36-2.016-1.008.336,0-2.016-.336-2.352a.329.329,0,0,0-.336.336.329.329,0,0,1-.336-.336A.329.329,0,0,1,5.684-4.7c-2.016-1.344-4.2.784-5.88,1.12-2.688,1.008-4.592,2.24-7.952,1.9C-8.82-2.352-8.6-2.3-8.932-3.3c.336,0,.112-.672.112-.672l-.336.336c-.336,0-.336,0-.336-.336l.336-.336c0-.672-1.008,0-1.344-.336.672-.336,0-.672,1.008-.672,0,.672,1.008,0,1.344.336.336-.336-.672-1.008.336-1.008l-.336-.336c-.336.336-1.008,0-1.344-.336h1.008c-.672-.336,0-1.008-.336-1.008-.336-1.008,1.344-.672,1.008-1.344-.336.336-.672.672-1.344.336.672-.336.336-1.008.672-1.008l.336-.336C-7.476-10.7-7.14-10.36-6.468-10.024ZM29.2-22.736A14.964,14.964,0,0,1,34.86-24.08c.672.056,1.4-.56,2.072-.5.392-.616,1.4-.168,2.072-.448,1.008.112,1.064-.224,2.072-.112.392-.616,2.632-.28,2.408-1.848-.672-.056-1.96-.56-2.632-.28a8.111,8.111,0,0,0-1.568-.784l-.728.168-.672-.056a3.36,3.36,0,0,0-2.072.448c-.9-1.12-1.848.112-2.8-.336-1.064.224-2.128,1.12-3.08.336.056-.336.672-.28.392-.616l-.28-.392c0-.336.672-.28.672-.28.448-.616-.224-.672-.56-.728.392-.616,1.008-.5,1.4-.784l-.28-.392-.336-.336c.392-.336.392-.336.056-.336l.336-.336c.112-.672.112-1.008-.56-1.064l.392-.28.056-.336.336-.336c.112-.616.168-.728-.168-1.12l.392-.28.056-.336c0-.336.056-.672.392-.672l.616-.728.784-1.96c-.28-.84-1.9-1.12-4.144-.616a33.518,33.518,0,0,1-4.424.952c-1.624-.168-3.136,1.008-4.816.84-1.064.9-3.808,1.064-5.208,1.568.784,1.232,2.856,1.4,4.144,1.624,1.4-.84,3.136-.9,4.872-1.4,1.008.112,2.352-1.064,3.64-.28a2.337,2.337,0,0,0-.56,1.4c-.672.28.224.952-.5,1.512-.392.672.224,1.064-.5,1.344.336.336-.056,1.008.224,1.344l-.392.392c-.448.952.56.9.9,1.232-.392.336-.672-.224-1.064.056.336.056.28.728.224,1.064l-.336-.056.336.392-.392.28a.334.334,0,0,1,.28.392c-.672.224,0,.336-.392.616-1.008-.112-1.4.448-2.408.336-1.4.56-3.08.392-3.864,1.288-3.08.336-5.768,1.792-8.232,2.856-1.008.224-2.464,1.12-1.96,2.52.728-.28.616,1.512.952,1.568.112-1.008,1.064-.224,1.736-.168.448-.952,1.288-.9,1.68-1.512.672.392,3.752-.9,3.416-.672,1.736-.168,3.248-1.68,5.208-1.12l.056-.336a8.457,8.457,0,0,0,2.408-.616c-.056.728-.28,1.568-.28,2.24-.336.336,0,.336.336.672-1.008.336.336,1.008-.672,1.344-.336.672.336.672.336,1.344,0,0-.336,0-.336.672,1.008,0,0,1.008,0,1.008l.336.336c0,.336.336,1.008-.336,1.008.336.336,2.24,0,2.576.336l.336-.672c0,.336,0,.336.336.336-.336-.336.336-1.344,0-1.68a.329.329,0,0,1,.336-.336c-.056.056.168-.952-.336-.672,0-.336,0-.336.336-.336-1.008-1.344,1.68-1.344.336-2.352a11.938,11.938,0,0,1,.672-3.36c-.336,0-.056-.28-.056-.616Zm6.216,9.968c-.672,0-1.288-.728-1.68-.672A81.445,81.445,0,0,0,20.076-10.3c-1.008.224-2.744,0-2.744,1.344,1.344.336,2.912,2.464,4.592,1.792-.336,0-.672,0-.672-.336.336-.336,1.008,0,1.344-.336.336,0,1.344-1.008,2.688-.672,1.68-1.008,2.912,0,4.928-1.008.336.336,1.008,0,1.344,0,.336.336-.336.672.336,1.008-.672,1.008-.336,1.568-.672,2.576-.672.672.336,1.344-.336,1.68,0,1.68-.56,3.248-.224,4.256-.672,1.008-.336,2.016-.336,3.36,0,0,.336-.336.336,0l-.336.336c-.672-.336,0,1.008-.672,1.008.336.336.336,1.008,1.008,1.008-.336.672-.672,0-1.008,0,0,.336-.336,1.008,0,1.008s0,.336,0,.336c.336.336,1.344,0,1.344.672,1.008.336,2.184-.336,2.856-.336l-.672-.336c.336-.672,1.008-.672,1.008-1.344A.644.644,0,0,1,33.852,4.7h.336l-.336-.336c.336-.336.336-.336.672-.336V3.7c-.336-1.008.336-1.68-.336-2.352.336,0,.336-.336.672-.336L34.188.672l.336-.336c0-.336.336-.672-.336-.672l.56-1.568c-.336-.336.336-.672.336-.672l-.336-.672a.723.723,0,0,0,.672-.672c-1.008-.336-.336-1.344-.336-1.344-.336,0,0-.336,0-.336a.329.329,0,0,1,.336.336c0-.672.336-1.344,0-2.016,0-.336.336-.336.672-.336-.336-.336-.336-.672-1.008-1.008L36.092-9.3c-.336,0-.056-.616-.56-.672a.72.72,0,0,0,.56-.672l-.336-.336.336-.336ZM68.012-23.912A1.809,1.809,0,0,1,66.5-25.144c-.728-.5-2.968-.28-3.08.728.336.056.336.056.616.448a.334.334,0,0,1-.392.28c.28.392-.224,1.344.336,2.072l-.336.28c.28.392.112,1.4.056,1.736-.448.616.5,1.4-.168,1.68.952.112-.168.952.112,1.344-.112.672-.5.952.056,1.736-.952,1.9.224,3.08-.28,4.368.84,1.12-.28,2.184.56,3.36l-.392.28c1.624.56-1.008,2.24,1.288,2.576l-.392.28a1.542,1.542,0,0,0,.224,1.064c-.168.952,1.9,1.456,2.52,1.9C67.9-.9,69.244.616,70.364.112c-.56-1.12.336-2.688-.5-3.808l.336-.28a10.754,10.754,0,0,1-.5-3.136c-.28-.728-.9-.84-.84-1.512.336.056.392-.28.728-.224l-1.12-1.736,1.064-.224c-.616-.392-.28-.672-.56-1.064l-.336-.056.56-1.288.056-.336-.56-.728h.336l-.616-.392c.056-.672.672-.224.728-.56-.952-.5.112-.672-.5-1.12.336.056.672.112.784-.56-.336-.056-.28-.392-.224-.728-.392.28-1.008-.112-1.344-.168.392-.28.728-.224,1.4-.5l-.28-.672a.334.334,0,0,1,.392-.28l.056-.336-.336-.056c-.336-.056-.784.56-1.008-.168a1.189,1.189,0,0,1,.728-.224l-.28-.392c-.5-1.12,1.12-.5.56-1.624.224-1.288-1.232-.5-1.512-1.232.616.448,1.176-.84,1.848-.728l-.616-.448Zm.224-1.344-1.344-.168-.056.336Zm11.032,9.3a3.825,3.825,0,0,0-.336,2.352l-.28.224-.056.448.28.112s.056-.112.056.224c0,0,0,.336-.336,0v1.344h.336v.336l1.68,1.12c.784-.28,2.016.56,2.912.728-.056.112,0,.224.168.392l-.392.392a.326.326,0,0,0,.336.392l-.28,1.456-.112.5L83.076-4.76c.728.448-.392,1.176-.112,1.9-1.456,1.68-4.816-.168-5.992,2.408a9.226,9.226,0,0,0-.224,1.792c.672.784,1.064,0,1.848.392l-.448.392c1.176-.672,1.064,1.176,2.24.5-.336,0-.728-.056-.728-.448l.84-.336c.28.392,1.68-.28,2.408-.224l-.336.392c1.12.056,1.568-1.064,2.632-.672.84-.672,1.512.112,2.352-.616C89.012.112,90.3.28,92.148-.168c.448-1.456,2.3-.56,3.528-1.624.056-.392,1.176-.336,1.96-.672a5.413,5.413,0,0,0,2.352-1.12,4.25,4.25,0,0,0,.728-1.344L98.476-5.6A99.792,99.792,0,0,1,88-3.36,1.966,1.966,0,0,1,86.828-5.1l-.056-.448.448-.728c.056-.336-.336-.448-.336-.784l.168-1.008-.336-.448.392-.336L86.38-9.3l.784-.28c-.224,0-.224-.112-.224-.336h.5c0-1.344,1.344-.672,1.344-1.344,0-.336.448-.224.112-.56l.336-.448c.336.336.336-.056.672.28l.336-.448c1.008,0,.056-1.68,1.4-1.344,0-.336.336-1.008,0-1.008,0-.336.336-.56,0-.9-.336-.672,0-2.016-1.008-2.352-.672-2.016-3.472-3.024-4.816-4.032A23.24,23.24,0,0,0,81.4-20.5C82.4-18.48,79.268-18.984,79.6-17.3,79.268-16.632,79.94-16.3,79.268-15.96Zm6.832-20.5c0-1.4-2.184,0-2.912-.336a2.54,2.54,0,0,0-1.232.784c-2.856-.336-.672,2.184-1.736,3.248h.336l-.672.728.336.336c-.672,0,.336,1.064-.672,1.456,1.008,0,0,.672.672.672l-.056.336s.336-.336.336,0c.392.392,0,.728-.336.728,0,.336,0,.336.336.336l-.336.392c0,.336.336.336.728.672l-.392.392c-.336,0-1.064.672-1.4.672-1.568.952-3.36.616-4.7,1.624-.112.112-.728,1.176-.84,1.288,1.064.728,2.24.336,3.3.336,1.4.728,3.528-.672,4.928,0h.728c.224-.224.28-.112.336-.056.056-.616,1.064-.616.728-1.344.336-1.4,2.128-.336,2.464-1.4.728,0,1.4-.728,2.464-.392l-.672-.336c.672-.336,1.736-.336,2.464-1.064v.336l.336-.336a10.265,10.265,0,0,1,2.464-.728c.392-1.008,2.3-.56,2.744-1.344a2.3,2.3,0,0,0-1.064-1.12c-1.568-.728-2.912-.112-4.48.224-1.792.672-3.136,1.064-4.872,1.736-.392,0-.392-.336-.728-.336l.28-.9c.112-1.288-.056-2.52.448-3.416.336-.336-.728-1.064.336-1.4V-35C85.764-35.392,85.428-36.064,86.1-36.456ZM81.9-15.288l-.056-.448c.672.336.672,0,1.344-.336l-.336-.336.448-.336.056-.5.168-.616s-.28-.112-.336-.336c.672-.336,1.568-.336,1.9-1.008h.672l-.336.336c.672.336,1.008,1.008,1.68,1.344-.672.672.672.784.336,1.456-.672,1.008-.672,1.848-1.68,2.52-1.344.672-2.24,2.632-3.92,1.288l.336-.336-.056-.28.28-.56.112-.168c-.168-.28.5-.784.336-1.456Zm-203.168,51.88c-.056-1.232-1.96-2.464-2.576-2.8a5.16,5.16,0,0,0-3.192,1.456c-.616.616-1.848,1.344-1.568,2.3-1.232.616-1.232,2.016-1.848,3.248h.336c-.952.9-.616,1.848-.952,2.744h.336c0,.336.616,1.4.28,1.68.616,1.232,2.128,2.8,3.64,2.8.952,0,3.136-.616,4.088-.616l-.336-.336c.336-.616.616-.616,1.232-.9l-.168-.224c0-.28-.112-.392.168-.392l-.616-.616c1.568-.616.616-2.3,1.568-2.912,0-.336-.336-.616,0-.616.616,0,0-.336.28-.616h-.9c.28-.616.9,0,.9-.616a.3.3,0,0,1-.28-.336c.616-.9-.616-1.232-.616-1.848s-.952-.28-1.232-.9c-.336,0-1.736-.448-1.736-.112-.616.28-.5,1.344-.168,1.624-.616.336.616.952,0,1.568a9.875,9.875,0,0,1-1.736,4.928,1.125,1.125,0,0,1-.952-.336,4.787,4.787,0,0,0-.5-.784c-.056-.392-.224-.84.056-.84l-.056-1.12c0-.616.616-.952.952-1.568h-.616a3.891,3.891,0,0,1,1.512-2.3c-.28-.952.784-.9,1.064-1.848C-123.676,35.416-122.5,37.208-121.268,36.592Zm16.744,10.36c.28-.056,2.128-.336,2.408-1.344.392-.392.728-.728,1.064-.672-.336-.448-.336-.448-.336-.784.056-.392-.56-1.12.448-1.456l-.336-.392.336.056a2.292,2.292,0,0,0-.224-1.568l.336-.224a7.449,7.449,0,0,1,.168-1.68s0-.952.336-.952c-.672-.448-.224-1.456-.224-2.184a5.771,5.771,0,0,1-.5-2.688c.672-.28-.28-1.12-.28-1.512a5.092,5.092,0,0,0-.056-4.424,27.358,27.358,0,0,0-2.52-1.288c-1.456,1.792-1.008,4.256-1.176,6.832.336.392-.672.672-.056,1.456,0,0,.28.392-.056.392-.28-.784-1.288-.112-1.624.168-3.416.9-3.584,1.624-6.72,2.464-1.008.392-2.576-.224-3.584.728a7.423,7.423,0,0,0,.952,2.352c.336.392.952,1.12,1.624.5.392-.28.392-.28.672,0,.5-.616,1.288,0,1.624-.56a4.237,4.237,0,0,0,1.064-.392,2.975,2.975,0,0,1,2.24-.84l-.336-.392c.5-.616.84-.728,1.008-.28a.274.274,0,0,1-.336.28c.336.448.56.9.616.5l-.28-.448a.984.984,0,0,0,.336-.672,2.557,2.557,0,0,0,1.736-.672l-.28-.336.952-.336c-.336-.392-.616.336-.952-.056,0-.728.616-.336.616-.672.336.728,1.008.448,1.008,1.176-.112.336-.448,1.008.224,1.12-.672.28,0,.728-.056,1.064-.728.672-.112,1.456-.5,2.184,1.008.056-.392,1.064.616,1.12-.336.392-.056.728-.392,1.12-.392.728.28,1.12-.392,1.456l.616.392-.392.336C-105.084,46.616-104.972,46.728-104.524,46.952Zm-4.256-17.7c-.336-.784-1.68-.5-2.688-.616-3.36.9-4.76,1.4-7.56,3.752-.056.336,0,.392,0,.392,0,.392-.336.336-.336.336l.112.9c.336.56.84,1.344,1.624,1.176l.672-.616c.392-.5.84-.5,1.512-.84a7.159,7.159,0,0,1,1.344-.448,13.408,13.408,0,0,1,3.08-1.12c-.28-1.232,2.128-.728,2.856-1.456l-.224-1.008Zm-1.792,20.384c-.672,0-2.576.056-2.912,1.064.672.336,1.176,1.792,2.184,1.792a.329.329,0,0,0-.336.336c.336.336,1.008.336,1.008,1.008-1.68.336-1.456,3.192-3.136,3.864,0,1.008,1.008.784,1.344,1.12-.336.336-1.008,0-1.344.336a.329.329,0,0,0,.336.336c-.672.336,0,1.008,0,1.008a17.434,17.434,0,0,0,4.088.728c.672-1.008,2.632-1.736,3.3-1.4l-.336-.336c1.008,0,1.008-1.344,1.68-1.008,0-.672-.672-.672-1.008-.672.336-.336,1.008-.336,1.008-.672.336,0,.336,0,.336.336.336-.672-.336-.672-.672-.672,0-.336,0-.672.672-.672-.336-.336.336-2.3-.672-2.632l.336-.336c-1.008-1.344-2.688-1.4-3.7-2.408C-109.06,50.424-110.236,50.312-110.572,49.64Zm.952,7.112c0,.056.336-1.288.336-1.344.168-.336.5-.672.784-.616.112,0,.728.336.784.616a3.244,3.244,0,0,1-.056.9,1.862,1.862,0,0,1-.784.672c-.112.056-1.176.448-1.176.448Zm35.28-20.328c.56,0-.336-.56.392-.672a1.774,1.774,0,0,1-.952-.672,8.161,8.161,0,0,0-3.864,2.744c0,.672-.336,1.008-.336,1.68a.329.329,0,0,1,.336.336s0,.336-.336,0v.672c.336-.336.336,0,.336.336l-.672.336c.336.336.672,0,.672.336a.329.329,0,0,1-.336.336c-.672.672.336,1.176-.336,1.512l.672.672-.336.336c.336.336,0,.672-.336.672.336.672,0,1.008,0,1.68.336,0,.336,0,.336-.336l.336.336-.672,1.344c0,.336.672.672,0,1.008a4.638,4.638,0,0,1,1.008,1.344l-.672.336c1.344,0,.336,1.008.672,1.68s.336-.672.672,0l.672.672a5.338,5.338,0,0,0-2.688,3.36c-1.68.336-.672,2.184-1.68,2.856-.672,1.008.672,1.008,1.008,1.68,0,.336-.112.168-.448.168l-.224.168-.672,1.008c1.68-1.344,1.792,1.568,3.136,1.568l-.336.336.336,1.008c.672-.336,1.568.336,2.24,0l-1.008-.336.336-.336c.672.672.952-.224,1.96.448-.336,0-.28.224-.28.224,1.008-.336,1.344,1.344,2.352.672-.336,0-1.008,0-1.008-.336,0-.672.672,0,1.008-.672.336,0,.336-.336.672,0l-.672.336h.672l.336-.336c.336,0,1.344,0,1.008.336.336,0,.672-.336,1.008-.336l-1.008-.336c.672-.672,1.9,0,2.24,0-.336-1.344,1.008-2.576,1.68-3.248l-.392-.28a6.065,6.065,0,0,0,1.008-1.12l.056-.28-.672-.056a.973.973,0,0,1,.336-.616c.672-.336.672-1.848.672-2.856.672-.672-.672-.84.336-1.176l.336-.672-.336-.336.336-.336a2.02,2.02,0,0,1,.336-1.344l-.672-.336c.336-.336.336-.336.672-.336l-.336-.336h.336c0-.336,0-.672-.336-.672,0-1.68,2.3-2.128,2.968-3.136,1.008.336,1.344-.672,2.016-.672l.336-.336c-.336,0-.168.112-.5-.224a2.088,2.088,0,0,1,.5-1.288c-.672.336-1.008-.784-1.344-1.12,0-1.68-1.96.448-2.968-.224.336-.672,0-.9.336-1.232-.336-.336-.672-1.512,0-1.512-.336-.336-.336-.336-.672-.336l.672-.672c0-.672-.84-1.288-1.176-1.624a4.318,4.318,0,0,0-3.64,2.52v1.512c.672.672-.672.28,0,.616V43.2l.336.336c-.672.672.336,1.68-.336,2.016.336,1.008-1.344,1.008-1.68,1.68C-72.6,47.9-73,49.64-74.676,49.976c0-.336-.672-.672,0-1.008,0-.672-.672-.672-1.008-.672l.336-.336c-.336-.672.672-.672.336-1.008-.336,0-.336-.336-.672-.336V46.28c.336,0,.336,0,.672.336,0-.336,0-.672-.336-.672,1.008-.336.336-1.008.672-1.68-.336,0-.672.336-.672,0,.28-.28.616-.056.672-.224v-.056s-.336-.672,0-.672c0-.672.336-1.512-.336-1.512l.336-.336c.336-.672-.672-.336-.672-.672l.672-.672c-.336,0-.672.336-.672,0l.672-.672c0-.336-.672-.336-.672-.672s.672,0,.672-.336a1.041,1.041,0,0,0-.672-.336l.672-.672C-75.012,37.1-74.676,36.76-74.34,36.424Zm8.512-15.4c-.672-1.68-3.64-.112-4.312.9,0,2.352-1.9,1.232-3.248,2.24-2.352.672-5.712,2.128-7.056,4.144l1.456,1.064A21.8,21.8,0,0,1-74.732,27.8c1.68-.336,2.912-2.352,4.928-1.344-.336,0-.336.336-.672.336.672,1.008-1.344,1.68,0,2.352a.329.329,0,0,1-.336.336c0,.336-.336.672,0,.672.672.672-.336,1.12-.336,1.456.672.336-.336.672.336,1.008-.672.672.336,1.344-.336,2.352.336,0,.336-.336.336,0V35.3c.672.336-.336,1.008,0,1.344l2.3-.336a.723.723,0,0,0-.672-.672c.336-.672,1.008,0,1.008-.672h-.336c-.336-.672.672-.336,1.008-1.008h-.336c.336-.336,0-1.008.672-1.008a1.234,1.234,0,0,0-.336-1.008c-.336-.336.336-.336.672-.672-.336-.336-.672-.336-.672-.672l.336-.336h.336s0-.672-.336-.672c.672-.672-.336-1.12.672-1.456-.336-.672.336-2.016.336-2.688,0,0-.336.336-.336,0,0,0,0-.9.336-.9C-65.156,23.544-67.172,22.032-65.828,21.024Zm-15.624,4.928a2.151,2.151,0,0,1-.616-1.624c-.672-.672-2.744.616-3.752.952-3.024,2.688-6.664,5.656-7.336,10.024.672,0,.336.784.672.784,0,.672-.672,0-.672.672.672-.336.672,0,1.008,0,.392,1.344,3.192.9,5.208.9,1.568-.784,4.312-2.352,4.984-4.032.672-.336,0-1.68,1.008-1.68-1.344-1.008.672-1.344,0-2.688-.672-.672-1.792-2.576-3.472-2.576-.336.336-.56,1.4-1.232,1.736a3.531,3.531,0,0,1,1.176.84c-.672.336.336.672,0,1.008a1.041,1.041,0,0,0,.336.672c.168.84-.168,1.232,0,2.016-1.008,1.344-1.96,2.688-3.976,2.688-1.008-.336-1.064-.672-1.4-1.344.672-.336-.336-1.008.336-1.008-.336-1.68.952-2.968,2.3-4.312,0-.672.28-1.288.952-1.288C-85.26,25.672-82.8,26.96-81.452,25.952Zm12.04,25.872c0,.336,0,.336.336.672,0,.336-1.008-.336-.672.672.336.336.336-.336.336.336-.336,0-.336.336-.672.672a.329.329,0,0,0,.336.336h.336c-.672.672-.672.784-.672,1.456.336.336-1.008,1.12,0,1.12a.465.465,0,0,0,0,.672l-.672.672a.465.465,0,0,1,0,.672l-.336.336c.336.336,0,.672.336.672h.336c-1.344.672-.112,1.4-1.792,1.736-1.344,1.008-2.128.5-3.472.168a2.368,2.368,0,0,1-1.68-1.848c.672,0-.336-1.68.672-2.016.336-.672.672-.28,1.008-.952l.672-.336h-.336c1.344-.672,1.4-2.128,2.744-2.464C-71.26,53.392-71.428,52.16-69.412,51.824Zm-5.264-7.9v.112C-74.676,44.264-74.34,43.592-74.676,43.928Zm37.352-15.9c-2.352.672-.168,4.536-.84,6.216-.336,0,.336.336,0,.672.336,2.016-.336,3.36,0,5.04-.672.672-.336,1.68-.336,2.688-.672,1.008,0,2.352-.672,3.36l.336.336c0,.336,0,1.008-.336,1.008l.224.448c-.672,1.344.112,2.8-.224,4.144l.336.336c.336.336,0,.336-.336.672A4.836,4.836,0,0,0-35.42,54.12l.168-.168.168-.5c-.336-.336-.336-.336-.336-.672s.336-2.52,0-3.192h.336c.336-1.344-.672-2.352.336-3.36-1.008-1.008.672-1.68,0-2.688.672-.672.952-1.344,1.96-1.68a.274.274,0,0,1-.28-.336c1.344-.672,3.3-1.008,4.648-2.016A15.819,15.819,0,0,1-25.4,38.5c0-.336-.336-.336,0-.336a2.893,2.893,0,0,1,.336-.952V36.144c-.672-.672-.672.336-1.008.672l-.336-.336.336-.336c-2.688.336-5.32,1.68-8.008,2.016-1.008-.336.336-1.008-.672-1.68.672-.336,0-.952.336-1.288V34.52c0-.336-.336-1.008,0-1.344,0-1.008,0-2.184-1.008-2.856,0-.336.336,0,.336,0,.336-.672-.672-1.4-.672-2.072ZM-47.46,29.7a16.771,16.771,0,0,0-3.808,4.7,1.746,1.746,0,0,1-1.344.672c0,.336,0,.672.672.672-1.008.336-1.008,1.008-1.344,1.344-.336,1.344-1.4,1.288-2.352,1.736,2.016.784-.336,2.016-.672,3.024-.672,2.016-2.632,4.872-2.632,7.224a3.289,3.289,0,0,0,3.136-.168l.5-.84a6.075,6.075,0,0,0,1.344-2.128.329.329,0,0,1-.336-.336l.672-.672c.336-.336.672-.672.336-1.008a1.26,1.26,0,0,1,2.016,0c.672,2.016,3.36,1.624,4.032,3.64a10.387,10.387,0,0,0,2.688.672c.616-.5.9-1.064,1.792-1.792.5-.728-1.4-1.176-1.736-1.848-2.016-1.344-3.64-3.36-5.656-5.04,1.008-2.352,2.632-4.256,3.976-6.608Zm40.432-4.816c-1.4-.28-3.192-1.176-4.48-1.176-1.624.336-4.816.448-5.376,2.408l.952.336a2.425,2.425,0,0,0-1.96.9c-.784.728-1.176,2.464-1.848,3.136.28.336,0,.616.28.616l-.28.336c.28.392.5,1.232,1.064,1.232-.28.392-1.232,0-1.232.392h.672c.28.616-.392.28-.392.616h.952c0,.336,0,.336-.28.336,1.064.28,2.464,1.008,3.472,1.4.672-.392,2.52,1.176,3.08.224,1.344,0,2.072-1.68,3.024-2.352l.28-.672c-.28-.336.672,0,.672-.616,0-.392.392-1.008-.336-1.344h.336l.392.336H-7.7l-.336-.336.616-.784-.28-.336.672-.56-.672-.392.672-.672L-7.7,27.52l.28-.28.392.28A4.219,4.219,0,0,0-7.028,24.888Zm-3.3,2.352c0,.28-.728-.616-1.008,0,.28.672-.336.672-.728,1.008h-.28c.672.336,1.008,1.288.28,1.624,0,0-.28,0-.28.392.28.28.28.616.672.616l-.392.28-.28-.28c-1.288.616-.784,2.408-2.408,2.408-.672-.28-.056-1.4-.056-1.792.616-.952-.392-1.232.616-2.24h-.224c.168-.056,1.176-.336.56-1.008a1.173,1.173,0,0,0,.672-.336c0-.672.336-.672.9-1.008h-.56c.56-.28,1.064,0,1.68-.28Zm19.88,3.024c-1.344,0-2.968-1.064-4.312-.728a.465.465,0,0,0,0,.672c0,.336-.336,0-.336.336-.672.336,0,1.008.336,1.008l-.336.336c-.336.672.28.672.28,1.008l-.336.9c.336.336,0,1.344.336,1.344,0,.336,0,.336-.336.672,1.008.336.336.5,1.008,1.176a2.9,2.9,0,0,1-2.8,1.344v.336c-1.008,0-1.344,1.344-2.688,1.008A26.077,26.077,0,0,0-7.028,43.7c-.672,0-.336.336-.672.672h1.008c0,1.344-2.016.5-2.24,2.016.672-.336,1.568.224,2.24.56l-.28.336c1.008-.336,1.96,0,2.968-.336-1.344-.336.672-1.008-.336-1.344l.672-.336c.672,0,.672-.336,1.344-.336,0,.336-.336.672-.336,1.008l.672-.672.224-.336c.672-1.008,1.12-.672,1.792-.672-.672-1.68,1.344-.336,1.344-1.68,0,0-.336.336-.336,0,0,0,.672-.336.672,0,1.008-1.344,1.792-.336,2.8-1.008-.672,0-.784,0-1.456-.672a2.978,2.978,0,0,1,2.8,1.008l-.336.672h.336c-.336.336-.672.9-.336,1.232,1.008-.336-.336,1.008.672,1.008l-.672.336,1.008.112-.672.672c.336.336.672.672.672,1.008H6.188c0-.336-1.008-.336-1.008-.336.336,1.344,1.68-.336,2.016,1.008v.336l-.672.336-.336.336a.329.329,0,0,1,.336.336c.672,0,2.52.392,2.856-.28-.672-1.008-2.184.28-2.856-.056.672-.336,2.52-1.288,3.528-.952l-.336-.336c0-.336.336-.336.672-.336l-.672-.672c0-.336.672-.672.672-1.008s-.336,0-.672-.336a2.324,2.324,0,0,1-.728.392c.56-.448,1.008-1.176,1.736-1.064l-1.008-.336c.672-.672.672.336,1.008,0-.336,0-.056-.9-.56-1.008.28-.056.56-.56.56-.9h-.336a.329.329,0,0,1-.336-.336h.672l-.336-.336c.28-.28-.28-.952.224-1.008a.591.591,0,0,1-.224-.5c1.008-.336-.672-1.008.336-1.344l-.336-.336.336-.336c0-.672-.672-.336-.672-.672,0,0,.672-.336.336-.336-.336-.336.336-.336.336-.672l-.672-.336c.336,0,.336-.336.672-.336,0-.336-.672-1.008-.336-1.344l-.336-.336c.336-.336-.168-.9-.5-1.232h.336c0-.336.672-.672,0-.672.672-.336-.336-1.008,0-1.344Zm-14.224,8.96c-.28-1.68-1.736-.728-2.072-1.4-6.048,2.352-12.1,5.208-18.48,7.224.672,1.176,2.352.952,3.36,1.288.336.336,1.344-.672,1.68-.336,1.288.952,1.008-.84,1.68-.672,1.344-.672,1.12-.224,2.464-.56l.336-.672h-.336c.336-.672,1.008,0,1.344,0-1.008,1.344-.56,1.848-.56,3.192h.336c0,.336-.672,0-.672.672,1.008.336-.672,1.344.336,2.016a.723.723,0,0,1-.672.672l.336.336a.329.329,0,0,1,.336.336H-15.6c-.336.336,0,1.064.336,1.064-.672.672,0,1.344-.336,2.016,0,0,.336-.336.336,0l-.672.336.672.672c-1.008,1.008.336,2.016-.672,3.024l.672.336v-.336l.336.336,1.4.784.28.224.448-.056c0-.672-.672-.5.672-1.512,0-.336-.336,0-.672-.336,0-.672.784.112,1.456-.224l-.672-.336-.336.112c-.672-1.008,1.008-.784,1.008-1.456h-.336c-.672-.336.336,0,.336-.672,0,0-.336.336-.336,0V54.96c-.336.336-.336,0-.672,0l.672-.336c0-.336-.672-.336,0-.672l-.336-.336c.336-.672,1.008-.336,1.344-.336v-.336H-11a.329.329,0,0,1-.336-.336c-1.008,0,.28-1.008,0-1.344l.336.28c0-1.008,0-.784-.672-1.12.672,0,.672-.672,1.008-1.008V49.08h-.672l.336-.336c.336-.672-.336-.336-.336-1.008a1.041,1.041,0,0,0,.672-.336H-11v-.336h-.336c-.672-.672.336-.336.336-1.008l-.336-.336h.672c0-1.008-1.008-.336-1.344-1.008.336-.672.672.336,1.344,0,0-.672-.672-.336-.672-.672.336-.336,1.232.224,1.9-.112v-.336c-.336,0-.9-.224-1.232-.224S-11,42.7-11,42.36H-10a10.1,10.1,0,0,1,2.24-1.736l.336.336s.672-.336.336-.672C-6.076,40.288-5.348,38.552-4.676,39.224Zm10.192-.84c-.336,0-.672,1.008-1.344.672.056,0,.672-.336.672-.672C4.676,38.048,5.348,38.048,5.516,38.384Zm1.008,7a.983.983,0,0,0,.9-.112.206.206,0,0,0-.056.168C7.028,45.776,6.86,45.72,6.524,45.384ZM2.268,51.656c-.336-.336-1.008-1.064-1.68-1.064-.672.336-3.136.392-3.136,1.4.672.672,2.8-.672,3.808,0-1.008.336-3.472.672-4.144,1.008-.336.336,0,.336.336,1.008H-3.556c0,.672-1.008,1.456-.672,2.464a.329.329,0,0,1,.336.336c-1.008,0-.336.672-.336,1.344l.168-.112.168.112c-1.008.336-.672,2.856-1.008,3.864h.336c1.008.336,1.344-1.008,2.016,0,1.008-.672,2.24,0,3.248,0v-.672c.336.336.672.336.672.672A1.234,1.234,0,0,0,2.38,61.68H2.044c.336-1.344,1.68.336,2.352-.672C5.4,61.008,6.356,60,7.364,60c1.12-.952.728-.224,2.128-1.232.784-.56,1.792-.5,2.464-1.176l-.336-.336c.336-.336.84-.056,1.176-.056l.056-.784.728-1.008c-.672-.336-1.624.336-2.3.336-4.7,1.68-3.64,1.12-8.008,2.912-.672,0-2.016.9-3.024.224,0-.336.672-.672.672-1.008-.336-.336-1.008,0-1.008-.672.336-.336.672,0,1.008-.336,0-.336-.336-.392-.672-.728.336-.336.672.336,1.008,0V55.8c-.336.336-.672,0-1.008-.336,0-.672,1.008.224,1.344-.448L.924,54.68c-1.344,0,.336-.672-.336-1.008A1.234,1.234,0,0,1,1.6,53.336V53c-.336.336-.672-.336-1.008-.336.672-.336,1.008-.336,1.008-1.008Zm-2.3,2.632.28.728c-.336-.672-2.408-.336-3.08-.672ZM44.436,29.032c-1.344-.336-2.128-1.9-3.472-2.24-.672-.336-2.464-.616-2.744.224,0,.336-.84,1.512-.168,1.848.672-.336,1.064.672,2.072.336.672.672-.056,1.176-.056,1.512.336.672-.336,1.68,0,2.352-1.008,1.344-.616,2.52-2.352,3.752-.336,0-.672.448-1.008.112l.336-.336c-.336-.336-.672,0-.672-.336.672-.336,0-1.176.336-1.176a1.173,1.173,0,0,1-.672-.336l1.008-1.008H36.036c0-.336.336-.336.672-.672,0,0,.336-.672-.336-.672.336-.336.336-.336.672-.336.336-.336.672,0,.336-.336,0-.336,0,0-.336,0l-.336-.336c.336-.672,1.008-.336,1.344-.336.336-.336,1.008-.5.672-1.176-.672-.336-1.512-1.344-2.184-1.344-.672.672-1.736,1.848-1.736,2.52-.336,1.008-1.344,2.352-.672,3.36a1.173,1.173,0,0,1-.672.336c0,.336.336.336.672.672l-.672,1.008c.336.672.728,1.9,1.4,2.24l-.392.28.784.056c.672,0-.336.336,0,.336l.672.336v-.336a7.675,7.675,0,0,0,2.688.168c.672.336,1.456-.168,1.456-.5l-.336-.672c.336.336,1.008-.336,1.344,0l.168-.672a5.586,5.586,0,0,1,1.568-1.344l.616-.56H42.42l.336-.336c.336-.672-.336-.336-.672-.672l.336-.336-.336-.336v-.336l1.344,1.008c-.336-.672.336-.336,1.008-.672-1.344,0-.336-1.344-1.008-1.68.336-.336,1.008,0,1.344-.336-.336-.336-.672-.336-.672-1.008-1.008-.336.336,0,.336-.672a.329.329,0,0,1,.336.336h.336C45.444,30.04,44.436,29.7,44.436,29.032Zm10.808,14.9c1.008-.672-.5-1.736-.84-2.408-.672-.672-2.8.728-3.808.728,0,.336.336.336.336.672l-.336.336a14.552,14.552,0,0,0,.336,1.68c-.672,1.344,0,2.688-.336,3.7-.336.672,0,1.344-.336,2.016.336,1.008-1.008,1.344-1.344,2.016a70.385,70.385,0,0,0-5.712,4.7c-.336.336-.672,1.008-1.344,1.344.336,1.008-1.344,1.792-.672,2.8h.336c.336.672-.336.672-.336,1.008,1.008-.336,1.008.392,1.68,1.064.336.336,1.12.056,1.456,1.064l-.112.112c2.016.336,4.816,2.016,6.832,1.344.28.224-.056.448.616.224l-.336-.336c.336-.336,1.008-.5,1.344-.84A1.041,1.041,0,0,1,52,64.816l1.176-1.12c-.112.056-.28.224-.28-.056.336-.336.336-1.008.672-.672.672-1.008-.336-.784-.672-1.456h.336c.336-.336.336,0,.672,0,.336-.336-.672-.336-1.008-.672.336-.336.336-.336.672-.336.672,0,0-.336,0-.672.336-.336.672,0,.672-.336a.464.464,0,0,1,.336-.784c-.336-.336-.672-.336-.672-.672l.672-.672c-.336-.672.336-1.344-.336-2.016.336-1.344,1.12-.952,1.792-1.624,0-1.68,2.52-.336,2.856-1.68.336-.336.672-1.344,1.344-1.008-.336-.336-.336-.336-.336-.672.28,0,.616-.224.672-.056.056-.9,1.624-.616,1.008-1.624l1.4-.672a2.488,2.488,0,0,1-.224-1.232,6.139,6.139,0,0,0-5.824,1.176c-.672.336-1.344.28-1.68.952l-.336-.336c0-.672.336-.112.672-.448l-1.008-.336c.336-.336,1.008-.784,1.008-1.12l-.672.112c0-.336.336-.336.672-.672-.336-.672-1.344.336-1.68-.672.672-.336,1.008.336,1.68,0,.336-.336-.336,0-.672-.672h.672c-.336-.336-1.008-.5-1.344-1.512l.336-.336c.336.336.672.672.336,1.008ZM58.212,19.96c-.336.056-.728-.616-1.4-.5-.952.784-3.584,1.176-4.536,2.3.784.28.448.616.784.616l-.28.672c1.008.224-.56,1.568.5,1.848l.056.336c-.672,0-.28.672-.28.672a.532.532,0,0,1,.672-.112c0,.336-.672.112-.672.448.672.224-.84,1.736.84,1.568-1.288.84-.56,1.792-.728,3.136a.5.5,0,0,0,.056.672,5.872,5.872,0,0,0,.224,2.352h-.336c-.616.392.5,1.008-.168,1.064,0,.336.336.28.672.28l-.672.392.392.28c-.672.392-.224,1.344-.112,2.016-.056-.056-.112-.28-.392-.28-.28.392.392.672-.28.728.056.672.672.28.728.616h-.336l1.232.952a6.937,6.937,0,0,0,3.36-1.624L57.2,38.1a2.081,2.081,0,0,1-1.232.448c.5-.28.448-1.624,1.176-.784a3.146,3.146,0,0,0,.56-1.456.729.729,0,0,0,.616-.728c-.336.056-.728-.616-1.064-.5.336-.112,1.344-.168,1.176-1.176l-.336-.28s0-.336.336-.056v-.336c-.056-.336-.056-.336-.392-.28-.056-.672.5-1.4.448-2.072,0-.336,0-.336-.336-.672l.56-1.008-.336.056.28-.728c-.392-.28-.112-.56-.112-.9-.056,0-.28.28-.336-.056a4.8,4.8,0,0,0,.56-1.68c.28-.672-.728-.784-.784-1.456a4.686,4.686,0,0,0,.672-.056c.28-.336-.392-.28-.448-.616l.616-.728c-.672-.28-.392-1.008-.784-1.288.9-.784-.336-.392-.112-1.064-.336,0-.28.336-.672.112C56.868,19.792,58.268,20.632,58.212,19.96ZM42.756,43.984c-1.4-1.624-3.92-.224-4.592.448-.336,2.016-.336,4.032-.672,6.048.672.672,0,2.408.672,3.08,0,.336.672,0,.672.336l-.336.336c1.008.336,2.856,1.9,3.864,1.624,0-.672-.56-.336-.56-.672s.336,0,.336-.336a2.07,2.07,0,0,0-.336-1.176c0,.336-.336.672-.672.336l1.008-1.344-.336-.336a.329.329,0,0,1,.336-.336l-.672-.672c.336,0,.672-.5.672-1.176,0,0-.672,0-.336-.336a.329.329,0,0,1,.336-.336l-.336-.336a.329.329,0,0,1,.336-.336,1.173,1.173,0,0,1-.336-.672c.672-.336-.336,0-.336-.672.672,0,1.008-.672,1.344-1.008-.672-.672-1.344.336-2.016,0,0-.336-.336-.672,0-.672C42.476,46.112,41.748,44.656,42.756,43.984ZM50.2,56.64c.056.952-1.008,1.456-.336,2.128,0,.336-.672.672-.336,1.344,0,.336.224.392.56.392-1.68.336-.392,2.408-2.408,2.408-1.008-.336-1.176-.784-1.848-1.456.672-.336-.336-1.008.672-1.344l-.336-.336c.336,0,.672-.336,1.008-.672-.336-.336.672-.672,1.008-1.008C48.86,57.424,49.364,56.3,50.2,56.64Zm40.04-24.472c-.616-1.4-3.864-.728-4.312-.448a.737.737,0,0,0,.336.336,3.467,3.467,0,0,0-1.4.952c-.336.336-1.344,1.008-.784,1.68h-.336c-.672,1.008-1.624.9-2.352,1.9l.336.336c-1.008-.056-1.456-.392-1.848.616-1.064,1.232-3.416,1.064-3.528,2.968l-.56.336-.448.168L73.5,42.08c-.112.616.224.672.56,1.064-.336.28-.56-.112-.672-.112-1.008-.336-1.344,1.008-1.68,1.008l-.056.336c-.336,0-.672.28-1.008-.112l.056-.336c.336-.28,0-.672,0-.672a9.4,9.4,0,0,1,.112-2.352c-.672-.336,0-.56.056-.9-.616-.672.728-1.624.112-2.744.336-.616.784-1.232.448-1.9h.336c.336-.672.056-1.344.112-2.352a1.234,1.234,0,0,1,1.008-.336c-.616-1.008.672-.616.392-1.344a14.554,14.554,0,0,0-4.928,1.624c-1.008.28-1.008,1.624-1.12,2.632-.336.336.336.336.336.672-.336.336-.336,0-.672,0v.336c.336,0,.672,0,.672.336a.329.329,0,0,1-.336.336l-.056.336h-.336c.28.672-1.064.952.28,1.68-.336,0-.336.336-.672.336-.336-.056-.056.672.28.672.672.672-.672.616-.728,1.288a.334.334,0,0,1,.28.392h.336c.336.336-.336.336-.336.672,1.008,1.008-1.456,1.568.224,2.352-.336.28-.672-.056-.672.28a1.3,1.3,0,0,1,1.008.392l-1.064.952c.336,0,1.008-.28,1.008.056-.392.672-1.064,1.456-1.064,2.128.672.056,1.344.056,1.624.728H67c0,1.344-.56-.728-.616-.056l.168.672-.448.392c0-.336-.448-.392-.784-.448,0,.336,0,.336.336.392l.336.336-.392.336c-.056.336.28.672-.056.672.672.056,1.008.392,1.344.056,1.456-.952,3.808-1.512,4.816-2.52v-.336c.728-1.008,2.464-1.9,3.528-3.192L74.9,45.5h.336c0-.336.336,0,.336,0a1.633,1.633,0,0,1,1.4-.56c.056-.672,1.064-.672,1.4-1.344,0-.336-.336-.336-.336-.672.672,0,1.68-.224,2.016-.224,1.12-.952,1.512-2.3,3.192-2.184a1.348,1.348,0,0,1-.616-1.064c.672.056,1.4-.952,1.68-.28,1.064-.28.28,1.344,1.288,1.792l-.672-.112c.56,1.792-.448,3.08.448,5.208L85.036,46l.616,1.4-.672.28c0,.336.616.728.56,1.064-.672-.056-.672.56-1.008.56h.336c.336.448.672.784.28,1.456h.336l-.336.336.28.672-.672-.112.616,1.12c-.952-.112-.336.672-.672.9.336.056.336.392.672.448l-.392.28a5.629,5.629,0,0,0,3.3.448l.28.336c.336,0,.672,0,.728-.336-.392.336-.224-.056-.56-.056.056-1.008.952-.9,1.288-.9-.672-.392-1.344-.056-1.68-.392.672,0,1.344-.616,1.68-.616l.056-.336L89.4,52.16l.672-.616c-.616-.392.112-1.008.112-1.68l-1.008-.056c.672-.616.672-.952,1.456-1.568-.672-.392.336-.672-.336-1.064-.336-.336-.672-.392-.672-.728l.728-.28c.336-.616-.672-.392-1.008-.392,0-.672,1.064-.952,1.064-1.288h-.336a.977.977,0,0,0,.392-.672l-.336-.392c-.336-.672.336.056.336-.28l-.616-.728c.392-.336.336,0,.728-.28,0-.672-.672-.392-.672-.728s0-.56.336-.56a10.167,10.167,0,0,0,.056-1.12c.392-.616-.952-1.68-.616-2.352-.28-.672.392-1.512.392-1.512l-.336-.056-.336-.336c0-.336.336-.336.672-.28l-.28-.728C91.2,33.568,88.228,32.392,90.244,32.168Zm14.616-.616c.28-.056.056-.5.392-.672-.224,0-.784.168-1.12.168a.685.685,0,0,1-.5-.168c-1.008.672-2.688.56-3.36,1.9l.336.336c-1.4,0-1.4,2.128-1.68,3.024,0,0,.672,0,.672.336a.985.985,0,0,0-.336-.056c-.224,0-.28.112-.28.336,0,.112.056.224.056.392a.6.6,0,0,1-.112.336c.112,0,.056.168,0,.168v1.176c.056.056.056.112.056.224,0,.224-.168.56-.168.84,0,.336.168.224.168.448,0,.168-.28.392-.28.56s.392.336.392.616c0,.224-.168.448-.168.672a.649.649,0,0,1,.336.616c0,.392-.224.9-.224,1.288a.836.836,0,0,0,.56.784c-.336.112-.392.28-.392.448,0,.28.112.56.112.784,0,.168-.112.336-.392.448.336.112.448.392.448.784,0,.5-.168,1.176-.168,1.736a9.913,9.913,0,0,0,.056,1.288c-.168.056-.224.168-.224.224,0,.224.616.56.616,1.12a.71.71,0,0,1-.056.336,4.176,4.176,0,0,1,1.456-.224c.56,0,1.12.112,1.792.112a4.489,4.489,0,0,0,1.848-.672c.056,0,.112.056.168.112V50.7c.672,0,1.68-1.008,2.352-1.008l-.336-.336c.672-.336,1.68-.336,2.352-.672a.609.609,0,0,1-.056-.28c0-.616,1.12-.112,1.4-.728a.423.423,0,0,1-.056-.224c0-.224,1.288-1.288,1.288-1.288.056,0,.112.056.112.168,1.344-.336,1.792-1.736,3.136-2.408a.946.946,0,0,1-.112-.28l.112-.224a.484.484,0,0,1-.336-.168l.336-.336c.168-.28.336-.392.5-.392.392,0,.672.728,1.176.728a.206.206,0,0,1,.056.168c0,.224-.168.5-.168.728,0,.168.056.336.448.448h-.336a.71.71,0,0,1,.056.336c0,.616-.448,1.232-.448,1.736a.711.711,0,0,0,.392.616l-.336.336v.336l-.336.672c0,.336.336.336.336.672h-.336v.336c.336.336.336.336.672.336a1.341,1.341,0,0,0-.672,1.344s.168-.168.224-.168.112.056.112.168a.329.329,0,0,1-.336.336,21.794,21.794,0,0,0,.336,2.912c0,.336,0,.336-.336.336l.336.336a.329.329,0,0,1-.336.336l.336.336-.336.5c.952.168-.056,1.736.952,1.736a1.093,1.093,0,0,0,.392-.056c0,.336-.336.336-.672.336,0,.5.728.952.728,1.344,0,.112-.112.224-.392.336a17.97,17.97,0,0,1,2.912.728V60.5a.71.71,0,0,0,.336.056h.056c-.056,0-.056,0-.056.056h.616c-.112-.056-.168-.112-.224-.112a3.462,3.462,0,0,1,.9-.224l-.056-.28c0-.168.448-.224.448-.5-.336,0,.112-.392,0-.672-.672-.336-1.008,0-1.68-.336l.336-.336a.291.291,0,0,0,.224.112c.168,0,.336-.224.392-.224.336,0,.168-1.176.056-.9a.685.685,0,0,1-.5.168c-.448,0-.952-.168-1.176-.168,0-.28.112-.392.28-.392.28,0,.728.28,1.064.28a.348.348,0,0,0,.336-.224.49.49,0,0,0-.5-.28c-.168,0-.392.056-.56.056-.112,0,.448-.56.392-.616l-.168-.56-.168-.224c.336-.336,1.008,0,1.344-.336-.5,0-.28-.616-.728-.616-.112,0-.28.056-.392.056a.425.425,0,0,1-.224-.112l.336-.336h-.336l.336-.336c0-.336,0-.336-.336-.672a.329.329,0,0,1,.336-.336v.448c.168-.336.28-1.008.56-1.12-.168.056-.392.168-.448.168s-.112-.056-.112-.168a1.4,1.4,0,0,1,.784-.224c.616,0,1.176.28,1.792.28.168,0,.224-.5.616-.5a.206.206,0,0,1,.168.056v-.28c1.512-.336,2.072-2.576,3.024-2.688a.329.329,0,0,1,.336-.336.337.337,0,0,0,.224.056c.784,0,.56-1.848,1.96-1.848.28,0,.5.112.728.112a.468.468,0,0,0,.5-.336.173.173,0,0,0-.112-.056c-.112,0-.056.28-.224.28-.056,0-.168-.056-.336-.224.336-.336,0-1.008.672-1.344a1.252,1.252,0,0,0,.56.168c.784,0,.952-1.736,1.792-1.736-.336-.168-.5-.784-.616-.784-.168,0-.224.056-.392.224l.056.224c-.224.168-.224.336-.392.336-.28,0-.5-.168-.672-.56a3.729,3.729,0,0,0-1.736-.224,3.248,3.248,0,0,0-2.016.56.609.609,0,0,1,.056.28c0,.168-.112.224-.28.224s-.336-.056-.5-.056-.28.056-.28.224c-2.016.336-2.688,2.352-4.368,2.688-.336-.336-1.344-.336-1.344-1.008h.672a.817.817,0,0,1-.28-.448.256.256,0,0,1,.28-.224c-.336-.336-.672,0-.672-.336l.336-.336c0-.224.336-.448.5-.448.112,0,.168,0-.168-.224.336-.336.672-.672.672-1.008h-.336s-.224.224-.224-.112c-.224,0-.224-.056-.336-.056-.056,0-.112-.056-.112-.168s.056-.168.112-.168c.112,0,.336.168.56.168,0-.336.336,0,.336-.672h-.336c.224-.224.056-.56.168-.672-.224-.056-.392-.5-.392-.5,0-.224.616,0,.9-.5,0-.28-.448-.784-.448-.952,0-.056.056-.112.112-.168h.336L122,38.16v-.336l.336-.336h-.672c0-.5.56-.616.56-.84,0-.056-.056-.168-.224-.336l.672-.336c-.336,0-.672,0-.672-.336.672-.336.336-.336.672-1.008a.71.71,0,0,1-.336.056c-.672,0-1.008-.784-1.68-.784a.71.71,0,0,0-.336.056c0-.28.448-.336.448-.336a16.4,16.4,0,0,0-3.7-.224,1.663,1.663,0,0,0-.28,1.008,1.547,1.547,0,0,0,.28,1.008c-.5.112-.56.5-.56.84v.672c0,.84-1.848.672-1.848,1.456a.423.423,0,0,0,.056.224c-.448,1.288-2.24,1.512-2.24,2.24a10.076,10.076,0,0,1-2.576,2.016c-1.344,1.344-2.632,1.68-4.312,3.024l-1.008.728c-.392,0-.728-.56-1.232-.56l.336-.336c0-.672-.672-.336-1.008-.672.224,0,.616-.168.9-.168a1.161,1.161,0,0,1,.336.112c-.28-.336-.336-.952-.9-1.288,0-.224.56-.336.56-.448,0-.056-.056-.112-.224-.224,0-.336,0-1.344.336-1.68-.336-.336-.336-.336-1.008-.336.336-.336.672-.336.672-1.008,0,0-.168.168-.28.168-.056,0-.056-.056-.056-.168l.336-.336L102,39.336a4.638,4.638,0,0,0,1.344-1.008l-.336-.672h.672c-.672-.224-.56-.224-.56-.28a.433.433,0,0,0-.448-.392.291.291,0,0,1,.224-.112c.168,0,.336.224.392.224s.056-.056.056-.112c0-.168-.112-.392-.112-.616l-.224-.392.336-.672a1.041,1.041,0,0,0-.336-.672l.112-.84c-.056,0-.112-.056-.112-.168v-.336c.168-.336.224-.392.336-.392l.056-.28c0-.448.9-.672.9-1.232A.472.472,0,0,0,104.86,31.552Zm6.384-4.088c1.344,0,1.176-1.68,2.128-1.736-.336-.112-1.064-.616-1.4-.616-1.12,0-2.352.56-3.528.56a1.905,1.905,0,0,1-.56-.056c-3.36,1.68-5.208,1.9-8.9,2.912-1.008.672-3.192.616-4.2,1.288l.336.616c.28,0,1.568,1.064,2.016,1.064a.428.428,0,0,0,.28-.112c1.008-.672,2.576,0,3.248-1.008a.774.774,0,0,0,.5.28l.672-.5a1.9,1.9,0,0,0,.56.056c1.064,0,1.96-.728,3.136-.728C107.212,28.808,109.564,28.472,111.244,27.464Zm11.088,23.352c0,.336.728,0,.728.5,0,.056-.056.112-.168.112a2.3,2.3,0,0,1-.9-.28l.168-.28Zm-5.6-8.232c-.168.168-.336.28-.672,0-.28-.28-.168-.336,0-.336C116.4,42.248,116.732,42.248,116.732,42.584ZM105.308,30.32h.336c-.056,0-.112-.056-.168-.056S105.364,30.32,105.308,30.32Z" transform="translate(131.068 39.675)" fill="#222"/></svg>