<svg xmlns="http://www.w3.org/2000/svg" width="802.652" height="77.751" viewBox="0 0 802.652 77.751"><path d="M64.53-46.53c-1.62-1.62-3.69-.54-5.58,1.35-.45,1.35-2.52,2.88-3.6,4.5-2.7,3.24-4.86,5.94-7.56,9.72-.54,1.08-1.62,1.71-2.16,2.79-1.62,1.62-1.53,3.24-3.69,3.78-.54,0,0-.54,0-.54a10.527,10.527,0,0,1,.54-4.32l-.54-.54.54-.54c-1.08-1.62.54-3.24-.54-4.86,1.62-.54,0-1.08,1.08-2.16a3.923,3.923,0,0,0-2.79-3.6c-.54.54-4.32,1.53-4.86,3.15,0,2.16-2.79,2.52-3.87,4.68-.54,1.08-2.07,1.08-2.61,2.7-2.16,0-2.16,2.16-4.32,2.7-3.78,3.78-5.76,4.86-10.62,8.1a4.094,4.094,0,0,1-2.16-1.08c0-.54.54-.54,1.08-.54-.54-1.08-1.08-1.98-.54-3.06v-.54h-.54l1.08-.54a2.375,2.375,0,0,1-.54-2.7l.45-.27.45-2.07h.72c-1.08-1.08,0-2.16,0-3.24v-1.08a1.012,1.012,0,0,0,0-1.62c1.08-3.78,2.52-.54,4.68-2.7,2.7,0,7.02-2.52,9.72-3.6-.54-1.08-3.78-2.88-4.32-3.42-5.4,1.08-9.72,3.24-15.12,4.32C6.12-39.51-.36-38.34.18-33.84c2.16.54,3.51-.54,5.67-1.08l1.89-.54c.54,0,1.08-.45,1.62.09-1.62,1.62-1.08,4.23-2.16,5.85l.54.54c-1.62,0-.54,1.62-1.62,2.7-.54.54.54,1.08.54,1.08l-.54.54v.54c-1.62,1.62.54,2.7-.54,4.32.54,0,1.08,0,1.08.54.54,1.08-1.08.54-1.08,1.62a1.672,1.672,0,0,1,1.08.54v.45c-2.7,0,1.08,3.06-1.08,3.6-.54,1.08.54,1.08,1.08,1.08-1.62,1.17-1.71.27-1.08,1.62,3.78,1.08,8.19-2.52,11.43-4.14,2.16-2.7,5.4-3.24,7.02-5.94,1.08.54,1.08-1.08,1.62-1.08a5.844,5.844,0,0,0,2.7-2.16c2.7-1.62,3.69-3.24,5.85-5.4a1.161,1.161,0,0,1,1.08,1.08c-.54,1.08,0,1.08-.54,2.16h.54c0,1.08,0,1.62-.54,2.16l.54.54-.54.54c.54,0,.54,0,.54.54a2.971,2.971,0,0,0-.18.99l-.36.63v1.08c-.54,1.08,1.62,1.08,0,2.7h.54c.54,0,0,.54,0,.54l.54.54-.54.54c3.24.54,8.19-1.08,9.81-3.78.54-.54.54-1.08,1.08-1.08.54-.54,0-1.08-.54-1.08.54-.54,1.08-.54,2.16-.54.54-.54,0-1.08,0-2.16.54-1.08,2.16-1.62,3.24-2.16,0,0-1.08,0-1.08-.54s.54-.54,1.08-.54c-.54-.54.54-.54.54-.54l-.54-.54c.54-1.08,1.8-.81,1.89-1.53.18-2.7,1.98-1.17,1.98-2.79l-.54.54v-.54c0-1.08,1.53-.54,1.53-1.08l-.45-.54,1.08-1.08c.54-.54.99,0,1.53.54a.44.44,0,0,1-.45.54c0,1.08-.63,2.16.45,2.7l-1.62,1.08c0,.54,1.08.54,1.08,1.08h-.54c.45.54.09.99.36,1.08-1.35.09-.36,1.08-.36,1.62-1.62,1.08,1.08,2.16-.54,3.24v1.08c0,.54,1.08,1.62,0,1.62l-.54,1.08c1.62.54,0,2.16,0,2.16.54.54-1.08,1.08,0,1.62l-.54.54a1.3,1.3,0,0,0,1.08,2.16c0,.54-.54.54-1.08.54,0,.54,0,1.08.54,1.08a.529.529,0,0,1-.54.54c0,2.16-.54,5.04,0,7.2,1.08,0,4.95,2.16,6.03.54h-.54c1.08-1.08,1.62-1.62,1.08-2.7l.54-.54c-1.62-.54,1.08-2.16-.54-3.24H63c-1.08-1.62.54-3.42-.54-4.5l.54-.54c.54,0,.54-.54,0-1.08s0-1.08.54-1.08c0-.54-.54-.54-.54-1.08l.54-.54c0-.54.54-1.08,0-1.08-.54-.54,0-1.08.54-1.08-.54-1.08,0-2.7,0-3.24v-.54l.54-.54c-1.08-1.08.54-2.16-.54-3.24.54-.54,1.62-.54,1.08-1.62-.54,0-.54-.54-1.08-.54.54-.54,1.08-1.08.54-1.62,2.16-1.62.54-7.11,1.62-9.27a9.409,9.409,0,0,1,0-2.25c-.54-1.08-.63-2.7-1.71-2.7Zm47.7,31.14c1.26-.63,1.98-.63,1.98-1.98l1.17-.18a4.411,4.411,0,0,0-3.15-1.98c-1.26.63-5.94.9-5.94,2.88,1.35,1.26,2.61-1.35,4.5,0a45.486,45.486,0,0,0-5.13,1.89c-.63.63,0,.63.63,1.98H104.4c0,1.26-1.98,2.52-1.35,4.5,0,0,.72,0,.72.63-1.98,0-.72,1.26-.72,2.61l.36-.27.36.27c-1.98.63-1.53,5.67-2.16,7.56h.63c1.98.63,4.59-1.89,5.85,0,1.98-1.26,2.61,0,4.5,0V1.26c.72.63,1.35.63,1.35,1.26a2.314,2.314,0,0,0,1.89-.63h-.63c.63-2.61,3.24.63,4.5-1.26a27.567,27.567,0,0,0,5.49-2.52c1.53-1.08,3.15-1.08,4.41-2.34l-.63-.63c.63-.72,1.26,0,1.89,0v-.72l1.17-1.53.81-.99c-.99-1.35-3.24-.18-4.5-.18-9.09,3.24-3.42.81-11.88,4.23-1.26,0-2.97,1.26-4.86,0,0-.63,1.26-1.26,1.26-1.89-.63-.72-1.89,0-1.89-1.35.63-.63,1.26,0,1.89-.63,0-.63-.63-.36-1.26-.99.63-.72,1.26.63,1.89,0v-.72c-.63.72-1.26,0-1.89-.63,0-1.26,1.89.63,2.61-.63l-1.35-.63c-2.52,0,.63-1.26-.63-1.98a2.408,2.408,0,0,1,1.98-.63v-.63C113.49-14.13,112.86-15.39,112.23-15.39ZM92.34-59.22c-.99-.72-5.31-.99-6.48-.72-.09.54.18.72.09,1.26,0,0-.54.54-.54-.18l-1.8,6.57.54.72c-1.89.36-.36,1.62-1.53,2.07l.45.45c-1.17.54-.27,1.8-1.35,1.62.45.63-.72,1.44-.18,1.53.45.81-.18,1.17-.18,1.17l.99.81c-.63.45-.63.45-1.17.27.45.63,1.08.27,1.44.9-.09.45-.54.54-.63,1.17-2.61,2.34-6.3,2.79-9.81,3.87,1.71,1.89,5.04,2.79,7.38,2.61,8.64-2.07,17.01-4.41,25.74-6.93.72-.36,2.61-.99,2.88-3.06a25.658,25.658,0,0,0-13.14.72c-2.79-.36-4.32,3.24-7.02,1.71,1.17-.36-.36-1.62.72-1.35l.18-1.08c.09-.63,0,0-.45-.72l1.17-.99-1.08-.09c.09-.54.09-.54.63-.45l.81-.54h-.63a13.005,13.005,0,0,1,1.8-4.86c.18-1.08.72-2.61.45-3.78,0,0,.54-.54,1.08-.36-.45-.63-.99-.72-.9-1.26C92.34-58.05,92.25-58.68,92.34-59.22Zm10.08,28.8c-1.89-1.26-5.13-2.43-6.93-3.6-2.43-1.26-4.95,2.25-6.75,1.53-1.17.63-1.26,1.98-.09,1.98v.54c-1.89,0-1.89,1.89-1.98,3.15.63.45-1.8.99,0,2.34h-.63l.63.63a.617.617,0,0,1-.63.63l-.09.54c.54.72.72-.54,1.89,0-.63,1.17-1.35.72-1.89,1.17-.63,1.26,1.26,1.89,1.8,2.43L86.4-17.82l1.98-.09c.54,1.26,3.06,2.07,3.06,3.33,1.26,0,2.88,1.26,3.51-.54,1.89.63,4.32-1.35,5.58-2.07-.45-1.8,1.08-2.79,1.62-3.42a.614.614,0,0,1,.45-.63h-.45a1.1,1.1,0,0,1,0-1.71c-.45-.63-1.08-.63-1.08-1.26l1.8-.63a.561.561,0,0,0-.63-.54c0-.63-.54-.63,0-1.26l.18-1.17c.54-.54-.63-1.44-1.26-1.98Zm20.97-19.17a28.233,28.233,0,0,0-2.25-3.24c-1.17.54-5.13,1.89-5.85,4.05.54,0,1.62.09,1.71-.45.45.09.99.63.45.63a2.168,2.168,0,0,1-1.62.36c0,.54-1.26,1.62-.18,1.62,0,1.08-.18,3.24-.18,4.32-.09,1.08-1.26,2.61.36,2.7-.63.54-1.17.54-.63,1.08,1.08.54-.18,2.16-.18,2.16,2.16.72-.54,1.08.99,2.16l-.72.45.63.09c0,1.08-1.17,3.24-1.17,4.32h1.08l-.63,1.08.45.54-.63.54h.63c1.98,2.34,4.77-.9,6.3-.27,2.79-.45,1.17-.63,3.33-.99,1.62.54,1.62-2.16,3.15-1.44,1.89-1.35,3.15-2.16,6.66-1.17-.36-.81-.54-1.53.54-1.26a15.114,15.114,0,0,0-.36-2.7c-5.85-2.61-6.3-.81-11.88,1.08-.54-1.08-1.62-.27-1.44-1.89.54,0,.54-.54.54-1.08.63-1.53.18-1.35-.36-2.43l1.17-.99a10.1,10.1,0,0,0-1.98-1.89h.54a4.754,4.754,0,0,0,.72-2.61l-.54-.09.54-.45c-.54-.54-.45-1.62-.45-2.16h.54c.63-.99-.99-.63-.45-1.62C122.49-49.86,123.3-48.51,123.39-49.59ZM95.04-25.83c0,1.17,1.44.63,2.07,1.17l-2.07.45c.72.72,0,.27.54.9l1.44.63c-1.98,0-.72,1.35-1.44,2.07l.45.45c-.72,0-1.35-.45-1.35,0-.09.36.63.63.72.63-.54.18-1.08.63-1.53.63-1.98-1.71-.36-3.33-1.98-4.59.45-.09,2.07-1.35.45-1.89H91.8s0-.45-.63-.45h-.63c.63-.63,2.52,0,2.61-1.98l.63-.54c-.63-.54-.63-1.08-1.17-.54l.9-1.08c3.24.72.27,2.16,2.07,4.14Zm20.43,8.28h-.09c0,.09,0,.18.09.18Zm51.3-35.37c-2.7-1.08-7.65.09-9.81,1.17l1.62.54c0,.54-2.07.45-2.07.45-2.16-1.62-5.49,1.89-7.11,1.89.54.54-1.08,1.08-.54,1.08,1.08,1.08-.36,1.71.18,2.25l1.44,2.07c-.54.54-1.62,0-1.62,1.08,1.08,1.08,3.6,0,4.68,1.08a1.672,1.672,0,0,0,.54-1.08c-.54,0-.54-.54-.54,0l-.54-.54v-.54c0-1.62,2.88-.72,3.42-2.34,1.08,0,2.88-1.08,3.96-.54.54,1.08.54,1.08-.54,1.62,0,1.62-.54,3.87,0,5.49a10.011,10.011,0,0,1-1.08,3.78l1.08,1.08h-.54c0,3.78-1.62,7.47-1.08,11.79h.54c.54.54,2.16,0,2.16,1.62,1.62-1.62,1.98.54,4.14,0,2.7-1.62,6.48-2.7,9.18-4.86.54-.54,1.08-1.62,1.62-1.62v-.54c2.16,0,.9-1.89,1.44-2.43h-.54a1,1,0,0,1-.99-.99c2.16.54.81-2.7,2.79-1.89-2.16-2.16-3.24-.09-4.86-.09,0,.54,1.08-.09,1.08.99-3.24.54-4.14,1.17-7.38,2.79-.54,0-1.62.54-2.16-.54l1.08-.54-1.08-.54c0-1.08.54-.99,1.08-1.53-.54-.54-1.08-1.44-.54-1.98,1.08,0,0-.72.54-1.8-.54,0,0-1.62-.54-2.16a.529.529,0,0,0,.54-.54c0-.54,0-1.08.54-1.08-1.62-1.08-.54-2.7.54-3.24-1.62-1.62.54-3.24-1.08-3.78l.54-.54c0-1.08.54-1.17-.54-1.71C166.32-50.67,167.85-51.84,166.77-52.92Zm-18.72,4.77c-.54-1.62-4.86-1.62-5.94-1.08-.54,1.08-1.08,1.62,0,2.16l-.54,1.08v1.89a1.241,1.241,0,0,1,.54.9c0,.54-.54.54-.54,1.08a.748.748,0,0,1,0,1.08.529.529,0,0,0,.54.54c0,.54,0,.54-.54.54-.54.54,0,1.08.54,1.62l-.54.54c.54.54-1.08,1.62.54,2.16-.54.54,0,1.62-.54,1.62.54.54,0,1.62.54,1.62,0,.54.54,1.62,0,2.16l.54,1.08-.54.54c1.08,1.62.54,5.22,2.16,5.76l-.54.54c.54,1.62,2.16,1.08,2.7,1.62a.529.529,0,0,1-.54.54c0,.54,2.79.63,4.41,0-.54-.54,0-1.08,0-1.62s-1.17-1.08-1.71-1.08c2.16,0,.54-2.52,1.08-3.06-1.62-1.62,0-4.32-2.16-5.94h1.08c-.54-.54-.54-1.62-1.08-2.16l.54-.54a1.672,1.672,0,0,1-.54-1.08h.54v-.54c0-.54-.54,0-1.08-.54,0-.54,1.08-.54,1.08-1.08s0-1.08-1.08-1.62c0-.54.54-.54,1.08-1.08-1.08-.54.54-1.08-.54-1.08l.54-1.08c-1.08-1.08.54-3.87-1.08-4.95Zm45.36-1.44c-.81-2.79-4.41-5.22-6.03-5.76-.54,0-1.8.09-1.8.9l.72,1.44-.54.81.54.63h-.54c-.27,2.43.36,5.58.54,7.83-.99,1.53.18,2.97-.81,3.78l.45.63c.18,1.53-.27,4.59-.09,6.84-.45.72-.36,2.88.81,3.42-.54.9-.54.9-1.08.9a3.712,3.712,0,0,0,1.26,2.79,4.736,4.736,0,0,0-1.62.36c.09,1.35.54,1.35,1.08,1.17.18,1.44-.9.81-.9,1.62.18,1.44,1.35.81,1.35,1.53,1.08-.18,3.42-.99,3.87-1.89,1.26,1.35,1.08-1.62,1.62-.9l.45-1.53c-.54-.63-1.08-1.35-1.62-1.26a1.959,1.959,0,0,1,1.98-1.8,3.7,3.7,0,0,0-.63-2.07,1.574,1.574,0,0,1,1.08-1.62c-.09-.54-1.26-.45-1.26-1.26.45-.81,1.08-.81.99-1.53h-.63c1.08-.9.45-1.44.45-2.25h-.54c.45-.81.45-1.44,1.08-1.62-2.34-1.98.72-5.31-.63-8.1C192.33-47.97,192.24-49.41,193.41-49.59ZM176.67-16.11c-1.08-1.08-4.32-3.42-5.4-3.42,0,1.08-2.43,2.34-1.35,3.42l-.27.72a11.3,11.3,0,0,0-2.16,3.24c0,.54-1.62,2.16,0,2.7,0,.54-.54.54-1.08.54-1.08,1.62,1.08,1.62,1.08,2.7l-.99.45-.09,2.25a.748.748,0,0,1,1.08,0,.529.529,0,0,1-.54.54c0,1.08-.54,3.69.54,4.23,1.53,0,2.7,1.08,3.6,1.62,1.08,1.08,2.16-1.08,3.24,0h2.16c.54,1.08,1.62-1.08,2.7,0,0,.54-.54,0-.54.54a12.434,12.434,0,0,0,4.86-1.62c1.08,0,1.62,1.08,2.7.54l.18-.45c0-.54-.18-.09-.18-.63,2.16.54,3.51-1.26,5.67-1.26,1.08-2.7,3.78-.54,5.4-3.24-1.62.54,0-3.24-.54-3.78a.529.529,0,0,0-.54.54.529.529,0,0,1-.54-.54.529.529,0,0,1,.54-.54c-3.24-2.16-6.75,1.26-9.45,1.8-4.32,1.62-7.38,3.6-12.78,3.06-1.08-1.08-.72-.99-1.26-2.61.54,0,.18-1.08.18-1.08l-.54.54c-.54,0-.54,0-.54-.54l.54-.54c0-1.08-1.62,0-2.16-.54,1.08-.54,0-1.08,1.62-1.08,0,1.08,1.62,0,2.16.54.54-.54-1.08-1.62.54-1.62l-.54-.54c-.54.54-1.62,0-2.16-.54h1.62c-1.08-.54,0-1.62-.54-1.62-.54-1.62,2.16-1.08,1.62-2.16-.54.54-1.08,1.08-2.16.54,1.08-.54.54-1.62,1.08-1.62l.54-.54C175.05-17.19,175.59-16.65,176.67-16.11ZM234-36.54c3.42-1.26,5.31-2.07,9.09-2.16,1.08.09,2.25-.9,3.33-.81.63-.99,2.25-.27,3.33-.72,1.62.18,1.71-.36,3.33-.18.63-.99,4.23-.45,3.87-2.97-1.08-.09-3.15-.9-4.23-.45a13.035,13.035,0,0,0-2.52-1.26l-1.17.27-1.08-.09a5.4,5.4,0,0,0-3.33.72c-1.44-1.8-2.97.18-4.5-.54-1.71.36-3.42,1.8-4.95.54.09-.54,1.08-.45.63-.99l-.45-.63c0-.54,1.08-.45,1.08-.45.72-.99-.36-1.08-.9-1.17.63-.99,1.62-.81,2.25-1.26l-.45-.63-.54-.54c.63-.54.63-.54.09-.54l.54-.54c.18-1.08.18-1.62-.9-1.71l.63-.45.09-.54.54-.54c.18-.99.27-1.17-.27-1.8l.63-.45.09-.54c0-.54.09-1.08.63-1.08l.99-1.17,1.26-3.15c-.45-1.35-3.06-1.8-6.66-.99a53.867,53.867,0,0,1-7.11,1.53c-2.61-.27-5.04,1.62-7.74,1.35-1.71,1.44-6.12,1.71-8.37,2.52,1.26,1.98,4.59,2.25,6.66,2.61,2.25-1.35,5.04-1.44,7.83-2.25,1.62.18,3.78-1.71,5.85-.45a3.756,3.756,0,0,0-.9,2.25c-1.08.45.36,1.53-.81,2.43-.63,1.08.36,1.71-.81,2.16.54.54-.09,1.62.36,2.16l-.63.63c-.72,1.53.9,1.44,1.44,1.98-.63.54-1.08-.36-1.71.09.54.09.45,1.17.36,1.71l-.54-.09.54.63-.63.45a.536.536,0,0,1,.45.63c-1.08.36,0,.54-.63.99-1.62-.18-2.25.72-3.87.54-2.25.9-4.95.63-6.21,2.07-4.95.54-9.27,2.88-13.23,4.59-1.62.36-3.96,1.8-3.15,4.05,1.17-.45.99,2.43,1.53,2.52.18-1.62,1.71-.36,2.79-.27.72-1.53,2.07-1.44,2.7-2.43,1.08.63,6.03-1.44,5.49-1.08,2.79-.27,5.22-2.7,8.37-1.8l.09-.54a13.592,13.592,0,0,0,3.87-.99c-.09,1.17-.45,2.52-.45,3.6-.54.54,0,.54.54,1.08-1.62.54.54,1.62-1.08,2.16-.54,1.08.54,1.08.54,2.16,0,0-.54,0-.54,1.08,1.62,0,0,1.62,0,1.62l.54.54c0,.54.54,1.62-.54,1.62.54.54,3.6,0,4.14.54l.54-1.08c0,.54,0,.54.54.54-.54-.54.54-2.16,0-2.7a.529.529,0,0,1,.54-.54c-.09.09.27-1.53-.54-1.08,0-.54,0-.54.54-.54-1.62-2.16,2.7-2.16.54-3.78a19.186,19.186,0,0,1,1.08-5.4c-.54,0-.09-.45-.09-.99Zm9.99,16.02c-1.08,0-2.07-1.17-2.7-1.08a130.894,130.894,0,0,0-21.96,5.04c-1.62.36-4.41,0-4.41,2.16,2.16.54,4.68,3.96,7.38,2.88-.54,0-1.08,0-1.08-.54.54-.54,1.62,0,2.16-.54.54,0,2.16-1.62,4.32-1.08,2.7-1.62,4.68,0,7.92-1.62.54.54,1.62,0,2.16,0,.54.54-.54,1.08.54,1.62-1.08,1.62-.54,2.52-1.08,4.14-1.08,1.08.54,2.16-.54,2.7,0,2.7-.9,5.22-.36,6.84-1.08,1.62-.54,3.24-.54,5.4,0,0,.54-.54.54,0l-.54.54c-1.08-.54,0,1.62-1.08,1.62.54.54.54,1.62,1.62,1.62-.54,1.08-1.08,0-1.62,0,0,.54-.54,1.62,0,1.62s0,.54,0,.54c.54.54,2.16,0,2.16,1.08,1.62.54,3.51-.54,4.59-.54l-1.08-.54c.54-1.08,1.62-1.08,1.62-2.16a1.035,1.035,0,0,1-.54-1.62h.54l-.54-.54c.54-.54.54-.54,1.08-.54V5.94c-.54-1.62.54-2.7-.54-3.78.54,0,.54-.54,1.08-.54l-1.08-.54.54-.54c0-.54.54-1.08-.54-1.08l.9-2.52c-.54-.54.54-1.08.54-1.08l-.54-1.08a1.161,1.161,0,0,0,1.08-1.08c-1.62-.54-.54-2.16-.54-2.16-.54,0,0-.54,0-.54a.529.529,0,0,1,.54.54c0-1.08.54-2.16,0-3.24,0-.54.54-.54,1.08-.54-.54-.54-.54-1.08-1.62-1.62l1.62-1.08c-.54,0-.09-.99-.9-1.08a1.158,1.158,0,0,0,.9-1.08l-.54-.54.54-.54Zm52.38-17.91a2.908,2.908,0,0,1-2.43-1.98c-1.17-.81-4.77-.45-4.95,1.17.54.09.54.09.99.72a.536.536,0,0,1-.63.45c.45.63-.36,2.16.54,3.33l-.54.45c.45.63.18,2.25.09,2.79-.72.99.81,2.25-.27,2.7,1.53.18-.27,1.53.18,2.16-.18,1.08-.81,1.53.09,2.79-1.53,3.06.36,4.95-.45,7.02,1.35,1.8-.45,3.51.9,5.4l-.63.45c2.61.9-1.62,3.6,2.07,4.14l-.63.45a2.479,2.479,0,0,0,.36,1.71c-.27,1.53,3.06,2.34,4.05,3.06,1.08.18,3.24,2.61,5.04,1.8-.9-1.8.54-4.32-.81-6.12l.54-.45c-.81-1.8-.54-3.42-.81-5.04-.45-1.17-1.44-1.35-1.35-2.43.54.09.63-.45,1.17-.36l-1.8-2.79,1.71-.36c-.99-.63-.45-1.08-.9-1.71l-.54-.09.9-2.07.09-.54-.9-1.17h.54l-.99-.63c.09-1.08,1.08-.36,1.17-.9-1.53-.81.18-1.08-.81-1.8.54.09,1.08.18,1.26-.9-.54-.09-.45-.63-.36-1.17-.63.45-1.62-.18-2.16-.27.63-.45,1.17-.36,2.25-.81l-.45-1.08a.536.536,0,0,1,.63-.45l.09-.54-.54-.09c-.54-.09-1.26.9-1.62-.27a1.911,1.911,0,0,1,1.17-.36l-.45-.63c-.81-1.8,1.8-.81.9-2.61.36-2.07-1.98-.81-2.43-1.98.99.72,1.89-1.35,2.97-1.17l-.99-.72Zm.36-2.16-2.16-.27-.09.54Zm17.73,14.94a6.147,6.147,0,0,0-.54,3.78l-.45.36-.09.72.45.18s.09-.18.09.36c0,0,0,.54-.54,0v2.16h.54v.54l2.7,1.8c1.26-.45,3.24.9,4.68,1.17-.09.18,0,.36.27.63l-.63.63a.525.525,0,0,0,.54.63l-.45,2.34-.18.81-.27,1.89c1.17.72-.63,1.89-.18,3.06-2.34,2.7-7.74-.27-9.63,3.87a14.826,14.826,0,0,0-.36,2.88c1.08,1.26,1.71,0,2.97.63l-.72.63c1.89-1.08,1.71,1.89,3.6.81-.54,0-1.17-.09-1.17-.72l1.35-.54c.45.63,2.7-.45,3.87-.36l-.54.63c1.8.09,2.52-1.71,4.23-1.08,1.35-1.08,2.43.18,3.78-.99,2.34-.99,4.41-.72,7.38-1.44.72-2.34,3.69-.9,5.67-2.61.09-.63,1.89-.54,3.15-1.08a8.7,8.7,0,0,0,3.78-1.8,6.831,6.831,0,0,0,1.17-2.16L345.33-9A160.38,160.38,0,0,1,328.5-5.4a3.16,3.16,0,0,1-1.89-2.79l-.09-.72.72-1.17c.09-.54-.54-.72-.54-1.26l.27-1.62-.54-.72.63-.54-1.17-.72,1.26-.45c-.36,0-.36-.18-.36-.54h.81c0-2.16,2.16-1.08,2.16-2.16,0-.54.72-.36.18-.9l.54-.72c.54.54.54-.09,1.08.45l.54-.72c1.62,0,.09-2.7,2.25-2.16,0-.54.54-1.62,0-1.62,0-.54.54-.9,0-1.44-.54-1.08,0-3.24-1.62-3.78-1.08-3.24-5.58-4.86-7.74-6.48-1.62.54-5.49,1.44-7.11,2.52,1.62,3.24-3.42,2.43-2.88,5.13C314.46-26.73,315.54-26.19,314.46-25.65Zm10.98-32.94c0-2.25-3.51,0-4.68-.54a4.082,4.082,0,0,0-1.98,1.26c-4.59-.54-1.08,3.51-2.79,5.22h.54l-1.08,1.17.54.54c-1.08,0,.54,1.71-1.08,2.34,1.62,0,0,1.08,1.08,1.08l-.09.54s.54-.54.54,0c.63.63,0,1.17-.54,1.17,0,.54,0,.54.54.54l-.54.63c0,.54.54.54,1.17,1.08l-.63.63c-.54,0-1.71,1.08-2.25,1.08-2.52,1.53-5.4.99-7.56,2.61-.18.18-1.17,1.89-1.35,2.07,1.71,1.17,3.6.54,5.31.54,2.25,1.17,5.67-1.08,7.92,0h1.17c.36-.36.45-.18.54-.09.09-.99,1.71-.99,1.17-2.16.54-2.25,3.42-.54,3.96-2.25,1.17,0,2.25-1.17,3.96-.63l-1.08-.54c1.08-.54,2.79-.54,3.96-1.71v.54l.54-.54c1.71-.54,2.88-1.17,3.96-1.17.63-1.62,3.69-.9,4.41-2.16a3.7,3.7,0,0,0-1.71-1.8c-2.52-1.17-4.68-.18-7.2.36-2.88,1.08-5.04,1.71-7.83,2.79-.63,0-.63-.54-1.17-.54l.45-1.44c.18-2.07-.09-4.05.72-5.49.54-.54-1.17-1.71.54-2.25v-.54C324.9-56.88,324.36-57.96,325.44-58.59Zm-6.75,34.02-.09-.72c1.08.54,1.08,0,2.16-.54l-.54-.54.72-.54.09-.81.27-.99s-.45-.18-.54-.54c1.08-.54,2.52-.54,3.06-1.62h1.08l-.54.54c1.08.54,1.62,1.62,2.7,2.16-1.08,1.08,1.08,1.26.54,2.34-1.08,1.62-1.08,2.97-2.7,4.05-2.16,1.08-3.6,4.23-6.3,2.07l.54-.54-.09-.45.45-.9.18-.27c-.27-.45.81-1.26.54-2.34Zm75.24-13.05c-.09-1.98-3.15-3.96-4.14-4.5a8.294,8.294,0,0,0-5.13,2.34c-.99.99-2.97,2.16-2.52,3.69-1.98.99-1.98,3.24-2.97,5.22h.54c-1.53,1.44-.99,2.97-1.53,4.41h.54c0,.54.99,2.25.45,2.7.99,1.98,3.42,4.5,5.85,4.5,1.53,0,5.04-.99,6.57-.99l-.54-.54c.54-.99.99-.99,1.98-1.44l-.27-.36c0-.45-.18-.63.27-.63l-.99-.99c2.52-.99.99-3.69,2.52-4.68,0-.54-.54-.99,0-.99.99,0,0-.54.45-.99h-1.44c.45-.99,1.44,0,1.44-.99a.474.474,0,0,1-.45-.54c.99-1.44-.99-1.98-.99-2.97s-1.53-.45-1.98-1.44c-.54,0-2.79-.72-2.79-.18-.99.45-.81,2.16-.27,2.61-.99.54.99,1.53,0,2.52-.54,3.42-.81,4.95-2.79,7.92a1.808,1.808,0,0,1-1.53-.54,7.69,7.69,0,0,0-.81-1.26c-.09-.63-.36-1.35.09-1.35l-.09-1.8c0-.99.99-1.53,1.53-2.52h-.99a6.254,6.254,0,0,1,2.43-3.69c-.45-1.53,1.26-1.44,1.71-2.97C390.06-39.51,391.95-36.63,393.93-37.62Zm26.91,16.65c.45-.09,3.42-.54,3.87-2.16.63-.63,1.17-1.17,1.71-1.08-.54-.72-.54-.72-.54-1.26.09-.63-.9-1.8.72-2.34l-.54-.63.54.09a3.683,3.683,0,0,0-.36-2.52l.54-.36a11.971,11.971,0,0,1,.27-2.7s0-1.53.54-1.53c-1.08-.72-.36-2.34-.36-3.51a9.275,9.275,0,0,1-.81-4.32c1.08-.45-.45-1.8-.45-2.43,1.26-2.16.81-5.31-.09-7.11a43.968,43.968,0,0,0-4.05-2.07c-2.34,2.88-1.62,6.84-1.89,10.98.54.63-1.08,1.08-.09,2.34,0,0,.45.63-.09.63-.45-1.26-2.07-.18-2.61.27-5.49,1.44-5.76,2.61-10.8,3.96-1.62.63-4.14-.36-5.76,1.17a11.931,11.931,0,0,0,1.53,3.78c.54.63,1.53,1.8,2.61.81.63-.45.63-.45,1.08,0,.81-.99,2.07,0,2.61-.9a6.809,6.809,0,0,0,1.71-.63,4.781,4.781,0,0,1,3.6-1.35l-.54-.63c.81-.99,1.35-1.17,1.62-.45a.44.44,0,0,1-.54.45c.54.72.9,1.44.99.81l-.45-.72a1.581,1.581,0,0,0,.54-1.08,4.11,4.11,0,0,0,2.79-1.08l-.45-.54,1.53-.54c-.54-.63-.99.54-1.53-.09,0-1.17.99-.54.99-1.08.54,1.17,1.62.72,1.62,1.89-.18.54-.72,1.62.36,1.8-1.08.45,0,1.17-.09,1.71-1.17,1.08-.18,2.34-.81,3.51,1.62.09-.63,1.71.99,1.8-.54.63-.09,1.17-.63,1.8-.63,1.17.45,1.8-.63,2.34l.99.63-.63.54C419.94-21.51,420.12-21.33,420.84-20.97ZM414-49.41c-.54-1.26-2.7-.81-4.32-.99-5.4,1.44-7.65,2.25-12.15,6.03-.09.54,0,.63,0,.63,0,.63-.54.54-.54.54l.18,1.44c.54.9,1.35,2.16,2.61,1.89l1.08-.99c.63-.81,1.35-.81,2.43-1.35a11.506,11.506,0,0,1,2.16-.72,21.549,21.549,0,0,1,4.95-1.8c-.45-1.98,3.42-1.17,4.59-2.34l-.36-1.62Zm-2.88,32.76c-1.08,0-4.14.09-4.68,1.71,1.08.54,1.89,2.88,3.51,2.88a.529.529,0,0,0-.54.54c.54.54,1.62.54,1.62,1.62-2.7.54-2.34,5.13-5.04,6.21,0,1.62,1.62,1.26,2.16,1.8-.54.54-1.62,0-2.16.54a.529.529,0,0,0,.54.54c-1.08.54,0,1.62,0,1.62a28.019,28.019,0,0,0,6.57,1.17c1.08-1.62,4.23-2.79,5.31-2.25l-.54-.54c1.62,0,1.62-2.16,2.7-1.62,0-1.08-1.08-1.08-1.62-1.08.54-.54,1.62-.54,1.62-1.08.54,0,.54,0,.54.54.54-1.08-.54-1.08-1.08-1.08,0-.54,0-1.08,1.08-1.08-.54-.54.54-3.69-1.08-4.23l.54-.54c-1.62-2.16-4.32-2.25-5.94-3.87C413.55-15.39,411.66-15.57,411.12-16.65Zm1.53,11.43c0,.09.54-2.07.54-2.16.27-.54.81-1.08,1.26-.99.18,0,1.17.54,1.26.99a5.212,5.212,0,0,1-.09,1.44,2.993,2.993,0,0,1-1.26,1.08c-.18.09-1.89.72-1.89.72Zm56.7-32.67c.9,0-.54-.9.63-1.08a2.851,2.851,0,0,1-1.53-1.08,13.116,13.116,0,0,0-6.21,4.41c0,1.08-.54,1.62-.54,2.7a.529.529,0,0,1,.54.54s0,.54-.54,0v1.08c.54-.54.54,0,.54.54l-1.08.54c.54.54,1.08,0,1.08.54a.529.529,0,0,1-.54.54c-1.08,1.08.54,1.89-.54,2.43l1.08,1.08-.54.54c.54.54,0,1.08-.54,1.08.54,1.08,0,1.62,0,2.7.54,0,.54,0,.54-.54l.54.54-1.08,2.16c0,.54,1.08,1.08,0,1.62a7.455,7.455,0,0,1,1.62,2.16l-1.08.54c2.16,0,.54,1.62,1.08,2.7s.54-1.08,1.08,0l1.08,1.08a8.579,8.579,0,0,0-4.32,5.4c-2.7.54-1.08,3.51-2.7,4.59C456.84.54,459,.54,459.54,1.62c0,.54-.18.27-.72.27l-.36.27-1.08,1.62c2.7-2.16,2.88,2.52,5.04,2.52l-.54.54.54,1.62c1.08-.54,2.52.54,3.6,0l-1.62-.54.54-.54c1.08,1.08,1.53-.36,3.15.72-.54,0-.45.36-.45.36,1.62-.54,2.16,2.16,3.78,1.08-.54,0-1.62,0-1.62-.54,0-1.08,1.08,0,1.62-1.08.54,0,.54-.54,1.08,0l-1.08.54h1.08l.54-.54c.54,0,2.16,0,1.62.54.54,0,1.08-.54,1.62-.54l-1.62-.54c1.08-1.08,3.06,0,3.6,0-.54-2.16,1.62-4.14,2.7-5.22l-.63-.45a9.748,9.748,0,0,0,1.62-1.8l.09-.45-1.08-.09a1.564,1.564,0,0,1,.54-.99c1.08-.54,1.08-2.97,1.08-4.59,1.08-1.08-1.08-1.35.54-1.89l.54-1.08-.54-.54.54-.54a3.247,3.247,0,0,1,.54-2.16l-1.08-.54c.54-.54.54-.54,1.08-.54l-.54-.54h.54c0-.54,0-1.08-.54-1.08,0-2.7,3.69-3.42,4.77-5.04,1.62.54,2.16-1.08,3.24-1.08l.54-.54c-.54,0-.27.18-.81-.36a3.356,3.356,0,0,1,.81-2.07c-1.08.54-1.62-1.26-2.16-1.8,0-2.7-3.15.72-4.77-.36.54-1.08,0-1.44.54-1.98-.54-.54-1.08-2.43,0-2.43-.54-.54-.54-.54-1.08-.54l1.08-1.08c0-1.08-1.35-2.07-1.89-2.61-2.52-.18-5.31,2.43-5.85,4.05v2.43c1.08,1.08-1.08.45,0,.99V-27l.54.54c-1.08,1.08.54,2.7-.54,3.24.54,1.62-2.16,1.62-2.7,2.7-3.24,1.08-3.87,3.87-6.57,4.41,0-.54-1.08-1.08,0-1.62,0-1.08-1.08-1.08-1.62-1.08l.54-.54c-.54-1.08,1.08-1.08.54-1.62-.54,0-.54-.54-1.08-.54v-.54c.54,0,.54,0,1.08.54,0-.54,0-1.08-.54-1.08,1.62-.54.54-1.62,1.08-2.7-.54,0-1.08.54-1.08,0,.45-.45.99-.09,1.08-.36v-.09s-.54-1.08,0-1.08c0-1.08.54-2.43-.54-2.43l.54-.54c.54-1.08-1.08-.54-1.08-1.08l1.08-1.08c-.54,0-1.08.54-1.08,0l1.08-1.08c0-.54-1.08-.54-1.08-1.08s1.08,0,1.08-.54a1.672,1.672,0,0,0-1.08-.54l1.08-1.08C468.27-36.81,468.81-37.35,469.35-37.89Zm13.68-24.75c-1.08-2.7-5.85-.18-6.93,1.44,0,3.78-3.06,1.98-5.22,3.6-3.78,1.08-9.18,3.42-11.34,6.66l2.34,1.71a35.038,35.038,0,0,1,6.84-2.52c2.7-.54,4.68-3.78,7.92-2.16-.54,0-.54.54-1.08.54,1.08,1.62-2.16,2.7,0,3.78a.529.529,0,0,1-.54.54c0,.54-.54,1.08,0,1.08,1.08,1.08-.54,1.8-.54,2.34,1.08.54-.54,1.08.54,1.62-1.08,1.08.54,2.16-.54,3.78.54,0,.54-.54.54,0v.54c1.08.54-.54,1.62,0,2.16l3.69-.54a1.161,1.161,0,0,0-1.08-1.08c.54-1.08,1.62,0,1.62-1.08h-.54c-.54-1.08,1.08-.54,1.62-1.62h-.54c.54-.54,0-1.62,1.08-1.62a1.984,1.984,0,0,0-.54-1.62c-.54-.54.54-.54,1.08-1.08-.54-.54-1.08-.54-1.08-1.08l.54-.54h.54s0-1.08-.54-1.08c1.08-1.08-.54-1.8,1.08-2.34-.54-1.08.54-3.24.54-4.32,0,0-.54.54-.54,0,0,0,0-1.44.54-1.44C484.11-58.59,480.87-61.02,483.03-62.64Zm-25.11,7.92a3.457,3.457,0,0,1-.99-2.61c-1.08-1.08-4.41.99-6.03,1.53-4.86,4.32-10.71,9.09-11.79,16.11,1.08,0,.54,1.26,1.08,1.26,0,1.08-1.08,0-1.08,1.08,1.08-.54,1.08,0,1.62,0,.63,2.16,5.13,1.44,8.37,1.44,2.52-1.26,6.93-3.78,8.01-6.48,1.08-.54,0-2.7,1.62-2.7-2.16-1.62,1.08-2.16,0-4.32-1.08-1.08-2.88-4.14-5.58-4.14-.54.54-.9,2.25-1.98,2.79a5.675,5.675,0,0,1,1.89,1.35c-1.08.54.54,1.08,0,1.62a1.672,1.672,0,0,0,.54,1.08c.27,1.35-.27,1.98,0,3.24-1.62,2.16-3.15,4.32-6.39,4.32-1.62-.54-1.71-1.08-2.25-2.16,1.08-.54-.54-1.62.54-1.62-.54-2.7,1.53-4.77,3.69-6.93,0-1.08.45-2.07,1.53-2.07C451.8-55.17,455.76-53.1,457.92-54.72Zm19.35,41.58c0,.54,0,.54.54,1.08,0,.54-1.62-.54-1.08,1.08.54.54.54-.54.54.54-.54,0-.54.54-1.08,1.08a.529.529,0,0,0,.54.54h.54c-1.08,1.08-1.08,1.26-1.08,2.34.54.54-1.62,1.8,0,1.8a.748.748,0,0,0,0,1.08l-1.08,1.08a.748.748,0,0,1,0,1.08l-.54.54c.54.54,0,1.08.54,1.08h.54c-2.16,1.08-.18,2.25-2.88,2.79-2.16,1.62-3.42.81-5.58.27-1.62-.54-2.16-1.35-2.7-2.97,1.08,0-.54-2.7,1.08-3.24.54-1.08,1.08-.45,1.62-1.53l1.08-.54h-.54c2.16-1.08,2.25-3.42,4.41-3.96C474.3-10.62,474.03-12.6,477.27-13.14Zm-8.46-12.69v.18C468.81-25.29,469.35-26.37,468.81-25.83Zm60.03-25.56c-3.78,1.08-.27,7.29-1.35,9.99-.54,0,.54.54,0,1.08.54,3.24-.54,5.4,0,8.1-1.08,1.08-.54,2.7-.54,4.32-1.08,1.62,0,3.78-1.08,5.4l.54.54c0,.54,0,1.62-.54,1.62l.36.72c-1.08,2.16.18,4.5-.36,6.66l.54.54c.54.54,0,.54-.54,1.08,1.08,1.08,4.14,2.43,6.03,1.89l.27-.27.27-.81c-.54-.54-.54-.54-.54-1.08s.54-4.05,0-5.13h.54c.54-2.16-1.08-3.78.54-5.4-1.62-1.62,1.08-2.7,0-4.32,1.08-1.08,1.53-2.16,3.15-2.7a.44.44,0,0,1-.45-.54c2.16-1.08,5.31-1.62,7.47-3.24,1.62-.54,3.78-1.62,4.86-1.62,0-.54-.54-.54,0-.54a4.649,4.649,0,0,1,.54-1.53v-1.71c-1.08-1.08-1.08.54-1.62,1.08l-.54-.54.54-.54c-4.32.54-8.55,2.7-12.87,3.24-1.62-.54.54-1.62-1.08-2.7,1.08-.54,0-1.53.54-2.07v-1.08c0-.54-.54-1.62,0-2.16,0-1.62,0-3.51-1.62-4.59,0-.54.54,0,.54,0,.54-1.08-1.08-2.25-1.08-3.33Zm-16.29,2.7a26.955,26.955,0,0,0-6.12,7.56,2.805,2.805,0,0,1-2.16,1.08c0,.54,0,1.08,1.08,1.08-1.62.54-1.62,1.62-2.16,2.16-.54,2.16-2.25,2.07-3.78,2.79,3.24,1.26-.54,3.24-1.08,4.86-1.08,3.24-4.23,7.83-4.23,11.61a5.285,5.285,0,0,0,5.04-.27l.81-1.35a9.763,9.763,0,0,0,2.16-3.42.529.529,0,0,1-.54-.54l1.08-1.08c.54-.54,1.08-1.08.54-1.62a2.025,2.025,0,0,1,3.24,0c1.08,3.24,5.4,2.61,6.48,5.85a16.693,16.693,0,0,0,4.32,1.08c.99-.81,1.44-1.71,2.88-2.88.81-1.17-2.25-1.89-2.79-2.97-3.24-2.16-5.85-5.4-9.09-8.1,1.62-3.78,4.23-6.84,6.39-10.62Zm64.98-7.74c-2.25-.45-5.13-1.89-7.2-1.89-2.61.54-7.74.72-8.64,3.87l1.53.54a3.9,3.9,0,0,0-3.15,1.44c-1.26,1.17-1.89,3.96-2.97,5.04.45.54,0,.99.45.99l-.45.54c.45.63.81,1.98,1.71,1.98-.45.63-1.98,0-1.98.63h1.08c.45.99-.63.45-.63.99h1.53c0,.54,0,.54-.45.54,1.71.45,3.96,1.62,5.58,2.25,1.08-.63,4.05,1.89,4.95.36,2.16,0,3.33-2.7,4.86-3.78l.45-1.08c-.45-.54,1.08,0,1.08-.99,0-.63.63-1.62-.54-2.16h.54l.63.54h.54l-.54-.54.99-1.26-.45-.54,1.08-.9-1.08-.63,1.08-1.08-1.08-.63.45-.45.63.45A6.781,6.781,0,0,0,577.53-56.43Zm-5.31,3.78c0,.45-1.17-.99-1.62,0,.45,1.08-.54,1.08-1.17,1.62h-.45c1.08.54,1.62,2.07.45,2.61,0,0-.45,0-.45.63.45.45.45.99,1.08.99l-.63.45-.45-.45c-2.07.99-1.26,3.87-3.87,3.87-1.08-.45-.09-2.25-.09-2.88.99-1.53-.63-1.98.99-3.6h-.36c.27-.09,1.89-.54.9-1.62a1.886,1.886,0,0,0,1.08-.54c0-1.08.54-1.08,1.44-1.62h-.9c.9-.45,1.71,0,2.7-.45Zm31.95,4.86c-2.16,0-4.77-1.71-6.93-1.17a.748.748,0,0,0,0,1.08c0,.54-.54,0-.54.54-1.08.54,0,1.62.54,1.62l-.54.54c-.54,1.08.45,1.08.45,1.62l-.54,1.44c.54.54,0,2.16.54,2.16,0,.54,0,.54-.54,1.08,1.62.54.54.81,1.62,1.89-1.08,1.62-2.34,2.16-4.5,2.16v.54c-1.62,0-2.16,2.16-4.32,1.62a41.909,41.909,0,0,0-11.88,6.48c-1.08,0-.54.54-1.08,1.08h1.62c0,2.16-3.24.81-3.6,3.24,1.08-.54,2.52.36,3.6.9l-.45.54c1.62-.54,3.15,0,4.77-.54-2.16-.54,1.08-1.62-.54-2.16l1.08-.54c1.08,0,1.08-.54,2.16-.54,0,.54-.54,1.08-.54,1.62l1.08-1.08.36-.54c1.08-1.62,1.8-1.08,2.88-1.08-1.08-2.7,2.16-.54,2.16-2.7,0,0-.54.54-.54,0,0,0,1.08-.54,1.08,0,1.62-2.16,2.88-.54,4.5-1.62-1.08,0-1.26,0-2.34-1.08,1.62-.54,3.42.54,4.5,1.62l-.54,1.08h.54c-.54.54-1.08,1.44-.54,1.98,1.62-.54-.54,1.62,1.08,1.62l-1.08.54,1.62.18-1.08,1.08c.54.54,1.08,1.08,1.08,1.62h-.54c0-.54-1.62-.54-1.62-.54.54,2.16,2.7-.54,3.24,1.62v.54l-1.08.54-.54.54a.529.529,0,0,1,.54.54c1.08,0,4.05.63,4.59-.45-1.08-1.62-3.51.45-4.59-.09,1.08-.54,4.05-2.07,5.67-1.53l-.54-.54c0-.54.54-.54,1.08-.54l-1.08-1.08c0-.54,1.08-1.08,1.08-1.62s-.54,0-1.08-.54a3.735,3.735,0,0,1-1.17.63c.9-.72,1.62-1.89,2.79-1.71l-1.62-.54c1.08-1.08,1.08.54,1.62,0-.54,0-.09-1.44-.9-1.62.45-.09.9-.9.9-1.44h-.54a.529.529,0,0,1-.54-.54h1.08l-.54-.54c.45-.45-.45-1.53.36-1.62a.949.949,0,0,1-.36-.81c1.62-.54-1.08-1.62.54-2.16l-.54-.54.54-.54c0-1.08-1.08-.54-1.08-1.08,0,0,1.08-.54.54-.54-.54-.54.54-.54.54-1.08l-1.08-.54c.54,0,.54-.54,1.08-.54,0-.54-1.08-1.62-.54-2.16l-.54-.54c.54-.54-.27-1.44-.81-1.98h.54c0-.54,1.08-1.08,0-1.08,1.08-.54-.54-1.62,0-2.16Zm-22.86,14.4c-.45-2.7-2.79-1.17-3.33-2.25-9.72,3.78-19.44,8.37-29.7,11.61,1.08,1.89,3.78,1.53,5.4,2.07.54.54,2.16-1.08,2.7-.54,2.07,1.53,1.62-1.35,2.7-1.08,2.16-1.08,1.8-.36,3.96-.9l.54-1.08h-.54c.54-1.08,1.62,0,2.16,0-1.62,2.16-.9,2.97-.9,5.13h.54c0,.54-1.08,0-1.08,1.08,1.62.54-1.08,2.16.54,3.24a1.161,1.161,0,0,1-1.08,1.08l.54.54a.529.529,0,0,1,.54.54h-.54c-.54.54,0,1.71.54,1.71-1.08,1.08,0,2.16-.54,3.24,0,0,.54-.54.54,0l-1.08.54,1.08,1.08c-1.62,1.62.54,3.24-1.08,4.86l1.08.54v-.54l.54.54,2.25,1.26.45.36.72-.09c0-1.08-1.08-.81,1.08-2.43,0-.54-.54,0-1.08-.54,0-1.08,1.26.18,2.34-.36l-1.08-.54-.54.18c-1.08-1.62,1.62-1.26,1.62-2.34h-.54c-1.08-.54.54,0,.54-1.08,0,0-.54.54-.54,0V-8.1c-.54.54-.54,0-1.08,0l1.08-.54c0-.54-1.08-.54,0-1.08l-.54-.54c.54-1.08,1.62-.54,2.16-.54v-.54h-.54a.529.529,0,0,1-.54-.54c-1.62,0,.45-1.62,0-2.16l.54.45c0-1.62,0-1.26-1.08-1.8,1.08,0,1.08-1.08,1.62-1.62v-.54H570.6l.54-.54c.54-1.08-.54-.54-.54-1.62a1.673,1.673,0,0,0,1.08-.54h-.54v-.54h-.54c-1.08-1.08.54-.54.54-1.62l-.54-.54h1.08c0-1.62-1.62-.54-2.16-1.62.54-1.08,1.08.54,2.16,0,0-1.08-1.08-.54-1.08-1.08.54-.54,1.98.36,3.06-.18v-.54c-.54,0-1.44-.36-1.98-.36s-.54-1.08-.54-1.62h1.62a16.233,16.233,0,0,1,3.6-2.79l.54.54s1.08-.54.54-1.08C579.06-31.68,580.23-34.47,581.31-33.39Zm16.38-1.35c-.54,0-1.08,1.62-2.16,1.08.09,0,1.08-.54,1.08-1.08C596.34-35.28,597.42-35.28,597.69-34.74Zm1.62,11.25a1.58,1.58,0,0,0,1.44-.18.331.331,0,0,0-.09.27C600.12-22.86,599.85-22.95,599.31-23.49Zm-6.84,10.08c-.54-.54-1.62-1.71-2.7-1.71-1.08.54-5.04.63-5.04,2.25,1.08,1.08,4.5-1.08,6.12,0-1.62.54-5.58,1.08-6.66,1.62-.54.54,0,.54.54,1.62h-1.62c0,1.08-1.62,2.34-1.08,3.96a.529.529,0,0,1,.54.54c-1.62,0-.54,1.08-.54,2.16l.27-.18.27.18c-1.62.54-1.08,4.59-1.62,6.21h.54c1.62.54,2.16-1.62,3.24,0,1.62-1.08,3.6,0,5.22,0V2.16c.54.54,1.08.54,1.08,1.08a1.984,1.984,0,0,0,1.62-.54h-.54c.54-2.16,2.7.54,3.78-1.08,1.62,0,3.15-1.62,4.77-1.62,1.8-1.53,1.17-.36,3.42-1.98,1.26-.9,2.88-.81,3.96-1.89l-.54-.54c.54-.54,1.35-.09,1.89-.09l.09-1.26,1.17-1.62c-1.08-.54-2.61.54-3.69.54-7.56,2.7-5.85,1.8-12.87,4.68-1.08,0-3.24,1.44-4.86.36,0-.54,1.08-1.08,1.08-1.62-.54-.54-1.62,0-1.62-1.08.54-.54,1.08,0,1.62-.54,0-.54-.54-.63-1.08-1.17.54-.54,1.08.54,1.62,0v-.54c-.54.54-1.08,0-1.62-.54,0-1.08,1.62.36,2.16-.72l-1.08-.54c-2.16,0,.54-1.08-.54-1.62a1.984,1.984,0,0,1,1.62-.54v-.54c-.54.54-1.08-.54-1.62-.54,1.08-.54,1.62-.54,1.62-1.62Zm-3.69,4.23.45,1.17c-.54-1.08-3.87-.54-4.95-1.08Zm71.46-40.59c-2.16-.54-3.42-3.06-5.58-3.6-1.08-.54-3.96-.99-4.41.36,0,.54-1.35,2.43-.27,2.97,1.08-.54,1.71,1.08,3.33.54,1.08,1.08-.09,1.89-.09,2.43.54,1.08-.54,2.7,0,3.78-1.62,2.16-.99,4.05-3.78,6.03-.54,0-1.08.72-1.62.18l.54-.54c-.54-.54-1.08,0-1.08-.54,1.08-.54,0-1.89.54-1.89a1.885,1.885,0,0,1-1.08-.54l1.62-1.62h-1.62c0-.54.54-.54,1.08-1.08,0,0,.54-1.08-.54-1.08.54-.54.54-.54,1.08-.54.54-.54,1.08,0,.54-.54,0-.54,0,0-.54,0l-.54-.54c.54-1.08,1.62-.54,2.16-.54.54-.54,1.62-.81,1.08-1.89-1.08-.54-2.43-2.16-3.51-2.16-1.08,1.08-2.79,2.97-2.79,4.05-.54,1.62-2.16,3.78-1.08,5.4a1.885,1.885,0,0,1-1.08.54c0,.54.54.54,1.08,1.08l-1.08,1.62c.54,1.08,1.17,3.06,2.25,3.6l-.63.45,1.26.09c1.08,0-.54.54,0,.54l1.08.54v-.54a12.335,12.335,0,0,0,4.32.27c1.08.54,2.34-.27,2.34-.81l-.54-1.08c.54.54,1.62-.54,2.16,0l.27-1.08a8.977,8.977,0,0,1,2.52-2.16l.99-.9H657l.54-.54c.54-1.08-.54-.54-1.08-1.08l.54-.54-.54-.54v-.54l2.16,1.62c-.54-1.08.54-.54,1.62-1.08-2.16,0-.54-2.16-1.62-2.7.54-.54,1.62,0,2.16-.54-.54-.54-1.08-.54-1.08-1.62-1.62-.54.54,0,.54-1.08a.529.529,0,0,1,.54.54h.54C661.86-48.15,660.24-48.69,660.24-49.77Zm17.37,23.94c1.62-1.08-.81-2.79-1.35-3.87-1.08-1.08-4.5,1.17-6.12,1.17,0,.54.54.54.54,1.08l-.54.54a23.388,23.388,0,0,0,.54,2.7c-1.08,2.16,0,4.32-.54,5.94-.54,1.08,0,2.16-.54,3.24.54,1.62-1.62,2.16-2.16,3.24-3.24,2.16-5.94,4.86-9.18,7.56-.54.54-1.08,1.62-2.16,2.16.54,1.62-2.16,2.88-1.08,4.5h.54c.54,1.08-.54,1.08-.54,1.62,1.62-.54,1.62.63,2.7,1.71.54.54,1.8.09,2.34,1.71l-.18.18c3.24.54,7.74,3.24,10.98,2.16.45.36-.09.72.99.36l-.54-.54c.54-.54,1.62-.81,2.16-1.35a1.672,1.672,0,0,1-1.08-.54l1.89-1.8c-.18.09-.45.36-.45-.09.54-.54.54-1.62,1.08-1.08,1.08-1.62-.54-1.26-1.08-2.34h.54c.54-.54.54,0,1.08,0,.54-.54-1.08-.54-1.62-1.08.54-.54.54-.54,1.08-.54,1.08,0,0-.54,0-1.08.54-.54,1.08,0,1.08-.54a.745.745,0,0,1,.54-1.26c-.54-.54-1.08-.54-1.08-1.08l1.08-1.08c-.54-1.08.54-2.16-.54-3.24.54-2.16,1.8-1.53,2.88-2.61,0-2.7,4.05-.54,4.59-2.7.54-.54,1.08-2.16,2.16-1.62-.54-.54-.54-.54-.54-1.08.45,0,.99-.36,1.08-.09.09-1.44,2.61-.99,1.62-2.61l2.25-1.08a4,4,0,0,1-.36-1.98,9.866,9.866,0,0,0-9.36,1.89c-1.08.54-2.16.45-2.7,1.53l-.54-.54c0-1.08.54-.18,1.08-.72l-1.62-.54c.54-.54,1.62-1.26,1.62-1.8l-1.08.18c0-.54.54-.54,1.08-1.08-.54-1.08-2.16.54-2.7-1.08,1.08-.54,1.62.54,2.7,0,.54-.54-.54,0-1.08-1.08h1.08c-.54-.54-1.62-.81-2.16-2.43l.54-.54c.54.54,1.08,1.08.54,1.62Zm4.77-38.52c-.54.09-1.17-.99-2.25-.81-1.53,1.26-5.76,1.89-7.29,3.69,1.26.45.72.99,1.26.99l-.45,1.08c1.62.36-.9,2.52.81,2.97l.09.54c-1.08,0-.45,1.08-.45,1.08a.854.854,0,0,1,1.08-.18c0,.54-1.08.18-1.08.72,1.08.36-1.35,2.79,1.35,2.52-2.07,1.35-.9,2.88-1.17,5.04a.806.806,0,0,0,.09,1.08c-.36,1.71.27,2.7.36,3.78h-.54c-.99.63.81,1.62-.27,1.71,0,.54.54.45,1.08.45l-1.08.63.63.45c-1.08.63-.36,2.16-.18,3.24-.09-.09-.18-.45-.63-.45-.45.63.63,1.08-.45,1.17.09,1.08,1.08.45,1.17.99h-.54l1.98,1.53c1.08-.09,4.41-1.35,5.4-2.61l-.54-.45a3.345,3.345,0,0,1-1.98.72c.81-.45.72-2.61,1.89-1.26a5.056,5.056,0,0,0,.9-2.34,1.171,1.171,0,0,0,.99-1.17c-.54.09-1.17-.99-1.71-.81.54-.18,2.16-.27,1.89-1.89l-.54-.45s0-.54.54-.09v-.54c-.09-.54-.09-.54-.63-.45-.09-1.08.81-2.25.72-3.33,0-.54,0-.54-.54-1.08l.9-1.62-.54.09.45-1.17c-.63-.45-.18-.9-.18-1.44-.09,0-.45.45-.54-.09a7.718,7.718,0,0,0,.9-2.7c.45-1.08-1.17-1.26-1.26-2.34a7.53,7.53,0,0,0,1.08-.09c.45-.54-.63-.45-.72-.99l.99-1.17c-1.08-.45-.63-1.62-1.26-2.07,1.44-1.26-.54-.63-.18-1.71-.54,0-.45.54-1.08.18C680.22-64.62,682.47-63.27,682.38-64.35ZM657.54-25.74c-2.25-2.61-6.3-.36-7.38.72-.54,3.24-.54,6.48-1.08,9.72,1.08,1.08,0,3.87,1.08,4.95,0,.54,1.08,0,1.08.54l-.54.54c1.62.54,4.59,3.06,6.21,2.61,0-1.08-.9-.54-.9-1.08s.54,0,.54-.54a3.326,3.326,0,0,0-.54-1.89c0,.54-.54,1.08-1.08.54l1.62-2.16-.54-.54a.529.529,0,0,1,.54-.54l-1.08-1.08c.54,0,1.08-.81,1.08-1.89,0,0-1.08,0-.54-.54a.529.529,0,0,1,.54-.54l-.54-.54a.529.529,0,0,1,.54-.54,1.885,1.885,0,0,1-.54-1.08c1.08-.54-.54,0-.54-1.08,1.08,0,1.62-1.08,2.16-1.62-1.08-1.08-2.16.54-3.24,0,0-.54-.54-1.08,0-1.08C657.09-22.32,655.92-24.66,657.54-25.74ZM669.51-5.4c.09,1.53-1.62,2.34-.54,3.42,0,.54-1.08,1.08-.54,2.16,0,.54.36.63.9.63-2.7.54-.63,3.87-3.87,3.87-1.62-.54-1.89-1.26-2.97-2.34,1.08-.54-.54-1.62,1.08-2.16l-.54-.54c.54,0,1.08-.54,1.62-1.08-.54-.54,1.08-1.08,1.62-1.62C667.35-4.14,668.16-5.94,669.51-5.4Zm64.35-39.33c-.99-2.25-6.21-1.17-6.93-.72a1.185,1.185,0,0,0,.54.54,5.573,5.573,0,0,0-2.25,1.53c-.54.54-2.16,1.62-1.26,2.7h-.54c-1.08,1.62-2.61,1.44-3.78,3.06l.54.54c-1.62-.09-2.34-.63-2.97.99-1.71,1.98-5.49,1.71-5.67,4.77l-.9.54-.72.27-2.97,1.71c-.18.99.36,1.08.9,1.71-.54.45-.9-.18-1.08-.18-1.62-.54-2.16,1.62-2.7,1.62l-.09.54c-.54,0-1.08.45-1.62-.18l.09-.54c.54-.45,0-1.08,0-1.08a15.1,15.1,0,0,1,.18-3.78c-1.08-.54,0-.9.09-1.44-.99-1.08,1.17-2.61.18-4.41.54-.99,1.26-1.98.72-3.06h.54c.54-1.08.09-2.16.18-3.78a1.984,1.984,0,0,1,1.62-.54c-.99-1.62,1.08-.99.63-2.16a23.39,23.39,0,0,0-7.92,2.61c-1.62.45-1.62,2.61-1.8,4.23-.54.54.54.54.54,1.08-.54.54-.54,0-1.08,0v.54c.54,0,1.08,0,1.08.54a.529.529,0,0,1-.54.54l-.09.54h-.54c.45,1.08-1.71,1.53.45,2.7-.54,0-.54.54-1.08.54-.54-.09-.09,1.08.45,1.08,1.08,1.08-1.08.99-1.17,2.07a.536.536,0,0,1,.45.63h.54c.54.54-.54.54-.54,1.08,1.62,1.62-2.34,2.52.36,3.78-.54.45-1.08-.09-1.08.45a2.082,2.082,0,0,1,1.62.63l-1.71,1.53c.54,0,1.62-.45,1.62.09-.63,1.08-1.71,2.34-1.71,3.42,1.08.09,2.16.09,2.61,1.17h-.54c0,2.16-.9-1.17-.99-.09l.27,1.08-.72.63c0-.54-.72-.63-1.26-.72,0,.54,0,.54.54.63l.54.54-.63.54c-.09.54.45,1.08-.09,1.08,1.08.09,1.62.63,2.16.09,2.34-1.53,6.12-2.43,7.74-4.05v-.54c1.17-1.62,3.96-3.06,5.67-5.13l-.54-.54h.54c0-.54.54,0,.54,0a2.624,2.624,0,0,1,2.25-.9c.09-1.08,1.71-1.08,2.25-2.16,0-.54-.54-.54-.54-1.08,1.08,0,2.7-.36,3.24-.36,1.8-1.53,2.43-3.69,5.13-3.51a2.166,2.166,0,0,1-.99-1.71c1.08.09,2.25-1.53,2.7-.45,1.71-.45.45,2.16,2.07,2.88l-1.08-.18c.9,2.88-.72,4.95.72,8.37l-.54-.09.99,2.25-1.08.45c0,.54.99,1.17.9,1.71-1.08-.09-1.08.9-1.62.9h.54c.54.72,1.08,1.26.45,2.34h.54l-.54.54.45,1.08-1.08-.18.99,1.8c-1.53-.18-.54,1.08-1.08,1.44.54.09.54.63,1.08.72L725.4-9c1.08.63,4.14,1.17,5.31.72l.45.54c.54,0,1.08,0,1.17-.54-.63.54-.36-.09-.9-.09.09-1.62,1.53-1.44,2.07-1.44-1.08-.63-2.16-.09-2.7-.63,1.08,0,2.16-.99,2.7-.99l.09-.54-1.08-.63,1.08-.99c-.99-.63.18-1.62.18-2.7l-1.62-.09c1.08-.99,1.08-1.53,2.34-2.52-1.08-.63.54-1.08-.54-1.71-.54-.54-1.08-.63-1.08-1.17l1.17-.45c.54-.99-1.08-.63-1.62-.63,0-1.08,1.71-1.53,1.71-2.07h-.54a1.571,1.571,0,0,0,.63-1.08l-.54-.63c-.54-1.08.54.09.54-.45l-.99-1.17c.63-.54.54,0,1.17-.45,0-1.08-1.08-.63-1.08-1.17s0-.9.54-.9a16.334,16.334,0,0,0,.09-1.8c.63-.99-1.53-2.7-.99-3.78-.45-1.08.63-2.43.63-2.43l-.54-.09-.54-.54c0-.54.54-.54,1.08-.45l-.45-1.17C735.39-42.48,730.62-44.37,733.86-44.73Zm23.49-.99c.45-.09.09-.81.63-1.08-.36,0-1.26.27-1.8.27a1.1,1.1,0,0,1-.81-.27c-1.62,1.08-4.32.9-5.4,3.06l.54.54c-2.25,0-2.25,3.42-2.7,4.86,0,0,1.08,0,1.08.54a1.583,1.583,0,0,0-.54-.09c-.36,0-.45.18-.45.54,0,.18.09.36.09.63a.965.965,0,0,1-.18.54c.18,0,.09.27,0,.27v1.89c.09.09.09.18.09.36,0,.36-.27.9-.27,1.35,0,.54.27.36.27.72,0,.27-.45.63-.45.9s.63.54.63.99c0,.36-.27.72-.27,1.08a1.043,1.043,0,0,1,.54.99c0,.63-.36,1.44-.36,2.07a1.343,1.343,0,0,0,.9,1.26c-.54.18-.63.45-.63.72,0,.45.18.9.18,1.26,0,.27-.18.54-.63.72.54.18.72.63.72,1.26,0,.81-.27,1.89-.27,2.79a15.938,15.938,0,0,0,.09,2.07c-.27.09-.36.27-.36.36,0,.36.99.9.99,1.8a1.141,1.141,0,0,1-.09.54,6.711,6.711,0,0,1,2.34-.36c.9,0,1.8.18,2.88.18a7.215,7.215,0,0,0,2.97-1.08c.09,0,.18.09.27.18v-1.08c1.08,0,2.7-1.62,3.78-1.62l-.54-.54c1.08-.54,2.7-.54,3.78-1.08a.978.978,0,0,1-.09-.45c0-.99,1.8-.18,2.25-1.17a.681.681,0,0,1-.09-.36c0-.36,2.07-2.07,2.07-2.07.09,0,.18.09.18.27,2.16-.54,2.88-2.79,5.04-3.87a1.52,1.52,0,0,1-.18-.45l.18-.36a.778.778,0,0,1-.54-.27l.54-.54c.27-.45.54-.63.81-.63.63,0,1.08,1.17,1.89,1.17a.331.331,0,0,1,.09.27c0,.36-.27.81-.27,1.17,0,.27.09.54.72.72h-.54a1.142,1.142,0,0,1,.09.54c0,.99-.72,1.98-.72,2.79a1.142,1.142,0,0,0,.63.99l-.54.54v.54l-.54,1.08c0,.54.54.54.54,1.08h-.54v.54c.54.54.54.54,1.08.54a2.156,2.156,0,0,0-1.08,2.16s.27-.27.36-.27.18.09.18.27a.529.529,0,0,1-.54.54,35.027,35.027,0,0,0,.54,4.68c0,.54,0,.54-.54.54l.54.54a.529.529,0,0,1-.54.54l.54.54-.54.81c1.53.27-.09,2.79,1.53,2.79a1.757,1.757,0,0,0,.63-.09c0,.54-.54.54-1.08.54,0,.81,1.17,1.53,1.17,2.16,0,.18-.18.36-.63.54,1.62,0,4.14,1.17,4.68,1.17V.81a1.142,1.142,0,0,0,.54.09h.09c-.09,0-.09,0-.09.09h.99c-.18-.09-.27-.18-.36-.18a5.564,5.564,0,0,1,1.44-.36L784.17,0c0-.27.72-.36.72-.81-.54,0,.18-.63,0-1.08-1.08-.54-1.62,0-2.7-.54l.54-.54a.468.468,0,0,0,.36.18c.27,0,.54-.36.63-.36.54,0,.27-1.89.09-1.44a1.1,1.1,0,0,1-.81.27c-.72,0-1.53-.27-1.89-.27,0-.45.18-.63.45-.63.45,0,1.17.45,1.71.45a.56.56,0,0,0,.54-.36.787.787,0,0,0-.81-.45c-.27,0-.63.09-.9.09-.18,0,.72-.9.63-.99l-.27-.9-.27-.36c.54-.54,1.62,0,2.16-.54-.81,0-.45-.99-1.17-.99-.18,0-.45.09-.63.09a.682.682,0,0,1-.36-.18l.54-.54h-.54l.54-.54c0-.54,0-.54-.54-1.08a.529.529,0,0,1,.54-.54v.72c.27-.54.45-1.62.9-1.8-.27.09-.63.27-.72.27s-.18-.09-.18-.27a2.25,2.25,0,0,1,1.26-.36c.99,0,1.89.45,2.88.45.27,0,.36-.81.99-.81a.331.331,0,0,1,.27.09v-.45c2.43-.54,3.33-4.14,4.86-4.32a.529.529,0,0,1,.54-.54.541.541,0,0,0,.36.09c1.26,0,.9-2.97,3.15-2.97.45,0,.81.18,1.17.18a.752.752,0,0,0,.81-.54.279.279,0,0,0-.18-.09c-.18,0-.09.45-.36.45-.09,0-.27-.09-.54-.36.54-.54,0-1.62,1.08-2.16a2.012,2.012,0,0,0,.9.27c1.26,0,1.53-2.79,2.88-2.79-.54-.27-.81-1.26-.99-1.26-.27,0-.36.09-.63.36l.09.36c-.36.27-.36.54-.63.54-.45,0-.81-.27-1.08-.9a5.993,5.993,0,0,0-2.79-.36,5.22,5.22,0,0,0-3.24.9.978.978,0,0,1,.09.45c0,.27-.18.36-.45.36s-.54-.09-.81-.09-.45.09-.45.36c-3.24.54-4.32,3.78-7.02,4.32-.54-.54-2.16-.54-2.16-1.62h1.08a1.312,1.312,0,0,1-.45-.72.412.412,0,0,1,.45-.36c-.54-.54-1.08,0-1.08-.54l.54-.54c0-.36.54-.72.81-.72.18,0,.27,0-.27-.36.54-.54,1.08-1.08,1.08-1.62h-.54s-.36.36-.36-.18c-.36,0-.36-.09-.54-.09-.09,0-.18-.09-.18-.27s.09-.27.18-.27c.18,0,.54.27.9.27,0-.54.54,0,.54-1.08h-.54c.36-.36.09-.9.27-1.08-.36-.09-.63-.81-.63-.81,0-.36.99,0,1.44-.81,0-.45-.72-1.26-.72-1.53,0-.09.09-.18.18-.27h.54l-.54-.54v-.54l.54-.54h-1.08c0-.81.9-.99.9-1.35,0-.09-.09-.27-.36-.54l1.08-.54c-.54,0-1.08,0-1.08-.54,1.08-.54.54-.54,1.08-1.62a1.141,1.141,0,0,1-.54.09c-1.08,0-1.62-1.26-2.7-1.26a1.141,1.141,0,0,0-.54.09c0-.45.72-.54.72-.54-1.17-.45-4.77-.36-5.94-.36a2.673,2.673,0,0,0-.45,1.62,2.487,2.487,0,0,0,.45,1.62c-.81.18-.9.81-.9,1.35v1.08c0,1.35-2.97,1.08-2.97,2.34a.68.68,0,0,0,.09.36c-.72,2.07-3.6,2.43-3.6,3.6a16.193,16.193,0,0,1-4.14,3.24c-2.16,2.16-4.23,2.7-6.93,4.86l-1.62,1.17c-.63,0-1.17-.9-1.98-.9l.54-.54c0-1.08-1.08-.54-1.62-1.08.36,0,.99-.27,1.44-.27a1.866,1.866,0,0,1,.54.18c-.45-.54-.54-1.53-1.44-2.07,0-.36.9-.54.9-.72,0-.09-.09-.18-.36-.36,0-.54,0-2.16.54-2.7-.54-.54-.54-.54-1.62-.54.54-.54,1.08-.54,1.08-1.62,0,0-.27.27-.45.27-.09,0-.09-.09-.09-.27l.54-.54-2.16-.54a7.455,7.455,0,0,0,2.16-1.62l-.54-1.08h1.08c-1.08-.36-.9-.36-.9-.45a.7.7,0,0,0-.72-.63.468.468,0,0,1,.36-.18c.27,0,.54.36.63.36s.09-.09.09-.18c0-.27-.18-.63-.18-.99l-.36-.63.54-1.08a1.672,1.672,0,0,0-.54-1.08l.18-1.35c-.09,0-.18-.09-.18-.27v-.54c.27-.54.36-.63.54-.63l.09-.45c0-.72,1.44-1.08,1.44-1.98A.758.758,0,0,0,757.35-45.72Zm10.26-6.57c2.16,0,1.89-2.7,3.42-2.79-.54-.18-1.71-.99-2.25-.99-1.8,0-3.78.9-5.67.9a3.062,3.062,0,0,1-.9-.09c-5.4,2.7-8.37,3.06-14.31,4.68-1.62,1.08-5.13.99-6.75,2.07l.54.99c.45,0,2.52,1.71,3.24,1.71a.688.688,0,0,0,.45-.18c1.62-1.08,4.14,0,5.22-1.62a1.244,1.244,0,0,0,.81.45l1.08-.81a3.062,3.062,0,0,0,.9.09c1.71,0,3.15-1.17,5.04-1.17C761.13-50.13,764.91-50.67,767.61-52.29Zm17.82,37.53c0,.54,1.17,0,1.17.81,0,.09-.09.18-.27.18a3.7,3.7,0,0,1-1.44-.45l.27-.45Zm-9-13.23c-.27.27-.54.45-1.08,0-.45-.45-.27-.54,0-.54C775.89-28.53,776.43-28.53,776.43-27.99ZM758.07-47.7h.54c-.09,0-.18-.09-.27-.09S758.16-47.7,758.07-47.7Z" transform="translate(-0.148 65.18)" fill="#222"/></svg>