<svg xmlns="http://www.w3.org/2000/svg" xmlns:xlink="http://www.w3.org/1999/xlink" width="14.828" height="11.002" viewBox="0 0 14.828 11.002"><defs><clipPath id="a"><rect width="2" height="5" transform="translate(1784 804)" fill="#fff" stroke="#fff" stroke-width="1"/></clipPath><clipPath id="b"><rect width="4" height="9" transform="translate(1783.8 804)" fill="#fff" stroke="#fff" stroke-width="1"/></clipPath></defs><g transform="translate(-1772.172 -800.999)"><path d="M2397.312-3525.755l-2.812-2.665H2392a1,1,0,0,1-1-1v-3.12a1,1,0,0,1,1-1h2.5l2.813-2.666a1,1,0,0,1,1.688.726v9a1,1,0,0,1-1.006,1A.98.98,0,0,1,2397.312-3525.755Z" transform="translate(-618.829 4337.48)" fill="#fff"/><g transform="translate(-2)" clip-path="url(#a)"><path d="M2.5,1A1.5,1.5,0,1,0,4,2.5,1.5,1.5,0,0,0,2.5,1m0-1A2.5,2.5,0,1,1,0,2.5,2.5,2.5,0,0,1,2.5,0Z" transform="translate(1781 804)" fill="#fff"/></g><g transform="translate(-0.8 -2)" clip-path="url(#b)"><path d="M4.5,1A3.5,3.5,0,1,0,8,4.5,3.5,3.5,0,0,0,4.5,1m0-1A4.5,4.5,0,1,1,0,4.5,4.5,4.5,0,0,1,4.5,0Z" transform="translate(1778.8 804)" fill="#fff"/></g></g></svg>