<svg xmlns="http://www.w3.org/2000/svg" width="15.656" height="11.002" viewBox="0 0 15.656 11.002"><g transform="translate(-1769 -849)"><path d="M2393.828-3534.464l-2.121,2.121-.707-.707,2.121-2.121-2.121-2.121.707-.707,2.121,2.121,2.121-2.122.707.708-2.122,2.121,2.122,2.121-.707.708Z" transform="translate(-612 4390)" fill="#fff"/><path d="M2397.312-3525.755l-2.812-2.665H2392a1,1,0,0,1-1-1v-3.12a1,1,0,0,1,1-1h2.5l2.813-2.666a1,1,0,0,1,1.688.726v9a1,1,0,0,1-1.006,1A.98.98,0,0,1,2397.312-3525.755Z" transform="translate(-622 4385.481)" fill="#fff"/></g></svg>